<svg id="レイヤー_1" data-name="レイヤー 1" xmlns="http://www.w3.org/2000/svg" width="174.39mm" height="174.59mm" viewBox="0 0 494.34 494.91"><defs><style>.cls-1,.cls-10,.cls-11,.cls-12,.cls-13,.cls-14,.cls-15,.cls-16,.cls-17,.cls-2,.cls-20,.cls-21,.cls-22,.cls-4,.cls-5,.cls-9{fill:none;}.cls-1,.cls-12,.cls-14,.cls-16,.cls-17,.cls-18,.cls-19,.cls-2,.cls-21,.cls-23,.cls-4,.cls-5,.cls-8,.cls-9{stroke:#000;}.cls-1,.cls-10,.cls-11,.cls-12,.cls-13,.cls-15,.cls-16,.cls-21,.cls-22,.cls-9{stroke-miterlimit:10;}.cls-1{stroke-width:6.08px;}.cls-2,.cls-20{stroke-linecap:round;stroke-linejoin:round;}.cls-2,.cls-4,.cls-5,.cls-8,.cls-9{stroke-width:1.11px;}.cls-18,.cls-19,.cls-3{fill:#bfbfbf;}.cls-5{stroke-miterlimit:2;}.cls-6,.cls-8{fill:#fff;}.cls-23,.cls-7{fill:#ccc;}.cls-10{stroke:#231815;stroke-width:7.38px;}.cls-11,.cls-13,.cls-15,.cls-22{stroke:#ccc;}.cls-11{stroke-width:4.53px;}.cls-12{stroke-width:5.68px;}.cls-13{stroke-width:2.84px;}.cls-14,.cls-23{stroke-width:1.22px;}.cls-15{stroke-width:3.04px;}.cls-16{stroke-width:1.38px;}.cls-17,.cls-18{stroke-width:1.3px;}.cls-19{stroke-width:0.87px;}.cls-20{stroke:#040000;stroke-width:1.61px;}.cls-21{stroke-width:11.07px;}.cls-22{stroke-width:8.25px;}.cls-24{fill:#231815;}</style></defs><path class="cls-1" d="M187.77,166.07v35a4,4,0,0,1-3.94,3.93H83.2A4,4,0,0,0,79.26,209v9.36"/><path d="M34.63,368.78h1v4.79H38v.86H34.63Z"/><path d="M40,374.76l2-6.07h.72l-2,6.07Z"/><path d="M49.82,372.12c0-.72-.08-1.6-.07-2.37h0c-.19.69-.42,1.45-.67,2.17l-.82,2.44h-.8L46.69,372c-.22-.72-.42-1.49-.57-2.2h0c0,.74-.06,1.64-.1,2.41l-.13,2.27h-1l.38-5.65h1.36l.73,2.27c.2.67.38,1.34.52,2h0c.15-.61.34-1.3.56-2l.78-2.26h1.34l.32,5.65h-1Z"/><path d="M57,371.55a2.67,2.67,0,0,1-2.7,3,2.6,2.6,0,0,1-2.6-2.87,2.71,2.71,0,0,1,2.68-3A2.61,2.61,0,0,1,57,371.55Zm-4.21.08c0,1.15.58,2.07,1.56,2.07s1.56-.93,1.56-2.11-.53-2.08-1.56-2.08S52.78,370.47,52.78,371.63Z"/><path d="M57.88,374.43v-5.65h1.17l1.46,2.42a14.74,14.74,0,0,1,1,1.9h0c-.07-.76-.09-1.49-.09-2.35v-2h1v5.65H61.29l-1.47-2.49a18,18,0,0,1-1-1.94h0c0,.72,0,1.47,0,2.4v2Z"/><path d="M68.55,371.55a2.67,2.67,0,0,1-2.7,3,2.61,2.61,0,0,1-2.6-2.87,2.71,2.71,0,0,1,2.68-3A2.61,2.61,0,0,1,68.55,371.55Zm-4.21.08c0,1.15.58,2.07,1.57,2.07s1.55-.93,1.55-2.11-.52-2.08-1.55-2.08S64.34,370.47,64.34,371.63Z"/><path d="M204.62,368.78h1v4.79H208v.86h-3.35Z"/><path d="M210,374.76l2-6.07h.72l-2,6.07Z"/><path d="M219.81,372.12c0-.72-.08-1.6-.07-2.37h0c-.19.69-.42,1.45-.67,2.17l-.82,2.44h-.8l-.75-2.41c-.22-.72-.42-1.49-.57-2.2h0c0,.74-.06,1.64-.1,2.41l-.12,2.27h-1l.38-5.65h1.36l.73,2.27c.2.67.38,1.34.52,2h0c.15-.61.34-1.3.56-2l.78-2.26h1.34l.33,5.65h-1Z"/><path d="M227,371.55a2.67,2.67,0,0,1-2.7,3,2.61,2.61,0,0,1-2.6-2.87,2.71,2.71,0,0,1,2.68-3A2.61,2.61,0,0,1,227,371.55Zm-4.21.08c0,1.15.58,2.07,1.57,2.07s1.55-.93,1.55-2.11-.52-2.08-1.55-2.08S222.77,370.47,222.77,371.63Z"/><path d="M227.87,374.43v-5.65H229l1.46,2.42a16.25,16.25,0,0,1,1,1.9h0c-.07-.76-.09-1.49-.09-2.35v-2h1v5.65h-1.06l-1.47-2.49a20,20,0,0,1-1-1.94h0c0,.72,0,1.47,0,2.4v2Z"/><path d="M238.54,371.55a2.66,2.66,0,0,1-2.7,3,2.61,2.61,0,0,1-2.6-2.87,2.71,2.71,0,0,1,2.68-3A2.61,2.61,0,0,1,238.54,371.55Zm-4.21.08c0,1.15.58,2.07,1.57,2.07s1.56-.93,1.56-2.11-.53-2.08-1.56-2.08S234.33,370.47,234.33,371.63Z"/><path d="M105.92,369.19a11,11,0,0,1,1.56-.11,2.59,2.59,0,0,1,1.74.45,1.43,1.43,0,0,1,.49,1.13,1.5,1.5,0,0,1-1,1.41v0a1.44,1.44,0,0,1,.78,1.09,10.94,10.94,0,0,0,.45,1.57h-1.07a8.24,8.24,0,0,1-.37-1.33c-.16-.74-.43-1-1-1h-.52v2.32h-1Zm1,2.5h.62c.69,0,1.13-.37,1.13-.93s-.44-.91-1.11-.91a2.57,2.57,0,0,0-.64.06Z"/><path d="M272.38,369.19a11,11,0,0,1,1.56-.11,2.59,2.59,0,0,1,1.74.45,1.43,1.43,0,0,1,.49,1.13,1.5,1.5,0,0,1-1,1.41v0a1.44,1.44,0,0,1,.78,1.09,10.94,10.94,0,0,0,.45,1.57h-1.07a8.24,8.24,0,0,1-.37-1.33c-.16-.74-.43-1-1-1h-.53v2.32h-1Zm1,2.5H274c.69,0,1.13-.37,1.13-.93s-.44-.91-1.11-.91a2.63,2.63,0,0,0-.64.06Z"/><path class="cls-2" d="M232.71,339.48a11.13,11.13,0,1,0-11.13,11.13,11.13,11.13,0,0,0,11.13-11.13Z"/><path class="cls-2" d="M237.42,339.48a15.84,15.84,0,1,0-15.84,15.84,15.84,15.84,0,0,0,15.84-15.84Z"/><path class="cls-2" d="M285.51,339.48a11.13,11.13,0,1,0-11.13,11.13,11.13,11.13,0,0,0,11.13-11.13Z"/><path class="cls-2" d="M290.22,339.48a15.84,15.84,0,1,0-15.84,15.84,15.84,15.84,0,0,0,15.84-15.84Z"/><path class="cls-2" d="M62.72,339.48a11.13,11.13,0,1,0-11.13,11.13,11.13,11.13,0,0,0,11.13-11.13Z"/><path class="cls-2" d="M67.43,339.48a15.84,15.84,0,1,0-15.84,15.84,15.84,15.84,0,0,0,15.84-15.84Z"/><path class="cls-2" d="M119.05,339.48a11.13,11.13,0,1,0-11.13,11.13,11.13,11.13,0,0,0,11.13-11.13Z"/><path class="cls-2" d="M123.76,339.48a15.84,15.84,0,1,0-15.84,15.84,15.84,15.84,0,0,0,15.84-15.84Z"/><rect class="cls-3" x="224.84" y="441.75" width="63.25" height="44.43"/><path class="cls-4" d="M213.7,448h1.94m-6.32,0a3.53,3.53,0,1,0,3.53-3.52A3.52,3.52,0,0,0,209.32,448Zm2.3,34.67a1.33,1.33,0,1,0,1.33-1.32A1.33,1.33,0,0,0,211.62,482.66Zm8.77-7h1.1v-3.08h-1.1Zm-.11,4.8h1.32v-8.1h-1.32Zm.12-6.34h1.08m3.36,12.08V441.75H287a.88.88,0,0,1,.88.88V485.3a.88.88,0,0,1-.88.88Zm0-44.43h-19a.88.88,0,0,0-.89.88V485.3a.88.88,0,0,0,.89.88h18.95M205,487.5a1.76,1.76,0,0,0,1.76,1.76h82.49A1.76,1.76,0,0,0,291,487.5V440.43a1.76,1.76,0,0,0-1.76-1.76H206.74a1.76,1.76,0,0,0-1.76,1.76Z"/><path d="M214.83,444.18a.22.22,0,1,0,.22-.22A.22.22,0,0,0,214.83,444.18Z"/><path class="cls-4" d="M214.83,444.18a.22.22,0,1,0,.22-.22A.22.22,0,0,0,214.83,444.18Z"/><path d="M212.63,443.6a.21.21,0,0,0,.22.21.21.21,0,0,0,.21-.21.22.22,0,1,0-.43,0Z"/><path class="cls-4" d="M212.63,443.6a.21.21,0,0,0,.22.21.21.21,0,0,0,.21-.21.22.22,0,1,0-.43,0Z"/><path d="M216.44,445.79a.22.22,0,0,0,.22.22.22.22,0,0,0,0-.44A.22.22,0,0,0,216.44,445.79Z"/><path class="cls-4" d="M216.44,445.79a.22.22,0,0,0,.22.22.22.22,0,0,0,0-.44A.22.22,0,0,0,216.44,445.79Z"/><path d="M217,448a.22.22,0,1,0,.44,0,.22.22,0,1,0-.44,0Z"/><path class="cls-4" d="M217,448a.22.22,0,1,0,.44,0,.22.22,0,1,0-.44,0Z"/><path d="M216.45,450.2a.22.22,0,0,0,.44,0,.22.22,0,0,0-.44,0Z"/><path class="cls-4" d="M216.45,450.2a.22.22,0,0,0,.44,0,.22.22,0,0,0-.44,0Z"/><path d="M214.83,451.8a.22.22,0,1,0,.44,0,.22.22,0,1,0-.44,0Z"/><path class="cls-4" d="M214.83,451.8a.22.22,0,1,0,.44,0,.22.22,0,1,0-.44,0Z"/><path d="M212.63,452.39a.21.21,0,0,0,.22.22.22.22,0,0,0,.22-.22.22.22,0,0,0-.22-.22A.22.22,0,0,0,212.63,452.39Z"/><path class="cls-4" d="M212.63,452.39a.21.21,0,0,0,.22.22.22.22,0,0,0,.22-.22.22.22,0,0,0-.22-.22A.22.22,0,0,0,212.63,452.39Z"/><path d="M210.42,451.8a.22.22,0,1,0,.22-.22A.22.22,0,0,0,210.42,451.8Z"/><path class="cls-4" d="M210.42,451.8a.22.22,0,1,0,.22-.22A.22.22,0,0,0,210.42,451.8Z"/><path d="M210.42,444.18a.22.22,0,1,0,.44,0,.22.22,0,0,0-.44,0Z"/><path class="cls-4" d="M210.42,444.18a.22.22,0,1,0,.44,0,.22.22,0,0,0-.44,0Z"/><path d="M208.69,450.19a.33.33,0,0,0,.33.33.33.33,0,0,0,0-.66A.33.33,0,0,0,208.69,450.19Z"/><path class="cls-4" d="M208.69,450.19a.33.33,0,0,0,.33.33.33.33,0,0,0,0-.66A.33.33,0,0,0,208.69,450.19Z"/><path d="M208.7,445.79a.33.33,0,0,0,.66,0,.33.33,0,0,0-.66,0Z"/><path class="cls-4" d="M208.7,445.79a.33.33,0,0,0,.66,0,.33.33,0,0,0-.66,0Z"/><path class="cls-5" d="M210.52,482.85l-.16.74m-1.06-.74.16.74m1-.3a.9.9,0,0,0,.34-.7.87.87,0,1,0-1.74,0,.9.9,0,0,0,.35.71"/><path d="M212.28,482.66a.67.67,0,0,0,1.33,0,.67.67,0,0,0-1.33,0Z"/><path class="cls-4" d="M212.28,482.66a.67.67,0,0,0,1.33,0,.67.67,0,0,0-1.33,0Z"/><path class="cls-4" d="M212.62,468.48h1.24m-4,0a2.26,2.26,0,1,0,2.25-2.25A2.25,2.25,0,0,0,209.82,468.48Z"/><path d="M213.34,466a.14.14,0,1,0,.14-.14A.14.14,0,0,0,213.34,466Z"/><path class="cls-4" d="M213.34,466a.14.14,0,1,0,.14-.14A.14.14,0,0,0,213.34,466Z"/><path d="M211.93,465.66a.14.14,0,0,0,.28,0,.14.14,0,0,0-.28,0Z"/><path class="cls-4" d="M211.93,465.66a.14.14,0,0,0,.28,0,.14.14,0,0,0-.28,0Z"/><path d="M214.37,467.07a.14.14,0,1,0,.14-.14A.14.14,0,0,0,214.37,467.07Z"/><path class="cls-4" d="M214.37,467.07a.14.14,0,1,0,.14-.14A.14.14,0,0,0,214.37,467.07Z"/><path d="M214.76,468.48a.14.14,0,1,0,.14-.14A.14.14,0,0,0,214.76,468.48Z"/><path class="cls-4" d="M214.76,468.48a.14.14,0,1,0,.14-.14A.14.14,0,0,0,214.76,468.48Z"/><path d="M214.38,469.89a.14.14,0,1,0,.28,0,.14.14,0,1,0-.28,0Z"/><path class="cls-4" d="M214.38,469.89a.14.14,0,1,0,.28,0,.14.14,0,1,0-.28,0Z"/><path d="M213.34,470.92a.14.14,0,1,0,.14-.14A.14.14,0,0,0,213.34,470.92Z"/><path class="cls-4" d="M213.34,470.92a.14.14,0,1,0,.14-.14A.14.14,0,0,0,213.34,470.92Z"/><path d="M211.93,471.3a.14.14,0,1,0,.28,0,.14.14,0,1,0-.28,0Z"/><path class="cls-4" d="M211.93,471.3a.14.14,0,1,0,.28,0,.14.14,0,1,0-.28,0Z"/><path d="M210.52,470.92a.14.14,0,1,0,.14-.14A.14.14,0,0,0,210.52,470.92Z"/><path class="cls-4" d="M210.52,470.92a.14.14,0,1,0,.14-.14A.14.14,0,0,0,210.52,470.92Z"/><path d="M210.52,466a.14.14,0,1,0,.14-.14A.14.14,0,0,0,210.52,466Z"/><path class="cls-4" d="M210.52,466a.14.14,0,1,0,.14-.14A.14.14,0,0,0,210.52,466Z"/><path d="M209.41,469.89a.21.21,0,0,0,.21.2.2.2,0,0,0,.21-.2.21.21,0,0,0-.21-.22A.22.22,0,0,0,209.41,469.89Z"/><path class="cls-4" d="M209.41,469.89a.21.21,0,0,0,.21.2.2.2,0,0,0,.21-.2.21.21,0,0,0-.21-.22A.22.22,0,0,0,209.41,469.89Z"/><path d="M209.42,467.07a.21.21,0,0,0,.21.21.21.21,0,1,0,0-.42A.21.21,0,0,0,209.42,467.07Z"/><path class="cls-4" d="M209.42,467.07a.21.21,0,0,0,.21.21.21.21,0,1,0,0-.42A.21.21,0,0,0,209.42,467.07Z"/><path class="cls-4" d="M212.39,459.71h1.23m-4,0a2.26,2.26,0,1,0,2.26-2.25A2.26,2.26,0,0,0,209.58,459.71Z"/><path d="M213.11,457.27a.14.14,0,0,0,.14.14.14.14,0,0,0,0-.28A.14.14,0,0,0,213.11,457.27Z"/><path class="cls-4" d="M213.11,457.27a.14.14,0,0,0,.14.14.14.14,0,0,0,0-.28A.14.14,0,0,0,213.11,457.27Z"/><path d="M211.69,456.89a.15.15,0,0,0,.14.15.15.15,0,0,0,.15-.15.15.15,0,0,0-.15-.14A.15.15,0,0,0,211.69,456.89Z"/><path class="cls-4" d="M211.69,456.89a.15.15,0,0,0,.14.15.15.15,0,0,0,.15-.15.15.15,0,0,0-.15-.14A.15.15,0,0,0,211.69,456.89Z"/><path d="M214.14,458.3a.14.14,0,1,0,.14-.14A.14.14,0,0,0,214.14,458.3Z"/><path class="cls-4" d="M214.14,458.3a.14.14,0,1,0,.14-.14A.14.14,0,0,0,214.14,458.3Z"/><path d="M214.52,459.71a.14.14,0,0,0,.14.14.14.14,0,1,0,0-.28A.14.14,0,0,0,214.52,459.71Z"/><path class="cls-4" d="M214.52,459.71a.14.14,0,0,0,.14.14.14.14,0,1,0,0-.28A.14.14,0,0,0,214.52,459.71Z"/><path d="M214.14,461.12a.14.14,0,0,0,.15.14.14.14,0,0,0,0-.28A.14.14,0,0,0,214.14,461.12Z"/><path class="cls-4" d="M214.14,461.12a.14.14,0,0,0,.15.14.14.14,0,0,0,0-.28A.14.14,0,0,0,214.14,461.12Z"/><path d="M213.11,462.15a.14.14,0,1,0,.14-.14A.14.14,0,0,0,213.11,462.15Z"/><path class="cls-4" d="M213.11,462.15a.14.14,0,1,0,.14-.14A.14.14,0,0,0,213.11,462.15Z"/><path d="M211.69,462.53a.15.15,0,0,0,.14.14.15.15,0,0,0,.15-.14.14.14,0,0,0-.15-.14A.14.14,0,0,0,211.69,462.53Z"/><path class="cls-4" d="M211.69,462.53a.15.15,0,0,0,.14.14.15.15,0,0,0,.15-.14.14.14,0,0,0-.15-.14A.14.14,0,0,0,211.69,462.53Z"/><circle cx="210.42" cy="462.15" r="0.14"/><circle class="cls-4" cx="210.42" cy="462.15" r="0.14"/><path d="M210.29,457.27a.14.14,0,0,0,.14.14.14.14,0,0,0,0-.28A.14.14,0,0,0,210.29,457.27Z"/><path class="cls-4" d="M210.29,457.27a.14.14,0,0,0,.14.14.14.14,0,0,0,0-.28A.14.14,0,0,0,210.29,457.27Z"/><path d="M209.18,461.11a.21.21,0,1,0,.42,0,.21.21,0,1,0-.42,0Z"/><path class="cls-4" d="M209.18,461.11a.21.21,0,1,0,.42,0,.21.21,0,1,0-.42,0Z"/><path d="M209.18,458.3a.21.21,0,0,0,.21.21.21.21,0,0,0,.22-.21.22.22,0,0,0-.43,0Z"/><path class="cls-4" d="M209.18,458.3a.21.21,0,0,0,.21.21.21.21,0,0,0,.22-.21.22.22,0,0,0-.43,0Z"/><path class="cls-4" d="M211.84,477.44a1.33,1.33,0,1,0,1.32-1.32A1.32,1.32,0,0,0,211.84,477.44Z"/><path d="M212.5,477.44a.67.67,0,0,0,1.33,0,.67.67,0,0,0-1.33,0Z"/><path class="cls-4" d="M212.5,477.44a.67.67,0,0,0,1.33,0,.67.67,0,0,0-1.33,0Z"/><polygon class="cls-6" points="432.31 324.84 397.3 324.84 397.3 354.12 435.4 354.12 435.4 324.84 432.31 324.84"/><polygon class="cls-4" points="432.31 324.84 397.3 324.84 397.3 354.12 435.4 354.12 435.4 324.84 432.31 324.84"/><rect class="cls-6" x="400.38" y="327.92" width="31.93" height="23.12"/><rect class="cls-4" x="400.38" y="327.92" width="31.93" height="23.12"/><rect class="cls-6" x="406.29" y="336.49" width="20.11" height="5.99"/><rect class="cls-4" x="406.29" y="336.49" width="20.11" height="5.99"/><polygon class="cls-4" points="412.44 485.9 412.44 477.53 396.45 477.53 396.45 485.9 374.83 485.9 374.83 487.52 396.45 487.52 412.44 487.52 434.06 487.52 434.06 485.9 412.44 485.9"/><rect class="cls-7" x="354.75" y="418.41" width="99.39" height="62.12"/><path class="cls-8" d="M354.75,418.41v62.12h99.39V418.41Zm96.39,59.12H357.75V421.41h93.39Z"/><rect class="cls-8" x="463.6" y="418.41" width="14.35" height="69.11"/><rect x="466.84" y="423.99" width="1.73" height="22.54"/><rect class="cls-4" x="471.83" y="423.99" width="3.36" height="28.49"/><path class="cls-4" d="M472.83,474.77a2.06,2.06,0,1,1-2.06-2.06A2.06,2.06,0,0,1,472.83,474.77Z"/><rect class="cls-4" x="468.39" y="479.47" width="4.77" height="4.77"/><polyline class="cls-9" points="139.59 339.48 155.43 339.48 155.43 494.35 0.56 494.35 0.56 339.48 16.39 339.48"/><polyline class="cls-9" points="309.58 339.48 325.42 339.48 325.42 494.35 170.55 494.35 170.55 339.48 186.38 339.48"/><polyline class="cls-9" points="451.55 339.48 493.78 339.48 493.78 494.35 338.91 494.35 338.91 339.48 381.15 339.48"/><path class="cls-10" d="M274.18,254.72V217.85a3.7,3.7,0,0,1,3.68-3.69h32.5a3.69,3.69,0,0,0,3.68-3.68v-25.4"/><path class="cls-11" d="M274.18,254.72V217.85a3.7,3.7,0,0,1,3.68-3.69h32.5a3.69,3.69,0,0,0,3.68-3.68v-25.4"/><path class="cls-12" d="M51.87,254.72V221.64a3.5,3.5,0,0,1,3.5-3.5h49.32a3.5,3.5,0,0,1,3.5,3.5v33.08"/><path class="cls-13" d="M51.87,254.72V221.64a3.5,3.5,0,0,1,3.5-3.5h49.32a3.5,3.5,0,0,1,3.5,3.5v33.08"/><path class="cls-6" d="M310.9,157.3v-26c0-.45.77-1,1.07-1.31a.94.94,0,0,0,.09-1.17l-1-1.11a1.56,1.56,0,0,1-.06-1.41l1.89-2.8a1.35,1.35,0,0,1,1.13-.69,1.49,1.49,0,0,1,1.14.75l1.88,2.74a1.39,1.39,0,0,1-.1,1.38l-1.09,1.17a.84.84,0,0,0,.09,1.14c.32.27,1.24.86,1.24,1.31v26"/><path class="cls-14" d="M310.9,157.3v-26c0-.45.77-1,1.07-1.31a.94.94,0,0,0,.09-1.17l-1-1.11a1.56,1.56,0,0,1-.06-1.41l1.89-2.8a1.35,1.35,0,0,1,1.13-.69,1.49,1.49,0,0,1,1.14.75l1.88,2.74a1.39,1.39,0,0,1-.1,1.38l-1.09,1.17a.84.84,0,0,0,.09,1.14c.32.27,1.24.86,1.24,1.31v26"/><rect x="310.9" y="131.81" width="6.28" height="1.2"/><rect class="cls-14" x="310.9" y="131.81" width="6.28" height="1.2"/><path class="cls-3" d="M308.48,157.44l-.9,28.47c0,6.25,2.9,8.15,6.43,8.15s6.43-1.9,6.43-8.15l-.89-28.47Z"/><path class="cls-14" d="M308.48,157.44l-.9,28.47c0,6.25,2.9,8.15,6.43,8.15s6.43-1.9,6.43-8.15l-.89-28.47Z"/><path class="cls-6" d="M277.64,275.22v28.86c0,.51-.85,1.16-1.19,1.46a1,1,0,0,0-.11,1.3l1.12,1.23a1.74,1.74,0,0,1,.07,1.57l-2.1,3.11a1.49,1.49,0,0,1-1.26.77,1.69,1.69,0,0,1-1.27-.83l-2.09-3.05a1.58,1.58,0,0,1,.12-1.53l1.21-1.31a.93.93,0,0,0-.1-1.26c-.36-.3-1.38-1-1.38-1.46V275.22"/><path class="cls-14" d="M277.64,275.22v28.86c0,.51-.85,1.16-1.19,1.46a1,1,0,0,0-.11,1.3l1.12,1.23a1.74,1.74,0,0,1,.07,1.57l-2.1,3.11a1.49,1.49,0,0,1-1.26.77,1.69,1.69,0,0,1-1.27-.83l-2.09-3.05a1.58,1.58,0,0,1,.12-1.53l1.21-1.31a.93.93,0,0,0-.1-1.26c-.36-.3-1.38-1-1.38-1.46V275.22"/><rect x="270.66" y="302.21" width="6.98" height="1.34"/><rect class="cls-14" x="270.66" y="302.21" width="6.98" height="1.34"/><path class="cls-3" d="M280.33,275.07l1-31.64c0-6.94-3.21-9.06-7.14-9.06s-7.14,2.12-7.14,9.06l1,31.64Z"/><path class="cls-14" d="M280.33,275.07l1-31.64c0-6.94-3.21-9.06-7.14-9.06s-7.14,2.12-7.14,9.06l1,31.64Z"/><path class="cls-10" d="M221.72,254.72V217.85a3.7,3.7,0,0,1,3.68-3.69h33.23a3.68,3.68,0,0,0,3.68-3.68v-25.4"/><path class="cls-11" d="M221.72,254.72V217.85a3.7,3.7,0,0,1,3.68-3.69h33.23a3.68,3.68,0,0,0,3.68-3.68v-25.4"/><path class="cls-6" d="M259.17,157.3v-26c0-.45.77-1,1.07-1.31a.94.94,0,0,0,.1-1.17l-1-1.11a1.56,1.56,0,0,1-.07-1.41l1.89-2.8a1.35,1.35,0,0,1,1.14-.69,1.51,1.51,0,0,1,1.14.75l1.88,2.74a1.42,1.42,0,0,1-.11,1.38l-1.08,1.17a.83.83,0,0,0,.09,1.14c.31.27,1.23.86,1.23,1.31v26"/><path class="cls-14" d="M259.17,157.3v-26c0-.45.77-1,1.07-1.31a.94.94,0,0,0,.1-1.17l-1-1.11a1.56,1.56,0,0,1-.07-1.41l1.89-2.8a1.35,1.35,0,0,1,1.14-.69,1.51,1.51,0,0,1,1.14.75l1.88,2.74a1.42,1.42,0,0,1-.11,1.38l-1.08,1.17a.83.83,0,0,0,.09,1.14c.31.27,1.23.86,1.23,1.31v26"/><rect x="259.17" y="131.81" width="6.28" height="1.2"/><rect class="cls-14" x="259.17" y="131.81" width="6.28" height="1.2"/><path class="cls-3" d="M256.75,157.44l-.89,28.47c0,6.25,2.89,8.15,6.43,8.15s6.43-1.9,6.43-8.15l-.9-28.47Z"/><path class="cls-14" d="M256.75,157.44l-.89,28.47c0,6.25,2.89,8.15,6.43,8.15s6.43-1.9,6.43-8.15l-.9-28.47Z"/><path class="cls-6" d="M225.18,275.22v28.86c0,.51-.85,1.16-1.19,1.46a1,1,0,0,0-.11,1.3l1.12,1.23a1.74,1.74,0,0,1,.07,1.57l-2.1,3.11a1.5,1.5,0,0,1-1.26.77,1.69,1.69,0,0,1-1.27-.83l-2.09-3.05a1.58,1.58,0,0,1,.12-1.53l1.21-1.31a.93.93,0,0,0-.1-1.26c-.36-.3-1.38-1-1.38-1.46V275.22"/><path class="cls-14" d="M225.18,275.22v28.86c0,.51-.85,1.16-1.19,1.46a1,1,0,0,0-.11,1.3l1.12,1.23a1.74,1.74,0,0,1,.07,1.57l-2.1,3.11a1.5,1.5,0,0,1-1.26.77,1.69,1.69,0,0,1-1.27-.83l-2.09-3.05a1.58,1.58,0,0,1,.12-1.53l1.21-1.31a.93.93,0,0,0-.1-1.26c-.36-.3-1.38-1-1.38-1.46V275.22"/><rect x="218.2" y="302.21" width="6.98" height="1.34"/><rect class="cls-14" x="218.2" y="302.21" width="6.98" height="1.34"/><path class="cls-3" d="M227.87,275.07l1-31.64c0-6.94-3.21-9.06-7.14-9.06s-7.14,2.12-7.14,9.06l1,31.64Z"/><path class="cls-14" d="M227.87,275.07l1-31.64c0-6.94-3.21-9.06-7.14-9.06s-7.14,2.12-7.14,9.06l1,31.64Z"/><path class="cls-6" d="M55.33,275.22v28.86c0,.51-.86,1.16-1.19,1.46a1,1,0,0,0-.11,1.3l1.11,1.23a1.68,1.68,0,0,1,.07,1.57l-2.1,3.11a1.49,1.49,0,0,1-1.26.77,1.65,1.65,0,0,1-1.26-.83l-2.09-3.05a1.55,1.55,0,0,1,.12-1.53l1.2-1.31a.92.92,0,0,0-.1-1.26c-.35-.3-1.37-1-1.37-1.46V275.22"/><path class="cls-14" d="M55.33,275.22v28.86c0,.51-.86,1.16-1.19,1.46a1,1,0,0,0-.11,1.3l1.11,1.23a1.68,1.68,0,0,1,.07,1.57l-2.1,3.11a1.49,1.49,0,0,1-1.26.77,1.65,1.65,0,0,1-1.26-.83l-2.09-3.05a1.55,1.55,0,0,1,.12-1.53l1.2-1.31a.92.92,0,0,0-.1-1.26c-.35-.3-1.37-1-1.37-1.46V275.22"/><rect x="48.35" y="302.21" width="6.98" height="1.34"/><rect class="cls-14" x="48.35" y="302.21" width="6.98" height="1.34"/><path class="cls-3" d="M58,275.07l1-31.64c0-6.94-3.22-9.06-7.14-9.06s-7.15,2.12-7.15,9.06l1,31.64Z"/><path class="cls-14" d="M58,275.07l1-31.64c0-6.94-3.22-9.06-7.14-9.06s-7.15,2.12-7.15,9.06l1,31.64Z"/><path class="cls-15" d="M187.77,166.07v35a4,4,0,0,1-3.94,3.93H83.2A4,4,0,0,0,79.26,209v9.36"/><path class="cls-6" d="M111.65,275.22v28.86c0,.51-.85,1.16-1.18,1.46a1,1,0,0,0-.11,1.3l1.11,1.23a1.74,1.74,0,0,1,.07,1.57l-2.1,3.11a1.49,1.49,0,0,1-1.26.77,1.65,1.65,0,0,1-1.26-.83l-2.1-3.05a1.58,1.58,0,0,1,.12-1.53l1.21-1.31a.92.92,0,0,0-.1-1.26c-.35-.3-1.37-1-1.37-1.46V275.22"/><path class="cls-14" d="M111.65,275.22v28.86c0,.51-.85,1.16-1.18,1.46a1,1,0,0,0-.11,1.3l1.11,1.23a1.74,1.74,0,0,1,.07,1.57l-2.1,3.11a1.49,1.49,0,0,1-1.26.77,1.65,1.65,0,0,1-1.26-.83l-2.1-3.05a1.58,1.58,0,0,1,.12-1.53l1.21-1.31a.92.92,0,0,0-.1-1.26c-.35-.3-1.37-1-1.37-1.46V275.22"/><rect x="104.68" y="302.21" width="6.98" height="1.34"/><rect class="cls-14" x="104.68" y="302.21" width="6.98" height="1.34"/><path class="cls-3" d="M114.34,275.07l1-31.64c0-6.94-3.22-9.06-7.15-9.06s-7.14,2.12-7.14,9.06l1,31.64Z"/><path class="cls-14" d="M114.34,275.07l1-31.64c0-6.94-3.22-9.06-7.15-9.06s-7.14,2.12-7.14,9.06l1,31.64Z"/><rect class="cls-16" x="79.1" y="0.69" width="359.53" height="113.52"/><path class="cls-6" d="M185.46,145.06V128.31c0-.3.57-.67.79-.85a.55.55,0,0,0,.07-.76l-.74-.71a.88.88,0,0,1,0-.91l1.39-1.81a1,1,0,0,1,.84-.44,1.13,1.13,0,0,1,.84.48l1.39,1.77a.82.82,0,0,1-.08.89l-.8.76a.49.49,0,0,0,.06.73c.24.18.92.55.92.85v16.75"/><path class="cls-17" d="M185.46,145.06V128.31c0-.3.57-.67.79-.85a.55.55,0,0,0,.07-.76l-.74-.71a.88.88,0,0,1,0-.91l1.39-1.81a1,1,0,0,1,.84-.44,1.13,1.13,0,0,1,.84.48l1.39,1.77a.82.82,0,0,1-.08.89l-.8.76a.49.49,0,0,0,.06.73c.24.18.92.55.92.85v16.75"/><rect x="185.46" y="128.62" width="4.63" height="0.77"/><rect class="cls-17" x="185.46" y="128.62" width="4.63" height="0.77"/><polygon class="cls-18" points="191.16 176.2 184.38 176.2 183.85 164.21 191.68 164.21 191.16 176.2"/><line class="cls-19" x1="184.36" y1="170.2" x2="191.17" y2="170.2"/><line class="cls-19" x1="184.36" y1="171.99" x2="191.17" y2="171.99"/><line class="cls-19" x1="184.36" y1="173.78" x2="191.17" y2="173.78"/><rect class="cls-18" x="182.5" y="143.36" width="10.54" height="23.92"/><path class="cls-20" d="M184.66,64.6l-.33,2.11.33,2.11,1.3,1.62,1.62,1.3,2.11.33,2.11-.33,1.63-1.3,1.3-1.62.32-2.11-.32-2.11L193.43,63l-1.63-1.13-2.11-.49-2.11.49L186,63l-1.3,1.63m-5.2-1.3L179,66.71l.49,3.57,1.79,3.09,2.6,2.27,3.24,1.46,3.41.33,3.58-.82,2.92-2,2.11-2.76,1.14-3.41V64.92l-1.14-3.25L197,58.75l-2.92-2L190.5,56l-3.41.33-3.24,1.46-2.6,2.27-1.79,3.25m3.9,6-.65-2.6.65-2.6,1.46-2.27,2.27-1.47,2.6-.48,2.6.48,2.27,1.47L196,64.11l.65,2.6-.65,2.6-1.46,2.27L192.29,73l-2.6.65-2.6-.65-2.27-1.46-1.46-2.27m63-24h12.35M240.19,56l.33-.81,5.84-9.91m24.85,0,2.92,5.2L277.38,56M258.71,45.27h12.5m5.36,26,.65-4.54-.65-4.55-1.63-4.38L272.18,54l-3.57-2.92-4.22-1.95-4.55-.81-4.54.32L250.91,50l-3.9,2.6-3.24,3.25-2.11,4.06-1.14,4.54V69l1.14,4.55,2.11,4.06L247,80.84l3.9,2.59,4.39,1.3,4.54.33,4.55-.81,4.22-2,3.57-2.93,2.76-3.73,1.63-4.39m-17.86-26-2.76.17-2.77.48-2.59,1L248,48.2l-2.28,1.46-2.11,2-1.94,2.11L240.19,56m37.19,0-1.62-2.27L274,51.61l-2.11-2-2.44-1.46L267,46.9l-2.76-1-2.76-.48-2.76-.17M233.86,66.71l3.09-5.2L240.19,56m0,21.44-.48-.82-5.85-9.9M240.19,56l-1.3,2.44-1,2.76L237.43,64l-.16,2.76.16,2.76.49,2.76,1,2.76,1.3,2.44m18.52,10.71H246.36m0,0L243.28,83l-3.09-5.52m0,0,1.47,2.43L243.6,82l2.11,1.79L248,85.38l2.6,1.14,2.59,1L256,88l2.76.16m24.84-21.43-3.08,5.19-3.09,5.53m0-21.44.33.81,5.84,9.91m-6.17,10.72L278.52,75l1-2.76.49-2.76.16-2.76L280,64l-.49-2.76-1-2.76L277.38,56m-6.17,32.15h-12.5m18.67-10.71-.49.81-5.68,9.9m-12.5,0,2.76-.16,2.76-.49,2.76-1,2.43-1.14,2.44-1.62L274,82l1.79-2.11,1.62-2.43M401.44,52.26l-.65.16h-.64m1.29-.16h0M400,50.79h1.46M364.58,82.13h33.78M138.54,70.28l.49-3.57-.49-3.41-1.79-3.25-2.6-2.27-3.24-1.46L127.5,56l-3.58.81-2.92,2-2.11,2.92-1.14,3.25v3.57l1.14,3.41L121,74.66l2.92,2,3.58.82,3.41-.33,3.24-1.46,2.6-2.27,1.79-3.09m62.84,0,.65-3.57-.65-3.57-1.62-3.41-2.44-2.6-3.08-1.79-3.57-.81-3.74.16-3.41,1.46-2.76,2.28-2.11,2.92-1.14,3.57v3.57l1.14,3.58L180.76,75l2.76,2.44,3.41,1.29,3.74.17,3.57-.82,3.08-1.78,2.44-2.6,1.62-3.41M401.44,49.49V49l-.16-.65-.32-.49-.49-.49-.32-.32-.65-.33-.49-.16-.65-.16m3.08,32.64V49.49m-3.08,32.64L399,82l.49-.16.65-.32.32-.33.49-.49.32-.48.16-.65v-.49m-39.94,0,.16.49.16.65.16.48.49.49.49.33.49.32.48.16.65.16M361.5,49.49V79.05m3.08-32.64-.65.16-.48.16-.49.33-.49.32-.49.49-.16.49-.16.65-.16.48m36.86-3.08H364.58m35.08.32H363.28M268.45,82.3h-.65m-18.19,0H249m17.7.65,3.74-2.44,3.08-3.25,2.11-3.89L276.73,69V64.43l-1.14-4.22-2.11-4.06L270.4,52.9l-3.74-2.43m-15.91,0h15.91m-15.91,0L247,52.9l-3.08,3.25-2.11,4.06-1,4.22V69l1,4.39,2.11,3.89L247,80.51,250.75,83m0,0h15.91m-23.38-20.3-.49,4.06.49,4.06,1.62,3.89,2.6,3.41,3.25,2.44,3.9,1.62,4.06.49,4.22-.49,3.73-1.62,3.41-2.44,2.44-3.41,1.62-3.89.49-4.06-.49-4.06-1.62-3.9-2.44-3.25-3.41-2.6-3.73-1.62-4.22-.49-4.06.49-3.9,1.62-3.25,2.6-2.6,3.25-1.62,3.9m3.08,8-.48-3.9.48-3.74L248,59.4l2.76-2.76,3.25-2,3.73-.81,3.9.16,3.57,1.46,3.09,2.44L270.4,61l1.13,3.74v3.9l-1.13,3.73-2.11,3.09-3.09,2.43-3.57,1.46-3.9.17L254,78.72l-3.25-1.94L248,74l-1.63-3.41m3.09-7.31-.65,3.41.65,3.41L251.24,73l2.59,2.27,3.25,1.14h3.41l3.25-1.14,2.6-2.27L268,70.12l.65-3.41L268,63.3l-1.62-2.93-2.6-2.27L260.49,57h-3.41l-3.25,1.14-2.59,2.27-1.79,2.93m-129.75.32-.65,3.09.65,3.08,1.63,2.93,2.43,1.94,2.93,1.14h3.24l2.93-1.14,2.43-1.94,1.63-2.93.65-3.08-.65-3.09-1.63-2.76-2.43-2.11-2.93-1.14h-3.24l-2.93,1.14-2.43,2.11-1.63,2.76M363,47.87v-1m37,1v-1m-37,1V80.51m0-32.64h37M389.91,75.64l4.55-4.71m-26,0,4.71,4.71m21.27-23.87h-26m0,0V70.93m4.71,4.71h16.72m4.55-4.71V51.77M363,80.51h37m0,0V47.87M398.2,80.51l.48,1.46m2.76-14.45-.32.32L400,69.47"/><rect x="238.09" y="27.09" width="101.37" height="0.71"/><path d="M240.25,31h1.08v5.92h2.89v.91h-4Z"/><path d="M249.31,30.39h.74l-2.58,9.08h-.74Z"/><path d="M253.23,31h1.23l1.25,3.46c.16.45.3.91.46,1.37h0c.16-.46.29-.92.45-1.37L257.89,31h1.25V37.8h-1V34.43c0-.62.09-1.5.14-2.12h0l-.55,1.58-1.19,3.25h-.67l-1.19-3.25-.54-1.58h0c.05.62.13,1.5.13,2.12V37.8h-1Z"/><path d="M260.61,34.36c0-2.2,1.22-3.51,3-3.51s3,1.31,3,3.51-1.23,3.56-3,3.56S260.61,36.56,260.61,34.36Zm4.85,0c0-1.6-.75-2.58-1.88-2.58s-1.86,1-1.86,2.58.73,2.63,1.86,2.63S265.46,36,265.46,34.36Z"/><path d="M268.08,31h1.11l2.26,4,.72,1.45h0c0-.7-.14-1.53-.14-2.27V31h1V37.8H272l-2.26-4L269,32.35H269c.06.7.14,1.49.14,2.23V37.8h-1Z"/><path d="M274.62,34.36c0-2.2,1.21-3.51,3-3.51s3,1.31,3,3.51-1.22,3.56-3,3.56S274.62,36.56,274.62,34.36Zm4.84,0c0-1.6-.74-2.58-1.88-2.58s-1.86,1-1.86,2.58.73,2.63,1.86,2.63S279.46,36,279.46,34.36Z"/><path d="M315.18,31h2.24c1.41,0,2.46.51,2.46,2a1.9,1.9,0,0,1-1.43,2l1.67,2.89h-1.21l-1.55-2.75h-1.1V37.8h-1.08Zm2.11,3.22c1,0,1.53-.41,1.53-1.24s-.54-1.11-1.53-1.11h-1v2.35Z"/><path d="M264.09,15.1h1.33v7.3H269v1.13h-4.9Z"/><path d="M270.38,15.1h1.32v8.43h-1.32Z"/><path d="M273.91,15.1h1.36l2.78,5,.88,1.78H279c-.07-.87-.17-1.88-.17-2.8V15.1h1.26v8.43h-1.36l-2.79-5-.88-1.77H275c.07.87.17,1.85.17,2.76v4h-1.25Z"/><path d="M282.29,15.1h5v1.12h-3.64v2.35h3.08v1.11h-3.08V22.4h3.77v1.13h-5.1Z"/><path d="M291.25,19.28c0-2.7,1.5-4.33,3.66-4.33s3.67,1.63,3.67,4.33-1.51,4.39-3.67,4.39S291.25,22,291.25,19.28Zm6,0c0-2-.91-3.17-2.31-3.17s-2.29,1.2-2.29,3.17.9,3.24,2.29,3.24S297.22,21.25,297.22,19.28Z"/><path d="M300.28,19.91V15.1h1.32V20c0,1.9.76,2.52,1.81,2.52s1.84-.62,1.84-2.52V15.1h1.28v4.81c0,2.75-1.26,3.76-3.12,3.76S300.28,22.66,300.28,19.91Z"/><path d="M310.41,16.22h-2.47V15.1h6.28v1.12h-2.48v7.31h-1.33Z"/><rect x="109.59" y="27.09" width="101.37" height="0.71"/><path d="M141.62,15.1H143v7.3h3.56v1.13h-4.89Z"/><path d="M147.9,15.1h1.33v8.43H147.9Z"/><path d="M151.43,15.1h1.36l2.79,5,.88,1.78h.06c-.07-.87-.17-1.88-.17-2.8V15.1h1.26v8.43h-1.36l-2.79-5-.88-1.77h-.06c.07.87.17,1.85.17,2.76v4h-1.26Z"/><path d="M159.82,15.1h5v1.12h-3.65v2.35h3.09v1.11h-3.09V22.4h3.77v1.13h-5.09Z"/><path d="M169.24,15.1h1.33v8.43h-1.33Z"/><path d="M172.77,15.1h1.36l2.79,5,.88,1.78h0c-.06-.87-.17-1.88-.17-2.8V15.1h1.26v8.43h-1.36l-2.79-5-.88-1.77h-.06c.07.87.18,1.85.18,2.76v4h-1.26Z"/><path d="M171.66,36.92l.63-.74a2.66,2.66,0,0,0,1.82.81c.83,0,1.29-.39,1.29-1s-.46-.81-1.1-1.09l-.94-.41A2,2,0,0,1,172,32.73a2,2,0,0,1,2.24-1.88,2.92,2.92,0,0,1,2.07.86l-.57.68a2.16,2.16,0,0,0-1.5-.61c-.69,0-1.15.34-1.15.87s.55.82,1.11,1l.93.4a1.91,1.91,0,0,1,1.39,1.85,2.12,2.12,0,0,1-2.4,2A3.4,3.4,0,0,1,171.66,36.92Z"/><path d="M179.18,31.88h-2V31h5.1v.91h-2V37.8h-1.07Z"/><path d="M183.45,31h4v.91h-3v1.9H187v.91h-2.51v2.2h3.06v.91h-4.13Z"/><path d="M189,31h2.24c1.41,0,2.47.51,2.47,2a1.91,1.91,0,0,1-1.43,2L194,37.8h-1.22l-1.55-2.75h-1.1V37.8H189Zm2.11,3.22c1,0,1.53-.41,1.53-1.24s-.54-1.11-1.53-1.11h-1v2.35Z"/><path d="M195.1,31h4v.91h-3v1.9h2.5v.91h-2.5v2.2h3.06v.91H195.1Z"/><path d="M200.3,34.36c0-2.2,1.21-3.51,3-3.51s3,1.31,3,3.51-1.22,3.56-3,3.56S200.3,36.56,200.3,34.36Zm4.84,0c0-1.6-.74-2.58-1.87-2.58s-1.87,1-1.87,2.58.73,2.63,1.87,2.63S205.14,36,205.14,34.36Z"/><path d="M119,31h1.08v5.92h2.89v.91h-4Z"/><path d="M124.15,31h4v.91h-3v1.9h2.51v.91h-2.51v2.2h3.07v.91h-4.14Z"/><path d="M128.94,31h1.14l1,3.54c.23.78.39,1.45.62,2.24h0c.24-.79.4-1.46.62-2.24l1-3.54h1.09l-2.13,6.83h-1.27Z"/><path d="M135.45,31h4v.91h-3v1.9H139v.91h-2.5v2.2h3.06v.91h-4.14Z"/><path d="M141.1,31h1.08v5.92h2.89v.91h-4Z"/><rect x="129.88" y="100.56" width="58.23" height="1.49"/><rect x="128.39" y="93.1" width="1.49" height="8.96"/><rect x="188.12" y="93.1" width="1.49" height="8.96"/><path d="M128.12,87.53A20.93,20.93,0,0,1,107,66.79a20.27,20.27,0,0,1,2.54-9.85l5.6,3.18A16,16,0,0,0,129,84h0a16,16,0,0,0,12.25-26.27l.82-.69a18,18,0,0,1,4.7,12.13,18.52,18.52,0,0,1-18.68,18.34"/><path d="M106.27,45.17h1.12l1.15,3.15c.14.42.27.84.41,1.26h0c.15-.42.27-.84.41-1.26l1.13-3.15h1.13v6.24h-.91V48.32c0-.55.07-1.36.12-1.93h0l-.5,1.44-1.08,3h-.61l-1.1-3-.49-1.44h0c0,.57.12,1.38.12,1.93v3.09h-.88Z"/><path d="M113.05,50.17c0-1,.84-1.52,2.78-1.73,0-.54-.2-1-.89-1a2.58,2.58,0,0,0-1.34.47l-.37-.66a3.65,3.65,0,0,1,1.88-.61c1.16,0,1.7.74,1.7,2v2.81H116l-.08-.54h0a2.28,2.28,0,0,1-1.48.65A1.29,1.29,0,0,1,113.05,50.17Zm2.78,0V49.06c-1.38.16-1.84.52-1.84,1s.31.65.73.65A1.64,1.64,0,0,0,115.83,50.2Z"/><path d="M119.19,49l-1.4-2.23h1l.56.93.44.79h0c.12-.26.26-.53.39-.79l.49-.93h1l-1.39,2.34,1.49,2.32h-1.05l-.61-1c-.16-.27-.32-.56-.49-.83h0l-.43.83-.54,1h-1Z"/><path d="M138.4,45.17h1.13l1.14,3.15c.14.42.27.84.42,1.26h0c.14-.42.26-.84.4-1.26l1.13-3.15h1.14v6.24h-.92V48.32c0-.55.08-1.36.13-1.93h0l-.5,1.44-1.08,3h-.61l-1.09-3-.49-1.44h0c.05.57.12,1.38.12,1.93v3.09h-.88Z"/><path d="M145.34,45.29a.61.61,0,0,1,1.21,0,.61.61,0,0,1-1.21,0Zm.12,1.46h1v4.66h-1Z"/><path d="M147.89,46.75h.8l.07.64h0a2.24,2.24,0,0,1,1.54-.76c1,0,1.43.66,1.43,1.85v2.93h-1V48.6c0-.81-.24-1.13-.79-1.13a1.55,1.55,0,0,0-1.13.63v3.31h-1Z"/><path d="M396,98.16l-2.85-1.65v1.1H375.82l3.25-3.43a1.38,1.38,0,0,1,1-.41h3.39a1.64,1.64,0,1,0,0-1.08H380a2.42,2.42,0,0,0-1.74.74l-3.47,3.67a1.61,1.61,0,0,1-1.19.51h-1.3a2.75,2.75,0,1,0,0,1.09h5.94a1.67,1.67,0,0,1,1.19.51l3.49,3.68a2.46,2.46,0,0,0,1.75.73h2.73v1.1h3.28v-3.28h-3.28v1.1h-2.73a1.32,1.32,0,0,1-1-.41l-3.25-3.43h12.69v1.1L396,98.16"/><path d="M346.69,19.16V14.24H348v5c0,1.94.77,2.57,1.84,2.57s1.88-.63,1.88-2.57v-5h1.31v4.92c0,2.8-1.28,3.84-3.19,3.84S346.69,22,346.69,19.16Z"/><path d="M354.54,21.74l.8-.94a3.34,3.34,0,0,0,2.29,1c1,0,1.62-.49,1.62-1.21s-.59-1-1.38-1.38l-1.19-.52a2.46,2.46,0,0,1-1.75-2.25,2.55,2.55,0,0,1,2.82-2.37,3.68,3.68,0,0,1,2.61,1.09l-.71.86a2.75,2.75,0,0,0-1.9-.77c-.87,0-1.44.42-1.44,1.1s.69,1,1.39,1.31l1.17.5a2.4,2.4,0,0,1,1.76,2.32c0,1.38-1.15,2.5-3,2.5A4.32,4.32,0,0,1,354.54,21.74Z"/><path d="M362.2,14.24h2.66c1.77,0,3,.58,3,2.13a1.9,1.9,0,0,1-1.23,1.85v.06a2,2,0,0,1,1.7,2c0,1.7-1.39,2.52-3.3,2.52H362.2Zm2.51,3.6c1.31,0,1.86-.49,1.86-1.3s-.61-1.23-1.82-1.23h-1.19v2.53Zm.21,3.95c1.34,0,2.12-.48,2.12-1.53s-.75-1.4-2.12-1.4h-1.36v2.93Z"/><path d="M372.71,20.75V17.5h-.93v-1l1-.07.15-1.78h1.12v1.78h1.67V17.5h-1.67v3.26c0,.77.27,1.16.94,1.16a1.78,1.78,0,0,0,.69-.15l.24,1a4.29,4.29,0,0,1-1.26.23C373.21,23,372.71,22.1,372.71,20.75Z"/><path d="M376.56,19.64a3,3,0,1,1,6.05,0,3,3,0,1,1-6.05,0Zm4.67,0c0-1.36-.63-2.27-1.64-2.27s-1.64.91-1.64,2.27.63,2.26,1.64,2.26S381.23,21,381.23,19.64Z"/><path d="M386.93,14.24h1.36v3.52H392V14.24h1.36v8.61H392V18.94h-3.67v3.91h-1.36Z"/><path d="M395.11,18.52c0-2.77,1.52-4.43,3.73-4.43s3.75,1.66,3.75,4.43S401.05,23,398.84,23,395.11,21.28,395.11,18.52Zm6.09,0c0-2-.94-3.25-2.36-3.25s-2.35,1.23-2.35,3.25.93,3.3,2.35,3.3S401.2,20.52,401.2,18.52Z"/><path d="M403.64,21.74l.79-.94a3.34,3.34,0,0,0,2.29,1c1,0,1.62-.49,1.62-1.21s-.58-1-1.37-1.38l-1.19-.52A2.46,2.46,0,0,1,404,16.46a2.55,2.55,0,0,1,2.82-2.37,3.66,3.66,0,0,1,2.6,1.09l-.71.86a2.73,2.73,0,0,0-1.89-.77c-.87,0-1.45.42-1.45,1.1s.69,1,1.39,1.31l1.18.5a2.39,2.39,0,0,1,1.75,2.32c0,1.38-1.14,2.5-3,2.5A4.3,4.3,0,0,1,403.64,21.74Z"/><path d="M413.1,15.39h-2.52V14.24H417v1.15h-2.53v7.46H413.1Z"/><path class="cls-21" d="M384.18,200.55V223.7c0,1.71,2.92,3.1,6.5,3.1h11.5c3.58,0,10.16,1.4,10.16,3.11v17.53"/><path class="cls-22" d="M384.18,200.55V223.7c0,1.71,2.92,3.1,6.5,3.1h11.5c3.58,0,10.16,1.4,10.16,3.11v17.53"/><path class="cls-7" d="M402,271.78v26.9H422.7v-26.9s.61-6.18-3.46-6.18V254.83s0-2.6-2-3V245.4a.56.56,0,0,0-.56-.55h-8.75a.55.55,0,0,0-.55.55v6.47h0c-1.95.45-2,3-2,3V265.6c-4.06,0-3.45,6.18-3.45,6.18"/><path class="cls-14" d="M402,271.8v26.9h2.08v16.56h16.59V298.7h2.07V271.8s.61-6.18-3.45-6.18V254.85s0-2.6-2-3v-6.45a.55.55,0,0,0-.55-.55h-8.75a.55.55,0,0,0-.55.55v6.48h0c-1.94.44-1.95,2.95-1.95,2.95v10.77C401.37,265.62,402,271.8,402,271.8Z"/><line class="cls-14" x1="420.65" y1="298.63" x2="404.06" y2="298.63"/><path d="M412.23,294.88l-1.29-2.56h1V285.2l-1.45,1.44a2.92,2.92,0,0,0-.83,2v.23h.57v1.71h-1.71v-1.71h.57v-.23a3.42,3.42,0,0,1,1-2.42l1-1a2.9,2.9,0,0,0,.83-2v-2.89a1.42,1.42,0,0,1-.86-.55,1.39,1.39,0,0,1-.27-1,1.43,1.43,0,0,1,.46-.92,1.47,1.47,0,0,1,1-.37,1.45,1.45,0,0,1,.95.37,1.47,1.47,0,0,1,.47.91,1.51,1.51,0,0,1-.27,1,1.45,1.45,0,0,1-.86.55v.32a2.89,2.89,0,0,0,.84,2l1,1a3.46,3.46,0,0,1,1,2.42v1.42a.95.95,0,0,1,.63,1,1,1,0,0,1-.32.56.93.93,0,0,1-1.2,0,.9.9,0,0,1-.31-.56.92.92,0,0,1,.63-1V286.1a2.89,2.89,0,0,0-.84-2l-1.45-1.44v9.68h1l-1.28,2.56"/><line class="cls-14" x1="417.22" y1="251.9" x2="407.37" y2="251.9"/><rect class="cls-23" x="379.25" y="192.73" width="9.85" height="11.97"/><polyline class="cls-7" points="389.4 182.39 389.4 192.73 379.03 192.73 379.03 182.39 376.26 170.01 376.26 141.04 378.68 141.07 389.75 141.07 392.17 141.04 392.17 170.01 389.4 182.39"/><polygon class="cls-14" points="379.05 192.76 379.05 182.41 376.28 170.03 376.28 141.06 378.71 141.1 378.71 124.55 389.77 124.55 389.77 141.1 392.19 141.06 392.19 170.03 389.42 182.41 389.42 192.76 379.05 192.76"/><line class="cls-6" x1="389.77" y1="141.17" x2="378.71" y2="141.17"/><line class="cls-14" x1="389.77" y1="141.17" x2="378.71" y2="141.17"/><path d="M384.39,147.9l1.17,2.33h-.91v6.47l1.31-1.31a2.58,2.58,0,0,0,.77-1.83v-.22h-.52v-1.55h1.55v1.55h-.52v.22a3.15,3.15,0,0,1-.91,2.2l-.92.92a2.59,2.59,0,0,0-.76,1.82v2.63a1.27,1.27,0,0,1,.78.5,1.32,1.32,0,0,1,.25.9,1.28,1.28,0,0,1-.42.83,1.33,1.33,0,0,1-.87.33,1.31,1.31,0,0,1-.87-.33,1.28,1.28,0,0,1-.42-.83,1.37,1.37,0,0,1,.24-.9,1.31,1.31,0,0,1,.79-.5v-.29a2.6,2.6,0,0,0-.76-1.83l-.92-.92a3.15,3.15,0,0,1-.91-2.2v-1.3a.85.85,0,0,1-.58-.93.85.85,0,0,1,.29-.51.84.84,0,0,1,.54-.2.83.83,0,0,1,.55.2.91.91,0,0,1,.29.51.83.83,0,0,1-.12.57.84.84,0,0,1-.45.36v1.3a2.62,2.62,0,0,0,.75,1.83l1.32,1.31v-8.8h-.91l1.17-2.33"/><line class="cls-14" x1="376.28" y1="170.04" x2="392.19" y2="170.04"/><path class="cls-24" d="M197.94,399.44l.68-.79a2.85,2.85,0,0,0,2,.87c.89,0,1.39-.42,1.39-1s-.5-.88-1.18-1.18l-1-.44a2.12,2.12,0,0,1-1.5-1.93,2.19,2.19,0,0,1,2.42-2,3.15,3.15,0,0,1,2.23.93l-.61.74a2.34,2.34,0,0,0-1.62-.66c-.75,0-1.24.36-1.24.94s.59.88,1.19,1.12l1,.43a2.05,2.05,0,0,1,1.5,2c0,1.18-1,2.13-2.59,2.13A3.67,3.67,0,0,1,197.94,399.44Z"/><path class="cls-24" d="M204.05,397.65a2.7,2.7,0,0,1,2.72-2.89,2.36,2.36,0,0,1,1.61.63l-.57.75a1.44,1.44,0,0,0-1-.43c-.93,0-1.59.78-1.59,1.94s.64,1.94,1.55,1.94a1.88,1.88,0,0,0,1.2-.5l.48.75a2.72,2.72,0,0,1-1.79.68A2.59,2.59,0,0,1,204.05,397.65Z"/><path class="cls-24" d="M209.61,392.43h1.15v2.11l0,1.09a2.56,2.56,0,0,1,1.78-.87c1.17,0,1.69.78,1.69,2.18v3.45H213v-3.31c0-.95-.28-1.33-.93-1.33a1.84,1.84,0,0,0-1.34.75v3.89h-1.15Z"/><path class="cls-24" d="M215.82,399.11v-6.68H217v6.74c0,.31.13.42.27.42l.19,0,.15.86a1.8,1.8,0,0,1-.62.09C216.13,400.52,215.82,400,215.82,399.11Z"/><path class="cls-24" d="M218.66,393.18a.66.66,0,0,1,.71-.68.69.69,0,1,1-.71.68Zm.14,1.72H220v5.49H218.8Z"/><path class="cls-24" d="M221.28,397.65a2.67,2.67,0,0,1,2.51-2.89c1.46,0,2.25,1.05,2.25,2.6a4,4,0,0,1-.06.59h-3.57a1.66,1.66,0,0,0,1.7,1.68,2.34,2.34,0,0,0,1.31-.41l.39.72a3.28,3.28,0,0,1-1.85.58A2.64,2.64,0,0,1,221.28,397.65Zm3.76-.5c0-.94-.43-1.49-1.23-1.49a1.49,1.49,0,0,0-1.41,1.49Z"/><path class="cls-24" d="M229.3,400l.43-.78a1.89,1.89,0,0,0,1.16.45.78.78,0,0,0,.84-.78c0-1.17-2.14-1-2.14-2.52,0-1,.93-1.29.93-2.2a.83.83,0,0,0-.87-.91c-.76,0-1.2.57-1.2,1.64v5.51h-1.13V394.7a2.17,2.17,0,0,1,2.34-2.38,1.75,1.75,0,0,1,2,1.71c0,1.11-1,1.47-1,2.19,0,1,2.13.8,2.13,2.59a1.7,1.7,0,0,1-1.88,1.71A2.72,2.72,0,0,1,229.3,400Z"/><path class="cls-24" d="M233.6,397.65a2.67,2.67,0,0,1,2.51-2.89c1.46,0,2.24,1.05,2.24,2.6a3,3,0,0,1-.06.59h-3.56a1.66,1.66,0,0,0,1.7,1.68,2.34,2.34,0,0,0,1.31-.41l.39.72a3.28,3.28,0,0,1-1.85.58A2.64,2.64,0,0,1,233.6,397.65Zm3.76-.5c0-.94-.43-1.49-1.23-1.49a1.49,1.49,0,0,0-1.41,1.49Z"/><path class="cls-24" d="M239.64,394.9h.94l.09.76h0a2.62,2.62,0,0,1,1.82-.9c1.17,0,1.68.78,1.68,2.18v3.45h-1.14v-3.31c0-.95-.28-1.33-.93-1.33a1.84,1.84,0,0,0-1.34.75v3.89h-1.15Z"/><path class="cls-24" d="M247.71,399.44l.68-.79a2.85,2.85,0,0,0,2,.87c.89,0,1.38-.42,1.38-1s-.49-.88-1.17-1.18l-1-.44a2.12,2.12,0,0,1-1.5-1.93,2.19,2.19,0,0,1,2.42-2,3.15,3.15,0,0,1,2.22.93l-.61.74a2.34,2.34,0,0,0-1.61-.66c-.75,0-1.24.36-1.24.94s.59.88,1.19,1.12l1,.43a2.06,2.06,0,0,1,1.49,2c0,1.18-1,2.13-2.58,2.13A3.67,3.67,0,0,1,247.71,399.44Z"/><path class="cls-24" d="M254.07,393.18a.66.66,0,0,1,.71-.68.69.69,0,1,1-.71.68Zm.14,1.72h1.15v5.49h-1.15Z"/><path class="cls-24" d="M256.69,397.65a2.67,2.67,0,0,1,2.51-2.89c1.45,0,2.24,1.05,2.24,2.6a3,3,0,0,1-.06.59h-3.56a1.66,1.66,0,0,0,1.7,1.68,2.33,2.33,0,0,0,1.3-.41l.4.72a3.33,3.33,0,0,1-1.85.58A2.64,2.64,0,0,1,256.69,397.65Zm3.75-.5c0-.94-.42-1.49-1.22-1.49a1.49,1.49,0,0,0-1.41,1.49Z"/><path class="cls-24" d="M265,392.43h1.15v2.11l-.05,1.09a2.56,2.56,0,0,1,1.77-.87c1.17,0,1.69.78,1.69,2.18v3.45h-1.15v-3.31c0-.95-.28-1.33-.92-1.33a1.84,1.84,0,0,0-1.34.75v3.89H265Z"/><path class="cls-24" d="M271.05,393.18a.66.66,0,0,1,.71-.68.69.69,0,1,1-.71.68Zm.14,1.72h1.15v5.49h-1.15Z"/><path class="cls-24" d="M273.67,397.65a2.67,2.67,0,0,1,2.5-2.89c1.46,0,2.25,1.05,2.25,2.6a3,3,0,0,1-.06.59H274.8a1.66,1.66,0,0,0,1.69,1.68,2.34,2.34,0,0,0,1.31-.41l.4.72a3.34,3.34,0,0,1-1.86.58A2.64,2.64,0,0,1,273.67,397.65Zm3.75-.5c0-.94-.43-1.49-1.23-1.49a1.49,1.49,0,0,0-1.4,1.49Z"/><path class="cls-24" d="M279.71,394.9h.94l.09,1h0a1.89,1.89,0,0,1,1.55-1.13,1.37,1.37,0,0,1,.62.12l-.21,1a1.63,1.63,0,0,0-.55-.09c-.45,0-1,.31-1.32,1.18v3.42h-1.15Z"/><path class="cls-24" d="M285.55,399.78l2.71-4h-2.41v-.92h3.85v.61l-2.7,4h2.79v.91h-4.24Z"/><path class="cls-24" d="M290.8,399.73a.78.78,0,0,1,.77-.82.77.77,0,0,1,.76.82.75.75,0,0,1-.76.79A.76.76,0,0,1,290.8,399.73Z"/><path class="cls-24" d="M294,393h2.27c1.51,0,2.6.49,2.6,1.82a1.64,1.64,0,0,1-1,1.59v.05a1.69,1.69,0,0,1,1.45,1.75c0,1.45-1.19,2.15-2.82,2.15H294Zm2.14,3.08c1.12,0,1.59-.42,1.59-1.11s-.52-1.06-1.56-1.06h-1v2.17Zm.18,3.37c1.15,0,1.81-.4,1.81-1.3s-.64-1.2-1.81-1.2h-1.16v2.5Z"/><path class="cls-24" d="M300.45,399.73a.78.78,0,0,1,.77-.82.77.77,0,0,1,.76.82.75.75,0,0,1-.76.79A.76.76,0,0,1,300.45,399.73Z"/><path class="cls-24" d="M199.93,406h1.34l2.44,7.36h-1.23l-.62-2.09H199.3l-.63,2.09h-1.18Zm-.36,4.36h2l-.29-1c-.25-.8-.47-1.62-.69-2.45h0c-.21.84-.44,1.65-.68,2.45Z"/><path class="cls-24" d="M204.58,405.43h1.13v5.13h0l2.13-2.66h1.27l-1.85,2.24,2.06,3.25h-1.24l-1.49-2.48-.92,1.06v1.42h-1.13Z"/><path class="cls-24" d="M210.51,411.6v-2.78h-.8V408l.86-.06.13-1.52h1v1.52h1.43v.92h-1.43v2.79c0,.66.23,1,.8,1a1.64,1.64,0,0,0,.59-.13l.21.84a3.52,3.52,0,0,1-1.08.2C210.94,413.52,210.51,412.75,210.51,411.6Z"/><path class="cls-24" d="M214.15,406.18a.66.66,0,0,1,.71-.68.69.69,0,1,1-.71.68Zm.14,1.72h1.15v5.49h-1.15Z"/><path class="cls-24" d="M216.42,407.9h1.18l.94,3,.48,1.64h0c.16-.54.33-1.1.48-1.64l.94-3h1.12l-1.9,5.49h-1.33Z"/><path class="cls-24" d="M223.65,412.82h0l-.11.57h-.9v-8h1.15v2.11l0,.94a2.63,2.63,0,0,1,1.64-.72c1.39,0,2.17,1.11,2.17,2.8,0,1.88-1.12,3-2.36,3A2.33,2.33,0,0,1,223.65,412.82Zm2.7-2.24c0-1.15-.37-1.86-1.29-1.86a1.88,1.88,0,0,0-1.3.67v2.69a1.88,1.88,0,0,0,1.19.5C225.75,412.58,226.35,411.87,226.35,410.58Z"/><path class="cls-24" d="M228.51,410.65a2.6,2.6,0,1,1,2.59,2.87A2.65,2.65,0,0,1,228.51,410.65Zm4,0c0-1.16-.54-1.94-1.41-1.94s-1.4.78-1.4,1.94.54,1.94,1.4,1.94S232.51,411.82,232.51,410.65Z"/><path class="cls-24" d="M236.1,410.53l-1.65-2.63h1.24l.66,1.1c.16.31.34.62.52.93h0l.46-.93.58-1.1h1.2l-1.65,2.76,1.77,2.73H238l-.72-1.16c-.18-.32-.37-.66-.57-1h0c-.17.31-.34.64-.51,1l-.64,1.16h-1.21Z"/><path class="cls-24" d="M239.91,410.65a2.67,2.67,0,0,1,2.51-2.89c1.46,0,2.25,1.05,2.25,2.6a2.89,2.89,0,0,1-.07.59H241a1.66,1.66,0,0,0,1.7,1.68,2.34,2.34,0,0,0,1.31-.41l.39.72a3.28,3.28,0,0,1-1.85.58A2.64,2.64,0,0,1,239.91,410.65Zm3.76-.5c0-.94-.43-1.49-1.23-1.49a1.49,1.49,0,0,0-1.41,1.49Z"/><path class="cls-24" d="M246,407.9h.94l.09.76h0a2.62,2.62,0,0,1,1.82-.9c1.17,0,1.68.78,1.68,2.18v3.45h-1.14v-3.31c0-.95-.28-1.33-.93-1.33a1.84,1.84,0,0,0-1.34.75v3.89H246Z"/><path class="cls-24" d="M254.05,410.65a2.6,2.6,0,1,1,2.59,2.87A2.65,2.65,0,0,1,254.05,410.65Zm4,0c0-1.16-.53-1.94-1.4-1.94s-1.4.78-1.4,1.94.54,1.94,1.4,1.94S258,411.82,258,410.65Z"/><path class="cls-24" d="M260.21,410.65c0-1.78,1.13-2.89,2.36-2.89a2.08,2.08,0,0,1,1.47.62l0-.91v-2h1.14v8h-.93l-.09-.61h0a2.34,2.34,0,0,1-1.6.74C261.1,413.52,260.21,412.48,260.21,410.65Zm3.79,1.26v-2.69a1.72,1.72,0,0,0-1.21-.5c-.77,0-1.39.73-1.39,1.92s.49,1.94,1.35,1.94A1.62,1.62,0,0,0,264,411.91Z"/><path class="cls-24" d="M266.49,410.65a2.67,2.67,0,0,1,2.51-2.89c1.46,0,2.24,1.05,2.24,2.6a3,3,0,0,1-.06.59h-3.56a1.66,1.66,0,0,0,1.7,1.68,2.34,2.34,0,0,0,1.31-.41l.39.72a3.3,3.3,0,0,1-1.85.58A2.64,2.64,0,0,1,266.49,410.65Zm3.76-.5c0-.94-.43-1.49-1.23-1.49a1.49,1.49,0,0,0-1.41,1.49Z"/><path class="cls-24" d="M272.53,407.9h.94l.09,1h0a1.9,1.9,0,0,1,1.56-1.13,1.37,1.37,0,0,1,.62.12l-.21,1a1.63,1.63,0,0,0-.55-.09c-.45,0-1,.31-1.33,1.18v3.42h-1.15Z"/><path class="cls-24" d="M278.48,410.65a2.67,2.67,0,0,1,2.51-2.89c1.45,0,2.24,1.05,2.24,2.6a3,3,0,0,1-.06.59h-3.56a1.66,1.66,0,0,0,1.7,1.68,2.33,2.33,0,0,0,1.3-.41l.4.72a3.3,3.3,0,0,1-1.85.58A2.64,2.64,0,0,1,278.48,410.65Zm3.75-.5c0-.94-.42-1.49-1.22-1.49a1.49,1.49,0,0,0-1.41,1.49Z"/><path class="cls-24" d="M284.38,406.18a.66.66,0,0,1,.71-.68.69.69,0,1,1-.71.68Zm.14,1.72h1.15v5.49h-1.15Z"/><path class="cls-24" d="M287.39,407.9h.94l.09.76h0a2.62,2.62,0,0,1,1.82-.9c1.16,0,1.68.78,1.68,2.18v3.45H290.8v-3.31c0-.95-.28-1.33-.92-1.33a1.84,1.84,0,0,0-1.34.75v3.89h-1.15Z"/><path class="cls-24" d="M198.46,419h1.33l1.35,3.73c.17.49.32,1,.49,1.48h.05c.17-.49.31-1,.48-1.48l1.32-3.73h1.34v7.36h-1.08v-3.63c0-.66.09-1.61.15-2.28h0l-.58,1.7L202,425.69h-.72L200,422.18l-.58-1.7h0c0,.67.14,1.62.14,2.28v3.63h-1Z"/><path class="cls-24" d="M206.52,419.18a.66.66,0,0,1,.71-.68.69.69,0,1,1-.71.68Zm.14,1.72h1.15v5.49h-1.15Z"/><path class="cls-24" d="M209,425.76l.54-.73a2.48,2.48,0,0,0,1.56.62c.66,0,1-.31,1-.73s-.62-.72-1.21-.95c-.74-.28-1.55-.67-1.55-1.6s.74-1.61,2-1.61a2.87,2.87,0,0,1,1.78.65l-.54.71a2.05,2.05,0,0,0-1.22-.48c-.61,0-.89.3-.89.68s.54.65,1.14.87c.77.29,1.62.63,1.62,1.67s-.73,1.66-2.09,1.66A3.41,3.41,0,0,1,209,425.76Z"/><path class="cls-24" d="M213.94,423.65a2.7,2.7,0,0,1,2.72-2.89,2.36,2.36,0,0,1,1.61.63l-.57.75a1.44,1.44,0,0,0-1-.43c-.93,0-1.59.78-1.59,1.94s.64,1.94,1.55,1.94a1.88,1.88,0,0,0,1.2-.5l.48.75a2.72,2.72,0,0,1-1.79.68A2.59,2.59,0,0,1,213.94,423.65Z"/><path class="cls-24" d="M219.5,418.43h1.15v2.11l-.05,1.09a2.56,2.56,0,0,1,1.78-.87c1.17,0,1.68.78,1.68,2.18v3.45h-1.14v-3.31c0-.95-.28-1.33-.93-1.33a1.84,1.84,0,0,0-1.34.75v3.89H219.5Z"/><path class="cls-24" d="M225.71,420.9h.94l.09.6h0a2.79,2.79,0,0,1,1.7-.74c1.38,0,2.16,1.11,2.16,2.8,0,1.88-1.12,3-2.36,3a2.27,2.27,0,0,1-1.45-.62l0,.94v1.78h-1.15Zm3.74,2.68c0-1.15-.37-1.86-1.29-1.86a1.89,1.89,0,0,0-1.3.67v2.69a1.9,1.9,0,0,0,1.19.5C228.85,425.58,229.45,424.87,229.45,423.58Z"/><path class="cls-24" d="M231.94,424.36V420.9h1.15v3.32c0,.94.27,1.32.92,1.32s.86-.24,1.32-.82V420.9h1.14v5.49h-.93l-.09-.82h0a2.32,2.32,0,0,1-1.79.95C232.45,426.52,231.94,425.75,231.94,424.36Z"/><path class="cls-24" d="M238.21,425.11v-6.68h1.15v6.74c0,.31.13.42.27.42l.19,0,.15.86a1.8,1.8,0,0,1-.62.09C238.52,426.52,238.21,426,238.21,425.11Z"/><path class="cls-24" d="M241.37,424.6v-2.78h-.8V421l.86-.06.13-1.52h1v1.52H244v.92h-1.43v2.79c0,.66.23,1,.8,1a1.64,1.64,0,0,0,.59-.13l.21.84a3.52,3.52,0,0,1-1.08.2C241.8,426.52,241.37,425.75,241.37,424.6Z"/><path class="cls-24" d="M247.08,424.94c0-1.18,1-1.79,3.29-2,0-.64-.24-1.2-1.05-1.2a3,3,0,0,0-1.59.56l-.43-.78a4.21,4.21,0,0,1,2.22-.72c1.36,0,2,.87,2,2.33v3.3h-.93l-.09-.63h0a2.73,2.73,0,0,1-1.75.76A1.52,1.52,0,0,1,247.08,424.94Zm3.29,0v-1.35c-1.63.19-2.18.61-2.18,1.23s.37.75.86.75A1.92,1.92,0,0,0,250.37,425Z"/><path class="cls-24" d="M253.15,420.9h.94l.09.76h0a2.62,2.62,0,0,1,1.82-.9c1.16,0,1.68.78,1.68,2.18v3.45h-1.15v-3.31c0-.95-.27-1.33-.92-1.33a1.84,1.84,0,0,0-1.34.75v3.89h-1.15Z"/><path class="cls-24" d="M259.24,425.73a.77.77,0,1,1,1.54,0,.77.77,0,1,1-1.54,0Z"/><path class="cls-24" d="M347.53,364.14h1.23l1.09,3.82c.25.84.42,1.56.67,2.41h.05c.26-.85.43-1.57.67-2.41l1.09-3.82h1.18l-2.3,7.37h-1.37Z"/><path class="cls-24" d="M354,368.76a2.67,2.67,0,0,1,2.51-2.89c1.46,0,2.25,1.05,2.25,2.6a3,3,0,0,1-.06.59H355.1a1.66,1.66,0,0,0,1.7,1.68,2.34,2.34,0,0,0,1.31-.41l.4.73a3.34,3.34,0,0,1-1.86.58A2.65,2.65,0,0,1,354,368.76Zm3.76-.5c0-.94-.43-1.49-1.23-1.49a1.49,1.49,0,0,0-1.41,1.49Z"/><path class="cls-24" d="M360,366H361l.09,1h0a1.9,1.9,0,0,1,1.56-1.13,1.37,1.37,0,0,1,.62.12l-.21,1a1.63,1.63,0,0,0-.55-.09c-.45,0-1,.31-1.33,1.18v3.43H360Z"/><path class="cls-24" d="M365.14,370.94h0l-.11.57h-.9v-8h1.15v2.11l0,.94a2.63,2.63,0,0,1,1.64-.72c1.39,0,2.18,1.11,2.18,2.8,0,1.89-1.13,3-2.37,3A2.33,2.33,0,0,1,365.14,370.94Zm2.7-2.25c0-1.15-.37-1.86-1.29-1.86a1.88,1.88,0,0,0-1.3.67v2.69a1.82,1.82,0,0,0,1.19.5C367.24,370.69,367.84,370,367.84,368.69Z"/><path class="cls-24" d="M370.25,364.29a.66.66,0,0,1,.71-.68.69.69,0,1,1-.71.68Zm.14,1.72h1.15v5.5h-1.15Z"/><path class="cls-24" d="M373.26,366h.94l.09.76h0a2.62,2.62,0,0,1,1.82-.9c1.17,0,1.69.78,1.69,2.18v3.46h-1.15v-3.32c0-.95-.28-1.33-.93-1.33a1.84,1.84,0,0,0-1.34.75v3.9h-1.15Z"/><path class="cls-24" d="M379.13,368.76c0-1.78,1.13-2.89,2.36-2.89a2.12,2.12,0,0,1,1.48.62l-.05-.91v-2h1.15v8h-.94l-.09-.62h0a2.31,2.31,0,0,1-1.6.75C380,371.64,379.13,370.59,379.13,368.76Zm3.79,1.26v-2.69a1.72,1.72,0,0,0-1.21-.5c-.77,0-1.39.73-1.39,1.92s.49,1.94,1.35,1.94A1.62,1.62,0,0,0,382.92,370Z"/><path class="cls-24" d="M385.41,368.76a2.67,2.67,0,0,1,2.51-2.89c1.46,0,2.25,1.05,2.25,2.6a3,3,0,0,1-.06.59h-3.57a1.66,1.66,0,0,0,1.7,1.68,2.34,2.34,0,0,0,1.31-.41l.4.73a3.34,3.34,0,0,1-1.86.58A2.65,2.65,0,0,1,385.41,368.76Zm3.76-.5c0-.94-.43-1.49-1.23-1.49a1.49,1.49,0,0,0-1.41,1.49Z"/><path class="cls-24" d="M391.45,366h.94l.09.76h0a2.62,2.62,0,0,1,1.82-.9c1.17,0,1.69.78,1.69,2.18v3.46h-1.15v-3.32c0-.95-.28-1.33-.93-1.33a1.84,1.84,0,0,0-1.34.75v3.9h-1.15Z"/><path class="cls-24" d="M399.52,370.56l.68-.8a2.85,2.85,0,0,0,2,.87c.89,0,1.39-.42,1.39-1s-.5-.88-1.18-1.18l-1-.44a2.12,2.12,0,0,1-1.5-1.93,2.19,2.19,0,0,1,2.42-2,3.15,3.15,0,0,1,2.23.93l-.61.74a2.34,2.34,0,0,0-1.62-.66c-.75,0-1.24.36-1.24.94s.59.88,1.19,1.12l1,.43a2.05,2.05,0,0,1,1.5,2c0,1.18-1,2.14-2.59,2.14A3.67,3.67,0,0,1,399.52,370.56Z"/><path class="cls-24" d="M405.88,364.29a.66.66,0,0,1,.71-.68.69.69,0,1,1-.71.68ZM406,366h1.15v5.5H406Z"/><path class="cls-24" d="M408.5,368.76a2.67,2.67,0,0,1,2.51-2.89c1.46,0,2.25,1.05,2.25,2.6a3,3,0,0,1-.06.59h-3.57a1.66,1.66,0,0,0,1.7,1.68,2.34,2.34,0,0,0,1.31-.41l.4.73a3.34,3.34,0,0,1-1.86.58A2.65,2.65,0,0,1,408.5,368.76Zm3.76-.5c0-.94-.43-1.49-1.23-1.49a1.49,1.49,0,0,0-1.41,1.49Z"/><path class="cls-24" d="M416.42,368.76c0-1.78,1.13-2.89,2.36-2.89a2.12,2.12,0,0,1,1.48.62l-.05-.91v-2h1.15v8h-.94l-.09-.62h0a2.31,2.31,0,0,1-1.6.75C417.31,371.64,416.42,370.59,416.42,368.76Zm3.79,1.26v-2.69a1.72,1.72,0,0,0-1.21-.5c-.77,0-1.39.73-1.39,1.92s.49,1.94,1.35,1.94A1.62,1.62,0,0,0,420.21,370Z"/><path class="cls-24" d="M422.77,370.05c0-1.18,1-1.79,3.29-2,0-.64-.24-1.2-1.05-1.2a3,3,0,0,0-1.59.56l-.43-.78a4.21,4.21,0,0,1,2.22-.72c1.37,0,2,.87,2,2.33v3.31h-.94l-.09-.63h0a2.73,2.73,0,0,1-1.75.76A1.52,1.52,0,0,1,422.77,370.05Zm3.29,0v-1.35c-1.63.19-2.18.61-2.18,1.23s.37.76.86.76A1.94,1.94,0,0,0,426.06,370.09Z"/><path class="cls-24" d="M428.26,370.88l.54-.74a2.49,2.49,0,0,0,1.56.63c.66,0,1-.32,1-.74s-.62-.72-1.21-.95c-.74-.28-1.55-.67-1.55-1.6s.74-1.61,2-1.61a2.87,2.87,0,0,1,1.78.65l-.54.71a2.05,2.05,0,0,0-1.22-.48c-.61,0-.89.3-.89.68s.54.65,1.14.87c.77.29,1.62.63,1.62,1.67s-.73,1.67-2.09,1.67A3.41,3.41,0,0,1,428.26,370.88Z"/><path class="cls-24" d="M436,364.14h1.16v7.37H436Z"/><path class="cls-24" d="M439,366h.94l.09.76h0a2.62,2.62,0,0,1,1.82-.9c1.17,0,1.69.78,1.69,2.18v3.46H442.4v-3.32c0-.95-.28-1.33-.93-1.33a1.84,1.84,0,0,0-1.34.75v3.9H439Z"/><path class="cls-24" d="M444.64,370.88l.54-.74a2.49,2.49,0,0,0,1.56.63c.66,0,1-.32,1-.74s-.62-.72-1.21-.95c-.74-.28-1.55-.67-1.55-1.6s.74-1.61,2-1.61a2.87,2.87,0,0,1,1.78.65l-.54.71a2.05,2.05,0,0,0-1.22-.48c-.61,0-.89.3-.89.68s.54.65,1.14.87c.77.29,1.62.63,1.62,1.67s-.73,1.67-2.09,1.67A3.41,3.41,0,0,1,444.64,370.88Z"/><path class="cls-24" d="M450.2,369.71v-2.78h-.8v-.86l.86-.06.13-1.52h1V366h1.43v.92h-1.43v2.79c0,.66.23,1,.8,1a1.64,1.64,0,0,0,.59-.13l.21.85a3.52,3.52,0,0,1-1.08.2C450.63,371.64,450.2,370.87,450.2,369.71Z"/><path class="cls-24" d="M454,366h.94l.09,1h0a1.9,1.9,0,0,1,1.56-1.13,1.37,1.37,0,0,1,.62.12l-.21,1a1.63,1.63,0,0,0-.55-.09c-.45,0-1,.31-1.33,1.18v3.43H454Z"/><path class="cls-24" d="M458,369.47V366h1.15v3.32c0,.94.27,1.32.92,1.32s.86-.24,1.32-.82V366h1.15v5.5h-.94l-.09-.83h0a2.3,2.3,0,0,1-1.79,1C458.51,371.64,458,370.87,458,369.47Z"/><path class="cls-24" d="M464.27,366h.94l.09.77h0a2.4,2.4,0,0,1,1.7-.91,1.47,1.47,0,0,1,1.52,1,2.53,2.53,0,0,1,1.79-1c1.15,0,1.69.78,1.69,2.18v3.46h-1.15v-3.32c0-.95-.3-1.33-.92-1.33a1.84,1.84,0,0,0-1.24.75v3.9h-1.15v-3.32c0-.95-.29-1.33-.92-1.33a1.82,1.82,0,0,0-1.23.75v3.9h-1.15Z"/><path class="cls-24" d="M473.3,368.76a2.67,2.67,0,0,1,2.51-2.89c1.46,0,2.25,1.05,2.25,2.6a3,3,0,0,1-.06.59h-3.57a1.66,1.66,0,0,0,1.7,1.68,2.34,2.34,0,0,0,1.31-.41l.4.73a3.34,3.34,0,0,1-1.86.58A2.65,2.65,0,0,1,473.3,368.76Zm3.76-.5c0-.94-.43-1.49-1.23-1.49a1.49,1.49,0,0,0-1.41,1.49Z"/><path class="cls-24" d="M479.34,366h.94l.09.76h0a2.62,2.62,0,0,1,1.82-.9c1.17,0,1.69.78,1.69,2.18v3.46h-1.15v-3.32c0-.95-.28-1.33-.93-1.33a1.84,1.84,0,0,0-1.34.75v3.9h-1.15Z"/><path class="cls-24" d="M485.76,369.71v-2.78H485v-.86l.86-.06.13-1.52h1V366h1.43v.92h-1.43v2.79c0,.66.23,1,.8,1a1.64,1.64,0,0,0,.59-.13l.21.85a3.52,3.52,0,0,1-1.08.2C486.19,371.64,485.76,370.87,485.76,369.71Z"/><path class="cls-24" d="M348.42,379h.94l.09.77h0a2.4,2.4,0,0,1,1.7-.91,1.47,1.47,0,0,1,1.52,1,2.53,2.53,0,0,1,1.79-1c1.15,0,1.69.78,1.69,2.18v3.46H355v-3.32c0-.95-.3-1.33-.92-1.33a1.84,1.84,0,0,0-1.24.75v3.9h-1.15v-3.32c0-.95-.29-1.33-.92-1.33a1.82,1.82,0,0,0-1.23.75v3.9h-1.15Z"/><path class="cls-24" d="M357.7,377.29a.66.66,0,0,1,.71-.68.69.69,0,1,1-.71.68Zm.14,1.72H359v5.5h-1.15Z"/><path class="cls-24" d="M360.89,382.71v-2.78h-.8v-.86L361,379l.13-1.52h1V379h1.43v.92H362v2.79c0,.66.23,1,.8,1a1.64,1.64,0,0,0,.59-.13l.21.85a3.52,3.52,0,0,1-1.08.2C361.32,384.64,360.89,383.87,360.89,382.71Z"/><path class="cls-24" d="M366.53,381.76a2.67,2.67,0,0,1,2.51-2.89c1.46,0,2.25,1.05,2.25,2.6a3,3,0,0,1-.06.59h-3.57a1.66,1.66,0,0,0,1.7,1.68,2.34,2.34,0,0,0,1.31-.41l.4.73a3.34,3.34,0,0,1-1.86.58A2.65,2.65,0,0,1,366.53,381.76Zm3.76-.5c0-.94-.43-1.49-1.23-1.49a1.49,1.49,0,0,0-1.41,1.49Z"/><path class="cls-24" d="M372.43,377.29a.66.66,0,0,1,.71-.68.69.69,0,1,1-.71.68Zm.14,1.72h1.15v5.5h-1.15Z"/><path class="cls-24" d="M375.44,379h.94l.09.76h0a2.62,2.62,0,0,1,1.82-.9c1.17,0,1.69.78,1.69,2.18v3.46h-1.15v-3.32c0-.95-.28-1.33-.93-1.33a1.84,1.84,0,0,0-1.34.75v3.9h-1.15Z"/><path class="cls-24" d="M381.29,381.76a2.67,2.67,0,0,1,2.51-2.89c1.46,0,2.25,1.05,2.25,2.6a3,3,0,0,1-.06.59h-3.57a1.66,1.66,0,0,0,1.7,1.68,2.34,2.34,0,0,0,1.31-.41l.4.73a3.34,3.34,0,0,1-1.86.58A2.65,2.65,0,0,1,381.29,381.76Zm3.76-.5c0-.94-.43-1.49-1.23-1.49a1.49,1.49,0,0,0-1.41,1.49Z"/><path class="cls-24" d="M387.33,379h.94l.09.77h0a2.4,2.4,0,0,1,1.7-.91,1.47,1.47,0,0,1,1.52,1,2.53,2.53,0,0,1,1.79-1c1.15,0,1.69.78,1.69,2.18v3.46h-1.15v-3.32c0-.95-.3-1.33-.92-1.33a1.84,1.84,0,0,0-1.24.75v3.9h-1.15v-3.32c0-.95-.29-1.33-.92-1.33a1.82,1.82,0,0,0-1.23.75v3.9h-1.15Z"/><path class="cls-24" d="M398.7,380.85c0-2.4,1.46-3.84,3.32-3.84a2.84,2.84,0,0,1,2.09.93l-.63.74A2,2,0,0,0,402,378c-1.27,0-2.15,1.06-2.15,2.79s.82,2.82,2.12,2.82a2.13,2.13,0,0,0,1.63-.78l.62.73a2.91,2.91,0,0,1-2.29,1.06C400.12,384.64,398.7,383.26,398.7,380.85Z"/><path class="cls-24" d="M405.07,381.76a2.6,2.6,0,1,1,2.59,2.88A2.65,2.65,0,0,1,405.07,381.76Zm4,0c0-1.16-.54-1.94-1.41-1.94s-1.4.78-1.4,1.94.54,1.94,1.4,1.94S409.07,382.93,409.07,381.76Z"/><path class="cls-24" d="M411.6,379h.94l.09.77h0a2.4,2.4,0,0,1,1.7-.91,1.47,1.47,0,0,1,1.52,1,2.53,2.53,0,0,1,1.79-1c1.15,0,1.69.78,1.69,2.18v3.46h-1.15v-3.32c0-.95-.3-1.33-.92-1.33a1.84,1.84,0,0,0-1.24.75v3.9H414.9v-3.32c0-.95-.29-1.33-.92-1.33a1.82,1.82,0,0,0-1.23.75v3.9H411.6Z"/><path class="cls-24" d="M421,379H422l.09.6h0a2.79,2.79,0,0,1,1.7-.74c1.39,0,2.17,1.11,2.17,2.8,0,1.89-1.13,3-2.37,3a2.27,2.27,0,0,1-1.45-.62l0,.94v1.78H421Zm3.74,2.68c0-1.15-.37-1.86-1.29-1.86a1.89,1.89,0,0,0-1.3.67v2.69a1.84,1.84,0,0,0,1.19.5C424.16,383.69,424.76,383,424.76,381.69Z"/><path class="cls-24" d="M427.25,382.47V379h1.15v3.32c0,.94.27,1.32.92,1.32s.86-.24,1.32-.82V379h1.15v5.5h-.94l-.09-.83h0a2.3,2.3,0,0,1-1.79,1C427.76,384.64,427.25,383.87,427.25,382.47Z"/><path class="cls-24" d="M433.7,382.71v-2.78h-.8v-.86l.86-.06.13-1.52h1V379h1.43v.92h-1.43v2.79c0,.66.23,1,.8,1a1.64,1.64,0,0,0,.59-.13l.21.85a3.52,3.52,0,0,1-1.08.2C434.13,384.64,433.7,383.87,433.7,382.71Z"/><path class="cls-24" d="M437.09,381.76a2.67,2.67,0,0,1,2.51-2.89c1.46,0,2.25,1.05,2.25,2.6a3,3,0,0,1-.06.59h-3.57a1.66,1.66,0,0,0,1.7,1.68,2.34,2.34,0,0,0,1.31-.41l.4.73a3.34,3.34,0,0,1-1.86.58A2.65,2.65,0,0,1,437.09,381.76Zm3.76-.5c0-.94-.43-1.49-1.23-1.49a1.49,1.49,0,0,0-1.41,1.49Z"/><path class="cls-24" d="M443.13,379h.94l.09,1h0a1.9,1.9,0,0,1,1.56-1.13,1.37,1.37,0,0,1,.62.12l-.21,1a1.63,1.63,0,0,0-.55-.09c-.45,0-1,.31-1.33,1.18v3.43h-1.15Z"/><path class="cls-24" d="M449.08,381.76a2.6,2.6,0,1,1,2.59,2.88A2.65,2.65,0,0,1,449.08,381.76Zm4,0c0-1.16-.54-1.94-1.41-1.94s-1.4.78-1.4,1.94.54,1.94,1.4,1.94S453.08,382.93,453.08,381.76Z"/><path class="cls-24" d="M455.24,381.76c0-1.78,1.13-2.89,2.36-2.89a2.12,2.12,0,0,1,1.48.62l-.05-.91v-2h1.15v8h-.94l-.09-.62h0a2.31,2.31,0,0,1-1.6.75C456.13,384.64,455.24,383.59,455.24,381.76ZM459,383v-2.69a1.72,1.72,0,0,0-1.21-.5c-.77,0-1.39.73-1.39,1.92s.49,1.94,1.35,1.94A1.62,1.62,0,0,0,459,383Z"/><path class="cls-24" d="M461.52,381.76a2.67,2.67,0,0,1,2.51-2.89c1.46,0,2.25,1.05,2.25,2.6a3,3,0,0,1-.06.59h-3.57a1.66,1.66,0,0,0,1.7,1.68,2.34,2.34,0,0,0,1.31-.41l.4.73a3.34,3.34,0,0,1-1.86.58A2.65,2.65,0,0,1,461.52,381.76Zm3.76-.5c0-.94-.43-1.49-1.23-1.49a1.49,1.49,0,0,0-1.41,1.49Z"/><path class="cls-24" d="M467.56,379h.94l.09,1h0a1.9,1.9,0,0,1,1.56-1.13,1.37,1.37,0,0,1,.62.12l-.21,1a1.63,1.63,0,0,0-.55-.09c-.45,0-1,.31-1.33,1.18v3.43h-1.15Z"/><path class="cls-24" d="M350,391.12h-2.16v-1h5.49v1h-2.17v6.39H350Z"/><path class="cls-24" d="M354.2,396.05c0-1.18,1-1.79,3.29-2,0-.64-.24-1.2-1.05-1.2a3,3,0,0,0-1.59.56l-.43-.78a4.21,4.21,0,0,1,2.22-.72c1.37,0,2,.87,2,2.33v3.31h-.94l-.09-.63h0a2.73,2.73,0,0,1-1.75.76A1.52,1.52,0,0,1,354.2,396.05Zm3.29,0v-1.35c-1.63.19-2.18.61-2.18,1.23s.37.76.86.76A1.94,1.94,0,0,0,357.49,396.09Z"/><path class="cls-24" d="M361.31,396.94h0l-.11.57h-.9v-8h1.15v2.11l0,.94a2.63,2.63,0,0,1,1.64-.72c1.39,0,2.18,1.11,2.18,2.8,0,1.89-1.13,3-2.37,3A2.33,2.33,0,0,1,361.31,396.94Zm2.7-2.25c0-1.15-.37-1.86-1.29-1.86a1.88,1.88,0,0,0-1.3.67v2.69a1.82,1.82,0,0,0,1.19.5C363.41,396.69,364,396,364,394.69Z"/><path class="cls-24" d="M366.56,396.22v-6.68h1.15v6.74c0,.31.13.42.27.42l.19,0,.15.87a1.8,1.8,0,0,1-.62.09C366.87,397.64,366.56,397.11,366.56,396.22Z"/><path class="cls-24" d="M369.15,394.76a2.67,2.67,0,0,1,2.51-2.89c1.46,0,2.25,1.05,2.25,2.6a3,3,0,0,1-.06.59h-3.57a1.66,1.66,0,0,0,1.7,1.68,2.34,2.34,0,0,0,1.31-.41l.4.73a3.34,3.34,0,0,1-1.86.58A2.65,2.65,0,0,1,369.15,394.76Zm3.76-.5c0-.94-.43-1.49-1.23-1.49a1.49,1.49,0,0,0-1.41,1.49Z"/><path class="cls-24" d="M375.37,395.71v-2.78h-.8v-.86l.86-.06.13-1.52h1V392H378v.92h-1.43v2.79c0,.66.23,1,.8,1a1.64,1.64,0,0,0,.59-.13l.21.85a3.52,3.52,0,0,1-1.08.2C375.8,397.64,375.37,396.87,375.37,395.71Z"/><path class="cls-24" d="M378.81,398.86a1.53,1.53,0,0,0,1.09-1.37h-.11a.72.72,0,0,1-.77-.74.75.75,0,0,1,.8-.74c.56,0,.89.47.89,1.24a2.34,2.34,0,0,1-1.64,2.25Z"/><path class="cls-24" d="M384.31,395.47V392h1.15v3.32c0,.94.27,1.32.92,1.32s.86-.24,1.32-.82V392h1.15v5.5h-.94l-.09-.83h0a2.3,2.3,0,0,1-1.79,1C384.82,397.64,384.31,396.87,384.31,395.47Z"/><path class="cls-24" d="M390.58,392h.94l.09.77h0a2.4,2.4,0,0,1,1.7-.91,1.47,1.47,0,0,1,1.52,1,2.53,2.53,0,0,1,1.79-1c1.15,0,1.69.78,1.69,2.18v3.46h-1.15v-3.32c0-.95-.3-1.33-.92-1.33a1.84,1.84,0,0,0-1.24.75v3.9h-1.15v-3.32c0-.95-.29-1.33-.92-1.33a1.82,1.82,0,0,0-1.23.75v3.9h-1.15Z"/><path class="cls-24" d="M402.35,390.14h1.33l1.35,3.73c.17.49.32,1,.49,1.48h.05c.17-.49.31-1,.48-1.48l1.33-3.73h1.34v7.37h-1.08v-3.64c0-.66.09-1.61.15-2.28h0l-.59,1.7-1.28,3.51h-.72l-1.29-3.51-.58-1.7h0c.05.67.14,1.62.14,2.28v3.64h-1Z"/><path class="cls-24" d="M410.65,390.14h1.16v7.37h-1.16Z"/><path class="cls-24" d="M413.74,390.14h1.91c2.26,0,3.55,1.26,3.55,3.66s-1.29,3.71-3.49,3.71h-2Zm1.83,6.42c1.58,0,2.43-.93,2.43-2.76s-.85-2.71-2.43-2.71h-.67v5.47Z"/><path class="cls-24" d="M420.73,390.14h1.16v7.37h-1.16Z"/><path class="cls-24" d="M426.07,390.14H428c2.26,0,3.55,1.26,3.55,3.66s-1.29,3.71-3.49,3.71h-2Zm1.83,6.42c1.58,0,2.43-.93,2.43-2.76s-.85-2.71-2.43-2.71h-.67v5.47Z"/><path class="cls-24" d="M432.64,396.05c0-1.18,1-1.79,3.29-2,0-.64-.24-1.2-1.05-1.2a3,3,0,0,0-1.59.56l-.43-.78a4.21,4.21,0,0,1,2.22-.72c1.37,0,2,.87,2,2.33v3.31h-.94l-.09-.63h0a2.73,2.73,0,0,1-1.75.76A1.52,1.52,0,0,1,432.64,396.05Zm3.29,0v-1.35c-1.63.19-2.18.61-2.18,1.23s.37.76.86.76A1.94,1.94,0,0,0,435.93,396.09Z"/><path class="cls-24" d="M438.89,395.71v-2.78h-.8v-.86L439,392l.13-1.52h1V392h1.43v.92H440v2.79c0,.66.23,1,.8,1a1.64,1.64,0,0,0,.59-.13l.21.85a3.52,3.52,0,0,1-1.08.2C439.32,397.64,438.89,396.87,438.89,395.71Z"/><path class="cls-24" d="M442.28,394.76a2.67,2.67,0,0,1,2.51-2.89c1.46,0,2.25,1.05,2.25,2.6a3,3,0,0,1-.06.59h-3.57a1.66,1.66,0,0,0,1.7,1.68,2.34,2.34,0,0,0,1.31-.41l.4.73a3.34,3.34,0,0,1-1.86.58A2.65,2.65,0,0,1,442.28,394.76Zm3.76-.5c0-.94-.43-1.49-1.23-1.49a1.49,1.49,0,0,0-1.41,1.49Z"/><path class="cls-24" d="M448.32,392h.94l.09.76h0a2.62,2.62,0,0,1,1.82-.9c1.17,0,1.69.78,1.69,2.18v3.46h-1.15v-3.32c0-.95-.28-1.33-.93-1.33a1.84,1.84,0,0,0-1.34.75v3.9h-1.15Z"/><path class="cls-24" d="M456.31,396.89l2.72-4h-2.42V392h3.86v.61l-2.71,4h2.8v.92h-4.25Z"/><path class="cls-24" d="M461.64,395.47V392h1.15v3.32c0,.94.27,1.32.92,1.32s.86-.24,1.32-.82V392h1.15v5.5h-.94l-.09-.83h0a2.3,2.3,0,0,1-1.79,1C462.15,397.64,461.64,396.87,461.64,395.47Z"/><path class="cls-24" d="M347.84,409.88l.54-.74a2.49,2.49,0,0,0,1.56.63c.66,0,1-.32,1-.74s-.62-.72-1.21-.95-1.55-.67-1.55-1.6.74-1.61,2-1.61a2.87,2.87,0,0,1,1.78.65l-.54.71a2.05,2.05,0,0,0-1.22-.48c-.61,0-.89.3-.89.68s.54.65,1.14.87c.77.29,1.62.63,1.62,1.67s-.73,1.67-2.09,1.67A3.41,3.41,0,0,1,347.84,409.88Z"/><path class="cls-24" d="M352.83,407.76a2.67,2.67,0,0,1,2.51-2.89c1.46,0,2.25,1.05,2.25,2.6a3,3,0,0,1-.06.59H354a1.66,1.66,0,0,0,1.7,1.68,2.34,2.34,0,0,0,1.31-.41l.4.73a3.34,3.34,0,0,1-1.86.58A2.65,2.65,0,0,1,352.83,407.76Zm3.76-.5c0-.94-.43-1.49-1.23-1.49a1.49,1.49,0,0,0-1.41,1.49Z"/><path class="cls-24" d="M358.87,405h.94l.09.76h0a2.62,2.62,0,0,1,1.82-.9c1.17,0,1.69.78,1.69,2.18v3.46h-1.15v-3.32c0-.95-.28-1.33-.93-1.33a1.84,1.84,0,0,0-1.34.75v3.9h-1.15Z"/><path class="cls-24" d="M364.74,407.76c0-1.78,1.13-2.89,2.36-2.89a2.12,2.12,0,0,1,1.48.62l-.05-.91v-2h1.15v8h-.94l-.09-.62h0a2.31,2.31,0,0,1-1.6.75C365.63,410.64,364.74,409.59,364.74,407.76Zm3.79,1.26v-2.69a1.72,1.72,0,0,0-1.21-.5c-.77,0-1.39.73-1.39,1.92s.49,1.94,1.35,1.94A1.62,1.62,0,0,0,368.53,409Z"/><path class="cls-24" d="M371,407.76a2.67,2.67,0,0,1,2.51-2.89c1.46,0,2.25,1.05,2.25,2.6a3,3,0,0,1-.06.59h-3.57a1.66,1.66,0,0,0,1.7,1.68,2.34,2.34,0,0,0,1.31-.41l.4.73a3.34,3.34,0,0,1-1.86.58A2.65,2.65,0,0,1,371,407.76Zm3.76-.5c0-.94-.43-1.49-1.23-1.49a1.49,1.49,0,0,0-1.41,1.49Z"/><path class="cls-24" d="M377.06,405H378l.09.76h0a2.62,2.62,0,0,1,1.82-.9c1.17,0,1.69.78,1.69,2.18v3.46h-1.15v-3.32c0-.95-.28-1.33-.93-1.33a1.84,1.84,0,0,0-1.34.75v3.9h-1.15Z"/><path class="cls-24" d="M385.16,407.76a2.6,2.6,0,1,1,2.59,2.88A2.65,2.65,0,0,1,385.16,407.76Zm4,0c0-1.16-.54-1.94-1.41-1.94s-1.4.78-1.4,1.94.54,1.94,1.4,1.94S389.16,408.93,389.16,407.76Z"/><path class="cls-24" d="M391.32,407.76c0-1.78,1.13-2.89,2.36-2.89a2.12,2.12,0,0,1,1.48.62l-.05-.91v-2h1.15v8h-.94l-.09-.62h0a2.31,2.31,0,0,1-1.6.75C392.21,410.64,391.32,409.59,391.32,407.76Zm3.79,1.26v-2.69a1.72,1.72,0,0,0-1.21-.5c-.77,0-1.39.73-1.39,1.92s.49,1.94,1.35,1.94A1.62,1.62,0,0,0,395.11,409Z"/><path class="cls-24" d="M397.6,407.76a2.67,2.67,0,0,1,2.51-2.89c1.46,0,2.25,1.05,2.25,2.6a3,3,0,0,1-.06.59h-3.57a1.66,1.66,0,0,0,1.7,1.68,2.34,2.34,0,0,0,1.31-.41l.4.73a3.34,3.34,0,0,1-1.86.58A2.65,2.65,0,0,1,397.6,407.76Zm3.76-.5c0-.94-.43-1.49-1.23-1.49a1.49,1.49,0,0,0-1.41,1.49Z"/><path class="cls-24" d="M403.64,405h.94l.09,1h0a1.9,1.9,0,0,1,1.56-1.13,1.37,1.37,0,0,1,.62.12l-.21,1a1.63,1.63,0,0,0-.55-.09c-.45,0-1,.31-1.33,1.18v3.43h-1.15Z"/><path class="cls-24" d="M409.48,409.89l2.72-4h-2.42V405h3.86v.61l-2.71,4h2.8v.92h-4.25Z"/><path class="cls-24" d="M414.81,408.47V405H416v3.32c0,.94.27,1.32.92,1.32s.86-.24,1.32-.82V405h1.15v5.5h-.94l-.09-.83h0a2.3,2.3,0,0,1-1.79,1C415.32,410.64,414.81,409.87,414.81,408.47Z"/><path class="cls-24" d="M422.94,407.76a2.67,2.67,0,0,1,2.51-2.89c1.46,0,2.25,1.05,2.25,2.6a3,3,0,0,1-.06.59h-3.57a1.66,1.66,0,0,0,1.7,1.68,2.34,2.34,0,0,0,1.31-.41l.4.73a3.34,3.34,0,0,1-1.86.58A2.65,2.65,0,0,1,422.94,407.76Zm3.76-.5c0-.94-.43-1.49-1.23-1.49a1.49,1.49,0,0,0-1.41,1.49Z"/><path class="cls-24" d="M429,405h.94l.09.77h0a2.4,2.4,0,0,1,1.7-.91,1.47,1.47,0,0,1,1.52,1,2.53,2.53,0,0,1,1.79-1c1.15,0,1.69.78,1.69,2.18v3.46h-1.15v-3.32c0-.95-.3-1.33-.92-1.33a1.84,1.84,0,0,0-1.24.75v3.9h-1.15v-3.32c0-.95-.29-1.33-.92-1.33a1.82,1.82,0,0,0-1.23.75v3.9H429Z"/><path class="cls-24" d="M438.4,405h.94l.09.6h0a2.79,2.79,0,0,1,1.7-.74c1.39,0,2.17,1.11,2.17,2.8,0,1.89-1.13,3-2.37,3a2.27,2.27,0,0,1-1.45-.62l0,.94v1.78H438.4Zm3.74,2.68c0-1.15-.37-1.86-1.29-1.86a1.89,1.89,0,0,0-1.3.67v2.69a1.84,1.84,0,0,0,1.19.5C441.54,409.69,442.14,409,442.14,407.69Z"/><path class="cls-24" d="M444.89,405.93h-.75v-.86l.75-.06v-.69c0-1.13.51-1.91,1.74-1.91a2.71,2.71,0,0,1,1,.18l-.23.87a1.5,1.5,0,0,0-.6-.14c-.49,0-.73.32-.73,1v.7h1.11v.92H446v4.58h-1.15Z"/><path class="cls-24" d="M447.83,409.05c0-1.18,1-1.79,3.29-2,0-.64-.24-1.2-1.05-1.2a3,3,0,0,0-1.59.56l-.43-.78a4.21,4.21,0,0,1,2.22-.72c1.37,0,2,.87,2,2.33v3.31h-.94l-.09-.63h0a2.73,2.73,0,0,1-1.75.76A1.52,1.52,0,0,1,447.83,409.05Zm3.29,0v-1.35c-1.63.19-2.18.61-2.18,1.23s.37.76.86.76A1.94,1.94,0,0,0,451.12,409.09Z"/><path class="cls-24" d="M453.9,405h.94l.09.76h0a2.62,2.62,0,0,1,1.82-.9c1.17,0,1.69.78,1.69,2.18v3.46h-1.15v-3.32c0-.95-.28-1.33-.93-1.33a1.84,1.84,0,0,0-1.34.75v3.9H453.9Z"/><path class="cls-24" d="M459.74,411.53a1.45,1.45,0,0,1,.8-1.2v-.05a1,1,0,0,1-.5-.91,1.34,1.34,0,0,1,.62-1v0a1.86,1.86,0,0,1-.73-1.47,2,2,0,0,1,2.13-2,2.29,2.29,0,0,1,.8.14h1.95v.86h-1.05a1.49,1.49,0,0,1,.36,1,1.88,1.88,0,0,1-2.06,1.89,1.91,1.91,0,0,1-.77-.17.71.71,0,0,0-.3.58c0,.33.22.54.92.54h1c1.3,0,2,.4,2,1.34S463.78,413,462,413C460.7,413,459.74,412.49,459.74,411.53Zm4.05-.29c0-.46-.36-.6-1-.6h-.83a3.5,3.5,0,0,1-.74-.08,1,1,0,0,0-.47.8c0,.54.56.86,1.47.86S463.79,411.75,463.79,411.24Zm-.69-4.4a1,1,0,1,0-2.08,0,1,1,0,1,0,2.08,0Z"/><path class="cls-24" d="M465.53,407.76a2.67,2.67,0,0,1,2.51-2.89c1.46,0,2.25,1.05,2.25,2.6a3,3,0,0,1-.06.59h-3.57a1.66,1.66,0,0,0,1.7,1.68,2.34,2.34,0,0,0,1.31-.41l.4.73a3.34,3.34,0,0,1-1.86.58A2.65,2.65,0,0,1,465.53,407.76Zm3.76-.5c0-.94-.43-1.49-1.23-1.49a1.49,1.49,0,0,0-1.41,1.49Z"/><path class="cls-24" d="M471.57,405h.94l.09.76h0a2.62,2.62,0,0,1,1.82-.9c1.17,0,1.69.78,1.69,2.18v3.46H475v-3.32c0-.95-.28-1.33-.93-1.33a1.84,1.84,0,0,0-1.34.75v3.9h-1.15Z"/><path class="cls-24" d="M477.66,409.84a.77.77,0,1,1,1.54,0,.77.77,0,1,1-1.54,0Z"/><polyline class="cls-20" points="307.91 45.27 313.92 45.27 320.25 45.27"/><polyline class="cls-20" points="301.74 55.99 302.06 55.18 307.91 45.27"/><polyline class="cls-20" points="332.75 45.27 335.68 50.47 338.93 55.99"/><polyline class="cls-20" points="320.25 45.27 321.06 45.27 332.75 45.27"/><polyline class="cls-20" points="338.11 71.25 338.76 66.71 338.11 62.16 336.49 57.78 333.73 54.04 330.16 51.12 325.93 49.17 321.39 48.36 316.84 48.68 312.46 49.98 308.56 52.58 305.31 55.83 303.2 59.89 302.06 64.44 302.06 68.98 303.2 73.53 305.31 77.59 308.56 80.84 312.46 83.43 316.84 84.73 321.39 85.06 325.93 84.25 330.16 82.3 333.73 79.37 336.49 75.64 338.11 71.25"/><polyline class="cls-20" points="320.25 45.27 317.49 45.44 314.73 45.92 312.13 46.9 309.53 48.2 307.26 49.66 305.15 51.61 303.2 53.72 301.74 55.99"/><polyline class="cls-20" points="338.93 55.99 337.3 53.72 335.51 51.61 333.4 49.66 330.97 48.2 328.53 46.9 325.77 45.92 323.01 45.44 320.25 45.27"/><polyline class="cls-20" points="295.4 66.71 298.49 61.51 301.74 55.99"/><polyline class="cls-20" points="301.74 77.43 301.25 76.61 295.4 66.71"/><polyline class="cls-20" points="301.74 55.99 300.44 58.43 299.46 61.19 298.98 63.95 298.81 66.71 298.98 69.47 299.46 72.23 300.44 74.99 301.74 77.43"/><polyline class="cls-20" points="320.25 88.14 311.81 88.14 307.91 88.14"/><polyline class="cls-20" points="307.91 88.14 304.82 82.95 301.74 77.43"/><polyline class="cls-20" points="301.74 77.43 303.2 79.86 305.15 81.97 307.26 83.76 309.53 85.38 312.13 86.52 314.73 87.49 317.49 87.98 320.25 88.14"/><polyline class="cls-20" points="345.1 66.71 342.01 71.91 338.93 77.43"/><polyline class="cls-20" points="338.93 55.99 339.25 56.8 345.1 66.71"/><polyline class="cls-20" points="338.93 77.43 340.06 74.99 341.04 72.23 341.52 69.47 341.69 66.71 341.52 63.95 341.04 61.19 340.06 58.43 338.93 55.99"/><polyline class="cls-20" points="332.75 88.14 324.31 88.14 320.25 88.14"/><polyline class="cls-20" points="338.93 77.43 338.44 78.24 332.75 88.14"/><polyline class="cls-20" points="320.25 88.14 323.01 87.98 325.77 87.49 328.53 86.52 330.97 85.38 333.4 83.76 335.51 81.97 337.3 79.86 338.93 77.43"/><line class="cls-20" x1="329.99" y1="82.3" x2="329.34" y2="82.3"/><line class="cls-20" x1="311.16" y1="82.3" x2="310.51" y2="82.3"/><polyline class="cls-20" points="328.21 82.95 331.94 80.51 335.03 77.26 337.14 73.37 338.27 68.98 338.27 64.44 337.14 60.21 335.03 56.15 331.94 52.91 328.21 50.47"/><line class="cls-20" x1="312.29" y1="50.47" x2="328.21" y2="50.47"/><polyline class="cls-20" points="312.29 50.47 308.56 52.91 305.47 56.15 303.36 60.21 302.39 64.44 302.39 68.98 303.36 73.37 305.47 77.26 308.56 80.51 312.29 82.95"/><line class="cls-20" x1="312.29" y1="82.95" x2="328.21" y2="82.95"/><polyline class="cls-20" points="304.82 62.65 304.34 66.71 304.82 70.77 306.45 74.67 309.05 78.08 312.29 80.51 316.19 82.14 320.25 82.62 324.47 82.14 328.21 80.51 331.62 78.08 334.05 74.67 335.68 70.77 336.16 66.71 335.68 62.65 334.05 58.75 331.62 55.5 328.21 52.91 324.47 51.28 320.25 50.79 316.19 51.28 312.29 52.91 309.05 55.5 306.45 58.75 304.82 62.65"/><polyline class="cls-20" points="307.91 70.61 307.42 66.71 307.91 62.97 309.53 59.4 312.29 56.64 315.54 54.69 319.28 53.88 323.17 54.04 326.75 55.5 329.83 57.94 331.94 61.02 333.08 64.76 333.08 68.66 331.94 72.39 329.83 75.48 326.75 77.91 323.17 79.37 319.28 79.54 315.54 78.72 312.29 76.78 309.53 74.02 307.91 70.61"/><polyline class="cls-20" points="310.99 63.3 310.35 66.71 310.99 70.12 312.78 73.04 315.38 75.31 318.63 76.45 322.04 76.45 325.28 75.31 327.88 73.04 329.51 70.12 330.16 66.71 329.51 63.3 327.88 60.38 325.28 58.1 322.04 56.97 318.63 56.97 315.38 58.1 312.78 60.38 310.99 63.3"/><path class="cls-24" d="M12.45,403.8l.68-.8a2.85,2.85,0,0,0,2,.87c.89,0,1.39-.42,1.39-1s-.5-.88-1.18-1.18l-1-.44a2.12,2.12,0,0,1-1.5-1.93,2.19,2.19,0,0,1,2.42-2,3.15,3.15,0,0,1,2.23.93l-.61.74a2.34,2.34,0,0,0-1.62-.66c-.75,0-1.24.36-1.24.94s.59.88,1.19,1.12l1,.43a2.05,2.05,0,0,1,1.5,2c0,1.18-1,2.14-2.59,2.14A3.67,3.67,0,0,1,12.45,403.8Z"/><path class="cls-24" d="M18.56,402a2.7,2.7,0,0,1,2.72-2.89,2.36,2.36,0,0,1,1.61.63l-.57.75a1.44,1.44,0,0,0-1-.43c-.93,0-1.59.78-1.59,1.94s.64,1.94,1.55,1.94a1.88,1.88,0,0,0,1.2-.5l.48.76a2.72,2.72,0,0,1-1.79.68A2.6,2.6,0,0,1,18.56,402Z"/><path class="cls-24" d="M24.12,396.78h1.15v2.11L25.22,400a2.56,2.56,0,0,1,1.78-.87c1.17,0,1.69.78,1.69,2.18v3.46H27.54v-3.32c0-.95-.28-1.33-.93-1.33a1.84,1.84,0,0,0-1.34.75v3.9H24.12Z"/><path class="cls-24" d="M30.33,403.46v-6.68h1.15v6.74c0,.31.13.42.27.42l.19,0,.15.87a1.8,1.8,0,0,1-.62.09C30.64,404.88,30.33,404.35,30.33,403.46Z"/><path class="cls-24" d="M33.17,397.53a.66.66,0,0,1,.71-.68.69.69,0,1,1-.71.68Zm.14,1.72h1.15v5.5H33.31Z"/><path class="cls-24" d="M35.79,402a2.67,2.67,0,0,1,2.51-2.89c1.46,0,2.25,1.05,2.25,2.6a3,3,0,0,1-.06.59H36.92a1.66,1.66,0,0,0,1.7,1.68,2.34,2.34,0,0,0,1.31-.41l.4.73a3.34,3.34,0,0,1-1.86.58A2.65,2.65,0,0,1,35.79,402Zm3.76-.5c0-.94-.43-1.49-1.23-1.49a1.49,1.49,0,0,0-1.41,1.49Z"/><path class="cls-24" d="M43.81,404.34l.43-.79a1.85,1.85,0,0,0,1.16.46.79.79,0,0,0,.85-.79c0-1.17-2.15-1-2.15-2.52,0-1,.93-1.29.93-2.2a.83.83,0,0,0-.87-.91c-.76,0-1.2.57-1.2,1.64v5.52H41.83v-5.7a2.17,2.17,0,0,1,2.34-2.38,1.76,1.76,0,0,1,2,1.71c0,1.11-1,1.47-1,2.19,0,1,2.14.8,2.14,2.59a1.71,1.71,0,0,1-1.89,1.72A2.72,2.72,0,0,1,43.81,404.34Z"/><path class="cls-24" d="M48.11,402a2.67,2.67,0,0,1,2.51-2.89c1.46,0,2.25,1.05,2.25,2.6a3,3,0,0,1-.06.59H49.24a1.66,1.66,0,0,0,1.7,1.68,2.34,2.34,0,0,0,1.31-.41l.4.73a3.34,3.34,0,0,1-1.86.58A2.65,2.65,0,0,1,48.11,402Zm3.76-.5c0-.94-.43-1.49-1.23-1.49a1.49,1.49,0,0,0-1.41,1.49Z"/><path class="cls-24" d="M54.15,399.25h.94l.09.76h0a2.62,2.62,0,0,1,1.82-.9c1.17,0,1.69.78,1.69,2.18v3.46H57.57v-3.32c0-.95-.28-1.33-.93-1.33a1.84,1.84,0,0,0-1.34.75v3.9H54.15Z"/><path class="cls-24" d="M62.22,403.8l.68-.8a2.85,2.85,0,0,0,2,.87c.89,0,1.39-.42,1.39-1s-.5-.88-1.18-1.18l-1-.44a2.12,2.12,0,0,1-1.5-1.93,2.19,2.19,0,0,1,2.42-2,3.15,3.15,0,0,1,2.23.93l-.61.74a2.34,2.34,0,0,0-1.62-.66c-.75,0-1.24.36-1.24.94s.59.88,1.19,1.12l1,.43a2.05,2.05,0,0,1,1.5,2c0,1.18-1,2.14-2.59,2.14A3.67,3.67,0,0,1,62.22,403.8Z"/><path class="cls-24" d="M68.58,397.53a.66.66,0,0,1,.71-.68.69.69,0,1,1-.71.68Zm.14,1.72h1.15v5.5H68.72Z"/><path class="cls-24" d="M71.2,402a2.67,2.67,0,0,1,2.51-2.89c1.46,0,2.25,1.05,2.25,2.6a3,3,0,0,1-.06.59H72.33A1.66,1.66,0,0,0,74,404a2.34,2.34,0,0,0,1.31-.41l.4.73a3.34,3.34,0,0,1-1.86.58A2.65,2.65,0,0,1,71.2,402Zm3.76-.5c0-.94-.43-1.49-1.23-1.49a1.49,1.49,0,0,0-1.41,1.49Z"/><path class="cls-24" d="M79.49,396.78h1.15v2.11l0,1.09a2.56,2.56,0,0,1,1.78-.87c1.17,0,1.69.78,1.69,2.18v3.46H82.91v-3.32c0-.95-.28-1.33-.93-1.33a1.84,1.84,0,0,0-1.34.75v3.9H79.49Z"/><path class="cls-24" d="M85.56,397.53a.66.66,0,0,1,.71-.68.69.69,0,1,1-.71.68Zm.14,1.72h1.15v5.5H85.7Z"/><path class="cls-24" d="M88.18,402a2.67,2.67,0,0,1,2.51-2.89c1.46,0,2.25,1.05,2.25,2.6a3,3,0,0,1-.06.59H89.31A1.66,1.66,0,0,0,91,404a2.34,2.34,0,0,0,1.31-.41l.4.73a3.34,3.34,0,0,1-1.86.58A2.65,2.65,0,0,1,88.18,402Zm3.76-.5c0-.94-.43-1.49-1.23-1.49a1.49,1.49,0,0,0-1.41,1.49Z"/><path class="cls-24" d="M94.22,399.25h.94l.09,1h0a1.9,1.9,0,0,1,1.56-1.13,1.37,1.37,0,0,1,.62.12l-.21,1a1.63,1.63,0,0,0-.55-.09c-.45,0-1,.31-1.33,1.18v3.43H94.22Z"/><path class="cls-24" d="M100.06,404.13l2.72-4h-2.42v-.92h3.86v.61l-2.71,4h2.8v.92h-4.25Z"/><path class="cls-24" d="M105.31,404.08a.77.77,0,1,1,1.54,0,.77.77,0,1,1-1.54,0Z"/><path class="cls-24" d="M108.54,397.38h2.28c1.51,0,2.6.49,2.6,1.82a1.64,1.64,0,0,1-1,1.59v0a1.69,1.69,0,0,1,1.45,1.75c0,1.46-1.19,2.16-2.82,2.16h-2.46Zm2.15,3.08c1.12,0,1.59-.42,1.59-1.11s-.52-1.06-1.56-1.06h-1v2.17Zm.18,3.38c1.15,0,1.81-.41,1.81-1.31s-.64-1.2-1.81-1.2H109.7v2.51Z"/><path class="cls-24" d="M115,404.08a.77.77,0,1,1,1.54,0,.77.77,0,1,1-1.54,0Z"/><path class="cls-24" d="M120,402a2.67,2.67,0,0,1,2.51-2.89c1.46,0,2.25,1.05,2.25,2.6a3,3,0,0,1-.06.59h-3.57a1.66,1.66,0,0,0,1.7,1.68,2.34,2.34,0,0,0,1.31-.41l.4.73a3.34,3.34,0,0,1-1.86.58A2.65,2.65,0,0,1,120,402Zm3.76-.5c0-.94-.43-1.49-1.23-1.49a1.49,1.49,0,0,0-1.41,1.49Z"/><path class="cls-24" d="M125.85,397.53a.66.66,0,0,1,.71-.68.69.69,0,1,1-.71.68Zm.14,1.72h1.15v5.5H126Z"/><path class="cls-24" d="M128.86,399.25h.94l.09.76h0a2.62,2.62,0,0,1,1.82-.9c1.17,0,1.69.78,1.69,2.18v3.46h-1.15v-3.32c0-.95-.28-1.33-.93-1.33a1.84,1.84,0,0,0-1.34.75v3.9h-1.15Z"/><path class="cls-24" d="M134.71,402a2.67,2.67,0,0,1,2.51-2.89c1.46,0,2.25,1.05,2.25,2.6a3,3,0,0,1-.06.59h-3.57a1.66,1.66,0,0,0,1.7,1.68,2.34,2.34,0,0,0,1.31-.41l.4.73a3.34,3.34,0,0,1-1.86.58A2.65,2.65,0,0,1,134.71,402Zm3.76-.5c0-.94-.43-1.49-1.23-1.49a1.49,1.49,0,0,0-1.41,1.49Z"/><path class="cls-24" d="M140.75,399.25h.94l.09.76h0a2.62,2.62,0,0,1,1.82-.9c1.17,0,1.69.78,1.69,2.18v3.46h-1.15v-3.32c0-.95-.28-1.33-.93-1.33a1.84,1.84,0,0,0-1.34.75v3.9h-1.15Z"/><path class="cls-24" d="M13,410.38H14.3l1.35,3.73c.17.49.32,1,.49,1.48h.05c.17-.49.31-1,.48-1.48L18,410.38h1.34v7.37H18.26v-3.64c0-.66.09-1.61.15-2.28h0l-.59,1.7L16.5,417h-.72l-1.29-3.51-.58-1.7h0c.05.67.14,1.62.14,2.28v3.64H13Z"/><path class="cls-24" d="M21.27,410.38H23.5c1.64,0,2.81.57,2.81,2.23S25.14,415,23.54,415H22.43v2.79H21.27ZM23.43,414c1.18,0,1.74-.45,1.74-1.42s-.61-1.29-1.78-1.29h-1V414Z"/><path class="cls-24" d="M27.05,416.87l.56-.74a2.38,2.38,0,0,0,1.74.81c.83,0,1.4-.45,1.4-1.17s-.52-1.3-2.18-1.3v-.85c1.45,0,1.93-.53,1.93-1.22a1,1,0,0,0-1.13-1,2.07,2.07,0,0,0-1.47.7l-.6-.72a3.07,3.07,0,0,1,2.11-.9c1.32,0,2.25.68,2.25,1.86A1.73,1.73,0,0,1,30.39,414v0a1.84,1.84,0,0,1,1.52,1.8,2.19,2.19,0,0,1-2.46,2.05A3.05,3.05,0,0,1,27.05,416.87Z"/><path class="cls-24" d="M35.69,410.38h2.23c1.64,0,2.81.57,2.81,2.23S39.56,415,38,415H36.85v2.79H35.69ZM37.85,414c1.18,0,1.74-.45,1.74-1.42s-.61-1.29-1.78-1.29h-1V414Z"/><path class="cls-24" d="M42.06,416.46v-6.68h1.15v6.74c0,.31.13.42.27.42l.19,0,.15.87a1.8,1.8,0,0,1-.62.09C42.37,417.88,42.06,417.35,42.06,416.46Z"/><path class="cls-24" d="M44.72,416.29c0-1.18,1-1.79,3.29-2,0-.64-.24-1.2-1-1.2a3,3,0,0,0-1.59.56l-.43-.78a4.21,4.21,0,0,1,2.22-.72c1.37,0,2,.87,2,2.33v3.31h-.94l-.09-.63h0a2.73,2.73,0,0,1-1.75.76A1.52,1.52,0,0,1,44.72,416.29Zm3.29,0V415c-1.63.19-2.18.61-2.18,1.23s.37.76.86.76A1.94,1.94,0,0,0,48,416.33Z"/><path class="cls-24" d="M50.35,419.94l.22-.9a1.49,1.49,0,0,0,.4.08c.6,0,1-.44,1.15-1l.11-.38-2.18-5.46h1.18l1,2.83c.16.49.33,1,.5,1.55h0l.43-1.55.88-2.83h1.12l-2,5.83c-.43,1.18-1,2-2.17,2A2,2,0,0,1,50.35,419.94Z"/><path class="cls-24" d="M55.84,415a2.67,2.67,0,0,1,2.51-2.89c1.46,0,2.25,1.05,2.25,2.6a3,3,0,0,1-.06.59H57a1.66,1.66,0,0,0,1.7,1.68,2.34,2.34,0,0,0,1.31-.41l.4.73a3.34,3.34,0,0,1-1.86.58A2.65,2.65,0,0,1,55.84,415Zm3.76-.5c0-.94-.43-1.49-1.23-1.49A1.49,1.49,0,0,0,57,414.5Z"/><path class="cls-24" d="M61.88,412.25h.94l.09,1h0a1.9,1.9,0,0,1,1.56-1.13,1.37,1.37,0,0,1,.62.12l-.21,1a1.63,1.63,0,0,0-.55-.09c-.45,0-1,.31-1.33,1.18v3.43H61.88Z"/><path class="cls-24" d="M67.9,416.29c0-1.18,1-1.79,3.29-2,0-.64-.24-1.2-1-1.2a3,3,0,0,0-1.59.56l-.43-.78a4.21,4.21,0,0,1,2.22-.72c1.37,0,2,.87,2,2.33v3.31H71.4l-.09-.63h0a2.73,2.73,0,0,1-1.75.76A1.52,1.52,0,0,1,67.9,416.29Zm3.29,0V415c-1.63.19-2.18.61-2.18,1.23s.37.76.86.76A1.94,1.94,0,0,0,71.19,416.33Z"/><path class="cls-24" d="M74,412.25h.94L75,413h0a2.62,2.62,0,0,1,1.82-.9c1.17,0,1.69.78,1.69,2.18v3.46H77.39v-3.32c0-.95-.28-1.33-.93-1.33a1.84,1.84,0,0,0-1.34.75v3.9H74Z"/><path class="cls-24" d="M79.87,419.1A1.53,1.53,0,0,0,81,417.73h-.11a.72.72,0,0,1-.77-.74.75.75,0,0,1,.8-.74c.56,0,.89.47.89,1.24a2.34,2.34,0,0,1-1.64,2.25Z"/><path class="cls-24" d="M85.37,415.71v-3.46h1.15v3.32c0,.94.27,1.32.92,1.32s.86-.24,1.32-.82v-3.82h1.15v5.5H89l-.09-.83h0a2.3,2.3,0,0,1-1.79,1C85.88,417.88,85.37,417.11,85.37,415.71Z"/><path class="cls-24" d="M91.64,412.25h.94l.09.77h0a2.4,2.4,0,0,1,1.7-.91,1.47,1.47,0,0,1,1.52,1,2.53,2.53,0,0,1,1.79-1c1.15,0,1.69.78,1.69,2.18v3.46H98.25v-3.32c0-.95-.3-1.33-.92-1.33a1.84,1.84,0,0,0-1.24.75v3.9H94.94v-3.32c0-.95-.29-1.33-.92-1.33a1.82,1.82,0,0,0-1.23.75v3.9H91.64Z"/><path class="cls-24" d="M103.17,410.53a.66.66,0,0,1,.71-.68.69.69,0,1,1-.71.68Zm.14,1.72h1.15v5.5h-1.15Z"/><path class="cls-24" d="M106.18,409.78h1.15v2.11l0,1.09a2.56,2.56,0,0,1,1.78-.87c1.17,0,1.69.78,1.69,2.18v3.46H109.6v-3.32c0-.95-.28-1.33-.93-1.33a1.84,1.84,0,0,0-1.34.75v3.9h-1.15Z"/><path class="cls-24" d="M112.39,412.25h.94l.09.76h0a2.62,2.62,0,0,1,1.82-.9c1.17,0,1.69.78,1.69,2.18v3.46h-1.15v-3.32c0-.95-.28-1.33-.93-1.33a1.84,1.84,0,0,0-1.34.75v3.9h-1.15Z"/><path class="cls-24" d="M120.81,415.71v-3.46H122v3.32c0,.94.27,1.32.92,1.32s.86-.24,1.32-.82v-3.82h1.15v5.5h-.94l-.09-.83h0a2.3,2.3,0,0,1-1.79,1C121.32,417.88,120.81,417.11,120.81,415.71Zm.53-5.13a.64.64,0,1,1,.63.63A.62.62,0,0,1,121.34,410.58Zm2.26,0a.64.64,0,1,1,.64.63A.63.63,0,0,1,123.6,410.58Z"/><path class="cls-24" d="M128.12,417.18h0l-.11.57h-.9v-8h1.15v2.11l0,.94a2.63,2.63,0,0,1,1.64-.72c1.39,0,2.18,1.11,2.18,2.8,0,1.89-1.13,3-2.37,3A2.33,2.33,0,0,1,128.12,417.18Zm2.7-2.25c0-1.15-.37-1.86-1.29-1.86a1.88,1.88,0,0,0-1.3.67v2.69a1.82,1.82,0,0,0,1.19.5C130.22,416.93,130.82,416.22,130.82,414.93Z"/><path class="cls-24" d="M133,415a2.67,2.67,0,0,1,2.51-2.89c1.46,0,2.25,1.05,2.25,2.6a3,3,0,0,1-.06.59h-3.57a1.66,1.66,0,0,0,1.7,1.68,2.34,2.34,0,0,0,1.31-.41l.4.73a3.34,3.34,0,0,1-1.86.58A2.65,2.65,0,0,1,133,415Zm3.76-.5c0-.94-.43-1.49-1.23-1.49a1.49,1.49,0,0,0-1.41,1.49Z"/><path class="cls-24" d="M139,412.25H140l.09,1h0a1.9,1.9,0,0,1,1.56-1.13,1.37,1.37,0,0,1,.62.12l-.21,1a1.63,1.63,0,0,0-.55-.09c-.45,0-1,.31-1.33,1.18v3.43H139Z"/><path class="cls-24" d="M12.5,428c0-1.78,1.13-2.89,2.36-2.89a2.12,2.12,0,0,1,1.48.62l-.05-.91v-2h1.15v8H16.5l-.09-.62h0a2.31,2.31,0,0,1-1.6.75C13.39,430.88,12.5,429.83,12.5,428Zm3.79,1.26v-2.69a1.72,1.72,0,0,0-1.21-.5c-.77,0-1.39.73-1.39,1.92s.49,1.94,1.35,1.94A1.62,1.62,0,0,0,16.29,429.26Z"/><path class="cls-24" d="M19,423.53a.66.66,0,0,1,.71-.68.69.69,0,1,1-.71.68Zm.14,1.72h1.15v5.5H19.17Z"/><path class="cls-24" d="M21.65,428a2.67,2.67,0,0,1,2.51-2.89c1.46,0,2.25,1.05,2.25,2.6a3,3,0,0,1-.06.59H22.78a1.66,1.66,0,0,0,1.7,1.68,2.34,2.34,0,0,0,1.31-.41l.4.73a3.34,3.34,0,0,1-1.86.58A2.65,2.65,0,0,1,21.65,428Zm3.76-.5c0-.94-.43-1.49-1.23-1.49a1.49,1.49,0,0,0-1.41,1.49Z"/><path class="cls-24" d="M30,423.38H31.2v6.39h3.12v1H30Z"/><path class="cls-24" d="M35.2,429.29c0-1.18,1-1.79,3.29-2,0-.64-.24-1.2-1.05-1.2a3,3,0,0,0-1.59.56l-.43-.78a4.21,4.21,0,0,1,2.22-.72c1.37,0,2,.87,2,2.33v3.31H38.7l-.09-.63h0a2.73,2.73,0,0,1-1.75.76A1.52,1.52,0,0,1,35.2,429.29Zm3.29,0V428c-1.63.19-2.18.61-2.18,1.23s.37.76.86.76A1.94,1.94,0,0,0,38.49,429.33Z"/><path class="cls-24" d="M41.2,428.71v-3.46h1.15v3.32c0,.94.27,1.32.92,1.32s.86-.24,1.32-.82v-3.82h1.15v5.5H44.8l-.09-.83h0a2.3,2.3,0,0,1-1.79,1C41.71,430.88,41.2,430.11,41.2,428.71Z"/><path class="cls-24" d="M47.65,429v-2.78h-.8v-.86l.86-.06.13-1.52h1v1.52h1.43v.92H48.8V429c0,.66.23,1,.8,1a1.64,1.64,0,0,0,.59-.13l.21.85a3.52,3.52,0,0,1-1.08.2C48.08,430.88,47.65,430.11,47.65,429Z"/><path class="cls-24" d="M50.85,430.12l.54-.74A2.49,2.49,0,0,0,53,430c.66,0,1-.32,1-.74s-.62-.72-1.21-.95c-.74-.28-1.55-.67-1.55-1.6s.74-1.61,2-1.61a2.87,2.87,0,0,1,1.78.65l-.54.71a2.05,2.05,0,0,0-1.22-.48c-.61,0-.89.3-.89.68s.54.65,1.14.87c.77.29,1.62.63,1.62,1.67s-.73,1.67-2.09,1.67A3.41,3.41,0,0,1,50.85,430.12Z"/><path class="cls-24" d="M56.23,425.25h.94l.09.6h0a2.79,2.79,0,0,1,1.7-.74c1.39,0,2.17,1.11,2.17,2.8,0,1.89-1.13,3-2.37,3a2.27,2.27,0,0,1-1.45-.62l0,.94V433H56.23ZM60,427.93c0-1.15-.37-1.86-1.29-1.86a1.89,1.89,0,0,0-1.3.67v2.69a1.84,1.84,0,0,0,1.19.5C59.37,429.93,60,429.22,60,427.93Z"/><path class="cls-24" d="M62.53,425.25h.94l.09,1h0a1.9,1.9,0,0,1,1.56-1.13,1.37,1.37,0,0,1,.62.12l-.21,1a1.63,1.63,0,0,0-.55-.09c-.45,0-1,.31-1.33,1.18v3.43H62.53Z"/><path class="cls-24" d="M66.23,428a2.67,2.67,0,0,1,2.51-2.89c1.46,0,2.25,1.05,2.25,2.6a3,3,0,0,1-.06.59H67.36a1.66,1.66,0,0,0,1.7,1.68,2.34,2.34,0,0,0,1.31-.41l.4.73a3.34,3.34,0,0,1-1.86.58A2.65,2.65,0,0,1,66.23,428Zm3.76-.5c0-.94-.43-1.49-1.23-1.49a1.49,1.49,0,0,0-1.41,1.49Z"/><path class="cls-24" d="M71.88,428a2.7,2.7,0,0,1,2.72-2.89,2.36,2.36,0,0,1,1.61.63l-.57.75a1.44,1.44,0,0,0-1-.43c-.93,0-1.59.78-1.59,1.94s.64,1.94,1.55,1.94a1.88,1.88,0,0,0,1.2-.5l.48.76a2.72,2.72,0,0,1-1.79.68A2.6,2.6,0,0,1,71.88,428Z"/><path class="cls-24" d="M77.44,422.78h1.15v2.11l0,1.09a2.56,2.56,0,0,1,1.78-.87c1.17,0,1.69.78,1.69,2.18v3.46H80.86v-3.32c0-.95-.28-1.33-.93-1.33a1.84,1.84,0,0,0-1.34.75v3.9H77.44Z"/><path class="cls-24" d="M83.26,428a2.67,2.67,0,0,1,2.51-2.89c1.46,0,2.25,1.05,2.25,2.6a3,3,0,0,1-.06.59H84.39a1.66,1.66,0,0,0,1.7,1.68,2.34,2.34,0,0,0,1.31-.41l.4.73a3.34,3.34,0,0,1-1.86.58A2.65,2.65,0,0,1,83.26,428Zm3.76-.5c0-.94-.43-1.49-1.23-1.49a1.49,1.49,0,0,0-1.41,1.49Z"/><path class="cls-24" d="M89.3,425.25h.94l.09,1h0a1.9,1.9,0,0,1,1.56-1.13,1.37,1.37,0,0,1,.62.12l-.21,1a1.63,1.63,0,0,0-.55-.09c-.45,0-1,.31-1.33,1.18v3.43H89.3Z"/><path class="cls-24" d="M95.27,428c0-1.78,1.13-2.89,2.36-2.89a2.12,2.12,0,0,1,1.48.62l0-.91v-2h1.15v8h-.94l-.09-.62h0a2.31,2.31,0,0,1-1.6.75C96.16,430.88,95.27,429.83,95.27,428Zm3.79,1.26v-2.69a1.72,1.72,0,0,0-1.21-.5c-.77,0-1.39.73-1.39,1.92s.49,1.94,1.35,1.94A1.62,1.62,0,0,0,99.06,429.26Z"/><path class="cls-24" d="M101.55,428a2.67,2.67,0,0,1,2.51-2.89c1.46,0,2.25,1.05,2.25,2.6a3,3,0,0,1-.06.59h-3.57a1.66,1.66,0,0,0,1.7,1.68,2.34,2.34,0,0,0,1.31-.41l.4.73a3.34,3.34,0,0,1-1.86.58A2.65,2.65,0,0,1,101.55,428Zm3.76-.5c0-.94-.43-1.49-1.23-1.49a1.49,1.49,0,0,0-1.41,1.49Z"/><path class="cls-24" d="M107,430.12l.54-.74a2.49,2.49,0,0,0,1.56.63c.66,0,1-.32,1-.74s-.62-.72-1.21-.95c-.74-.28-1.55-.67-1.55-1.6s.74-1.61,2-1.61a2.87,2.87,0,0,1,1.78.65l-.54.71a2.05,2.05,0,0,0-1.22-.48c-.61,0-.89.3-.89.68s.54.65,1.14.87c.77.29,1.62.63,1.62,1.67s-.73,1.67-2.09,1.67A3.41,3.41,0,0,1,107,430.12Z"/><path class="cls-24" d="M13,436.38h1.91c2.26,0,3.55,1.26,3.55,3.66s-1.29,3.71-3.49,3.71H13Zm1.83,6.42c1.58,0,2.43-.93,2.43-2.76s-.85-2.71-2.43-2.71h-.67v5.47Z"/><path class="cls-24" d="M19.72,436.53a.66.66,0,0,1,.71-.68.69.69,0,1,1-.71.68Zm.14,1.72H21v5.5H19.86Z"/><path class="cls-24" d="M22.33,444.77a1.45,1.45,0,0,1,.8-1.2v-.05a1,1,0,0,1-.5-.91,1.34,1.34,0,0,1,.62-1v0a1.86,1.86,0,0,1-.73-1.47,2,2,0,0,1,2.13-2,2.29,2.29,0,0,1,.8.14H27.4v.86h-1a1.49,1.49,0,0,1,.36,1A1.88,1.88,0,0,1,24.65,442a1.91,1.91,0,0,1-.77-.17.71.71,0,0,0-.3.58c0,.33.22.54.92.54h1c1.3,0,2,.4,2,1.34s-1.12,1.92-2.88,1.92C23.29,446.22,22.33,445.73,22.33,444.77Zm4.05-.29c0-.46-.36-.6-1-.6h-.83a3.5,3.5,0,0,1-.74-.08,1,1,0,0,0-.47.8c0,.54.56.86,1.47.86S26.38,445,26.38,444.48Zm-.69-4.4a1,1,0,1,0-2.08,0,1,1,0,1,0,2.08,0Z"/><path class="cls-24" d="M28.37,436.53a.66.66,0,0,1,.71-.68.69.69,0,1,1-.71.68Zm.14,1.72h1.15v5.5H28.51Z"/><path class="cls-24" d="M31.56,442v-2.78h-.8v-.86l.86-.06.13-1.52h1v1.52h1.43v.92H32.71V442c0,.66.23,1,.8,1a1.64,1.64,0,0,0,.59-.13l.21.85a3.52,3.52,0,0,1-1.08.2C32,443.88,31.56,443.11,31.56,442Z"/><path class="cls-24" d="M35,442.29c0-1.18,1-1.79,3.29-2,0-.64-.24-1.2-1.05-1.2a3,3,0,0,0-1.59.56l-.43-.78a4.21,4.21,0,0,1,2.22-.72c1.37,0,2,.87,2,2.33v3.31h-.94l-.09-.63h0a2.73,2.73,0,0,1-1.75.76A1.52,1.52,0,0,1,35,442.29Zm3.29,0V441c-1.63.19-2.18.61-2.18,1.23s.37.76.86.76A1.94,1.94,0,0,0,38.31,442.33Z"/><path class="cls-24" d="M41.09,442.46v-6.68h1.15v6.74c0,.31.13.42.27.42l.19,0,.15.87a1.8,1.8,0,0,1-.62.09C41.4,443.88,41.09,443.35,41.09,442.46Z"/><path class="cls-24" d="M44.07,438.25H45l.09.6h0a2.79,2.79,0,0,1,1.7-.74c1.39,0,2.17,1.11,2.17,2.8,0,1.89-1.13,3-2.37,3a2.27,2.27,0,0,1-1.45-.62l0,.94V446H44.07Zm3.74,2.68c0-1.15-.37-1.86-1.29-1.86a1.89,1.89,0,0,0-1.3.67v2.69a1.84,1.84,0,0,0,1.19.5C47.21,442.93,47.81,442.22,47.81,440.93Z"/><path class="cls-24" d="M50.23,436.53a.66.66,0,0,1,.71-.68.69.69,0,1,1-.71.68Zm.14,1.72h1.15v5.5H50.37Z"/><path class="cls-24" d="M52.92,442.29c0-1.18,1-1.79,3.29-2,0-.64-.24-1.2-1.05-1.2a3,3,0,0,0-1.59.56l-.43-.78a4.21,4.21,0,0,1,2.22-.72c1.37,0,2,.87,2,2.33v3.31h-.94l-.09-.63h0a2.73,2.73,0,0,1-1.75.76A1.52,1.52,0,0,1,52.92,442.29Zm3.29,0V441c-1.63.19-2.18.61-2.18,1.23s.37.76.86.76A1.94,1.94,0,0,0,56.21,442.33Z"/><path class="cls-24" d="M59,438.25h.94L60,439h0a2.62,2.62,0,0,1,1.82-.9c1.17,0,1.69.78,1.69,2.18v3.46H62.41v-3.32c0-.95-.28-1.33-.93-1.33a1.84,1.84,0,0,0-1.34.75v3.9H59Z"/><path class="cls-24" d="M64.84,441a2.6,2.6,0,1,1,2.59,2.88A2.65,2.65,0,0,1,64.84,441Zm4,0c0-1.16-.54-1.94-1.41-1.94S66,439.84,66,441s.54,1.94,1.4,1.94S68.84,442.17,68.84,441Z"/><path class="cls-24" d="M70.79,443.12l.54-.74a2.49,2.49,0,0,0,1.56.63c.66,0,1-.32,1-.74s-.62-.72-1.21-.95c-.74-.28-1.55-.67-1.55-1.6s.74-1.61,2-1.61a2.87,2.87,0,0,1,1.78.65l-.54.71a2.05,2.05,0,0,0-1.22-.48c-.61,0-.89.3-.89.68s.54.65,1.14.87c.77.29,1.62.63,1.62,1.67s-.73,1.67-2.09,1.67A3.41,3.41,0,0,1,70.79,443.12Z"/><path class="cls-24" d="M77.82,438.25H79l.73,3c.11.54.2,1,.3,1.57h0c.12-.53.23-1,.36-1.57l.78-3h1.06l.79,3c.13.54.24,1,.37,1.57h0c.11-.53.2-1,.32-1.57l.71-3h1.08l-1.42,5.5H82.76l-.7-2.72c-.13-.52-.23-1-.35-1.59h0c-.11.57-.21,1.08-.35,1.6l-.67,2.71H79.31Z"/><path class="cls-24" d="M86.56,436.53a.66.66,0,0,1,.71-.68.69.69,0,1,1-.71.68Zm.14,1.72h1.15v5.5H86.7Z"/><path class="cls-24" d="M89.18,441a2.67,2.67,0,0,1,2.51-2.89c1.46,0,2.25,1.05,2.25,2.6a3,3,0,0,1-.06.59H90.31A1.66,1.66,0,0,0,92,443a2.34,2.34,0,0,0,1.31-.41l.4.73a3.34,3.34,0,0,1-1.86.58A2.65,2.65,0,0,1,89.18,441Zm3.76-.5c0-.94-.43-1.49-1.23-1.49a1.49,1.49,0,0,0-1.41,1.49Z"/><path class="cls-24" d="M94.85,441c0-1.78,1.13-2.89,2.36-2.89a2.12,2.12,0,0,1,1.48.62l0-.91v-2h1.15v8h-.94l-.09-.62h0a2.31,2.31,0,0,1-1.6.75C95.74,443.88,94.85,442.83,94.85,441Zm3.79,1.26v-2.69a1.72,1.72,0,0,0-1.21-.5c-.77,0-1.39.73-1.39,1.92s.49,1.94,1.35,1.94A1.62,1.62,0,0,0,98.64,442.26Z"/><path class="cls-24" d="M101.13,441a2.67,2.67,0,0,1,2.51-2.89c1.46,0,2.25,1.05,2.25,2.6a3,3,0,0,1-.06.59h-3.57A1.66,1.66,0,0,0,104,443a2.34,2.34,0,0,0,1.31-.41l.4.73a3.34,3.34,0,0,1-1.86.58A2.65,2.65,0,0,1,101.13,441Zm3.76-.5c0-.94-.43-1.49-1.23-1.49a1.49,1.49,0,0,0-1.41,1.49Z"/><path class="cls-24" d="M107.17,438.25h.94l.09,1h0a1.9,1.9,0,0,1,1.56-1.13,1.37,1.37,0,0,1,.62.12l-.21,1a1.63,1.63,0,0,0-.55-.09c-.45,0-1,.31-1.33,1.18v3.43h-1.15Z"/><path class="cls-24" d="M110.76,443.13l2.72-4h-2.42v-.92h3.86v.61l-2.71,4H115v.92h-4.25Z"/><path class="cls-24" d="M116.09,441.71v-3.46h1.15v3.32c0,.94.27,1.32.92,1.32s.86-.24,1.32-.82v-3.82h1.15v5.5h-.94l-.09-.83h0a2.3,2.3,0,0,1-1.79,1C116.6,443.88,116.09,443.11,116.09,441.71Z"/><path class="cls-24" d="M122,444.77a1.45,1.45,0,0,1,.8-1.2v-.05a1,1,0,0,1-.5-.91,1.34,1.34,0,0,1,.62-1v0a1.86,1.86,0,0,1-.73-1.47,2,2,0,0,1,2.13-2,2.29,2.29,0,0,1,.8.14h2v.86h-1a1.49,1.49,0,0,1,.36,1,1.88,1.88,0,0,1-2.06,1.89,1.91,1.91,0,0,1-.77-.17.71.71,0,0,0-.3.58c0,.33.22.54.92.54h1c1.3,0,2,.4,2,1.34s-1.12,1.92-2.88,1.92C122.92,446.22,122,445.73,122,444.77Zm4.05-.29c0-.46-.36-.6-1-.6h-.83a3.5,3.5,0,0,1-.74-.08,1,1,0,0,0-.47.8c0,.54.56.86,1.47.86S126,445,126,444.48Zm-.69-4.4a1,1,0,1,0-2.08,0,1,1,0,1,0,2.08,0Z"/><path class="cls-24" d="M127.75,441a2.67,2.67,0,0,1,2.51-2.89c1.46,0,2.25,1.05,2.25,2.6a3,3,0,0,1-.06.59h-3.57a1.66,1.66,0,0,0,1.7,1.68,2.34,2.34,0,0,0,1.31-.41l.4.73a3.34,3.34,0,0,1-1.86.58A2.65,2.65,0,0,1,127.75,441Zm3.76-.5c0-.94-.43-1.49-1.23-1.49a1.49,1.49,0,0,0-1.41,1.49Z"/><path class="cls-24" d="M134.83,443.18h0l-.11.57h-.9v-8h1.15v2.11l0,.94a2.63,2.63,0,0,1,1.64-.72c1.39,0,2.18,1.11,2.18,2.8,0,1.89-1.13,3-2.37,3A2.33,2.33,0,0,1,134.83,443.18Zm2.7-2.25c0-1.15-.37-1.86-1.29-1.86a1.88,1.88,0,0,0-1.3.67v2.69a1.82,1.82,0,0,0,1.19.5C136.93,442.93,137.53,442.22,137.53,440.93Z"/><path class="cls-24" d="M139.69,441a2.67,2.67,0,0,1,2.51-2.89c1.46,0,2.25,1.05,2.25,2.6a3,3,0,0,1-.06.59h-3.57a1.66,1.66,0,0,0,1.7,1.68,2.34,2.34,0,0,0,1.31-.41l.4.73a3.34,3.34,0,0,1-1.86.58A2.65,2.65,0,0,1,139.69,441Zm3.76-.5c0-.94-.43-1.49-1.23-1.49a1.49,1.49,0,0,0-1.41,1.49Z"/><path class="cls-24" d="M145.73,438.25h.94l.09.76h0a2.62,2.62,0,0,1,1.82-.9c1.17,0,1.69.78,1.69,2.18v3.46h-1.15v-3.32c0-.95-.28-1.33-.93-1.33a1.84,1.84,0,0,0-1.34.75v3.9h-1.15Z"/><path class="cls-24" d="M151.82,443.08a.77.77,0,1,1,1.54,0,.77.77,0,1,1-1.54,0Z"/></svg>