<svg id="レイヤー_1" data-name="レイヤー 1" xmlns="http://www.w3.org/2000/svg" width="32.58mm" height="31.37mm" viewBox="0 0 92.36 88.91"><defs><style>.cls-1,.cls-2{fill:#dbdbdb;stroke:#000;}.cls-1,.cls-10,.cls-11,.cls-14,.cls-15,.cls-16,.cls-17,.cls-5,.cls-7,.cls-8,.cls-9{stroke-width:0.18px;}.cls-2{stroke-width:0.22px;}.cls-3{fill:#666;}.cls-4{fill:#8a8a8a;}.cls-16,.cls-17,.cls-18,.cls-4,.cls-5,.cls-7{stroke:#040000;}.cls-10,.cls-13,.cls-14,.cls-15,.cls-16,.cls-17,.cls-18,.cls-4,.cls-5,.cls-7,.cls-8{stroke-linecap:round;}.cls-10,.cls-11,.cls-12,.cls-13,.cls-14,.cls-15,.cls-16,.cls-17,.cls-18,.cls-4,.cls-5,.cls-7,.cls-8{stroke-linejoin:round;}.cls-12,.cls-13,.cls-18,.cls-4{stroke-width:0.09px;}.cls-14,.cls-24,.cls-5,.cls-8,.cls-9{fill:#fff;}.cls-13,.cls-16,.cls-18,.cls-19,.cls-20,.cls-23,.cls-6{fill:none;}.cls-7{fill:#b5b5b6;}.cls-10,.cls-11,.cls-8,.cls-9{stroke:#231815;}.cls-19,.cls-20,.cls-9{stroke-miterlimit:10;}.cls-10,.cls-11,.cls-12,.cls-21{fill:#231815;}.cls-12,.cls-13{stroke:#fff;}.cls-14,.cls-15,.cls-19,.cls-20,.cls-23{stroke:#4d4d4d;}.cls-15,.cls-17{fill:#999;}.cls-19,.cls-20,.cls-23{stroke-width:0.36px;}.cls-20{stroke-dasharray:0.18 0.36;}.cls-22{fill:#595757;}.cls-23{stroke-dasharray:0.18 0.36;}</style></defs><path class="cls-1" d="M49.38,88.81H72.74A2.08,2.08,0,0,0,74.46,87H90.72a1.71,1.71,0,0,0,1.46-1.49l-.05-7.24a1.57,1.57,0,0,0-1.55-1.64l-14.5-1.39c0-.53-.59-1.58-1.43-1.65l-1,0v-.25L57.49,71l0-1.83-.13-5H38.76l.08,5.19V78.7c0,8.65,8,10.12,10.79,10.12" transform="translate(-0.68)"/><path class="cls-2" d="M38.79,78.94" transform="translate(-0.68)"/><path class="cls-2" d="M57,72.16c-1.8,3.43-4.09,3.92-4.09,3.92" transform="translate(-0.68)"/><path class="cls-1" d="M72.9,75.35c-2.05,2.85-2.2,9.55-.57,11.84" transform="translate(-0.68)"/><path class="cls-1" d="M75.76,75.59c-2.05,2.86-2.45,8.82-1.63,10.46" transform="translate(-0.68)"/><ellipse class="cls-3" cx="91.48" cy="82.14" rx="4.95" ry="1.54" transform="translate(3.26 168.46) rotate(-86.52)"/><ellipse class="cls-4" cx="47.39" cy="64.19" rx="9.31" ry="4.76"/><path class="cls-5" d="M55,53.05c0-1.94-3.09-3.51-6.91-3.51s-6.91,1.57-6.91,3.51l-.06,5.5V64c0,2,3.11,3.6,6.94,3.6S55,66,55,64v-11Z" transform="translate(-0.68)"/><path class="cls-6" d="M44.32,47.94" transform="translate(-0.68)"/><ellipse class="cls-7" cx="47.42" cy="52.84" rx="5.99" ry="2.72"/><polyline class="cls-8" points="49.98 53.24 49.89 51.5 50.95 51.62 51.09 53.6"/><rect class="cls-9" x="50.57" y="51.34" width="1.07" height="0.36" rx="0.13" transform="translate(10.48 -9.07) rotate(11.37)"/><polyline class="cls-8" points="49.7 55.3 49.61 53.41 50.67 53.53 50.81 54.93"/><rect class="cls-9" x="50.29" y="53.25" width="1.07" height="0.36" rx="0.13" transform="translate(10.86 -8.97) rotate(11.37)"/><polyline class="cls-8" points="42.66 54.34 42.57 51.51 43.63 51.63 43.77 54.98"/><rect class="cls-9" x="43.25" y="51.36" width="1.07" height="0.36" rx="0.13" transform="translate(10.34 -7.62) rotate(11.37)"/><polyline class="cls-8" points="44.9 53.3 44.8 50.76 45.87 50.88 46.01 53.15"/><rect class="cls-9" x="45.49" y="50.61" width="1.07" height="0.36" rx="0.13" transform="translate(10.24 -8.08) rotate(11.37)"/><polyline class="cls-8" points="44.3 55.03 44.21 53.25 45.28 53.37 45.41 55.29"/><rect class="cls-9" x="44.89" y="53.09" width="1.07" height="0.36" rx="0.13" transform="translate(10.72 -7.91) rotate(11.37)"/><polygon class="cls-10" points="47.03 52.55 47.58 52.63 48.25 51.59 47.73 51.54 47.03 52.55"/><polyline class="cls-11" points="47.03 55.46 47.03 52.55 48.25 51.59 48.25 55.53"/><line class="cls-12" x1="47.6" y1="55.17" x2="47.6" y2="52.73"/><polyline class="cls-13" points="47.03 52.55 47.58 52.63 48.25 51.59"/><g id="CIRCLE"><circle class="cls-14" cx="48.39" cy="9.38" r="9.29"/></g><g id="CIRCLE-2" data-name="CIRCLE"><circle class="cls-15" cx="48.39" cy="9.38" r="8.33"/></g><g id="ARC"><path class="cls-16" d="M55.91,7.69A7,7,0,0,0,42,9.36" transform="translate(-0.68)"/></g><g id="ARC-2" data-name="ARC"><path class="cls-14" d="M55.91,7.72a7,7,0,1,0,0,3.33" transform="translate(-0.68)"/></g><polyline class="cls-15" points="55.31 11.2 52.53 11.2 52.53 7.61 55.31 7.61"/><path class="cls-17" d="M56,11.2" transform="translate(-0.68)"/><path class="cls-17" d="M56,7.61" transform="translate(-0.68)"/><g id="LINE"><line class="cls-18" x1="41.21" y1="9.4" x2="41.21" y2="9.43"/></g><path d="M44,8.91c-1,.06-1.78.23-1.78.43s.75.37,1.77.42a.87.87,0,0,0,1.56,0c1,0,1.75-.22,1.75-.42s-.74-.37-1.77-.42a.85.85,0,0,0-.76-.47.89.89,0,0,0-.77.46" transform="translate(-0.68)"/><path d="M50.38,4.89c-1,.06-1.78.23-1.78.43s.75.36,1.77.42a.87.87,0,0,0,1.56,0c1-.06,1.75-.22,1.75-.42s-.74-.37-1.77-.43a.86.86,0,0,0-.76-.46.89.89,0,0,0-.77.46" transform="translate(-0.68)"/><path d="M45.73,5.55c-.69.77-1.1,1.42-1,1.57s.79-.27,1.55-1A.89.89,0,0,0,47.21,6a.87.87,0,0,0,.21-.89c.68-.76,1.09-1.4.95-1.54s-.79.27-1.56.95a.86.86,0,0,0-1.08,1.08" transform="translate(-0.68)"/><path d="M49.46,8.6c-.06-1-.23-1.78-.43-1.78s-.36.74-.42,1.77a.88.88,0,0,0-.48.78.9.9,0,0,0,.48.78c.06,1,.22,1.75.42,1.75s.37-.74.43-1.77a.87.87,0,0,0,.46-.76.89.89,0,0,0-.46-.77" transform="translate(-0.68)"/><path d="M50.38,13.81a.89.89,0,0,0,.77.46.85.85,0,0,0,.76-.47c1-.06,1.77-.22,1.77-.42S53,13,51.93,13a.88.88,0,0,0-1.56,0c-1,.06-1.77.23-1.77.43s.75.37,1.78.43" transform="translate(-0.68)"/><path d="M45.73,13.14A.89.89,0,0,0,46,14a.84.84,0,0,0,.86.21c.77.69,1.41,1.09,1.56.95s-.27-.78-.95-1.54a.87.87,0,0,0-.21-.89.89.89,0,0,0-.89-.21c-.76-.68-1.41-1.09-1.55-.95s.27.79,1,1.56" transform="translate(-0.68)"/><line class="cls-19" x1="48.26" y1="51.37" x2="48.26" y2="51.28"/><line class="cls-20" x1="48.26" y1="50.91" x2="48.26" y2="12.79"/><line class="cls-19" x1="48.26" y1="12.6" x2="48.26" y2="12.51"/><path class="cls-21" d="M10.58,71.73l.47-.56a2,2,0,0,0,1.38.61c.62,0,1-.3,1-.73s-.35-.62-.83-.83l-.71-.31a1.48,1.48,0,0,1-1-1.35,1.53,1.53,0,0,1,1.69-1.42,2.18,2.18,0,0,1,1.56.65l-.42.52a1.63,1.63,0,0,0-1.14-.46c-.52,0-.87.25-.87.66s.42.61.84.78l.71.3A1.45,1.45,0,0,1,14.23,71a1.61,1.61,0,0,1-1.82,1.5A2.54,2.54,0,0,1,10.58,71.73Z" transform="translate(-0.68)"/><path class="cls-21" d="M15.25,71.13V69.19h-.56v-.61l.6,0,.1-1.06h.67v1.06h1v.65h-1v2c0,.46.16.7.56.7a1.12,1.12,0,0,0,.41-.09l.15.6a2.51,2.51,0,0,1-.76.14C15.55,72.49,15.25,72,15.25,71.13Z" transform="translate(-0.68)"/><path class="cls-21" d="M17.63,70.47a1.87,1.87,0,0,1,1.75-2c1,0,1.58.74,1.58,1.82a2.21,2.21,0,0,1,0,.42h-2.5a1.16,1.16,0,0,0,1.19,1.18,1.67,1.67,0,0,0,.92-.29l.28.51a2.34,2.34,0,0,1-1.31.41A1.85,1.85,0,0,1,17.63,70.47Zm2.63-.35c0-.66-.3-1.05-.86-1.05a1.05,1.05,0,0,0-1,1.05Z" transform="translate(-0.68)"/><path class="cls-21" d="M21.58,70.47a1.9,1.9,0,0,1,1.91-2,1.62,1.62,0,0,1,1.12.45l-.4.52a1,1,0,0,0-.68-.3c-.65,0-1.12.55-1.12,1.36s.45,1.36,1.09,1.36a1.35,1.35,0,0,0,.84-.35l.34.53a2,2,0,0,1-1.26.48A1.83,1.83,0,0,1,21.58,70.47Z" transform="translate(-0.68)"/><path class="cls-21" d="M25.47,66.81h.79v3.6h0l1.49-1.87h.9l-1.3,1.57,1.45,2.28H28l-1-1.74-.65.74v1h-.79Z" transform="translate(-0.68)"/><path class="cls-21" d="M29.23,70.47a1.87,1.87,0,0,1,1.75-2c1,0,1.58.74,1.58,1.82a2.21,2.21,0,0,1,0,.42H30a1.16,1.16,0,0,0,1.19,1.18,1.64,1.64,0,0,0,.91-.29l.28.51a2.28,2.28,0,0,1-1.3.41A1.85,1.85,0,0,1,29.23,70.47Zm2.63-.35c0-.66-.3-1.05-.86-1.05a1.05,1.05,0,0,0-1,1.05Z" transform="translate(-0.68)"/><path class="cls-21" d="M33.45,68.54h.66l.06.7h0a1.33,1.33,0,0,1,1.09-.8.89.89,0,0,1,.43.09l-.14.7a1.27,1.27,0,0,0-.39-.06c-.31,0-.69.21-.93.82v2.4h-.81Z" transform="translate(-0.68)"/><path class="cls-21" d="M.68,4.65h1.6C3.33,4.65,4.1,5,4.1,5.93A1.15,1.15,0,0,1,3.36,7v0a1.19,1.19,0,0,1,1,1.23c0,1-.84,1.51-2,1.51H.68ZM2.19,6.81C3,6.81,3.3,6.51,3.3,6s-.37-.74-1.09-.74H1.49V6.81Zm.12,2.37c.81,0,1.27-.29,1.27-.92s-.45-.84-1.27-.84H1.49V9.18Z" transform="translate(-0.68)"/><path class="cls-21" d="M5.23,8.38V6H6V8.29c0,.65.19.92.65.92s.6-.17.92-.57V6h.81V9.81H7.75l-.06-.58h0a1.6,1.6,0,0,1-1.26.67C5.59,9.9,5.23,9.36,5.23,8.38Z" transform="translate(-0.68)"/><path class="cls-21" d="M9.35,7.89a1.89,1.89,0,0,1,1.9-2,1.68,1.68,0,0,1,1.13.44l-.4.53a1,1,0,0,0-.69-.3c-.65,0-1.11.54-1.11,1.36s.45,1.36,1.08,1.36a1.33,1.33,0,0,0,.84-.35l.34.53a1.93,1.93,0,0,1-1.25.47A1.81,1.81,0,0,1,9.35,7.89Z" transform="translate(-0.68)"/><path class="cls-21" d="M13.24,4.23H14V5.71l0,.76a1.78,1.78,0,0,1,1.24-.61c.82,0,1.19.55,1.19,1.53V9.81h-.81V7.49c0-.67-.19-.93-.65-.93a1.3,1.3,0,0,0-.94.52V9.81h-.8Z" transform="translate(-0.68)"/><path class="cls-21" d="M17.18,9.37l.38-.52a1.72,1.72,0,0,0,1.09.44c.46,0,.68-.22.68-.51s-.44-.51-.85-.67S17.4,7.64,17.4,7s.51-1.13,1.37-1.13A2,2,0,0,1,20,6.32l-.37.5a1.43,1.43,0,0,0-.86-.34c-.43,0-.62.21-.62.48s.38.45.8.6,1.13.45,1.13,1.17S19.58,9.9,18.63,9.9A2.38,2.38,0,0,1,17.18,9.37Z" transform="translate(-0.68)"/><path class="cls-21" d="M20.67,7.89a1.88,1.88,0,0,1,1.76-2c1,0,1.57.74,1.57,1.82a2.3,2.3,0,0,1,0,.42h-2.5a1.16,1.16,0,0,0,1.19,1.17A1.64,1.64,0,0,0,23.57,9l.28.51a2.33,2.33,0,0,1-1.3.4A1.85,1.85,0,0,1,20.67,7.89Zm2.63-.35c0-.66-.3-1-.86-1a1,1,0,0,0-1,1Z" transform="translate(-0.68)"/><path class="cls-22" d="M45,29.49c-2.24,2.16-3.32,6.09.68,11.53l-3.54-.36c-2.54-1.81-4-7.26-1.76-11.8l-3.59-.75,9.18-2.25,1.76,3.85Z" transform="translate(-0.68)"/><polyline class="cls-23" points="40.63 9.76 36.1 9.76 22.77 31.08 34.96 51.6 41.69 51.6"/><polyline class="cls-23" points="43.17 5.45 26.89 5.45 11.48 31.48 25.57 54.82 44.54 54.82"/><polyline class="cls-23" points="44.76 49.54 33.99 31.42 45.77 12.58"/><polyline class="cls-23" points="51.25 50.42 62.02 32.29 50.25 13.46"/><polyline class="cls-23" points="52.31 5.44 68.59 5.44 83.99 31.47 69.91 54.81 50.94 54.81"/><circle class="cls-24" cx="60.81" cy="31.67" r="2.94"/><path class="cls-21" d="M61.59,34.35a2.74,2.74,0,1,1,2.74-2.73A2.73,2.73,0,0,1,61.59,34.35ZM59,31.62a2.55,2.55,0,1,0,2.55-2.56A2.55,2.55,0,0,0,59,31.62Zm2.42-1.16h0l-.51.27-.07-.31.61-.32h.36v3h-.39Z" transform="translate(-0.68)"/><circle class="cls-24" cx="23.51" cy="31.86" r="2.94"/><path class="cls-21" d="M24.21,34.55a2.74,2.74,0,1,1,2.73-2.74A2.73,2.73,0,0,1,24.21,34.55Zm-2.55-2.74a2.55,2.55,0,1,0,2.55-2.55A2.55,2.55,0,0,0,21.66,31.81Zm2.79,1.52v-.8H22.89v-.26l1.55-2h.39v1.92h.46v.31h-.46v.8Zm0-1.11V31.06c0-.1,0-.26,0-.37h0c-.07.12-.14.24-.22.35l-1,1.17h1.19Z" transform="translate(-0.68)"/><circle class="cls-24" cx="34.85" cy="31.68" r="2.94"/><path class="cls-21" d="M35.56,34.37a2.74,2.74,0,1,1,2.73-2.74A2.74,2.74,0,0,1,35.56,34.37ZM33,31.63a2.56,2.56,0,1,0,2.56-2.55A2.55,2.55,0,0,0,33,31.63Zm3.48-1.15H35.25l-.11.77a1.17,1.17,0,0,1,.29,0c.59,0,1.12.31,1.12.93a1.05,1.05,0,0,1-1.15,1,1.57,1.57,0,0,1-.81-.2l.1-.3a1.49,1.49,0,0,0,.71.18.7.7,0,0,0,.75-.63c0-.39-.25-.68-.9-.68a3.08,3.08,0,0,0-.48,0L35,30.15h1.53Z" transform="translate(-0.68)"/><circle class="cls-24" cx="48.31" cy="31.98" r="2.94"/><path class="cls-21" d="M49,34.67a2.74,2.74,0,1,1,2.74-2.74A2.74,2.74,0,0,1,49,34.67Zm-2.55-2.74A2.55,2.55,0,1,0,49,29.38,2.55,2.55,0,0,0,46.46,31.93Zm3.32-1.19h-.1l-.28,0a1.16,1.16,0,0,0-1.07,1.06h0a1,1,0,0,1,.81-.35.91.91,0,0,1,1,.93A1.08,1.08,0,0,1,49,33.46c-.59,0-1.06-.41-1.06-1.27a1.63,1.63,0,0,1,1.42-1.76l.44,0Zm-.07,1.66a.65.65,0,0,0-.66-.66c-.36,0-.75.23-.75.54s.13.89.73.89A.72.72,0,0,0,49.71,32.4Z" transform="translate(-0.68)"/><circle class="cls-24" cx="82.93" cy="31.26" r="2.94"/><path class="cls-21" d="M83.63,34a2.73,2.73,0,1,1,2.73-2.73A2.73,2.73,0,0,1,83.63,34Zm-2.55-2.73a2.55,2.55,0,1,0,2.55-2.55A2.55,2.55,0,0,0,81.08,31.22ZM82.6,32.7v-.25l.33-.29c1-.85,1.25-1.14,1.25-1.53a.59.59,0,0,0-.67-.61,1.17,1.17,0,0,0-.71.28L82.68,30a1.44,1.44,0,0,1,.92-.33.88.88,0,0,1,1,.87c0,.57-.41.94-1.21,1.63l-.21.17h1.5v.33Z" transform="translate(-0.68)"/><circle class="cls-24" cx="12.41" cy="31.77" r="2.94"/><path class="cls-21" d="M13.12,34.46a2.74,2.74,0,1,1,2.73-2.73A2.74,2.74,0,0,1,13.12,34.46Zm-2.55-2.73a2.55,2.55,0,1,0,2.55-2.55A2.55,2.55,0,0,0,10.57,31.73Zm1.65,1a1.56,1.56,0,0,0,.73.2c.63,0,.75-.39.75-.56,0-.48-.5-.6-.88-.6h-.24v-.31h.25c.36,0,.75-.14.75-.49,0-.2-.13-.44-.58-.44a1.23,1.23,0,0,0-.66.2l-.11-.28a1.5,1.5,0,0,1,.84-.25c.67,0,.92.38.92.71a.75.75,0,0,1-.59.69h0a.81.81,0,0,1,.72.76c0,.43-.37.89-1.17.89a1.54,1.54,0,0,1-.84-.23Z" transform="translate(-0.68)"/></svg>