<svg id="レイヤー_1" data-name="レイヤー 1" xmlns="http://www.w3.org/2000/svg" width="21.11mm" height="33.27mm" viewBox="0 0 59.83 94.32"><defs><style>.cls-1{fill:#1b1b1b;}.cls-2{fill:#231815;}.cls-3{fill:#070001;}.cls-4{fill:none;stroke-width:0.5px;}.cls-4,.cls-5{stroke:#040000;stroke-linecap:round;stroke-linejoin:round;}.cls-5{fill:#949494;stroke-width:0.25px;}</style></defs><polygon class="cls-1" points="53.52 33.41 46.08 33.41 46.08 21.72 42.71 21.72 49.8 14.63 56.88 21.72 53.52 21.72 53.52 33.41"/><polygon class="cls-1" points="46.07 72.79 53.51 72.79 53.51 84.48 56.88 84.48 49.79 91.57 42.71 84.48 46.07 84.48 46.07 72.79"/><path class="cls-2" d="M40.39,42.28V37.61h.8v4.72c0,.21.09.29.19.29h.13l.11.61a1.44,1.44,0,0,1-.44.06C40.6,43.28,40.39,42.91,40.39,42.28Z"/><path class="cls-2" d="M42.25,42.17c0-.83.7-1.26,2.3-1.43,0-.45-.17-.84-.73-.84a2.13,2.13,0,0,0-1.12.39l-.3-.55a3,3,0,0,1,1.56-.5c1,0,1.4.61,1.4,1.63v2.32H44.7l-.06-.44h0a1.91,1.91,0,0,1-1.23.53A1.06,1.06,0,0,1,42.25,42.17Zm2.3,0v-.94c-1.14.13-1.52.43-1.52.86s.25.53.6.53A1.34,1.34,0,0,0,44.55,42.19Z"/><path class="cls-2" d="M46.45,41.76V39.34h.8v2.32c0,.66.19.93.65.93s.6-.17.92-.58V39.34h.81v3.85H49l-.06-.58h0a1.63,1.63,0,0,1-1.26.67C46.81,43.28,46.45,42.74,46.45,41.76Z"/><path class="cls-2" d="M51,41.93V40H50.4v-.6l.61,0,.09-1.07h.67v1.07h1V40h-1v2c0,.47.16.71.56.71a1.12,1.12,0,0,0,.41-.1l.15.6a2.51,2.51,0,0,1-.76.14C51.26,43.28,51,42.74,51,41.93Z"/><path class="cls-2" d="M53.34,41.26a1.87,1.87,0,0,1,1.75-2c1,0,1.58.73,1.58,1.82a2.18,2.18,0,0,1,0,.41h-2.5a1.16,1.16,0,0,0,1.19,1.18,1.61,1.61,0,0,0,.91-.29l.28.51a2.28,2.28,0,0,1-1.3.41A1.85,1.85,0,0,1,53.34,41.26ZM56,40.91c0-.66-.3-1-.86-1a1,1,0,0,0-1,1Z"/><path class="cls-2" d="M57.56,39.34h.66l.07.69h0a1.32,1.32,0,0,1,1.09-.79,1,1,0,0,1,.43.08l-.14.7A1.27,1.27,0,0,0,59.3,40c-.31,0-.69.22-.93.83v2.4h-.81Z"/><path class="cls-2" d="M41.92,67V62.3h.81V67c0,.21.09.29.19.29l.13,0,.11.61a1.14,1.14,0,0,1-.44.07C42.14,68,41.92,67.61,41.92,67Z"/><path class="cls-2" d="M43.74,66a1.86,1.86,0,0,1,1.75-2c1,0,1.58.73,1.58,1.82a2.18,2.18,0,0,1,0,.41h-2.5a1.16,1.16,0,0,0,1.19,1.18,1.67,1.67,0,0,0,.92-.29l.28.51a2.34,2.34,0,0,1-1.31.41A1.85,1.85,0,0,1,43.74,66Zm2.63-.35c0-.66-.3-1-.86-1a1,1,0,0,0-1,1Z"/><path class="cls-2" d="M47.87,62.83a.46.46,0,0,1,.49-.48.48.48,0,1,1,0,1A.46.46,0,0,1,47.87,62.83ZM48,64h.8v3.86H48Z"/><path class="cls-2" d="M49.57,67.44l.38-.51a1.77,1.77,0,0,0,1.09.44c.46,0,.68-.23.68-.52s-.44-.5-.85-.67-1.09-.47-1.09-1.12.52-1.12,1.38-1.12a2,2,0,0,1,1.24.45l-.37.5a1.43,1.43,0,0,0-.86-.34c-.43,0-.62.21-.62.48s.38.45.8.61,1.13.44,1.13,1.17S52,68,51,68A2.37,2.37,0,0,1,49.57,67.44Z"/><path class="cls-2" d="M53.06,66a1.87,1.87,0,0,1,1.76-2c1,0,1.57.73,1.57,1.82a2.18,2.18,0,0,1,0,.41h-2.5A1.17,1.17,0,0,0,55,67.35a1.65,1.65,0,0,0,.92-.29l.28.51a2.33,2.33,0,0,1-1.3.41A1.86,1.86,0,0,1,53.06,66Zm2.63-.35c0-.66-.3-1-.86-1a1,1,0,0,0-1,1Z"/><path class="cls-2" d="M57.29,64H58l.06.7h0a1.33,1.33,0,0,1,1.09-.79.94.94,0,0,1,.44.08l-.15.7a1.16,1.16,0,0,0-.38-.06c-.32,0-.7.21-.93.82v2.41h-.81Z"/><path class="cls-3" d="M7.79,5.75l-.08,0-2-1.07H5A.18.18,0,0,1,5,4.3h.78a.11.11,0,0,1,.08,0l1.8,1V.47L5.22,1.75l-.08,0H3.69V4.48a.18.18,0,0,1-.36,0V1.59a.18.18,0,0,1,.18-.18H5.09L7.71,0a.17.17,0,0,1,.18,0A.16.16,0,0,1,8,.18V5.57a.19.19,0,0,1-.08.16Z"/><path class="cls-3" d="M9.38,4.67l-.08,0a.19.19,0,0,1-.08-.24,3.29,3.29,0,0,0,0-3.07A.19.19,0,0,1,9.3,1.1a.17.17,0,0,1,.23.08,3.56,3.56,0,0,1,0,3.39A.18.18,0,0,1,9.38,4.67Z"/><path class="cls-3" d="M10.81,5.64l-.08,0a.19.19,0,0,1-.08-.24,5.3,5.3,0,0,0,0-5,.19.19,0,0,1,.08-.24A.19.19,0,0,1,11,.21a5.71,5.71,0,0,1,0,5.33A.2.2,0,0,1,10.81,5.64Z"/><path class="cls-3" d="M21,80a1.12,1.12,0,1,1,1.11-1.12A1.12,1.12,0,0,1,21,80Zm0-1.88a.76.76,0,0,0-.76.76.76.76,0,1,0,1.52,0A.76.76,0,0,0,21,78.07Z"/><circle class="cls-3" cx="21.01" cy="70.91" r="0.72"/><circle class="cls-3" cx="21.01" cy="62.98" r="0.72"/><circle class="cls-3" cx="21.01" cy="55.05" r="0.72"/><circle class="cls-3" cx="21.01" cy="47.12" r="0.72"/><circle class="cls-3" cx="21.01" cy="39.19" r="0.72"/><path class="cls-3" d="M21,32.38a1.12,1.12,0,1,1,1.11-1.11A1.12,1.12,0,0,1,21,32.38Zm0-1.87a.76.76,0,1,0,.76.76A.76.76,0,0,0,21,30.51Z"/><path class="cls-3" d="M22.32,17.26H19.69a.18.18,0,0,1-.18-.19.18.18,0,0,1,.18-.18h2.63a.19.19,0,1,1,0,.37Z"/><path class="cls-3" d="M21,18.57a.19.19,0,0,1-.19-.18V15.76a.2.2,0,0,1,.19-.19.19.19,0,0,1,.18.19v2.63A.18.18,0,0,1,21,18.57Z"/><path class="cls-3" d="M22.32,93.19H19.69a.18.18,0,0,1-.18-.18.18.18,0,0,1,.18-.19h2.63a.19.19,0,1,1,0,.37Z"/><path class="cls-4" d="M8.55,88.53"/><path class="cls-4" d="M1.82,69"/><path class="cls-4" d="M2.28,70.06"/><path class="cls-4" d="M8.55,70.06"/><polyline class="cls-4" points="8.34 70.06 8.23 69.18 7.82 68.34 7.14 67.72 6.36 67.3 5.42 67.14 4.53 67.3 3.69 67.72 3.07 68.34 2.65 69.18 2.49 70.06"/><polyline class="cls-4" points="2.29 70.06 2.44 69.13 2.91 68.24 3.59 67.56 4.48 67.09 5.42 66.93 6.41 67.09 7.24 67.56 7.97 68.24 8.39 69.13 8.55 70.06"/><line class="cls-4" x1="8.55" y1="70.06" x2="8.55" y2="78.93"/><polyline class="cls-4" points="8.55 70.06 8.55 70.06 8.49 70.06 8.44 70.06 8.39 70.06 8.34 70.06"/><line class="cls-4" x1="8.34" y1="78.93" x2="8.34" y2="70.06"/><line class="cls-4" x1="2.28" y1="88.53" x2="2.28" y2="79.66"/><line class="cls-4" x1="2.49" y1="79.66" x2="2.49" y2="88.53"/><line class="cls-4" x1="2.49" y1="70.06" x2="2.49" y2="78.93"/><polyline class="cls-4" points="2.29 70.06 2.34 70.06 2.39 70.06 2.44 70.06 2.49 70.06"/><line class="cls-4" x1="2.28" y1="78.93" x2="2.28" y2="70.06"/><polyline class="cls-4" points="2.49 88.53 2.49 88.53 2.44 88.53 2.39 88.53 2.34 88.53 2.29 88.53"/><polyline class="cls-4" points="8.55 88.53 8.39 89.53 7.97 90.41 7.24 91.09 6.41 91.51 5.42 91.67 4.48 91.51 3.59 91.09 2.91 90.41 2.44 89.53 2.29 88.53"/><polyline class="cls-4" points="2.49 88.53 2.65 89.47 3.07 90.26 3.69 90.94 4.53 91.35 5.42 91.46 6.36 91.35 7.14 90.94 7.82 90.26 8.23 89.47 8.34 88.53"/><polyline class="cls-4" points="8.34 88.53 8.39 88.53 8.44 88.53 8.49 88.53 8.55 88.53"/><line class="cls-4" x1="8.55" y1="79.66" x2="8.55" y2="88.53"/><line class="cls-4" x1="8.34" y1="88.53" x2="8.34" y2="79.66"/><line class="cls-4" x1="8.34" y1="79.66" x2="2.55" y2="79.66"/><polyline class="cls-4" points="8.55 79.25 8.55 79.19 8.55 79.14 8.49 79.09 8.49 79.04 8.44 79.04 8.39 78.99 8.34 78.99"/><polyline class="cls-4" points="2.29 79.25 2.34 79.19 2.34 79.14 2.34 79.09 2.39 79.04 2.44 78.99 2.49 78.99 2.55 78.99"/><polyline class="cls-4" points="2.55 79.35 2.55 79.4 2.55 79.46 2.55 79.51 2.55 79.56 2.55 79.61 2.55 79.66"/><line class="cls-4" x1="2.55" y1="79.35" x2="8.34" y2="79.35"/><polyline class="cls-4" points="2.55 78.99 2.55 78.99 2.55 79.04 2.55 79.09 2.55 79.14 2.55 79.19 2.55 79.25"/><line class="cls-4" x1="8.34" y1="79.25" x2="2.55" y2="79.25"/><polyline class="cls-4" points="8.34 78.99 8.34 78.99 8.34 79.04 8.34 79.09 8.34 79.14 8.34 79.19 8.34 79.25"/><line class="cls-4" x1="2.55" y1="78.99" x2="8.34" y2="78.99"/><polyline class="cls-4" points="8.34 79.35 8.34 79.4 8.34 79.46 8.34 79.51 8.34 79.56 8.34 79.61 8.34 79.66"/><polyline class="cls-4" points="8.55 79.35 8.55 79.4 8.55 79.46 8.49 79.51 8.49 79.56 8.44 79.61 8.39 79.61 8.39 79.66 8.34 79.66"/><polyline class="cls-4" points="2.55 79.25 2.49 79.25 2.44 79.25 2.39 79.25 2.34 79.25 2.29 79.25"/><line class="cls-4" x1="2.28" y1="79.35" x2="2.28" y2="79.25"/><polyline class="cls-4" points="2.55 79.35 2.49 79.35 2.44 79.35 2.39 79.35 2.34 79.35 2.29 79.35"/><line class="cls-4" x1="2.55" y1="79.25" x2="2.55" y2="79.35"/><polyline class="cls-4" points="8.55 79.25 8.55 79.25 8.49 79.25 8.44 79.25 8.39 79.25 8.34 79.25"/><line class="cls-4" x1="8.34" y1="79.35" x2="8.34" y2="79.25"/><polyline class="cls-4" points="8.55 79.35 8.55 79.35 8.49 79.35 8.44 79.35 8.39 79.35 8.34 79.35"/><line class="cls-4" x1="8.55" y1="79.25" x2="8.55" y2="79.35"/><path class="cls-4" d="M3.43,66.52"/><path class="cls-4" d="M7.4,66.52"/><polyline class="cls-4" points="10.63 88.9 10.48 90.15 10.01 91.35 9.33 92.34 8.39 93.18 7.24 93.75 6.04 94.06 4.79 94.06 3.59 93.75 2.49 93.18 1.55 92.34 0.82 91.35 0.41 90.15 0.25 88.9"/><line class="cls-4" x1="0.25" y1="88.9" x2="0.25" y2="25.35"/><line class="cls-4" x1="10.63" y1="25.35" x2="10.63" y2="88.9"/><polyline class="cls-4" points="0.25 25.35 0.41 24.1 0.82 22.9 1.55 21.91 2.49 21.07 3.59 20.5 4.79 20.18 6.04 20.18 7.24 20.5 8.39 21.07 9.33 21.91 10.01 22.9 10.48 24.1 10.63 25.35"/><line class="cls-5" x1="3.64" y1="30.75" x2="3.64" y2="67.38"/><line class="cls-5" x1="7.19" y1="30.75" x2="3.64" y2="30.75"/><line class="cls-5" x1="7.19" y1="67.38" x2="7.19" y2="30.75"/><polyline class="cls-4" points="2.29 79.66 2.34 79.66 2.39 79.66 2.44 79.66 2.49 79.66"/><line class="cls-4" x1="8.34" y1="79.66" x2="2.49" y2="79.66"/><polyline class="cls-4" points="8.34 79.66 8.39 79.66 8.44 79.66 8.49 79.66 8.55 79.66"/><polyline class="cls-4" points="8.55 78.93 8.49 78.93 8.44 78.93 8.39 78.93 8.34 78.93"/><line class="cls-4" x1="2.49" y1="78.93" x2="8.34" y2="78.93"/><polyline class="cls-4" points="2.49 78.93 2.44 78.93 2.39 78.93 2.34 78.93 2.29 78.93"/></svg>