<svg id="レイヤー_1" data-name="レイヤー 1" xmlns="http://www.w3.org/2000/svg" xmlns:xlink="http://www.w3.org/1999/xlink" width="72mm" height="24.66mm" viewBox="0 0 204.09 69.91">
  <defs>
    <style>
      .cls-1, .cls-5, .cls-6 {
        fill: none;
      }

      .cls-2 {
        clip-path: url(#clip-path);
      }

      .cls-3 {
        font-size: 9.21px;
        font-family: KozGoPr6N-Regular-90ms-RKSJ-H, Kozuka Gothic Pr6N;
      }

      .cls-3, .cls-7 {
        fill: #231815;
      }

      .cls-4 {
        letter-spacing: -0.06em;
      }

      .cls-5, .cls-6 {
        stroke: #000;
        stroke-linecap: round;
        stroke-linejoin: round;
      }

      .cls-5 {
        stroke-width: 0.34px;
      }

      .cls-6 {
        stroke-width: 0.23px;
      }
    </style>
    <clipPath id="clip-path" transform="translate(0 0)">
      <rect class="cls-1" width="204.09" height="70.02"/>
    </clipPath>
  </defs>
  <g class="cls-2">
    <text class="cls-3" transform="translate(140.32 66.78)">上<tspan class="cls-4" x="9.21" y="0">げ</tspan><tspan x="17.88" y="0">る</tspan></text>
  </g>
  <text class="cls-3" transform="translate(77.1 58.28)">下<tspan class="cls-4" x="9.21" y="0">げ</tspan><tspan x="17.88" y="0">る</tspan></text>
  <g class="cls-2">
    <path class="cls-5" d="M127.92,52.51l-.11.07-.11.06a1,1,0,0,1-.22.09,1.61,1.61,0,0,1-.49.06m-13.67-10-.07,3.8m15.18,1.25a8.65,8.65,0,0,1,3.89-1.27,15.28,15.28,0,0,1,4.11.09m-9.28,1.45a2.2,2.2,0,0,0,1.28-.27m-4.75-.09a33.72,33.72,0,0,0,3.47.36m-6.72-1.06a27.64,27.64,0,0,0,3.25.7m-4-1.28c0,.34.51.52.74.58m-7.58-5.94a3.11,3.11,0,0,0,.47,1.68m1,.46h0m-1-.47a1.46,1.46,0,0,0,1,.46m0,0,.21,0m0,0a10.45,10.45,0,0,1,3.09.9c.8.38,2,1.16,2.06,2.28" transform="translate(0 0)"/>
    <path class="cls-6" d="M118.54,37.24a2.27,2.27,0,0,0,.85,1.89,6.49,6.49,0,0,0,1.8,1.17,15.64,15.64,0,0,0,4.12,1.17" transform="translate(0 0)"/>
    <path class="cls-5" d="M125.21,44a20.14,20.14,0,0,0,6.39,0,10.64,10.64,0,0,0,3.06-.94c.84-.42,2-1.19,2-2.32m-18.21-.8c0,1.46,1.69,2.48,2.71,3a15.31,15.31,0,0,0,4,1.15M127,37.54a6.32,6.32,0,0,0,1.79,0,2.64,2.64,0,0,0,1.62-.7m-5.51-.56c0,.45.54.76.85.9a4.55,4.55,0,0,0,1.25.34m-7.28,8.94-.11,3.86m8.71,1.39.14-3.89m9.62-1.24-.17,3.87m3.58-2.65a.41.41,0,0,1-.07.17m-.2.58a1,1,0,0,0,.2-.58m-4,3.3a.92.92,0,0,0,.46-.82m-10,2a1,1,0,0,0,.38-.78m-8.71-1.34v0m-6.33-3.74a.94.94,0,0,0,.14.56m27.06-7.38a.41.41,0,0,0,.22-.29m-.6-1.21.11.08m-.82,2.93a2,2,0,0,1,1.09-1.51m1.13,4.39a.41.41,0,0,0,.07-.17m-3.6,2.6a8.26,8.26,0,0,0,3.53-2.43m-4.93,2.54h0m0,0a2.62,2.62,0,0,0,1.36-.11m-1.62.07.22,0" transform="translate(0 0)"/>
    <path class="cls-6" d="M125.28,41.46a20.21,20.21,0,0,0,6.4,0,11,11,0,0,0,3.07-.93c.83-.41,2-1.18,2-2.31" transform="translate(0 0)"/>
  </g>
  <path class="cls-5" d="M57.41,4l.79,21.64m56-14.53-.46,22.61m63.65-14.69-1.49,17.6M150,26.27l.61-10.55m53.27,31.92L179.23,44M70.39,28.12,58.83,26.43m0,0-.63-.75m86,13.24-30.12-4.4m0,0-.39-.76" transform="translate(0 0)"/>
  <g class="cls-2">
    <path class="cls-6" d="M161.22,52.27a38.66,38.66,0,0,1-4.29-.53c-.7-.13-1.39-.28-2.09-.45s-1.34-.36-2-.57-1.26-.42-1.89-.67-1.15-.47-1.72-.75a17.44,17.44,0,0,1-1.53-.84c-.22-.13-.44-.27-.65-.42s-.45-.31-.66-.47-.37-.29-.54-.44-.32-.28-.47-.43l-.43-.44c-.13-.15-.26-.31-.38-.47l-.33-.47-.27-.47c-.07-.15-.15-.31-.21-.48a3.39,3.39,0,0,1-.15-.45,4.91,4.91,0,0,1-.13-.75c0-.13,0-.25,0-.38a1.15,1.15,0,0,1,0-.19,1.23,1.23,0,0,1,0-.19.22.22,0,0,1,0-.08s0-.08,0-.11l0-.21a2.76,2.76,0,0,1,.06-.4c0-.28.09-.55.14-.83.11-.53.24-1.06.39-1.58m17.22,9c-.82,0-1.63-.13-2.44-.24l-1-.16c-.44-.07-.89-.16-1.33-.26s-.86-.19-1.28-.31l-.93-.26-1-.35c-.37-.13-.74-.28-1.1-.43l-.53-.23-.38-.18-.84-.45c-.29-.16-.58-.34-.86-.53l-.67-.49c-.2-.16-.4-.33-.59-.51s-.34-.34-.5-.53-.17-.2-.24-.3-.15-.21-.22-.31-.1-.16-.14-.24l-.17-.31-.1-.24a2.09,2.09,0,0,1-.08-.23,3.45,3.45,0,0,1-.11-.4,2.63,2.63,0,0,1-.05-.49,3.68,3.68,0,0,1,0-.47c0-.14,0-.27,0-.4l0-.24c0-.1,0-.21,0-.31l.06-.39c0-.19.06-.37.1-.55s.12-.61.2-.92.18-.7.28-1.05c.06-.2.13-.4.19-.6l.21-.58.24-.58c.1-.24.2-.48.31-.72l.25-.57c.15-.32.31-.65.46-1s.25-.55.38-.82l.51-1.08.75-1.58c.25-.52.49-1,.74-1.54" transform="translate(0 0)"/>
    <path class="cls-5" d="M144.17,39.09c.09-.3.2-.59.31-.89" transform="translate(0 0)"/>
    <path class="cls-6" d="M171.16,16.07c-.13.42-.24.84-.34,1.27s-.19.86-.27,1.3-.14.92-.19,1.38-.07.89-.09,1.34,0,.9,0,1.36,0,.93.08,1.4.09,1,.16,1.44.13.82.2,1.23.21,1,.33,1.54.26,1.07.41,1.6.33,1.12.51,1.67.4,1.15.61,1.72.46,1.19.71,1.78.53,1.24.81,1.85.59,1.28.91,1.91c.23.46.46.92.7,1.38l.09.17a.75.75,0,0,0,.07.12l.1.21a1.89,1.89,0,0,1,.11.25l.05.12.06.16a3.53,3.53,0,0,1,.13.54,3.86,3.86,0,0,1,.06.49,5.44,5.44,0,0,1,0,.57,3.57,3.57,0,0,1-.11.47,2.85,2.85,0,0,1-.12.31A2.92,2.92,0,0,1,176,44l-.14.22c-.06.1-.13.19-.2.29a2.09,2.09,0,0,1-.24.28,3.45,3.45,0,0,1-.26.28c-.18.16-.36.32-.55.46s-.42.3-.64.44-.55.31-.83.45-.54.25-.81.36-.67.26-1,.37-.73.23-1.11.33l-1.19.28-1.09.19c-.44.07-.87.12-1.31.17-.86.09-1.72.15-2.58.16s-1.77,0-2.66-.05" transform="translate(0 0)"/>
    <path class="cls-5" d="M174.76,16.53a20.92,20.92,0,0,0-1.47,5.19,22,22,0,0,0-.09,5.38" transform="translate(0 0)"/>
    <path class="cls-6" d="M158.19,14.47q-1.69,3.21-3.38,6.42c-1.12,2.15-2.22,4.3-3.28,6.47m27.84,17.36c0,.15,0,.3,0,.44s0,.28,0,.42a3.73,3.73,0,0,1-.15.81c0,.13-.09.27-.14.39a3.54,3.54,0,0,1-.19.39,3,3,0,0,1-.23.38c-.08.13-.18.25-.27.37l-.25.29c-.14.15-.29.29-.43.42a7.93,7.93,0,0,1-.86.67c-.33.23-.67.43-1,.62s-.77.39-1.17.56l-.63.25-.67.24-.85.27-.74.2c-.51.13-1,.24-1.55.35s-1.1.19-1.65.26-1.28.15-1.92.2-1.2.08-1.8.1c-1.23,0-2.46,0-3.69-.08" transform="translate(0 0)"/>
    <path class="cls-5" d="M175.14,23.42c.45-1.23.91-2.46,1.37-3.7M173.8,30.37a21.17,21.17,0,0,1,1.34-6.95M142.69,44.17c-.17.52-.31,1-.43,1.57-.06.26-.11.53-.16.79s-.11.62-.14.93a4.21,4.21,0,0,0,.69,2.68,8.36,8.36,0,0,0,1.79,2,15.79,15.79,0,0,0,2.87,1.92,34.68,34.68,0,0,0,11.82,3.46,38.6,38.6,0,0,0,12.32-.36,18,18,0,0,0,5.78-2.14,6.9,6.9,0,0,0,2.48-2.41,3.88,3.88,0,0,0,.46-2.6" transform="translate(0 0)"/>
    <path class="cls-6" d="M76.47,41.69c1,.15,1.93.26,2.9.33l.7,0,.71,0c.54,0,1.07,0,1.61,0l.72,0L84,42l1.59-.12c.53-.05,1-.12,1.57-.19l.68-.11.68-.12c.49-.09,1-.19,1.48-.31l1.24-.32c.5-.14,1-.3,1.48-.47L93.81,40c.35-.14.69-.3,1-.46s.7-.36,1-.57a5.69,5.69,0,0,0,.52-.33l.4-.27c.25-.18.48-.37.71-.57a4.59,4.59,0,0,0,.39-.37c.12-.12.24-.25.35-.38s.26-.3.38-.46l.24-.31.23-.31c.26-.36.5-.72.73-1.1a13,13,0,0,0,.7-1.26c.08-.15.15-.31.22-.47s.16-.37.23-.55l.18-.47a2.25,2.25,0,0,1,.08-.24,2.25,2.25,0,0,1,.08-.24c0-.1.07-.21.11-.31s.08-.26.13-.39l.27-.78c.18-.5.37-1,.56-1.51.4-1.07.83-2.13,1.27-3.18.24-.55.48-1.1.73-1.64s.49-1.06.75-1.58c.45-.92.92-1.84,1.42-2.74.22-.39.44-.79.67-1.18s.55-.92.83-1.37l.7-1.13c.28-.44.57-.88.86-1.32l.73-1.08.89-1.27.92-1.24.47-.62.43-.56M66.36,36.46a4.11,4.11,0,0,0,.21.42l.28.42c.11.14.22.28.34.41a5.44,5.44,0,0,0,.41.42l.47.41c.17.13.35.27.53.39l.59.38c.21.12.42.24.64.35s.45.23.69.34.49.22.75.32.52.2.79.3.56.19.84.27.49.14.73.21l.91.22c.63.15,1.28.27,1.93.37M97.44,7,96,8.25,94.41,9.67,92.88,11,91,12.53,88,15,86.37,16.2l-2.21,1.74-1.43,1.14-1.47,1.16c-.5.4-1,.8-1.51,1.19L78.2,22.66l-1.59,1.26-.81.64-.9.72-.25.2-.33.26-.25.2-.33.27-.41.34c-.18.15-.37.31-.55.48l-.6.55c-.34.32-.66.66-1,1s-.35.38-.52.58l-.25.29-.24.3c-.12.14-.24.29-.35.44l-.32.45-.18.31a2.1,2.1,0,0,0-.15.3,3.52,3.52,0,0,0-.22.62,3.35,3.35,0,0,0-.08.54,2.41,2.41,0,0,0,0,.6,3.29,3.29,0,0,0,.15.6l.09.21.15.29a3.52,3.52,0,0,0,.39.56c.14.16.28.32.44.47s.19.17.3.25a2.23,2.23,0,0,0,.24.19q.35.26.72.48c.27.16.55.31.83.44s.62.28.94.4.68.26,1,.37.68.2,1,.29.73.18,1.1.26l.62.12.62.1" transform="translate(0 0)"/>
    <path class="cls-5" d="M65,38.78l0,.16a3.18,3.18,0,0,0,.18,1.67,1.88,1.88,0,0,0,.12.3,4.4,4.4,0,0,0,.31.56,5.92,5.92,0,0,0,.82,1,11,11,0,0,0,1,.83,13.14,13.14,0,0,0,2.75,1.51,28.53,28.53,0,0,0,8.28,1.93A39.78,39.78,0,0,0,87,46.63c1-.13,2.06-.29,3.09-.5a25.19,25.19,0,0,0,5.16-1.57,14.13,14.13,0,0,0,2.64-1.45,8.39,8.39,0,0,0,1.4-1.19h0v0A15.17,15.17,0,0,0,101.45,39a23.53,23.53,0,0,0,1.37-3.23c.2-.52.41-1,.62-1.55.42-1,.86-2.06,1.33-3.08a81.43,81.43,0,0,1,8.62-14.7" transform="translate(0 0)"/>
    <path class="cls-6" d="M1.63,25.73a9.51,9.51,0,0,0,4.61,2.45M43,.26c-.81.52-1.63,1-2.46,1.52s-1.7,1-2.55,1.46-1.81,1-2.72,1.45l-1.59.81L32,6.31,29.58,7.46,26.69,8.81,24,10l-3.19,1.43-2.48,1.1-3.45,1.5-2.67,1.14L9.48,16.35l-.18.08-.23.1-.23.09-.29.13-.28.12-.71.34L7,17.53c-.23.13-.45.25-.67.39s-.35.23-.52.35-.42.3-.62.46-.35.31-.52.48a4.81,4.81,0,0,0-.42.48,3.17,3.17,0,0,0-.32.49,2.68,2.68,0,0,0-.21.49,1.21,1.21,0,0,0,0,.18,1.72,1.72,0,0,0,0,.24,2,2,0,0,0,0,.23,1.93,1.93,0,0,0,0,.24c0,.08,0,.16,0,.23a1.55,1.55,0,0,0,.07.23,2.43,2.43,0,0,0,.22.46,4.59,4.59,0,0,0,.33.44,3.44,3.44,0,0,0,.44.41,4.1,4.1,0,0,0,.47.35,5,5,0,0,0,.63.37c.21.11.42.21.64.3s.53.21.81.31l.79.23M6.24,28.18l1,.25,1,.2c.38.06.76.12,1.15.16s.79.09,1.19.12c.84.07,1.68.1,2.53.11s1.8,0,2.7-.08l1.29-.1.73-.08L19,28.62c.72-.1,1.43-.23,2.14-.37l.85-.18.5-.12,1.1-.28.62-.18.55-.17,1.1-.38c.53-.2,1.06-.42,1.58-.66s1-.46,1.41-.72l.31-.19.18-.11.27-.18q.57-.36,1.14-.75,1-.67,2-1.41c.91-.66,1.8-1.35,2.66-2.07l.56-.48.14-.12.16-.14.58-.51.33-.29.6-.52,1.55-1.34c1-.87,2-1.73,3-2.58M8,24.89c.23.07.47.13.71.18l1,.2,1.07.15c.37,0,.74.08,1.11.1l1.16.06.89,0c.7,0,1.41,0,2.11-.07s1.52-.13,2.28-.23l1-.16,1-.2,1-.23,1-.26q.54-.15,1.05-.33l.87-.32.35-.15L25,23.5l.55-.27c.38-.19.75-.4,1.11-.62l.46-.29.54-.35.44-.3c.18-.11.35-.23.52-.35.67-.46,1.33-.93,2-1.41l.62-.47.45-.35.44-.36.58-.46.69-.59.54-.47.67-.58.8-.68,1.31-1.12c1-.86,2-1.72,3.09-2.57m69.61-3.8c-.56.73-1.12,1.48-1.66,2.23-.27.39-.55.78-.82,1.18l-.84,1.24c-.56.84-1.1,1.7-1.63,2.57s-.88,1.49-1.3,2.25l-.76,1.43-.61,1.23c-.46.94-.9,1.89-1.31,2.86s-.85,2-1.24,3.06c-.08.19-.15.39-.22.58l-.27.74-.27.74-.08.23c0,.07,0,.15-.08.22l-.15.46c-.06.16-.12.31-.17.46s-.13.31-.2.46-.07.16-.1.23l-.15.31c-.18.37-.38.73-.59,1.08s-.42.67-.65,1l-.21.31-.23.3a5.19,5.19,0,0,1-.36.46,3.8,3.8,0,0,1-.33.37c-.11.13-.24.25-.36.37l-.25.22c-.11.1-.23.19-.35.28s-.52.37-.79.54l-.78.43-.85.4q-.47.2-.93.36l-.42.14-.57.18c-.34.1-.69.19-1,.27s-.83.19-1.24.27L87.1,38l-.65.1c-.44.06-.89.11-1.33.15-.85.08-1.7.12-2.55.13-.4,0-.8,0-1.2,0s-.9,0-1.35-.06c-.82-.06-1.63-.14-2.45-.27" transform="translate(0 0)"/>
    <path class="cls-5" d="M.19,28.18c0-.13,0-.27,0-.4s0-.27.06-.41l.12-.88c.16-1,.33-2,.49-3m0,0a7,7,0,0,1,.19-.79,6.67,6.67,0,0,1,.31-.78,7,7,0,0,1,.44-.75,5.58,5.58,0,0,1,.55-.73,8.79,8.79,0,0,1,.66-.7c.25-.24.52-.46.79-.68s.59-.44.9-.64.67-.43,1-.62.64-.35,1-.51.7-.34,1-.49l.43-.19.17-.07.31-.13.57-.24.4-.17.4-.17.84-.35.93-.4L15,13.72c2.23-1,4.46-2,6.68-2.94l4.84-2.21L27.71,8l1.11-.53,1.58-.75L31,6.48l.52-.25,1.13-.56,1-.51.55-.28,1.5-.79,1.45-.79c.91-.51,1.81-1,2.71-1.58s1.64-1,2.45-1.55m23.88,34c.06-.24.13-.47.21-.7s.18-.46.29-.68a7.12,7.12,0,0,1,.36-.67,7.48,7.48,0,0,1,.43-.66l0-.05.15-.19.09-.12.09-.13.14-.17.26-.31L68.6,30l.44-.49a25.39,25.39,0,0,1,1.88-1.86c.38-.35.78-.69,1.18-1l.3-.24.09-.07.1-.08.4-.32.42-.33.46-.37.92-.73,1.13-.89,1.64-1.3,2.69-2.13,4.18-3.3,1.19-.94,1.14-.9.53-.42.36-.28,2-1.63c1.21-1,2.39-2,3.56-3s2.12-1.87,3.14-2.84M65.06,38.78c0-.13,0-.26.07-.39l.09-.38c.06-.29.13-.58.2-.87s.12-.53.19-.79c.18-.73.37-1.46.54-2.19m76.57,10c0-.1.06-.2.1-.31l.12-.39c.1-.33.19-.66.29-1l.3-1c.16-.56.32-1.12.47-1.67l.15-.5m35.23,5.49c0,.23.07.45.1.68.09.6.17,1.2.26,1.8,0,.32.09.64.14,1l.15,1c.05.29.09.57.14.85M148.73,28.92l.51-1c.18-.35.35-.69.52-1l1.05-2.07.33-.63.49-1,3-5.83c.54-1,1.07-2.08,1.6-3.12m17,12.85c.06.54.13,1.07.22,1.6s.22,1.13.35,1.69.29,1.16.46,1.74.37,1.21.58,1.82.45,1.26.7,1.88.52,1.28.8,1.92.61,1.33.93,2,.68,1.36,1,2m0,0,.16.28a.89.89,0,0,0,.08.17c.06.11.11.22.16.33a9.51,9.51,0,0,1,.52,1.46c.06.24.11.49.15.74m-35.21-5.52q.11-.41.24-.81l.27-.79q.3-.78.63-1.56c.05-.1.09-.21.14-.31s0,0,0,0l.06-.12c.06-.14.13-.28.2-.42s.17-.36.25-.54.23-.47.34-.71l.6-1.25c.6-1.25,1.2-2.5,1.81-3.73m-12,8.89a1.7,1.7,0,0,1,0,.39m-22.11,9.7-.23,0m21.94,3.47c-.41-.07-.81-.12-1.22-.15s-.82-.06-1.23-.06-.81,0-1.22,0-.77.06-1.16.11-.74.12-1.1.2l-.51.13-.48.15-.45.17c-.14,0-.27.12-.41.18l-.36.2a2.2,2.2,0,0,0-.32.21m8.86-14.28-.11,2.52M112.81,44.9l.07-3.75m5.6-1.19.06-2.53m6.34-1.1v-.24M141.64,44l-.19,3.8m-.79-8.31-.14,3m.93,5.35a1.36,1.36,0,0,1-.25.72m0,0c-.1.14-.21.27-.32.4l-.36.38c-.13.13-.27.25-.41.37l-.45.35c-.16.11-.33.23-.5.33s-.35.21-.53.31a11,11,0,0,1-1.2.57m0,0-.09,0a.32.32,0,0,1-.09,0l-.21,0a1.79,1.79,0,0,1-.4,0m0,0-.24,0M127,52.79c-.27,0-.55,0-.82-.06l-.83-.07c-.54-.06-1.09-.13-1.63-.22s-1-.18-1.56-.3-1-.23-1.51-.37m0,0a.83.83,0,0,1-.22-.08l-.2-.11a1.67,1.67,0,0,1-.33-.32,1.56,1.56,0,0,1-.22-.4,1.44,1.44,0,0,1-.08-.46m0,0a.17.17,0,0,0,0-.07.24.24,0,0,0,0-.08.36.36,0,0,0,0-.09.41.41,0,0,0,0-.09,1,1,0,0,0-.15-.2l-.19-.2a2.11,2.11,0,0,0-.23-.19,2.48,2.48,0,0,0-.26-.19l-.3-.19-.33-.18a7.8,7.8,0,0,0-.72-.31,7,7,0,0,0-.81-.28c-.29-.09-.58-.17-.88-.24l-.94-.17m-1.26-.75c0-.09-.1-.18-.14-.27s-.09-.18-.13-.27-.13-.36-.19-.55a5,5,0,0,1-.11-.56,3.32,3.32,0,0,1,0-.55m1.63,2.91-.16,0-.15-.05a1.25,1.25,0,0,1-.28-.15,1.64,1.64,0,0,1-.25-.21,1.74,1.74,0,0,1-.19-.26m26.76-8.79a.57.57,0,0,1,.11.11l.11.12a1.56,1.56,0,0,1,.16.28,1.58,1.58,0,0,1,.09.31,1.08,1.08,0,0,1,0,.31m-.58-1.2.08.07m-.81,2.93a.07.07,0,0,0,0,0,.24.24,0,0,0,0,.08.25.25,0,0,0,0,.07l.05.09.14.18.19.18.21.18.25.17a2.68,2.68,0,0,0,.28.18l.31.17m0,0,.17.11.16.13a1.64,1.64,0,0,1,.26.33,1.51,1.51,0,0,1,.15.37,2,2,0,0,1,0,.41M119,35.92l.08-.12m-4.71,2.87.68-.1c.21,0,.43-.07.64-.12l.61-.14.56-.17.52-.2a4.69,4.69,0,0,0,.46-.21l.38-.23a1,1,0,0,0,.17-.12l.14-.11m-5.23,2.13a1.38,1.38,0,0,1,1.06-.73m-1.5,2.47c0-.07,0-.14,0-.22s0-.14,0-.22a3.29,3.29,0,0,1,.09-.43,4.14,4.14,0,0,1,.13-.43,3,3,0,0,1,.18-.41m5.23-2a2.58,2.58,0,0,1,0-.29,2.33,2.33,0,0,1,.05-.28,2.55,2.55,0,0,1,.19-.55,2.78,2.78,0,0,1,.3-.53,3.72,3.72,0,0,1,.41-.48M57,9.83,43.94,20.2l-6.52,5.18A57.15,57.15,0,0,1,30.52,30c-4.52,2.64-11,3.69-16.07,3.77A32.94,32.94,0,0,1,6.18,33,11.9,11.9,0,0,1,1.6,31,3.1,3.1,0,0,1,.19,28.18" transform="translate(0 0)"/>
    <path class="cls-7" d="M133.36,52.09c0,1,0,2,0,3-7.57,1.73-11.78,1.37-19.38-1.83,0-1,0-2,0-3l-6.71,1.57L114,60.91c0-1,0-2,0-3,7.54,3.17,11.87,3.53,19.38,1.82,0,1,0,2,0,3L140,55l-6.62-2.9" transform="translate(0 0)"/>
  </g>
</svg>
