<svg xmlns="http://www.w3.org/2000/svg" width="75.11mm" height="49.81mm" viewBox="0 0 212.9 141.2">
  <defs>
    <style>
      .cls-1 {
        fill: none;
        stroke: #000;
        stroke-linecap: round;
        stroke-linejoin: round;
        stroke-width: 0.3px;
      }
    </style>
  </defs>
  <g id="レイヤー_2" data-name="レイヤー 2">
    <g>
      <path class="cls-1" d="M53.12,29.61v.29m0,0,.39.34m1.66-.92V29m0,.3.39.34M73.45,141.05V108.28m16.29,32.77V103.84m-.63,37.21V103.74m-.44-25.51V72.67m-2.73,3.17V73.75M94.33,79V71.7m21.56,1.07V68.63m-11.42,14h0m2.44-.24h0m-1,.15h0m2-.54h0m-2.68.24h0m3.36-.34h0m-1.12,0h0m-8.19-.09h0m6.63-.25h0m2.14-.1h0m-7.56.1h0m.69-.19h0m-1.32,0h0m1.37-.35h0m-.69.15h0m.64-.19h0m8.92-.3h0m-.73-.19h0m-6.83.14h0m6.39.39h0m2.88-.39h0m-10.05.25h0m10.05-.68h0m-6.93-.1h0m-1.17.19h0M115,80.14h0m-12,.39h0m8.78-.39h0m3-.34h0m.49.19h0m-10.78-.29h0M104,80h0m9.47-.44h0m3.75-.2h0m-4.83.54h0m3.76-.58h0m.58-.39h0m-8.87.19h0m1.27-.29h0m6.43,0h0m3.13,0h0m-2.49-.44h0m2.53.09h0m-10-.14h0m-.44.29h0m9.85-.19h0m-7.27.19h0m1.81-.54h0m-.69,0h0M111,78.19h0m-.83-.1h0m7.76,0h0m-.59.39h0m-5.85-.34h0m.53-.54h0m8.34.15h0m-.78-.15h0m-.43.54h0m-2.69-.88h0m-.39,0h0m1.08-.24h0m-1.61-.54h0m2,0h0m.14-.1h0m.83,0h0m10.1,1.32v0M91,81.6h0m31.12-9v0m.93.19v0M150.22.15,25.12,36.24M145.83.15,24.05,35.31M140.57.15,23.46,34M69.7,106.47l.1.1m0-8.44V106m0,0,.1.15m5.07-2.73,0,.15m1.17,0v.25m-1.22-1.27v.83m.53-.1v.15m-5.65,3.07.48.34m-.43-.73.43.68M75,103.6l.39.68m.09-.78v.78m48.48-47.51,1.61-.53M80.38,51.9l-.29.09m1.27,3.22-.25.1m-1-3.32-.88.3m1.9,3-.88.29m2,.1-.29.1M71.65,65H71.5l-.09,0h0l0,0h0M89.11,53.7h0m-7.27,2.88.1-.78m-1.41-4.63L80,50.58M89,54.48l.1-.78M87.7,49.07l-.49-.54m-27-8.78V41m28.58,8.54-.34.05m1.31,3.26-.34,0M74,66.43l0,.15,0,.1,0,.09,0,.1.09,0,0,0,.05,0h0m51-15.46.05.14,0,.1.1.1,0,.09.05.1h.09l.05,0h0m1.61-3.36.1.53,0,.54-.1.54-.19.48-.25.44-.34.34-.44.3m15.46-8.69,1-.34m-15.32,5.86,11.9-4.1m-11.9,4.1,0,0h-.09l-.1,0-.15.05-.1,0H127l-.15.05-.1,0m-5-19.8,5.85,19.51m-11.12-24V23.51m4.73.64v1.22m4.29,26.19.35-.15.34-.2.24-.29.2-.29.14-.39,0-.39v-.39l-.1-.39m0,0-6-20M65.65,45l6,20m0,0,.15.39.19.34.29.29.3.25.34.14.39.1h.34l.39,0m0,0,51.45-14.87m-44.82.34h0m3.76,2.29-2.44.88M81,51.8l1,3.27M80.62,51.9l1,3.27m.58-3.81L81,51.8M82,55.12l2.39-.88m2.19-.54.44-.14m-1.41.78h0m0-.3h0M82,55.12,85.7,54m0,.3L82,55.41m5.56-2-.44.15m1.22-4.15h0m1.12,3.85h-.1M85.7,54l3.61-1m0,.24-3.7,1.08m2.53-5-7.36,2.15m7.46-2.2-.1,0m.2,0,0,0m21.41-18.63-.24-1m-.44,1.13v-.74m-.78.3.1-.3m1.31,0-.14-.34m-2.78.83-.25-.19-.39-.39-.14-.44.09-.44.39-.44.54-.34.73-.24.88-.1.88-.05.88.15.73.24.58.29.39.44.15.44-.1.44-.34.39-.49.29m30.19,87.4.1-1.17m-.68.88.09-.25m1,.25-.1-.49m.59.44-.1-.24m-1-.25.05-.34m-2.73.24-.1-.29,0-.44.3-.44.53-.34.69-.24.82-.2h.88l.88,0,.78.25.63.29.44.39.2.44m0,0-.05.44v0m-27.9-58-.1-.73m-.63.68.1-.68m1.07.14-.15-.34m-1.36.34.15-.39m-2.2.34-.29-.39,0-.44.24-.44.44-.39.64-.29.83-.19.82-.1.93.05.78.19.73.25.49.39.29.39,0,.49-.24.39-.44.39-.24.14m36.18,69.75,0-.3m-.54.54,0-1.17m-.44.78,0-.34m-.59.39.1-.29m1.12-.2,0-.34m-3.37.19,0-.09v-.44l.2-.44.48-.39.64-.29.78-.2.88,0,.87,0,.83.15.69.29.53.34.3.44v.44m0,0-.1.29M71.89,41.7l-.14-.87m-.59.92,0-.68m-.63.2.14-.35m1.37.2-.15-.44m-3.17.63-.24-.24-.25-.44,0-.44.25-.44.53-.34.69-.29.78-.15.92-.09.88.09.78.2.64.29.48.39.2.44v.44l-.29.44-.49.34-.1.05m4-10.63-.1-.3m-.53.54,0-1.17m-.93.78.15-.29m1.17-.15-.1-.29m-3.37.19,0-.1,0-.43.19-.44.44-.39.64-.3.78-.24.87-.1.88.05m0,0,.83.15.68.29.54.34.29.44L80,30l-.1.19m21.61,61.8-.25-1M100.82,92v-.73m-.78.29.14-.29m1.32,0-.15-.35m-3.51.15,0-.39.1-.44.39-.39.59-.34.78-.24.82-.15.88,0,.88.1m0,0,.73.24.59.34.34.39.14.44-.14.44m-61.5-50-.1-1.12m.63.82-.09-.24m-1,.54L42,40m-.64.87.1-.29m1-.24,0-.29m-.49.29v-.15m-2.78,0L39,40l0-.44.24-.39.54-.39.68-.29.83-.15.88-.05m0,0,.88.05.78.19.68.35.44.34.24.44,0,.43-.1.2m133.54,60.14,3.12,2.63m-54.29-16v1.22m24-6.93V80.19m61.31-3.52L182.9,85.31M73.6,87.89l-.19-.44m-.64.64v-1m-1,.54.14-.29m1.47-.15-.3-.59m-3.9-1V85.4l.15-.43m0,0,.39-.44.63-.39.78-.25.88-.14.93,0,.92,0,.88.19.69.34.58.39.29.44.1.44m-6.24,1.8.14-.43.35-.35.58-.29.73-.19.78,0,.83,0,.73.19.59.25.39.39.1.39-.1.39-.39.39-.54.29-.73.19-.83.05L72,88.57l-.73-.19-.59-.29-.39-.34-.14-.4m-.93-1v-.15l.15-.43m0,0,.39-.44.58-.34.78-.25.88-.19h.93l.92,0,.83.2.74.29.53.39.29.44.1.44M160.81,72v-1.8M147,58.19V60m-4.73-.63V57.55m23.41,21.9,0,0,.05.1.05.15v.14M160,74.77l0-.14-.05-.1,0-.1-.05-.05m.2.39-.25-.1-.29-.09-.34,0-.39,0-.29,0-.25.14-.1.15,0,.1M166,80.14v0l-.1-.2h0m0,0-.2-.19-.78-.69-3.21-2.78L160,74.77m-1.95,3,0-.15.15-.15.34-.14.39,0h.39l.34.1.44.29.49.44.83.68,1.46,1.27,1,.83,1,.87,1,.83.1.1,0,.1v.05m-27.46,3.85h-.05l-.05.2v.29l.1.39.14.34.25.34.09.1.15.15.24.19.59.54,1.07.92L143,91.84l.93.88,1,.83,1,.83,1,.83.09.09.1,0,.1,0"/>
      <path class="cls-1" d="M212.75,94.18v-18"/>
      <path class="cls-1" d="M53.17,30.19h0l.09,0,.05.05h.1l.1-.05m-.83-.49h0l0,.05.05.05.09,0h.05L53,30l.1-.05m0-.29L55.17,29m-1.66,1.22,2.05-.58m-2.44.24,2.05-.58m.39.34.09-.05.1-.05,0,0,.1-.1.05-.09,0-.1m-.82.1.09-.05.1-.05,0,0,.1-.1.05-.1,0-.09m17.85,79.4-.09,0h0l0,0-.05,0v0M93,141.05V106.72m0,0-3.27-2.88m-.63-.1-15.66,4.54m16.29-4.44,0,0h-.1l0-.05h-.44M73.5,108.28l.64-.34m15.31-4.25-.24-.09m-15.07,4.34,15.07-4.34m5.66,4.82L93,106.81M46.83,55.6l57.79,50m-18.19-1.21L46.83,70.09m-18-33.6-.25-.15M11.66,41.27l16.92-4.93M11.66,41.27l-.78.39m-.1.14.49,4.63L11.66,51l.39,4.58.29,4.54.3,4.49.14,4.48.15,4.39.1,4.34m15.8-41.35L10.88,41.66m0,0-.1.14m18.15-5.27-.1,0M13,77.84l.63,63.21m33.17,0V52m0,0L28.93,36.53m0,0,.48,4.64.44,4.63.34,4.59.35,4.53.24,4.49L31,63.85l.15,4.39.05,4.39m0,0,.68,68.42M94.33,71.7l-.73.19-.78.1H92l-.78,0m20.92-5.36L94.33,71.7m5.51-8,.29-.15.34-.05h.39l.35.1.24.15.1.14v.2l-.2.19-.24.1-.39,0h-.39l-.29-.1-.3-.09-.09-.2V63.9l.19-.15m53.55-28.63.3-.15.34,0h.39l.34.1.24.15.1.14v.2l-.2.2-.29.09-.34.05h-.39l-.34-.05-.25-.14-.09-.2v-.19l.19-.15M141,24.34l.24-.15.39,0H142l.29.09.3.15.09.15v.19l-.19.2-.3.09-.34.1-.39-.05L141.1,25l-.24-.14-.1-.2v-.19l.2-.15m-58,53.46.29-.15.39-.05h.34l.34.1.25.14.14.2,0,.15-.14.19-.3.1-.34.1-.39,0-.34,0-.24-.15-.1-.19v-.2l.15-.14m35.94-10.39.29-.1.35-.1.39.05.34,0,.24.15.1.19v.2l-.2.14-.24.15-.39,0h-.34l-.34-.1-.3-.15-.09-.14,0-.2.14-.19m-4.19.14,2.73,2.39m0,0,.34.39.2.39,0,.39-.14.39-.3.39-.43.35-.54.29-.68.24m0,0L94.33,79m0,0-.73.15-.78.1H92l-.78-.05-.78-.15-.69-.19-.58-.29-.49-.35m0,0-2.73-2.39m0,0-.34-.39-.2-.39,0-.39.14-.39.29-.39.44-.34.54-.29.68-.24m0,0L109,66.77m0,0,.73-.14.78-.1h.83l.78,0,.78.14.68.2.59.29.49.34M26.19,36.05l-.09.05-.25.19-.24.2-.24.09M46.83,70.33l39.4,34.14M12.78,40.87l.05.05m88.23,43.17h0m-.44-.44h0m1.07,0h0m-.29-.3h0m1.07.25h0m-1.26-.39h0m-.35-.29h0m-.82.24h0m.58.44-.19-.15m1-.1-.78.25m1.07,0-.29-.3m-.34.69-.2-.2m1.37-.14-1.17.34m-1-.88-.2-.15m1-.09-.82.24m1.17.05-.35-.29m3.71-.1h0m-1.71.49h0m.93-.88h0m.78.39,0-.15,0-.1m-.14-.29-.54.15m0,0,.49.19m0,0,.15.1.14.1m0,0h0m-.1-.25-.14-.29m0,0h0m-1.47,1-1-.88m.58,1.17-.19-.15m1.71-.29-1.52.44m2-.59h0m-.29-.88h0m-4.88-.24h0m5.22.93,0-.15,0-.1m-.14-.29-.54.15m.68.14-.14-.29m.19.73-1.85-.83m2.29.69-.44.14m-.29-.88-.15-.34M91,81.6h-.14l-.1.05,0,.1,0,0-.05,0v0m8.2-.24h0m.39-.1h0m.19.39,0-.1,0-.09m0,0-.1-.2m0,0-.39.1m0,0,.34.14m0,0,.15.1.09,0m0,0h0m7.56.24h0m-.83-.73h0m.64.78.14,0h0m0,0-.83-.73m0,0H106l-.1,0m0,0-.25.1-.14.1-.1.09,0,.15.1.2m0,0,.19.09.2,0,.19,0h.25l.34-.1m1.9-.53h0m-.39-.34h0m.19.39.15,0h.05m0,0-.39-.34m0,0h-.1l-.1,0m0,0-.14,0-.1,0-.05,0v.1l.05,0m0,0,.1,0,.1,0h.24l.19,0m-9.12.34h0m1.37-.69h0m0-.14h0m5.17.24-.25.1-.14.1-.1.09,0,.1m.63-.44H106l-.1,0m1,.68-.83-.73m-.87.78-.15-.14,0-.15v-.1m.93.69-.25,0-.19,0-.29-.2m1.7.15-.58.15h-.39m1.51-.35-.29.1-.25.1m-6.19-1.12h0m-1.61.14h0m1.46-.19h0m.78-.1h0m.15,0h0m-.15,0h0m-2,.83,0-.1,0-.09m-.1-.2-.39.1m.49.1-.1-.2m.14.54-1.36-.64m1.71.54-.35.1m-.19-.69L99,81.16m10.64.44h0M108,81.21h0m0,.19-.14,0-.1,0-.05,0v0m.49-.24h-.1l-.1,0m.59.3-.39-.34m-.78.48-.1-.19m.54.34h-.15l-.1,0-.19-.1m1.12,0-.39.1h-.29m1.27-.29-.3.09-.29.1m-.54-.68-.43-.39m3.17.44h0M101.21,81v0h0m0,0h0m-.69.15-.39-.34m.44.39,0,0m0,.1,0-.05m-.73.15L99.45,81m1,.49h-.34l-.09,0-.1,0-.1,0m.83,0-.1,0-.1,0m.25-.24,0,.1v0m0-.14h0m.44,0h-.34l-.1,0m.63-.15v0l0,0,0,.05-.09,0m.19-.2h0m.15,0-.15,0m.34,0-.19,0m-.34-.19-.34-.35m10.92,0h0m-9.22,0-.19-.09-.15-.1h-.24l0,0h0v.1l0,.09.1.1m0,0,.14.15.15,0h.1l.05,0h.09l0,0h.05l0,0v0l0-.1-.1-.15m9.51-.29h0m.2.15h0m-.2-.15h0m-7.36.15h0m-2.15.14-.19-.09-.15-.1h-.24l0,0h0v.1m.83.34v0l0-.1-.1-.15m.39.15,0,.1,0,.1-.09,0-.15.1h-.49l-.24-.1-.2-.14m0,0-.14-.2,0,0m7.36.39-.14-.14,0-.1m.88.83-.69-.59m1,.49-.34.1m-.25-1.12-.15,0,0,.09,0,0v0m1,0-.09-.09-.15,0-.15,0h-.34m1.42.78-.69-.59m1.08.49-.39.1m-5.66-1h0M105,80v0m9.76.1h0m-11,.09-.14-.09-.15-.1h-.29l0,0v.09l0,.1.1.1m0,0,.14.1.15.09h.34v0h0v0l0-.1-.15-.15m.78-.14h0m-.78.14-.14-.09-.15-.1h-.29l0,0v0m.83.34h0l0-.1-.15-.15m.44.15.05.1-.05.09-.1,0-.14,0-.2,0h-.34l-.19-.1-.2-.14m0,0-.19-.2v0m12-.53h0m-.3.09h0m-2.63.35h0l-.05,0m.1.14v0l0,0m-.05.43-.19-.14m.24.14h-.05m.29-.19,0,.1-.09,0-.1,0m.24-.29h0m.2.15-.2-.15m.49,0-.29.1m-.49-.34-.44-.39m3.81-.1h0m-10.64,0-.09,0-.1,0v0m.58-.19h-.19l-.2,0M104,80l0-.15v0m.48.3h-.14l-.1,0h-.1l-.1,0m.83,0-.24,0h-.15M105,80l0,0h0m.25.14L105,80m-.29.44-.15-.1m.93-.1-.78.2m8.14-.68.1.09.15,0,.19,0h.1l.1,0h.1l0-.1,0,0,0-.1-.09-.1m-.78.1.09.1m.69-.2-.15-.1-.15,0h-.34l-.14,0,0,.1v.05m4-.15h0m-3.12.1-.15-.1-.15,0h-.34l-.14,0,0,.1v.05m.92.1v0l-.09-.1m.48.2v0l-.14.15-.25.1-.34,0h-.34l-.24,0-.25-.15m0,0-.09-.14,0,0m-6,.34h0m2.24-.64h0m-2.24.64-.34-1m.49.93-.15,0m10-1h0m-7.32.2h0m5.61.34h0m2.73-.39h0m-.34-.29h0m.1.34.14-.05h.1m0,0-.34-.29m0,0-.2,0m0,0-.09,0-.1,0,0,0v.15m0,0,.1,0h.29l.15,0m-9.66-.34h0m10.78.14h0m-10.78-.14h0m7.46,1v0l0,0,0,0m0,.39-.15-.15m.39.1-.15,0h-.09m.53-.2-.14.1-.15,0m.34-.54-.19.05m-.54-.05-.68-.59m.53.83-.14-.14m.44,0-.3.09m.34,0,0,0M109.4,79h0m-.15-.15h0m-1.8.93h0m8.83-.69h0m-7.56-.14h0m1.8-.1h0m-3.12.1h0m.49.24L107.6,79l-.2-.09m1.07.53-.58-.29m.88.2-.3.09m-1,.3-.34-.93m.63.83-.29.1m9.36-1h0m-.39-.29h0m-.44.34.1.05h.1l.1,0,.19,0,.15-.05m0,0,.19,0m0,0-.39-.29m0,0h-.09l-.1,0m0,0-.2,0-.09.09v.1l0,0m-7.21-.34-.1,0-.1,0v0m.59-.19H109l-.19,0m-.44.29,0-.1v-.09m.44.34h-.1l-.15,0,0-.05-.09,0m.83.1-.25,0h-.19m.53-.1,0,.05h0m.24.1-.15-.15m-.29.44-.15-.1m.88-.1-.73.2m7.27-.73-.2,0-.09.09v0m.48-.24h-.09l-.1,0m.58.24-.39-.29m.34.49-.09,0-.1,0,0,0v0m.44-.24-.2,0m.54.24-.34-.29m-1.37,0-.09-.1v0m.78.29h-.2l-.24,0h-.15l-.1-.09m.69.14h0m-.1.3-.05,0v0m.49.24h-.15l-.1,0-.09,0-.1,0m1.07,0-.39.1h-.24m1.17-.29-.25.1-.29.09m-7.36-1.21h0m9.9.48h0m-9.66-.58-.14,0-.1,0m1.07,0-.1,0-.14,0-.15,0h-.19l-.25,0m1,.34,0-.1-.1-.14m-.44.63-.1-.15m.49.1-.24,0h-.15m.88-.54v.1l-.05.15-.19.09-.25.15m-1-.58-.2-.1m7.61.34-.1-.15,0-.09m.93.39h-.34l-.25,0-.14,0-.15,0m1.46.19-.09,0h0l-.1,0-.34,0m.58.09h0v0m-.58.44-.1-.14m.64,0-.35.09h-.19m1-.34,0,0-.15.15-.24,0m-.83-.93-.15,0,0,0,0,0v0m.78-.24h-.29l-.24.05m3.12.29h0m7.61-.63v-.15l-.05,0m-15.8.54h0m-.64-.54h0m.44.59h.15l0,0m0,0-.64-.54m0,0h0l-.1,0m0,0-.19,0-.1.1,0,0v.14l.1.1m0,0,.15.1.09,0,.2,0,.2,0,.19,0m-.59-.54-.19,0-.1.1,0,0v.09m.49-.34h0l-.1,0m.79.49-.64-.54m-.68.59-.1-.1,0-.1v0m.73.44h-.19l-.15,0-.24-.14m1.27.14-.39,0H112m1.13-.19-.2,0-.24.09m6.39-.14-.15-.2v0m.83.83-.68-.58m1,.49-.34.09m-.25-1.12-.09,0-.1.05v.1m1,0-.14,0-.15-.1-.14,0h-.15l-.2,0m1.47.78-.69-.63m1,.49-.34.14m-4.44-1.27h0m-1.9-.34h0m.39-.24h0m2.24-.15v0m-2.68.73h0m2.68-.34h0m-.78-.29h0m-.83-.1h0m2.15-.19h0m-.1,0h0m-2.68.34.44-.1m0,0,.09,0,.1,0m0,0,.83.1m-2.39.73h.59m-.1-.1,2.68-.78m-1.32.78h0l0,0m0,0,.1,0,.1.05h.1l.09-.05m0,0h.1l0,0v0m0,0,.54-.14m0,0,.14,0,0-.1m0,0,.2-.44m0,0,.09,0,0,0m0,0,.2,0m0,0,.14,0,.2,0h.15l.14,0m0,0,.15,0,.1-.1v0m-1,0h0v.1m-3.37.34.3.24m0,0,.49-.14m13.41.92L123,72.72m-.93-.14L91,81.6M123,72.72l-.05,0-.1,0-.15,0h-.09l-.15,0h-.15l-.14,0h-.1m-23.46,9,.49-.15m0,0L99,81.16m0,0,.3-.1m0,0,.39.93m0,0-.35.1m0,0-1.36-.64m0,0,.29,0m0,0,.39.15m3.61.83,1,.83m0,0,.54-.15m0,0,.2.15m0,0-1.52.44m0,0-.19-.15m0,0,.58-.14m0,0-1-.88m0,0,.34-.1m-.49-1.51-.14-.2,0-.14.1-.1.19-.1.15,0h.19l.15,0,.24.1.2.15m0,0,.14.14,0,.15,0,.1-.09,0-.15.1h-.49l-.24-.1-.2-.14m3.17-.93.1,0h.1m0,0,.34.39m0,0-.78.2m0,0-.15-.1m0,0,.59-.15m0,0-.15-.14m0,0h-.1m0,0-.24,0h-.15m0,0h-.14l-.1,0h-.1l-.1,0m0,0,0-.15,0-.14.1,0,.25-.1m0,0,.24,0h.15m0,0,.09.1m0,0h-.19l-.2,0m0,0-.09,0-.1,0v.09l0,0m0,0,0,0h.34l.19,0m3,1.32.1-.05h0m0,0-.43-.39m0,0,.39-.1m0,0,1.17,1m0,0-.3.09-.29.1m0,0-.39.1h-.29m0,0h-.15l-.1,0-.19-.1m0,0-.1-.19v-.1m0,0,.1-.1.1-.09.34-.1m1.31-.93.25,0h.49l.29.1.24.2m0,0,.69.58m0,0-.39.1m0,0-.69-.59m0,0-.09-.09-.15,0-.15,0h-.34m0,0-.15,0,0,.09,0,0,0,.1.09.15m0,0,.69.58m0,0-.34.1m0,0-.69-.59m0,0-.14-.14,0-.15,0-.14.14-.15.29-.1m0-1.61.1,0h0m0,0,.34.39m0,0-.73.2m0,0-.15-.1m0,0,.59-.19m0,0-.15-.15m0,0,0,.05h0m0,0-.25,0h-.19m0,0h-.1l-.15,0,0-.05-.09,0m0,0,0-.1,0-.14.09-.1.2-.05m0,0,.29-.1h.15m0,0,.1.15m0,0H109l-.19,0m0,0-.1,0-.1,0v0l.05,0m0,0,0,0,.1,0H109l.19,0m3.22,1.22-.09-.14,0-.1,0-.15.14-.1.25-.14.34,0h.29l.29.1.25.14m0,0,.14.15,0,.19-.14.15-.25.1-.34,0h-.34l-.24,0-.25-.15m-.48-2.53.19,0,.2,0m0,0,.83.78m0,0-.2,0-.24.09m0,0-.39,0H112m0,0h-.19l-.15,0-.24-.14m0,0-.1-.1,0-.1,0-.14m0,0,.1-.1.14-.1.35-.14m4.24.92.29,0,.15,0m0,0,1.17,1m0,0-.25.1-.29.09m0,0-.39.1h-.24m0,0h-.15l-.1,0-.09,0-.1,0m0,0-.05,0v-.1l.05-.1.1,0m0,0h0m0,0h-.44l-.15,0-.1-.09m0,0-.09-.1v0l0-.1m0,0,.09-.09.15-.1.39-.15m3.22-.92.24,0,.29,0,.25,0,.24.09.3.2m0,0,.63.54m0,0-.34.14m0,0-.69-.63m0,0-.14,0-.15-.1-.14,0h-.15l-.2,0m0,0-.09,0-.1.05v.19l.1.1m0,0,.68.64m0,0-.34.09m0,0-.68-.58m0,0-.15-.2,0-.14,0-.1.19-.15.25-.09m-3.9-1,.09,0,.1,0m-.63.1.44-.1m-.34.2-.1-.1m-.39.24.49-.14m-.79-.1.3.24m.19-.39-.49.15m.59,0-.1-.1m.54,0-.44.15m.78-.15h-.34m1.22.1-.88-.1m1.12.1h-.24m1.12-.24-.88.24m1.12-.54-.14,0-.1.1v.15m.93-.25-.15,0-.19,0h-.2l-.15,0m.49.39.15,0,.1-.1V76l0-.1m-.83.3.14,0,.2,0h.15l.14,0m-.83,0,.2,0m-.34.14.09,0,0,0m-.34.54.2-.44m-.39.59.14,0,0-.1m-.73.29.54-.14m-.69.29h.1l0,0v-.1m-.54.1.1,0,.1.05h.1l.09-.05m-.29-.24-.1,0,0,0v0l0,0m.44-.14-.1,0h-.24m.88-.15-.54.2m.64-.25,0,0h0m.29-.44-.19.39m-2.49.34,2.68-.73m-2.58.83-.1-.1m-.49.1h.59m-.3-.24-.29.24m.39-.15-.1-.09m2.1-.49-2,.58m1.17-.68.83.1M123,72.77l-.05-.1-.1,0h-.15l-.09,0h-.44l-.1,0m0,0L91,81.6m0,0-.14.05-.1,0,0,0,0,0-.05.1.05,0V82l0,0m0,0,5.56,4.78m0,0,0,0,.1,0,.14.05h.1l.15,0h.14l.15,0h.1m0,0,31.11-9m0,0h.15l.1,0,0-.1.05,0v-.2l-.05,0m0,0L123,72.77m-5.27,5.12.34-.09h.25m0,0,.09.19m0,0h-.29l-.24.05m0,0-.15,0,0,0,0,0v.09m0,0,.1,0,.15,0,.34,0m0,0h.29l.29,0,.15.05.15,0m0,0,.09.14-.09.15-.15.15-.24,0m0,0-.35.09h-.19m0,0-.1-.14m0,0,.25,0,.24-.05m0,0,.1,0h0l0,0v-.1m0,0-.09,0h0l-.1,0-.34,0m0,0h-.34l-.25,0-.14,0-.15,0m0,0-.1-.15,0-.19.2-.1.29-.1m-3,2.15.09-.05,0,0v0l0,0,0,0m0,0,0,0m0,0-.3.09m0,0-.14-.14m0,0,.29-.1m0,0-.68-.59m0,0,.39-.09m0,0,.68.58m0,0,.2,0m0,0,.14.15m0,0-.19.05m0,0h0m0,0,.09.19V80m0,0-.14.1-.15,0m0,0-.15,0h-.09m0,0-.15-.15m0,0h.15m-4.59-2-.14,0-.1,0m0,0-.2-.1m0,0h0l.1,0,.19-.1m0,0,.3,0h.48l.25.1.19.1m0,0,.15.14v.15l-.05.15-.19.09-.25.15m0,0-.24,0h-.15m0,0-.1-.15m0,0h.2l.15,0m0,0,.19-.09.15-.1,0-.1-.1-.14m0,0-.1,0-.14,0-.15,0h-.19l-.25,0m1.66,2.1h0l-.05,0m0,0-.44-.39m0,0,.39-.1m0,0,.59.49m0,0,.14.14.1.1m0,0-.29.1m0,0-.2-.15m0,0h0m0,0v.1l0,.1-.09,0-.1,0m0,0h-.05m0,0-.19-.14m0,0,0,0h0m0,0,.1-.05.1,0v-.1l0,0m-4.39-1.27.1.19,0,.15m0,0,.19.39m0,0-.29.1m0,0-.34-.93m0,0,.29-.1m0,0,1.37.64m0,0-.3.09m0,0-.58-.29m0,0L107.6,79l-.2-.09m0,0h0m-1.51.19.14,0m0,0,.35,1m0,0-.15,0m0,0-.34-1m-.1,2.25.34-.1.2-.05m0,0,1.12,1m0,0-.29.1-.25.1m0,0-.58.15h-.39m0,0-.25,0-.19,0-.29-.2m0,0-.15-.14,0-.15,0-.19m0,0,.1-.15.19-.1.44-.14M103,80.53l-.19-.2v-.14l0-.1L103,80l.2,0h.14l.2,0,.24.05.2.15m0,0,.14.19.05.15-.05.09-.1,0-.14,0-.2,0h-.34l-.19-.1-.2-.14m.64,1.85.63-.2m0,0-.15-.34m0,0,.39-.09m0,0,.49,1.17m0,0-.44.14m0,0-1.85-.83m0,0,.39-.09m0,0,.54.24m-3,1.27-.19-.15m0,0,.78-.24m0,0-.35-.29m0,0-.82.24m0,0-.2-.15m0,0,1.22-.34m0,0,1.17,1m0,0-1.17.34m0,0-.2-.2m0,0,.83-.19m0,0-.29-.3m0,0-.78.25m.59-2.64v0h0m0,0-.34-.35m0,0,.24,0m0,0,.44.39m0,0,.15.09,0,0m0,0-.19,0m0,0-.15,0m0,0h0m0,0v0l0,0,0,.05-.09,0m0,0h-.34l-.1,0m0,0h0m0,0,0,.1v0m0,0-.1,0-.1,0m0,0h-.34l-.09,0-.1,0-.1,0m0,0L99.45,81m0,0,.29,0m0,0,.34.29m0,0,0,0h.05l.1,0h.15m.09-.1,0-.05m-.14.15.09,0v0m0-.05,0,0m0,0-.39-.34m0,0,.3,0m0,0,.34.29m0,0,.09,0,.1,0h.15m.1-.1v0m-.1.15,0,0,0,0M25.12,36.24l.05,0h.1m-1.22-1,1.07.93M23.46,34v.19l.05.2,0,.19.1.2.1.19.09.15.1.15.1.09M21.56.15l.05.49.15,4.68L22,10.05l.25,4.73.24,4.78.34,4.78.29,4.78L23.46,34M21.61.15l.05.54.14,4.68L22,10.1l.24,4.73.3,4.73.29,4.78.34,4.83L23.51,34M11.37,47.56,2.54,39.9M75.8,103.4l-29-25.12m0-.09,32.62,28.23M3.61,40.78l7.76,6.68M46.83,73.11l37,32.05M10.39,41.56l.39.34m-.39-.34,14.34-4.15M3.61,40.78,2.54,40m19.85-4.59L3.61,40.78m18.78-5.42.1-1.17m2.24,3.22-2.34-2m3,1.27-.64.78M.15.15.3,5.22l.34,8.54.53,8.63.59,8.73.78,8.78m0,0V40m0,0,20-5.76m0,0v0m-2.2-34L20.63,8l.49,8.64.64,8.73.73,8.77m0,0,2.88,2.49m0-.34v.34M69.7,106.47l3.51,3.08m-3.41-3,3.41,3M69.75,106l0,0,0,0-.05.05,0,0v.1l0,0v0l.1,0m.15-.29,0,0,0,0,0,0v.14l0,0,0,0m9,.05-2.63-2.34m-1.27-.83-.68.29-.69.29-.68.35-.63.29-.64.34-.63.34-.64.34-.58.34M75,103.6l-.69.29-.68.29-.63.29-.69.35-.63.34-.59.34-.63.34-.58.34m9.07.39-2.64-2.29m-.83-.78h-.24l0,0H75l0,0m.48-.25h-.29l0,.05H75l0,0m1.22.44-.1-.2-.15-.14-.14-.1-.15-.1h-.15M76,104l-.1-.2-.1-.1-.14-.09-.1,0-.15,0m.74.78L76,104m.24.29h-.09m.09,0-.14-.39m-2.93,5.66-3.41-3m0,0,0,0,0,0v-.14l0,0,0,0,0,0m0,0,.58-.34.63-.34.59-.34.63-.34.69-.35.63-.29.68-.29.69-.29m0,0,0,0h.14l0,0h.24M76,104l.15.29m-.74-.78.15,0,.1,0,.14.09.1.1.1.2m.15.29,2.63,2.34m-2.63-2.34h-.74m0,0h-.09m0,0-.69.29-.68.34-.63.3-.64.29-.63.34-.63.34-.59.34-.59.34m0,0h0v0m0,0,2.93,2.54M113.3,20.88l.29-1.12m1.32,1-.68-1.22m-1.9.34.48-.29m1.56-.19-.34.24m1,0-.64-.24m.3.48.34-.24m-.15.63-.1,0,0-.05-.1,0v-.2l0,0m.68.54-.49-.15m0,.49.44-.34m-.93.2.49.14m-1.27-.1,0,0h.1l.1-.05h.44l.09.05m-1.12.29.34-.25m-1,.05.68.2m-.34-.44-.34.24m.19-.63h.1l0,.05.05,0,0,.05v.14l0,.05-.05.05m-.63-.59.48.2m0-.49-.44.29m.92-.14-.48-.15m1.26.05-.09.05,0,.05h-.1l-.1.05h-.24l-.1-.05h-.1m-.58,2.14-.83-.19-.73-.34-.54-.39-.29-.44,0-.49.19-.44.39-.44.64-.34.78-.24.88-.2h1l.93.1.83.19.73.3.49.39.34.44,0,.48-.2.49-.39.39-.63.39-.78.25-.88.14-1,.05-.92-.1m-2.2-3.56.34-.34.64-.39.78-.24.88-.15,1-.05.93.1.83.2.73.34.49.39.14.14m8.34,38-.19.39-.34.29-.49.2m-9.8-1.71v.19l0,.25.1.14m-10.39,2.35L112,60.19m0,0,.69.15h.68l.63-.15m2.93-.83-2.93.83m9-2.54-4.24,1.22M123,57.65l.49-.24.34-.29.14-.35m-8.73-1.51.2.05.34.1.29.1.34.14.1.1m-2.58.63h0l-.1-.19-.05-.2v-.34M126,52.09l-.49,4.15m-1.61.53.54-4.19m18.44-9.66.53.54.39.54.25.53,0,.49,0,.44-.25.39-.39.34-.39.15M81.36,55.21l0,.15.1.1.1.1.1,0,.09.1h.39m-1.51-4.58-.09.05-.1.09,0,.1-.05.15,0,.14,0,.1v.15m0,0,1,3.31m-.25.1,0,.15,0,.1.1.09.09.1.1,0h.39m-1.41-4.63-.1,0-.1,0-.09.1,0,.1,0,.14V52m0,0,1,3.32m-22.63-14v-.1l.15-.34.19-.35.39-.29.44-.24.59-.2m21.94,16,7-2.05M81.89,55.8l7.17-2.1M87.7,49.07l-7.22,2.1m8.58,2.53h.15l.1-.1,0-.09.1-.1,0-.15V53l0-.15m-1-3.31,0-.1-.05-.1-.1-.1-.1-.09L88,49.12l-.1,0H87.7M68.19,37.46l1.41,1.27m-1.41-1.27-7.95,2.29m7.95-1.07V37.46M89.45,52.87l-1-3.31m8.34-6.1.19-.29.39-.34m2.78,7.8-1-.1-.15-.05m12.39-9.95.19-.14.25-.15m1.7,4.83-.53,0h0M74.48,67l0,0M126,52.14h0m.44-.19-.44.19M105.89,26.58l1.46,1.27m-1.46-1.27L70.82,36.68m35.07-8.92V26.58M70.82,36.68V37.9m72.09,5L121.2,24.15m-4.73-.64-8,2.29m0,0V27m8-3.51.64-.14.68-.05.63-.05.69.1.63.09.58.2.49.19.39.3m-14.73,4.14-.58-.53m0,0L70.82,37.9m0,0,.59.54m-2.64.73-.58-.49m0,0L60.24,41m0,0-.59.2-.44.24-.39.29-.19.3-.15.34.05.34.15.34.29.29m0,0,7.8,6.78m-1.41-4.73v-.14l0-.1,0,0,.09,0,.1-.05m55.07-15.9h.14L121,29h.14l.15.05.1.05h.14l.1.1.1.05m17.75,15.41L121.74,29.27m17.75,15.41.44.39.34.44.2.44.05.39-.05.34-.2.34-.34.24-.29.15m2.29-.68-2.34.68m2.34-.68.49-.2.34-.24L143,46l.15-.39v-.39l-.15-.49-.24-.49-.39-.44-.49-.49M121.2,25.37l20.68,17.89M121.2,25.37l-.39-.3-.49-.24-.58-.15-.63-.14-.69-.05h-.63l-.68.09-.64.15m0,0-8,2.29m0,0,.64.54m2.19,17.36.39.2.73.19.73-.09m0,0,.69-.3.48-.53.35-.69.09-.83-.09-.78-.35-.73-.53-.58-.64-.44-.73-.15-.73.05-.68.34-.54.54-.29.63M89,54.48l-7.17,2.1m0,0h-.48l-.25,0-.24-.1-.2-.19-.19-.2-.1-.19-.1-.25m0,0-1-3.31m0,0,0-.3v-.24l0-.29.1-.25L79.4,51l.2-.2.2-.14.24-.1m0,0,7.17-2m0,0,.24-.05h.25l.24.1.24.1.2.14.19.2.15.24.1.25m0,0,1,3.31m0,0,0,.25v.29l0,.24-.09.25-.1.24-.2.15-.19.14-.25.1M65.65,45l55.07-15.9M82,55.56l-.29.09m6.34-4.53.68-.25m-7,1,.35,1m0,0,6-1.7m0,0-.3-1m.69-.29L84.23,51m-2.44.83L84.23,51m3.56-.93-6,1.76m6-1.76.69-.24m-5,1.41L83.4,51m1,3.17-.59-1.85m5.61.48-5,1.42m4.88-1.32L83,54.77m4.58-1.36h0m-.44.15h0m-2.73.63h0M80.67,51.9l-.29.05m.24-.05-.24.05m1,3.26.24,0m.05,0h0m.34.19h0m-.34-.19v0l0,0h0l0,.05h0l0,0H82m-.1-.19.1.19m-.15-.24-.19.05m.29-.1-.1,0m0,0h0l0,.05m0,0,.15-.05m2.39-.88v0h-.05v-.05M80.62,51.9h0m1,3.27H81.6m.34-.1h-.1v0H81.7l0,.05M81,51.8l-.1.05m0,0-.2,0m.25-.15h0v.1m-.05-.29h0v0l0,0,0,.05v.2m.34-.2-.09,0m-.1-.19h0m0,0,.1.19m6,1.9-.3.05m0,0h.05m0,0h0m.44-.14h0m0,0h0m0,0,.25-.1m.83-.25-.83.25m-2.88.78,3.71-1m-1.27.44L85.7,54m0,.64-.1-.34M82,55.41l.1.29m-.1-.34,0,0v-.1l0,0v-.05H82m-.05.29h0v0M85.7,54h0l0,.05v.25m1.22-.69L85.7,54m3.7-1.22-1.26.39m0,0-.83.25m0,0,.29-.05m0,0h0m0,0h0m-.44.15h0m0,0h0m0,0-.24.09m-1.12,1-.1-.34m3.8-1.08v.1m-.1-.1.05.2m0-.29h0v.09m-3.8,1.08v-.25l0-.05m3.65-.83h0v0M89.26,53h0m-1-3.71v.1h0m-.15,0h0v0m-7.36,2.15h0v-.05m.19.19h-.09v-.05l0,0-.05,0m-.1-.44.1.39m7.46-2.2,0-.1m0,.15-.09-.24M89.26,53h0v-.1m0,.1.09.19m0,0h0l.05,0,0-.05,0,0v0m-.19-.1h.09m-.09,0,.14-.05m-1-3.22h-.15m-.1,0,0-.2m.15.24h0v0h0m.25-.1h0l-.05,0h0l0-.05h-.1m0,0h.15m-.15,0h0m1.27,3.46h0l0,.05m9.66-10.14-1.8.48m0,0L96,43.75m0,0-.25.25m2.49,6.73h-.15m3.13-.88-2.78.78m.68-7.8L96,43.75m5.22,6.1.14-.05m-2.14-7-.1,0m2.1,7,.53-.73.39-.88.15-1,0-1-.29-.93-.49-.87-.68-.74-.78-.53-.88-.34m.39,4.58-.1-.78L99.06,46l-.54-.54-.68-.34-.68-.1-.68.2-.54.44-.39.63L95.4,47l.15.78.29.68.54.54.68.34.68,0,.69-.19.53-.44.39-.59.15-.73m-.29-1.56.34.73.1.78-.1.78-.34.68-.49.54L98,49.7l-.74,0-.68-.14-.68-.4-.54-.63-.29-.68L95,47.07l.1-.78.34-.68.54-.54.63-.29.73-.1.74.19.63.39.54.59m1.36,1.41-.14-.92-.39-.88-.54-.73-.73-.59L98,43.8l-.88-.15-.83.15-.78.34-.63.54-.49.73-.29.88,0,.93.14.92.39.83.54.78.73.54.83.39.83.1.83-.1.78-.34.63-.59.49-.73.29-.83,0-.93m-.83,2.93.64-.29.63-.59.49-.73.29-.83,0-.92-.15-.93m0,0L101.3,45l-.53-.73L100,43.7l-.78-.34-.88-.14-.83.14-.15,0M206,91.45l-.05.44.05.34.24.29.34.15.39,0,.44-.19.3-.34.24-.39.1-.44-.1-.39-.24-.25-.3-.14-.44,0-.39.19-.34.34-.24.39m2.78-1.8-.24.09m-3,2.54-.1-.49.1-.53.29-.54.44-.39.54-.24.49,0,.43.14.3.35.1.48-.1.59-.3.49-.43.43-.49.25-.54,0-.44-.15-.29-.39m-.73-1-.1.73.1.63.34.54.49.29.63.1.68-.15.69-.34.58-.54.44-.68.2-.73v-.68l-.2-.59-.44-.44-.58-.19-.69,0-.68.24-.63.44-.49.63-.34.69m4.68-.74-.1-.09m-3.12,3.65.05.05M113.5,42.92l0-.44-.2-.43-.34-.3-.44-.19-.39,0-.39.19-.29.34-.1.44,0,.49.24.44.3.29.44.15.44-.05.34-.2.29-.34.1-.44m.39,1.91.19-.1m-1.61-4.54-.14.05m1,1.66.24.54.1.58-.14.59-.35.44-.48.24-.54.05-.54-.2-.44-.39-.29-.53,0-.64.15-.53.34-.44.49-.3.54,0,.53.24.44.39M114.47,43l-.1-.78-.34-.68-.53-.59-.69-.39-.68-.09-.73.09-.63.39-.44.59-.25.73V43l.25.78.44.64.58.48.73.25h.69l.68-.25.53-.48.35-.69.14-.78M93.94,48.14l.1-1.27m.58,2.1-.68-.83m6,3.27-1.61.49-.64.14m0,0-1.07-.87-1-1m-1.37-4.63v-.2L95,42.78m5-1.47-2.1.59-.15.05m0,0-1.22.39-1.36.39m0,0-.2.05m0,0,1.08-.3,1.17-.34m5.36,8.54-1.8.53-.78.2m-1.42-.78h.15l.93,0,.58-.1m-2.73-7.8-.2.09-.78.59-.09.15m.78-1.47.14,0,2.44-.68m-1.85,9.37.19,0,.93,0,.93-.19.83-.44.68-.63.54-.83.29-1,0-1-.2-1m0,0-.39-1-.63-.83-.78-.64-.88-.44-.93-.19-.92.1-.88.29-.78.58-.39.44m1.61-2-.54.2-.49.29-.49.34-.39.39-.39.49-.29.54-.19.53-.15.59m0,0,0,.34m1.46,4.39.4.34.53.34.54.29.53.2.59.15.59,0,.53,0,.59-.15m0,0,.53-.2L101,51l.44-.34.44-.44.34-.44.29-.54.25-.58.14-.59m-1.41-4.63-.44-.39-.49-.34-.53-.29-.54-.2-.59-.14-.58,0-.59,0-.53.09m5.7,5.9,0,.2-.29,2.44m0,0,.2-.1m0,0,.39-1.32.34-1.41m0,0v-.2l.29-2.39m-.19.05-.39,1.37-.3,1.36m0,0,.1-.58v-.63l-.1-.64-.14-.58-.2-.64-.29-.53-.34-.54-.44-.49m0,0,.15.15,1.95,1.75m0,0,.19-.05m0,0-.78-1-.93-1m0,0-.14-.15-2-1.76m-.2.1.2-.1m-.2.1.83,1,.88,1M98.67,51.9l1,.05,1.07-.15m-1-10.49-.58-.09-1,.05-1,.29-.93.53-.53.49M103,50.29l.29-.39.49-1,.29-1.07,0-1.17-.14-1.17-.39-1.07-.59-1-.78-.88-.93-.63-1-.44m.44,10.34,1-.44.83-.63,0,0m-1.51,1,.78-.34.83-.63.68-.83.54-1,.29-1.07,0-1.17-.15-1.17-.39-1.07-.63-1-.73-.88-.93-.63-1-.44-1.08-.24-1.07,0-.73.19m11.41-11.22-.1.83m1.37-.24-.1-.24m-.88-.49-.09.09-.15.05-.19,0h-.2l-.1,0m.93-.44-.1.1,0,.1,0,.1m.64-.2-.1-.05h-.14l-.2-.05m.29.39,0,0,.05-.1,0-.15m.1.64h-.1l-.15,0,0-.1v-.1l0-.1m.69.4h-.25l-.19-.05m.24.29,0-.1,0-.05.1-.09m-.64.24h.44m-1.12.1.1-.05.09,0h.49m-.93.24.1-.05h0l.1-.09m-.68.05.09,0h.15l.19.05m-.29-.24,0,0,0,.05,0,.05m-.1-.49.14,0,.1.09,0,.1v.05l0,.05m-.68-.54.15.05.09.05.2.1M108,30l0,.1,0,0-.1.1m.63,0-.09-.05-.15,0L108,30m-1.12.68-.14-.05m34.77,87.6.1-1.32m.39,1-.1-.64m.1.64v-.15m-1.56-.05.14-.24m2.39.14-.14-.24m-2.54-6.68.05-.2.29-.24.39-.2.54,0,.54,0,.48.1.35.24.14.25m0,0v0m-2.19,7.07.19,0,.15,0,.14,0,.1.09v0m-1-.34h.14l.1.05h.2m-.49-.29v.14l.05.1m.39-.2h-.1l-.15,0h-.19m1-.25,0,.1,0,.1-.15,0-.15,0h-.14m.49-.63v.2l0,.14m.49-.34h-.53m.58.34-.05-.1v-.24m.59.59h-.15l-.15,0-.14,0-.1-.1v0m1,.15h-.15l-.1,0-.24,0m.53.14v-.1l0,0v-.1m-.44.34h.14l.15,0,.19,0m-1,.34h.05l0-.09.14,0,.15,0,.1-.05m-.44.44v-.05l-.05,0v0m-.49.2h.15l.14,0h.25m-.59-.1h0v.15m-2-.39-.29-.15-.39-.39-.1-.15m6,0-.29.39-.54.34M117.2,59.12l-.24-.83m-1.07.48-.1.35m.29-.93-.14.44m1-.34-.15.05-.14,0h-.2l-.19,0,0-.05m1.07-.25-.1.1-.09,0-.15.1m.73,0-.1-.05-.09,0-.2-.1m0,.44.1,0,.1-.09.14-.1m-.39.63-.1,0v-.19l0-.1.1-.05m.29.49-.09,0h-.1l-.15-.05m0,.25.1,0,.1,0,.19-.05m-.73.1h.1l.1,0h.14m-1.07-.1h.68l0,0m-1.07,0h.1l.09,0,.15,0m-.73-.1.1,0,.09.05.2.1m-.05-.3-.1,0h-.09l-.15.05m.39-.44.1.1v.15l0,.09h-.1m-.29-.63.1.1.09.05.15.14m0-.44-.1.05-.1,0-.19,0m.73.1-.1-.1-.1,0-.14-.1m-1.51.83-.1,0-.49-.34v0M154.27,129l-.05-1.27m-.39.83v-.05m1.56.05-.14-.2m-2.39.05.14-.19m-.24-6.68v0l.19-.3.34-.19.49-.15h.54l.49.1.44.15.24.24,0,.2m-2.25,7,.2,0,.15.05.09.09.05,0v.05m-.92-.44.14,0,.1.05.19.05m-.39-.39v.1l0,0v.1m.53-.14h-.14l-.15,0-.2-.05M154,128l0,.15-.1.05-.14,0-.2,0-.1,0m.64-.54v.1l-.05.09v.1m.58-.24-.14,0H154m.48.34v-.19l.05-.1m.44.58h-.19l-.15,0-.1,0-.05-.1V128m.93.24h-.15l-.09,0H155m.39.2v-.05l.05-.05v-.15m-.54.35.15-.05h.15l.19,0m-1.07.34.05-.1.1,0,.14-.05.2,0h.09m-.63.34h0l0-.05v0m-.59.1h.54m-.49-.15v.1l-.05.05m-1.8-.34-.05-.05-.54-.34-.24-.35m6.05.1-.1.15-.49.39-.19.1M71.06,41.07l-.19.78m1.41-.1-.09-.29M71.65,41,71.5,41l-.14,0H71l-.1,0m1-.34,0,.1-.1,0-.1.14m.68-.14-.09,0-.15-.05-.2,0m.2.44,0-.1.1-.1.09-.09m-.09.63-.15-.05-.1,0v-.09l.05-.1,0-.05m.49.39h-.2l-.14,0m0,.29.1,0,.1-.09.1-.1m-.69.19h.25l.14,0m-1.12,0,.15,0h.58m-1,.15H71l.09-.05.1,0m-.68,0,.1,0,.09,0,.2.05m-.15-.24-.09,0,0,0h-.1m.1-.43.14,0,0,.1,0,.1,0,.05,0,0M70.19,41l.09,0,.15.1.15.1m-.1-.44-.1,0,0,.05-.14.1m.68,0-.1-.05-.1,0-.19-.09m-1.32.73-.19-.1-.2-.15m8-10V30.1m1.22.78-.15-.2m-2.34-.05.2-.24m1.75-2.54.69.15M77,31.17l0-.1.09-.05.2-.05h.14l.15,0m-.78.34h.05l0-.05,0,0m-.64,0,.15.05h.34m-.39-.2-.05.05v.05l0,0M76,30.78l.2,0,.09.05.1.09.05.05v.05m-.88-.44.15.05.14.05.15.05m-.34-.39v.05l-.05.1,0,.09m.59-.14H76l-.15,0-.19-.05m1.12-.1,0,.1-.14.1-.15.05h-.2l-.09-.05m.73-.49v.1l-.05.09,0,.1m.64-.24h-.15L77.11,30h-.24m.44.34v-.05l0-.1,0-.14m.29.63h-.15l-.14-.05-.1-.09v-.2m.83.29-.1.05H77.7m.34.2,0-.05v0l0-.15m-.54.3h.24l.2-.05m-3.41.05h0l-.54-.35-.25-.34m6-.1-.09.25-.44.39-.3.15m21.51,61.25.1-.83m1.27.59-.1-.24m-1,.34.09-.05.15,0h.44m-.93.24.1-.05h0l.1-.09m-.69,0h.1l.15,0,.19.05m-.24-.24,0,0-.1.05-.05,0M100,91.6l.14.05.1.09,0,.1v.1m-.68-.54.09,0,.15,0,.15.1m-.2-.44,0,0-.05.1-.09.09m.63-.05-.15,0-.09,0-.2-.1m1.17,0-.1.1-.14,0-.2.05-.19-.05h-.1m.93-.43,0,.09-.1.1,0,.1m.64-.2h-.1L101.4,91l-.19,0m.29.39,0,0,0-.1.05-.15m.09.69-.14,0-.1-.05,0-.1v-.1l0-.09m.68.39h-.44m.2.24,0,0,.09-.1.1-.09m-.68.24h.44m-3.27-.1-.44-.29-.34-.39,0,0m6,0h0l-.39.44-.39.24M42.34,41.31l-.1-1.26m-.39,1.26L42,40m1.41.83-.15-.25m-2.39.2.15-.25m1.37.64,0-.1.09,0,.1-.05.2,0,.09-.05m-.58.44,0,0v-.1m-.54.14h.49m-.49-.14v.14m-.54-.44.2.05.15,0,.09.05.1.1v.05m-1-.39H41l.15,0,.19,0m-.44-.34v.25m.49-.2h-.14l-.15,0h-.2m1-.09-.1.09-.14,0-.15.05-.1-.05m.54-.24,0,0m0-.39v.34m.54-.29h-.3l-.24,0m.54.34v-.29m.53.58h-.19l-.15-.05-.1,0-.09-.09v-.1m1,.19-.15,0h-.09l-.2.05m.44.2v-.3m-.49.34h.15l.15,0h.19M40,40.92l-.25-.09-.43-.39-.15-.25m6,.1-.2.24-.48.39h-.1m84.37,54.14.88.78m53.31,6.93V84.28m-4.24-3.66,4.24,3.66M128.71,95.06l-18.87,5.46m-3.61,4.64.73-.3.64-.39.63-.48.54-.64.48-.68.3-.68.24-.74,0-.73m-15,7.9,11.36-3.26m-11.36,3.26v32.63M212.75,94.18,182.27,103m0,0-.69.15-.68,0-.63-.15-.54-.29-.44-.39-.34-.54-.2-.63-.09-.63m0,0V80.62m0,0-13.17,3.81m-25.66,9.22-8,2.34m0,0-.44.1-.49,0-.44,0L130,96l-.39-.2-.39-.19L129,95.4l-.25-.34m3.95-5.22.2.1.63.15h.69l.63-.1.34-.15m-9.41-1.22v-.14l.14-.3.25-.34.34-.29.44-.24.58-.2m4.44-1.27-4.44,1.27m24-6.92-9.07,2.63m9.07-2.63L152,80l.68-.05h.68L154,80l.63.1M132.23,90.57l.19.3.44.24.63.15.69,0,.63-.1.49-.25.29-.29,0-.34-.2-.34-.48-.25-.59-.14h-.68l-.64.1-.48.19-.3.34,0,.34m-6,.1,6,5.17m.24-9-5,1.46m24-6.93L142.32,84m-14.83,4.29-.58.2-.44.24-.34.29-.25.29-.14.35.05.34.14.34.3.29m57.3-7v.92m10,11.91.2.58.05.1M197,93.55l-.25-.1-.49-.1m9-.09.19.48.15.25m3.61-4.15-.1,0-.63-.19h0m-15.27,6.53.25.59.39.39.58.24.69,0,.68-.24.63-.44.49-.63.34-.69.1-.73m0,0-.1-.63-.34-.54-.49-.29-.49-.1m8.93-.58v.34l.24.63.39.44.54.29.68.05.69-.14.73-.34.58-.54.49-.68.34-.74.1-.73m0,0-.1-.68-.34-.54-.49-.39-.58-.14h-.49m-17.22,3.07-.09.63.09.59.34.44.44.29.59,0,.63-.2.59-.39.49-.53.29-.64.14-.63-.14-.59-.29-.43-.49-.3-.59-.05-.63.2-.59.39-.44.54-.34.63M69,85.21l-.29-.44-.05-.49.19-.53m0,0,.44-.49.63-.39.83-.29,1-.2,1-.1,1,.1,1,.2.83.29.68.39.44.44.25.53-.1.54-.24.44m-8-1.71v-.14l.19-.49m0,0,.44-.49.63-.39.83-.34,1-.2,1,0,1,0,1,.2.83.29.68.39.44.49.25.54v.14m-7.76,2.39-.09-.19-.1-.39m7.61,0,0,.14-.2.44m-3.85,2.49.15-1.17m1.8.68-.24-.29m-2.93-.49-.34.2m2.88.29-.2,0-.15,0-.09-.15,0-.09,0-.1m1.27.44H73.8m.63.29,0-.1,0,0,.1-.15m-1,.29h.83m-1.66.2.1,0,.15-.1.19,0h.39m-1.12.49.1,0,0-.1.14-.14m-.83.24h.15l.15,0h.24M72.19,88l-.1.1,0,.09-.1.15m-.19-.73.19.05.15.1.1.09V88m-1.27-.68.24.09.25.1.34.1m-.69-.54,0,.1,0,0,0,.1m1,0-.29-.1-.24,0-.35-.1m1.71,0-.1.15-.19.05-.2,0h-.34m1.12-.74-.09.15-.1.15-.1.19m.83-.44h-.15l-.14-.05h-.25m.3.59,0-.15.09-.14.1-.25M111,99v1.22m54.48-15.75,13.17-3.81M111,100.18l19.65-5.66m48-13.9V79.45m4.19,4.78-4.19-3.61m4.19,3.61V83.06m-22-12.87.29.29.14.34,0,.24M147,58.19l13.81,12M127.3,61.9l15-4.35m-15,6.15V61.9m15-4.35.64-.09.63-.1h.68l.69,0,.63.1.59.19.48.25.39.24m8.1,14.29.39.24.19.3,0,.29-.25.29-.49.2-.53.09-.64,0-.53-.09-.39-.25-.2-.29,0-.29.24-.29.49-.2.54-.1.63,0,.54.1M142.66,61.7l.39.24.2.3-.05.29-.24.29-.49.2-.54.1-.63,0-.54-.1-.39-.25-.19-.29,0-.29.25-.29.44-.2.58-.1.64.05.53.1M147,60l13.81,12M147,60l-.39-.24-.48-.24-.59-.2-.63-.1-.69-.05h-.68l-.63.05-.64.15m-15,4.34,15-4.34M131.15,67,127.3,63.7m5.8,2.93-.24-.15-.29-.1h-.69l-.34.1-.24.1-.1.19,0,.1m11.27,7.85-1-.92-4.09-3.56-4.2-3.61M142.57,75v0l-.1-.2h-.05m2.19,4-2.09-1.8m15.55-2.1-13.46,3.9m15.17-4.39.34-.14.44-.25.39-.29.25-.29.09-.34,0-.34-.14-.35-.29-.29M137.35,87.11l-2.78-2.39-.78-.68-.2-.15-.1-.1-.09,0-.25-.1-.24-.1h-.59l-.29.1-.24.1-.15.14,0,.15v0m25.22-4.73-.05,0,0,.15v.29l.1.39.19.35.2.34.34.34.53.49.83.73,1.52,1.27,1,.87,1,.88,1,.83.1.1.09,0,.1,0M52.78,29.85l.39.34m20,78.28v32.58M90.57,81.89h0m38.05-4.19h0M25.27,36.29,150.51.15M69.55,98v8.29m43.51-86,.19-.39,0-.19m1-.29.34.63m2.58.68.3-.44.14-.63-.1-.64-.24-.58-.15-.15m-6.68,0-.09.15-.3.58,0,.59.15.63.29.54M123.06,57.6l1.56-.48M71.26,65.07l.15.43.44.64.58.54.68.29.73.1.64,0m67.6-20.34,1-.34M58.48,41.27v1.17m6.88,2.92,5.9,19.71m3.22,2L126,52.14m.15,0,13.51-4.68M80.82,51.56h0m.19.14,7.22-2.09m1.12,3.6.15,0m-1.07-3.52,1,3.27m9.07-2.29,1.27-.44M97.4,43.41l-1.27.44M205.19,93.26l1.07.87m3.12-3.65-1-.88m-95.3-44.48.83-.29m-1.56-4.59-.83.29m-14,.88-.15.05m3.56,10.24.15-.05m7.51-20.92.1-.49m.83-.53.14.63m2.1.05.2-.15.29-.44.15-.44-.1-.48-.3-.39-.43-.39-.64-.3-.78-.19-.83-.05h-.44m0,0h-.39l-.78.15L107,28l-.54.39-.39.39-.14.44,0,.49.19.44.44.39.24.09m.1.1.49.2.59.19.53.1.59,0,.58,0,.54-.1.58-.19.49-.2m30.39,77.16-1.32,2.73m2.68,0-1.36-2.73m.34,10V118m1.07-3.12v-4.19m-2.78,0v4.14m1,2.49.09-.44m3.51-.58-.09-.3-.3-.39-.48-.39-.64-.29-.78-.15-.44,0m0,0-.39,0-.83,0-.78.15-.68.25-.58.34-.35.44-.14.43.05.49.09.2m6.2,0,.14-.29v-.39m-5.46,1.51.54.24.54.15.58.1.54,0,.58,0,.59-.1.53-.15.54-.24M117,58.24l.14.53m-1.26,0,.14-.54m2.69.68.39-.24.43-.44.2-.44v-.49l-.24-.44-.39-.39-.54-.34-.73-.19-.83-.15h-.88m0,0-.78.1-.73.19-.64.34-.43.44-.25.39v.49l.15.44.24.29m.64.44.48.25.59.14.54.1.58,0,.59,0,.53-.1.59-.14.49-.25m35.45,59.75-1.36,2.73m2.68,0-1.32-2.73m-.39,10.19.05-.34m1.71-2.78V121.5m-2.78,0v4.19m1.66,2,.09.44m2.88-.59v-.34l-.14-.44-.3-.39-.48-.39-.69-.24-.78-.2-.83-.05m0,0-.83.05-.78.15-.68.29-.54.39-.34.39-.09.44,0,.44m6.25.29.19-.39m-5.46,1.08.54.24.53.15.59.09.58.05.54-.05.58-.09.54-.15.54-.24M70.77,41.56l.15-.54m.93-.29.14.58m.34.64.15-.05.78-.2.63-.29.44-.44.25-.39,0-.49-.15-.43-.34-.39-.49-.35L73,38.63l-.83-.14-.54-.05m0,0h-.29l-.83.05-.73.19-.68.29-.54.39-.29.39-.1.49.1.44.29.44.24.19m.39.25.54.24.54.15.58.1.59,0,.58,0,.54-.1.53-.15.54-.24m2.83-10.49.1-.58m.68-.44.1.44m.14-2.69H76.28l-.14.05m0,0-.69.1-.68.24-.58.35L73.8,29l-.15.44v.49l.15.24M80,30l.1-.15v-.49l-.2-.48-.39-.34-.58-.35L78.23,28h-.09m-3.51,3,.19.09.24.1.2.05.19.1.2.05.24,0h.2l.24.05.34.05H77l.34-.05.39-.05.34,0,.34-.1.34-.15.29-.14m21.27,61,.14-.54m.83-.39.15.54m.68-2.68-.34,0-.83,0-.78,0m0,0h-.05l-.78.15-.68.24-.54.39-.34.39-.14.49.09.49v0m6.25.1.14-.34,0-.49-.19-.44-.39-.39-.59-.34-.63-.19m-3.61,3,.15,0,.14,0,.1,0,.15.05.14,0,.15,0,.15.05.14,0,.39.1h1.32l.39-.1.44-.1.39-.14.39-.15M42.44,40.44h0m-.54,0v0m0-.2L42,40m3.27.19.09-.14,0-.49-.1-.44L45,38.68l-.49-.34-.68-.29L43,37.9l-.78-.1H41.8L41,38l-.73.19-.63.35-.44.39-.25.43v.44l.1.3m.93.87.24.15.25.1.24.1.29,0,.25.1h.29l.29.05h.83l.34-.05.25,0,.29-.09.29-.1.29-.1.25-.15m81.4,47.7v1.17m87-13.65L182.9,84.77M190.65,94l3.86,3.31m2.73-3.12-3.85-3.36M76.92,84.38V83.5m-8.29,0v.88m8,.93v-.93m-7.61,0v.93m3.22,2.63.19-.63m.68-.83.25.87m3-1,0-.78m-7.22,0,0,.78m0,0,.1.59.29.53.44.39.59.39.73.25.83.14.87,0,.88-.14.78-.25.69-.34.48-.49.3-.53.14-.59m85-13.51V71.06M166,80.14v0l-.1-.34-.15-.2,0-.1m-23.41,5.61,0-1.85.25-8.24m-11.42-8.1.2,8.58.24,8.64m6.93,2.63-1.22.39-.88.1H136v.05m-4.39-3.17L132,86l.39.73.54.68,1,1,.74.68L136,90.28l1.61,1.42.88.78.92.83.88.73.88.73.88.58.44.25.19.14.29.05.69.15.92,0,1.17-.15,1.37-.54m18.53-15.85-.05,0L165.1,79l-.88-.74-.83-.73-1.85-1.61-.93-.83-.49-.39-.24-.19-.1-.1m.05.05-.05-.05-.34-.19-.29,0h-.44l-.29.14-.2.25-.15.24,0,.29m0,0V77.8M166,82.87V80.14M158,77.8l-.1.34-.2.44-.39.43-.24.2-.29.15m6.92,7.12.49-.34.44-.44.73-1,.44-.92.15-.88m-9.17-3.51-10.44,4-7.85,3.36m8.63,8.58,4.29-2.09,4.2-2.2,8.09-4.53"/>
      <line class="cls-1" x1="154.17" y1="118.58" x2="154.17" y2="91.78"/>
      <line class="cls-1" x1="154.17" y1="80.34" x2="154.17" y2="72.31"/>
      <line class="cls-1" x1="154.17" y1="64.38" x2="154.17" y2="34.89"/>
      <line class="cls-1" x1="141.73" y1="107.81" x2="141.73" y2="61.53"/>
      <line class="cls-1" x1="141.73" y1="57.72" x2="141.73" y2="24.11"/>
    </g>
  </g>
</svg>
