<svg id="レイヤー_1" data-name="レイヤー 1" xmlns="http://www.w3.org/2000/svg" xmlns:xlink="http://www.w3.org/1999/xlink" width="233.15" height="182.57" viewBox="0 0 233.15 182.57">
  <defs>
    <style>
      .cls-1, .cls-2, .cls-5, .cls-7, .cls-8, .cls-9 {
        fill: none;
      }

      .cls-2 {
        stroke: #3e3a39;
        stroke-miterlimit: 10;
        stroke-width: 0.57px;
      }

      .cls-3 {
        fill: #3e3a39;
      }

      .cls-4 {
        fill: #231815;
      }

      .cls-5, .cls-7, .cls-8, .cls-9 {
        stroke: #231815;
        stroke-width: 0.28px;
      }

      .cls-6 {
        clip-path: url(#clip-path);
      }

      .cls-7, .cls-8, .cls-9 {
        stroke-linecap: round;
        stroke-linejoin: round;
      }

      .cls-7 {
        stroke-dasharray: 0 0.85;
      }

      .cls-8 {
        stroke-dasharray: 0 0.85;
      }

      .cls-10 {
        fill: #fff;
      }
    </style>
    <clipPath id="clip-path" transform="translate(0)">
      <rect class="cls-1" width="233.15" height="182.57"/>
    </clipPath>
  </defs>
  <line class="cls-2" x1="5.08" y1="24.45" x2="228.07" y2="24.45"/>
  <line class="cls-2" x1="5.08" y1="43.58" x2="228.07" y2="43.58"/>
  <line class="cls-2" x1="5.08" y1="62.72" x2="228.07" y2="62.72"/>
  <line class="cls-2" x1="5.08" y1="81.85" x2="228.07" y2="81.85"/>
  <line class="cls-2" x1="5.08" y1="100.98" x2="228.07" y2="100.98"/>
  <line class="cls-2" x1="5.08" y1="120.12" x2="228.07" y2="120.12"/>
  <line class="cls-2" x1="5.08" y1="140.67" x2="228.07" y2="140.67"/>
  <path class="cls-3" d="M5.08,20.48V11.26h5.76v9.22Z" transform="translate(0)"/>
  <g>
    <path class="cls-3" d="M24.52,14a9.09,9.09,0,0,1-1.6.31v1.27a6.53,6.53,0,0,1,1.76-.31c1.51,0,2.67.77,2.67,2.25A2.13,2.13,0,0,1,25,19.84,2.17,2.17,0,0,1,23.29,19a6.09,6.09,0,0,0,.58-.88,1.51,1.51,0,0,0,1.16.63,1.11,1.11,0,0,0,1.14-1.24c0-.74-.54-1.26-1.52-1.26a6.4,6.4,0,0,0-1.73.31v1.83A1.54,1.54,0,0,1,21.24,20a1.58,1.58,0,0,1-1.72-1.57,2.36,2.36,0,0,1,1.12-1.78A6.5,6.5,0,0,1,21.81,16V14.42c-.61,0-1.29,0-2,0l0-1.1c.77,0,1.45,0,2.06,0V11.75l1.46,0c0,.11-.1.19-.24.21,0,.36-.05.78-.07,1.21a6.2,6.2,0,0,0,1.41-.34Zm-2.71,3c-.53.33-1.24.74-1.24,1.36a.63.63,0,1,0,1.25,0C21.82,18.13,21.82,17.59,21.81,17ZM27,14.91a6.86,6.86,0,0,0-2.08-1.23l.57-1a7.07,7.07,0,0,1,2.16,1.2Z" transform="translate(0)"/>
    <path class="cls-3" d="M36.41,14.71h-6c0,1.61-.16,4-1.13,5.5a5,5,0,0,0-1-.57c.93-1.41,1-3.49,1-5V12h7.12ZM35.3,13H30.41v.76H35.3Zm-1.19,2.74H36.5v4.53H35.4v-.28H31.81v.28h-1V15.69H33v-.95l1.32.06c0,.1-.07.15-.24.18Zm-1.08,1H31.81v.68H33Zm-1.22,1.55V19H33v-.74Zm3.59-1.55H34.11v.68H35.4ZM34.11,19H35.4v-.74H34.11Z" transform="translate(0)"/>
    <path class="cls-3" d="M39.94,12.34a.29.29,0,0,1-.25.19,19.33,19.33,0,0,0-.49,3.54,11.87,11.87,0,0,0,0,1.21c.16-.34.48-1,.71-1.41l.67.86a9.82,9.82,0,0,0-.91,1.6,1.24,1.24,0,0,0-.11.49,1.48,1.48,0,0,0,0,.34l-1.14.19a11.33,11.33,0,0,1-.42-3.24,25.07,25.07,0,0,1,.39-4Zm1,1.89c.51,0,1.59,0,2.18-.06C43.1,13.1,43,12,43,11.78l1.53.05a.32.32,0,0,1-.28.25c0,.44,0,1.25.07,2a9.18,9.18,0,0,0,1.57-.26L46,15a15.13,15.13,0,0,1-1.64.21v.61c0,1.93-.47,3.35-2.17,4.28a7.41,7.41,0,0,0-.93-.79,3.27,3.27,0,0,0,1.93-3.38v-.66c-.57,0-1.46.05-2.18.05Z" transform="translate(0)"/>
    <path class="cls-3" d="M48.06,12.07h6.29v8H53.16v-.59h-4v.6H48.06Zm5.1,1.12h-4v2h4Zm-4,5.18h4V16.31h-4Z" transform="translate(0)"/>
    <path class="cls-3" d="M110.68,17.19v1.08H107.5v1.95h-1.15V18.27h-4.19V17.19h1.48V14.76h2.71V13.63h-2A8.31,8.31,0,0,1,103,15.38a5.89,5.89,0,0,0-.88-.75,7.8,7.8,0,0,0,2-3.14l1.34.42a.26.26,0,0,1-.26.11l-.24.54h5.26v1.07H107.5v1.13H110v1H107.5v1.4Zm-5.94,0h1.61v-1.4h-1.61Z" transform="translate(0)"/>
    <path class="cls-3" d="M146.42,12v6.87c0,1.24-.58,1.38-2.64,1.38a5.19,5.19,0,0,0-.46-1.16c.43,0,.92,0,1.26,0,.61,0,.67,0,.67-.27V17.38h-3.89a4.93,4.93,0,0,1-1.73,2.86,5,5,0,0,0-.84-.82c1.56-1.19,1.69-3,1.69-4.4V12Zm-4.81,3.25q0,.52-.06,1.11h3.7V15.21ZM145.25,13h-3.64v1.12h3.64Z" transform="translate(0)"/>
    <path class="cls-3" d="M177,12.07h6.3v8h-1.19v-.59h-4v.6H177Zm5.11,1.12h-4v2h4Zm-4,5.18h4V16.31h-4Z" transform="translate(0)"/>
  </g>
  <path class="cls-3" d="M5.08,39.62V30.4h5.76v9.22Z" transform="translate(0)"/>
  <g>
    <path class="cls-3" d="M26.48,36.24l1,.35c0,.08-.09.11-.21.11a5.05,5.05,0,0,1-1,1.3.8.8,0,0,0,.63.44c.23,0,.33-.2.38-.94A2.14,2.14,0,0,0,28,38c-.18,1-.44,1.32-1.11,1.32a1.54,1.54,0,0,1-1.32-.76,5.76,5.76,0,0,1-1.39.74,4.75,4.75,0,0,0-.58-.71,5.51,5.51,0,0,0,1.56-.82,9.26,9.26,0,0,1-.44-1.57H23.63l0,.34a7.28,7.28,0,0,1,1.1.87l-.58.74a5,5,0,0,0-.73-.65,3.2,3.2,0,0,1-1.22,1.8,3.08,3.08,0,0,0-.62-.73,3,3,0,0,0,1.14-2.37h-.57V35.9l-.38.57c-.1-.27-.28-.71-.46-1.11v4h-1V35.89a7.59,7.59,0,0,1-.75,1.77,6.34,6.34,0,0,0-.47-.94,10.1,10.1,0,0,0,1.14-3.13h-.93v-1h1V30.66l1.22.07c0,.08-.07.14-.23.17v1.68h.82v1h-.82v.5c.19.27.61,1,.84,1.37v-.07h2.45c0-.2-.06-.41-.08-.61l-.64.25c0-.1,0-.2-.05-.31l-1.4.19a.16.16,0,0,1-.13.13L22,34.12l.27,0a7.27,7.27,0,0,0,.57-.82,7.66,7.66,0,0,0-.91-.88l.42-.6.14.11a11.66,11.66,0,0,0,.47-1.19l.92.39a.23.23,0,0,1-.22.08c-.16.33-.42.8-.64,1.17l.24.24c.18-.31.34-.62.47-.89l.63.32c0-.45,0-.9,0-1.36l1.21.06c0,.09-.08.15-.24.18,0,.43,0,.85,0,1.29l.27-.4.14.1a7.81,7.81,0,0,0,.47-1.18l.92.39a.23.23,0,0,1-.22.08c-.16.33-.42.8-.64,1.16l.24.25a10.06,10.06,0,0,0,.48-.89l.86.45a.27.27,0,0,1-.23.08c-.29.48-.72,1.13-1.12,1.66l.58,0c-.05-.13-.1-.26-.16-.38l.62-.23A5.62,5.62,0,0,1,28,34.63l-.67.28a4.18,4.18,0,0,0-.08-.41l-.71.12a3.91,3.91,0,0,1,.74.59l-.19.18h.71v.85ZM23.63,34c-.05-.15-.11-.29-.16-.43l.63-.2a6.58,6.58,0,0,1,.35,1.06h0c-.06-.7-.11-1.44-.12-2.21-.32.53-.78,1.24-1.22,1.82ZM25.54,34c.16-.21.33-.45.49-.7a7.58,7.58,0,0,0-.75-.75c0,.51,0,1,.07,1.46Zm.77.68-.55.08a.17.17,0,0,1-.13.14l-.26-.7c0,.42.08.84.14,1.22h.81c-.15-.13-.31-.25-.45-.36Zm-.65,1.59c.07.32.14.6.22.85a3.6,3.6,0,0,0,.54-.85Z" transform="translate(0)"/>
    <path class="cls-3" d="M30.77,34.6c.25.24,1,1.08,1.17,1.3l-.62.86a7.33,7.33,0,0,0-.55-1v3.57H29.71V36.12a8,8,0,0,1-.9,1.78,5.44,5.44,0,0,0-.51-1.06,9.34,9.34,0,0,0,1.25-2.51H28.44v-1h1.27V32.24c-.34.09-.69.18-1,.25a3.06,3.06,0,0,0-.32-.78,10.91,10.91,0,0,0,2.77-1.05l.86.8a.39.39,0,0,1-.24.05,8.74,8.74,0,0,1-1,.41v1.4h1v1h-1Zm4.06,3.72h2.25v.88H31.43v-.88h2.34v-.43H32v-.84h1.82v-.36H32.08v-3.1h1.69v-.34h-2v-.86h2v-.51c-.54.05-1.08.09-1.6.1a2.65,2.65,0,0,0-.25-.8,23.25,23.25,0,0,0,4-.51l.78.8a.18.18,0,0,1-.14,0h-.09a13.43,13.43,0,0,1-1.61.27v.62h2.11v.86H34.83v.34h1.76v3.1H34.83v.36H36.7v.84H34.83Zm-1.76-4v.41h.7v-.41Zm0,1.55h.7V35.5h-.7Zm2.49-1.55h-.73v.41h.73Zm0,1.55V35.5h-.73v.42Z" transform="translate(0)"/>
    <path class="cls-3" d="M45.62,35.16v4.2H44.47V39H41.3v.32H40.22V36.69a12.11,12.11,0,0,1-2.08.93,3.66,3.66,0,0,0-.64-1A10.38,10.38,0,0,0,40.73,35,10.14,10.14,0,0,0,39.53,34l.82-.71a12.23,12.23,0,0,1,1.27,1,7.71,7.71,0,0,0,1.32-1.73H40.57a10.07,10.07,0,0,1-2.24,1.86,3.64,3.64,0,0,0-.79-.87,7.26,7.26,0,0,0,3-2.93l1.4.25c0,.1-.11.16-.26.16-.11.18-.23.37-.36.55h2.25l.18-.05.81.42a.4.4,0,0,1-.16.13,8.39,8.39,0,0,1-2.11,3.09ZM41.3,38h3.17V36.15H41.3Z" transform="translate(0)"/>
    <path class="cls-3" d="M93.08,34.92V33.85h7.28v1.07H97.57l.18.06a.21.21,0,0,1-.21.12,5.22,5.22,0,0,1-2.77,4,7,7,0,0,0-.9-.77,4,4,0,0,0,2.43-3.43Zm6.37-2.58a5.44,5.44,0,0,0-.47-.72v.83H93.92V31.38h4.87a3,3,0,0,0-.33-.36l.52-.39a7.15,7.15,0,0,1,1,1.31Zm1.29-.25a7.46,7.46,0,0,0-1-1.29l.5-.38a7.78,7.78,0,0,1,1,1.29Z" transform="translate(0)"/>
    <path class="cls-3" d="M102.51,33.53a13.44,13.44,0,0,1,2.36.86l-.5,1a13.69,13.69,0,0,0-2.36-.9Zm.26,4.3a9.26,9.26,0,0,0,6.15-5.11,12,12,0,0,0,1,.76,10.27,10.27,0,0,1-6.15,5.27.22.22,0,0,1-.14.25Zm.85-6.56a13.31,13.31,0,0,1,2.37.91l-.57,1a12.64,12.64,0,0,0-2.32-1Zm4.19-.3a7.26,7.26,0,0,1,1.09,1.28l-.57.43a7.54,7.54,0,0,0-1-1.31Zm1.4-.52a9,9,0,0,1,1.09,1.27l-.56.42a7.94,7.94,0,0,0-1-1.28Z" transform="translate(0)"/>
    <path class="cls-3" d="M118.41,32.57a.35.35,0,0,1-.15.17A13.31,13.31,0,0,1,117,35.62c.32.2.74.47,1,.66l-.67,1.13c-.27-.22-.72-.53-1-.74a8.81,8.81,0,0,1-3.11,2.47,3.63,3.63,0,0,0-.91-.88,8.5,8.5,0,0,0,3-2.2,11.92,11.92,0,0,0-1.55-.79l.63-.9a13.9,13.9,0,0,1,1.61.71,7.49,7.49,0,0,0,.85-1.81h-2.54a10.37,10.37,0,0,1-2,2.32,7.12,7.12,0,0,0-1-.73,8.37,8.37,0,0,0,2.8-4l1.48.32c0,.1-.13.16-.3.15a7.43,7.43,0,0,1-.41.87h2.46l.2-.06Z" transform="translate(0)"/>
    <path class="cls-3" d="M122.85,32.37a.23.23,0,0,1-.24.2c0,2.65-.29,4.79-1.55,6.49-.27-.17-.71-.43-1-.6,1.23-1.43,1.39-3.82,1.39-6.18Zm2.37,4.79a5.35,5.35,0,0,0,2.41-3.35,6.91,6.91,0,0,0,1,.64,6.93,6.93,0,0,1-3.7,4.22.67.67,0,0,1-.21.23l-.87-1,.15-.19V31.14l1.44.07c0,.1-.08.19-.26.22Z" transform="translate(0)"/>
    <path class="cls-3" d="M134.85,37.61a18.89,18.89,0,0,0,2-.19c0,.38,0,.79,0,1.17a17,17,0,0,1-2,.12h-2.07c-1.62,0-2.35-.66-2.35-2.14V31.24l1.47.07c0,.1-.08.19-.29.21v2.73a26.76,26.76,0,0,0,4-1.69l.79,1.09a.38.38,0,0,1-.16,0l-.15,0a32.17,32.17,0,0,1-4.49,1.68v1.25c0,.76.35,1,1.19,1Zm2-6.95a1,1,0,0,1,0,2,1,1,0,1,1,0-2Zm.64,1a.64.64,0,0,0-.64-.65.65.65,0,0,0-.66.65.65.65,0,1,0,1.3,0Z" transform="translate(0)"/>
    <path class="cls-3" d="M146.75,31.85a.24.24,0,0,1-.18.13,9.74,9.74,0,0,1-1.95,3,6.89,6.89,0,0,0-1-.63A5.24,5.24,0,0,0,145,32.52h-6v-1.1h6.64l.13-.08Zm-3.52,1.78c0,.1-.1.17-.25.2A6.67,6.67,0,0,1,140.14,39a8.71,8.71,0,0,0-1-.73c1.75-.94,2.47-2.77,2.6-4.83Z" transform="translate(0)"/>
    <path class="cls-3" d="M155.4,31.58c0,.1-.19.15-.3.16A14.33,14.33,0,0,1,149,39.06a6.94,6.94,0,0,0-1-.87,12.66,12.66,0,0,0,5.8-7.18Z" transform="translate(0)"/>
    <path class="cls-3" d="M164.08,38.33a4,4,0,0,1-1.57.27c-2.13,0-3.31-1.44-3.31-3.55a3.39,3.39,0,0,1,3.48-3.73,3.29,3.29,0,0,1,1.46.27l-.26,1.1a2.82,2.82,0,0,0-1.14-.23c-1.17,0-2.11.81-2.11,2.52s.82,2.46,2.1,2.46a3.22,3.22,0,0,0,1.16-.2Z" transform="translate(0)"/>
    <path class="cls-3" d="M170.26,38.51h-1.43l-.5-1.87h-1.9l-.49,1.87h-1.38l2-7.09h1.71Zm-2.13-2.9L167.71,34c-.11-.44-.23-1-.32-1.44h0c-.09.44-.21,1-.31,1.43l-.43,1.63Z" transform="translate(0)"/>
    <path class="cls-3" d="M171,31.54h4.34v.85l-2.64,6.12h-1.4l2.65-5.83H171Z" transform="translate(0)"/>
    <path class="cls-3" d="M176.08,35c0-2.12.79-3.61,2.35-3.61s2.28,1.62,2.28,3.56c0,2.3-.86,3.62-2.32,3.62C176.76,38.61,176.08,37,176.08,35Zm2.32,2.49c.63,0,.94-.88.94-2.51s-.28-2.51-.93-2.51-1,.85-1,2.51.34,2.51,1,2.51Z" transform="translate(0)"/>
    <path class="cls-3" d="M183.31,38.51V32.76h0l-1.2.63-.3-1,1.7-.87h1.14v7Z" transform="translate(0)"/>
  </g>
  <path class="cls-3" d="M5.08,58.75V49.53h5.76v9.22Z" transform="translate(0)"/>
  <g>
    <path class="cls-3" d="M26.77,55.71l.7.54a.18.18,0,0,1-.17.07h-.09c-.35.2-.88.48-1.35.7a6,6,0,0,0,2,.62,3.52,3.52,0,0,0-.6.88,4.78,4.78,0,0,1-3.8-2.73,6.11,6.11,0,0,1-.93.58l.14,0c0,.08-.09.15-.24.17v.74c.6,0,1.23-.13,1.86-.19l0,.83c-1.25.17-2.56.33-3.4.43a.16.16,0,0,1-.14.14l-.41-1,1-.09v-.55a12.27,12.27,0,0,1-1.61.42,3.75,3.75,0,0,0-.59-.8A10.31,10.31,0,0,0,22,55.71H19.3v-.87h3.63v-.5h-.4a3.51,3.51,0,0,0-.27-.66h.45c.08,0,.1,0,.1-.1v-.39H22.1v1.36h-.94V53.21h-.67v1.15h-.84V52.54h1.51v-.32H19.28v-.75h.6a4.29,4.29,0,0,0-.51-.28A4.36,4.36,0,0,0,20,49.81l.94.29a.2.2,0,0,1-.21.08c0,.06,0,.14-.06.21h.53v-.6l1.17.07c0,.08-.07.13-.23.16v.37h1.53v.71H22.1v.37h1.83v.75H22.1v.32h1.64V53.6c0,.36,0,.53-.3.64l-.07,0,.93,0c0,.09-.08.14-.26.17v.34h3.68v.87ZM20.33,51.1a3.28,3.28,0,0,1-.22.37h1.05V51.1Zm5.16-.84c0,.08-.07.13-.23.17v2.91h-1V50.19Zm-1,5.45a3.59,3.59,0,0,0,.64.76,10.17,10.17,0,0,0,1.29-.76Zm3.13-5.79c0,.09-.07.15-.23.18v3.5c0,.81-.27,1-1.85,1a3.61,3.61,0,0,0-.33-.88c.42,0,.87,0,1,0s.17,0,.17-.16V49.87Z" transform="translate(0)"/>
    <path class="cls-3" d="M30.65,53.41v2.93c.57.93,1.69.93,3.3.93,1.06,0,2.32,0,3.17-.11a6.48,6.48,0,0,0-.35,1.13c-.68,0-1.64.05-2.54.05-2.07,0-3.17,0-4.07-1.06-.4.36-.82.72-1.17,1,0,.1,0,.16-.12.18l-.57-1.21a12,12,0,0,0,1.27-.87v-2H28.5v-1ZM29.33,50a7.12,7.12,0,0,1,1.55,1.4l-.87.74a7.24,7.24,0,0,0-1.5-1.47Zm7.61,2.69v.93H31V52.7h2.46v-.9h-1a5.88,5.88,0,0,1-.52.87,6.14,6.14,0,0,0-.93-.45,6.21,6.21,0,0,0,1-2.34l1.21.32c0,.07-.11.11-.23.11,0,.18-.11.37-.17.55h.6V49.8l1.33.07c0,.09-.08.14-.24.18v.81h2v.94h-2v.9Zm-.67,4.24H35.18V56.7h-2.4V57h-1V54h4.53Zm-3.49-1.18h2.4v-.85h-2.4Z" transform="translate(0)"/>
    <path class="cls-3" d="M46.09,53.22h-2.6a8.9,8.9,0,0,0,2.89,1.26,5.14,5.14,0,0,0-.73.94,4.16,4.16,0,0,1-.64-.24v3.28H43.9v-.25H40v.29H39V55.14c-.24.11-.49.21-.72.29a5,5,0,0,0-.69-.85,9,9,0,0,0,2.77-1.36H37.79v-.9h1.79a5.11,5.11,0,0,0-.54-.93l.45-.16-.93,0a3.47,3.47,0,0,0-.22-.84,45.14,45.14,0,0,0,6.36-.55l.72.83a.42.42,0,0,1-.13,0l-.12,0q-.6.12-1.35.21l1.23.38c0,.09-.11.12-.24.12-.16.27-.39.61-.59.91h1.87Zm-4.74.35a8.26,8.26,0,0,1-1.78,1.26h4.7a8.13,8.13,0,0,1-1.82-1.31v1.16h-1.1Zm0,2.58v-.49H40v.49ZM40,56.87v.51h1.37v-.51Zm1.33-4.55V51.14l-1.24.06a4.42,4.42,0,0,1,.56.95l-.43.17Zm2.55,3.83v-.49H42.43v.49Zm-1.47,1.23H43.9v-.51H42.43Zm1-5.06-.32-.12a9.37,9.37,0,0,0,.63-1.27c-.42,0-.85.09-1.29.12v1.27Z" transform="translate(0)"/>
    <path class="cls-3" d="M55.38,54.52H50.06c-.06.18-.11.37-.18.56h3.35l.24,0,.71.18a1.09,1.09,0,0,1-.08.28c-.35,2.82-.76,3-2.34,3l-1,0a2.12,2.12,0,0,0-.39-1.05c.63.06,1.32.07,1.59.07a.77.77,0,0,0,.46-.09,2.27,2.27,0,0,0,.46-1.3H49.54c-.06.17-.12.34-.18.48l-1.2-.18c.21-.5.46-1.2.67-1.87H46.92v-1h8.46Zm-1.29-4.35v2.9H48.24v-2.9Zm-1.15,1.94v-1H49.32v1Z" transform="translate(0)"/>
  </g>
  <path class="cls-3" d="M5.08,77.89V68.67h5.76v9.22Z" transform="translate(0)"/>
  <g>
    <path class="cls-3" d="M24.52,71.41a9,9,0,0,1-1.6.32V73a6.9,6.9,0,0,1,1.76-.3c1.51,0,2.67.76,2.67,2.25A2.13,2.13,0,0,1,25,77.25a2.2,2.2,0,0,1-1.73-.82,6.2,6.2,0,0,0,.58-.89,1.48,1.48,0,0,0,1.16.63,1.11,1.11,0,0,0,1.14-1.23c0-.74-.54-1.27-1.52-1.27a6.07,6.07,0,0,0-1.73.32v1.82a1.54,1.54,0,0,1-1.68,1.6,1.58,1.58,0,0,1-1.72-1.58,2.38,2.38,0,0,1,1.12-1.78,5.92,5.92,0,0,1,1.17-.65V71.82c-.61,0-1.29.05-2,.05l0-1.11c.77,0,1.45,0,2.06,0V69.16l1.46,0a.25.25,0,0,1-.24.22c0,.36-.05.78-.07,1.2a6.2,6.2,0,0,0,1.41-.34Zm-2.71,3c-.53.32-1.24.73-1.24,1.35a.63.63,0,1,0,1.25,0C21.82,75.53,21.82,75,21.81,74.45ZM27,72.31a7.29,7.29,0,0,0-2.08-1.23l.57-1a7.07,7.07,0,0,1,2.16,1.2Z" transform="translate(0)"/>
    <path class="cls-3" d="M34.67,71.24l.81.44c0,.07-.09.09-.15.12a6,6,0,0,1-1.54,1.61,13.75,13.75,0,0,0,3.29.7,4.49,4.49,0,0,0-.7,1.07l-1-.16v2.59H34.28v-.28h-3.1v.3H30.1V75.07c-.4.11-.82.21-1.23.29a4.61,4.61,0,0,0-.52-1,13.39,13.39,0,0,0,3.27-.91,7.08,7.08,0,0,1-.84-.7c-.34.21-.72.42-1.13.62a3.42,3.42,0,0,0-.74-.82,5.56,5.56,0,0,0,2.52-1.74H29.88v1H28.8v-2h3.32v-.9l1.39.07c0,.09-.07.15-.25.18v.65h3.39v2H35.52v-1H32.46l.41.08a.24.24,0,0,1-.25.15l-.19.24h2.06Zm-3.49,5.19h3.1v-.79h-3.1Zm3.08-1.71a9.39,9.39,0,0,1-1.59-.62,11,11,0,0,1-1.44.62Zm-2.63-2.6-.05,0a5.37,5.37,0,0,0,1.1.77,5,5,0,0,0,1-.81Z" transform="translate(0)"/>
    <path class="cls-3" d="M39.85,71.88v.4c.25.34.92,1.38,1.08,1.62-.18.24-.34.49-.58.8-.11-.28-.3-.69-.5-1.08v4h-1v-3.5A7.8,7.8,0,0,1,38,76a6.4,6.4,0,0,0-.49-1,9.46,9.46,0,0,0,1.25-3.11h-1v-1h1.12V68.93l1.25.07c0,.08-.08.14-.24.17v1.68h.93v1Zm.61,4.44c.54-.24,1.37-.67,2.17-1.08l.25.78c-.65.44-1.32.87-1.78,1.13a.21.21,0,0,1-.1.2Zm3.6-2.46a5,5,0,0,0,.38.81,7.49,7.49,0,0,0,.91-1l.93.71a.27.27,0,0,1-.26.06,11.25,11.25,0,0,1-1.12.9,3.74,3.74,0,0,0,1.51,1.12,4.17,4.17,0,0,0-.7.9,4.4,4.4,0,0,1-1.65-1.64v.81c0,.91-.32,1.12-1.71,1.12a3.53,3.53,0,0,0-.3-1c.31,0,.68,0,.79,0s.15-.05.15-.16v-3H40.83v-.9H43v-.43H41.32v-.86H43v-.42h-1.9V70H42a5.74,5.74,0,0,0-.38-.79l.88-.29A4.46,4.46,0,0,1,43,70l-.14,0h1.35l-.1,0a7.92,7.92,0,0,0,.48-1.08l1.19.37a.28.28,0,0,1-.25.1c-.1.18-.25.42-.4.64h1v.91h-2v.42h1.79v.86H44.06v.43h2.17v.9H44.06Zm-2.19,1.53A7.06,7.06,0,0,0,41,74.2l.76-.5a6.82,6.82,0,0,1,.92,1.13Z" transform="translate(0)"/>
    <path class="cls-3" d="M54.83,73.43v4.2H53.68V77.3H50.52v.32H49.43V75a12.37,12.37,0,0,1-2.07.93,3.69,3.69,0,0,0-.65-1A10.43,10.43,0,0,0,50,73.3a12.4,12.4,0,0,0-1.21-1.06l.82-.7a12.23,12.23,0,0,1,1.27,1,7.76,7.76,0,0,0,1.33-1.73H49.78a10.07,10.07,0,0,1-2.24,1.86,3.83,3.83,0,0,0-.78-.87,7.23,7.23,0,0,0,3-2.93l1.4.25c0,.1-.11.16-.26.16-.11.18-.23.37-.36.55h2.25l.18,0,.81.42a.34.34,0,0,1-.16.13,8.47,8.47,0,0,1-2.11,3.09Zm-4.31,2.86h3.16V74.42H50.52Z" transform="translate(0)"/>
  </g>
  <path class="cls-3" d="M5.08,97V87.8h5.76V97Z" transform="translate(0)"/>
  <g>
    <path class="cls-3" d="M27.54,89.77v5.86c0,1-.38,1.12-1.66,1.12a4,4,0,0,0-.28-1h.49c.41,0,.46,0,.46-.15V94.17l-.44.42a14,14,0,0,0-.78-1.7,4.39,4.39,0,0,1-1,1.85A3.32,3.32,0,0,0,24,94.3v2.46H23V95.27l-.83.29a10.87,10.87,0,0,0-.55-1.82l.83-.28A14.62,14.62,0,0,1,23,95.07v-2l-.7.32a2.93,2.93,0,0,0-.13-.43l-.6,0v3.79h-1v-3c0,.06-.09.1-.2.09a8.16,8.16,0,0,1-.53,2.2,7.09,7.09,0,0,0-.78-.39,7.58,7.58,0,0,0,.45-2.16l1.06.25V93c-.41,0-.79,0-1.09,0a.2.2,0,0,1-.17.14l-.22-1.11h.7a6.77,6.77,0,0,0,.44-.58,8.09,8.09,0,0,0-1.11-1.26l.52-.75.21.17a11.36,11.36,0,0,0,.71-1.63l1.1.45c0,.07-.13.1-.25.09a15.28,15.28,0,0,1-.95,1.71l.34.39c.33-.53.64-1.07.87-1.54l1.06.48a.32.32,0,0,1-.27.1,22.5,22.5,0,0,1-1.67,2.36h1a6.77,6.77,0,0,0-.37-.71l.8-.36A8.41,8.41,0,0,1,23,92.49V89.77h1.76c0-.54,0-1.11,0-1.71l1.27.06c0,.11-.08.16-.24.19,0,.5,0,1,0,1.46Zm-3.59,1v2.85a6.1,6.1,0,0,0,.74-2.85Zm2.6,0h-.86l-.06.67c.32.55.65,1.15.92,1.69Z" transform="translate(0)"/>
    <path class="cls-3" d="M30.21,88.59h3.23a7.78,7.78,0,0,0,3.67,7.18,5.85,5.85,0,0,0-.89,1,7.9,7.9,0,0,1-3.44-4.62,8,8,0,0,1-3.46,4.65,7.07,7.07,0,0,0-.93-.87c1.88-.94,3-2.83,3.51-5.28l.57.13c-.06-.36-.1-.71-.13-1H30.21Z" transform="translate(0)"/>
    <path class="cls-3" d="M40.8,92.06l.11,1-1,.32v2.23c0,1-.38,1.18-1.81,1.18a4.07,4.07,0,0,0-.32-1c.36,0,.75,0,.87,0s.17,0,.17-.18V93.66l-.82.25a.19.19,0,0,1-.15.17l-.34-1.26,1.31-.29V90.81H37.65v-1h1.17V88.07l1.34.05c0,.11-.07.16-.25.19v1.47h.92v1h-.92v1.46Zm-.35,3.31H46.3v1H40.45Zm2-1.15v.53H41.33V88.48h4.39v6.23H44.58v-.49Zm2.17-4.73H42.41v1.36h2.17Zm-2.17,3.72h2.17V91.84H42.41Z" transform="translate(0)"/>
    <path class="cls-3" d="M48.5,88.43a8.26,8.26,0,0,1,1.15,2.09L48.58,91a8.33,8.33,0,0,0-1.09-2.14Zm3.44-.29c0,.1-.08.15-.24.18V91.4h2.95v5.39H53.54v-.36h-6V95.34h6V94.4H48.05v-1h5.49v-.88H47.71V91.4h2.84V88.06Zm.69,2.5a13.24,13.24,0,0,0,1-2.3l1.38.49a.29.29,0,0,1-.27.11A13.62,13.62,0,0,1,53.6,91Z" transform="translate(0)"/>
    <path class="cls-3" d="M58.19,91.88v-.69a11.4,11.4,0,0,1-1.59.93,3.86,3.86,0,0,0-.64-.91,9.26,9.26,0,0,0,3.8-3.15l1.49.07a.27.27,0,0,1-.24.19A8.87,8.87,0,0,0,64.82,91a4.76,4.76,0,0,0-.72,1,11.54,11.54,0,0,1-1.58-.9v.75Zm-1.65,1.79v-1h7.7v1H59.9l.28.1c0,.07-.13.11-.28.11-.19.45-.46,1-.73,1.46l2.9-.07a11.68,11.68,0,0,0-1-1l1-.5a11.94,11.94,0,0,1,2.13,2.38l-1,.63c-.11-.18-.24-.39-.4-.61-2.08.13-4.22.24-5.63.31a.19.19,0,0,1-.18.14l-.38-1.21,1.36,0a14.31,14.31,0,0,0,.74-1.7Zm5.6-2.81a8.69,8.69,0,0,1-1.79-1.72,8.46,8.46,0,0,1-1.72,1.72Z" transform="translate(0)"/>
    <path class="cls-3" d="M69.25,90.14a.28.28,0,0,1-.16.14A9.4,9.4,0,0,1,68,92.36c.45.31,1.21.87,1.42,1l-.64.91a9.87,9.87,0,0,0-.92-.94v3.4h-1.1v-3a7.1,7.1,0,0,1-1.1.87,4.45,4.45,0,0,0-.54-1,7.18,7.18,0,0,0,2.69-2.82h-2.4v-1h1.35V88.07l1.35.07c0,.1-.09.15-.25.18v1.46h.54l.17,0ZM72,95.41h2v1.08H68.73V95.41h2.15V92H69.11V90.94h1.77V88.15l1.39.09c0,.09-.08.14-.25.17v2.53h1.76V92H72Z" transform="translate(0)"/>
    <path class="cls-3" d="M82.47,92.57v4.19H81.32v-.33H78.15v.32H77.07V94.1A12.07,12.07,0,0,1,75,95a3.66,3.66,0,0,0-.64-1,10.17,10.17,0,0,0,3.23-1.6,10.14,10.14,0,0,0-1.2-1.05l.82-.7a10.94,10.94,0,0,1,1.27,1A7.29,7.29,0,0,0,79.79,90H77.42a10.07,10.07,0,0,1-2.24,1.86,3.42,3.42,0,0,0-.79-.86,7.28,7.28,0,0,0,3-2.94l1.4.25c0,.11-.11.16-.26.16-.11.18-.23.37-.36.55h2.25l.18,0,.81.41a.33.33,0,0,1-.16.13,8.51,8.51,0,0,1-2.11,3.1Zm-4.32,2.85h3.17V93.55H78.15Z" transform="translate(0)"/>
  </g>
  <path class="cls-3" d="M5.08,116.15v-9.21h5.76v9.21Z" transform="translate(0)"/>
  <g>
    <path class="cls-3" d="M27.54,108.9v5.86c0,1-.38,1.13-1.66,1.13a4,4,0,0,0-.28-1h.49c.41,0,.46,0,.46-.15v-1.44l-.44.41a14.73,14.73,0,0,0-.78-1.7,4.49,4.49,0,0,1-1,1.86,3.35,3.35,0,0,0-.37-.45v2.47H23v-1.5l-.83.3a11,11,0,0,0-.55-1.83l.83-.27a13.81,13.81,0,0,1,.55,1.6v-2l-.7.32a3.35,3.35,0,0,0-.13-.43l-.6,0v3.79h-1v-3s-.09.09-.2.08a8.23,8.23,0,0,1-.53,2.21,7.09,7.09,0,0,0-.78-.39,7.66,7.66,0,0,0,.45-2.17l1.06.25v-.72l-1.09.06a.2.2,0,0,1-.17.14l-.22-1.11h.7c.15-.19.3-.38.44-.58a7.66,7.66,0,0,0-1.11-1.26l.52-.76.21.18a12,12,0,0,0,.71-1.64l1.1.46a.26.26,0,0,1-.25.09,15.16,15.16,0,0,1-.95,1.7c.13.14.24.27.34.4.33-.53.64-1.08.87-1.55l1.06.48c0,.07-.14.1-.27.1a22.5,22.5,0,0,1-1.67,2.36h1a6.77,6.77,0,0,0-.37-.71l.8-.36a8.87,8.87,0,0,1,.75,1.47V108.9h1.76c0-.53,0-1.11,0-1.7l1.27.06c0,.1-.08.16-.24.18,0,.5,0,1,0,1.46Zm-3.59,1v2.85a6.07,6.07,0,0,0,.74-2.85Zm2.6,0h-.86l-.06.68c.32.54.65,1.15.92,1.68Z" transform="translate(0)"/>
    <path class="cls-3" d="M30.21,107.72h3.23a7.78,7.78,0,0,0,3.67,7.18,5.55,5.55,0,0,0-.89,1,7.89,7.89,0,0,1-3.44-4.63,8,8,0,0,1-3.46,4.66,6.46,6.46,0,0,0-.93-.87c1.88-1,3-2.84,3.51-5.28l.57.13c-.06-.36-.1-.71-.13-1H30.21Z" transform="translate(0)"/>
    <path class="cls-3" d="M40.8,111.2l.11.94-1,.33v2.23c0,1-.38,1.18-1.81,1.18a4.14,4.14,0,0,0-.32-1c.36,0,.75,0,.87,0s.17,0,.17-.17V112.8l-.82.25a.17.17,0,0,1-.15.16L37.51,112c.36-.07.81-.18,1.31-.3v-1.72H37.65v-1h1.17V107.2l1.34.06c0,.1-.07.16-.25.18v1.48h.92v1h-.92v1.47Zm-.35,3.3H46.3v1H40.45Zm2-1.15v.54H41.33v-6.27h4.39v6.22H44.58v-.49Zm2.17-4.73H42.41V110h2.17Zm-2.17,3.73h2.17V111H42.41Z" transform="translate(0)"/>
    <path class="cls-3" d="M48.5,107.56a8.48,8.48,0,0,1,1.15,2.1l-1.07.45A8.54,8.54,0,0,0,47.49,108Zm3.44-.28c0,.09-.08.15-.24.17v3.08h2.95v5.39H53.54v-.36h-6v-1.08h6v-.94H48.05v-1.05h5.49v-.88H47.71v-1.08h2.84V107.2Zm.69,2.5a13.34,13.34,0,0,0,1-2.31L55,108a.29.29,0,0,1-.27.11,13.62,13.62,0,0,1-1.15,2.1Z" transform="translate(0)"/>
    <path class="cls-3" d="M64.6,111H61.18c-.35.26-.71.51-1.09.74h3.23v4.11h-1.1v-.24h-3v.28H58.11v-3.07c-.51.23-1,.45-1.56.64a6.5,6.5,0,0,0-.61-.86,17.62,17.62,0,0,0,3.44-1.6H56.13v-.93h3v-.86H57v-.91h2.17V107.2l1.33.07c0,.09-.08.15-.24.18v.86h2v.38a12.58,12.58,0,0,0,1-1.15l1.08.61a.21.21,0,0,1-.19.09l-.11,0a12.57,12.57,0,0,1-1.72,1.86H64.6Zm-2.38,2.23v-.58h-3v.58Zm-3,1.46h3v-.62h-3Zm1.1-5.48v.86h.47c.36-.28.7-.56,1-.86Z" transform="translate(0)"/>
    <path class="cls-3" d="M73.25,111.7v4.2H72.1v-.34H68.94v.33H67.85v-2.66a11.65,11.65,0,0,1-2.07.92,3.77,3.77,0,0,0-.64-1,10.19,10.19,0,0,0,3.23-1.61,10.36,10.36,0,0,0-1.21-1l.82-.7a11.36,11.36,0,0,1,1.28,1,7.55,7.55,0,0,0,1.32-1.74H68.2A9.88,9.88,0,0,1,66,111a3.25,3.25,0,0,0-.78-.87,7.26,7.26,0,0,0,3-2.93l1.4.25c0,.1-.11.15-.26.15-.11.19-.23.37-.36.56h2.25l.17,0,.81.42a.32.32,0,0,1-.15.13,8.47,8.47,0,0,1-2.11,3.09Zm-4.31,2.86H72.1v-1.87H68.94Z" transform="translate(0)"/>
  </g>
  <path class="cls-3" d="M5.08,136v-9.22h5.76V136Z" transform="translate(0)"/>
  <g>
    <path class="cls-3" d="M24.06,128.28h3.3v5.51H26.2v-.45H24.06v2.39H22.9v-2.39h-2v.5H19.77v-5.56H22.9V127l1.41.08c0,.09-.09.15-.25.18Zm-1.16,1.06h-2v.95h2Zm-2,2.94h2v-1h-2Zm5.32-2.94H24.06v.95H26.2Zm-2.14,2.94H26.2v-1H24.06Z" transform="translate(0)"/>
    <path class="cls-3" d="M31.9,127.49c0,.11-.1.18-.28.21-.08,1.23-.17,3.38-.17,4.74,0,1.18.6,1.73,1.58,1.73a4.37,4.37,0,0,0,3-1.52,8.09,8.09,0,0,0,.67,1A5.09,5.09,0,0,1,33,135.37c-2,0-2.84-1.11-2.84-2.93,0-1.24.07-3.91.13-5Z" transform="translate(0)"/>
    <path class="cls-3" d="M39.87,130.65v2.93c.57.93,1.68.93,3.3.93,1.06,0,2.31,0,3.17-.1a5.53,5.53,0,0,0-.35,1.13c-.69,0-1.64.05-2.55.05-2.06,0-3.17,0-4.06-1.06-.41.36-.82.72-1.17,1a.17.17,0,0,1-.13.18l-.56-1.22a12.39,12.39,0,0,0,1.27-.86v-2H37.71v-1Zm-1.33-3.39a7.43,7.43,0,0,1,1.56,1.4l-.88.74a7.27,7.27,0,0,0-1.5-1.48Zm7.61,4.32H43.93a3.19,3.19,0,0,0,2.25,1.74,4.26,4.26,0,0,0-.7.94,3.85,3.85,0,0,1-2.25-1.92,4.43,4.43,0,0,1-2.26,1.9,3.89,3.89,0,0,0-.73-.8,3.13,3.13,0,0,0,2.15-1.86H40.24v-1h2.28v-.92h-2v-1h.92a6.35,6.35,0,0,0-.68-1.24l.94-.38a4.77,4.77,0,0,1,.81,1.41l-.49.21h1.87l-.36-.17a8.31,8.31,0,0,0,.86-1.47l1.26.46a.28.28,0,0,1-.27.1,11.13,11.13,0,0,1-.78,1.08h1.2v1H43.63v.92h2.52Z" transform="translate(0)"/>
    <path class="cls-3" d="M48.64,132.53a8.61,8.61,0,0,1-.25-2,17.52,17.52,0,0,1,.26-2.8l1.44.19a.27.27,0,0,1-.23.17,10.94,10.94,0,0,0-.32,2.61,10,10,0,0,1,.69-1.26,4.85,4.85,0,0,0,.53.74,5.07,5.07,0,0,0-1,1.95,1,1,0,0,0,0,.22Zm5.3-5c0,.11-.09.18-.23.22.07.73.15,2,.15,3.13,0,1.78-.58,3.45-3.51,4.66a7,7,0,0,0-.83-.92c2.53-1,3.06-2.47,3.06-3.73a30.49,30.49,0,0,0-.22-3.42Z" transform="translate(0)"/>
    <path class="cls-3" d="M64.65,132.33v.84h-1v1.62H62.55v-.39H60.88c0,1.12-.06,1.36-2.14,1.36a3.2,3.2,0,0,0-.36-.88c.45,0,1,0,1.15,0s.23-.06.23-.22v-.28H56.94v-.8h2.82v-.43H56.08v-.84h3.68v-.4H57v-.75h2.75v-.37H57.24v-1.94h2.52v-.35H56.29v-.87h3.47V127l1.37,0c0,.11-.07.17-.25.2v.36h3.56v.87H60.88v.35h2.65v1.94H60.88v.37h2.79v1.15Zm-6.35-2.22h1.46v-.54H58.3Zm4.09-.54H60.88v.54h1.51Zm-1.51,2.36v.4h1.67v-.4Zm1.67,1.67v-.43H60.88v.43Z" transform="translate(0)"/>
    <path class="cls-3" d="M68.66,131.92l.17,1c-1.1.43-2.28.85-3.07,1.13a.19.19,0,0,1-.14.17l-.5-1.16,1.28-.38v-3.57h-1v-1h3.19v1h-1v3.22Zm4.93,2H70.08l.88.6a.27.27,0,0,1-.18.07,7.76,7.76,0,0,1-2.27,1.15,6.52,6.52,0,0,0-.67-.76A7.44,7.44,0,0,0,70,133.91H69V129h1.44c0-.21.09-.43.13-.64H68.67v-.93h5.27v.93H71.81l-.2.64h2Zm-3.51-4.11v.59h2.43v-.59Zm0,1.35v.59h2.43v-.59Zm0,1.34v.6h2.43v-.6Zm3.14,3.26a13,13,0,0,0-1.8-1.23l.82-.59a14.39,14.39,0,0,1,1.85,1.16Z" transform="translate(0)"/>
  </g>
  <g>
    <path class="cls-4" d="M22.48,151.31a8.82,8.82,0,0,1-1.65.34v1.62a6.3,6.3,0,0,1,1.92-.39c1.44,0,2.34.78,2.34,2a1.87,1.87,0,0,1-2,2,2,2,0,0,1-1.66-.82,4.27,4.27,0,0,0,.3-.44,1.65,1.65,0,0,0,1.36.69,1.32,1.32,0,0,0,1.38-1.43c0-.83-.6-1.47-1.74-1.46a6.28,6.28,0,0,0-1.91.4c0,.63,0,1.64,0,1.88A1.27,1.27,0,0,1,19.51,157a1.32,1.32,0,0,1-1.44-1.3,2.2,2.2,0,0,1,1.06-1.64,6.34,6.34,0,0,1,1.14-.61v-1.79a19.86,19.86,0,0,1-2,.06v-.58c.74,0,1.42,0,2.05,0v-1.59l.85.05c0,.1-.09.16-.23.18,0,.33,0,.83,0,1.31a6.49,6.49,0,0,0,1.53-.36Zm-2.21,4.34V154a6.43,6.43,0,0,0-.87.5,1.73,1.73,0,0,0-.78,1.17.79.79,0,0,0,.87.81.77.77,0,0,0,.78-.85Zm4.81-3.33a7,7,0,0,0-1.94-1.23l.3-.5a8.09,8.09,0,0,1,2,1.23Z" transform="translate(0)"/>
    <path class="cls-4" d="M32.12,151.47l.42.25a.16.16,0,0,1-.11.07,6.11,6.11,0,0,1-1.7,1.61,11.79,11.79,0,0,0,3.41,1,2.16,2.16,0,0,0-.36.53c-.42-.07-.82-.15-1.22-.25v2.57H32v-.29H28.36v.3h-.55v-2.47c-.45.13-.91.26-1.35.35a2.06,2.06,0,0,0-.28-.5,13,13,0,0,0,3.49-1.19,5.69,5.69,0,0,1-1.25-1.08,8.23,8.23,0,0,1-1.4.9,1.65,1.65,0,0,0-.39-.4,6,6,0,0,0,2.48-2l.71.12c0,.06-.06.1-.17.11s-.21.28-.34.42H32Zm-5-.73v1h-.55v-1.53h3.24v-.88l.75,0c0,.06-.05.11-.17.11v.72h3.29v1.53h-.57v-1Zm5.16,3.85a11.27,11.27,0,0,1-2.13-.85,12.94,12.94,0,0,1-1.89.85Zm-4,1.85H32v-1.36H28.36Zm.49-4.47,0,0a5.17,5.17,0,0,0,1.37,1.13A6,6,0,0,0,31.59,152Z" transform="translate(0)"/>
    <path class="cls-4" d="M36.58,151.76v.57c.25.33.91,1.31,1.06,1.56-.07.09-.14.19-.33.42-.14-.28-.46-.85-.73-1.29v4.2h-.52V153a9.39,9.39,0,0,1-1.12,2.55,2.64,2.64,0,0,0-.29-.49A9.94,9.94,0,0,0,36,151.76H34.82v-.53h1.24v-1.9l.69,0c0,.06,0,.1-.17.11v1.74h1v.53Zm.68,4.59c.55-.28,1.37-.74,2.17-1.18l.14.43c-.7.44-1.43.88-1.91,1.15a.19.19,0,0,1-.07.16Zm3.7-1.41h0a3.9,3.9,0,0,0,1.78,1.52,2.39,2.39,0,0,0-.38.46,4.59,4.59,0,0,1-2-2.12v1.76c0,.63-.26.68-1.42.68a2.25,2.25,0,0,0-.17-.54h.89c.12,0,.15,0,.15-.15v-3.15H37.6v-.49h2.21v-.76H38.08v-.47h1.73V151h-2v-.49h1.07a5.14,5.14,0,0,0-.45-1l.46-.15a4.46,4.46,0,0,1,.51,1l-.22.08h1.73l-.19-.07a6.75,6.75,0,0,0,.53-1.08l.66.22a.19.19,0,0,1-.18.08,8,8,0,0,1-.51.85h1.25V151H40.36v.73h1.88v.47H40.36v.76h2.22v.49H40.36v.27a4.89,4.89,0,0,0,.55,1.18,9.51,9.51,0,0,0,1.11-1.2l.52.38a.2.2,0,0,1-.18,0,11.69,11.69,0,0,1-1.14,1.06Zm-2.19.19a6.5,6.5,0,0,0-.88-1.17l.39-.26a5.81,5.81,0,0,1,.91,1.14Z" transform="translate(0)"/>
    <path class="cls-4" d="M50,156.38a15.48,15.48,0,0,1-2.61.19,9.27,9.27,0,0,1-1.64-.11,1.62,1.62,0,0,1-1.47-1.62,2.69,2.69,0,0,1,.86-1.81l.5.26a2.27,2.27,0,0,0-.75,1.5c0,.5.33.94,1.06,1.11a7.47,7.47,0,0,0,1.36.1,14.56,14.56,0,0,0,2.64-.23Zm-3.82-4.28a9.78,9.78,0,0,1,1.51-1h0c-.65.08-2.13.1-3.07.1,0-.16,0-.44,0-.59H45a25.65,25.65,0,0,0,4.38-.27l.07.62a3.13,3.13,0,0,0-.89.25,9.22,9.22,0,0,0-2,1.19ZM50,153.3a5.91,5.91,0,0,0-1.14-1.15l.28-.27A6,6,0,0,1,50.26,153Zm.89-.81a6.46,6.46,0,0,0-1.14-1.14l.28-.27a6.09,6.09,0,0,1,1.17,1.15Z" transform="translate(0)"/>
    <path class="cls-4" d="M59.52,153.73H56.71a11.91,11.91,0,0,1-1.19.58H58.7v2.94h-.58v-.31H54.26v.32H53.7V155c-.58.19-1.17.36-1.76.52a3.2,3.2,0,0,0-.26-.48c.67-.16,1.35-.36,2-.58v-.17h.48c.48-.17,1-.37,1.42-.58H51.86v-.48h3.28v-.72H52.71v-.47h2.43v-.61H52.36v-1.76h6.7v1.76h-3.2c0,.06-.06.1-.17.11v.49h2v.46a6.7,6.7,0,0,0,.89-.76l.55.37a.18.18,0,0,1-.13,0H58.9a8.59,8.59,0,0,1-1.39,1.09h2ZM54.37,151v-.89H52.9V151Zm3.75,3.74H54.46l-.2.07v.58h3.86Zm-3.86,1.74h3.86v-.68H54.26Zm.64-6.37V151h1.51v-.89Zm.79,3.13h.84a12.38,12.38,0,0,0,1.14-.72h-2ZM57,150.12V151h1.54v-.89Z" transform="translate(0)"/>
    <path class="cls-4" d="M67.5,153.61v3.64h-.58v-.35H63.25v.34h-.56v-2.81a10,10,0,0,1-2.19,1,1.91,1.91,0,0,0-.32-.51,9.65,9.65,0,0,0,3.23-1.69A9.05,9.05,0,0,0,62,152l.42-.34a7.78,7.78,0,0,1,1.4,1.16,7.26,7.26,0,0,0,1.66-2.13h-2.7a9.47,9.47,0,0,1-2.19,1.84,1.81,1.81,0,0,0-.4-.43,7.78,7.78,0,0,0,2.88-2.82l.76.12c0,.07-.07.11-.18.11a6.44,6.44,0,0,1-.45.66h2.61l.1,0,.42.23a.21.21,0,0,1-.11.07,8.08,8.08,0,0,1-2.4,3.14Zm-4.25,2.76h3.67v-2.23H63.25Z" transform="translate(0)"/>
    <path class="cls-4" d="M70.48,151.76v.69c.23.33.84,1.29,1,1.52l-.31.42c-.12-.28-.42-.85-.67-1.28v4.11H70v-4.14a9.44,9.44,0,0,1-1,2.48,3.7,3.7,0,0,0-.29-.47,10.21,10.21,0,0,0,1.23-3.33H68.83v-.53H70v-1.9l.69,0c0,.06,0,.1-.16.11v1.74h.9v.53Zm3.21.46H72v5h-.5v-7.62h2.16Zm-.46-2.13H72v.61h1.2ZM72,151.77h1.2v-.66H72Zm4.35-2.14v7c0,.55-.26.63-1.17.62a4.08,4.08,0,0,0-.16-.5h.24a4.43,4.43,0,0,1-1.12-1.09V157h-.45v-1.3a4.14,4.14,0,0,1-1.22,1.09,2,2,0,0,0-.3-.34,4,4,0,0,0,1.33-1.11h-.92v-1.83h1.12v-.36H72.39v-.37h1.34v-.43l.58,0c0,.05-.06.08-.16.1v.29h1.38v.37H74.15v.36h1.18v1.83h-.94a4.08,4.08,0,0,0,1.22,1.06,2.42,2.42,0,0,0-.31.33h.43c.1,0,.13,0,.13-.14v-4.41h-1.7v-2.59ZM73,153.88v.4h.75v-.4Zm0,.73V155h.75v-.41Zm1.93-.33v-.4h-.79v.4Zm0,.74v-.41h-.79V155Zm.93-4.93H74.63v.62h1.23Zm-1.23,1.68h1.23v-.65H74.63Z" transform="translate(0)"/>
  </g>
  <rect class="cls-5" x="17.27" y="148.89" width="198.61" height="29.2"/>
  <g class="cls-6">
    <line class="cls-7" x1="0.14" y1="4.54" x2="0.14" y2="182.01"/>
    <line class="cls-8" x1="0.99" y1="182.43" x2="232.58" y2="182.43"/>
  </g>
  <line class="cls-7" x1="233.01" y1="181.58" x2="233.01" y2="4.11"/>
  <g class="cls-6">
    <line class="cls-8" x1="232.16" y1="3.69" x2="0.57" y2="3.69"/>
    <path class="cls-9" d="M.14,3.69h0M233,3.69h0m0,178.74h0m-232.87,0h0" transform="translate(0)"/>
  </g>
  <rect class="cls-10" x="99.57" width="34.01" height="8.5"/>
  <g class="cls-6">
    <g>
      <path class="cls-4" d="M104.13,5.22l.31,2.67-.62.07-.29-2.66-3.19.41-.08-.56,3.21-.41-.22-1.91-2.67.35-.08-.57,2.68-.34L103,.58l.83,0c0,.08-.07.15-.19.19l.15,1.44,2.59-.34.06.58-2.58.33.22,1.9,3.2-.4.07.57Z" transform="translate(0)"/>
      <path class="cls-4" d="M110,5.25V1.12l.8,0c0,.08-.07.14-.2.15V5.25ZM114.76.79c0,.08-.07.12-.2.14v2.7A4.24,4.24,0,0,1,111.5,8a2.67,2.67,0,0,0-.44-.46c2.36-.87,2.88-2.32,2.88-3.9V.74Z" transform="translate(0)"/>
      <path class="cls-4" d="M123.22,5.07a29.78,29.78,0,0,0-3-1.38V7.93h-.64V.55l.86,0c0,.09-.08.15-.22.18V3.26l.13-.18a29.88,29.88,0,0,1,3.19,1.42Z" transform="translate(0)"/>
      <path class="cls-4" d="M127,5.25V1.12l.81,0c0,.08-.07.14-.2.15V5.25ZM131.77.79c0,.08-.07.12-.21.14v2.7A4.23,4.23,0,0,1,128.51,8a3.12,3.12,0,0,0-.44-.46c2.35-.87,2.88-2.32,2.88-3.9V.74Z" transform="translate(0)"/>
    </g>
  </g>
</svg>
