<svg id="レイヤー_1" data-name="レイヤー 1" xmlns="http://www.w3.org/2000/svg" width="174.39mm" height="174.59mm" viewBox="0 0 494.34 494.91"><defs><style>.cls-1,.cls-10,.cls-11,.cls-12,.cls-13,.cls-14,.cls-15,.cls-16,.cls-17,.cls-2,.cls-20,.cls-21,.cls-22,.cls-4,.cls-5,.cls-9{fill:none;}.cls-1,.cls-12,.cls-14,.cls-16,.cls-17,.cls-18,.cls-19,.cls-2,.cls-21,.cls-23,.cls-4,.cls-5,.cls-8,.cls-9{stroke:#000;}.cls-1,.cls-10,.cls-11,.cls-12,.cls-13,.cls-15,.cls-16,.cls-21,.cls-22,.cls-9{stroke-miterlimit:10;}.cls-1{stroke-width:6.08px;}.cls-2,.cls-20{stroke-linecap:round;stroke-linejoin:round;}.cls-2,.cls-4,.cls-5,.cls-8,.cls-9{stroke-width:1.11px;}.cls-18,.cls-19,.cls-3{fill:#bfbfbf;}.cls-5{stroke-miterlimit:2;}.cls-6,.cls-8{fill:#fff;}.cls-23,.cls-7{fill:#ccc;}.cls-10{stroke:#231815;stroke-width:7.38px;}.cls-11,.cls-13,.cls-15,.cls-22{stroke:#ccc;}.cls-11{stroke-width:4.53px;}.cls-12{stroke-width:5.68px;}.cls-13{stroke-width:2.84px;}.cls-14,.cls-23{stroke-width:1.22px;}.cls-15{stroke-width:3.04px;}.cls-16{stroke-width:1.38px;}.cls-17,.cls-18{stroke-width:1.3px;}.cls-19{stroke-width:0.87px;}.cls-20{stroke:#040000;stroke-width:1.61px;}.cls-21{stroke-width:11.07px;}.cls-22{stroke-width:8.25px;}.cls-24{fill:#231815;}</style></defs><path class="cls-1" d="M187.77,166.07v35a4,4,0,0,1-3.94,3.93H83.2A4,4,0,0,0,79.26,209v9.36"/><path d="M34.63,368.78h1v4.79H38v.86H34.63Z"/><path d="M40,374.76l2-6.07h.72l-2,6.07Z"/><path d="M49.82,372.12c0-.72-.08-1.6-.07-2.37h0c-.19.69-.42,1.45-.67,2.17l-.82,2.44h-.8L46.69,372c-.22-.72-.42-1.49-.57-2.2h0c0,.74-.06,1.64-.1,2.41l-.13,2.27h-1l.38-5.65h1.36l.73,2.27c.2.67.38,1.34.52,2h0c.15-.61.34-1.3.56-2l.78-2.26h1.34l.32,5.65h-1Z"/><path d="M57,371.55a2.67,2.67,0,0,1-2.7,3,2.6,2.6,0,0,1-2.6-2.87,2.71,2.71,0,0,1,2.68-3A2.61,2.61,0,0,1,57,371.55Zm-4.21.08c0,1.15.58,2.07,1.56,2.07s1.56-.93,1.56-2.11-.53-2.08-1.56-2.08S52.78,370.47,52.78,371.63Z"/><path d="M57.88,374.43v-5.65h1.17l1.46,2.42a14.74,14.74,0,0,1,1,1.9h0c-.07-.76-.09-1.49-.09-2.35v-2h1v5.65H61.29l-1.47-2.49a18,18,0,0,1-1-1.94h0c0,.72,0,1.47,0,2.4v2Z"/><path d="M68.55,371.55a2.67,2.67,0,0,1-2.7,3,2.61,2.61,0,0,1-2.6-2.87,2.71,2.71,0,0,1,2.68-3A2.61,2.61,0,0,1,68.55,371.55Zm-4.21.08c0,1.15.58,2.07,1.57,2.07s1.55-.93,1.55-2.11-.52-2.08-1.55-2.08S64.34,370.47,64.34,371.63Z"/><path d="M204.62,368.78h1v4.79H208v.86h-3.35Z"/><path d="M210,374.76l2-6.07h.72l-2,6.07Z"/><path d="M219.81,372.12c0-.72-.08-1.6-.07-2.37h0c-.19.69-.42,1.45-.67,2.17l-.82,2.44h-.8l-.75-2.41c-.22-.72-.42-1.49-.57-2.2h0c0,.74-.06,1.64-.1,2.41l-.12,2.27h-1l.38-5.65h1.36l.73,2.27c.2.67.38,1.34.52,2h0c.15-.61.34-1.3.56-2l.78-2.26h1.34l.33,5.65h-1Z"/><path d="M227,371.55a2.67,2.67,0,0,1-2.7,3,2.61,2.61,0,0,1-2.6-2.87,2.71,2.71,0,0,1,2.68-3A2.61,2.61,0,0,1,227,371.55Zm-4.21.08c0,1.15.58,2.07,1.57,2.07s1.55-.93,1.55-2.11-.52-2.08-1.55-2.08S222.77,370.47,222.77,371.63Z"/><path d="M227.87,374.43v-5.65H229l1.46,2.42a16.25,16.25,0,0,1,1,1.9h0c-.07-.76-.09-1.49-.09-2.35v-2h1v5.65h-1.06l-1.47-2.49a20,20,0,0,1-1-1.94h0c0,.72,0,1.47,0,2.4v2Z"/><path d="M238.54,371.55a2.66,2.66,0,0,1-2.7,3,2.61,2.61,0,0,1-2.6-2.87,2.71,2.71,0,0,1,2.68-3A2.61,2.61,0,0,1,238.54,371.55Zm-4.21.08c0,1.15.58,2.07,1.57,2.07s1.56-.93,1.56-2.11-.53-2.08-1.56-2.08S234.33,370.47,234.33,371.63Z"/><path d="M105.92,369.19a11,11,0,0,1,1.56-.11,2.59,2.59,0,0,1,1.74.45,1.43,1.43,0,0,1,.49,1.13,1.5,1.5,0,0,1-1,1.41v0a1.44,1.44,0,0,1,.78,1.09,10.94,10.94,0,0,0,.45,1.57h-1.07a8.24,8.24,0,0,1-.37-1.33c-.16-.74-.43-1-1-1h-.52v2.32h-1Zm1,2.5h.62c.69,0,1.13-.37,1.13-.93s-.44-.91-1.11-.91a2.57,2.57,0,0,0-.64.06Z"/><path d="M272.38,369.19a11,11,0,0,1,1.56-.11,2.59,2.59,0,0,1,1.74.45,1.43,1.43,0,0,1,.49,1.13,1.5,1.5,0,0,1-1,1.41v0a1.44,1.44,0,0,1,.78,1.09,10.94,10.94,0,0,0,.45,1.57h-1.07a8.24,8.24,0,0,1-.37-1.33c-.16-.74-.43-1-1-1h-.53v2.32h-1Zm1,2.5H274c.69,0,1.13-.37,1.13-.93s-.44-.91-1.11-.91a2.63,2.63,0,0,0-.64.06Z"/><path class="cls-2" d="M232.71,339.48a11.13,11.13,0,1,0-11.13,11.13,11.13,11.13,0,0,0,11.13-11.13Z"/><path class="cls-2" d="M237.42,339.48a15.84,15.84,0,1,0-15.84,15.84,15.84,15.84,0,0,0,15.84-15.84Z"/><path class="cls-2" d="M285.51,339.48a11.13,11.13,0,1,0-11.13,11.13,11.13,11.13,0,0,0,11.13-11.13Z"/><path class="cls-2" d="M290.22,339.48a15.84,15.84,0,1,0-15.84,15.84,15.84,15.84,0,0,0,15.84-15.84Z"/><path class="cls-2" d="M62.72,339.48a11.13,11.13,0,1,0-11.13,11.13,11.13,11.13,0,0,0,11.13-11.13Z"/><path class="cls-2" d="M67.43,339.48a15.84,15.84,0,1,0-15.84,15.84,15.84,15.84,0,0,0,15.84-15.84Z"/><path class="cls-2" d="M119.05,339.48a11.13,11.13,0,1,0-11.13,11.13,11.13,11.13,0,0,0,11.13-11.13Z"/><path class="cls-2" d="M123.76,339.48a15.84,15.84,0,1,0-15.84,15.84,15.84,15.84,0,0,0,15.84-15.84Z"/><rect class="cls-3" x="224.84" y="430.75" width="63.25" height="44.43"/><path class="cls-4" d="M213.7,437h1.94m-6.32,0a3.53,3.53,0,1,0,3.53-3.52A3.52,3.52,0,0,0,209.32,437Zm2.3,34.67a1.33,1.33,0,1,0,1.33-1.32A1.33,1.33,0,0,0,211.62,471.66Zm8.77-7h1.1v-3.08h-1.1Zm-.11,4.8h1.32v-8.1h-1.32Zm.12-6.34h1.08m3.36,12.08V430.75H287a.88.88,0,0,1,.88.88V474.3a.88.88,0,0,1-.88.88Zm0-44.43h-19a.88.88,0,0,0-.89.88V474.3a.88.88,0,0,0,.89.88h18.95M205,476.5a1.76,1.76,0,0,0,1.76,1.76h82.49A1.76,1.76,0,0,0,291,476.5V429.43a1.76,1.76,0,0,0-1.76-1.76H206.74a1.76,1.76,0,0,0-1.76,1.76Z"/><path d="M214.83,433.18a.22.22,0,1,0,.22-.22A.22.22,0,0,0,214.83,433.18Z"/><path class="cls-4" d="M214.83,433.18a.22.22,0,1,0,.22-.22A.22.22,0,0,0,214.83,433.18Z"/><path d="M212.63,432.6a.21.21,0,0,0,.22.21.21.21,0,0,0,.21-.21.22.22,0,1,0-.43,0Z"/><path class="cls-4" d="M212.63,432.6a.21.21,0,0,0,.22.21.21.21,0,0,0,.21-.21.22.22,0,1,0-.43,0Z"/><path d="M216.44,434.79a.22.22,0,0,0,.22.22.22.22,0,0,0,0-.44A.22.22,0,0,0,216.44,434.79Z"/><path class="cls-4" d="M216.44,434.79a.22.22,0,0,0,.22.22.22.22,0,0,0,0-.44A.22.22,0,0,0,216.44,434.79Z"/><path d="M217,437a.22.22,0,1,0,.44,0,.22.22,0,1,0-.44,0Z"/><path class="cls-4" d="M217,437a.22.22,0,1,0,.44,0,.22.22,0,1,0-.44,0Z"/><path d="M216.45,439.2a.22.22,0,0,0,.44,0,.22.22,0,0,0-.44,0Z"/><path class="cls-4" d="M216.45,439.2a.22.22,0,0,0,.44,0,.22.22,0,0,0-.44,0Z"/><path d="M214.83,440.8a.22.22,0,1,0,.44,0,.22.22,0,1,0-.44,0Z"/><path class="cls-4" d="M214.83,440.8a.22.22,0,1,0,.44,0,.22.22,0,1,0-.44,0Z"/><path d="M212.63,441.39a.21.21,0,0,0,.22.22.22.22,0,0,0,.22-.22.22.22,0,0,0-.22-.22A.22.22,0,0,0,212.63,441.39Z"/><path class="cls-4" d="M212.63,441.39a.21.21,0,0,0,.22.22.22.22,0,0,0,.22-.22.22.22,0,0,0-.22-.22A.22.22,0,0,0,212.63,441.39Z"/><path d="M210.42,440.8a.22.22,0,1,0,.22-.22A.22.22,0,0,0,210.42,440.8Z"/><path class="cls-4" d="M210.42,440.8a.22.22,0,1,0,.22-.22A.22.22,0,0,0,210.42,440.8Z"/><path d="M210.42,433.18a.22.22,0,1,0,.44,0,.22.22,0,0,0-.44,0Z"/><path class="cls-4" d="M210.42,433.18a.22.22,0,1,0,.44,0,.22.22,0,0,0-.44,0Z"/><path d="M208.69,439.19a.33.33,0,0,0,.33.33.33.33,0,0,0,0-.66A.33.33,0,0,0,208.69,439.19Z"/><path class="cls-4" d="M208.69,439.19a.33.33,0,0,0,.33.33.33.33,0,0,0,0-.66A.33.33,0,0,0,208.69,439.19Z"/><path d="M208.7,434.79a.33.33,0,0,0,.66,0,.33.33,0,0,0-.66,0Z"/><path class="cls-4" d="M208.7,434.79a.33.33,0,0,0,.66,0,.33.33,0,0,0-.66,0Z"/><path class="cls-5" d="M210.52,471.85l-.16.74m-1.06-.74.16.74m1-.3a.9.9,0,0,0,.34-.7.87.87,0,1,0-1.74,0,.9.9,0,0,0,.35.71"/><path d="M212.28,471.66a.67.67,0,0,0,1.33,0,.67.67,0,0,0-1.33,0Z"/><path class="cls-4" d="M212.28,471.66a.67.67,0,0,0,1.33,0,.67.67,0,0,0-1.33,0Z"/><path class="cls-4" d="M212.62,457.48h1.24m-4,0a2.26,2.26,0,1,0,2.25-2.25A2.25,2.25,0,0,0,209.82,457.48Z"/><path d="M213.34,455a.14.14,0,1,0,.14-.14A.14.14,0,0,0,213.34,455Z"/><path class="cls-4" d="M213.34,455a.14.14,0,1,0,.14-.14A.14.14,0,0,0,213.34,455Z"/><path d="M211.93,454.66a.14.14,0,0,0,.28,0,.14.14,0,0,0-.28,0Z"/><path class="cls-4" d="M211.93,454.66a.14.14,0,0,0,.28,0,.14.14,0,0,0-.28,0Z"/><path d="M214.37,456.07a.14.14,0,1,0,.14-.14A.14.14,0,0,0,214.37,456.07Z"/><path class="cls-4" d="M214.37,456.07a.14.14,0,1,0,.14-.14A.14.14,0,0,0,214.37,456.07Z"/><path d="M214.76,457.48a.14.14,0,1,0,.14-.14A.14.14,0,0,0,214.76,457.48Z"/><path class="cls-4" d="M214.76,457.48a.14.14,0,1,0,.14-.14A.14.14,0,0,0,214.76,457.48Z"/><path d="M214.38,458.89a.14.14,0,0,0,.28,0,.14.14,0,1,0-.28,0Z"/><path class="cls-4" d="M214.38,458.89a.14.14,0,0,0,.28,0,.14.14,0,1,0-.28,0Z"/><path d="M213.34,459.92a.14.14,0,1,0,.14-.14A.14.14,0,0,0,213.34,459.92Z"/><path class="cls-4" d="M213.34,459.92a.14.14,0,1,0,.14-.14A.14.14,0,0,0,213.34,459.92Z"/><path d="M211.93,460.3a.14.14,0,0,0,.28,0,.14.14,0,1,0-.28,0Z"/><path class="cls-4" d="M211.93,460.3a.14.14,0,0,0,.28,0,.14.14,0,1,0-.28,0Z"/><path d="M210.52,459.92a.14.14,0,1,0,.14-.14A.14.14,0,0,0,210.52,459.92Z"/><path class="cls-4" d="M210.52,459.92a.14.14,0,1,0,.14-.14A.14.14,0,0,0,210.52,459.92Z"/><path d="M210.52,455a.14.14,0,1,0,.14-.14A.14.14,0,0,0,210.52,455Z"/><path class="cls-4" d="M210.52,455a.14.14,0,1,0,.14-.14A.14.14,0,0,0,210.52,455Z"/><path d="M209.41,458.89a.21.21,0,0,0,.21.2.2.2,0,0,0,.21-.2.21.21,0,0,0-.21-.22A.22.22,0,0,0,209.41,458.89Z"/><path class="cls-4" d="M209.41,458.89a.21.21,0,0,0,.21.2.2.2,0,0,0,.21-.2.21.21,0,0,0-.21-.22A.22.22,0,0,0,209.41,458.89Z"/><path d="M209.42,456.07a.21.21,0,0,0,.21.21.21.21,0,1,0,0-.42A.21.21,0,0,0,209.42,456.07Z"/><path class="cls-4" d="M209.42,456.07a.21.21,0,0,0,.21.21.21.21,0,1,0,0-.42A.21.21,0,0,0,209.42,456.07Z"/><path class="cls-4" d="M212.39,448.71h1.23m-4,0a2.26,2.26,0,1,0,2.26-2.25A2.26,2.26,0,0,0,209.58,448.71Z"/><path d="M213.11,446.27a.14.14,0,0,0,.14.14.14.14,0,0,0,0-.28A.14.14,0,0,0,213.11,446.27Z"/><path class="cls-4" d="M213.11,446.27a.14.14,0,0,0,.14.14.14.14,0,0,0,0-.28A.14.14,0,0,0,213.11,446.27Z"/><path d="M211.69,445.89a.15.15,0,0,0,.14.15.15.15,0,0,0,.15-.15.15.15,0,0,0-.15-.14A.15.15,0,0,0,211.69,445.89Z"/><path class="cls-4" d="M211.69,445.89a.15.15,0,0,0,.14.15.15.15,0,0,0,.15-.15.15.15,0,0,0-.15-.14A.15.15,0,0,0,211.69,445.89Z"/><path d="M214.14,447.3a.14.14,0,1,0,.14-.14A.14.14,0,0,0,214.14,447.3Z"/><path class="cls-4" d="M214.14,447.3a.14.14,0,1,0,.14-.14A.14.14,0,0,0,214.14,447.3Z"/><path d="M214.52,448.71a.14.14,0,0,0,.14.14.14.14,0,1,0,0-.28A.14.14,0,0,0,214.52,448.71Z"/><path class="cls-4" d="M214.52,448.71a.14.14,0,0,0,.14.14.14.14,0,1,0,0-.28A.14.14,0,0,0,214.52,448.71Z"/><path d="M214.14,450.12a.14.14,0,0,0,.15.14.14.14,0,0,0,0-.28A.14.14,0,0,0,214.14,450.12Z"/><path class="cls-4" d="M214.14,450.12a.14.14,0,0,0,.15.14.14.14,0,0,0,0-.28A.14.14,0,0,0,214.14,450.12Z"/><path d="M213.11,451.15a.14.14,0,1,0,.14-.14A.14.14,0,0,0,213.11,451.15Z"/><path class="cls-4" d="M213.11,451.15a.14.14,0,1,0,.14-.14A.14.14,0,0,0,213.11,451.15Z"/><path d="M211.69,451.53a.15.15,0,0,0,.14.14.15.15,0,0,0,.15-.14.14.14,0,0,0-.15-.14A.14.14,0,0,0,211.69,451.53Z"/><path class="cls-4" d="M211.69,451.53a.15.15,0,0,0,.14.14.15.15,0,0,0,.15-.14.14.14,0,0,0-.15-.14A.14.14,0,0,0,211.69,451.53Z"/><circle cx="210.42" cy="451.15" r="0.14"/><circle class="cls-4" cx="210.42" cy="451.15" r="0.14"/><path d="M210.29,446.27a.14.14,0,0,0,.14.14.14.14,0,0,0,0-.28A.14.14,0,0,0,210.29,446.27Z"/><path class="cls-4" d="M210.29,446.27a.14.14,0,0,0,.14.14.14.14,0,0,0,0-.28A.14.14,0,0,0,210.29,446.27Z"/><path d="M209.18,450.11a.21.21,0,1,0,.42,0,.21.21,0,1,0-.42,0Z"/><path class="cls-4" d="M209.18,450.11a.21.21,0,1,0,.42,0,.21.21,0,1,0-.42,0Z"/><path d="M209.18,447.3a.21.21,0,0,0,.21.21.21.21,0,0,0,.22-.21.22.22,0,0,0-.43,0Z"/><path class="cls-4" d="M209.18,447.3a.21.21,0,0,0,.21.21.21.21,0,0,0,.22-.21.22.22,0,0,0-.43,0Z"/><path class="cls-4" d="M211.84,466.44a1.33,1.33,0,1,0,1.32-1.32A1.32,1.32,0,0,0,211.84,466.44Z"/><path d="M212.5,466.44a.67.67,0,0,0,1.33,0,.67.67,0,0,0-1.33,0Z"/><path class="cls-4" d="M212.5,466.44a.67.67,0,0,0,1.33,0,.67.67,0,0,0-1.33,0Z"/><polygon class="cls-6" points="432.31 324.84 397.3 324.84 397.3 354.12 435.4 354.12 435.4 324.84 432.31 324.84"/><polygon class="cls-4" points="432.31 324.84 397.3 324.84 397.3 354.12 435.4 354.12 435.4 324.84 432.31 324.84"/><rect class="cls-6" x="400.38" y="327.92" width="31.93" height="23.12"/><rect class="cls-4" x="400.38" y="327.92" width="31.93" height="23.12"/><rect class="cls-6" x="406.29" y="336.49" width="20.11" height="5.99"/><rect class="cls-4" x="406.29" y="336.49" width="20.11" height="5.99"/><polygon class="cls-4" points="412.44 485.9 412.44 477.53 396.45 477.53 396.45 485.9 374.83 485.9 374.83 487.52 396.45 487.52 412.44 487.52 434.06 487.52 434.06 485.9 412.44 485.9"/><rect class="cls-7" x="354.75" y="418.41" width="99.39" height="62.12"/><path class="cls-8" d="M354.75,418.41v62.12h99.39V418.41Zm96.39,59.12H357.75V421.41h93.39Z"/><rect class="cls-8" x="463.6" y="418.41" width="14.35" height="69.11"/><rect x="466.84" y="423.99" width="1.73" height="22.54"/><rect class="cls-4" x="471.83" y="423.99" width="3.36" height="28.49"/><path class="cls-4" d="M472.83,474.77a2.06,2.06,0,1,1-2.06-2.06A2.06,2.06,0,0,1,472.83,474.77Z"/><rect class="cls-4" x="468.39" y="479.47" width="4.77" height="4.77"/><polyline class="cls-9" points="139.59 339.48 155.43 339.48 155.43 494.35 0.56 494.35 0.56 339.48 16.39 339.48"/><polyline class="cls-9" points="309.58 339.48 325.42 339.48 325.42 494.35 170.55 494.35 170.55 339.48 186.38 339.48"/><polyline class="cls-9" points="451.55 339.48 493.78 339.48 493.78 494.35 338.91 494.35 338.91 339.48 381.15 339.48"/><path class="cls-10" d="M274.18,254.72V217.85a3.7,3.7,0,0,1,3.68-3.69h32.5a3.69,3.69,0,0,0,3.68-3.68v-25.4"/><path class="cls-11" d="M274.18,254.72V217.85a3.7,3.7,0,0,1,3.68-3.69h32.5a3.69,3.69,0,0,0,3.68-3.68v-25.4"/><path class="cls-12" d="M51.87,254.72V221.64a3.5,3.5,0,0,1,3.5-3.5h49.32a3.5,3.5,0,0,1,3.5,3.5v33.08"/><path class="cls-13" d="M51.87,254.72V221.64a3.5,3.5,0,0,1,3.5-3.5h49.32a3.5,3.5,0,0,1,3.5,3.5v33.08"/><path class="cls-6" d="M310.9,157.3v-26c0-.45.77-1,1.07-1.31a.94.94,0,0,0,.09-1.17l-1-1.11a1.56,1.56,0,0,1-.06-1.41l1.89-2.8a1.35,1.35,0,0,1,1.13-.69,1.49,1.49,0,0,1,1.14.75l1.88,2.74a1.39,1.39,0,0,1-.1,1.38l-1.09,1.17a.84.84,0,0,0,.09,1.14c.32.27,1.24.86,1.24,1.31v26"/><path class="cls-14" d="M310.9,157.3v-26c0-.45.77-1,1.07-1.31a.94.94,0,0,0,.09-1.17l-1-1.11a1.56,1.56,0,0,1-.06-1.41l1.89-2.8a1.35,1.35,0,0,1,1.13-.69,1.49,1.49,0,0,1,1.14.75l1.88,2.74a1.39,1.39,0,0,1-.1,1.38l-1.09,1.17a.84.84,0,0,0,.09,1.14c.32.27,1.24.86,1.24,1.31v26"/><rect x="310.9" y="131.81" width="6.28" height="1.2"/><rect class="cls-14" x="310.9" y="131.81" width="6.28" height="1.2"/><path class="cls-3" d="M308.48,157.44l-.9,28.47c0,6.25,2.9,8.15,6.43,8.15s6.43-1.9,6.43-8.15l-.89-28.47Z"/><path class="cls-14" d="M308.48,157.44l-.9,28.47c0,6.25,2.9,8.15,6.43,8.15s6.43-1.9,6.43-8.15l-.89-28.47Z"/><path class="cls-6" d="M277.64,275.22v28.86c0,.51-.85,1.16-1.19,1.46a1,1,0,0,0-.11,1.3l1.12,1.23a1.74,1.74,0,0,1,.07,1.57l-2.1,3.11a1.49,1.49,0,0,1-1.26.77,1.69,1.69,0,0,1-1.27-.83l-2.09-3.05a1.58,1.58,0,0,1,.12-1.53l1.21-1.31a.93.93,0,0,0-.1-1.26c-.36-.3-1.38-1-1.38-1.46V275.22"/><path class="cls-14" d="M277.64,275.22v28.86c0,.51-.85,1.16-1.19,1.46a1,1,0,0,0-.11,1.3l1.12,1.23a1.74,1.74,0,0,1,.07,1.57l-2.1,3.11a1.49,1.49,0,0,1-1.26.77,1.69,1.69,0,0,1-1.27-.83l-2.09-3.05a1.58,1.58,0,0,1,.12-1.53l1.21-1.31a.93.93,0,0,0-.1-1.26c-.36-.3-1.38-1-1.38-1.46V275.22"/><rect x="270.66" y="302.21" width="6.98" height="1.34"/><rect class="cls-14" x="270.66" y="302.21" width="6.98" height="1.34"/><path class="cls-3" d="M280.33,275.07l1-31.64c0-6.94-3.21-9.06-7.14-9.06s-7.14,2.12-7.14,9.06l1,31.64Z"/><path class="cls-14" d="M280.33,275.07l1-31.64c0-6.94-3.21-9.06-7.14-9.06s-7.14,2.12-7.14,9.06l1,31.64Z"/><path class="cls-10" d="M221.72,254.72V217.85a3.7,3.7,0,0,1,3.68-3.69h33.23a3.68,3.68,0,0,0,3.68-3.68v-25.4"/><path class="cls-11" d="M221.72,254.72V217.85a3.7,3.7,0,0,1,3.68-3.69h33.23a3.68,3.68,0,0,0,3.68-3.68v-25.4"/><path class="cls-6" d="M259.17,157.3v-26c0-.45.77-1,1.07-1.31a.94.94,0,0,0,.1-1.17l-1-1.11a1.56,1.56,0,0,1-.07-1.41l1.89-2.8a1.35,1.35,0,0,1,1.14-.69,1.51,1.51,0,0,1,1.14.75l1.88,2.74a1.42,1.42,0,0,1-.11,1.38l-1.08,1.17a.83.83,0,0,0,.09,1.14c.31.27,1.23.86,1.23,1.31v26"/><path class="cls-14" d="M259.17,157.3v-26c0-.45.77-1,1.07-1.31a.94.94,0,0,0,.1-1.17l-1-1.11a1.56,1.56,0,0,1-.07-1.41l1.89-2.8a1.35,1.35,0,0,1,1.14-.69,1.51,1.51,0,0,1,1.14.75l1.88,2.74a1.42,1.42,0,0,1-.11,1.38l-1.08,1.17a.83.83,0,0,0,.09,1.14c.31.27,1.23.86,1.23,1.31v26"/><rect x="259.17" y="131.81" width="6.28" height="1.2"/><rect class="cls-14" x="259.17" y="131.81" width="6.28" height="1.2"/><path class="cls-3" d="M256.75,157.44l-.89,28.47c0,6.25,2.89,8.15,6.43,8.15s6.43-1.9,6.43-8.15l-.9-28.47Z"/><path class="cls-14" d="M256.75,157.44l-.89,28.47c0,6.25,2.89,8.15,6.43,8.15s6.43-1.9,6.43-8.15l-.9-28.47Z"/><path class="cls-6" d="M225.18,275.22v28.86c0,.51-.85,1.16-1.19,1.46a1,1,0,0,0-.11,1.3l1.12,1.23a1.74,1.74,0,0,1,.07,1.57l-2.1,3.11a1.5,1.5,0,0,1-1.26.77,1.69,1.69,0,0,1-1.27-.83l-2.09-3.05a1.58,1.58,0,0,1,.12-1.53l1.21-1.31a.93.93,0,0,0-.1-1.26c-.36-.3-1.38-1-1.38-1.46V275.22"/><path class="cls-14" d="M225.18,275.22v28.86c0,.51-.85,1.16-1.19,1.46a1,1,0,0,0-.11,1.3l1.12,1.23a1.74,1.74,0,0,1,.07,1.57l-2.1,3.11a1.5,1.5,0,0,1-1.26.77,1.69,1.69,0,0,1-1.27-.83l-2.09-3.05a1.58,1.58,0,0,1,.12-1.53l1.21-1.31a.93.93,0,0,0-.1-1.26c-.36-.3-1.38-1-1.38-1.46V275.22"/><rect x="218.2" y="302.21" width="6.98" height="1.34"/><rect class="cls-14" x="218.2" y="302.21" width="6.98" height="1.34"/><path class="cls-3" d="M227.87,275.07l1-31.64c0-6.94-3.21-9.06-7.14-9.06s-7.14,2.12-7.14,9.06l1,31.64Z"/><path class="cls-14" d="M227.87,275.07l1-31.64c0-6.94-3.21-9.06-7.14-9.06s-7.14,2.12-7.14,9.06l1,31.64Z"/><path class="cls-6" d="M55.33,275.22v28.86c0,.51-.86,1.16-1.19,1.46a1,1,0,0,0-.11,1.3l1.11,1.23a1.68,1.68,0,0,1,.07,1.57l-2.1,3.11a1.49,1.49,0,0,1-1.26.77,1.65,1.65,0,0,1-1.26-.83l-2.09-3.05a1.55,1.55,0,0,1,.12-1.53l1.2-1.31a.92.92,0,0,0-.1-1.26c-.35-.3-1.37-1-1.37-1.46V275.22"/><path class="cls-14" d="M55.33,275.22v28.86c0,.51-.86,1.16-1.19,1.46a1,1,0,0,0-.11,1.3l1.11,1.23a1.68,1.68,0,0,1,.07,1.57l-2.1,3.11a1.49,1.49,0,0,1-1.26.77,1.65,1.65,0,0,1-1.26-.83l-2.09-3.05a1.55,1.55,0,0,1,.12-1.53l1.2-1.31a.92.92,0,0,0-.1-1.26c-.35-.3-1.37-1-1.37-1.46V275.22"/><rect x="48.35" y="302.21" width="6.98" height="1.34"/><rect class="cls-14" x="48.35" y="302.21" width="6.98" height="1.34"/><path class="cls-3" d="M58,275.07l1-31.64c0-6.94-3.22-9.06-7.14-9.06s-7.15,2.12-7.15,9.06l1,31.64Z"/><path class="cls-14" d="M58,275.07l1-31.64c0-6.94-3.22-9.06-7.14-9.06s-7.15,2.12-7.15,9.06l1,31.64Z"/><path class="cls-15" d="M187.77,166.07v35a4,4,0,0,1-3.94,3.93H83.2A4,4,0,0,0,79.26,209v9.36"/><path class="cls-6" d="M111.65,275.22v28.86c0,.51-.85,1.16-1.18,1.46a1,1,0,0,0-.11,1.3l1.11,1.23a1.74,1.74,0,0,1,.07,1.57l-2.1,3.11a1.49,1.49,0,0,1-1.26.77,1.65,1.65,0,0,1-1.26-.83l-2.1-3.05a1.58,1.58,0,0,1,.12-1.53l1.21-1.31a.92.92,0,0,0-.1-1.26c-.35-.3-1.37-1-1.37-1.46V275.22"/><path class="cls-14" d="M111.65,275.22v28.86c0,.51-.85,1.16-1.18,1.46a1,1,0,0,0-.11,1.3l1.11,1.23a1.74,1.74,0,0,1,.07,1.57l-2.1,3.11a1.49,1.49,0,0,1-1.26.77,1.65,1.65,0,0,1-1.26-.83l-2.1-3.05a1.58,1.58,0,0,1,.12-1.53l1.21-1.31a.92.92,0,0,0-.1-1.26c-.35-.3-1.37-1-1.37-1.46V275.22"/><rect x="104.68" y="302.21" width="6.98" height="1.34"/><rect class="cls-14" x="104.68" y="302.21" width="6.98" height="1.34"/><path class="cls-3" d="M114.34,275.07l1-31.64c0-6.94-3.22-9.06-7.15-9.06s-7.14,2.12-7.14,9.06l1,31.64Z"/><path class="cls-14" d="M114.34,275.07l1-31.64c0-6.94-3.22-9.06-7.15-9.06s-7.14,2.12-7.14,9.06l1,31.64Z"/><rect class="cls-16" x="79.1" y="0.69" width="359.53" height="113.52"/><path class="cls-6" d="M185.46,145.06V128.31c0-.3.57-.67.79-.85a.55.55,0,0,0,.07-.76l-.74-.71a.88.88,0,0,1,0-.91l1.39-1.81a1,1,0,0,1,.84-.44,1.13,1.13,0,0,1,.84.48l1.39,1.77a.82.82,0,0,1-.08.89l-.8.76a.49.49,0,0,0,.06.73c.24.18.92.55.92.85v16.75"/><path class="cls-17" d="M185.46,145.06V128.31c0-.3.57-.67.79-.85a.55.55,0,0,0,.07-.76l-.74-.71a.88.88,0,0,1,0-.91l1.39-1.81a1,1,0,0,1,.84-.44,1.13,1.13,0,0,1,.84.48l1.39,1.77a.82.82,0,0,1-.08.89l-.8.76a.49.49,0,0,0,.06.73c.24.18.92.55.92.85v16.75"/><rect x="185.46" y="128.62" width="4.63" height="0.77"/><rect class="cls-17" x="185.46" y="128.62" width="4.63" height="0.77"/><polygon class="cls-18" points="191.16 176.2 184.38 176.2 183.85 164.21 191.68 164.21 191.16 176.2"/><line class="cls-19" x1="184.36" y1="170.2" x2="191.17" y2="170.2"/><line class="cls-19" x1="184.36" y1="171.99" x2="191.17" y2="171.99"/><line class="cls-19" x1="184.36" y1="173.78" x2="191.17" y2="173.78"/><rect class="cls-18" x="182.5" y="143.36" width="10.54" height="23.92"/><path class="cls-20" d="M184.66,64.6l-.33,2.11.33,2.11,1.3,1.62,1.62,1.3,2.11.33,2.11-.33,1.63-1.3,1.3-1.62.32-2.11-.32-2.11L193.43,63l-1.63-1.13-2.11-.49-2.11.49L186,63l-1.3,1.63m-5.2-1.3L179,66.71l.49,3.57,1.79,3.09,2.6,2.27,3.24,1.46,3.41.33,3.58-.82,2.92-2,2.11-2.76,1.14-3.41V64.92l-1.14-3.25L197,58.75l-2.92-2L190.5,56l-3.41.33-3.24,1.46-2.6,2.27-1.79,3.25m3.9,6-.65-2.6.65-2.6,1.46-2.27,2.27-1.47,2.6-.48,2.6.48,2.27,1.47L196,64.11l.65,2.6-.65,2.6-1.46,2.27L192.29,73l-2.6.65-2.6-.65-2.27-1.46-1.46-2.27m63-24h12.35M240.19,56l.33-.81,5.84-9.91m24.85,0,2.92,5.2L277.38,56M258.71,45.27h12.5m5.36,26,.65-4.54-.65-4.55-1.63-4.38L272.18,54l-3.57-2.92-4.22-1.95-4.55-.81-4.54.32L250.91,50l-3.9,2.6-3.24,3.25-2.11,4.06-1.14,4.54V69l1.14,4.55,2.11,4.06L247,80.84l3.9,2.59,4.39,1.3,4.54.33,4.55-.81,4.22-2,3.57-2.93,2.76-3.73,1.63-4.39m-17.86-26-2.76.17-2.77.48-2.59,1L248,48.2l-2.28,1.46-2.11,2-1.94,2.11L240.19,56m37.19,0-1.62-2.27L274,51.61l-2.11-2-2.44-1.46L267,46.9l-2.76-1-2.76-.48-2.76-.17M233.86,66.71l3.09-5.2L240.19,56m0,21.44-.48-.82-5.85-9.9M240.19,56l-1.3,2.44-1,2.76L237.43,64l-.16,2.76.16,2.76.49,2.76,1,2.76,1.3,2.44m18.52,10.71H246.36m0,0L243.28,83l-3.09-5.52m0,0,1.47,2.43L243.6,82l2.11,1.79L248,85.38l2.6,1.14,2.59,1L256,88l2.76.16m24.84-21.43-3.08,5.19-3.09,5.53m0-21.44.33.81,5.84,9.91m-6.17,10.72L278.52,75l1-2.76.49-2.76.16-2.76L280,64l-.49-2.76-1-2.76L277.38,56m-6.17,32.15h-12.5m18.67-10.71-.49.81-5.68,9.9m-12.5,0,2.76-.16,2.76-.49,2.76-1,2.43-1.14,2.44-1.62L274,82l1.79-2.11,1.62-2.43M401.44,52.26l-.65.16h-.64m1.29-.16h0M400,50.79h1.46M364.58,82.13h33.78M138.54,70.28l.49-3.57-.49-3.41-1.79-3.25-2.6-2.27-3.24-1.46L127.5,56l-3.58.81-2.92,2-2.11,2.92-1.14,3.25v3.57l1.14,3.41L121,74.66l2.92,2,3.58.82,3.41-.33,3.24-1.46,2.6-2.27,1.79-3.09m62.84,0,.65-3.57-.65-3.57-1.62-3.41-2.44-2.6-3.08-1.79-3.57-.81-3.74.16-3.41,1.46-2.76,2.28-2.11,2.92-1.14,3.57v3.57l1.14,3.58L180.76,75l2.76,2.44,3.41,1.29,3.74.17,3.57-.82,3.08-1.78,2.44-2.6,1.62-3.41M401.44,49.49V49l-.16-.65-.32-.49-.49-.49-.32-.32-.65-.33-.49-.16-.65-.16m3.08,32.64V49.49m-3.08,32.64L399,82l.49-.16.65-.32.32-.33.49-.49.32-.48.16-.65v-.49m-39.94,0,.16.49.16.65.16.48.49.49.49.33.49.32.48.16.65.16M361.5,49.49V79.05m3.08-32.64-.65.16-.48.16-.49.33-.49.32-.49.49-.16.49-.16.65-.16.48m36.86-3.08H364.58m35.08.32H363.28M268.45,82.3h-.65m-18.19,0H249m17.7.65,3.74-2.44,3.08-3.25,2.11-3.89L276.73,69V64.43l-1.14-4.22-2.11-4.06L270.4,52.9l-3.74-2.43m-15.91,0h15.91m-15.91,0L247,52.9l-3.08,3.25-2.11,4.06-1,4.22V69l1,4.39,2.11,3.89L247,80.51,250.75,83m0,0h15.91m-23.38-20.3-.49,4.06.49,4.06,1.62,3.89,2.6,3.41,3.25,2.44,3.9,1.62,4.06.49,4.22-.49,3.73-1.62,3.41-2.44,2.44-3.41,1.62-3.89.49-4.06-.49-4.06-1.62-3.9-2.44-3.25-3.41-2.6-3.73-1.62-4.22-.49-4.06.49-3.9,1.62-3.25,2.6-2.6,3.25-1.62,3.9m3.08,8-.48-3.9.48-3.74L248,59.4l2.76-2.76,3.25-2,3.73-.81,3.9.16,3.57,1.46,3.09,2.44L270.4,61l1.13,3.74v3.9l-1.13,3.73-2.11,3.09-3.09,2.43-3.57,1.46-3.9.17L254,78.72l-3.25-1.94L248,74l-1.63-3.41m3.09-7.31-.65,3.41.65,3.41L251.24,73l2.59,2.27,3.25,1.14h3.41l3.25-1.14,2.6-2.27L268,70.12l.65-3.41L268,63.3l-1.62-2.93-2.6-2.27L260.49,57h-3.41l-3.25,1.14-2.59,2.27-1.79,2.93m-129.75.32-.65,3.09.65,3.08,1.63,2.93,2.43,1.94,2.93,1.14h3.24l2.93-1.14,2.43-1.94,1.63-2.93.65-3.08-.65-3.09-1.63-2.76-2.43-2.11-2.93-1.14h-3.24l-2.93,1.14-2.43,2.11-1.63,2.76M363,47.87v-1m37,1v-1m-37,1V80.51m0-32.64h37M389.91,75.64l4.55-4.71m-26,0,4.71,4.71m21.27-23.87h-26m0,0V70.93m4.71,4.71h16.72m4.55-4.71V51.77M363,80.51h37m0,0V47.87M398.2,80.51l.48,1.46m2.76-14.45-.32.32L400,69.47"/><rect x="238.09" y="27.09" width="101.37" height="0.71"/><path d="M240.25,31h1.08v5.92h2.89v.91h-4Z"/><path d="M249.31,30.39h.74l-2.58,9.08h-.74Z"/><path d="M253.23,31h1.23l1.25,3.46c.16.45.3.91.46,1.37h0c.16-.46.29-.92.45-1.37L257.89,31h1.25V37.8h-1V34.43c0-.62.09-1.5.14-2.12h0l-.55,1.58-1.19,3.25h-.67l-1.19-3.25-.54-1.58h0c.05.62.13,1.5.13,2.12V37.8h-1Z"/><path d="M260.61,34.36c0-2.2,1.22-3.51,3-3.51s3,1.31,3,3.51-1.23,3.56-3,3.56S260.61,36.56,260.61,34.36Zm4.85,0c0-1.6-.75-2.58-1.88-2.58s-1.86,1-1.86,2.58.73,2.63,1.86,2.63S265.46,36,265.46,34.36Z"/><path d="M268.08,31h1.11l2.26,4,.72,1.45h0c0-.7-.14-1.53-.14-2.27V31h1V37.8H272l-2.26-4L269,32.35H269c.06.7.14,1.49.14,2.23V37.8h-1Z"/><path d="M274.62,34.36c0-2.2,1.21-3.51,3-3.51s3,1.31,3,3.51-1.22,3.56-3,3.56S274.62,36.56,274.62,34.36Zm4.84,0c0-1.6-.74-2.58-1.88-2.58s-1.86,1-1.86,2.58.73,2.63,1.86,2.63S279.46,36,279.46,34.36Z"/><path d="M315.18,31h2.24c1.41,0,2.46.51,2.46,2a1.9,1.9,0,0,1-1.43,2l1.67,2.89h-1.21l-1.55-2.75h-1.1V37.8h-1.08Zm2.11,3.22c1,0,1.53-.41,1.53-1.24s-.54-1.11-1.53-1.11h-1v2.35Z"/><path d="M264.09,15.1h1.33v7.3H269v1.13h-4.9Z"/><path d="M270.38,15.1h1.32v8.43h-1.32Z"/><path d="M273.91,15.1h1.36l2.78,5,.88,1.78H279c-.07-.87-.17-1.88-.17-2.8V15.1h1.26v8.43h-1.36l-2.79-5-.88-1.77H275c.07.87.17,1.85.17,2.76v4h-1.25Z"/><path d="M282.29,15.1h5v1.12h-3.64v2.35h3.08v1.11h-3.08V22.4h3.77v1.13h-5.1Z"/><path d="M291.25,19.28c0-2.7,1.5-4.33,3.66-4.33s3.67,1.63,3.67,4.33-1.51,4.39-3.67,4.39S291.25,22,291.25,19.28Zm6,0c0-2-.91-3.17-2.31-3.17s-2.29,1.2-2.29,3.17.9,3.24,2.29,3.24S297.22,21.25,297.22,19.28Z"/><path d="M300.28,19.91V15.1h1.32V20c0,1.9.76,2.52,1.81,2.52s1.84-.62,1.84-2.52V15.1h1.28v4.81c0,2.75-1.26,3.76-3.12,3.76S300.28,22.66,300.28,19.91Z"/><path d="M310.41,16.22h-2.47V15.1h6.28v1.12h-2.48v7.31h-1.33Z"/><rect x="109.59" y="27.09" width="101.37" height="0.71"/><path d="M141.62,15.1H143v7.3h3.56v1.13h-4.89Z"/><path d="M147.9,15.1h1.33v8.43H147.9Z"/><path d="M151.43,15.1h1.36l2.79,5,.88,1.78h.06c-.07-.87-.17-1.88-.17-2.8V15.1h1.26v8.43h-1.36l-2.79-5-.88-1.77h-.06c.07.87.17,1.85.17,2.76v4h-1.26Z"/><path d="M159.82,15.1h5v1.12h-3.65v2.35h3.09v1.11h-3.09V22.4h3.77v1.13h-5.09Z"/><path d="M169.24,15.1h1.33v8.43h-1.33Z"/><path d="M172.77,15.1h1.36l2.79,5,.88,1.78h0c-.06-.87-.17-1.88-.17-2.8V15.1h1.26v8.43h-1.36l-2.79-5-.88-1.77h-.06c.07.87.18,1.85.18,2.76v4h-1.26Z"/><path d="M171.66,36.92l.63-.74a2.66,2.66,0,0,0,1.82.81c.83,0,1.29-.39,1.29-1s-.46-.81-1.1-1.09l-.94-.41A2,2,0,0,1,172,32.73a2,2,0,0,1,2.24-1.88,2.92,2.92,0,0,1,2.07.86l-.57.68a2.16,2.16,0,0,0-1.5-.61c-.69,0-1.15.34-1.15.87s.55.82,1.11,1l.93.4a1.91,1.91,0,0,1,1.39,1.85,2.12,2.12,0,0,1-2.4,2A3.4,3.4,0,0,1,171.66,36.92Z"/><path d="M179.18,31.88h-2V31h5.1v.91h-2V37.8h-1.07Z"/><path d="M183.45,31h4v.91h-3v1.9H187v.91h-2.51v2.2h3.06v.91h-4.13Z"/><path d="M189,31h2.24c1.41,0,2.47.51,2.47,2a1.91,1.91,0,0,1-1.43,2L194,37.8h-1.22l-1.55-2.75h-1.1V37.8H189Zm2.11,3.22c1,0,1.53-.41,1.53-1.24s-.54-1.11-1.53-1.11h-1v2.35Z"/><path d="M195.1,31h4v.91h-3v1.9h2.5v.91h-2.5v2.2h3.06v.91H195.1Z"/><path d="M200.3,34.36c0-2.2,1.21-3.51,3-3.51s3,1.31,3,3.51-1.22,3.56-3,3.56S200.3,36.56,200.3,34.36Zm4.84,0c0-1.6-.74-2.58-1.87-2.58s-1.87,1-1.87,2.58.73,2.63,1.87,2.63S205.14,36,205.14,34.36Z"/><path d="M119,31h1.08v5.92h2.89v.91h-4Z"/><path d="M124.15,31h4v.91h-3v1.9h2.51v.91h-2.51v2.2h3.07v.91h-4.14Z"/><path d="M128.94,31h1.14l1,3.54c.23.78.39,1.45.62,2.24h0c.24-.79.4-1.46.62-2.24l1-3.54h1.09l-2.13,6.83h-1.27Z"/><path d="M135.45,31h4v.91h-3v1.9H139v.91h-2.5v2.2h3.06v.91h-4.14Z"/><path d="M141.1,31h1.08v5.92h2.89v.91h-4Z"/><rect x="129.88" y="100.56" width="58.23" height="1.49"/><rect x="128.39" y="93.1" width="1.49" height="8.96"/><rect x="188.12" y="93.1" width="1.49" height="8.96"/><path d="M128.12,87.53A20.93,20.93,0,0,1,107,66.79a20.27,20.27,0,0,1,2.54-9.85l5.6,3.18A16,16,0,0,0,129,84h0a16,16,0,0,0,12.25-26.27l.82-.69a18,18,0,0,1,4.7,12.13,18.52,18.52,0,0,1-18.68,18.34"/><path d="M106.27,45.17h1.12l1.15,3.15c.14.42.27.84.41,1.26h0c.15-.42.27-.84.41-1.26l1.13-3.15h1.13v6.24h-.91V48.32c0-.55.07-1.36.12-1.93h0l-.5,1.44-1.08,3h-.61l-1.1-3-.49-1.44h0c0,.57.12,1.38.12,1.93v3.09h-.88Z"/><path d="M113.05,50.17c0-1,.84-1.52,2.78-1.73,0-.54-.2-1-.89-1a2.58,2.58,0,0,0-1.34.47l-.37-.66a3.65,3.65,0,0,1,1.88-.61c1.16,0,1.7.74,1.7,2v2.81H116l-.08-.54h0a2.28,2.28,0,0,1-1.48.65A1.29,1.29,0,0,1,113.05,50.17Zm2.78,0V49.06c-1.38.16-1.84.52-1.84,1s.31.65.73.65A1.64,1.64,0,0,0,115.83,50.2Z"/><path d="M119.19,49l-1.4-2.23h1l.56.93.44.79h0c.12-.26.26-.53.39-.79l.49-.93h1l-1.39,2.34,1.49,2.32h-1.05l-.61-1c-.16-.27-.32-.56-.49-.83h0l-.43.83-.54,1h-1Z"/><path d="M138.4,45.17h1.13l1.14,3.15c.14.42.27.84.42,1.26h0c.14-.42.26-.84.4-1.26l1.13-3.15h1.14v6.24h-.92V48.32c0-.55.08-1.36.13-1.93h0l-.5,1.44-1.08,3h-.61l-1.09-3-.49-1.44h0c.05.57.12,1.38.12,1.93v3.09h-.88Z"/><path d="M145.34,45.29a.61.61,0,0,1,1.21,0,.61.61,0,0,1-1.21,0Zm.12,1.46h1v4.66h-1Z"/><path d="M147.89,46.75h.8l.07.64h0a2.24,2.24,0,0,1,1.54-.76c1,0,1.43.66,1.43,1.85v2.93h-1V48.6c0-.81-.24-1.13-.79-1.13a1.55,1.55,0,0,0-1.13.63v3.31h-1Z"/><path d="M396,98.16l-2.85-1.65v1.1H375.82l3.25-3.43a1.38,1.38,0,0,1,1-.41h3.39a1.64,1.64,0,1,0,0-1.08H380a2.42,2.42,0,0,0-1.74.74l-3.47,3.67a1.61,1.61,0,0,1-1.19.51h-1.3a2.75,2.75,0,1,0,0,1.09h5.94a1.67,1.67,0,0,1,1.19.51l3.49,3.68a2.46,2.46,0,0,0,1.75.73h2.73v1.1h3.28v-3.28h-3.28v1.1h-2.73a1.32,1.32,0,0,1-1-.41l-3.25-3.43h12.69v1.1L396,98.16"/><path d="M346.69,19.16V14.24H348v5c0,1.94.77,2.57,1.84,2.57s1.88-.63,1.88-2.57v-5h1.31v4.92c0,2.8-1.28,3.84-3.19,3.84S346.69,22,346.69,19.16Z"/><path d="M354.54,21.74l.8-.94a3.34,3.34,0,0,0,2.29,1c1,0,1.62-.49,1.62-1.21s-.59-1-1.38-1.38l-1.19-.52a2.46,2.46,0,0,1-1.75-2.25,2.55,2.55,0,0,1,2.82-2.37,3.68,3.68,0,0,1,2.61,1.09l-.71.86a2.75,2.75,0,0,0-1.9-.77c-.87,0-1.44.42-1.44,1.1s.69,1,1.39,1.31l1.17.5a2.4,2.4,0,0,1,1.76,2.32c0,1.38-1.15,2.5-3,2.5A4.32,4.32,0,0,1,354.54,21.74Z"/><path d="M362.2,14.24h2.66c1.77,0,3,.58,3,2.13a1.9,1.9,0,0,1-1.23,1.85v.06a2,2,0,0,1,1.7,2c0,1.7-1.39,2.52-3.3,2.52H362.2Zm2.51,3.6c1.31,0,1.86-.49,1.86-1.3s-.61-1.23-1.82-1.23h-1.19v2.53Zm.21,3.95c1.34,0,2.12-.48,2.12-1.53s-.75-1.4-2.12-1.4h-1.36v2.93Z"/><path d="M372.71,20.75V17.5h-.93v-1l1-.07.15-1.78h1.12v1.78h1.67V17.5h-1.67v3.26c0,.77.27,1.16.94,1.16a1.78,1.78,0,0,0,.69-.15l.24,1a4.29,4.29,0,0,1-1.26.23C373.21,23,372.71,22.1,372.71,20.75Z"/><path d="M376.56,19.64a3,3,0,1,1,6.05,0,3,3,0,1,1-6.05,0Zm4.67,0c0-1.36-.63-2.27-1.64-2.27s-1.64.91-1.64,2.27.63,2.26,1.64,2.26S381.23,21,381.23,19.64Z"/><path d="M386.93,14.24h1.36v3.52H392V14.24h1.36v8.61H392V18.94h-3.67v3.91h-1.36Z"/><path d="M395.11,18.52c0-2.77,1.52-4.43,3.73-4.43s3.75,1.66,3.75,4.43S401.05,23,398.84,23,395.11,21.28,395.11,18.52Zm6.09,0c0-2-.94-3.25-2.36-3.25s-2.35,1.23-2.35,3.25.93,3.3,2.35,3.3S401.2,20.52,401.2,18.52Z"/><path d="M403.64,21.74l.79-.94a3.34,3.34,0,0,0,2.29,1c1,0,1.62-.49,1.62-1.21s-.58-1-1.37-1.38l-1.19-.52A2.46,2.46,0,0,1,404,16.46a2.55,2.55,0,0,1,2.82-2.37,3.66,3.66,0,0,1,2.6,1.09l-.71.86a2.73,2.73,0,0,0-1.89-.77c-.87,0-1.45.42-1.45,1.1s.69,1,1.39,1.31l1.18.5a2.39,2.39,0,0,1,1.75,2.32c0,1.38-1.14,2.5-3,2.5A4.3,4.3,0,0,1,403.64,21.74Z"/><path d="M413.1,15.39h-2.52V14.24H417v1.15h-2.53v7.46H413.1Z"/><path class="cls-21" d="M384.18,200.55V223.7c0,1.71,2.92,3.1,6.5,3.1h11.5c3.58,0,10.16,1.4,10.16,3.11v17.53"/><path class="cls-22" d="M384.18,200.55V223.7c0,1.71,2.92,3.1,6.5,3.1h11.5c3.58,0,10.16,1.4,10.16,3.11v17.53"/><path class="cls-7" d="M402,271.78v26.9H422.7v-26.9s.61-6.18-3.46-6.18V254.83s0-2.6-2-3V245.4a.56.56,0,0,0-.56-.55h-8.75a.55.55,0,0,0-.55.55v6.47h0c-1.95.45-2,3-2,3V265.6c-4.06,0-3.45,6.18-3.45,6.18"/><path class="cls-14" d="M402,271.8v26.9h2.08v16.56h16.59V298.7h2.07V271.8s.61-6.18-3.45-6.18V254.85s0-2.6-2-3v-6.45a.55.55,0,0,0-.55-.55h-8.75a.55.55,0,0,0-.55.55v6.48h0c-1.94.44-1.95,2.95-1.95,2.95v10.77C401.37,265.62,402,271.8,402,271.8Z"/><line class="cls-14" x1="420.65" y1="298.63" x2="404.06" y2="298.63"/><path d="M412.23,294.88l-1.29-2.56h1V285.2l-1.45,1.44a2.92,2.92,0,0,0-.83,2v.23h.57v1.71h-1.71v-1.71h.57v-.23a3.42,3.42,0,0,1,1-2.42l1-1a2.9,2.9,0,0,0,.83-2v-2.89a1.42,1.42,0,0,1-.86-.55,1.39,1.39,0,0,1-.27-1,1.43,1.43,0,0,1,.46-.92,1.47,1.47,0,0,1,1-.37,1.45,1.45,0,0,1,.95.37,1.47,1.47,0,0,1,.47.91,1.51,1.51,0,0,1-.27,1,1.45,1.45,0,0,1-.86.55v.32a2.89,2.89,0,0,0,.84,2l1,1a3.46,3.46,0,0,1,1,2.42v1.42a.95.95,0,0,1,.63,1,1,1,0,0,1-.32.56.93.93,0,0,1-1.2,0,.9.9,0,0,1-.31-.56.92.92,0,0,1,.63-1V286.1a2.89,2.89,0,0,0-.84-2l-1.45-1.44v9.68h1l-1.28,2.56"/><line class="cls-14" x1="417.22" y1="251.9" x2="407.37" y2="251.9"/><rect class="cls-23" x="379.25" y="192.73" width="9.85" height="11.97"/><polyline class="cls-7" points="389.4 182.39 389.4 192.73 379.03 192.73 379.03 182.39 376.26 170.01 376.26 141.04 378.68 141.07 389.75 141.07 392.17 141.04 392.17 170.01 389.4 182.39"/><polygon class="cls-14" points="379.05 192.76 379.05 182.41 376.28 170.03 376.28 141.06 378.71 141.1 378.71 124.55 389.77 124.55 389.77 141.1 392.19 141.06 392.19 170.03 389.42 182.41 389.42 192.76 379.05 192.76"/><line class="cls-6" x1="389.77" y1="141.17" x2="378.71" y2="141.17"/><line class="cls-14" x1="389.77" y1="141.17" x2="378.71" y2="141.17"/><path d="M384.39,147.9l1.17,2.33h-.91v6.47l1.31-1.31a2.58,2.58,0,0,0,.77-1.83v-.22h-.52v-1.55h1.55v1.55h-.52v.22a3.15,3.15,0,0,1-.91,2.2l-.92.92a2.59,2.59,0,0,0-.76,1.82v2.63a1.27,1.27,0,0,1,.78.5,1.32,1.32,0,0,1,.25.9,1.28,1.28,0,0,1-.42.83,1.33,1.33,0,0,1-.87.33,1.31,1.31,0,0,1-.87-.33,1.28,1.28,0,0,1-.42-.83,1.37,1.37,0,0,1,.24-.9,1.31,1.31,0,0,1,.79-.5v-.29a2.6,2.6,0,0,0-.76-1.83l-.92-.92a3.15,3.15,0,0,1-.91-2.2v-1.3a.85.85,0,0,1-.58-.93.85.85,0,0,1,.29-.51.84.84,0,0,1,.54-.2.83.83,0,0,1,.55.2.91.91,0,0,1,.29.51.83.83,0,0,1-.12.57.84.84,0,0,1-.45.36v1.3a2.62,2.62,0,0,0,.75,1.83l1.32,1.31v-8.8h-.91l1.17-2.33"/><line class="cls-14" x1="376.28" y1="170.04" x2="392.19" y2="170.04"/><path class="cls-24" d="M28.17,414.1a24.15,24.15,0,0,1-1.45,3.1v10.15H25.36v-8a17.88,17.88,0,0,1-1.24,1.51,10.7,10.7,0,0,0-.77-1.39,16.64,16.64,0,0,0,3.55-5.76ZM35,425.92c.88,0,1.05-.41,1.18-2.13a4.06,4.06,0,0,0,1.26.56c-.21,2.12-.63,2.81-2.35,2.81H31.44c-1.94,0-2.49-.48-2.49-2.3v-4.49l-1.3.52-.56-1.24,1.86-.72V415.2h1.37v3.2l1.87-.72v-4h1.32v3.48l1.93-.75.21-.16.23-.2,1,.39-.06.21a49.81,49.81,0,0,1-.16,5.28,1.24,1.24,0,0,1-.85,1.18,4.88,4.88,0,0,1-1.57.15,4.1,4.1,0,0,0-.33-1.27c.37,0,.85,0,1,0s.36-.06.45-.39a33.12,33.12,0,0,0,.12-3.8l-2,.76V424H32.19v-4.86l-1.87.72v5c0,.87.18,1.05,1.21,1.05Z"/><path class="cls-24" d="M46,426.76l-.88-1.41a9.81,9.81,0,0,0,1.33-.21,4.3,4.3,0,0,0,3.62-4.25,4,4,0,0,0-3.62-4.17,30,30,0,0,1-.89,4.2c-.9,3.05-2.14,4.74-3.62,4.74s-2.84-1.64-2.84-4.14a6.48,6.48,0,0,1,6.68-6.22,5.53,5.53,0,0,1,5.86,5.64C51.68,424.08,49.68,426.23,46,426.76Zm-4-2.88c.68,0,1.38-1,2.07-3.27a24.18,24.18,0,0,0,.82-3.86,5,5,0,0,0-4.26,4.62C40.65,423.09,41.38,423.88,42,423.88Z"/><path class="cls-24" d="M59.7,417H55.29v2H54.05v-2.93H59.7v-.76H55v-1.07H65.85v1.07h-4.8v.76h5.76V419H65.52v-2H61.05v3.27H59.7Zm5.48,9.18c.74,0,.89-.26,1-1.65a2.86,2.86,0,0,0,1.19.45c-.18,1.81-.59,2.27-2.1,2.27H62c-1.84,0-2.35-.34-2.35-1.69v-.28H56.7V426H55.37v-5.28H65.51v4.56H61v.28c0,.53.18.62,1.11.62Zm-9.48-7h3.35V420H55.7ZM59,417.68v.81H56v-.81Zm-2.33,4v.88h2.93v-.88Zm2.93,2.6v-.85H56.7v.85Zm4.52-2.6H61v.88h3.19Zm0,2.6v-.85H61v.85Zm.65-6.62v.81H61.74v-.81Zm-3.06,1.49h3.44V420H61.74Z"/><path class="cls-24" d="M82.16,421.58h-6v4.08c0,.86-.21,1.26-.84,1.5a10.4,10.4,0,0,1-3,.24,5.88,5.88,0,0,0-.6-1.44c1.12.05,2.24,0,2.59,0s.4-.09.4-.34v-4.07h-6v-1.39h6v-2.38h.81A17.77,17.77,0,0,0,78.12,416H70.18v-1.36h9.4l.32-.09,1,.79A22.63,22.63,0,0,1,76.13,419v1.24h6Z"/><path class="cls-24" d="M92.2,423.27a13.22,13.22,0,0,0,5.07,2.62,5.81,5.81,0,0,0-1,1.16,13.79,13.79,0,0,1-5.3-3.21v3.5H89.61v-3.55a13.93,13.93,0,0,1-5.25,3.37,6.79,6.79,0,0,0-.93-1.15,13.58,13.58,0,0,0,5-2.74H83.78v-1.22h5.83v-1.14H87.55v-5.79h1.8a14.51,14.51,0,0,0,.36-1.49l1.53.21-.49,1.28h2.42v3.63l.67-.76a19.64,19.64,0,0,1,3.4,2.1l-.87,1a19.9,19.9,0,0,0-3.2-2.14v1.92H91v1.14h5.92v1.22Zm-4.82-4c-1.08.68-2.27,1.38-3.24,1.95L83.45,420c.9-.44,2.23-1.19,3.56-1.92Zm-1.18-1.58a10.8,10.8,0,0,0-2.36-2.3l1-.81a10.17,10.17,0,0,1,2.43,2.23Zm2.63-.15h3v-1.3h-3Zm0,2.33h3v-1.31h-3Zm7.94-4.74a19.82,19.82,0,0,1-2.54,2.38l-1-.67a17.08,17.08,0,0,0,2.38-2.43Z"/><path class="cls-24" d="M108.13,420.65a10.68,10.68,0,0,0,4.32,2.13,4.63,4.63,0,0,0-.88,1.09c-.29-.08-.56-.17-.82-.27v3.75h-1.29v-.47h-2.32v.52h-1.22v-4.91h2.57a8.9,8.9,0,0,1-2.13-1.84h-2.07a10.51,10.51,0,0,1-2.28,1.84h2.63v4.86h-1.28v-.47h-2.28v.52H99.84v-3.83c-.25.1-.5.21-.77.3a6.27,6.27,0,0,0-.86-1.08,12.66,12.66,0,0,0,4.12-2.14H98.65v-1.22h4.9a6.32,6.32,0,0,0,.66-1H99.62v-4.19h4.93V418l1.26.42a8.18,8.18,0,0,1-.57,1.05H112v1.22Zm-4.91-5.27h-2.33v1.95h2.33Zm.14,8.27h-2.28v2.06h2.28Zm7.65-5.21h-5v-4.19h5Zm-1.55,7.27v-2.06h-2.32v2.06Zm.22-10.33h-2.34v1.95h2.34Z"/><path class="cls-24" d="M117,416.33c.25.48.52,1,.8,1.59a14.78,14.78,0,0,1,5.28-1.56c2.17,0,3.5,1.29,3.5,3,0,1.89-1.25,3.2-3.56,3.2a7,7,0,0,1-2.27-.42l.05-1.49a5.19,5.19,0,0,0,2.09.51c1.42,0,2.15-.78,2.15-1.86,0-.83-.69-1.55-2-1.55a13.28,13.28,0,0,0-4.67,1.43q.27.57.51,1.11c.76,1.77,1.8,4.71,2.3,6.39l-1.63.41a43.7,43.7,0,0,0-2-6.16c-.17-.37-.33-.74-.5-1.12-1.12.56-2.12,1.08-2.78,1.38l-.72-1.51a11.06,11.06,0,0,0,1.35-.45c.49-.2,1-.42,1.58-.67-.27-.56-.52-1.07-.76-1.48a13.36,13.36,0,0,0-.79-1.17l1.52-.61C116.55,415.51,116.84,416.06,117,416.33Zm1.73-1.61,1.09-.78c.51.4,1.63,1.36,2.17,1.91l-1.09.84A21.2,21.2,0,0,0,118.72,414.72Z"/><path class="cls-24" d="M28.33,440.69c-.54.18-1.09.36-1.63.52v4.19c0,.68-.13,1.06-.53,1.28a4.47,4.47,0,0,1-2,.26,4.44,4.44,0,0,0-.37-1.29c.6,0,1.15,0,1.31,0s.27,0,.27-.25v-3.79l-1.63.51-.31-1.34c.54-.14,1.21-.33,1.94-.54V437.4H23.7v-1.29h1.73v-2.89H26.7v2.89h1.5v.24a8.24,8.24,0,0,0,1.88-3.16l1.2.3c-.15.44-.33.87-.52,1.29H32.7a13.2,13.2,0,0,0,.63-1.54l1.34.31c-.21.42-.43.84-.65,1.23h2.91v1H33.81v.77h2.72v.86H33.81v.79h2.72V439H33.81v.84h3.27v1H29.32V437a7.35,7.35,0,0,1-.72.75c-.09-.12-.24-.28-.4-.45v.11H26.7v2.46l1.44-.44Zm8.9,2.16s0,.33-.06.51c-.19,1.92-.4,2.78-.76,3.16a1.48,1.48,0,0,1-1,.37,13.65,13.65,0,0,1-1.83,0,2.43,2.43,0,0,0-.39-1.15c.71.06,1.42.08,1.71.08a.74.74,0,0,0,.51-.12,3.87,3.87,0,0,0,.49-1.83H34.29c-.06.24-.12.48-.18.67l-1.19-.18c.12-.46.27-1,.41-1.63H31.74a5,5,0,0,1-3.2,4.25,4.85,4.85,0,0,0-.89-1,3.81,3.81,0,0,0,2.73-3.25H28.45v-1.12h6.34l-.27,1.24Zm-4.66-7.08H30.52v.77h2.05Zm0,1.63H30.52v.79h2.05Zm0,1.64H30.52v.84h2.05Z"/><path class="cls-24" d="M52.15,434.69v1.14H49.81v2.39H41.17v-2.39H38.81v-1.14h2.36v-1.41h1.32v1.41h2.25v-1.48h1.35v1.48h2.35v-1.41h1.37v1.41Zm-13,4.32H51.79v3.08H50.44v-1.94H46.09v1.39h4.25v3c0,.63-.12,1-.62,1.16a6.27,6.27,0,0,1-2.18.2,4.51,4.51,0,0,0-.43-1.18c.71,0,1.4,0,1.6,0s.25-.06.25-.21v-1.87H46.09v4.26H44.71v-4.26H42.17v3.23H40.83v-4.35h3.88v-1.39H40.45v1.94H39.17Zm3.32-1.88h2.25v-1.3H42.49Zm5.95-1.3H46.09v1.3h2.35Z"/><path class="cls-24" d="M62.89,435.29c0,.36,0,.79,0,1.3H65a10.75,10.75,0,0,0,1.39-.11v1.57l-1.31,0H62.93c0,2.22.11,5,.12,6.91,0,.87-.5,1.35-1.51,1.35-.82,0-1.69,0-2.48-.09l-.12-1.54a16,16,0,0,0,2.05.16c.4,0,.55-.19.55-.59,0-1.13,0-3,0-4.82a20.6,20.6,0,0,1-6.36,5.35l-1.07-1.22A18.25,18.25,0,0,0,60.81,438H56.25c-.52,0-1,0-1.53.05v-1.59a11.74,11.74,0,0,0,1.5.11h5.22c0-.49,0-.94,0-1.3a11.62,11.62,0,0,0-.13-1.36H63A7.7,7.7,0,0,0,62.89,435.29Z"/><path class="cls-24" d="M71.58,439.18h8.14c.72,0,1.3-.06,1.67-.09v1.85c-.33,0-1-.07-1.67-.07H71.58c-.82,0-1.72,0-2.22.07v-1.85C69.85,439.12,70.78,439.18,71.58,439.18Z"/><path class="cls-24" d="M85.41,438.53H95.2a9.47,9.47,0,0,0,1.26-.07V440c-.36,0-.87,0-1.26,0H91.34a9.34,9.34,0,0,1-.92,4,7.36,7.36,0,0,1-3,2.79l-1.37-1a6.26,6.26,0,0,0,2.76-2.23,7,7,0,0,0,.9-3.53H85.41c-.45,0-.94,0-1.36,0v-1.55C84.47,438.5,84.94,438.53,85.41,438.53Zm1.85-3.77h5.06a12.41,12.41,0,0,0,1.49-.09v1.54c-.48,0-1,0-1.49,0h-5c-.51,0-1.07,0-1.47,0v-1.54A11.29,11.29,0,0,0,87.26,434.76Zm8.58.83-1,.42a18.62,18.62,0,0,0-1.18-2.07l.95-.4A18.37,18.37,0,0,1,95.84,435.59Zm1.72-.66-1,.43a14.69,14.69,0,0,0-1.22-2.06l.95-.4A16,16,0,0,1,97.56,434.93Z"/><path class="cls-24" d="M104.93,439.52a16,16,0,0,0,3.63-3.11l1.17,1.14a21.13,21.13,0,0,1-3.37,2.75v5.25a9.36,9.36,0,0,0,.08,1.43H104.7c0-.25.06-1,.06-1.43v-4.31a29.47,29.47,0,0,1-4.5,1.88l-.72-1.4A20.8,20.8,0,0,0,104.93,439.52Z"/><path class="cls-24" d="M122.73,435.29c0,.36,0,.79,0,1.3h2.14a10.75,10.75,0,0,0,1.39-.11v1.57L125,438h-2.19c0,2.22.11,5,.12,6.91,0,.87-.5,1.35-1.51,1.35-.82,0-1.69,0-2.48-.09l-.12-1.54a16,16,0,0,0,2,.16c.4,0,.55-.19.55-.59,0-1.13,0-3,0-4.82a20.6,20.6,0,0,1-6.36,5.35l-1.07-1.22a18.25,18.25,0,0,0,6.74-5.51h-4.56c-.52,0-1,0-1.53.05v-1.59a11.74,11.74,0,0,0,1.5.11h5.22c0-.49,0-.94,0-1.3a11.62,11.62,0,0,0-.13-1.36h1.7A7.7,7.7,0,0,0,122.73,435.29Z"/><path class="cls-24" d="M51,452.76a1.72,1.72,0,1,1,0,3.44,1.9,1.9,0,0,1-.41,0,2.8,2.8,0,0,1-.06.28,15.22,15.22,0,0,1-2.24,5.49A11.63,11.63,0,0,1,42.3,466L41,464.57A10.07,10.07,0,0,0,46.87,461a10.79,10.79,0,0,0,1.86-4.6H41.38c-.63,0-1.23,0-1.62.06v-1.67c.42,0,1.12.1,1.62.1h7.25a5,5,0,0,0,.64,0,1.75,1.75,0,0,1,0-.4A1.72,1.72,0,0,1,51,452.76Zm0,2.65a.94.94,0,1,0-.93-.93A.94.94,0,0,0,51,455.41Z"/><path class="cls-24" d="M56.25,464V455.6a8.35,8.35,0,0,0-.14-1.51H58a9.2,9.2,0,0,0-.12,1.5v8.18a16.57,16.57,0,0,0,7.95-5l.86,1.32a18,18,0,0,1-8.72,5.37,3,3,0,0,0-.75.31l-1.11-.94A1.65,1.65,0,0,0,56.25,464Z"/><path class="cls-24" d="M75.56,457a18.26,18.26,0,0,0,4.16-3.56l1.25,1.2a24.88,24.88,0,0,1-4,3.27v6.21a12.08,12.08,0,0,0,.1,1.77H75.2a16.11,16.11,0,0,0,.09-1.77v-5.2a30,30,0,0,1-5.52,2.31L69,459.74A24.62,24.62,0,0,0,75.56,457Z"/><path class="cls-24" d="M88.31,454.53c.15.52.34,1.21.55,2,2.47-.46,5.38-1,6-1.17a2.7,2.7,0,0,0,.76-.24l1.06.78a24.64,24.64,0,0,1-3.77,5.29l-1.51-.71a16,16,0,0,0,3-3.59c-.45.07-2.82.55-5.2,1,.73,2.62,1.55,5.64,1.82,6.53.09.32.3.93.42,1.28l-1.75.41a10.36,10.36,0,0,0-.3-1.34c-.24-.84-1.07-4-1.76-6.55-1.63.33-3,.63-3.55.75l-.41-1.6c.55-.06,1-.11,1.58-.2l2-.37c-.22-.85-.42-1.54-.52-1.89a6.46,6.46,0,0,0-.45-1.21l1.73-.39C88.1,453.64,88.19,454.06,88.31,454.53Z"/><path class="cls-24" d="M101.5,458.74h8.14c.71,0,1.3-.06,1.67-.09v1.86c-.33,0-1-.08-1.67-.08H101.5c-.82,0-1.72,0-2.23.08v-1.86C99.77,458.68,100.69,458.74,101.5,458.74Z"/><path class="cls-24" d="M187.45,398.48a14.87,14.87,0,0,1-3.67,4.12l-1.24-1a9,9,0,0,0,3.05-3.1H177.4c-.6,0-1.12.05-1.77.09v-1.66a12.69,12.69,0,0,0,1.77.14h8.36A7.62,7.62,0,0,0,187,397l.94.89C187.81,398,187.57,398.3,187.45,398.48Zm-9.71,10.15-1.37-1.12a5.59,5.59,0,0,0,1.43-.74c2.14-1.37,2.48-3.26,2.48-5.74a6.14,6.14,0,0,0-.09-1.19h1.71C181.9,403.74,181.67,406.61,177.74,408.63Z"/><path class="cls-24" d="M196.63,404.73a14.24,14.24,0,0,0,5.19-5.64l.92,1.63a15.33,15.33,0,0,1-5.25,5.41,16.45,16.45,0,0,1-5.73,2.23l-1-1.54A15.42,15.42,0,0,0,196.63,404.73Zm-.5-4.79-1.19,1.21a32.72,32.72,0,0,0-3.73-3.17l1.09-1.16A31.56,31.56,0,0,1,196.13,399.94Z"/><path class="cls-24" d="M216.74,395.39a1.72,1.72,0,1,1,0,3.44,1.75,1.75,0,0,1-.4,0,2.8,2.8,0,0,0-.06.28,15.36,15.36,0,0,1-2.25,5.49,11.59,11.59,0,0,1-5.93,4.05l-1.29-1.4a10.06,10.06,0,0,0,5.85-3.56,11,11,0,0,0,1.87-4.59h-7.36c-.63,0-1.23,0-1.62.06v-1.68a16.08,16.08,0,0,0,1.62.11h7.25a4.94,4.94,0,0,0,.64,0,1.9,1.9,0,0,1,0-.41A1.72,1.72,0,0,1,216.74,395.39Zm0,2.65a.94.94,0,0,0,.94-.93.94.94,0,1,0-1.87,0A.93.93,0,0,0,216.74,398Z"/><path class="cls-24" d="M228,402.27a1.74,1.74,0,1,1-1.74-1.73A1.74,1.74,0,0,1,228,402.27Z"/><path class="cls-24" d="M245.45,398.67a20.8,20.8,0,0,1-2.45,4.26,39.93,39.93,0,0,1,4.27,4.38L246,408.48a33.92,33.92,0,0,0-4-4.37,19.46,19.46,0,0,1-5.75,4.31L235,407.15a16.83,16.83,0,0,0,6.14-4.38,12.28,12.28,0,0,0,2.38-3.95h-5.49c-.58,0-1.39.07-1.63.09v-1.69c.3,0,1.17.1,1.63.1h5.55a4.51,4.51,0,0,0,1.3-.15l1,.72A5.46,5.46,0,0,0,245.45,398.67Z"/><path class="cls-24" d="M261,395.71a1.73,1.73,0,0,1,0,3.45,1.78,1.78,0,0,1-1.19-.46l.63,1.45c-.49.19-1.09.46-1.57.64a57.86,57.86,0,0,1-6,1.89v3.05c0,.72.31.89,1,1a12.1,12.1,0,0,0,1.87.11,25.62,25.62,0,0,0,5.16-.49v1.72a44.77,44.77,0,0,1-5.25.29,15.66,15.66,0,0,1-2.45-.15c-1.21-.22-1.9-.82-1.9-2.07V398a9.54,9.54,0,0,0-.1-1.38H253a12.15,12.15,0,0,0-.09,1.38v3.12a39.63,39.63,0,0,0,5.45-1.75,7.29,7.29,0,0,0,1.42-.72,1.77,1.77,0,0,1-.49-1.21A1.74,1.74,0,0,1,261,395.71Zm0,2.66a.94.94,0,0,0,0-1.87.94.94,0,1,0,0,1.87Z"/><path class="cls-24" d="M267.29,401.38h8.14c.72,0,1.3-.06,1.67-.09v1.85c-.33,0-1-.07-1.67-.07h-8.14c-.82,0-1.72,0-2.23.07v-1.85C265.56,401.32,266.49,401.38,267.29,401.38Z"/><path class="cls-24" d="M286.25,397.35c0,.51-.05,1-.08,1.47h3.23a7.45,7.45,0,0,0,1-.09l1.05.51a6.39,6.39,0,0,0-.1.76c-.05,1.51-.24,5.79-.9,7.25a1.67,1.67,0,0,1-1.74,1c-.8,0-1.67,0-2.43-.1l-.18-1.58a16.09,16.09,0,0,0,2.16.18.8.8,0,0,0,.86-.5c.51-1,.7-4.43.7-6H286c-.55,4.16-2,6.45-4.6,8.26L280,407.36a8,8,0,0,0,1.72-1.26,9.33,9.33,0,0,0,2.74-5.88h-2.28c-.55,0-1.25,0-1.82.06v-1.55c.57,0,1.24.09,1.82.09h2.41c0-.45.05-.93.05-1.44a9.35,9.35,0,0,0-.11-1.28h1.75C286.29,396.44,286.26,397,286.25,397.35Z"/><path class="cls-24" d="M297.21,401.38h8.14c.72,0,1.3-.06,1.67-.09v1.85c-.33,0-1-.07-1.67-.07h-8.14c-.82,0-1.72,0-2.22.07v-1.85C295.48,401.32,296.41,401.38,297.21,401.38Z"/><path class="cls-24" d="M319.65,403.23v1.12h2.66v1.2h-2.66v2.06c0,.73-.18,1.11-.73,1.3a8.12,8.12,0,0,1-2.56.23,4.69,4.69,0,0,0-.51-1.3c.9,0,1.78,0,2,0s.32-.06.32-.27v-2h-5.12a9.63,9.63,0,0,1,2.19,2l-1.07.88a10.91,10.91,0,0,0-2.38-2.29l.81-.61h-2.89v-1.2h8.46v-1.12h-8.95v-1.18h6v-1.14h-4.5v-1.15h4.5v-.9h.36a5.44,5.44,0,0,0-.59-.37,4.43,4.43,0,0,0,.75-.75h-2.44a8.31,8.31,0,0,1,.48,1.17l-1.19.46a11.86,11.86,0,0,0-.66-1.63h-.42a10.53,10.53,0,0,1-1.41,1.78,8.3,8.3,0,0,0-1.15-.79,9.08,9.08,0,0,0,2.31-3.39l1.33.34c-.12.31-.27.61-.42.91h3.62v1.11a7.48,7.48,0,0,0,1.34-2.36l1.35.31a9.88,9.88,0,0,1-.41.94h4.52v1.15h-2.86a8,8,0,0,1,.71,1.18l-1.2.5a9.94,9.94,0,0,0-1-1.68h-.82a9.17,9.17,0,0,1-.86,1.12h.09v.9h4.67v1.15h-4.67v1.14h6.06v1.18Z"/><path class="cls-24" d="M367.49,384.87h7.43c.4,0,.93,0,1.19,0,0,.33,0,.87,0,1.26v7.73c0,.52,0,1.26.06,1.58h-1.7c0-.2,0-.49,0-.8h-7.09c-.62,0-1.36,0-1.8.06V393c.44,0,1.09.07,1.74.07h7.16v-6.67h-7c-.59,0-1.35,0-1.74.06v-1.66C366.28,384.83,367,384.87,367.49,384.87Z"/><path class="cls-24" d="M386.07,392a14.21,14.21,0,0,0,5.18-5.64l.92,1.63a15.35,15.35,0,0,1-5.25,5.42,16.65,16.65,0,0,1-5.73,2.22l-1-1.54A15.54,15.54,0,0,0,386.07,392Zm-.51-4.79-1.18,1.22a31.73,31.73,0,0,0-3.74-3.17l1.09-1.17A31.74,31.74,0,0,1,385.56,387.17Z"/><path class="cls-24" d="M405.59,382.94a1.73,1.73,0,0,1,0,3.46,1.7,1.7,0,0,1-1.18-.47l.62,1.45c-.49.2-1.09.47-1.57.65a57.89,57.89,0,0,1-6,1.88v3c0,.72.31.9,1,1.05a13.82,13.82,0,0,0,1.87.1,24.92,24.92,0,0,0,5.16-.49v1.72a44.66,44.66,0,0,1-5.25.3,17,17,0,0,1-2.45-.15c-1.21-.23-1.9-.82-1.9-2.08v-8.18a9.41,9.41,0,0,0-.1-1.37h1.75a12.12,12.12,0,0,0-.09,1.37v3.13a42.56,42.56,0,0,0,5.45-1.75,8.33,8.33,0,0,0,1.43-.72,1.73,1.73,0,0,1,1.24-2.95Zm0,2.66a.92.92,0,0,0,.92-.92.93.93,0,0,0-.92-.94,1,1,0,0,0-.95.94A.93.93,0,0,0,405.59,385.6Z"/><path class="cls-24" d="M419.2,388.61c-.12,1-.54,3.75-.75,5.14h1.26c.34,0,1,0,1.3-.06v1.53l-1.27,0h-8.06c-.49,0-.84,0-1.35,0v-1.54c.39,0,.87.07,1.35.07h5.17c.21-1.27.6-3.84.65-4.68h-4.45c-.44,0-.92,0-1.33.05v-1.56a11.83,11.83,0,0,0,1.32.08h4.25a3.14,3.14,0,0,0,.89-.12l1.14.55C419.28,388.24,419.23,388.46,419.2,388.61Z"/><path class="cls-24" d="M426.8,388.61h8.14c.72,0,1.3-.06,1.67-.09v1.86c-.33,0-1-.08-1.67-.08H426.8c-.82,0-1.72,0-2.22.08v-1.86C425.07,388.55,426,388.61,426.8,388.61Z"/><path class="cls-24" d="M445.53,384.74c-.06.1-.1.19-.16.3H449a3.3,3.3,0,0,0,1.12-.17l1.21.75a7.22,7.22,0,0,0-.4.93,17.13,17.13,0,0,1-2.29,4.51c.63.45,1.21.9,1.68,1.27l-1.11,1.32c-.42-.39-1-.85-1.6-1.35A14.27,14.27,0,0,1,442,396l-1.36-1.2a12.68,12.68,0,0,0,5.65-3.44c-1-.75-2.1-1.48-3-2l1-1.06c.9.52,1.94,1.19,2.95,1.88a12.46,12.46,0,0,0,1.87-3.77h-4.73a17.1,17.1,0,0,1-4,3.92l-1.27-1a13.66,13.66,0,0,0,4.79-5.1,6.35,6.35,0,0,0,.56-1.34l1.71.54C446,383.86,445.7,384.44,445.53,384.74Z"/><path class="cls-24" d="M464.2,390.46v1.13h2.66v1.19H464.2v2.07c0,.73-.18,1.1-.73,1.3a8.18,8.18,0,0,1-2.56.22,4.69,4.69,0,0,0-.51-1.3c.9,0,1.78,0,2,0s.32-.06.32-.27v-2h-5.12a9.86,9.86,0,0,1,2.19,2l-1.07.88a10.89,10.89,0,0,0-2.38-2.28l.81-.62H454.3v-1.19h8.46v-1.13h-8.95v-1.18h6v-1.13h-4.5V387h4.5v-.9h.36a5.68,5.68,0,0,0-.59-.38,4.77,4.77,0,0,0,.75-.74h-2.43a10.1,10.1,0,0,1,.47,1.16l-1.19.47a11.37,11.37,0,0,0-.66-1.63h-.42a11,11,0,0,1-1.41,1.78,7.56,7.56,0,0,0-1.15-.8,9.08,9.08,0,0,0,2.31-3.39l1.33.34a9.58,9.58,0,0,1-.42.92h3.62v1.1a7.48,7.48,0,0,0,1.34-2.36l1.35.31c-.12.33-.26.63-.4.95h4.51V385H464.3a7.51,7.51,0,0,1,.71,1.18l-1.2.49a9.89,9.89,0,0,0-1-1.67H462a10,10,0,0,1-.86,1.12h.09v.9h4.67v1.15h-4.67v1.13h6.06v1.18Z"/><polyline class="cls-20" points="307.91 45.27 313.92 45.27 320.25 45.27"/><polyline class="cls-20" points="301.74 55.99 302.06 55.18 307.91 45.27"/><polyline class="cls-20" points="332.75 45.27 335.68 50.47 338.93 55.99"/><polyline class="cls-20" points="320.25 45.27 321.06 45.27 332.75 45.27"/><polyline class="cls-20" points="338.11 71.25 338.76 66.71 338.11 62.16 336.49 57.78 333.73 54.04 330.16 51.12 325.93 49.17 321.39 48.36 316.84 48.68 312.46 49.98 308.56 52.58 305.31 55.83 303.2 59.89 302.06 64.44 302.06 68.98 303.2 73.53 305.31 77.59 308.56 80.84 312.46 83.43 316.84 84.73 321.39 85.06 325.93 84.25 330.16 82.3 333.73 79.37 336.49 75.64 338.11 71.25"/><polyline class="cls-20" points="320.25 45.27 317.49 45.44 314.73 45.92 312.13 46.9 309.53 48.2 307.26 49.66 305.15 51.61 303.2 53.72 301.74 55.99"/><polyline class="cls-20" points="338.93 55.99 337.3 53.72 335.51 51.61 333.4 49.66 330.97 48.2 328.53 46.9 325.77 45.92 323.01 45.44 320.25 45.27"/><polyline class="cls-20" points="295.4 66.71 298.49 61.51 301.74 55.99"/><polyline class="cls-20" points="301.74 77.43 301.25 76.61 295.4 66.71"/><polyline class="cls-20" points="301.74 55.99 300.44 58.43 299.46 61.19 298.98 63.95 298.81 66.71 298.98 69.47 299.46 72.23 300.44 74.99 301.74 77.43"/><polyline class="cls-20" points="320.25 88.14 311.81 88.14 307.91 88.14"/><polyline class="cls-20" points="307.91 88.14 304.82 82.95 301.74 77.43"/><polyline class="cls-20" points="301.74 77.43 303.2 79.86 305.15 81.97 307.26 83.76 309.53 85.38 312.13 86.52 314.73 87.49 317.49 87.98 320.25 88.14"/><polyline class="cls-20" points="345.1 66.71 342.01 71.91 338.93 77.43"/><polyline class="cls-20" points="338.93 55.99 339.25 56.8 345.1 66.71"/><polyline class="cls-20" points="338.93 77.43 340.06 74.99 341.04 72.23 341.52 69.47 341.69 66.71 341.52 63.95 341.04 61.19 340.06 58.43 338.93 55.99"/><polyline class="cls-20" points="332.75 88.14 324.31 88.14 320.25 88.14"/><polyline class="cls-20" points="338.93 77.43 338.44 78.24 332.75 88.14"/><polyline class="cls-20" points="320.25 88.14 323.01 87.98 325.77 87.49 328.53 86.52 330.97 85.38 333.4 83.76 335.51 81.97 337.3 79.86 338.93 77.43"/><line class="cls-20" x1="329.99" y1="82.3" x2="329.34" y2="82.3"/><line class="cls-20" x1="311.16" y1="82.3" x2="310.51" y2="82.3"/><polyline class="cls-20" points="328.21 82.95 331.94 80.51 335.03 77.26 337.14 73.37 338.27 68.98 338.27 64.44 337.14 60.21 335.03 56.15 331.94 52.91 328.21 50.47"/><line class="cls-20" x1="312.29" y1="50.47" x2="328.21" y2="50.47"/><polyline class="cls-20" points="312.29 50.47 308.56 52.91 305.47 56.15 303.36 60.21 302.39 64.44 302.39 68.98 303.36 73.37 305.47 77.26 308.56 80.51 312.29 82.95"/><line class="cls-20" x1="312.29" y1="82.95" x2="328.21" y2="82.95"/><polyline class="cls-20" points="304.82 62.65 304.34 66.71 304.82 70.77 306.45 74.67 309.05 78.08 312.29 80.51 316.19 82.14 320.25 82.62 324.47 82.14 328.21 80.51 331.62 78.08 334.05 74.67 335.68 70.77 336.16 66.71 335.68 62.65 334.05 58.75 331.62 55.5 328.21 52.91 324.47 51.28 320.25 50.79 316.19 51.28 312.29 52.91 309.05 55.5 306.45 58.75 304.82 62.65"/><polyline class="cls-20" points="307.91 70.61 307.42 66.71 307.91 62.97 309.53 59.4 312.29 56.64 315.54 54.69 319.28 53.88 323.17 54.04 326.75 55.5 329.83 57.94 331.94 61.02 333.08 64.76 333.08 68.66 331.94 72.39 329.83 75.48 326.75 77.91 323.17 79.37 319.28 79.54 315.54 78.72 312.29 76.78 309.53 74.02 307.91 70.61"/><polyline class="cls-20" points="310.99 63.3 310.35 66.71 310.99 70.12 312.78 73.04 315.38 75.31 318.63 76.45 322.04 76.45 325.28 75.31 327.88 73.04 329.51 70.12 330.16 66.71 329.51 63.3 327.88 60.38 325.28 58.1 322.04 56.97 318.63 56.97 315.38 58.1 312.78 60.38 310.99 63.3"/></svg>