<svg id="レイヤー_1" data-name="レイヤー 1" xmlns="http://www.w3.org/2000/svg" xmlns:xlink="http://www.w3.org/1999/xlink" width="148.41mm" height="96.31mm" viewBox="0 0 420.7 273">
  <defs>
    <style>
      .cls-1, .cls-3, .cls-4, .cls-6, .cls-7 {
        fill: none;
      }

      .cls-2 {
        clip-path: url(#clip-path);
      }

      .cls-3, .cls-5, .cls-6 {
        stroke: #000;
      }

      .cls-3, .cls-4, .cls-5, .cls-6 {
        stroke-linecap: round;
        stroke-linejoin: round;
      }

      .cls-3 {
        stroke-width: 0.99px;
      }

      .cls-4 {
        stroke: gray;
        stroke-width: 0.51px;
      }

      .cls-5 {
        fill: #fff;
      }

      .cls-5, .cls-6, .cls-7 {
        stroke-width: 1.94px;
      }

      .cls-7 {
        stroke: #fff;
      }

      .cls-8 {
        fill: #231815;
      }
    </style>
    <clipPath id="clip-path">
      <rect class="cls-1" width="420.7" height="273"/>
    </clipPath>
  </defs>
  <g class="cls-2">
    <path class="cls-3" d="M239.6,313.3l-1,1.1-1.4,1.9-1.1,2-.8,2.1-.5,2m0,0-.2.7-.5.6-.7.5-.9.4-1.1.4-1.2.2-1.2.1-1.3-.1-1.2-.2-1.1-.3-.9-.5-.8-.5-.5-.6-.2-.6v-.6m-45.9-12.5v.8l.4.6.6.6.8.5,1,.4,1.1.3,1.2.2h1.3l1.2-.1,1.2-.3,1-.4.9-.4m0,0,1.3-1,1.1-1m0,0L198,302m1.4,14.3v.7l.3.6.4.5.7.5.8.4.9.3,1.1.2,1.1.1,1.1.1,1.1-.2,1-.2,1-.3.8-.4.7-.4m0,0,.9-.9.7-.9m0,0,2-2.9,2.3-2.9,2.5-2.8v-.1M198,303.1l-.9-.3m21.7,5.9-.7-.2m21.5,5.9-.8-.2m-40.8-11-1-.3m21.8,5.9-.8-.2m21.6,5.9-.9-.3m-13.9,3.6h-.1l-.5-.1-.5-.2-.5-.2-.3-.3-.3-.3-.2-.3v-.3M4.4,301.4h0v.1h.1m10.9,3h.4v-.1m0-11.6v11.6M4.5,301.5l1.2.6,1.3.4,1.3.5,1.3.3,1.4.4,1.5.3,1.4.3,1.5.2m0-11.6h.3v-.1h.1m0,0h0m-.3,0h.3M4.5,289.9l1.2.5,1.3.4,1.3.5,1.4.4,1.4.3,1.4.3,1.5.3,1.5.2m-11-3.1H4.4v.1h.1v.1m2.9-3.1-2.9,2.9m33.6-32.9L19.8,274.7m-12.4,12-3,3m33.7-32.9L19.8,274.6M4.4,289.7h0v.1l.1.1m0,0,1.2.5,1.3.5,1.3.4,1.3.4,1.4.3,1.5.4,1.4.2,1.5.3m.1,11.7-1.4-.2-1.5-.3-1.4-.3-1.4-.4L8.5,303l-1.3-.4-1.3-.4-1.2-.5m15.1-27,18.3-17.9M4.5,289.7l2.9-2.9m-2.9,3.1v-.1H4.4v-.1h.1m11.3,14.7,36.4-35.5M49,260.3,15.8,292.8m0,0h-.3m-8.1-6-2.7,2.7m33.5-32.6L19.8,274.8m-4.3,17.7L48.8,260M15.5,292.8l-1.5-.2-1.5-.3-1.4-.3-1.4-.3-1.4-.4L7,290.8l-1.3-.4-1.2-.5m.2-.4,1.2.5,1.3.5,1.3.4,1.3.4,1.4.3,1.4.4,1.5.2,1.4.3M33.9,84.6l.2-.4m-.8-.1.2-.1m1.1.5v-.1m-1.5-.8.1-.1.1-.1m1.7,1v.3m-.9-.3h.1m-.1.3v-.3m-.2.2.2.1m-.3-.3.1.2m-.2-.4h0l.1.1v.1m-.5-.3.4.1m-.4-.3v.2m.4,0-.4-.2m.5.1h0v.1h-.1m.1-.3V84m.2-.1-.2-.1m.2.3v-.2m.2.3h-.1v-.1H34m.6.3-.4-.2m.4.3v-.1m-.4,0,.4.1m-.8-.9.4.1.2.2.3.2.1.2.1.3v.1l-.1.2H34l-.3-.2-.3-.1-.2-.3-.2-.2v-.4l.1-.1.2-.1h.2l.3.1m1.6,6.2.2-.4m-.7-.1.1-.1m1.1.5v-.1m-1.5-.8.1-.1.2-.1m1.6,1v.3m-.9-.2v-.1h.2m-.1.3-.1-.2m-.2.1.3.1m-.3-.3v.2m-.2-.4.1.1h.1v.1m-.5-.3.3.1m-.4-.3.1.2m.3,0-.4-.2m.5.1v.1h-.1m.1-.3v.2m.3-.1-.3-.1m.3.3v-.2m.1.3h-.1v-.1m.5.3-.4-.2m.4.3v-.1m-.3,0,.3.1m-.7-.9.3.1.3.2.2.2.2.3.1.2-.1.2-.1.1-.2.1h-.2l-.3-.1-.3-.2-.3-.1-.2-.2-.2-.3-.1-.2v-.2l.1-.1.2-.1h.3l.3.1M37,95l.2-.4m-.8-.1.2-.1m1.1.6-.1-.2M36.1,94l.1-.1.2-.1m1.6,1,.1.1v.2H38m-.8-.2h0v-.1h.1m-.1.3v-.2M37,95l.2.1m-.3-.3.1.2m-.2-.3h.1v.1m-.5-.3.4.2m-.4-.3v.1m.4,0-.4-.1m.5,0v.1h-.1m0-.3.1.2m.2-.1-.3-.1m.3.3v-.2m.2.4-.1-.1h-.1v-.1m.6.3-.4-.1m.4.3v-.2m-.4,0,.4.2m-.8-1,.3.2.3.1.3.2.1.3.1.2v.2l-.1.1-.2.1h-.3l-.3-.1-.3-.1-.3-.2-.2-.2-.2-.3-.1-.2.1-.2.1-.1.2-.1h.2l.3.1M6.2,162.5,7.5,288.8m7.6,2.1-7.6-2.1m12.3-2.5V154.6m-6,9.9,1.3,126.4m0,0,4.7-4.6M5.6,151.5l.1,1,.2,1.6.1,1.7.1,1.6v1.7l.1,1.7v1.7m6.9-9.7.1.3.1,1.5.2,1.6.1,1.6.1,1.7.1,1.6v3.4M350.2,256l1.2,126.3m7.6,2.1-7.6-2.1m12.4-2.6V240.1m-6,17.9L359,384.4m0,0,4.8-4.7M349.6,245l.1,1,.1,1.6.2,1.6.1,1.7v1.7l.1,1.6V256m7-9.4.1,1.5.2,1.6.1,1.6.1,1.7v1.6l.1,1.7V258M31.4,84.7h0l-1.1,1.7-1.1,1.5-1.1,1.5-1.2,1.4-1.1,1.3-1.1,1.3M1.4,150.3h0m.4.2-.4-.2m8.3,2.3-7.9-2.1m7.9,2.1h.1M.5,137.7l.1,1.6.1,1.6.1,1.6.1,1.6.1,1.6.1,1.5.2,1.5.1,1.6m0,0,8.4,2.2M24.7,93.4,2.5,116.3M0,124l.5,13.7m2-21.4-.3.4-.4.5-.3.5-.3.6-.3.7-.2.7-.3.7-.1.8-.2.7-.1.7V124M34.3,94.3l-.1.1L33,95.6m0,0L10.9,118.5m0,0-.4.4-.3.5-.3.6-.3.6-.3.7L9,122l-.2.7-.2.7-.1.8-.1.7-.1.7v.6m0,0L8.9,140m0,0,.1,1.6.1,1.6.1,1.6.1,1.6.1,1.5.1,1.6.1,1.5.2,1.5m0,0v.1m0,0,.6-.6m374.3,15.7h-.1m0,0-1,2-1,2-1,2-1,1.8-1.1,1.8-1.1,1.7-1,1.7-1.2,1.6-1.1,1.4-1.1,1.4-1.1,1.4-1.2,1.2m12.9-20h.1m-36.2,76.9h0m.4.2-.4-.2m.4.2,7.8,2.1m0,0h.2M347.6,232l.1,1.6.1,1.6v1.6l.2,1.6.1,1.6.1,1.5.1,1.6.2,1.5m8.3,2.3-8.3-2.3m23.2-56.9-22.1,22.9m-2.6,7.7.6,13.7m2-21.4-.4.4-.3.5-.3.5-.3.7-.3.6-.3.7-.2.8-.2.7-.1.7-.1.7-.1.7v.7m44.9-46.1L391,174l-1,1.9-1.1,1.9-1,1.8-1.1,1.7-1.1,1.7-1.1,1.5-1.1,1.5-1.1,1.4-1.2,1.3-1.1,1.3m0,0L358,212.9m0,0-.4.4-.3.5-.4.5-.3.6-.3.7-.2.7-.2.7-.2.8-.2.7-.1.7v1.4m0,0,.6,13.7m0,0v1.6l.1,1.6.1,1.6.1,1.6.1,1.5.1,1.6.2,1.5.1,1.6m.1,0h-.1m35.1-34.2-35,34.2M10,151.8h0v.1h.1v.1M12,133.1h0m0,0-1.6,1.6m0,0h-.1v.1m-1,3v1.8l.1,1.8v1.8l.1,1.7.1,1.7.2,1.8.1,1.7.1,1.7m-.7-14.1h0v.1m1-3-1,2.9m0,.1v1.8l.1,1.8.1,1.7.1,1.8.1,1.7.1,1.7.1,1.7.1,1.7m334.9,72.6v.1l-.1.2-.2.2-.3.1-.3.1-.4.1-.4-.1h-.3m0,0-.4-.1-.2-.2-.2-.2v-.2M18.8,135.7h0l-.1.2-.1.2-.3.1-.3.1-.4.1h-.7l-.4-.1-.3-.2L16,136l-.1-.2v-.1m347.7-10.5.2-.1.3-.1h.3l.4.1.3.2.3.2.2.4.1.3.1.3v.4l-.2.2-.1.1m0,.1-.2.1m-1.9-2.1h.1M64,43.8h0l.3-.2h.6l.4.1.3.2.3.3m0,0,.2.3.1.4v.6l-.2.3M63.8,44l.1-.1m-3.8,72.3-11.4,9.5M62.9,117l-2.8-.8M47.6,129.5l-.1.2m1.2-4-1.1,3.8m2.8.8-2.8-.8m3.9-3-2.8-.8m14.5-6.8-.3.3m0,0V117m0,0-11.4,9.5m0,0-1.1,3.8m0,0v.1m20-11.4-11.3,9.6m14.2-8.8-2.9-.8M57.9,132.4v.1m1.2-3.9-1.2,3.8m2.8.7-2.8-.7m4-3.1-2.8-.7m14.5-6.8-.3.2m0,0v-2.2m0,0-11.4,9.5m0,0-1.2,3.8m0,0v.2M77.5,121l-11.3,9.5m14.1-8.8-2.8-.7M65,134.3v.1m1.2-3.9L65,134.3m2.8.8-2.8-.8m4-3.1-2.8-.7m14.5-6.8-.3.3m0,0-.1-2.3m0,0L69,131.2m0,0-1.2,3.9m0,0v.1m20.1-11.4-11.3,9.5m14.1-8.7-2.8-.8M75.4,137.1v.1m1.2-3.9-1.2,3.8m2.8.8-2.8-.8m4-3-2.8-.8m14.5-6.8-.3.3m0,0-.1-2.2m0,0-11.3,9.5m0,0-1.2,3.8m0,0v.1m16.5-12.4-11.4,9.5m14.2-8.7-2.8-.8M82.2,138.9v.2m1.1-4-1.1,3.8m2.8.8-2.8-.8m3.9-3-2.8-.8m14.5-6.8-.3.3m0,0v-2.2m0,0-11.4,9.5m0,0L85,139.7m0,0v.1m16.4-12.3L90.1,137m14.1-8.8-2.8-.7M88.9,140.8v.1m1.2-3.9-1.2,3.8m2.8.7-2.8-.7m4-3.1-2.8-.7m14.5-6.8-.3.2m0,0-.1-2.2m0,0-11.3,9.5m0,0-1.2,3.8m0,0v.2m20.1-11.4-11.4,9.5m14.2-8.8-2.8-.7M99.3,143.6v.1m1.1-3.9-1.1,3.8m2.8.8-2.8-.8m4-3-2.9-.8m14.5-6.8-.3.3m0,0V131m0,0-11.3,9.6m0,0-1.2,3.8m0,0v.1m16.8-12.3-11.4,9.5m14.2-8.7-2.8-.8m-12.5,13.3v.2m1.1-4-1.1,3.8m2.8.8-2.8-.8m3.9-3-2.8-.8m14.5-6.8-.3.3m0,0V133m0,0-11.4,9.5m0,0-1.1,3.8m0,0v.1M129.3,135l-11.4,9.6m14.2-8.8-2.8-.8m-12.5,13.4v.1m1.1-3.9-1.1,3.8m2.8.7-2.8-.7m3.9-3.1-2.8-.7m14.5-6.9-.3.3m0,0v-2.2m0,0-11.4,9.5m0,0-1.1,3.8m0,0v.1M136,136.9l-11.3,9.5m14.2-8.8-2.9-.7m-12.5,13.3v.1m1.2-3.9-1.2,3.8m2.8.8-2.8-.8m4-3-2.8-.8m14.5-6.8-.3.3m0,0v-2.3m0,0-11.4,9.6m0,0-1.2,3.8m0,0v.1m16.5-12.4-11.4,9.5m14.2-8.7-2.8-.8M130.3,152v.2m1.1-4-1.1,3.8m2.8.8-2.8-.8m3.9-3-2.8-.8m14.5-6.8-.3.3m0,0v-2.2m0,0L134.2,149m0,0-1.1,3.8m0,0v.1m20.1-11.4L141.8,151m14.2-8.7-2.8-.8m-12.5,13.3v.2m1.1-4-1.1,3.8m2.8.8-2.8-.8m3.9-3-2.8-.8m14.5-6.8-.3.3m0,0v-2.2m0,0-11.4,9.5m0,0-1.1,3.8m0,0v.1m16.8-12.2L148.9,153m14.2-8.8-2.8-.7m-12.5,13.3v.1m1.1-3.9-1.1,3.8m2.8.7-2.8-.7m3.9-3.1-2.8-.7m14.5-6.8-.3.2m0,0v-2.2m0,0-11.4,9.5m0,0-1.1,3.8m0,0v.2m20.1-11.4-11.4,9.5m14.2-8.8-2.8-.7m-12.6,13.3v.1m1.2-3.9-1.2,3.8m2.9.8-2.9-.8m4-3-2.8-.8m14.5-6.8-.3.3m0,0V147m0,0-11.4,9.6m0,0-1.1,3.8m0,0-.1.1m16.5-12.4L166,157.6m14.2-8.7-2.8-.8m-12.5,13.3v.2m1.1-4-1.1,3.8m2.8.8-2.8-.8m4-3-2.9-.8m14.5-6.8-.3.3m0,0v-2.2m0,0-11.3,9.5m0,0-1.2,3.8m0,0v.1m16.5-12.4-11.4,9.6m14.2-8.8-2.8-.8m-12.5,13.4-.1.1m1.2-3.9-1.1,3.8m2.8.7-2.8-.7m3.9-3.1-2.8-.7m14.5-6.8-.3.2m0,0v-2.2m0,0-11.4,9.5m0,0-1.1,3.8m0,0v.2m20-11.4-11.3,9.5m14.2-8.8-2.9-.7M182,166.1v.1m1.2-3.9-1.2,3.8m2.8.8-2.8-.8m4-3.1-2.8-.7m14.5-6.8-.3.3m0,0v-2.3m0,0L186,163m0,0-1.2,3.9m0,0v.1m16.8-12.3-11.3,9.5m14.1-8.7-2.8-.8M189.1,168v.1m1.2-3.9-1.2,3.8m2.8.8-2.8-.8m4-3-2.8-.8m14.5-6.8-.3.3m0,0-.1-2.2m0,0L193.1,165m0,0-1.2,3.8m0,0v.1M212,157.5,200.7,167m14.1-8.7-2.8-.8m-12.5,13.3v.2m1.2-4-1.2,3.8m2.8.8-2.8-.8m4-3-2.8-.8m14.5-6.8-.4.3m0,0v-2.2m0,0-11.3,9.5m0,0-1.2,3.8m0,0v.1m16.5-12.3-11.4,9.5m14.2-8.8-2.8-.7m-12.5,13.3v.1m1.1-3.9-1.1,3.8m2.8.7-2.8-.7m3.9-3.1-2.8-.7m14.5-6.8-.3.2m0,0v-2.2m0,0-11.4,9.5m0,0-1.1,3.8m0,0v.2m16.4-12.4-11.3,9.5m14.1-8.7-2.8-.8M213,174.5v.1m1.2-3.9-1.2,3.8m2.8.8-2.8-.8m4-3-2.8-.8m14.5-6.8-.3.3m0,0-.1-2.2m0,0L217,171.5m0,0-1.2,3.8m0,0v.1M235.9,164l-11.4,9.5m14.2-8.7-2.8-.8m-12.5,13.3v.2m1.1-4-1.1,3.8m2.8.8-2.8-.8m3.9-3-2.8-.8m14.5-6.8-.3.3m0,0v-2.2m0,0-11.4,9.5m0,0-1.1,3.8m0,0v.1M243,165.9l-11.4,9.5m14.2-8.7-2.8-.8m-12.5,13.4v.1m1.1-4-1.1,3.9m2.8.7-2.8-.7m3.9-3.1-2.8-.8m14.5-6.8-.3.3m0,0v-2.2m0,0-11.4,9.5m0,0-1.1,3.8m0,0v.1m20.1-11.3L242,178.3m14.2-8.8-2.8-.7m-12.5,13.3-.1.1m1.2-3.9-1.1,3.8m2.8.7-2.8-.7m3.9-3.1-2.8-.7m14.5-6.8-.3.2m0,0v-2.2m0,0L244.8,179m0,0-1.1,3.8m0,0v.2m16.4-12.4-11.3,9.5m14.1-8.7-2.8-.8m-12.5,13.3v.1m1.2-3.9-1.2,3.8m2.8.8-2.8-.8m4-3-2.8-.8m14.5-6.8-.4.3m0,0v-2.2m0,0-11.3,9.5m0,0-1.2,3.8m0,0v.1m16.5-12.4-11.4,9.5m14.2-8.7-2.8-.8m-12.5,13.3v.2m1.1-4-1.1,3.8m2.8.8-2.8-.8m3.9-3-2.8-.8m14.5-6.8-.3.3m0,0v-2.2m0,0-11.4,9.5m0,0-1.1,3.8m0,0v.1m20.1-11.4-11.4,9.6m14.2-8.8-2.8-.8m-12.6,13.4v.1m1.2-3.9-1.2,3.8m2.9.7-2.9-.7m4-3.1-2.8-.7m14.5-6.8-.3.2m0,0V176m0,0-11.4,9.5m0,0-1.1,3.8m0,0-.1.2m16.8-12.3L273,186.7m14.1-8.8-2.8-.7m-12.5,13.3v.1m1.2-3.9-1.2,3.8m2.8.8-2.8-.8m4-3-2.8-.8m14.5-6.8-.3.3m0,0-.1-2.3m0,0-11.3,9.6m0,0-1.2,3.8m0,0v.1M294.7,180l-11.3,9.5m14.1-8.7-2.8-.8m-12.5,13.3v.1m1.2-3.9-1.2,3.8m2.8.8-2.8-.8m4-3-2.8-.8m14.5-6.8-.3.3m0,0-.1-2.2m0,0-11.3,9.5m0,0-1.2,3.8m0,0v.1m16.5-12.4-11.4,9.5m14.2-8.7-2.8-.8M289,195.2v.1m1.1-4-1.1,3.9m2.8.7-2.8-.7m3.9-3.1-2.8-.8m14.5-6.8-.3.3m0,0v-2.2m0,0-11.4,9.5m0,0-1.1,3.8m0,0v.1m16.4-12.3-11.3,9.5m14.1-8.8-2.8-.7M295.7,197v.1m1.2-3.9-1.2,3.8m2.8.8-2.8-.8m4-3.1-2.8-.7m14.5-6.8-.3.3m0,0-.1-2.3m0,0-11.3,9.5m0,0-1.2,3.9m0,0v.1m20.1-11.4L307.3,196m14.1-8.7-2.8-.8m-12.5,13.3v.1m1.2-3.9-1.2,3.8m2.8.8-2.8-.8m4-3-2.8-.8m14.5-6.8-.4.3m0,0v-2.2m0,0-11.3,9.5m0,0-1.2,3.8m0,0v.1m16.8-12.3-11.4,9.5m14.2-8.7-2.8-.8m-12.5,13.3v.2m1.1-4-1.1,3.8m2.8.8-2.8-.8m3.9-3-2.8-.8m14.5-6.8-.3.3m0,0v-2.2m0,0-11.4,9.5m0,0-1.1,3.8m0,0v.1m20.1-11.4-11.4,9.6m14.2-8.8-2.8-.8m-12.5,13.4v.1m1.1-3.9-1.1,3.8m2.8.7-2.8-.7m3.9-3.1-2.8-.7m14.5-6.8-.3.2m0,0V192m0,0-11.4,9.5m0,0-1.1,3.8m0,0v.2m16.4-12.4-11.3,9.5m14.2-8.8-2.9-.7m-12.5,13.3v.1m1.2-3.9-1.2,3.8m2.8.8-2.8-.8m4-3-2.8-.8m14.5-6.8-.3.3m0,0v-2.3m0,0-11.4,9.6m0,0-1.2,3.8m0,0v.1m16.5-12.4-11.4,9.5m14.2-8.7-2.8-.8m-12.5,13.3v.2m1.1-4-1.1,3.8m2.8.8-2.8-.8m3.9-3-2.8-.8m14.5-6.8-.3.3m0,0v-2.2m0,0L341,205.2m0,0-1.1,3.8m0,0v.1M35.7,134.7l-.1,4.8m19.7-22.7L35.7,134.1M63.4,119l-13,11.4m0,0-2.9-.7m26.3-7.9L60.7,133.3m0,0-2.8-.8m22.9-8.8-13,11.5m0,0-2.8-.8m26.2-7.8L78.2,138m0,0-2.8-.8M98,128.4,85,139.8m0,0-2.8-.7m22.5-8.9-13,11.5m0,0-2.8-.8m26.2-7.9-13,11.5m0,0-2.8-.8m22.9-8.7-13,11.4m0,0-2.8-.7m26.2-7.9-13,11.4m0,0-2.8-.7m29.3-7-13,11.4m0,0-2.8-.7m9-12.6-13,11.5m0,0-2.8-.8m33-6-13,11.4m0,0-2.8-.7m22.9-8.8-13,11.5m0,0-2.8-.8M174,149l-13.1,11.5m0,0-2.8-.8m22.6-8.8-13,11.4m0,0-2.8-.7m22.6-8.9-13,11.5m0,0-2.9-.8m26.2-7.9-13,11.5m0,0-2.8-.8m22.9-8.7-13,11.4m0,0-2.8-.8m26.2-7.8-13,11.4m0,0-2.8-.7m22.6-8.9-13,11.5m0,0-2.8-.8m22.5-8.8-13,11.4m0,0-2.8-.8m26.2-7.8-13,11.4m0,0-2.8-.7m22.9-8.8-13,11.4m0,0-2.8-.7m26.2-7.9-13,11.5m0,0-2.9-.8m22.6-8.8-13,11.4m0,0-2.8-.8m22.6-8.8-13,11.4m0,0-2.8-.7m26.2-7.9-13.1,11.5m0,0-2.8-.8m22.9-8.8-13,11.5m0,0-2.8-.8m26.2-7.8-13,11.4m0,0-2.8-.8m22.6-8.8-13,11.4m0,0-2.8-.7m22.5-8.9-13,11.5m0,0-2.8-.8m26.2-7.8-13,11.4m0,0-2.8-.8m22.9-8.7-13,11.4m0,0-2.8-.7m26.2-7.9-13,11.5m0,0-2.8-.8m22.6-8.9-13.1,11.5m0,0-2.8-.8m22.6-8.8-13,11.4m0,0-2.8-.7M35.5,134.7l307.1,83.4M35.5,134.6v.1m0-.1L342.6,218M35.5,134.4v.2m.2-.5,307,83.4m-307-83.4h0l-.1.1v.2h-.1m312.8,78.2-5.6,4.9m0,0v.1h-.1v.3m0,0v.1m0,0h0m0,0v.1m0,0,.2-.1m0,0-.2,4.9M53.3,116.1l-20.6-5.6m0,0v-.1h-.3v.1h-.1m0,0L13.6,126.9m0,0v.2h.2m0,0,20.6,5.6m.4,0,18.6-16.5m0,0h.1v-.1h-.2M34.4,132.7h.4m18.7-16.5h0m0,0h0m-21.1-6.4L12.7,127.1m19.7-16.7L13.6,126.9m19.1-16.6h-.2v.1h-.1M53.5,116l-20.8-5.7m20.9,5.8h0V116h-.1M34.8,132.7l18.8-16.6M34.4,132.7v.1h.2v-.1h.2m-21.1-5.6,20.7,5.6m-20.8-5.8v.2h.1m-1.4,1.1-.2,4.9m23.5,5.6-.6.6M12.7,127.1v.1l-.1.1-.1.1-.1.2v.3l-.1.1v.2m20.1-18.4h0v.1m0-3.6v3.5m.1-3.7h0v.1h-.1v.1M41.3,98l-.1.1-.4.5-.3.5-.3.5-.4.5-.3.6-.3.6-.3.6m0,0-.6.7-.7.6-.8.3-.7.1-.3-.1m0,0-2-.5m0,0-.2.3-.2.4-.1.4-.2.4-.2.4-.1.4-.2.4-.1.4M41.3,98l-.1.1-.3.5-.4.5-.3.5-.4.6-.3.6-.3.5-.3.6m0,0-.3.5-.4.4-.8.5-.7.3h-.9m19,12.3-.4.4m298,81.2,7.8,2.1m-14.5-3.9,2.2.6m-9-2.4,2.3.6M328.5,191l5.9,1.6m-13-3.5,2.6.7m-12.9-3.5,5.8,1.6m-12.6-3.4,2.3.6m-9-2.5,2.2.6m-12.6-3.4,5.8,1.6m-12.9-3.5,2.6.7m-13-3.5,5.9,1.6m-12.7-3.5,2.3.6m-9-2.4,2.2.6m-12.6-3.4,5.9,1.6m-13-3.6,2.6.7m-12.9-3.5,5.8,1.6M221.6,162l2.3.6m-9.1-2.4,2.3.6m-12.6-3.5,5.8,1.6m-12.9-3.5,2.6.7m-13-3.5,5.9,1.6m-12.7-3.5,2.3.7m-9-2.5,2.2.6m-12.6-3.4,5.9,1.6m-13-3.5,2.6.7m-13-3.6,5.9,1.6m-12.6-3.4,2.2.6m-9-2.4,2.3.6m-12.7-3.5,5.9,1.6m-13-3.5,2.6.7m-12.9-3.5,5.8,1.6m-12.6-3.4,2.3.6m-9.1-2.5,2.3.6m-12.6-3.4,5.8,1.6m-12.9-3.5,2.6.7m-13-3.5,5.9,1.5m-14.4-3.9,4,1.1m294,79.7,8,2.2m-14.7-4,2.4.6m-9.2-2.5,2.5.7m-12.9-3.5,6.1,1.7m-13.2-3.6,2.8.7m-13.1-3.5,6.1,1.6m-12.9-3.5,2.5.7m-9.3-2.5,2.5.7m-12.8-3.5,6.1,1.6m-13.2-3.6,2.8.8m-13.2-3.6,6.1,1.7M262.9,173l2.5.6m-9.2-2.5,2.5.7m-12.9-3.5,6.1,1.7m-13.2-3.6,2.8.8m-13.1-3.6,6,1.6m-12.8-3.5,2.5.7m-9.3-2.5,2.5.7m-12.8-3.5,6.1,1.6m-13.2-3.5,2.8.7M187,152.3l6.1,1.7m-12.9-3.5,2.5.7m-9.2-2.5,2.5.6m-12.9-3.5,6.1,1.7M156,143.9l2.8.8m-13.2-3.6,6.1,1.6m-12.8-3.4,2.4.6m-9.2-2.5,2.5.7m-12.9-3.5,6.1,1.7m-13.2-3.6,2.8.7m-13.1-3.6,6.1,1.7M97.5,128l2.5.7m-9.3-2.5,2.5.6m-12.8-3.4,6.1,1.6m-13.2-3.6,2.8.8m-13.2-3.6,6.1,1.7m-14.6-4,4.2,1.1m-4.2-1.1v.2m29.2-14.9h-.1v-.1m0,0-.1-1.3L83.3,99l-.1-1.2V93.1l.1-1.2m.4-1,.4-.6m-.8,1.6.1-.2v-.3l.2-.2.1-.3m-.1,10.7v.2h.1m228.1,61.9v.1h-.2l-.1-.1v-.2m.6-4.9.1-.1h.1v.1m-.3.1.1-.1m-.3.3h.1m-.8-2.3.1.2m-.1-.2h0M84.2,90.3l-.4.6m225,61.1.3-.5M83.4,92.1l-.1,1.1-.1,1.2v2.3l.1,1.2v1.2l.1,1.2.2,1.3m.2-10.7-.2.3-.1.3-.1.3v.3m225.2,61.2v-1l.2-.3m2.7,11.5-.3-1.3-.3-1.2-.3-1.3-.3-1.3-.4-1.3-.4-1.2-.4-1.3-.5-1.3m3.5,5.6-.1.1h-.1v-.1m0,0-.7-2.1m0,0h0m0,0-.6-1.5m0,0v-.1m0,0-.9-2.1m0,0v-.4l.1-.1m0,0,.1-.2m0,0h0v-.1l.1-.1-.1-.1m0,0-.2-.5m-.4-.1-.4.6m0,0-.1.3-.1.3v.3l.1.2m0,0,.4,1.3.5,1.3.4,1.3.3,1.3.4,1.3.3,1.2.3,1.3.2,1.2m0,0v.2h.1v.1h.2l.1-.1.1-.1m0,0,1-1.6m0,0h0v-.3m0,0-.7-2.9m0,0h-.1v0h-.1m0,0-.1.2M24,61.2v-.1h.1l.1-.1h.1M19.8,72.8l337,91.6M19.8,72.8,19,70.5m.1-.3,4.9-9m338,93.7h0m-.6-2.2.6,2.2m-1-2.1v-.1h.1v-.1h.2v.1h.1m-5.3,9.1,4.9-9m-4.2,11.6-.8-2.3m.8,2.3h0m0,0L356,162m0,0h0v-.1h.1v-.1m0,0,4.9-9m0,0h0l.1-.1.1-.1.1.1m-5.3,9.4v-.3h.1M19,70.5v-.2l.1-.1m4.8-8.9.1-.1m-5,9.2v-.1m0,0,4.9-9m-4.9,9h0m342,82.5h0l.1-.1.1-.1.1.1m-4.4,11.7.1-.1m-.1.1h-.1m.2-.1h0m0,0,5-9.2m0,0V155m0,0-.6-2.1m0,0v-.1h-.2l-.1.1m-4.3,11.5.2-.1m-.8-2.3.8,2.3m-.2.1L356,162m.1-.2,4.9-9m.1.1-4.9,9m-.2.1h0v-.1h.1v-.1m.1.1h0v.1M194.4,136h0m.2,0h-.2m1.4.4h0m0,0h0m-.1-.1h-.1m0,0h-.1v-.1m.3.2h-.1v-.1m-1-.4h0l-.1.1m0,0h0m.9.2-.2-.1V136l-.1-.1m1.7.8v0m0,0h0m-1.7-.8.1-.3m1.9,1.1h-.3m.3-.1v.1m-.1,0h.1m1.4.5h0m-3.2-1.8h.1m3.1,1.8h0m-3.2-1.9h0v.1m3.2,1.8v-.1h-.1m0,0h-.1l-.1-.1m0,0-.1-.1v-.1m.1.2h0m-2.8-1.6.9.2m0,0h0m-.8-.9-.2.6m-.1-1.4h0v.1m.7.1-.7-.2m.8.3h0v-.1H196m2.2,2.7-2.1-2.6m2.5,3h0l-.1-.1m0,0h-.1l-.1-.1m0,0-.1-.1-.1-.1m0,0-2-2.6m0,0H196v-.1m0,0-.7-.1m0,0h-.1m0,0-.5,1.8m0,0v.1l-.1.1m0,0h-.2m0,0h-.1m0,0,.1.1m0,0h0m0,0,1.3.4m0,0h.1v-.1m0,0h-.1m0,0h0v-.1m0,0h-.1m0,0h-.1l-.1-.1m0,0-.1-.1-.1-.1v-.1m0,0,.1-.3m0,0h.1m0,0,1.2.4m0,0h.1m0,0,.4.6m0,0h.1v.1h-.1m0,0h-.2m0,0h0m0,0h-.1m0,0h0m0,0,.1.1m0,0,1.6.4m0,0h.1m0,0h0m-2.2-1.6h0m-1-.2,1,.2m-1-.2h0m0-.1h0v.1m.2-.7-.2.6m.2-.7v.1m.1,0h-.1v-.1m.8,1-.7-.9m.7.9h0m11.5,4h-.1m.3,0-.1.1-.1-.1m1.4.5h0m0,0-.1-.1m0,0h-.1m0,0-.1-.1h-.1m.3.1h0m-1.1-.5v.1m-.1.1.1-.1m.8.3-.1-.1-.1-.1v-.2m1.7.8h-.1m.1,0h0m-1.7-.8.1-.2m1.8,1h-.2m.2,0h0m0,0h0m1.5.6h0m-3.2-1.9h0m3.2,1.9v-.1m-3.2-1.8h0m3.2,1.8H212m0,0-.1-.1h-.1m0,0-.1-.1-.1-.1m.2.2h0m-2.9-1.7,1,.3m0,0h0m-.8-1-.2.7m-.1-1.4h-.1m.8.2-.7-.2m.8.2h-.1m2.1,2.7-2-2.7m2.5,3H212m0,0-.1-.1h-.1m0,0-.1-.1-.1-.1m0,0-2-2.6m0,0-.1-.1m0,0-.7-.2m0,0h-.1m0,0-.5,1.8m0,0-.1.2-.1.1m0,0h-.1m0,0h-.1m0,0h0m0,0h0l.1.1m0,0,1.3.3m0,0h0m0,0h0m0,0V140m0,0h-.1m0,0H209l-.1-.1m0,0-.1-.1-.1-.1v-.1m0,0,.1-.3m0,0h0m0,0,1.3.3m0,0h.1v.1m0,0,.4.5m0,0v.1m0,0-.1.1-.1-.1m0,0h0m0,0h-.1v.1m0,0h0m0,0h.1v.1m0,0,1.6.4m0,0h.1m0,0v-.1m-2.3-1.5h.1m-1-.2.9.2m-.9-.2h0m0-.1h0v.1m.2-.8-.2.7m.2-.7h0m.1.1-.1-.1m.8,1-.7-.9m.7.9h0m4.9,2.2h-.1m.1,0h0m.2,0h-.2m.1,0h.1m1.4.5h0m0,0h0m-.1-.1h0m.1.1h0l-.1-.1m0,0h-.1l-.1-.1m0,0-.1-.1m.1.1h0m-2-2.8H214m2,2.7-.6-2m0,0v-.1m.2,0h0v-.1m0,0h0m0-.1-1.5-.4m1.5.6h0m0,0v-.1m0,0-1.6-.4m0,0h0m0,0h0m0,0h0v.1h.1m0,0h0m0,0h.1l.1.1m0,0,.1.1m0,0,.6,2m0,0v.1h-.1m0,0v.1l-.1-.1m0,0h0m0,0h-.1v.1m0,0h0m0,0h.1v.1m0,0,1.5.4m0,0h.1V142m0,0h0m0,0h-.1v-.1m0,0h0m0,0h-.1l-.1-.1m0,0-.1-.1m0,0-.6-2m0,0v-.1m0,0h.2m0,0h0m0-.1h0v-.1m0,.1h0m-12.9-1.2h0m1.7.5h0m-2.1-1.5h-.1m.1,0h0m.4,1,.1-1m1.3.5H204m.2,0h-.1m-4.3-2.7h-.1v.1m1.5.6h-.1v-.1m1.1,1.6-1-1.5m.1-.2h0m0,0h0m-.1-.1-1.4-.4m1.5.5h-.1v-.1m.7.2h-.1m1.3.6h0m.9,1.5-.9-1.5m.2-.1h0m0,0v-.1m-.1,0-1.3-.4m1.4.4h-.1m1.2,2.7.6-1.9m-.9-.6H204m1,.6v-.1m.3-.1h0m0,0h0m-.1-.1-1.1-.3m1.2.4h0l-.1-.1m-4.1-.9h.1m0,0h0m0,0h0m0,0h.1m0,0-.1-.1m0,0h0m0,0-1.4-.4m0,0h-.1m0,0h0m0,0v.1h.1m0,0h0m0,0h.1m0,0,.1.1m0,0,.1.1v.1m0,0,1.9,2.5m0,0v.1h.1m0,0,.5.1m0,0,.1.1v-.1m0,0,.1-1m0,0h0m0,0h.1m0,0,.8,1.3m0,0h.1v.1m0,0,.5.1m0,0h.1m0,0,.5-1.9m0,0h.1v-.1m0,0h.2m0,0h0m0,0h0m0,0h.1v-.1m0,0h0m0,0h-.1v-.1m0,0-1.1-.3m0,0H204v.1m0,0h0m0,0h.1v.1m0,0h.1m0,0,.1.1h.1v.1m0,0h0m0,0v.2m0,0-.2.9m0,0h-.1m0,0H204m0,0-.9-1.4m0,0v-.1m0,0h0v-.1h.1m0,0h.1m0,0h0m0,0h0m0,0v-.1h-.1m0,0-1.4-.4m0,0h0v.1m0,0h0m0,0h0l.1.1m0,0h0m0,0h.1m0,0,.1.1m0,0v.1h.1m0,0,.2.3m0,0v.1m0,0-.1.8m0,0h0m0,0h-.1m0,0-1-1.5m0,0h-.1v-.1m-13-1.4h0m.1,0h-.1m.2,0h-.1m1.4.5h0v-.1m0,0h0m-.1-.1h-.1m.2.1h-.1v-.1m-.1,0h-.1v-.1m0,0h-.1v-.1m.1.1h0m1,.4-.1-.1v.1m.1,0h0m.1-.1v.1h-.1m1.8.5h0m0,0h0m-.1-.1h-.1m-.1-.1h-.1m.4.2H192v-.1m-.1,0h0l-.1-.1m-2.6-.8-.2-.8m-.1-.4h0m0,0v-.1h-.1m.9.3h0m0,0h-.1v-.1m0,.1h.1m-2.3-1.6h-.1m1.5,1.3-.2-.7m0,0v-.1m3.1,2.9-2-1.8m-.1,0h.1m2,1.8h0m-2.9-2.9h0m0,0v-.1m0,0-1.4-.4m1.4.4h0m1.1.6-1,.4m1-.4h0m-.3-.4h-.1m1.6.5h0m0,0v-.1m0,0-1.5-.4m1.5.4h0m-1.6-.3h.1m0,0,.1.1m0,0h.2m0,0v.2m0,0-1,.4m0,0h0m0,0h0l-.1-.1m0,0-.2-.7m0,0h0v-.1m0,0h.1m0,0h.1m0,0h0m0,0v-.1m0,0h-.1m0,0-1.3-.4m0,0h-.1m0,0v.1m0,0h.1m0,0h0m0,0,.1.1h.1m0,0v.1h.1m0,0,.6,2.1m0,0h0v.1m0,0h-.2m0,0h0m0,0H188m0,0,.1.1m0,0h0m0,0,1.4.4m0,0h.1m0,0-.1-.1m0,0h0m0,0-.1-.1m0,0h-.1v-.1m0,0h-.1v-.1m0,0-.2-.8m0,0h0m0,0h.1m0,0,1.2,1.1m0,0,.1.1m0,0v.1h-.1m0,0h0m0,0h-.1m0,0h0m0,0v.1h.1m0,0,1.7.5m0,0h.1v-.1m0,0H192m0,0h0v-.1m0,0h-.1m0,0h-.1m0,0-.1-.1m0,0-2.1-1.8m0,0h0m0,0h0v-.1m0,0,1-.3m0,0,.2-.1h.1m0,0h.2m0,0h0m0,0h0m0,0h0m0,0v-.1m0,0-1.5-.4m0,0h-.1m0,0v.1M24.3,60.6l.1.4m338,94.8-.6-.2M26.2,59.1H26l-.3.1-.4.1-.3.3-.3.3-.3.5m336.9,91.8,1.1,3.6m0-.1v.1m-1.1-3.6,1.1,3.5m-1-3.7h0l-.1.1v.1m2.6-.7v-.1l-.3-.3-.2-.3-.3-.1-.3.1-.4.1-.3.3-.4.3-.3.5m12.3,32.6h0m0,0L364,151.8m0,0-.1-.4-.2-.3-.2-.3-.3-.1H363l-.3.1-.4.1-.3.3-.3.3-.3.4M24.4,60.4h-.1v.2m337.1,91.3v.1h-.1v.2m11.9,33.9-.1-.3m-.4.8h0m.3-.6.1.2M40.5,97.9l.1-.1m-6.1,3.6-.3-.1m.6-3.5v-.1l.1-.1H35l.1-.1h.2m0,0h.3m-1.4,3.8h0l-.1-.1v-.1L34,101v-.3m0,0V100l.1-.4v-.4l.2-.4.1-.4.2-.3.2-.3m6.2.4.2-.2m-7.8,1-.1.3-.1.4v.7l.1.3.1.2h.1m1.2-5.3L33.4,99m5.9-3.6.1.2-.1.1v.1m-4.2,0h-.2l-.1-.1-.1-.1-.1-.1v-.1M30.3,80.7v.2l.1.2v.1l.1.1h.2l.1.1m8.5,14L35.7,83m.5,14.1.2-.4m-1.1-.8-1.2,3.2m0,0-.1.4-.1.4-.1.4.1.3v.3l.1.1m1.5-18.3.1.1.1.2m-1.5,2,.3.1.2-.1h.2l.1-.2.1-.2-.1-.2-.2-.2-.2-.2-.3-.2-.3-.2-.3-.1-.3-.1h-.2l-.2.1-.2.2v.1l.1.3.1.2.3.2.2.2.3.2.4.1m1.5,5.2.3.1h.3l.2-.1.1-.2v-.1l-.1-.3-.1-.2-.2-.2-.3-.2-.3-.2-.3-.1-.3-.1h-.3l-.2.1-.1.2v.4l.2.2.2.2.3.2.3.2.3.1m1.5,5.2.3.1h.3l.2-.1.1-.1v-.4l-.2-.3-.2-.2-.3-.2-.3-.2-.3-.1-.3-.1-.3.1H36l-.1.2v.2l.1.2.1.2.2.2.3.2.3.2.3.1m-2.1.4,2.7.8m0,0h.8l.2-.1.1-.1.1-.1v-.4m0,0L35.4,83.6m0,0-.1-.2-.2-.2-.2-.3-.2-.2-.3-.2-.3-.1-.3-.2-.3-.1m0,0-2.7-.7M33.7,98h0l-.2.2-.1.2m0,0-.2.3-.1.3v.9l.1.2m1.4-1.9-.1.1-.2.3-.2.4-.1.4v.3l-.1.4.1.2m-.2-2.4-.1.2-.2.3-.1.4-.1.3-.1.4v.7m3.5,3.3-.1-.1m0,0-.1-.2-.1-.1-.1-.2-.2-.1-.1-.1-.1-.1h-.2l-.1-.1m4.9-4.7-1.1-.3m-1.8-.3.1-.1.1-.1m-.2.2h0m0,0-.1.1-.1.1h-.1m-3.7,3.9h.2m.7.2-.7-.2m2.5-4.2h0m-.4-.1,1.4.4M35.9,97H36m0,0,.3.1m-1.4,5h0m0,0-1.3-.2m0,0h0l-.1-.1m2.1.7-2.1-.7m2.3-4.5.1-.1.1-.1h.3m-1.4,5h-.1l-.1-.1v-.1h-.1v-.2m0,0-.1-.4v-.9l.1-.5.1-.6.2-.5.2-.4.2-.5.2-.3.3-.3m368.5,19.1h0v.1M41.2,17.8h.2M32.1,30.4l-.1-.1v-.1m9.2-12.4h-.1m-9,8.8,9-8.8m363.3,98.7h-.1M32,30.2v-.4l-.1-.4V27.8l.1-.4V27m0,0v-.3h.1v-.1m372.3,89.9v.1m-9,8.7,9-8.8m-9.2,9.2.1-.1v-.2l.1-.1m-.2,3.6v-3.2m.2,3.3v.1h-.1V129l-.1-.1m2.7-2.3-2.5,2.4m2.5-2.4h0m0,0-2.5,2.4m0,0h-.1v-.1m0,0v-.4l-.1-.4v-1.6l.1-.4v-.4m0,0v-.3h.1v-.1m0,0,9-8.7m0,0v3.7m0-3.7-9,8.7m0,0h0v.1h-.1v.3m0,0v.4l-.1.4v1.6l.1.4v.4m0,0v.1h.1m0,0,9-8.7M56.5,2.4l.4-.3M41.1,17.5,56.5,2.4M41.1,17.8v-.3m.1-.1-.1.1m0,.1v-.1m379.2,87.4.3-.3.1-.4V104m-.7-4.9.2.2.3.3.2.3v.7l-.1.3-.3.4m-15.6,18.8-.3-.1m.3.1.1-.1m-.1.1-.1-.1m.2,0,15.5-15.1m-1.7-6.4-357-97m0,0L61,1.4l-.6-.1H59.1l-.6.1-.5.2-.6.2L57,2l-.3.3m0,0L41.2,17.4m379,83.7.2-.3.2-.3v-.4l-.1-.3-.2-.3-.3-.3-.4-.3-.4-.2-.6-.2M404.4,120h.2M41.1,17.6v.2m363.6,98.4,15.5-15.1m.1.2-15.5,15.1m-.2,3.6v-3.6m.2,3.6h-.2m.2-3.6V120M41.2,17.4l363.5,98.8M41.1,17.6l.1-.2m363.4,99L41.1,17.6m363.7,98.8h-.2m.2,0-.1-.2m-.1.2.1-.2m-21.1,51.6-.1.1m0,0h0m-.1,0v0h.1m.1-.1-.2.1M37.4,33.4V62.2M384.7,167.7l-.2-.1H384l-.2.1h-.1l-.1.1-.1.1m8.4,1.7-7.2-1.9M38.5,32.1l-1,1.1m0,0h-.1v.2m346,134.5h.1m0,0h-.1m.2-.1-.1.1M231.3,311.1v-2.5m.3,2.2v-2.1m1.3.9v-1.3m-1.6.3v-.1l.1-.2.1-.2.1-.1.2-.1h.5m-.7.8v-.3l.1-.1.1-.1h.5m7.8,11.7-.2.3m0-9.2v9.2m-.3-9.3v9.2m.3.1-.3-.1m-7.3-11.9,6.5,1.8m-6.5-2.1,6.5,1.8m0,.3h.2l.1.1.2.1.1.1.1.1v.2l.1.1v.2m-.8-1.2.2.1.2.1.2.1.2.2.1.2.1.2v.2l.1.2m-27.8-7.2v-1.1m-1.3,2.2V303m-.3,2.1V303m.3,0v-.2l.1-.1.1-.1.1-.1h.4m-1,.5v-.2l.1-.2.1-.1.1-.1.2-.1h.1l.2-.1.2.1m7.3,2.9v9.3m.2,0h-.2m.2-9.2v9.2m.3-.2-.3.2m-7.5-12.2,6.5,1.8m-6.5-1.6,6.5,1.8m0,0h.2l.1.1.2.1.1.2.1.1v.1l.1.2v.1m-.8-1.1h.2l.2.1.2.2.1.1.2.2.1.2v.4m-27.7-7.1V297m-1.3,2.3v-1.9m-.3,2.1v-2.2m.3.1v-.3l.1-.1.1-.1h.1l.1-.1h.2l.1.1m-1,.4v-.2l.1-.1.1-.2.1-.1.2-.1h.5m7.3,3v9.2m.2.1-.2-.1m.2-9.2v9.3m.3-.3-.3.3m-7.5-12,6.5,1.7m-6.5-2,6.5,1.8m0,.2.2.1.1.1.1.1.2.1.1.1v.2l.1.1v.2m-.8-1.2.2.1.2.1.2.1.1.2.2.2.1.1v.4m-160.7-43V159.4m0,97.3v-.1m12,11.5-.3-.2M182,304.1l-132.5-36M191.3,297v1.2m7.2,10.4-.3-.2m6,1.8-5.7-1.6m13.6-5.9v1m7.2,10.6-.3-.3m7.3,2.2-7-1.9m13.6-6v1.2m7.2,10.4-.2-.2m111.2,30.4-111-30.2m135.4,36.8-11.7-3.2m18.2-3.2v.1M37.5,159.4v97.3m10.7,2.9-10.7-2.9m11.7,4.1v-.2l-.1-.2-.1-.1-.1-.2-.2-.2-.1-.1-.2-.1-.2-.1m1,8.3v-7.1m0,7.1,133,36.1m7.5-6.7v2.2m1-2.9h-.5l-.2.1-.1.1-.1.2-.1.1v.2m7.5,1.1-6.5-1.8m7.5,3v-.4l-.1-.1-.2-.2-.1-.2-.2-.1-.2-.1-.2-.1m1,10v-8.8m0,8.8,6.1,1.6m6.2-7v2.1m1-2.8-.2-.1-.2.1H211l-.2.1-.1.1-.1.1-.1.2v.2m7.5,1.1-6.5-1.8m7.5,3v-.4l-.1-.2-.2-.2-.1-.1-.2-.2-.2-.1H218m1,9.9v-8.7m0,8.7,7.4,2m4.9-7.4v2.5m1-3.2h-.5l-.2.1-.1.1-.1.2-.1.2v.1m7.5,1.1-6.5-1.8m7.6,3.1-.1-.2v-.2l-.1-.2-.1-.2-.2-.2-.2-.1-.2-.1-.2-.1m1.1,10V311m123.9,42.4,11.9,3.2M239.9,319.7l111.2,30.2m29.3.9V352m1-1.9H381l-.2.1h-.1l-.2.1-.1.2v.3m11.5,2.2-10.5-2.9m10.4-95.8-28-7.6m28,7.6v-.1m0-40.8.1-.1m-.3,40.8.2.1m0,0h.1m0-40.4h-.1m0,0-.2.2m.2-.2v-.4m-.5-.1.5.1m-28,33.1,27.8,7.6m0,0V214m0,0-.8-.2m28.7,129.4-.1.1-.1.3-.2.3m-27,22.9H392v-.1h-.1v-.1m27.2-22.7-23.9,23.4m0,0H395v.1h-.1l-.1-.1m0,0h-.3l-.4-.1h-.3l-.4-.1-.3-.1h-.3l-.4-.1-.3-.1m.2.1.3.1h.3l.3.1.4.1.3.1h.3l.4.1h.3M348.5,395h-.1v-.1m43.5-28.3-32.1,31.3m0,0v.1h-.4m0,0-1.5-.2-1.4-.3-1.5-.3-1.4-.4-1.3-.4L351,396l-1.3-.5-1.2-.5m0-11.6h-.1v-.2m11,3.1-1.5-.2-1.4-.3-1.5-.3-1.4-.3-1.3-.4-1.3-.5-1.3-.4-1.2-.5m11.3,2.9h-.2l-.1.1-.1-.1m32.5-31.4-32.1,31.4m32.1-31.4-32.1,31.4m0,0h-.4m0,0-1.4-.2-1.5-.3-1.4-.3-1.4-.4-1.4-.3-1.3-.5-1.3-.4-1.2-.5m0,0v-.1h-.1v-.1m0,0h0m.3,11.9,1.2.5,1.2.5,1.3.4,1.4.4,1.4.4,1.4.3,1.4.3,1.5.2m-8.1-17.8-3,2.9m33.7-32.9-18.3,17.9m-15.4,15h0v.1h.1v.1m11.3,2.9,32.1-31.4m-32.5,31.4h.4m4-18.1,18.3-17.8M348.7,383l2.7-2.7m40.5-26-32.4,31.6m0,0-1.5-.2-1.4-.3-1.4-.3-1.4-.3-1.4-.4-1.3-.4-1.2-.5-1.2-.5m-.2.4,1.2.5,1.3.4,1.3.5,1.4.3,1.4.4,1.4.3,1.5.3,1.4.2M309.8,152.7h0m2.1,6.2-.1-.1m-2.1-5.9h0m2.2,6,.1-.2m0,0-.6-2-.7-2-.9-2m-.1.2.1-.2m2.1,6.2-.6-2-.7-2-.9-2M379,178.2l-.8,1.3m6.3-11.7-.6,1.4-.7,1.4-.7,1.3-.7,1.3-.7,1.3-.7,1.3-.7,1.2-.7,1.2m5.6-10.5h0l-.1.1m.1-.2v.1h-.1v.1m0,0-.6,1.4-.7,1.3-.7,1.4-.7,1.3-.7,1.3-.7,1.3-.7,1.2-.8,1.2m0,0-1.2,1.9m6.9-12.4h0l-.1.1m0,0-.6,1.4-.7,1.4-.7,1.3-.7,1.3-.7,1.3-.7,1.3-.7,1.2-.7,1.2m0,0-.8,1.3M39.1,96.2h.1l.2-.1h.1M24.3,60.4l.4-.4v-.1m-.4.6v-.1m0,.1v-.1M371.4,183.7l1,3.3m-.3-4.6-.7,1.3m1.7,2.1-1-3.4m1,3.4.7-1.1m0,0-9.7-32.8M39.5,96.2h-.1l-.1.1-.2.1h-.2M24.3,60.5h0m0,0h0m337.1,91.6h0V152m2.7-.1-.2-.4-.2-.3-.2-.2-.3-.1h-.3l-.4.1-.3.3-.4.3-.3.5m-.1-.1.3-.5.4-.3.3-.3.4-.1.3-.1.3.1.2.3.3.3v.1m-2.6.6h.1m10.4,35.5-10.5-35.5m.2,0L372,187.5m-10.6-35.4h.1M38.9,96.4h.2l.2-.1.1-.1h.1m-3.7.3h0M33.9,81.7l-3.6-1m3.6,1,.3.1.3.1.3.2.3.2.2.2.2.2.2.2.1.2m0,0,3.7,12.6m-.6.7h.4l.1-.1.1-.2v-.4m-3.9.3.2.5M30.3,80.7l-1.6-5.5M371.8,187.6l-10.5-35.4m10.5,35.4-10.5-35.5m0,.1h0v-.1M372.9,185h-.1m-.6,1.2-.1-.1m.4-2.5h-.1m-.6,1.2-.1-.1m.5,1.6.2.7m.2-.2.5-1m0,0-.2-.8m0,0v.1m0,0-.1-.3m0,0v-.1m0,0-.3-1.1m0,0-.1.1m0,0-.1-.3m0,0,.1-.1m0,0-.3-.9m0,0-.7,1.3m0,0,.3.8m0,0v-.1m0,0,.1.4m0,0v.1m0,0,.3,1m0,0v-.1m0,0,.1.4m0,0v.1M233.9,308.6l-4,3.9m-6.6,7.8-.1.5-.2,1.1m6.9-9.4-.7.6-1.8,1.9-1.2,1.2-.9,1-.6.7-.6.7-.3.5-.3.5-.1.4-.1.3m-30.9-23-1,.8-1.1.9-1.2.9-1.2.9h-.1m0,0-.1.1-1.3.8-1.4.8-1.4.8-1.5.8-1.5.7-.9.5m-2.3,2.6-.1.5-.2,1m2.6-4.1-.2.1-.5.3-.5.3-.4.4-.3.4-.2.5-.2.4v.1m35.6-4.9-1.6,1.4-1.8,1.6-.9.7m0,0-.3.3-1.7,1.3-1.7,1.3-1.8,1.4-.9.7m-2.6,3.2-.1.4-.2,1.1m2.9-4.7-.6.4-.6.6-.6.7-.4.4-.2.5-.2.4v.2m37.4,1.7,2.5.7m-23.5-6.4,2.7.8m-24-6.5,3.2.8M220.4,317h0v.2l.1.1m-.1-1.8V317m.5-2.3h0l-.4.4m0,0v.1h-.1v.3m0,3.6v.2l.1.1v.1m-.1-1.9v1.5m.7-2.5h0l-.1.2-.1.1-.2.2-.1.1m0,0h0l-.1.1v.1h-.1v.2m.1,1.9.2.2.4.3.5.3.5.3h.1m0,0v.1h.3m0,0,.3-.1h.4m-.8-5.5v1M33.5,158.3V261.2m0-230.4V61.1M4.4,289.8v11.6m.2.2.1.1m10.8,2.9.2-.1M34.2,84.2l-.1.2m-.3-.3.1-.3m1,1,.1-.1m-1.9-1.1-.1.1m2.7,5.7-.1.2m-.3-.3.2-.3m.9,1,.1-.1m-1.9-1.1-.1.1m2.8,5.8-.1.1m-.3-.3.1-.2m1,.9v-.1M36.1,94v.1M8.9,303.2v.1l.1.1.1.1.1.1.1.1h.1l.1.1m3.7.5.1-.1m-3.8-.4,2.9.7m0,0,.1.1h.2l.1-.1H13l.1-.1.1-.1m339.7,92.4h0l.1.2.1.1v.1h.2l.1.1h.1m3.7.6.1-.1m-3.8-.5,2.9.8m0,0h.1l.1.1h.1l.1-.1h.1l.1-.1h.1l.1-.1M10.1,152l338.3,91.9m-1.1-19.7L12,133.1m330.1,91v.2m2.8,0v-.2m0,0V224l-.1-.2-.1-.2-.2-.1-.3-.1-.4-.1h-.7l-.3.1-.3.1-.2.2-.1.2-.1.2M15.9,135.5v.2m2.9,0v-.2m-.8-.8h-.2l-.4-.1h-.3l-.4.1-.3.1-.2.2-.2.2-.1.2v.1m2.9,0-.1-.2-.1-.2-.1-.2-.3-.1-.2-.1m347.4-7.3.1-.2m-1.9-2-.1.1m-.1.1-.1.1-.1.3v.6l.1.3.2.3.2.2.3.3.4.1h.6l.3-.1M65.8,45.9l.2-.1m-2-2-.1.1m-.1.1-.1.1-.1.3V45l.2.4.2.2.2.3.3.2.4.1h.3l.3-.1.3-.1v-.1M53.5,116.2h0M13.6,127v.1m334.3,86.4-4.2,3.7m-.4.9-.2,5m.6-5.9-.1.1-.1.2-.1.1m0,0v.4l-.1.1m9.1-21.3,8.3,2.3m-15-4.1,2.9.8m-9.7-2.7,2.9.8m-13.3-3.6,6.6,1.8m-13.7-3.7,3.3.9m-13.6-3.7,6.5,1.8m-13.3-3.7,2.9.8m-9.7-2.6,3,.8m-13.3-3.6,6.5,1.8m-13.6-3.7,3.2.8m-13.6-3.7,6.5,1.8m-13.3-3.6,2.9.8m-9.6-2.6,2.9.8m-13.3-3.7,6.5,1.8m-13.6-3.7,3.2.9m-13.6-3.7,6.6,1.8m-13.3-3.6,2.9.8m-9.7-2.7,2.9.8m-13.2-3.6,6.5,1.8m-13.6-3.7,3.2.9M187,151.9l6.5,1.7M180.2,150l2.9.8m-9.6-2.6,2.9.8m-13.3-3.6,6.5,1.7M156,143.4l3.2.9m-13.6-3.7,6.6,1.8m-13.3-3.6,2.9.8m-9.7-2.7,2.9.8m-13.3-3.6,6.6,1.8m-13.7-3.7,3.3.9m-13.6-3.7,6.5,1.7m-13.3-3.6,2.9.8m-9.7-2.6,3,.8m-13.3-3.6,6.5,1.8m-13.6-3.8,3.2.9m-13.6-3.7,6.5,1.8m-37-10L59,117.1m24.6-15.5v.1m.1.1,228,62m.1-.1h.1m.3-5.2-.3-.1m.4.3v-.1m49-6L24.3,61m337.1,91.8-.1-.1M194.4,136h-.1m1.5.5v-.1m1,.3h0m1.8.5h0m-3.3-3.3-.1.1m12.6,5.6v.1m1.4.4h.1m1,.2h0m1.8.6h0m-3.4-3.3h0m6,3.9h0m1.7.6V142m-2.4-3v.1m1.6.5h0m-12.9-1.3h0m1.7.5h0m-4.7-3.6h0m1.6.5v-.1m.5.1h0m1.5.5h0m.7.1v.1m1.3.4v-.1m-17.2-2.4H188m1.6.5h0m.6.1h0m1.9.6v-.1m-4.8-3.6h0m1.5.5h0m.7.1h0m1.6.5h0m172.1,17.8L26.2,59.1m7.3,41.8.5.2m5-4.7.3-.6M30.4,81l4.2,14.4m6.5,2.9v-.1l-.3-.2-.3-.1-.1-.1m-6.8,3.5-.1.5M35.9,97l-.1.3m368.5,19.1L41.4,17.8M32.1,30.4l363.2,98.7M57,2l-.1.1M420.7,104v-3.7m-.7-1.2h-.1m-52.3,64.6,15.8,4.3m36.1,175.2V105.7m-27.6,22.5V366.6m.2.2.2.1m2.6.5.1-.1m-46.6,15.9v11.7m.2.2h.1m10.8,3,.1-.1m13-211.3h0M364,151.6l-.1-.1M35.8,96.5l335.8,91.3"/>
    <path class="cls-4" d="M198,302.7l-.6-.1m21.4,5.8-.5-.1m21.3,5.7-.6-.1m-4.6-5.2-2.8,2.7-.9.9m4.8,1.3,1.1-1.7,1.4-1.7.4-.4m1.2.9-.6.6-1.3,1.6-1.2,1.7m0,0v-.2l-.1-.2-.1-.1-.1-.2-.2-.1-.2-.1-.1-.1h-.2m1,1-.9,1.7-.6,1.9-.3,1.2-.2,1.2m-3.8-8.3,4.8,1.3m-2.2,6.2.2-1.3.4-1.2.6-1.9,1-1.8m-1,7,.3,1.8m-.3-1.8-.1-.1-.1-.2-.1-.1-.1-.2-.2-.1h-.2l-.2-.1h-.2m-2.6-7.5-3.6,3.6-1,1.1-.9,1-.7,1.1-.1.5-.1.4.1.5.2.4.4.4.4.3.5.3.6.2.7.2.8.1h.7l.8-.1.7-.1.7-.2.7-.3.5-.3.5-.4.4-.4.2-.4.1-.4m-3.4-7.3v-.1h.2l.1-.1h.5m3.8,8.3h0l-.2.5-.3.6-.4.4-.6.5-.7.4-.8.3-.9.2-.9.2h-1.9l-.9-.1-.9-.2-.7-.3-.7-.4-.5-.4-.5-.4-.2-.6-.2-.5.1-.5m-30.5-22.9-.4.4-1.9,1.5-2.1,1.5m4.8,1.3,1-1,2.6-2.6m-8.4,2.3h-.2l-.1-.1-.2.1h-.1m.6,0-1.5.9-1.5.9-2.5,1.4-2.7,1.3m8.2-4.5,4.8,1.3m4.8-2.6-3,2.8-.9.9m-6.6,6.6h0l-.6.4-.6.4-.8.3-.9.2-.9.1-1,.1-.9-.1-.9-.1-.9-.2-.7-.3-.7-.4-.5-.4-.4-.5-.2-.5-.1-.5v-.5m16.7-4.6-1.9,1.9-1.9,2-.8.9-.9.8-1.1,1m5.7-7.7.1.1.2.1.2.1.1.1.1.2.1.1.1.2v.2m-13.9,2.1-.3.2-.5.3-.4.4-.3.4-.2.4-.1.5.1.4.2.4.3.4.4.4.6.3.6.2.6.2.8.1h1.5l.7-.1.7-.2.7-.3.6-.3.5-.4,1-.8.8-.9.8-.8,1.9-2,2-2m-13,3.2H180l-.1-.1h-.1l-.1.1m33.8-2.2-.5.4-3.6,3m5,1.4,1.7-2,1.6-1.7m-9,2.4.1-.1h.6m0,0,5,1.4m-5-1.4-2.3,1.9L205,310l-2.1,1.6m15.9-6.4-1.7,1.8-1.6,1.9m0,0-.1-.2-.1-.1-.1-.2-.1-.1-.1-.2-.2-.1-.2-.1h-.2m-11.5,3.7-.9.8-.8.8-.3.4-.2.5v.4l.1.5.2.4.3.4.4.3.6.3.6.3.7.1.7.1.7.1.8-.1.8-.1.7-.2.6-.3.6-.3.5-.4.5-.6.5-.6.8-1.2.6-1.1,1.5-2.2,1.5-2m-12.1,3.7.1-.1h.4l.1.1m7.2,4.9h0l-.1.2-.6.4-.8.4-.8.3-.9.3-.9.1-.9.1h-1l-.9-.2-.8-.2-.8-.3-.7-.3-.5-.5-.4-.4-.3-.6-.1-.5.1-.5m15.8-5.9-1.6,2-1.4,2.1-.7,1.2-.3.6-.4.6-1,1.1M198,305.6l-2.9-.8m23.7,6.5-2.5-.7m23.3,6.3-2.4-.6m-16.8.7h0v.1h.1m.4-2.1h-.3v.1h-.1m0,.6-.1-.1v-.1m.1,1.8v-.2m0-1.4v1.4m0,0,.1.1m-.2,1.9h0v.1m.1-3.5v-.2l.1-.1v-.1l.1-.1.1-.1.1-.1m.2,1.6-.1-.3-.1-.2-.2-.2-.2-.2m-.1,2.1v-.2m.2-.4.1-.1h.2l.1.1m-.5,2.3v-.1l-.1-.1v-.1m1.8,1.4h-.1v-.2l-.1-.1m-1.6-2.5v1.4m0,0,.2.2.1.1.2.2.2.1.2.2.2.1.3.1.2.1m0,0v-1.4m0,1.4.1.1h.5m-2.2-2.6v-.1l.1-.1v-.1l.1-.1.1-.1.1-.1h.2m1,1.7-.2-.1-.3-.2-.2-.1-.2-.1-.2-.2-.2-.1-.1-.2-.2-.1m2.2,1.1-.1.1h-.2l-.1-.1H222m0,0,.1-.1v-.2l.1-.1v-.1l.1-.1v-.1h.1m.1,2.5h0l.1-.1v-.2m.7-5,.2.1.4.2.4.2.5.1.5.1h.9m-.6.8H225l-.6-.1-.5-.2-.5-.2-.3-.2m0,0-.4-.3-.2-.3-.1-.3v-.2m.2,3.8v1.5m0,0,.5-.1h.2m-.7-1.4v-.3l-.1-.1v-.2l-.1-.1m1.5.7h-1.3m-1.5-4.1v.1l-.2.1m0,0,.3.3.3.2.1.3.1.3-.1.3-.1.2-.2.3-.3.3m0,0,.1.1.1.1.2.2.2.1.2.1.2.2.2.1.2.1m0,0,.6-.1h1.5M33.7,158.4V261.1m0-230.3V61.2m2.8,97.9v99.2m0-226.7V61.9M36.1,159v99.8m0-227.3V61.8M15.4,292.9v11.6M4.5,289.9v11.6m11,3v.1m-10.9-3,.1.1m-.2-12,.2-.2m11.1,3.3-.3-.3m-11-2.6.2-.4m10.8,3.3v-.3M33.8,84.4,34,84m-.3.2.3-.4m.2.6.1-.1m-.5-.3.1-.2m1.5,5.8.2-.4m-.4.2.3-.3m.3.5v-.1m-.5-.3.2-.2m1.4,5.8.2-.3m-.3.2.3-.4m.2.5v-.1m-.4-.3.1-.1M9.3,303.4l-.1-.1H9.1l-.1-.1m.3.2v.1l.1.1v.1l.1.1m2.7.3v.3l.1.1h.1m.9-.3-.1.1m-3.9-1v.1m0,0,2.9.7m0,0V304m.7.2h-.5l-.2-.1m341.1,92.8-.1-.1h-.1l-.1-.1m.3.2v.1l.1.1v.1h.1m2.7.4v.3h.1v.1h.1m.9-.3-.1.1m-3.9-1v.1m0,0,2.9.7m0,0v-.1m.7.2h-.6l-.1-.1M13.8,164.5l-7.6-2M357.8,258l-7.6-2M24.7,93.4,33,95.6M.5,137.7,8.9,140M2.5,116.3l8.4,2.2M0,124l8.3,2.2M380.1,190l-8.4-2.3M356,234.3l-8.4-2.3m7.8-11.4-8.4-2.3m11-5.4-8.4-2.3m-331.9-76L12,133.1m331.8,90.2L18.2,134.8m329.1,89.4-2.9-.8m3,2.9-337-91.6m338,109L10,151.8m337.5,77.9L9.3,137.8m338.2,91.8L9.3,137.7m338.1,88.7L10.3,134.8M343,224.4l-.3-.1-.2-.1-.1-.2v-.2l.1-.1.1-.2.3-.1.3-.1h.7l.3.1.2.1.2.2.1.2-.1.1-.1.2-.2.1-.3.1-.4.1h-.3l-.3-.1m1.9-.3v.1l-.1.2-.2.2-.3.1-.3.1-.4.1-.4-.1h-.3m0,0-.4-.1-.2-.2-.2-.2v-.2M17.9,134.7l.3.1.2.2.1.1v.2l-.1.2-.2.1-.2.1-.3.1H17l-.3-.1-.3-.1-.1-.2-.1-.1v-.2l.2-.2.2-.1.3-.1h1m.9.8h0l-.1.2-.1.2-.3.1-.3.1-.4.1h-.7l-.4-.1-.3-.2-.2-.1-.1-.2v-.1M365,127.4l-.2.1h-.3l-.3-.1-.3-.1-.3-.3-.2-.2-.1-.3v-.6l.2-.2.2-.2.3-.1.3.1.3.1.3.2.2.2.1.3.1.3v.3l-.1.3-.2.2m-1.5-2.1.2-.1.3-.1h.3l.4.1.3.2.3.2.2.4.1.3.1.3v.4l-.2.2v.1M65.4,44.5l.2.3.1.3v.6l-.2.2-.2.1-.3.1-.3-.1-.3-.1-.3-.2-.2-.3-.1-.3-.1-.3v-.3l.2-.2.2-.2.2-.1h.3l.3.1.3.2.2.2m-1.5-.6h0l.3-.2h.6l.4.1.3.2.2.3m0,0,.2.3.2.4v.3l-.1.3-.1.3h-.1M35.5,134.4l307.1,83.5M53.4,116.3v-.1M13.8,127.1h0m20.7,3-16.2-4.4m0,0,14.2-12.6m0,0,16.3,4.4m0,0L34.5,130.1m-.1,2.6h0m.4,0h-.1m-2-22.4v.2M53.5,116v.2m-21.1-5.8v.1M13.6,127v-.1m21.3,6.2,19.7-17.2M34.4,139.2l.1-5m19.9-17.6L35.2,133.5m-.3.7-.1,5.1m.1-6.2-22.2-6m21.8,7.1-22.2-6m22.2,6h.4m.3-.7h-.1v.1l-.1.1v.2l-.1.1v.2m0-1.1.1.1h.1v.1l.1.1v.1m-.7.7v-.1l.1-.2v-.1l.1-.2v-.1l.1-.2.1-.1v-.1m309,84h-.1l-.1.1m-.2,1h-.1v-.1h-.1m4.5-4.4-3.9,3.4m-.4,1.1-.2,4.9M347,218l-3.1-.9m0,0-.1.1v.1l-.1.1-.1.2v.1l-.1.2v.3m3.6,1-3.6-1M59.1,117l-26.7-7.2m37.1,10L62.9,118m13.7,3.8-3.3-.9M87,124.6l-6.6-1.8m13.3,3.6-3-.8m9.8,2.7-3-.9m13.4,3.7-6.7-1.8M118,133l-3.4-.9m13.7,3.7-6.6-1.8m13.4,3.7-3-.8m9.8,2.6-3-.8m13.3,3.6-6.6-1.8m13.7,3.7-3.3-.9m13.7,3.8-6.6-1.8m13.4,3.6-3-.8m9.7,2.6-3-.8m13.4,3.7-6.6-1.8m13.7,3.7-3.3-.9m13.7,3.7-6.6-1.8m13.3,3.6-3-.8m9.8,2.7-3-.8m13.3,3.6-6.6-1.8m13.7,3.7-3.3-.9m13.7,3.7-6.6-1.8m13.4,3.7-3-.8m9.7,2.6-3-.8m13.4,3.6-6.6-1.8m13.7,3.8-3.3-.9m13.7,3.7-6.6-1.8m13.3,3.6-3-.8m9.8,2.7-3-.9m13.4,3.7-6.6-1.8m13.7,3.7-3.4-.9m13.7,3.7-6.6-1.8m13.4,3.7-3-.8m9.8,2.6-3-.8m15.1,4.1-8.4-2.3m11.1-.5L32.4,106.3m331.2,89.8-331.1-90m51-4.6.1.1m-.3-9.7.1.2m.3-1.2h.1m228.3,67.7H312m.2.1-.1-.1m0,.3H312v-.1m-.5,4.7L83.6,101.6M308.8,152,83.8,90.9m224.8,62.4L83.4,92.1m225.5,60h-.1V152m0,1.2-.2.1m3,10.1-.1.1M24,61.2l337,91.6M19,70.5l337,91.6M19.1,70.2l337,91.6M23.9,61.3H24m-5,9.1v-.1m0,0v-.1m342.1,82.7-.1-.1m-4.8,9.1-.1-.1m-.1.2h.2M194.4,136h0m1.4.4h0m-.2-.1h0m.1,0h0m0,.1h.1m-.4-.2h.1m1.4.5h0m-1.7-.8h0m1.7.8h0m-1.6-1.1h0m3.3,1.6h0m-3.2-1.8h0m3.2,1.8h0m-.1-.1h0m-3.1-1.7h.1m.9.2h0m-1-.3h0m.2-.6h0m-.3-.7v-.1m.7.2h0m.1.1h0m2,2.6h.1m9.7,2.9v-.1m1.3.5h.1m-.2-.1h0m.1,0h0m0,.1V140m-.3-.1h0m1.5.4h0m-1.7-.7v-.1m1.7.8h0m-1.6-1h0m3.3,1.6h0m-3.2-1.8V139m3.2,1.8h0m-.1,0h0m-3.1-1.7V139m.9.3h.1m-1-.3h0m.2-.7h0m-.3-.7h0m.7.2h0m.1.1v-.1m2,2.7h0m3.2,1h0m0,0h0m1.6.5h0m-.1-.1h0m.1.1h0m-.1-.1h0m-.3-.2h0m-.6-2h0m.2-.1v-.1m-1.6-.4.1-.1m1.5.5v-.1m0,.1h0m-13.3-2.2h0m.4,1h0m.1-1h0m1.3.5h0m-3-2.1h0m.1.1h0m1,1.5h0m-.9-1.6v-.1m-1.5-.4v-.1m1.4.5v-.1m0,.1h.1m1.8.7h0m0,.1v-.1m.9,1.5h0m-.7-1.6h0m-1.5-.5h.1m1.3.4h0m.1.1v-.1m1.1,2.7h0m.5-1.9h.1m0-.1h0m.3-.1h0m-1.2-.4h0m1.1.3h0m.1.1h0m-17.2-2.4h0m0,0h.1m1.4.5v-.1m-.1,0v-.1m0,.1h.1m-.2-.1h0m.9.3h0m0,0h0m1.8.5h0m-.1-.1h0m0,.1h.1m-.3-.1v-.1m.1.1h0m-2.7-.9h0m-.2-.8h0m-.1-.4h0m-.1-.1h0m-.2-.7h0m0-.1h0m.2,0h0m-1.4-.5h0m1.3.4h.1m0,0h0m.1,1h0m1-.4h0m1.2.1h0m-1.5-.5h0m1.5.4h0m0,.1v-.1m170.3,19.1L24.4,60.4m336.9,91.8L24.3,60.6m10.2,40.8-.3-.1m-.2-.6.5.2m.8-3-.5-.1M33.4,99l.7.1M39,95.9l.3-.5M31.1,80.9l-.3.5M35.7,83l-.3.6m-1.9-1.5.3-.4m1.3,14.1L30.8,81.4m6.1,22.1-.3-.1m4.4-5h-.1v-.2l-.1-.1-.1-.1-.1-.1-.1-.1m-1.4-.4,1.4.4M39,97.4h.1m-.3.2-1.2-.4m2,1.2v-.5l-.1-.1-.1-.1-.1-.1-.1-.1-.1-.1m0,0H39l-.1.1h-.1v.1m.8.8v-.1l-.1-.1-.1-.2-.1-.1-.1-.1-.1-.1-.2-.1h-.1m0,0h0m-1.2-.4,1.2.4m0,0,.1.1.1.1.2.1.1.1.1.1.1.1v.3m-.7-.9-.1.1-.1.1h-.1M36,97v.1m-2.2,4.2-.2.6m4.9-4.1-1.2-.4m.5,5.6-2.2-.5m2.9-4.7.1.1.1.1.1.1.1.1v.1l.1.2v.2l-.1.1m-2-1.5,1.6.5m-.7,5.2-2.2-.7m1.3-5-.6-.2m-.7,5.2-.7-.2m.7.2h.2l.2-.1.1-.1h.2l.1-.2v-.1l.1-.2m-.9.7-.1-.1h-.1v-.1h-.1v-.2l-.1-.1m1.7-4.5.2.1.1.1.1.1.1.1v.6m-.9-.8v-.1h.1l.1-.1h.2m3.8,1.5-1.1-.4m0,0-.1.1m-.6.3h.3l.2-.2.1-.1m-.6.3-1.5-.5m0,0h-.1v.1h-.1m-.9,3v.1h.1v.1h.1m0,0,2.1.7m-2.1-4.8-.7-.2m-.6,4.5-.6-.1m1.9-4.2.1.1h.1l.1.1.2.2V98l.1.1v.2l.1.1m-2,3.4v-1.2l.1-.6.1-.5.1-.5.2-.4.3-.5.2-.3.3-.3m-1.3,4.3.2.1h.2l.1-.1h.2l.1-.1.1-.1.1-.1.1-.1m.9-3-.3.3-.2.3-.1.4-.2.4-.1.5v1.1m368,15.1L41.2,17.8m354,111.1L32,30.2m363.2,95.5L32,27m363.4,98.3L32.1,26.6M56.7,2.3l-.2.1m363.8,98.9v3.6m0-3.6-.1-.2m-36.7,66.8-16-4.3m24.4-33.8L37.4,33.4m354.5,96.1L37.5,33.2m194.6,275-.5.5m0,0-.3-.1m1-.7v.3m7.6,2.8-.3-.1m-.8-.9v-.3m-27.5-7.2-.5.5m0,0h-.3m1-.7v.2m7.5,2.8-.2-.1m-.8-.9v-.2m-27.5-7.3-.5.6m0,0-.3-.1m1-.7v.3m7.5,2.7H198m-.8-1v-.2m183.9,51.7-.7.7M419.1,106V343.9M395.2,129V367.3m-3.1-239.1V366.8m2.7-237.9V367.3m-2.5-.4-.1-.1m2.7.6h-.1m-35,18.9v11.6m-.4-11.6V398m-10.9-14.6V395m.1.1h.1m10.8,2.9v.1m-11.1-14.9.3-.2m11.1,3.3-.3-.4m-.1.4.1-.4m-11-2.5.2-.4m35.8-215.2-.5-.2m-11.3,19.1h-.1m6.3-8.5-7.7-2.1m3.1,8.7-.6-.2m.9-.2-1-.3m-1.9,3.7L35.8,96.5"/>
    <g>
      <path class="cls-5" d="M185.19,185.5A122.08,122.08,0,0,0,203,171.57c2.3-2.22,4.79-5.18,7.52-6.8,1.4-.84,2.9-1.43,4.31-2.24,1.56-.91,2.19-2.52,4.12-2.86a22.13,22.13,0,0,1,3.73.13,27.75,27.75,0,0,0,6.63-.93c2.5-.61,6.94-1.65,8.74-3.6,1-1.1.27-2,1.56-2.47s2.17-1,2.13-2.58c0-2.21.62-2.67,1.61-4.52.81-1.51,1.38-1.47,2.76-2.33,1.53-1,1.58-2.51,1.18-4.07-.45-1.78-2.38-1.65-3.74-2.26-.85-1.17,2.54-4.7-.18-5.92-2.19-1-4.32,2.67-6.33,3.87-1.76,1.06-3,.95-4.87.61-1.72-.32-3.47.61-5.09,1.3-2.11.89-4.38,1.08-6.39,2.31S217,142,215.2,143.34c-3.5,2.6-6.81,5.38-10.25,8.13-9.24,7.38-20,12.4-30.85,17-2.27,1-10.42,4.76-17.47,8.09"/>
      <path class="cls-6" d="M231.34,138a19.36,19.36,0,0,0,8.43.7c1.18-.19,2.59-.3,3.89-.5"/>
      <path class="cls-6" d="M243.62,135.44a12.17,12.17,0,0,1-2,3"/>
      <path class="cls-6" d="M237.09,135a21.82,21.82,0,0,0-3.29-.73c-.61.51.14.9.71,1.36"/>
    </g>
    <g>
      <g>
        <path class="cls-5" d="M76.81,154.93c7.49-5.7,17.62-15.69,22.46-19.67,5-4.16,9.16-7.69,15.57-8a19.5,19.5,0,0,0,4.5-.84c1.53-.46,2-1.48,3.1-2.38,2.24-1.78,4.43-3.46,6.8-5.07,1.38-.94,2.69-1.92,4-3a10,10,0,0,0,2.08-2c.29-.42,0-.84.24-1.2.62-1,1.92-1.42,2-2.79.14-1.82-2-1.82-3.17-2.64-1-.76-2.25-.09-2.87-.26-.4-.11-.52-.59-.06-2.11.15-.53.68-2.79-1.12-2.57-1.42.29-2.9,2.77-3.87,3a41.29,41.29,0,0,1-5.06,1.3c-1.59.17-3.12-.07-4.69.53a30.15,30.15,0,0,0-10.62,6.24c-1.51,1.37-3.21,1.88-5,2.79a46.09,46.09,0,0,0-5.2,3.52c-3.21,2.25-6.27,4.55-9.69,6.5-5.62,3.21-11.62,5.72-17.34,8.93-.67.38-15.35,8.06-21.38,11.24"/>
        <path class="cls-6" d="M131.14,106.3a9.88,9.88,0,0,1-3.89,4.25c-1.87.94-3.15.53-5,.92-.82.18-2.37,3.16-3.09,3.8a10.92,10.92,0,0,1-5.31,2.87"/>
        <path class="cls-6" d="M124.26,117.29c1.3-.86,11-7.79,11.21-4.13"/>
      </g>
      <path class="cls-6" d="M125,113.34A55.57,55.57,0,0,0,131.9,110c.89-.59,3.19-2.29,4.09-2"/>
      <path class="cls-6" d="M118,106.89s4-1.36,4.76-1.78a6.42,6.42,0,0,1,2.1-.49l1.45.39"/>
      <path class="cls-5" d="M129.31,108.94A25.23,25.23,0,0,1,132.5,107"/>
    </g>
    <g>
      <path class="cls-7" d="M153.56,115c-4.82,6.38-7.47,15.81-6.61,22l-5.54-1.71,11.84,16.1,10.92-9.07-7.68-2.37c-.37-6.18,2.24-14.79,6.74-20.75,5-6.67,13.58-9.57,13.58-9.57l-9.67-4.22S158.59,108.3,153.56,115Zm26-14.67-20.91,2L184,110.48Z"/>
      <path class="cls-8" d="M153.56,115c-4.82,6.38-7.47,15.81-6.61,22l-5.54-1.71,11.84,16.1,10.92-9.07-7.68-2.37c-.37-6.18,2.24-14.79,6.74-20.75,5-6.67,13.58-9.57,13.58-9.57l-9.67-4.22S158.59,108.3,153.56,115Zm26-14.67-20.91,2L184,110.48Z"/>
    </g>
  </g>
</svg>
