<svg id="レイヤー_1" data-name="レイヤー 1" xmlns="http://www.w3.org/2000/svg" width="246.84mm" height="138.46mm" viewBox="0 0 699.69 392.49">
  <defs>
    <style>
      .cls-1, .cls-2, .cls-4, .cls-5 {
        fill: none;
      }

      .cls-1, .cls-2, .cls-3, .cls-4 {
        stroke: #000;
        stroke-linecap: round;
        stroke-linejoin: round;
      }

      .cls-1 {
        stroke-width: 0.51px;
      }

      .cls-2 {
        stroke-width: 0.99px;
      }

      .cls-3 {
        fill: #fff;
      }

      .cls-3, .cls-4, .cls-5 {
        stroke-width: 2.16px;
      }

      .cls-5 {
        stroke: #fff;
      }

      .cls-6 {
        fill: #231815;
      }
    </style>
  </defs>
  <path class="cls-1" d="M120,392V295.8M50.8,392V245.1M61.9,392V246.9M61.5,392V246.8m49.2,67.3V294.4m-1.1,20.1V294.3m472.2,53.6L569.4,346M21.9,264.2,9.5,262.3M694.4,392V275.9M626.9,392V302.8M637.6,392V301.2M638,392V301.1m56.1-25.4.2.2m-127.4,9.7L20.1,203.9M567,287.3,17.2,205.2M568.6,319.4l-552-82.5M567,292.3,15.2,209.9M567,292.1,15.3,209.6M567,287.5,17.1,205.3m2.1-11.8h.2m1.1-3.6h.2m34.4-44.1-11-1.6M14.3,188.6.7,186.5m17.5-8.2-13.7-2m43.7-96v59.8M52.6,81v53.1m-.8-53.3v54.5M17,193.4l1.9.3m-.8-4.8,2.3.4M632.5,300.2l.1.1m64-25.9h-.1m-58.3,26.2h-.1m-5.3-.3h0m4.8.3v.1m59-158.3v132m-58.4-106V300.6m-.6-132.2V300.6m-4.8-132.9V300.3m-.2,0,.3.3m63.6-26.2-.3.4m-58.1,25.8-.3.3m-.2-.2.1.3m-4.9-.7.1.3M58.8,200.6l501.1,74.9M23.3,193.4v.1m34.3,3-26.5-4m0,0,25.5-8.8m0,0,26.5,3.9m0,0-25.5,8.9m-.6,2h0m.6-.1v.1m-34.5-5.2h0m34.8,5.5,31.4-10.9m-7.9,3.4-23.1,8m32.3-11.2-3.9,1.4m-28.8,9.3-36.3-5.4m35.5,7L20.9,195m36.9,5.4-.3,9m-.6-.1.2-8.9m0,0h.7m.5-1.1-.1.1-.1.1-.1.1-.1.1v.2l-.1.1v.4m.1-1.6H58v.1h.1l.1.1v.1l.1.1v.1m-1.2,1.1.1-.3v-.2l.1-.3.1-.2.1-.2.1-.2.1-.1.2-.1m504,75.3h-.1m-.6,1.6H561v-.1h-.1m6.1-3.3-5.1,1.8m-.7,1.6-.4,8.9m6.2-9.7-5.1-.8m0,0-.1.1-.1.1-.2.2-.1.2-.1.2v.3l-.1.2v.3m5.8.9-5.8-.9M49.5,244h-.1l-.1-.1m1.9,1.3h0v.1h.1m35,5.1.1.1h.1m1.3-1.1v.7m0-.7.7-1.3m-2.2,2.3H87l.1-.1.1-.1v-.5m-38.5-7.6.8,1.9m0,0,.1.2.2.2.2.2.2.2.2.1.3.1.2.1.3.1m0,0,35.1,5.2m.9-.7-.9-1.9m1.5,1.6h-.1v.1l-.1.1h-.2l-.1.1h-.1m-.1-1.8.7,1.5m503-13L39.3,154m547.8,92.6L35.6,164.2m552.7,76.7L36.7,158.5m551.6,82.4L36.8,158.5m.3,20.3,536.3,80.1m3.8-3.1L37.3,175.2m0-.2,540,80.7m7.4-5.9L37.7,168m-.5-2.2,548.6,82M36.9,167.4l548.3,82m.6-1.5L37.1,166m548.6,83-.1-.1M32.9,175.7l.1.3.2.2.1.1m604.7-15L45.5,72.8m592.3,95.3L45.2,79.5m592.6,82.4L45.2,73.4m0,0v-.1m0,6.1h0m593,88.8-.2.1m.2-6.7-.2-.2m.1.5h-.3m.3,6.1h-.3m-5.4,2L56.3,83.9M618,217.9,68,135.7m564.4,36.5L53.6,85.7m578.8,86.1L53.7,85.3m578.7,86.9L53.6,85.7m578.8,86.2L53.7,85.4m263.2,68.5h0m.1,0h0m2.4.4h0m.2.3h0m-.1-.3h0m.1.2v-.1m-.5-.6v-.1m0-2.5h0m1.8,3.3h0m.1,0h0m-1.8-4.5h0m-.1-.2h0m0-2.1h0m0-.2v-.1m-2.2-.9h0m2.7.7h0m-.1-.3h0m.1.2V147m4.2,7.8h0m.2.2h0m.2.3h0m-.1-.3h0m.1.1h0m-3.6-5h0m2.2-1.8h0m-1.8-1.2h0m2.9.7h0m-.2-.2.1-.1m.1.2h0m19.7,7.6h.1m-1.5-4.3h0m-2.4-1h.1m2.7.6h0m-.1-.2v-.1m.1.2h0m1.3,7.7h0m.8-3.3h.1m-2.5-3.6h0m1.2,3.9h0m3.5.6h.1m-1.2-4.2h0m-2.2-1.1h0m2.6.7h.1m-.2-.3h.1m0,.2.1-.1m-.5.7h.1m.9,4h0m.1,3h0m2.2-6.3h.1m.1-.2v-.1m-1.6-.9v-.1m2.2.6h0m-.1-.2h0m.1.1h0m16.3,9.7h0m0,0h0m2.9.7h0m-.2-.3h.1m0,0h0m.1.2v-.1m-.6-.7V161m0-5.8h0m.1-.4h0m-2.4-.9h0m2.9.7h0m-.1-.3h0m.1.2h0m-15.7,4.9h0m2.3.3h0m.2.3h0m-.5-.4h0m.4.2v-.1m.1.2h0m-.8-1.3h0m.3-.9h0m.4-.8h.1m2.1,3.2h0m.1,0h0m-2.2-3.2h0m1.7.3v-.1m-1.8-.4h0m.8-2.2h0m4.5,6.3h0m-.1-.3h0m.1.2h0m-4.6-8.2v-.1m1.2.3.1-.1m.1.2h0m2.5,7.1h.1m-32-4.2h0m2.2.3h.1m.2.3h0m-.6-.4.1-.1m.3.2h.1m.1.2h0m-.8-1.3h0m.3-.9h0m.4-.8h0m2.2,3.2h0m0,0h.1m-2.3-3.2h.1m1.6.2h.1m-1.9-.4h.1m.7-2.2h.1m4.5,6.3h0m-.1-.3h0m.1.1h0m-4.7-8.2h0m1.3.2h0m.1.1h.1m2.5,7.2v-.1M293.4,99.6h0m-2.5.3v-.1m6,.1.1-.1m25.9,4v-.1m53.5,8.4V112m-2.4.3v-.1m6,.1v-.1m26,4v-.1m-15.6-3.4,125.5,18.8M313.6,101.3,385.3,112M195,83.5l113.4,17M184.8,84.7l320.9,47.9M183.9,91.4l320.8,48M184.5,85.1l320.8,48M183.8,91.4h.1m.6-6.3h0M293.3,99.9l.1-.3m-2.5.4v-.1m6,.2v-.2m26,4.1v-.2m53.5,8.5v-.2m-2.4.4v-.2m6,.2v-.2m26,4.1v-.2m109.9,18.7.1-.2m-11,5,.2-.1m10.8-7.8-.1-.2m-10.1,1.3-.2-.2m0,.4h-.2m-.4,6.2-.2.1M296.3,100.3H296l-.3-.1h-1.5m2.2-.1h-.1v.2m5.3.8-5.3-.8m0,0-.1.6m5.6,0h-.1v.1h-.1v.1m1.1.2h-.1l-.2-.1h-.5l-.1-.1h-.2m0,0v.6M294,99.9h.1v.1h.1v.2m0,0v.4m0-.4h-1.1l-.3.1h-.5m-.7-.1h.2v.1m11.1.8h-.2v.2m7.4,1.4-.1-.1-1.3-.2-1.3-.2-1.2-.2-1.2-.3-1.2-.2-1.1-.2m0,0-.1.6m13.8,1.7-.6-.1m.2.2,1.5-.2m-6.2-.5,4.7.7m-14.2-2.8-5.4-.8m21.1,3.4-2-.3m-24.2-3.1h0m32.6,4.1h-.1l-.2-.1h-.2l-.3-.1h-.3m-13.2-2-13-1.9m26.2,3.9-7.7-1.2M302.5,91.5h0v-.1m.2.3-.2-.2m0,0,.1.1.1.1m-.1-.2v.1l.1.1m.4-.6h.2l.1.1m-.9.2h0v.1h.1m1.3-.3h-.5m0,0,3.9,4.2,4.1,4.4,3.6,3.7M303,91.4v-.1h.1l.1-.1h.2m78.3,22.3h.5m0,0h.5m16.2,2.2h.5l.2.1h.6m-1.2-.4h0v.2l-.1.1m0,0v.6m-10.9-2h.2l1.5.2,1.5.2,1.5.2,1.6.2,1.5.2,1.6.2,1.5.2m1.4-.1h0l-.1.1v.1m0,0-.1.6m.1-.6,5.3.8m0,0v.2m.2-.4h-.1v.1h-.1v.1m0,0,.3.1h.2l.1.1m-25.5-3.4,1.5-.2m0,0,.9.1m17.3,2.3,5.4.8m0,0,.5.1.3.1.1.1h-.1m-21.2-2.6-4.7-.7m25.2,3h.4l.2.1h.3l.1.1h.1m-18.1-2.8,17,2.6m-26.2-3.9,3.9.5m-9.2-.4.1-.1m25.2-6.9-.4.1m0,0h.4m-1,.1-.1.1-.1.1m0,0,.2-.1m.6-.2h0m0,0h0m-.6.2h-.1l-.1.1m.8-.3-.1-.2-.2-.1h-.2m.5.3h-.3l-.1.1h-.2m.4.7.2-.2.1-.2v-.2l-.1-.2m-.6.2.1-.1h.2l.3-.1m-1.1-.1h0v-.1h.1m.8,1,.5-.1m-12.2,8,1.9-1.3,4.8-3.2,5-3.4m-.4-.1h0v.1h.4m299.3,35-.2.2m.2-.2v-6.9m0,0-.2-.2M209,6.2h0m6-5.5.2-.2m37.9,2.9.1-.1M490.4,38.7l2.5.6m-2.7-.4.2-.2m37,8.5-.1.2m6.6,7.7-2.5-.7m0,0h-.3m79.4,174.4,13.7,2.1m-53.3,30,13.7,2m-17.5,8.3,13.6,2m-480-19-5.3,2.3m0,0v.1h-.1v.1l-.1.2-.1.2.1.3v.2l.1.2.2.1h.1m15.5-6.5-1.3.6-.5.2-.2.1m.3,0,1.9-.8m-1.4,1.5v-.1l-.1-.1v-.1l-.1-.1v-.1l-.1-.1h-.1l-.1-.1m-.3,0h0l.1.1h.2v-.1m-.5,0h.2m.8.7h-.4l-.2.1-.3-.1h-.3l-.1-.1m4.1-1.2-1.7.7-1.1.6m-1.3,2h0l.1.1h.2l.3.1h.3l.2-.1.3-.1.3-.1.6-.3,1-.4.7-.3.6-.3.7-.3.1-.1"/>
  <path class="cls-2" d="M117.8,392V295.5m-.1,96.5V295.5M64.1,392V247.2M110.7,314v.1m0,0h-.1l-.1.1h-.1l-.1.1-.2.1H110l-.2.1h-.2m0,0h-.3M569.4,346l.5,46m-1.3-71.9-.1.1m24,71.8V318.2m-10.7,29.7.5,44.1M568,320.6l-.1.1m0,0,.3,3,.3,3.1.3,3.2.2,3.1.2,3.2.1,3.2.1,3.3V346m10.9-23.5.3,3.1.3,3.1.3,3.1.2,3.2.2,3.2.1,3.2.1,3.2v3.3m-13.3-27.7h.2m-.2,0-.5.4m1.1.2-1.1-.2M9.5,262.3,10.6,392m22,0V239.7M21.9,264.2,23,392M7.9,237l.3,3.1.3,3.1.3,3.1.2,3.2.2,3.1.1,3.2.1,3.3.1,3.2m10.8-23.4.4,3L21,245l.2,3.2.2,3.1.2,3.2.1,3.2.1,3.2.1,3.3m-5-26.4,3.2.5m.1.5-4.2-.7m4.1.2.7-.3m-.6.8-.1-.5m.2.6-.1-.1m1.8-.7-1.7.8m674,37,.3-.2.2-.2v-.1M638,301.1l56.3-25.2m-56.7,25.3h.3v-.1h.1m-2.5-.3,2.1.4m-5.2-.8h.1m2.7.4,2.4.4m-5.2-.8h.2m5,.8h.4v-.1m0,0,56.4-25.2m0,0,.3-.2.2-.2v-.2m-.6.6.3-.2.2-.2v-.1M638,301.1l56.3-25.2M638,301.1h-.2m0,0v-.2m-2.3-.1,2.1.4m-5.2-.8h.1m5.3.7h-.1v.1h-.1m-621-64.3v.2l.1.1v.1h.1v.1h.1m3.2-33.6h0v.1m0,0-2.9,1.3m0,0h-.1v.1m-1.9,4.6.1,3.4.1,3.4.2,3.4.1,3.4.2,3.4.2,3.3.2,3.4.3,3.3m-1.3-27.3v.1h-.1v.2m1.9-4.6-1.8,4.3m0,.3.1,3.4.1,3.4.1,3.4.2,3.4.1,3.3.3,3.4.2,3.3.2,3.3M52.5,134l-1,1.6-1.1,1.8L49.2,139,48,140.5l-1.3,1.3-1.3,1.3-1.3,1.1m22.6-10.4-12.9-1.9M3,236.3l-.7-.4m13.6,2.3L3,236.3m12.9,1.9V238m1.6-.5-1.6.7m1.6-.7h0m26.6-93.3L4.5,176.3M.7,186.5l-.1,6.4-.1,6.3.1,6.2.2,6.2.2,6.2.3,6.1.5,6.1.5,5.9m0,0h0m0,0L15.9,238m0,0h0M4.5,176.3l-.6.6-.6.7-.5.8-.5,1-.5,1.1-.4,1.1-.3,1.2L.9,184l-.2,1.3v1.2m20,3.4L36.9,177M19.4,193.5V193l.1-.6.1-.5.1-.5.2-.5.3-.4.2-.3.3-.3m-1.3,14.3V193.5m-2.5,12.2v-11m0,0,.1-1.3.1-1.2.2-1.3.4-1.1.4-1.1.4-1.1.6-.8.5-.8.7-.6m0,0,18.9-15.1M14.3,188.6l-.1,6.3v12.6l.2,6.2.3,6.1L15,226l.4,6,.5,6m0,0,1.3-.6M71.6,136.5l-.2.7-.1.3m-4.1-3.3-.9,1.6-1.1,1.9L64,139.4,62.8,141l-1.2,1.5m-26,21.7L18.2,178.3m0,0-.6.6-.6.7-.6.9-.5.9-.4,1.1-.4,1.1-.3,1.2-.3,1.3-.1,1.2-.1,1.3m3,16.5L17,205m3.4-15.7L36,176.9M18.9,193.7V193l.1-.7.1-.6.2-.6.2-.6.3-.4.3-.5.3-.3m-1.5,4.4v10.7M17,194.5v11m0-11v-1.2l.2-1.1.2-1.1.3-1.1.4-1.1.4-.9.5-.8.5-.7.6-.6m0,0L39,170.8m33.4-33.9v-.1l.1-.2m.2,0-.1.2M696.5,274.4l.4-.2.1-.1m-.4.3.4-.3.2-.2v-.2m-64.6,26.8-.1-.2m.1.2h.1m5.4.1,58.4-26.2m-58.9,26.3h.4v-.1h.1m-5.3-.3.6.1.6.1h1.2l.6.1h.6l.6.1h.6m-4.9-.2-.1-.1m0-.1h.2m-.2.1-.1-.1h.1m-.1,0h-.1v-.1h.1m0,0h0l.1.1h.2m5.4.3,58.4-26.2m-59,26.2h.6m-5.4-.3h.6l.6.1h.6l.6.1h.6l.6.1h1.2m58.6-25.8.3-.2.1-.1m.4-.4-.1.1-.4.2m-63.9,26,.1.1m0,0,.2.1m0,0h0m4.9.3,58.4-26.1M637.7,301h.1v-.1m-4.9-.3.6.1h.6l.6.1h.6l.6.1h1.2l.6.1m-4.9-.7h-.2m0,0h-.1l.1.1m63.9-26-58.4,26.2m0,0H638v.1h-.4m0,0H637l-.6-.1h-.6l-.6-.1H634l-.6-.1-.6-.1M91,188.2,81.5,191m-2.1,6v.2m2.1-6.2-2.1,6m4.6.7-4.6-.7m6.7-5.3-4.6-.7m14.1-2.2-9.5,2.9m0,0-2.1,6m0,0v.2m24-7.2-9.6,2.9m-2,5.9v.3m2-6.2-2,5.9m4.6.7-4.6-.7m6.6-5.2-4.6-.7m14.2-2.2-9.6,2.9m0,0-2,5.9m0,0v.3m18.6-8.1-9.6,2.9m-2,6-.1.2m2.1-6.2-2,6m4.5.7-4.5-.7m6.6-5.3-4.6-.7m14.1-2.2-9.5,2.9m0,0-2.1,6m0,0v.2m24-7.2-9.6,2.8m-2,6v.2m2-6.2-2,6m4.6.7-4.6-.7m6.6-5.3-4.6-.7m14.2-2.2-9.6,2.9m0,0-2,6m0,0v.2m18-8.1-9.5,2.9m-2.1,6v.2m2.1-6.2-2.1,6m4.6.6-4.6-.6m6.7-5.3-4.6-.7m14.1-2.2-9.5,2.9m0,0-2.1,5.9m0,0v.3m18.1-8.2-9.6,2.9m-2,6-.1.2m2.1-6.2-2,6m4.5.7-4.5-.7m6.6-5.3-4.6-.7m14.1-2.2-9.5,2.9m0,0-2.1,6m0,0v.2m24-7.2-9.6,2.9m-2,5.9v.3m2-6.2-2,5.9m4.6.7-4.6-.7m6.6-5.2-4.6-.7m14.2-2.2-9.6,2.9m0,0-2,5.9m0,0v.3m18.6-8.1-9.6,2.9m-2,6v.2m2-6.2-2,6m4.6.6-4.6-.6m6.6-5.3-4.6-.7m14.2-2.2-9.6,2.9m0,0-2,5.9m0,0-.1.3m24-7.3-9.5,2.9m-2.1,6v.2m2.1-6.2-2.1,6m4.6.7-4.6-.7m6.6-5.3-4.5-.7m14.1-2.2-9.6,2.9m0,0-2,6m0,0v.2m18-8.1-9.5,2.9m-2.1,5.9v.3m2.1-6.2-2.1,5.9m4.6.7-4.6-.7m6.7-5.2-4.6-.7m14.1-2.2-9.5,2.9m0,0-2.1,5.9m0,0v.3m18.1-8.2-9.6,2.9m-2,6v.2m2-6.2-2,6m4.5.7-4.5-.7m6.6-5.3-4.6-.7m14.1-2.2-9.5,2.9m0,0-2.1,6m0,0v.2m24-7.2-9.6,2.9m-2,5.9v.3m2-6.2-2,5.9m4.6.7-4.6-.7m6.6-5.3-4.6-.6m14.2-2.2-9.6,2.8m0,0-2,6m0,0v.2m18.6-8-9.6,2.9m-2,5.9v.3m2-6.2-2,5.9m4.6.7-4.6-.7m6.6-5.2-4.6-.7m14.2-2.2-9.6,2.9m0,0-2,5.9m0,0-.1.3m24-7.3L262,218m-2.1,6v.2M262,218l-2.1,6m4.6.7-4.6-.7m6.6-5.3L262,218m14.1-2.2-9.6,2.9m0,0-2,6m0,0v.2m18.1-8.1-9.6,2.9m-2,5.9-.1.3m2.1-6.2-2,5.9m4.5.7-4.5-.7m6.6-5.2-4.6-.7m14.1-2.2-9.5,2.9m0,0-2.1,5.9m0,0v.2m18.1-8.1-9.6,2.9m-2,6v.2m2-6.2-2,6m4.6.7-4.6-.7m6.6-5.3-4.6-.7m14.2-2.2-9.6,2.9m0,0-2,6m0,0-.1.2m24-7.2-9.5,2.8m-2.1,6v.2m2.1-6.2-2.1,6m4.6.7-4.6-.7m6.6-5.3-4.5-.7m14.1-2.2-9.6,2.9m0,0-2,6m0,0v.2m18.6-8-9.6,2.9m-2,5.9v.3m2-6.2-2,5.9m4.6.7-4.6-.7m6.6-5.2-4.6-.7m14.2-2.2-9.6,2.9m0,0-2,5.9m0,0v.3m23.9-7.3-9.5,2.9m-2.1,6v.2m2.1-6.2-2.1,6m4.6.7-4.6-.7m6.7-5.3-4.6-.7m14.1-2.2-9.5,2.9m0,0-2.1,6m0,0v.2m18.1-8.1-9.6,2.9m-2,5.9-.1.3m2.1-6.2-2,5.9m4.5.7-4.5-.7m6.6-5.3-4.6-.6m14.1-2.3-9.5,2.9m0,0-2.1,6m0,0v.2m18.1-8.1-9.6,2.9m-2,6v.2m2-6.2-2,6m4.6.6-4.6-.6m6.6-5.3-4.6-.7m14.2-2.2-9.6,2.9m0,0-2,5.9m0,0v.3M378,231l-9.6,2.9m-2,6v.2m2-6.2-2,6m4.6.7-4.6-.7m6.6-5.3-4.6-.7m14.2-2.2-9.6,2.9m0,0-2,6m0,0v.2m18.6-8-9.6,2.9m-2,5.9-.1.3m2.1-6.2-2,5.9m4.5.7-4.5-.7m6.6-5.3-4.6-.6m14.1-2.3-9.5,2.9m0,0-2.1,6m0,0v.2m24-7.2-9.6,2.9m-2,6v.2m2-6.2-2,6m4.6.6-4.6-.6m6.6-5.3-4.6-.7m14.2-2.2-9.6,2.9m0,0-2,5.9m0,0v.3m18-8.2-9.5,2.9m-2.1,6v.2m2.1-6.2-2.1,6m4.6.7-4.6-.7m6.7-5.3-4.6-.7m14.1-2.2-9.5,2.9m0,0-2.1,6m0,0v.2m18.1-8.1-9.6,2.9m-2,5.9-.1.3m2.1-6.2-2,5.9m4.5.7-4.5-.7m6.6-5.2-4.6-.7m14.1-2.2-9.5,2.9m0,0-2.1,5.9m0,0v.3m24-7.3-9.6,2.9m-2,6v.2m2-6.2-2,6m4.6.7-4.6-.7m6.6-5.3-4.6-.7m14.2-2.2-9.6,2.9m0,0-2,6m0,0v.2m18.6-8-9.6,2.8m-2,6v.2m2-6.2-2,6m4.5.7-4.5-.7m6.6-5.3-4.6-.7m14.1-2.2-9.5,2.9m0,0-2.1,6m0,0v.2m24-7.2-9.5,2.9m-2.1,5.9v.3m2.1-6.2-2.1,5.9m4.6.7-4.6-.7M469,249l-4.5-.7m14.1-2.2L469,249m0,0-2,5.9m0,0v.3m18-8.2-9.5,2.9m-2.1,6v.2m2.1-6.2-2.1,6m4.6.7-4.6-.7m6.7-5.3-4.6-.7m14.1-2.2-9.5,2.9m0,0-2.1,6m0,0v.2m18.1-8.1-9.6,2.9m-2,5.9-.1.3m2.1-6.2-2,5.9m4.5.7-4.5-.7m6.6-5.2-4.6-.7m14.1-2.2-9.5,2.9m0,0-2.1,5.9m0,0v.3m24-7.3-9.6,2.9m-2,6v.2m2-6.2-2,6m4.6.7-4.6-.7m6.6-5.3-4.6-.7m14.2-2.2-9.6,2.9m0,0-2,6m0,0v.2m18.6-8.1-9.6,2.9m-2,6v.2m2-6.2-2,6m4.6.7-4.6-.7m6.6-5.3-4.6-.7m14.2-2.2-9.6,2.9m0,0-2,6m0,0-.1.2m24-7.2-9.5,2.9m-2.1,5.9v.3m2.1-6.2-2.1,5.9m4.6.7-4.6-.7m6.6-5.3-4.5-.6m14.1-2.2-9.6,2.8m0,0-2,6m0,0v.2m18-8.1L543,260m-2.1,6v.2M543,260l-2.1,6m4.6.7-4.6-.7m6.7-5.3L543,260m14.1-2.2-9.5,2.9m0,0-2.1,6m0,0v.2m18.1-8.1-9.6,2.9m-2,5.9v.3m2-6.2-2,5.9m4.6.7-4.6-.7m6.6-5.3-4.6-.6m14.2-2.2-9.6,2.8m0,0-2,6m0,0-.1.2M81,192.5l-22,7.6m46.8-9.7L84,197.9m0,0-4.6-.7m29.8.4-8.2,2.9m0,0-4.6-.7m37.9-5.2-21.8,7.6m0,0-4.6-.7m29.2.6-7.6,2.6m0,0-4.6-.7m23.2-.3-7.6,2.7m0,0-4.6-.7m37.4-5.2L151.5,208m0,0-4.6-.7m29.8.4-8.2,2.9m0,0-4.6-.7m37.9-5.2L180,212.3m0,0-4.5-.7m29.1.6-7.6,2.6m0,0-4.6-.7m48.4-3.6L219,218.1m0,0-4.5-.7m1.1-3.6-7.6,2.7m0,0-4.6-.7m40.8,2-8.2,2.8m0,0-4.6-.6m37.9-5.2-21.8,7.6m0,0-4.5-.7m29.1.6-7.6,2.6m0,0-4.6-.7m23.2-.3-7.6,2.6m0,0-4.6-.6m37.4-5.3-21.8,7.6m0,0-4.5-.7m29.7.4-8.2,2.8m0,0-4.6-.7m37.9-5.1-21.7,7.6m0,0-4.6-.7m29.1.5L332,235m0,0-4.6-.7m23.2-.3-7.6,2.6m0,0-4.6-.6m37.4-5.3-21.7,7.6m0,0-4.6-.7m29.7.3-8.2,2.9m0,0-4.6-.7m37.9-5.1-21.8,7.5m0,0-4.6-.6m29.2.5-7.6,2.7m0,0-4.6-.7m23.2-.3-7.6,2.6m0,0-4.6-.7m37.4-5.2-21.8,7.6m0,0-4.6-.7m29.8.3-8.2,2.9m0,0-4.6-.7m37.9-5.1L450,252.6m0,0-4.5-.7m29.1.6-7.6,2.7m0,0-4.6-.7m23.2-.3-7.6,2.6m0,0-4.6-.7m37.4-5.2L489,258.5m0,0-4.6-.7m29.8.3L506,261m0,0-4.6-.7m37.9-5.2-21.8,7.6m0,0L513,262m29.1.6-7.6,2.6m0,0-4.6-.6m23.2-.3-7.6,2.6m0,0-4.6-.7m27.6-1.8-12,4.1m0,0-4.5-.6M59.1,201.1l-.2,8.5m-.1-8.5L559.9,276M58.8,200.9v.2m0-.2,501.1,74.8M58.8,200.6v.3m.2-.8L560.1,275M59,200.1h0v.1h-.1v.2h-.1v.2m502.5,74-1.2.4m0,0H560v.1l-.1.1v.3m0,0v.2m0,0h0m0,0v.3m0,0,.3-.2m0,0-.2,8.7M53.9,182.6,23.2,193.3m0,0h-.1v.1h.2m0,0L57,198.5m.6-.1,30.8-10.6M57,198.5h.5l.1-.1M53,182.5,21.6,193.4m32.3-10.8L23.1,193.3m34.6,5.2,30.7-10.7M56.9,198.5h.8m-34.4-5,33.6,5m-33.8-5.2h0v.1h.1l.1.1M20.9,195l-.4,8.9m38.4,5.7h-.1M21.6,193.4l-.1.1-.1.1-.2.2-.1.2-.1.2v.2l-.1.3v.3m48.8,50.3h.1m-3.9-.6.2.3.3.4.5.3.5.1.4.1h.4l.3-.2v-.6m0,0,.1.2.1.3-.1.3-.2.2-.4.1h-.4l-.5-.1-.5-.2-.5-.3-.3-.4-.3-.4v-.2m-.6-.1v.2l.3.5.4.4.5.4.5.3.6.2.6.2h.5l.4-.1.4-.2.2-.3v-.3l-.1-.4m0,0-.1-.2m1.6.5H69.5m1.2-.3v.3m0,0,.1-.2m-1.1-.2h.2m-.4.4h.4l.3-.1.2-.1.2-.1M569.6,363,66.5,287.8m560.1,83.7-34.1-5.1m-526.7-79,.7.4m560.1,83.7.1-.3m0,.2-.1.1M65.4,247.4v39.5m0,0,.4.5m526.7,78.7,34.2,5.1M65.8,287.4l503.8,75.3M72.9,136.7,39.3,154m-3.7,10.2-.1.3v.5l.1.2.1.1.1.1h.1M39.3,154l-.4.3-.4.3-.4.5-.3.5-.4.7-.2.6-.3.8-.2.8m0,0-1.1,5.7m551.7,83.5h-.1v-.2l-.1-.2v-.6m0,0,1.2-5.8m0,0,.2-.8.2-.7.3-.7.3-.6.4-.5.3-.5.4-.4.4-.2m0,0,24.6-12.7m-24.6,12.6,24.7-12.7m-27.2,17.2.2-.8.2-.7.3-.7.3-.7.3-.5.4-.5.4-.3.4-.3m-3.7,10.2,1.2-5.7m-1.1,6.8-.1-.1v-.2l-.1-.2.1-.3v-.3M39.3,154.1l-.4.2-.4.4-.4.4-.3.6-.3.6-.3.7-.2.7-.2.8m0,0-1.2,5.7m560.6,76.2v-1.1m0,0,4-2.1m15.2-13.4-24.6,12.7m0,0-.4.2-.4.4-.3.5-.4.5-.3.6-.3.7-.2.7-.2.8m0,0-1.2,5.8m0,0v.6l.1.2v.2h.1M37.8,179.1h0l-.4-.1-.2-.1-.1-.1m.2-3.6-.4,2.8m.2.8v-.1l-.1-.1v-.3l-.1-.1V178m.4-2.8h0V175m2.5-6.6-.1.5-.4,1.3-.5,1.3-.5,1.2-.5,1.2-.5,1.1m.4-7h-.1m-.5-2v-.1l.1-.1m-.3,1.6.1.2.2.2.4.2h.1m-.2-2.3-.3.1m548.4,83.1-.1.1v.1M37.1,166l-.2.9m0,.5h0v-.5m549.3,80.8-.4.1m0,0h0v.1m0,0-.2,1m.4-.2.1-.2m0,0v-.1m0,0,.8-.5M37,178.4l-.2,1.6M572,260,36.8,180m-3.6-4.5v.2l.1.3.2.3m.3.2h-.1l-.2-.1-.1-.3-.1-.5v-.2M45.2,79.5l.1.1v.2l.1.1M194.9,77,76,59.3m592.1,88.4L523.3,126.1M75.6,59.3H76m-.4,0L45.5,72.8m622.6,74.9.1.1M45.5,72.8h0l-.1.1-.1.1v.3l-.1.1m0,0v6.1m623,68.3v.1m0-.1L638,161.3m0,0v.1h-.1v.2h-.1v.3m0,0-.1.8v4.6l.1.8m0,0v.2l.1.1h.1m0,0,5.7-2.5m0-.1v.1m-5.7,2.4,5.7-2.5m-5.9,2.2v.2l.1.1.1.1v-.1m-.2-6.4v.8l-.1.8v3l.1.8v.7m.2-6.6h0v.1h-.1v.2l-.1.1v.1m30.4-14L638,161.4M45.2,79.5h0v-.1m0-6.1h0v-.1h.1v-.1m-.1,6.3v-.7l-.1-.8v-3l.1-.8v-.8m623,81.5L638,168.3m30.2-13.6v.1M638,168.3v.1l-.1-.1-.1-.1V168m30.4-20.1v.3M638,161.4l30.2-13.5M638.1,168v.2h.1m0,0,30-13.5m0,0v-6.5m0,0-30,13.4m-.4.3v-.1l.1-.1v-.2h.1v-.1m.2.2h0v.1h-.1v.2m-.3,6.1v-.7l-.1-.8v-3l.1-.8v-.8m.3,0-.1.8v4.6l.1.7M68.2,136h0l-.1-.1-.1-.1v-.1m551.3,80.7-.3.2-.3.2-.3.3-.2.4-.1.4m1.5-.4-1.5.6m0,0,1.6-.7m-1.6.5v.2m-.1-.2v.2h.1M56.4,83.9h-.1m0,0-2.6,1.4m12,48.1-12.1-1.8M68,135.7l-.1-.4-.2-.4-.3-.4-.3-.3-.3-.3-.4-.3-.3-.1-.4-.1m554.7,82.9h-.8l-.3.1-.4.2-.3.3-.2.3-.2.3-.2.4m14.4.2-12-1.8M53.6,85.7v45.9m.1-46.3h0v.1h-.1v.3M619.7,217.4l-1.6.7m0,0h0v-.2M56.3,84l-2.6,1.4m-.1.3v45.9m0,0,12.1,1.8m0,0,.4.1.4.1.3.3.4.2.3.4.2.4.2.4.2.4m550,82.2.1-.4.2-.4.3-.3.3-.2.3-.2M53.7,85.4h0l-.1.1v.2M317,153.9h-.1m.3,0H317m2.5.4h-.1m0,0h-.1l-.1-.1v-.1l-.1-.1m0,0h0m.5.6v-.2m-.5-.7v-2.5m0,0h0v-.1m0,0h0m1.9,3.4h-.1m.2,0H321m-1.8-4.5h0m-.1-.2v-2.1m1.5,2.5h0m0,0h0m-1.5-2.8.1-.1h.1m.2-.4-2.6-.4m2.7.7V147m4.5,8H324m.2.3v-.2m-.5-.4-3.1-4.5m0,.1v-.1m3.1,4.5h0m-3.1-4.6,2.2-1.8m.5-.3.2-.1m-.7.4.4-.2m.6-.6-2.8-.4m2.9.7v-.1m-3-.3h0v.1h.1m0,0h.2m0,0,.1.1.1.1m0,0,.1.2v.2l-.1.1m0,0-2.1,1.8m0,0h-.1m0,0h-.1v-.2m0,0v-2.1m0,0v-.2m0,0,.1-.1v-.1h.2m0,0h.1m0,0h.1v-.1m0,0v-.1m0,0V147l-.1-.1m0,0-2.6-.4m0,0h0l-.1.1m0,0v.2m0,0h0v.1h.1m0,0h.1m0,0,.1.1h.1v.1l.1.1m0,0v.3m0,0v6m0,0v.3m0,0-.1.1H317m0,0h-.1m0,0h0l-.1.1m0,0v.2m0,0h0v.1h.1m0,0,2.6.4m0,0h0l.1-.1m0,0v-.1m0,0v-.1l-.1-.1m0,0h-.1m0,0h-.1l-.1-.1v-.1l-.1-.1m0,0v-.2m0,0v-2.6m0,0h0v-.1m0,0h.1l.1.1m0,0,1.8,2.7m0,0,.1.2v.2m0,0v.1l-.1.1H321m0,0h-.1m0,0h0l-.1.1m0,0v.2m0,0h0v.1h.1m0,0,3.2.5m0,0h0l.1-.1m0,0v-.2m0,0h0V155h-.1m0,0H324m0,0-.1-.1-.1-.1m0,0h-.1v-.1m0,0-3.1-4.4m0,0h0v-.1m0,0h-.1v-.1h.1m0,0,2.2-1.8m0,0,.3-.2.3-.2m0,0h.3m0,0h0m0,0h.2v-.1m0,0v-.1m0,0-.1-.1h-.1m0,0-2.7-.5m0,0v.1h-.1v.1m0,0v.1m21.3,3.6.1-.1v-.1m.3-.1h0v-.1m-.1-.3-2.6-.3m2.7.6v-.1m1.3,7.7.9-3.3m0,0v-.1m-1.3.4-1.2-3.9m3.6.3v-.1l.1-.1v-.1m.3,0v-.1h.1m-.1-.3-2.6-.4m2.7.7V151m.5,4.7-.9-4m1,7,2.3-6.3m.1-.3.2-.2m.4-.1h0v-.1m-.1-.2-2.1-.4m2.2.6v-.1m-7.8-.6v-.1l.1-.1.1-.1m0,0h.1m0,0h0m0,0h.1v-.1m0,0v-.1m0,0v-.1h-.1m0,0-2.7-.4m0,0h-.1v.1m0,0v.1m0,0h0l.1.1m0,0h.1m0,0,.1.1h.1m0,0,.1.2v.1m0,0,.1.2.1.2m0,0,2.2,6.9m0,0v.1h.1l.1.1m0,0,.9.1m0,0h.1l.1-.1m0,0,.8-3.3m0,0h0l.1-.1m0,0h.1v.1m0,0,.9,3.6m0,0v.1h.1m0,0,1,.2m0,0h0l.1-.1m0,0,2.2-6.3m0,0,.1-.1.1-.1m0,0,.2-.3.2-.1m0,0h.1m0,0h0m0,0h.1v-.1m0,0v-.1m0,0h0v-.1h-.1m0,0-2.1-.3m0,0h-.1v.1m0,0v.1m0,0h0v.1h.1m0,0,.2.1h.1m0,0,.1.1.1.2v.2m0,0h0m0,0v.3l-.1.2m0,0-1.1,3.2m0,0H347m0,0h-.1v-.1m0,0-1-4m0,0v-.1m0,0v-.1l.1-.1v-.1h.1m0,0h.1m0,0h.1v-.1m0,0v-.1m0,0v-.2h-.1m0,0-2.5-.4m0,0h0l-.1.1m0,0v.2m0,0h0v.1h.1m0,0h.1m0,0,.1.1m0,0,.1.1.1.2m0,0v.3m0,0,.3.9m0,0v.2m0,0-.7,2.5m0,0v.1h-.1m0,0h-.1v-.1m0,0-1.2-3.9m0,0-.1-.2V151m24.1,10.3h0m0,0h0m.2,0h-.2m2.4.2-.1-.3V161m.5,1.1.1-.1m-.1-.3h0m.1.3v-.2m-.1-.1H369l-.1-.1-.2-.1m0,0h0m-.1-.5v-5.8m0,0,.1-.3v-.1m0,0,.2-.1m.2-.4-2.8-.4m2.9.7v-.1m-.1.2h0l.1-.1m0,0v-.1m0,0v-.1h-.1v-.1m0,0-2.8-.4m0,0h-.1v.1m0,0v.1m0,0v.2h.1m0,0h0m0,0,.2.1.1.1m0,0,.1.2.1.2m0,0v5.9m0,0-.1.2-.1.2m0,0-.1.1h-.2m0,0h0m0,0h-.1v.1m0,0v.1m0,0v.2h.1m0,0,2.8.4m0,0h0l.1-.1m0,0v-.1m0,0v-.1h-.1v-.1m0,0H369m0,0h-.1l-.1-.1-.1-.1m0,0-.1-.2v-.2m0,0v-5.9m0,0v-.3l.1-.1m0,0,.2-.1h.1m0,0h.1m-15.6,4.7h0m.2-.1v.1h-.2m2.3.3h-.2l-.1-.1m.5.5h0V160m-.1-.3h-.1m.2.3v-.1m-.5-.3-.2-.3-.1-.3v-.4m0,0,.3-.9m.5-.8h0m2.2,3.2h-.1m.3,0h-.2m-2.2-3.2,1.7.2m-1-2.6-.8,2.2m.8-2.2h0m4.1,5.9-.1-.3-.1-.2m.6.9v-.1m-.1-.2H361l-.2-.1m0,0h0m-2.9-7.8-1.3-.2m4,7.5-2.6-7.1m3.2,7.9v-.2h-.1m0,0h-.2l-.1-.1m0,0-.2-.3-.1-.2m0,0-2.5-7.1m0,0-.1-.1h-.1m0,0-1.2-.2m0,0h-.2m0,0-2.1,6m0,0-.2.4-.2.4m0,0-.2.1h-.2m0,0h-.1v.1m0,0v.1m0,0v.1h.1v.1m0,0,2.4.3m0,0h.1V160m0,0v-.1m0,0v-.1h-.1m0,0-.1-.1m0,0h-.2l-.1-.1m0,0-.2-.3-.1-.2v-.5m0,0,.3-.9m0,0h0l.1-.1h.1m0,0,2.3.4m0,0h.1l.1.1m0,0,.5,1.5m0,0v.3l-.1.1m0,0-.2.1h-.2m0,0h-.1m0,0H358v.1m0,0v.1m0,0v.1h.1v.1m0,0,3,.4m0,0h.1v-.1m0,0v-.1m-3.5-3.5h0v-.1h.1m-1.8-.2,1.7.3m-1.8-.3h.1m-.1-.2v.2m.8-2.4-.8,2.2m.8-2.3v.1m.2,0h-.1v-.1h-.1m1.1,2.6-.9-2.5m.9,2.6V157m-29-1.4h0l-.2.1m2.3.3-.2-.1-.1-.1m.4.6h.1v-.1m-.1-.3h-.1m.2.3v-.1m-.5-.4-.2-.2-.1-.3v-.4m0,0,.3-.9m.4-.8h.1m2.1,3.2h-.1m.2,0h-.1m.3-.1h0l-.2.1m-2.2-3.2,1.7.2m-1-2.6L331,153m.8-2.3v.1m4.1,5.8-.2-.2-.1-.3m.7,1.1v-.1m0,0v-.2m-.1-.1-.2-.1-.1-.1m0,0h0m-3-7.7-1.3-.2m4,7.4-2.5-7.1m3.2,7.9h0v-.1h-.1m0,0-.2-.1-.1-.1m0,0-.2-.2-.1-.2m0,0L333,149m0,0h0l-.1-.1m0,0-1.3-.2m0,0h0l-.1.1m0,0-2.1,6m0,0-.2.4-.3.3m0,0-.2.2h-.1m0,0h-.1v.1m0,0v.1m0,0v.1h.1m0,0,2.3.4m0,0h.1v-.1h.1m0,0v-.1m0,0-.1-.1V156h-.1m0,0h-.1m0,0-.1-.1h-.2m0,0-.2-.3-.1-.3v-.2l.1-.2m0,0,.3-.9m0,0h0l.1-.1m0,0,2.4.4m0,0h.1v.1m0,0,.6,1.4m0,0v.3l-.1.1m0,0-.2.2h-.3m0,0h0m0,0h-.1v.1m0,0v.1m0,0h0v.1h.1m0,0,3,.5m0,0h0l.1-.1m0,0v-.2m-3.6-3.5h.1v-.1m-1.8-.1,1.7.2m-1.7-.2h0m-.1-.2v.1h.1v.1m.7-2.4-.8,2.2m.9-2.3h0l-.1.1m.2,0h0v-.1h-.1m1,2.6-.9-2.5m.9,2.5h0M293.4,99.6h.7l.5.1h.9l.5.1h.5l.4.1m-6,0h.2l.3-.1h.6l.3-.1h.7l.4-.1m-2.6.4h0l.1-.1m23.9,2.7,8.1,1.2m-26-3.9,12.5,1.8m13.5,2.1h.4l.4.1.3.1h.2l.1.1m52.1,8h2.2l.5.1h.5l.4.1m-6,0h.2l.3-.1h.5l.3-.1h1.1m-2.6.3h.1l.1-.1m15,1.3,17,2.6m-26-3.9,3.8.6m22.2,3.3h.4l.3.1.3.1.2.1h.2M195,83.5h.1m319.7,51.8.1.1M184.1,91.9H184v-.1h-.1v-.4m137.9,13h1l.3-.1h.6l.3-.1h.2m-6,0,.4.1h.5l.5.1h2.2m-29.6-4.1,26,3.9m-27.3-4.4-.1.1v.1h.1l.2.1.3.1.4.1h.4m1.2-.7h-1.1l-.3.1h-.6l-.2.1h-.3m6.1,0-.5-.1H296l-.5-.1h-2.1m15.9,2L297,99.8m25.9,3.9-8.1-1.2m9.4,1.7.1-.1h.1l-.1-.1h-.1l-.2-.1-.3-.1h-.4l-.4-.1m61,9.1-3.9-.6m26,3.9-16.9-2.5m18.1,3,.2-.1v-.1h-.2l-.2-.1-.2-.1h-.4l-.4-.1m-1.2.7h1.1l.3-.1h.6l.2-.1h.2m-6,0,.5.1h.5l.4.1h1l.5.1h.4l.3-.1m-29.6-4.1,26,3.9M374,112.2l-.1.1h-.1l.1.1.1.1h.2l.3.1.3.1h.4m1.2-.7h-.7l-.4.1h-.6l-.2.1H374m6,0h-.4l-.5-.1h-.5l-.5-.1h-1.7M184.8,84.7,195,83.5m-10.5,1.6v-.2h.1v-.1l.1-.1h.1m-.9,6.7V89.9l.1-.8v-.8l.1-.8.1-.8.2-.8.1-.8m331.4,49.8-1,.4m0,.1v-.1m1-.4-1,.5m1.2-.7H516v.1l-.1.1m0-3.4h.1v.1h.1v.2m-10.4.8,10.2-1.1m-10.6,1.6.1-.1v-.2l.1-.1.1-.1h.1m-1,6.8v-.8l.1-.8V137l.1-.8.1-.8.1-.8.1-.7.1-.8m-.3,6.7h-.2v-.1l-.1-.1v-.2m1.2,0-.9.4m.9-.5v.1m0-.1-.9.4m0,0h-.2v-.3m0,0v-1.6l.1-.8v-.8l.1-.8.1-.8.1-.7.2-.8m0,0v-.2h.1v-.2h.1m0,0,10.3-1.1m0,0h.1v.1m-.1,3.1h0v.1m-332-43.4h-.1v-.1m.7-6.3h0v-.2h.1m-.8,6.5.1-.8V89l.1-.7.1-.8.1-.8.1-.8.2-.8m331.4,49.7h0v.1m0-3.3h.1v.1m-.1,3.2L505,139.7m0,0h-.2v-.3M290.8,100h0l.1-.1m0,0h.2l.3-.1h.6l.3-.1h.7l.4-.1m0,0h.7l.5.1h.9l.5.1h.5l.4.1m17.9,2.7,8.1,1.2m-26-3.9,12.5,1.8m13.5,2.1h.4l.4.1.3.1h.2l.1.1m64.7,9.5,17,2.6m-26-3.9,3.8.6m22.2,3.3h.4l.3.1.3.1.2.1h.2m-33.6-4.1h.1l.1-.1m0,0h.2l.3-.1h.5l.3-.1h1.1m0,0h2.2l.5.1h.5l.4.1m125.6,20.4,10.3-1.1m-10.5,1.5v-.2h.1v-.2h.1m-.6,6.6v.2h.1v.1h.1m0,0,10.8-4.9m0,0h0l.1-.1v-.1l.1-.1m0,0V132m0,0h0l-.1-.1v-.1H516m0,0-10.2,1.1m0,0h-.1v.1l-.1.1m-321.1-48-.1.8-.1.8-.1.8-.1.8-.1.8v.8l-.1.7v.8m320.9,48v-1.6l.1-.8v-.8l.1-.8.1-.8.1-.7.2-.8m.2,0-.1.8-.1.8-.1.8-.1.7-.1.8v.8l-.1.8v.7M296.6,100.1h0m26.2,3.9h0m-5.3-.5h-.1m-6.1-.5h0m-9-1.2,1.5.2,1.5.2,1.5.2,1.5.2,1.5.2,1.5.2M294,99.9h-.3l-.4.1h-.9l-.3.1h-.2l-.3.1m4.8-.1-.6-.1-.6-.1H294m8.9,1.2-1.1-.2m8,1.4-.9-.1-1.3-.2-1.2-.3-1.2-.2-1.2-.2-1.1-.2m-6.3-1-.4-.1h-.3l-.4-.1h-1.7m0,0h-1.1l-.3.1h-.6l-.3.1h-.2M303.5,91h.1l.2.1.1.1m-1.4.1v.2m0,0h0m.1,0h-.1m0,0v.1l-.1.2V92m.2-.7-.1.1m.1.1.1-.1.1-.1h.1l.1.1m-.6.6v.1m2.3-.3,2.8,3,2.9,3,2.9,3.2,2.6,2.7M304.7,91.8l-.4-.3-.4-.3m-.9.2,3,3,3,3.2,3.2,3.3,2.5,2.6M303,91.4l-.3.3m0,0h0m0,0h0m0,0-.3.3m0,0,.5.7.3.5.6,1,1.2,1.6,2.1,3,2.6,3.3.7.8m71.7,10.3h.1v.3m0,0v.1m-2.5-1.1h-.1m26.2,3.9h0m-20.5-2.3h.1m2.9,0,1.5.2,1.5.2,1.5.2,1.5.2,1.6.2,1.6.1,1.5.2m0,0,1.3.2m-7.4-.2-1.1-.2-1.3-.3-1.2-.2-1.3-.2-1.3-.2-1.4-.2m-8.5-1.8h1.7l.4.1h.4l.3.1m-5.2,0h.4l.3-.1h.3l.3-.1h1.1m22.8-6.7h0m0,0v.1m0-.1-.4.1m.4-.1h0l-.1-.1-.1-.1-.2-.1h-.1m.4,1.1.1-.1.1-.2v-.2l-.1-.2m-1,.1v.1m.6-.2h-.3l-.1.1h-.1l-.1.1m0,0h0m.1-.5h-.1m0,.4-.1-.1-.1-.1h-.3m.5.3v.1l.1.2-.1.1v.1m-8.8,3.1-2.9,1.6-4.4,2.5m15.7-8.1.1-.1m-10.5,9.1.5-.4,1.3-.8,1.3-.9,1.3-.8,1.3-.9,1.3-.9,1.3-.9,1.3-.9,1.3-.9m0,0,.4-.3.4-.4m-1.1-.4.2.4m-.2-.4h0m0,0h0m-.3-.4.3.4m-.3-.4-4.2,2-4.2,2-4,2.3-3,1.8m15.9-7.3-3.6,2.5-3.6,2.5-3.5,2.3-.9.6M75.5,59.3v-.1m.2-.2-.2.2m.1.1-.1-.1m.1.1h0m0,0,.1-.3m0,.3h-.1m623.1,82.1-.1.1-.5.2m.2-.2.5-.2.3-.3.1-.3m-.3-7.3.2.1.1.3-.1.3-.3.3-.5.2m-.2,7.1L668.6,155m0,0-.6-.1m.5-.1.1.2m.2-.2-.2.2M199.9,58.1,113.7,45.2m582.2,87L525,106.7M113.7,45.2l-1-.1-1-.1h-2.2l-1,.1-1,.1-.9.1-.7.2-.6.3m0,0L75.7,59m0,0L195,76.8m503.1,57.6.5-.3.2-.3.1-.2-.1-.3-.2-.3-.5-.2-.6-.3-.8-.2-.8-.1m-27.1,22.6,29.5-13.3m-29.7,6.1,29.5-13.2m.2.2-29.5,13.3m-.6,6.9h.3m0-6.9-.3-.1M523.3,125.9l145.3,21.7m-.1,7.2v-6.9m.3,6.9h-.3m.3-6.9v6.9m0-6.9-.2-.3m0,0-.1.3m.3,0h-.3M193.2,83.4l-.1-.2M209,6.2l.2-1,.3-1,.6-1,.6-.8.8-.7.8-.6.9-.4,1-.1,1-.1M193.1,83.2l2.4-8.4,2.3-8.4,2.1-8.5,2-8.6,1.7-8.5,1.6-8.6,1.4-8.7,1.3-8.6L209,6.2m-15.8,77h-.1M215.2.5l4.7.5,4.7.4,4.8.4,4.8.3,4.7.4,4.8.3,4.7.2,4.8.3m239.7,36-3-.7M253.2,3.3l14.2.7,14.1.9,14.1,1,14.1,1.3,14.1,1.4,14.1,1.6,14,1.7,14,1.9,13.9,2.1,14,2.3,13.9,2.4,13.9,2.6,13.8,2.7,13.8,3L463,32l13.7,3.3,13.7,3.4m3.2.8-.7-.2m-2.5-.6,4.6,1.2,4.6,1.1,4.6,1.1,4.6,1.1,4.7,1,4.6,1.1,4.7,1,4.6.9m6.5,7.9.2-1.1V52.9l-.2-1-.3-1-.5-.9-.6-.8-.8-.6-.8-.5-.7-.2m-2.8-.7.9.3.9.5.7.6.6.7.5.9.4,1,.1,1.1v1l-.1,1.1m-338.2,29,.9.2m322.1,48.3,6.6,1m.1-.1.6-8.7.7-8.7.8-8.7,1.1-8.6,1.2-8.7,1.4-8.6,1.6-8.6,1.7-8.6,1.9-8.5m-11,77.7-.1.1m-2.4-.8,2.5.7m-.1.1-2.6-.6M215,.7h-.9l-.9.2-.9.4-.8.5-.8.7-.6.8-.5.9-.4,1-.2,1m0,0-1,8.7-1.3,8.6-1.4,8.7-1.6,8.6-1.8,8.5L200,57.9l-2.1,8.5-2.3,8.4-2.4,8.4M531.1,54.4l.2-1.1v-1l-.2-1-.3-1-.5-.9-.6-.7-.7-.6-.8-.5-.9-.2m0,0-4.7-1-4.6-1-4.7-1-4.6-1-4.6-1.1-4.6-1.1L494.8,40l-4.6-1.1m0,0-13.6-3.5-13.8-3.3L449.1,29l-13.8-2.9-13.9-2.8-13.8-2.5-13.9-2.5-14-2.2L365.8,14l-14-1.9-14.1-1.8-14-1.6L309.6,7.3,295.5,6.1,281.4,5l-14.1-.9-14.2-.7m0,0-4.8-.2-4.7-.3-4.8-.3L234,2.3,229.3,2l-4.8-.4-4.7-.4L215,.7m175.5,112,129.6,19.4M313.6,101.2l71.8,10.7M193.2,83.2l115.1,17.2m-115.1-17v-.2m1.3.4-1.3-.2m327,48.9-4.1-.6m4,.4.5-8.7.7-8.7.9-8.7,1.1-8.7,1.2-8.6,1.4-8.6,1.6-8.6,1.7-8.6,1.9-8.5m.3,0L529.5,63l-1.8,8.5-1.6,8.6-1.4,8.7-1.2,8.6-1,8.7-.9,8.7-.7,8.6-.5,8.7m-.2.2.2-.2m0,0h-.3m.1.2-.1-.2M56.9,81.6V84M620.6,216.3l-.5.2m0,0-1,1.9-1.2,1.9-1.1,1.7-1.2,1.6-1.3,1.5-1.2,1.4-1.3,1.2-1.3,1.1m9.6-12.3,12.3,1.8m-63,102.6-.7-.3m.7.3,12.8,2m0,0,.1-.3m-.1.3,50.3-22.6m-22-71.5-39.6,32.1m-3.8,10.3-.1,6.3-.1,6.3.1,6.3.2,6.2.2,6.1.3,6.1.5,6.1.5,6m0,0h0m13.6,2-13.6-2m13.6,2h0m-11.4-61.7-.6.6-.6.7-.5.9-.5.9-.5,1.1-.4,1.1-.3,1.2-.2,1.3-.2,1.2v1.3M632.4,221l-.8,1.3-1.2,1.7-1.2,1.7-1.2,1.4-1.3,1.4-1.2,1.3-1.3,1.1m0,0-39.6,32m0,0-.7.6-.5.7-.6.9-.5,1-.4,1-.4,1.2-.3,1.2-.3,1.2-.1,1.3-.1,1.2m0,0-.1,6.3v12.6l.2,6.2.2,6.2.4,6.1.4,6,.5,6m50.1-22.4-50.1,22.4M97.7,250.3h0v.1h-.2l-2.8,1.3-2.2,1-.5.2-.1.1h-.2l-.1.1h-.8l-.2-.1h-.1v-.1m17.4,2.8h0l-.1.1-.1.2v.8l.2.2.1.1h.1M120,392V295.8M50.6,245.1V392m60.1-78V294.4m-1.4-.2v20.3M694.9,392V275.4m-68.2,27.5V392M16.9,237.4l551.7,82.4m-1.7-34.2L20.1,203.8m28-123.5v60M697,274.1h.1m.1-.4V142.1M632.4,300.2h0m0-132.6V221m64.2,53.5.4-.4M23.1,193.3v.1M567,272.3l-5.2,1.8m-.9,1.5-.3,9m1.2-10.5-.3.1-.2.3-.2.3-.1.4-.1.4M49.3,243.9l.1.2.3.4.4.3.5.3.4.1.3.1m-2.8-3.2.8,1.8m2,1.4,35.2,5.2m0,0,.2.1.4-.1.4-.1.2-.3.1-.1m0,.1,1-2m-19.6-1.8.6-1M35.9,165.4l551.2,82.4M37.5,168h.1m.2,11.1,535.3,80M37.7,168l547,81.8m-551.9-74,.1.2.2.2.2.1m0,0,.2.1m.3.1,3.3.5m.7-3-2.3-.3m9.9-93.8L638,168.4M68.2,136l549.9,82.1M632.4,170,56.4,83.9M618.1,218.1h0M316.9,153.9h0m2.6.8h.1m-2.7-8.2h0m4,8h0m-1.4-7.2h.1m4.5,8.1h.1m-3.2-8.3-.1.1m2.9.7h0m16,2.1h0m4,8.3h0m-1.3-7.6h.1m4.3,8.1h.1m-3.3-8.3h0m2.6.8h0m1.5-.1h0m2.2.6h0m16.3,9.5h-.1m2.9.8h0m-2.8-8.2h-.1m2.9.8h0m-15.6,4.7h-.1m2.5.7h.1m2.1,0h0m-1.6-7.6h0m4.7,8.4h0m-32.7-5.2h0m2.5.7h0m2.1,0h0m-1.5-7.7h0m4.6,8.5h.1m-28-56.7-113.2-17M385.3,112l-71.7-10.7m202.3,30.2L390.4,112.7M184.1,91.9l320.8,47.9m11-5,.2-.1m0-2.9-.1-.1M309.6,102l-13-1.9m26.2,3.9-7.7-1.2m8.8,1.4h0l-.3-.1-.3-.1h-.5m-5.4-.5-1.4.2m0,0-4.7-.7m-7.8-12-.4.1m-.6.3-.1.1v.6m.7-1-.3.1h-.1l-.1.1m-.2.8.6.9.4.7.3.4.3.5.4.5.3.4m2.7,3.8.3.4.8,1,.9,1,.6.8.3.4m75.1,11.2-4.7-.7m2.8-.4-3.8-.5m26.1,3.9-17-2.6m17.7,2.9h-.1m.6-.1h-.1l-.2-.1h-.4l-.5-.1m-6.7-11.1-.5.1m.1,0h-.4m-.1,0-.9.4-.5.3-.6.2-.6.3-.6.3-.6.3-.6.3-.6.3-1.1.5-1.1.6-1.2.6h-.1m309,31.9.2-.2m.3-.5v-6.9m-.3-.4-.2-.3M489.9,38.6l-2.6-.7m42.9,10-2.5-.6M100.6,254.2l-.5-.1-.6-.2-.5-.3-.5-.5-.4-.5-.2-.7-.2-.8v-.8m-7.2,2.6.3,1.6.4.8.5.8.8.7.9.6,1,.4,1.2.1m2.1-7.6v-.8m-7.3-1.1.1,4.5m20.4-1.5-.9.5-.6.2-.3.2h-.2m-.3,1.6-2.2.1-2.8.1-3,.1m-5,3.7,3-.1,3.1-.2,6.4-.5m.5-2.1-.1.2v.1m-.4,1.8h.1l.7-.3.7-.3.8-.3.7-.4.7-.3.7-.3.2-.1.2-.2.5-.4.2-.2.2-.3.1-.4.1-.4m-5.4-.3v-.3l.1-.1.2-.1v-.1m0,0h0m-.3.6V255m5.4-1.8v-1.3"/>
  <g>
    <path class="cls-3" d="M274.72,264.87"/>
    <path class="cls-3" d="M300.66,278.36a135.78,135.78,0,0,0,19.84-15.51c2.56-2.48,5.33-5.77,8.37-7.59,1.57-.93,3.24-1.59,4.81-2.49,1.74-1,2.44-2.8,4.59-3.18a24.09,24.09,0,0,1,4.16.15,30.65,30.65,0,0,0,7.39-1.05c2.77-.67,7.73-1.84,9.73-4,1.13-1.23.3-2.19,1.74-2.76s2.42-1.1,2.37-2.87c-.05-2.46.68-3,1.8-5,.9-1.67,1.53-1.63,3.07-2.6,1.71-1.07,1.75-2.79,1.31-4.53-.5-2-2.65-1.83-4.17-2.51-.94-1.3,2.83-5.24-.2-6.6-2.43-1.09-4.8,3-7,4.32-2,1.17-3.35,1.05-5.43.67-1.92-.35-3.86.68-5.67,1.45-2.36,1-4.88,1.2-7.12,2.57s-4.11,3.12-6.11,4.6c-3.9,2.9-7.58,6-11.42,9.06-10.29,8.22-22.32,13.81-34.36,19-2.53,1.08-11.62,5.29-19.47,9"/>
    <path class="cls-4" d="M367.62,225.32"/>
    <path class="cls-4" d="M365.81,225.7"/>
    <path class="cls-4" d="M352.08,225.48a21.48,21.48,0,0,0,9.4.78c1.31-.21,2.89-.33,4.33-.56"/>
    <path class="cls-4" d="M365.77,222.59a13.88,13.88,0,0,1-2.2,3.35"/>
    <path class="cls-4" d="M358.49,222.08a26.16,26.16,0,0,0-3.66-.81c-.69.57.15,1,.78,1.51"/>
  </g>
  <g>
    <g>
      <path class="cls-3" d="M174.56,254"/>
      <path class="cls-3" d="M171.82,251.09"/>
      <path class="cls-3" d="M179.36,259.48c8.34-6.34,19.62-17.48,25-21.92,5.63-4.63,10.21-8.56,17.35-8.95a21.9,21.9,0,0,0,5-.94c1.71-.5,2.19-1.64,3.45-2.65,2.5-2,4.94-3.85,7.58-5.65,1.53-1,3-2.14,4.43-3.32a11.87,11.87,0,0,0,2.32-2.21c.32-.47,0-.94.26-1.34.7-1.06,2.15-1.58,2.26-3.11.16-2-2.23-2-3.53-2.94-1.1-.84-2.51-.1-3.2-.29-.45-.12-.58-.66-.07-2.35.18-.6.77-3.1-1.25-2.87-1.58.33-3.22,3.09-4.3,3.35a45.74,45.74,0,0,1-5.64,1.44c-1.77.2-3.48-.07-5.23.59a33.78,33.78,0,0,0-11.83,7c-1.69,1.53-3.57,2.1-5.54,3.11a49.58,49.58,0,0,0-5.8,3.92c-3.57,2.5-7,5.07-10.8,7.24-6.26,3.58-12.94,6.38-19.31,9.95-.76.43-17.11,9-23.83,12.52"/>
      <path class="cls-4" d="M239.89,205.31a11.15,11.15,0,0,1-4.34,4.73c-2.08,1-3.5.59-5.51,1-.91.2-2.64,3.52-3.45,4.23a12.13,12.13,0,0,1-5.9,3.2"/>
      <path class="cls-4" d="M245.45,207.33"/>
      <path class="cls-4" d="M232.23,217.55c1.44-1,12.24-8.68,12.48-4.6"/>
    </g>
    <path class="cls-4" d="M233.1,213.15a64.68,64.68,0,0,0,7.63-3.71c1-.67,3.56-2.55,4.56-2.25"/>
    <path class="cls-4" d="M225.23,206s4.45-1.52,5.31-2a7.12,7.12,0,0,1,2.34-.55l1.61.43"/>
    <path class="cls-3" d="M237.85,208.24a29.29,29.29,0,0,1,3.55-2.14"/>
  </g>
  <g>
    <path class="cls-5" d="M315,204.47l5.1.71-.46-6.85-26.82,3,7.48,1L254.65,220.9l.13,17-6-.84,11,11.74,14.67-8.13-6.93-1v-17Z"/>
    <path class="cls-6" d="M315,204.47l5.1.71-.46-6.85-26.82,3,7.48,1L254.65,220.9l.13,17-6-.84,11,11.74,14.67-8.13-6.93-1v-17Z"/>
  </g>
</svg>
