<svg id="P10" xmlns="http://www.w3.org/2000/svg" width="112.89mm" height="111.14mm" viewBox="0 0 319.99 315.03">
  <defs>
    <style>
      .cls-1, .cls-4 {
        fill: none;
      }

      .cls-1 {
        stroke: #040000;
        stroke-linecap: round;
        stroke-width: 0.99px;
      }

      .cls-1, .cls-3 {
        stroke-linejoin: round;
      }

      .cls-2, .cls-5 {
        fill: #fff;
      }

      .cls-2, .cls-3, .cls-4, .cls-5 {
        stroke: #231815;
      }

      .cls-2, .cls-4, .cls-5 {
        stroke-miterlimit: 10;
      }

      .cls-2 {
        stroke-width: 0.85px;
      }

      .cls-3 {
        fill: #c9caca;
      }

      .cls-3, .cls-4, .cls-5 {
        stroke-width: 0.3px;
      }
    </style>
  </defs>
  <polygon points="109.49 258 93.66 262.04 96.61 262.99 82.27 270.85 86.6 272.18 100.49 264.24 103.74 265.35 109.49 258"/>
  <path class="cls-1" d="M99,266.3l-.8-.1-.8-.3-.7-.5-.6-.5-.5-.7-.4-.7-.3-.8v-.8m0,0V249.6m24.6,18.1L99,266.3m-4.1-16.7v-.8l.2-.7m26,19.4h0l-.8.2h-.8M22.1,225.1l2.9-2.8m96.4,31.4V266m0,0-.1.8-.2.8-.4.7-.5.6-.6.4-.8.4-.7.1-.8.1m0,0-20.6-1.5m0,0-.8-.1-.7-.3-.7-.4-.7-.6-.5-.6-.4-.8-.2-.7-.1-.8m0,0V251.7m0,0,.1-.8.2-.7.4-.7.5-.6.7-.5.7-.3.7-.2h.8m0,0,20.6,1.4m0,0,.8.2.7.3.8.4.6.5.5.7.4.7.2.8.1.8M22.1,225.1l297.4,20.7M22.1,279.3V225.1m0,54.2L319.5,300M137.6,259.4h0v.1m0,0h.1m-1.2,1.1,1.1-1.1m-1.4.6,1.4-.7m0,0h0m.3.2h0m0,0h0l.1-.1m-.1,1.4v-1.3m-.2-.1h0v.1h.2m-.3-.4h0v.2m.4.1h0m-1.5-.8.7.3m.9.2h0l-.1-.1m.6.2-.5-.1m0,0h0m0,.1h0m-.1-.2h0m.3-.2-.3.2m-1.3.1.1.1v.2l-.1.2-.1.1v.1m-.1-1.2v.2l.1.1.1.2m.2-.7-.1.1h-.1l-.2.1m.6.2v-.1l-.1-.1-.1-.2m1,.6-.2.1h-.2l-.1-.1-.2-.1-.1-.1m1.2,0h-.1l-.1.1-.2.1m.7.2-.1-.1-.1-.1-.1-.2m-.1.7.1-.1.1-.1.2-.1m-.6,1v-.5l.1-.2h.1m.1,1.1-.1-.1v-.1l-.2-.2m-.1.6h.1l.1-.1.2-.1m-.7-.1.1.1.1.1.1.1m-1-.5.1-.1h.2l.2.1.1.1.1.1m-1.1,0,.1-.1h.1l.2-.1m-.7-.3.1.1.1.2.1.2m.1-.7-.1.1h-.1l-.2.1m-60.2-5h0v.1m0,0h.1m-1.2,1.1,1.1-1.1m-1.4.7,1.4-.8m0,0h0m.3.2h0m0,0h.1v-.1m-.1,1.5v-1.4m-.2-.1h0v.1h.2m-.3-.4h0v.2m.4.1h0m-1.5-.7.7.2m.9.2h-.1v-.1m.6.2-.5-.1m0,.1h0v-.1m0,.1h0m-.1-.2h0m.3-.2-.3.2m-1.3.1.1.2v.2l-.1.1-.1.2m-.1-1.1v.1l.1.1.1.2m.2-.7-.1.1-.1.1-.2.1m.6.1v-.1l-.1-.1-.1-.2m1,.6-.2.1h-.2l-.1-.1-.2-.1-.1-.1m1.2,0-.1.1h-.1l-.2.1m.7.2-.1-.1-.1-.1-.1-.2m-.1.7.1-.1.1-.1.2-.1m-.6,1v-.1l-.1-.2.1-.2.1-.1.1-.1m.1,1.1-.1-.1v-.1l-.2-.2m-.1.7.1-.1.1-.1.2-.1m-.7-.1.1.1.1.1.1.2m-1-.6.1-.1h.2l.2.1.1.1.1.1m-1.1,0,.1-.1h.1l.2-.1m-.7-.2.1.1.1.1.1.2m.1-.7-.1.1-.1.1-.2.1M52,223.7l-.8-.1m.8,3.5,267.5,18.6M52,227.1V214.8m0,0,.9-.9m-.9.9,267.5,18.6m-268-19.6,268,18.6M98.8,242.3h0m.7.7h0m-.2-.7h0m-.2-1h0m.2.8h0m-.2-.8h0m-.2.8h.4m0,0-.2-.8m0,0h0m0,0-.2.8m1.7.9h0m-2.2-.1h0m1.8-.1h0m.6-.1h0m-3.4-4.3h-.2l-.2.1h-.1m2.4,3.6-.2-.8m0,0h0m.2,1h-.5m.7.7-.2-.7m.5.7h-.3m-1.1-.1.6-2.2m-.3,2.2h-.3m1.5-1h0m.5-.8h0m.2,0h0m.3.5h0m-.1-.5h0m0,1.6v-.1l.1-.2v-.2m-.3-1.1h-.2m.4,0h-.2m.3.5v-.3l-.1-.2m.3.5h-.2m-1,.3.1-.5.2-.4m0,1.8-.2-.2v-.2l-.1-.5m.7,1.1h-.3l-.1-.2m.7.1-.1.1h-.2m2.7.2h0m0,0V241m.2,2.2h-.2m1.2-1.5h0m-.3,1.6h0m.9,0h0m-.6-1.6h0m.7,1.1h-.1m.1,0v-1.6m-1,2.1v-2.2m.3,2.2h-.3m.3-1.6h0m.6,1.6-.6-1.6m.9,1.7-.3-.1m5.3.7h0m0-.5h0m-.4,0h0m-2.9.2h0m.1.1-.1-.1m0,0,1.1-2.5m2.2,2.1h0m0-.2h0m.2.4h0m.9.6h0m-1.2-1.2h.1m-.1-.2v.2m.1,0v-.2m0,.2h0m0-.2h-.1m.1,0h0m-.1,0h0m.3.4h0m1.1,1h0m-1.6-1h0m.5-.2h.2m-.2-.2v.2m.2,0v-.2m0,.2h0m0-.2h-.2m.2,0h0m-.2,0h0m-.2-.2h0m0,0v-.2m-.1,0v.2m0,0h.1m0-.2h-.1m.1,0h0m-.1,0h0m1.3,1.5h0m0-.3h0m-.2,0h0m.7.6h0m-1.3-1.6h0m0-.2h0m-.2,0h0m.2,0h-.2m0,0v.2m0,0h.2m0,0v-.2m-.8-.4h0m.4.2h0m0-.2h0m1.2,1.4h0m0-.2h0m-.2,0h0m.2,0h-.2m0,0v.2m0,0h.2m0,0v-.2m.8,1h0m-1.3-.1h0m.3-1.3h0m.2,0h-.2m0,0v.2m0,0h.2m0,0v-.2m0,.2h0m0-.2h0m-1.2-1h0m.2.2h0m0-.4h0m.9.7h0m-.3.2h0m.4.7h-.2m.2.2v-.2m0-.4h-.2m.2.2v-.2m0,.8h-.2m.2.3v-.3m0,.4h0v-.1m-.1.3v-.2m.2.2h-.2m.3-.1h0v.1h-.1m-.6-.1v-1.5m.3,1.6-.3-.1m.8-.3h0m.2,0h-.2m0,0v-1.1m.2.1h0m0,0h0m-1.7-.2v-.2m0,0h-.1m.1.4h-.1m.1.2v-.2m.4,0h-.2m.2.2v-.2m0-.4h-.2m.2.2v-.2m.2.8h-.4m.4-1.2h-.4m.1-.4h-.1m-.2.2v-.3m-.4.5v-.2m.4.2H110m.4.2v-.2m-.3,1.2v-1m.3,1h-.3m.3.2v-.2m-.4.4v-.2m.4.2H110m.4.5v-.5m.2.5h-.2m.7-.4-.5-.1m1.7.4h0m-.8-1.6h0m.8,1.6v-1.4m0,1.4h0m-.2.2v-.2m.3.2h-.3m.4,0h-.1m-.9-2h0m1,.5h0m0,0h0m-.3-.4h0m-.4-.4-.2.2-.1.1m0,0,.7.1m0,0-.3-.3-.1-.1m.4.4h0m-.4-.4h0m.1-.2h0m-.4.5h0m.7.1-.3-.3-.1-.1m-.6.6-.1-.2m.3,0-.1.1-.1.1m.3-.1v-.1m.7.2-.7-.1m1,.1-.2-.1-.1-.1m-.2-.6h-.1m-.5.3.1-.1.2-.3m5.4,4.9.1-.1v-.1l.1-.2v-.1m-4.2-1.8h0m1-1.7h0m0-.4h0m-.5,0h0m.6.7h0m-.6-.7v-.2m.5.2h-.5m.5.4V242m-.5,1.4.2-.2.2-.8m-.9,1.7-.2-.2m.7-.1-.5.3m2.2.1-.8-.7-.3-.8m3.1,3.2v-5.5m-.7-.7-19.2-1.3m19.9,2v-.1l-.1-.1V240l-.1-.1-.1-.1h-.1l-.2-.1h-.1m-5,4.1v-.3m0,0h-.2m0,0v.6m0,0-.3-.1m0,0v-1.5m0,0h.7m0,0v1.4m0,0v.2h-.1m0,0h-.2m0,0v-.2m0,0h.1m0,0h0v-.1m.5-1.1v1m0,0h-.2m0,0v-1.1m0,0h.2m0,0h.1v.1h-.1m-.6-.5-.2.1-.1.1m0,0-.1-.2m0,0,.4-.4.2-.3m0,0h.2m0,0h.1v.1h-.1m0,0h0m0,0,.4.4.4.3m0,0-.2.1m0,0-.2-.1-.1-.1m0,0v.2m0,0-.7-.1m0,0v-.1m-6.4.6v-1.6m0,0h.3m0,0v2.2m0,0-.3-.1m0,0-.6-1.6m0,0h0m0,0v1.6m0,0h-.3m0,0v-2.2m0,0h.4m0,0,.5,1.7m0,0h0m-4.3-.1v-.1l.1-.2v-.2m0,0h.3m0,0-.1.4-.2.3m0,0-.1.1h-.2m0,0h-.3l-.1-.2m0,0-.2-.2v-.2l-.1-.5m0,0,.1-.5.2-.4m0,0,.2-.1.2-.1m0,0,.2.1.1.1m0,0,.2.3v.3m0,0h-.2m0,0v-.3l-.1-.2m0,0h-.2m0,0h-.2m0,0-.1.2-.1.3v.3m0,0v.5l.1.1.1.2m0,0,.1.1h.1m0,0h.1l.1-.1m15.8,3.9h.1l.1-.1h.2l.1-.1.1-.1v-.1l.1-.1v-.2m0,0v-5.5m0,0v-.1l-.1-.1v-.1l-.1-.2H117l-.2-.1-.1-.1h-.1m0,0-19.2-1.3m0,0h-.2l-.2.1h-.1l-.1.1v.2l-.1.1v.1m0,0v5.5m0,0v.1l.1.2v.1l.1.1.1.1.2.1h.2m0,0,19.2,1.4m-17.3-4.3h-.5m0,0-.1.6m0,0h-.3m0,0,.6-2.2m0,0h.2m0,0,.6,2.3m0,0h-.3m0,0-.2-.7m4,.9V241m0,0h.2m0,0v2.2m0,0h-.2m5.1-1.9-1.2,2.5m0,0-.1-.1m0,0,1.1-2.5m0,0,.2.1m2.2,1.8v.2m0,0,.5.1m0,0v.2m0,0-.5-.1m0,0v.5m0,0h-.2m0,0v-.5m0,0H110m0,0v-.2m0,0h.4m0,0v-.2m0,0h-.3m0,0v-1m0,0h.3m0,0v-.2m0,0H110m0,0v-.2m0,0h.4m0,0v-.3m0,0h.2m0,0h.1v.1h-.1m0,0v.2m0,0,.4.1m0,0v.1m0,0h-.4m0,0v.2m0,0h.4m0,0v1m0,0h-.4m1.7.8v-1.4m0,0h.2m0,0h0v.1m0,0v1.3m0,0v.2h-.1m0,0h-.3m0,0v-.2m0,0h.2m0,0h0m2.1-1.7.1.6.2.5.8.6m0,0-.2.3m0,0-.8-.7-.3-.8m0,0-.4,1-.7.4m0,0-.2-.2m0,0,.5-.3.4-.4.2-.8m0,0h.1m0,0V242m0,0h-.5m0,0v-.2m0,0h.8m0,0v.4m-8.1,6.4h0m13.8,9h-.3m.2.2-13.8-1m0,0h-.1l-.1-.1m0,0v-8.1m14.1,5.9v3.2m0-7V253m0,4.7h0v.1H120m-7.6-6.2.1-.2m-.5-1h-.1l-.3.1-.2.1m-2.2,3.1,4,.3m-4-.3-1.8,1.8m1.8-1.8V250m5.3,2.8h0l.1-.1h.4l.1.1.1.1.1.1m.4.7.3.5m-.7-1.2.1.2m.6,1,1.7.1m-1.7-.1-1.8,1.8m3.1-5h0m.4,3.3.9-.1m-11.2,1.3,4.5.3m-4.5-5.9v5.6m4.5-5.3-4.5-.3m5.1,1.5-.6-1.2m1.6,1.3-.1.1-.1.1h-.4l-.2-.1-.1-.1-.1-.1m1.7-1-.7,1.1m2.4-1-1.7-.1m1.7,5.7.8-.1.8-.3.6-.6.4-.8.2-.8-.2-.9-.4-.8-.6-.7-.8-.4-.8-.2m-1.7,5.5,1.7.1m-2.4-1.3.7,1.2m-1.7-1.3.1-.1.1-.1h.6l.1.1.1.2m-1.6,1,.6-1.1m-6.3-5.9v7.6m0,0h0v.2h.1v.1h.2m0,0,13,.9m0,0h.3v-.1l.1-.1v-.1m0,0v-6.9m-13.6-1.8h0l-.1.1v.1m13.9,8.3v.2m1.3-2.8-.3.2m-.2-.5.3-.1m0,0,.1-.1m-.1-1h.1m-.8-.6h0l.5-.5m.1,2.8h.1l.1-.1h.1m-.5-.4v.2l.1.1.1.2m.1-.6h-.1l-.1.1h-.1m.5-.4v.1l-.1.1-.1.1m.2,1.7h0l-.7-.4-.4-.6m0,0-.3-.7.1-.8.2-.6.5-.5.2-.2m-17.3.3h0v.1h.1m0,0h0m0,0-1.2,1m.2-.7.9-.4m-1.3.6.3-.1m1-.5h0m.3.2h.1m-.3-.1v.1h.2m.1,0h.1m-.3,1.4.2-1.4m.1,0h0v-.1m-1.5.4.1-.1m.9-.6v.2m-1-.6.7.2m.8.5h0m.3-.5-.3.2m-2.2-1h0l.5-.5.6-.3.8-.1.7.2.7.4.4.7.3.7v.7l-.3.7-.5.5-.2.2m-.9-2.2-.2.1-.2-.1h-.1l-.2-.2m1.1,0-.1.1h-.2l-.1.1m0,1.2v-.5l.2-.1.1-.1m-.1,1v-.1h-.1l-.1-.2m-.2.6.1-.1.1-.1.2-.1m-.6-.1v.1l.1.1.1.2m-.9-.6.1-.1.2.1h.2l.1.1.1.1m-1.1-.1h.1l.1-.1h.2m-.6-.4v.2l.1.1.1.2m.1-.6h-.1l-.1.1h-.1m.5-.8v.5l-.1.1-.1.1m0-1.1.1.1v.1l.1.2m.3-.6h-.1l-.2.1-.2.1m.7.2-.1-.2v-.1l-.1-.1m-.9,2.6-.5-.6-.2-.7v-.7l.2-.7.5-.5.6-.3.7-.1.8.2.6.4.4.6.3.7v.7l-.3.7-.5.5-.6.3-.7.1-.7-.2-.6-.4m-.2,9.1-.8-.1-.7-.3-.7-.4-.7-.6-.5-.7-.4-.7-.2-.8-.1-.8m0,0V248m23.4,16.5-19.3-1.3m4.2-14.6h0m13.8,9h-.3m.2.2-13.8-1m0,0h-.1l-.1-.1m0,0v-8.1m14.1,5.9v3.2m0-7V253m0,4.7h0v.1H120M22.3,222.1l-.2-.5m28.6,2.5-28.4-2M22.1.5V221.6m0,0,28.4,2m0-15.1v15.1m0,0,.2.5m0,0,1.3-1.3M213.6.5l-.1.3-.5.7-.1.2m.6-1.2-.1.4-.5.7-.6.5-.8.4-.8.1-.9-.2L209,2l-.7-.6-.5-.7-.1-.2M51.9,212.4l-.6.6m0,0v.4M319.5,232,51.3,213.4m268.2,18.2L51.3,213m0,0,.6-.6m-.9.6h.3m0-2.2V213m-.3-3.3V213m268.5-17.7-1.3,1.3m0,0,.4.7m0,0,.9.9m-.9-.9.9-1M169.3,161l-23.1,23.6m0,0,.3.7m0,0,11.6,11.5m-11.6-11.5,23.1-23.6m-11.5,35.1.7.3m22.4-24-23.1,23.7m33.8-59-2.4,2.5-2.6,2.6-2.6,2.8-2.8,2.9-2.9,2.9-3,3.1-3.1,3.2-3.2,3.2m.3.7,3.2-3.2,3.1-3.2,2.9-3.1,2.9-2.9,2.8-2.9,2.7-2.7,2.5-2.6,2.4-2.5M203.7,150l-2.4,2.5-2.5,2.6-2.7,2.8-2.8,2.8-2.8,3-3,3.1-3.1,3.1-3.2,3.2m10.7-35.3L319.5,7.4M192.1,138.6l-.2-.8M319.5,8.4,192.1,138.6m0,0L203.7,150m0,0L319.5,31.7m-115,118.5-.8-.2M319.5,32.7l-115,117.5m-22.6,23.2,3.2-3.2,3.1-3.2,3-3,2.9-3,2.8-2.9,2.7-2.7,2.5-2.7,2.4-2.5m-45.7,46.9,23.1-23.7m-22.6,23.1-.5.6M319.5,32.9,159.3,196.5M85.5,94.7,75,107.5m0,0,.4.6m0,0,12.5,10.5M75.4,108.1,85.8,95.3m2.1,23.3.7.3m9.7-13.2L87.9,118.6m17.7-49.4L103.5,72l-2.3,2.9-2.4,3-2.4,3.2-2.6,3.2-2.7,3.4-2.8,3.4-2.8,3.6m.3.6,2.9-3.5,2.7-3.5L94.1,85l2.6-3.3,2.4-3.1,2.4-3,2.3-2.9,2.1-2.8m12.5,10.5-2.2,2.7L114,86l-2.4,3.1-2.4,3.1-2.6,3.2-2.7,3.4-2.8,3.4-2.8,3.5m7.3-36.5L161.3.5M105.9,69.9l-.3-.7M162.2.5,105.9,69.9m0,0,12.5,10.5m0,0L183.1.5M119.2,80.6l-.8-.2M184.1.5,119.2,80.6M99,106l2.9-3.5,2.8-3.5,2.6-3.3,2.6-3.3,2.5-3.1,2.4-3.1,2.3-2.9,2.1-2.7M88.6,118.9,99,106m-9.8,12.3-.6.6M184.7.5,89.2,118.3M5.9,279.7l-1.4-.1-1.2-.2-1-.2-.8-.3-.6-.4-.3-.3-.1-.3m21.6.5-2.2,2.2m-.6.1-13.4-1m14,.9h-.2l-.1.1h-.3M1.6,279l.1.1.5.3.7.3.9.2,1.1.2,1.2.1m0,0,13.1.9m0,0,.4-.4m-13.7-1-1.3-.1-1.2-.2-1-.3-.8-.3-.6-.3-.1-.1m18.6,2.3h.1m0,0h.1v-.1m30.8-87.3-.4-1M71,194.7l-20.5-1.4M50.1.5V192.3m0,0,20.5,1.4M70.6.5V193.7m0,0,.4,1m0,0,2.6-2.4M73.6.5V192.3M51.9,212.4l-1.8-5M319.5,231,51.9,212.4m21.7-20.1,245.9,17M50.1,193.7l.4-.4m-.4,14.1V193.7m0,13.7L319.5,226M50.1,193.7l269.4,18.7M138.1,259.3l-.1.6m-.2-.8h.2m1.1,3.3.4-.2.4-.3.5-.6.4-.7.1-.8V259l-.3-.9-.5-.7-.6-.6-.7-.4-.9-.2h-.8l-.8.2-.7.4-.6.6-.3.8-.2.8v.8l.3.8.5.7.6.6.7.5.8.2h.9l.8-.2m-1-3.2v.1M76.5,255l-.1.6m-.2-.7.2-.1m1.1,3.3.4-.2.4-.2.5-.6.4-.8.1-.8v-.8l-.3-.8-.5-.7-.6-.6-.7-.5-.9-.2h-.8l-.8.2-.7.5-.6.6-.3.7-.2.8v.8l.3.8.4.8.7.6.7.4.8.2h.9l.8-.2m-1-3.1h0m20.4-16.5v.1m20.2,7.8h0m-5.7,4.2-1.6,1.6m1,1,1.6-1.6m-6.1-3h0m3.5,3.6-.2.2v.5l.1.2.1.2.2.1h.5l.1-.1h.1l.1-.1m3.7-.4-1.9,1.8m4.7-3.6-1.6,1.6m.9,1,1.7-1.6m-4.9-.4,1.2-1.2m5.2,7.2.3-.3m-4.4-4.7-.2.2v.2l-.1.2.1.2.1.1.1.2.2.1h.5l.1-.1h.1v-.1m4.6.4h.1m-.8-1.6-.2.3m-17.6.1.1-.1m1.5-.5-.2.8m.6,1.4.3-.1m-3-3.2-.2.3m-94,30.3.1.4.1.4.2.3.2.3.3.2.4.2.3.2h.4m9.5,0,4.4-4.3m-16,.9.1,1.4m2,2,7.9.6m0,0h.2l.2-.1h.2l.2-.1h.2l.2-.2.2-.1.2-.1M212.8,1.8l.1-.1M.5.5V277.9m.7.8.4.3"/>
  <g>
    <path class="cls-2" d="M77.68,275a13.81,13.81,0,0,1,1.86-.34,4,4,0,0,1,3.28,2.21c.41,1.14.62,3-.1,4-.85,1.18-15.28,10.86-15.85,11.24s-2.25-.46-3.05-.38-2.13.87-2.28,1.52a10.85,10.85,0,0,1-.56,2.68,3.38,3.38,0,0,1-3.25,1.7c-1.06,0-2.82-1.64-2.82-1.64l-8.18-5.87a3.53,3.53,0,0,1-1.06-2.74c0-1.9,2.4-2,2.4-2a3.37,3.37,0,0,0,2.32,0c1.07-.5,2.94-1.23,3.13-3a3.16,3.16,0,0,1,2.17-2.4l12.63-7.11c.84-.45,3.18-1.89,4.5-1.84a3.53,3.53,0,0,1,3.26,3.16c.15.8,1.6.83,1.6.83"/>
    <path class="cls-2" d="M49.71,288.33c1.42.38,5.35,2.51,5.92,3.25s1.87,2.45,1.13,3.7-11.36,7.38-12.29,8.14c-1.59,1.31-4.61.23-6.88-1.42-2.06-1.5-4.44-3.25-3.7-5.35,1-2.72,11.45-7.41,12.08-7.86A5.12,5.12,0,0,1,49.71,288.33Z"/>
    <path class="cls-2" d="M22.38,306.44s13-8.31,13.66-8.65a2,2,0,0,1,2.22.79,2.52,2.52,0,0,1,.23,2.28c-.4.68-16.34,10.36-16.34,10.36"/>
    <path class="cls-2" d="M21.19,310S38,299.6,38.67,299.26a2,2,0,0,1,2.22.8,2.51,2.51,0,0,1,.23,2.28c-.4.68-19,12.33-19,12.33"/>
    <path class="cls-3" d="M77.68,275l-7.14,4.8s-1.26.63-1.94-.28a2.17,2.17,0,0,1-.06-2.11l7.2-4.22a1.33,1.33,0,0,0,.31,1.35A2.85,2.85,0,0,0,77.68,275Z"/>
    <path class="cls-4" d="M81.49,277.83S69.74,286.4,68,287.49A6.92,6.92,0,0,1,61.2,287c-1.93-1.31-5.52-3.64-5.52-3.64a3,3,0,0,1-.57-1.54"/>
    <path class="cls-4" d="M35.68,295.74a7.64,7.64,0,0,1,7.53,6.79"/>
  </g>
  <path class="cls-5" d="M49.62,286.23a23.31,23.31,0,0,1,7.77,4.36C59,292,60,293.81,60,294.76"/>
</svg>
