<svg id="レイヤー_1" data-name="レイヤー 1" xmlns="http://www.w3.org/2000/svg" xmlns:xlink="http://www.w3.org/1999/xlink" width="9.98mm" height="16.73mm" viewBox="0 0 28.29 47.41"><defs><style>.cls-1,.cls-4,.cls-5,.cls-6{fill:none;}.cls-2{clip-path:url(#clip-path);}.cls-3{fill:#1b1b1b;}.cls-4,.cls-8{stroke:#040000;}.cls-4,.cls-5,.cls-6,.cls-8{stroke-linecap:round;stroke-linejoin:round;}.cls-4{stroke-width:0.5px;}.cls-5{stroke:#070001;stroke-width:0.99px;}.cls-6{stroke:#231815;stroke-width:0.6px;}.cls-7{fill:#070001;}.cls-8{fill:#949494;stroke-width:0.25px;}</style><clipPath id="clip-path"><rect class="cls-1" width="28.29" height="47.41"/></clipPath></defs><g class="cls-2"><polygon class="cls-3" points="28.67 26.5 25.59 31.67 17.46 26.83 16.06 29.18 14.06 21.31 21.93 19.32 20.54 21.66 28.67 26.5"/><g id="LINE"><line class="cls-4" x1="17.42" y1="-0.04" x2="0.11" y2="-0.04"/></g><g id="LINE-2" data-name="LINE"><line class="cls-4" x1="17.42" y1="-0.09" x2="17.42" y2="87.15"/></g><g id="LINE-3" data-name="LINE"><line class="cls-4" x1="0.1" y1="-0.05" x2="0.06" y2="87.19"/></g><circle class="cls-5" cx="8.35" cy="19.88" r="3.75"/><circle class="cls-6" cx="8.35" cy="19.88" r="3.46"/><path class="cls-7" d="M8.34,21.16a1.21,1.21,0,0,1-.67-2.22.12.12,0,0,1,.17,0,.13.13,0,0,1,0,.17,1,1,0,1,0,1.07,0,.13.13,0,0,1,0-.17.12.12,0,0,1,.17,0,1.21,1.21,0,0,1-.68,2.22Z"/><path class="cls-7" d="M8.34,20a.12.12,0,0,1-.12-.12V18.76a.12.12,0,0,1,.12-.12.12.12,0,0,1,.13.12v1.12A.12.12,0,0,1,8.34,20Z"/><path class="cls-7" d="M8.39,37.77h0l-.73-.39H7.36a.07.07,0,0,1-.06-.07.06.06,0,0,1,.06-.06h.31l.65.34V35.86l-.87.46H6.9v1a.07.07,0,0,1-.07.07.07.07,0,0,1-.06-.07v-1a.07.07,0,0,1,.06-.07h.58l.95-.5a.06.06,0,0,1,.06,0,.05.05,0,0,1,0,0v2a.05.05,0,0,1,0,0Z"/><path class="cls-7" d="M9,37.38h0a.06.06,0,0,1,0-.08,1.17,1.17,0,0,0,0-1.11.08.08,0,0,1,0-.09.07.07,0,0,1,.09,0,1.28,1.28,0,0,1,.15.61,1.32,1.32,0,0,1-.15.62A.07.07,0,0,1,9,37.38Z"/><path class="cls-7" d="M9.48,37.73h0a.08.08,0,0,1,0-.09,1.92,1.92,0,0,0,.23-.91,1.88,1.88,0,0,0-.23-.9.08.08,0,0,1,0-.09.06.06,0,0,1,.09,0,2.13,2.13,0,0,1,.24,1,2.17,2.17,0,0,1-.24,1Z"/><path class="cls-7" d="M13.17,47.42a.41.41,0,0,1,0-.81.41.41,0,1,1,0,.81Zm0-.68a.28.28,0,1,0,.28.28A.27.27,0,0,0,13.17,46.74Z"/><path class="cls-7" d="M13.65,41.94h-1a.07.07,0,0,1-.07-.06.07.07,0,0,1,.07-.07h1a.07.07,0,0,1,.07.07A.07.07,0,0,1,13.65,41.94Z"/><path class="cls-7" d="M13.17,42.42a.07.07,0,0,1-.06-.07v-1a.07.07,0,0,1,.06-.07.07.07,0,0,1,.07.07v1A.07.07,0,0,1,13.17,42.42Z"/><line class="cls-4" x1="5.65" y1="67.89" x2="5.65" y2="44.87"/><line class="cls-4" x1="9.42" y1="44.87" x2="9.42" y2="67.89"/><polyline class="cls-4" points="5.65 44.87 5.71 44.42 5.86 43.98 6.13 43.63 6.47 43.32 6.86 43.12 7.3 43 7.75 43 8.19 43.12 8.6 43.32 8.94 43.63 9.19 43.98 9.36 44.42 9.41 44.87"/><line class="cls-8" x1="6.88" y1="46.83" x2="6.88" y2="60.1"/><line class="cls-8" x1="8.17" y1="46.83" x2="6.88" y2="46.83"/><line class="cls-8" x1="8.17" y1="60.1" x2="8.17" y2="46.83"/></g></svg>