<?xml version="1.0" encoding="utf-8"?>
<!-- Generator: Adobe Illustrator 26.5.0, SVG Export Plug-In . SVG Version: 6.00 Build 0)  -->
<svg version="1.1" id="レイヤー_1" xmlns="http://www.w3.org/2000/svg" xmlns:xlink="http://www.w3.org/1999/xlink" x="0px"
	 y="0px" viewBox="0 0 341.98 137.46" style="enable-background:new 0 0 341.98 137.46;" xml:space="preserve">
<style type="text/css">
	.st0{fill:#DCDDDD;}
	.st1{fill:none;stroke:#7D7D7D;stroke-width:0.25;stroke-miterlimit:10;}
	
		.st2{clip-path:url(#SVGID_00000168074547530720227490000013755401327856915385_);fill:none;stroke:#7D7D7D;stroke-width:0.25;stroke-miterlimit:10;}
	.st3{fill:none;stroke:#000000;stroke-width:0.283;}
	.st4{clip-path:url(#SVGID_00000103230832107875431690000013378243980455341184_);fill:none;stroke:#000000;stroke-width:0.283;}
	.st5{clip-path:url(#SVGID_00000103230832107875431690000013378243980455341184_);}
	.st6{clip-path:url(#SVGID_00000103230832107875431690000013378243980455341184_);fill:#FFFFFF;}
	
		.st7{clip-path:url(#SVGID_00000103230832107875431690000013378243980455341184_);fill:none;stroke:#000000;stroke-width:0.33;stroke-linecap:round;stroke-linejoin:round;stroke-miterlimit:10;}
	
		.st8{clip-path:url(#SVGID_00000103230832107875431690000013378243980455341184_);fill:none;stroke:#000000;stroke-width:0.66;stroke-linecap:round;stroke-linejoin:round;stroke-miterlimit:10;}
</style>
<path class="st0" d="M34.19,137.31h117.84v-13.09H34.19V137.31z M34.19,111.13h117.84V98.03H34.19V111.13z M217.49,111.13h117.84
	V98.03H217.49V111.13z M34.19,84.94h117.84V71.85H34.19V84.94z M217.49,84.94h117.84V71.85H217.49V84.94z M34.19,58.75h117.84V45.66
	H34.19V58.75z M217.49,58.75h117.84V45.66H217.49V58.75z M34.19,32.57h117.84V19.47H34.19V32.57z M217.49,32.57h117.84V19.47H217.49
	V32.57z"/>
<line class="st1" x1="217.38" y1="19.47" x2="335.45" y2="19.47"/>
<line class="st1" x1="217.38" y1="111.13" x2="335.45" y2="111.13"/>
<line class="st1" x1="217.38" y1="124.22" x2="335.45" y2="124.22"/>
<line class="st1" x1="217.38" y1="32.57" x2="335.45" y2="32.57"/>
<line class="st1" x1="217.38" y1="45.66" x2="335.45" y2="45.66"/>
<line class="st1" x1="217.38" y1="58.75" x2="335.45" y2="58.75"/>
<line class="st1" x1="217.38" y1="71.85" x2="335.45" y2="71.85"/>
<line class="st1" x1="217.38" y1="84.94" x2="335.45" y2="84.94"/>
<line class="st1" x1="217.38" y1="98.03" x2="335.45" y2="98.03"/>
<line class="st1" x1="34.07" y1="19.47" x2="152.14" y2="19.47"/>
<line class="st1" x1="34.07" y1="32.57" x2="152.14" y2="32.57"/>
<line class="st1" x1="34.07" y1="45.66" x2="152.14" y2="45.66"/>
<line class="st1" x1="34.07" y1="58.75" x2="152.14" y2="58.75"/>
<line class="st1" x1="34.07" y1="71.85" x2="152.14" y2="71.85"/>
<line class="st1" x1="34.07" y1="84.94" x2="152.14" y2="84.94"/>
<line class="st1" x1="34.07" y1="98.03" x2="152.14" y2="98.03"/>
<line class="st1" x1="34.07" y1="124.22" x2="152.14" y2="124.22"/>
<line class="st1" x1="34.07" y1="111.13" x2="152.14" y2="111.13"/>
<line class="st1" x1="34.07" y1="6.38" x2="152.14" y2="6.38"/>
<line class="st1" x1="34.19" y1="19.36" x2="34.19" y2="6.49"/>
<line class="st1" x1="152.03" y1="19.36" x2="152.03" y2="6.49"/>
<line class="st1" x1="34.19" y1="32.45" x2="34.19" y2="19.59"/>
<line class="st1" x1="152.03" y1="32.45" x2="152.03" y2="19.59"/>
<line class="st1" x1="34.19" y1="45.54" x2="34.19" y2="32.68"/>
<line class="st1" x1="152.03" y1="45.54" x2="152.03" y2="32.68"/>
<line class="st1" x1="34.19" y1="58.64" x2="34.19" y2="45.77"/>
<line class="st1" x1="152.03" y1="58.64" x2="152.03" y2="45.77"/>
<line class="st1" x1="34.19" y1="71.73" x2="34.19" y2="58.87"/>
<line class="st1" x1="152.03" y1="71.73" x2="152.03" y2="58.87"/>
<line class="st1" x1="34.19" y1="84.82" x2="34.19" y2="71.96"/>
<line class="st1" x1="152.03" y1="84.82" x2="152.03" y2="71.96"/>
<line class="st1" x1="34.19" y1="97.92" x2="34.19" y2="85.05"/>
<line class="st1" x1="152.03" y1="97.92" x2="152.03" y2="85.05"/>
<line class="st1" x1="34.19" y1="111.01" x2="34.19" y2="98.15"/>
<line class="st1" x1="152.03" y1="111.01" x2="152.03" y2="98.15"/>
<line class="st1" x1="34.19" y1="124.1" x2="34.19" y2="111.24"/>
<line class="st1" x1="152.03" y1="124.1" x2="152.03" y2="111.24"/>
<g>
	<defs>
		<rect id="SVGID_1_" x="0.02" y="0.01" width="341.95" height="137.45"/>
	</defs>
	<clipPath id="SVGID_00000096768666389942670750000002329217332291088563_">
		<use xlink:href="#SVGID_1_"  style="overflow:visible;"/>
	</clipPath>
	
		<line style="clip-path:url(#SVGID_00000096768666389942670750000002329217332291088563_);fill:none;stroke:#7D7D7D;stroke-width:0.25;stroke-miterlimit:10;" x1="34.19" y1="137.2" x2="34.19" y2="124.33"/>
	
		<line style="clip-path:url(#SVGID_00000096768666389942670750000002329217332291088563_);fill:none;stroke:#7D7D7D;stroke-width:0.25;stroke-miterlimit:10;" x1="152.03" y1="137.2" x2="152.03" y2="124.33"/>
	
		<line style="clip-path:url(#SVGID_00000096768666389942670750000002329217332291088563_);fill:none;stroke:#7D7D7D;stroke-width:0.25;stroke-miterlimit:10;" x1="34.07" y1="137.31" x2="152.14" y2="137.31"/>
</g>
<line class="st1" x1="217.38" y1="6.38" x2="335.45" y2="6.38"/>
<line class="st1" x1="217.49" y1="19.36" x2="217.49" y2="6.49"/>
<line class="st1" x1="335.33" y1="19.36" x2="335.33" y2="6.49"/>
<line class="st1" x1="217.49" y1="32.45" x2="217.49" y2="19.59"/>
<line class="st1" x1="335.33" y1="32.45" x2="335.33" y2="19.59"/>
<line class="st1" x1="217.49" y1="45.54" x2="217.49" y2="32.68"/>
<line class="st1" x1="335.33" y1="45.54" x2="335.33" y2="32.68"/>
<line class="st1" x1="217.49" y1="58.64" x2="217.49" y2="45.77"/>
<line class="st1" x1="335.33" y1="58.64" x2="335.33" y2="45.77"/>
<line class="st1" x1="217.49" y1="71.73" x2="217.49" y2="58.87"/>
<line class="st1" x1="335.33" y1="71.73" x2="335.33" y2="58.87"/>
<line class="st1" x1="217.49" y1="84.82" x2="217.49" y2="71.96"/>
<line class="st1" x1="335.33" y1="84.82" x2="335.33" y2="71.96"/>
<line class="st1" x1="217.49" y1="97.92" x2="217.49" y2="85.05"/>
<line class="st1" x1="335.33" y1="97.92" x2="335.33" y2="85.05"/>
<line class="st1" x1="217.49" y1="111.01" x2="217.49" y2="98.15"/>
<line class="st1" x1="335.33" y1="111.01" x2="335.33" y2="98.15"/>
<line class="st1" x1="217.49" y1="124.1" x2="217.49" y2="111.24"/>
<line class="st1" x1="335.33" y1="124.1" x2="335.33" y2="111.24"/>
<g>
	<path d="M42.76,10.66c-0.17-0.11-0.55-0.27-1.05-0.27c-0.83,0-1.15,0.51-1.15,0.94c0,0.59,0.36,0.89,1.16,1.23
		c0.97,0.41,1.46,0.9,1.46,1.76c0,0.95-0.69,1.68-1.98,1.68c-0.54,0-1.13-0.17-1.43-0.38l0.18-0.54c0.32,0.21,0.8,0.37,1.29,0.37
		c0.8,0,1.27-0.43,1.27-1.08c0-0.59-0.32-0.95-1.1-1.27c-0.9-0.34-1.52-0.86-1.52-1.69c0-0.91,0.74-1.58,1.83-1.58
		c0.57,0,1,0.14,1.23,0.28L42.76,10.66z"/>
	<path d="M48.17,15.91H47.4l-1.96-3l-0.56,0.65v2.35h-0.65V9.92h0.65v2.92h0.03c0.15-0.23,0.31-0.45,0.46-0.64l1.82-2.28H48
		l-2.11,2.55L48.17,15.91z"/>
	<path d="M48.38,13.26h2.15v0.5h-2.15V13.26z"/>
	<path d="M54.62,15.91h-3.16V9.92h3.03v0.55h-2.37v2.03h2.23v0.54h-2.23v2.32h2.51V15.91z"/>
	<path d="M59.49,15.91h-0.75l-0.79-1.38c-0.3-0.5-0.49-0.83-0.68-1.19h-0.02c-0.17,0.36-0.35,0.68-0.64,1.19l-0.73,1.38h-0.75
		l1.78-3.03l-1.71-2.95h0.75l0.81,1.46c0.21,0.38,0.38,0.68,0.54,1.01h0.02c0.17-0.36,0.33-0.64,0.54-1.01l0.83-1.46h0.75
		l-1.76,2.92L59.49,15.91z"/>
	<path d="M62.17,10.49h2.67v5.5h-0.46v-0.35h-2.29v-0.52h2.29V11h-2.22V10.49z"/>
	<path d="M66.01,10.21c0.54,0.27,1.12,0.64,1.49,0.97l-0.24,0.46c-0.39-0.37-0.98-0.77-1.47-1.02L66.01,10.21z M65.95,15.5
		c1.74-0.9,2.4-2.6,2.84-4.7c0.1,0.09,0.27,0.2,0.35,0.25c-0.42,2.14-1.14,3.86-2.76,4.8c-0.02,0.06-0.05,0.12-0.09,0.15L65.95,15.5
		z"/>
	<path d="M72.52,10.75l0.3,0.16c-0.02,0.05-0.02,0.08-0.05,0.09c-0.29,2.33-0.88,4.18-2.23,5.38c-0.07-0.1-0.24-0.28-0.36-0.37
		c1.26-1.04,1.86-2.78,2.11-4.71H71c-0.23,0.81-0.53,1.53-0.89,2.1c-0.07-0.1-0.25-0.27-0.37-0.35c0.52-0.77,0.98-2.07,1.23-3.5
		l0.57,0.12c-0.02,0.06-0.09,0.1-0.17,0.1c-0.06,0.35-0.14,0.68-0.23,1.02h1.26L72.52,10.75z"/>
	<path d="M73.82,12.82h2.92v0.52h-2.92V12.82z"/>
	<path d="M78.64,10.87c-0.01,0.08-0.05,0.11-0.15,0.13c-0.03,2.48-0.17,4.23-0.79,5.29c-0.07-0.1-0.24-0.31-0.34-0.4
		c0.54-0.88,0.71-2.61,0.71-5.07L78.64,10.87z M79.19,9.74l0.57,0.06c0,0.07-0.05,0.13-0.14,0.15v5.17
		c0.58-0.68,0.89-1.84,1.08-3.05c0.09,0.09,0.27,0.19,0.37,0.25c-0.24,1.51-0.72,2.81-1.58,3.54c-0.01,0.06-0.02,0.09-0.07,0.13
		l-0.27-0.41l0.05-0.09V9.74z"/>
</g>
<g>
	<path d="M223.24,11.79c0.37,0.19,0.97,0.53,1.24,0.75L224.25,13c-0.27-0.22-0.88-0.6-1.23-0.78L223.24,11.79z M223.44,15.61
		c1.28-0.81,2.11-2.3,2.58-4.49c0.09,0.08,0.27,0.18,0.38,0.24c-0.5,2.17-1.38,3.78-2.57,4.58c0,0.07-0.06,0.15-0.09,0.18
		L223.44,15.61z M223.77,9.88c0.39,0.21,0.92,0.57,1.16,0.79l-0.23,0.46c-0.28-0.26-0.79-0.6-1.17-0.82L223.77,9.88z"/>
	<path d="M227.1,9.52c0.24,0.29,0.47,0.67,0.6,0.99l-0.24,0.13c-0.11-0.32-0.35-0.71-0.58-0.99L227.1,9.52z M227.8,9.15
		c0.24,0.29,0.47,0.64,0.6,0.98l-0.24,0.13c-0.12-0.31-0.36-0.71-0.6-0.99L227.8,9.15z"/>
	<path d="M231.78,10.8l0.53-0.02c0,0.06-0.05,0.13-0.12,0.16l0.2,1.37l1.26-0.39l0.07-0.08l0.32,0.2c-0.02,0.04-0.04,0.07-0.09,0.09
		c-0.15,0.92-0.37,1.68-0.65,2.26c-0.07-0.08-0.21-0.2-0.31-0.27c0.23-0.48,0.42-1.1,0.54-1.71l-1.07,0.33l0.58,3.74l-0.38,0.05
		l-0.57-3.65l-1.09,0.35l-0.12-0.44l1.15-0.35L231.78,10.8z"/>
	<path d="M235.08,10.54v-0.52h2.17l0.1-0.04l0.35,0.26c-0.02,0.04-0.07,0.07-0.11,0.09c-0.19,0.86-0.53,1.93-0.86,2.72
		c0.42,0.75,1.13,2.06,1.44,2.66l-0.35,0.42c-0.27-0.62-0.93-1.88-1.3-2.59c-0.42,0.93-0.97,1.89-1.6,2.58
		c-0.05-0.12-0.19-0.34-0.27-0.43c0.98-1.01,2-3.11,2.47-5.15H235.08z"/>
	<path d="M238.88,9.52c0.24,0.29,0.47,0.67,0.6,0.99l-0.24,0.13c-0.11-0.32-0.35-0.71-0.58-0.99L238.88,9.52z M239.58,9.15
		c0.24,0.29,0.47,0.64,0.6,0.98l-0.24,0.13c-0.12-0.31-0.36-0.71-0.6-0.99L239.58,9.15z"/>
	<path d="M247.8,11.43v0.5h-0.94l0.03,3.63c0,0.7-0.38,0.75-1.25,0.75c-0.03-0.15-0.08-0.33-0.13-0.49
		c0.09,0.01,0.21,0.01,0.33,0.01c0.53,0,0.61,0,0.61-0.28l-0.02-3.07c-0.36,1.05-0.97,2.05-1.71,2.83
		c-0.06-0.13-0.17-0.32-0.27-0.43c0.73-0.74,1.44-1.89,1.78-2.95h-1.52v-0.5h1.69l-0.02-1.8l0.59,0.03
		c-0.01,0.06-0.07,0.1-0.14,0.13l0.01,1.64H247.8z"/>
	<path d="M249.52,10.87c-0.01,0.08-0.05,0.11-0.15,0.13c-0.03,2.48-0.17,4.23-0.79,5.29c-0.07-0.1-0.24-0.31-0.34-0.4
		c0.54-0.88,0.71-2.61,0.71-5.07L249.52,10.87z M250.07,9.74l0.57,0.06c0,0.07-0.05,0.13-0.14,0.15v5.17
		c0.58-0.68,0.89-1.84,1.08-3.05c0.09,0.09,0.27,0.19,0.37,0.25c-0.24,1.51-0.72,2.81-1.58,3.54c-0.01,0.06-0.02,0.09-0.07,0.13
		l-0.27-0.41l0.05-0.09V9.74z"/>
	<path d="M255.37,11.37l0.2,0.06c0,0.03-0.01,0.07-0.02,0.11c-0.05,2.31-0.15,3.46-0.31,4.05c-0.13,0.42-0.32,0.54-0.52,0.54
		c-0.19,0-0.48-0.05-0.78-0.13c0.02-0.12,0.01-0.26-0.01-0.46c0.25,0.07,0.58,0.12,0.69,0.12c0.09,0,0.18-0.09,0.27-0.45
		c0.1-0.42,0.19-1.34,0.24-3.32h-1.03c-0.17,1.6-0.52,3.19-1.3,4.29c-0.07-0.1-0.23-0.28-0.36-0.39c0.75-0.95,1.11-2.47,1.25-3.9
		h-1.08v-0.51h1.12c0.05-0.6,0.06-1.23,0.06-1.8l0.61,0.05c0,0.07-0.06,0.13-0.16,0.14c-0.02,0.5-0.04,1.06-0.09,1.61h1.13
		L255.37,11.37z"/>
	<path d="M256.42,9.52c0.24,0.29,0.47,0.67,0.6,0.99l-0.24,0.13c-0.11-0.32-0.35-0.71-0.58-0.99L256.42,9.52z M257.12,9.15
		c0.24,0.29,0.47,0.64,0.6,0.98l-0.24,0.13c-0.12-0.31-0.36-0.71-0.6-0.99L257.12,9.15z"/>
	<path d="M260.45,10.21c0.54,0.27,1.12,0.64,1.49,0.97l-0.24,0.46c-0.39-0.37-0.98-0.77-1.47-1.02L260.45,10.21z M260.4,15.5
		c1.74-0.9,2.4-2.6,2.84-4.7c0.1,0.09,0.27,0.2,0.35,0.25c-0.42,2.14-1.14,3.86-2.76,4.8c-0.02,0.06-0.05,0.12-0.09,0.15L260.4,15.5
		z"/>
</g>
<g>
	<path d="M43.25,29.01h-3.16v-5.99h3.03v0.55h-2.37v2.03h2.23v0.54h-2.23v2.32h2.51V29.01z"/>
	<path d="M48.12,29.01h-0.75l-0.79-1.38c-0.3-0.5-0.49-0.83-0.68-1.19H45.9c-0.17,0.36-0.35,0.68-0.64,1.19l-0.73,1.38h-0.75
		l1.78-3.03l-1.71-2.95h0.75l0.81,1.46c0.21,0.38,0.38,0.68,0.54,1.01h0.02c0.17-0.36,0.33-0.64,0.54-1.01l0.83-1.46h0.75
		l-1.76,2.92L48.12,29.01z"/>
	<path d="M50.81,23.58h2.67v5.5h-0.46v-0.35h-2.29v-0.52h2.29v-4.12h-2.22V23.58z"/>
	<path d="M54.64,23.31c0.54,0.27,1.12,0.64,1.49,0.97l-0.24,0.46c-0.39-0.37-0.98-0.77-1.47-1.02L54.64,23.31z M54.59,28.59
		c1.74-0.9,2.4-2.6,2.84-4.7c0.1,0.09,0.27,0.2,0.35,0.25c-0.42,2.14-1.14,3.86-2.76,4.8c-0.02,0.06-0.05,0.12-0.09,0.15
		L54.59,28.59z"/>
	<path d="M59.01,22.77l0.57,0.05c-0.01,0.07-0.06,0.13-0.15,0.15v1.47h1.09v-1.79l0.51,0.04c-0.01,0.07-0.03,0.13-0.09,0.14v1.61
		h0.75v0.51h-0.75v0.3c0,1.57-0.23,3.2-1.32,4.09c-0.08-0.13-0.22-0.28-0.32-0.39c1.06-0.88,1.23-2.3,1.23-3.71v-0.29h-1.09v2.15
		h-0.42v-2.15h-0.71v-0.51h0.71V22.77z"/>
	<path d="M62.45,25.92h2.92v0.52h-2.92V25.92z"/>
	<path d="M67.21,22.59l0.62,0.05c0,0.07-0.06,0.13-0.16,0.15v2.31c0.54,0.28,1.42,0.78,1.87,1.06l-0.21,0.49
		c-0.42-0.29-1.14-0.72-1.66-1.01v3.8h-0.46V22.59z"/>
</g>
<g>
	<path d="M224.65,25.44c0.04-0.53,0.05-1.13,0.06-1.78c-0.46,0.17-0.97,0.34-1.4,0.45c-0.05-0.13-0.13-0.29-0.19-0.4
		c0.84-0.2,2.02-0.67,2.56-1.05l0.36,0.44c-0.02,0.02-0.06,0.04-0.1,0.03c-0.2,0.12-0.51,0.26-0.79,0.37
		c-0.01,0.7-0.02,1.34-0.06,1.93h1.26v0.52h-1.3c-0.12,1.44-0.43,2.66-1.2,3.47c-0.09-0.1-0.25-0.27-0.37-0.37
		c0.7-0.68,1.02-1.72,1.14-3.1h-1.48v-0.52H224.65z"/>
	<path d="M227.85,23.89l0.53-0.02c0,0.06-0.05,0.13-0.12,0.16l0.2,1.37l1.26-0.39l0.07-0.08l0.32,0.2
		c-0.02,0.04-0.04,0.07-0.09,0.09c-0.15,0.92-0.37,1.68-0.65,2.26c-0.07-0.08-0.21-0.2-0.31-0.27c0.23-0.48,0.42-1.1,0.54-1.71
		l-1.07,0.33l0.58,3.74l-0.38,0.05l-0.57-3.65l-1.09,0.35l-0.12-0.44l1.15-0.35L227.85,23.89z"/>
	<path d="M231.08,25.92h2.92v0.52h-2.92V25.92z"/>
	<path d="M236.43,25.44c0.04-0.53,0.05-1.13,0.06-1.78c-0.46,0.17-0.97,0.34-1.4,0.45c-0.05-0.13-0.13-0.29-0.19-0.4
		c0.84-0.2,2.02-0.67,2.56-1.05l0.36,0.44c-0.02,0.02-0.06,0.04-0.1,0.03c-0.2,0.12-0.51,0.26-0.79,0.37
		c-0.01,0.7-0.02,1.34-0.06,1.93h1.26v0.52h-1.3c-0.12,1.44-0.43,2.66-1.2,3.47c-0.09-0.1-0.25-0.27-0.37-0.37
		c0.7-0.68,1.02-1.72,1.14-3.1h-1.48v-0.52H236.43z"/>
	<path d="M243.88,24.53v0.5h-0.94l0.03,3.63c0,0.7-0.38,0.75-1.25,0.75c-0.03-0.15-0.08-0.33-0.13-0.49
		c0.09,0.01,0.21,0.01,0.33,0.01c0.53,0,0.61,0,0.61-0.28l-0.02-3.07c-0.36,1.05-0.97,2.05-1.71,2.83
		c-0.06-0.13-0.17-0.32-0.27-0.43c0.73-0.74,1.44-1.89,1.78-2.95h-1.52v-0.5h1.69l-0.02-1.8l0.59,0.03
		c-0.01,0.06-0.07,0.1-0.14,0.13l0.01,1.64H243.88z"/>
	<path d="M245.59,23.96c-0.01,0.08-0.05,0.11-0.15,0.13c-0.03,2.48-0.17,4.23-0.79,5.29c-0.07-0.1-0.24-0.31-0.34-0.4
		c0.54-0.88,0.71-2.61,0.71-5.07L245.59,23.96z M246.14,22.84l0.57,0.06c0,0.07-0.05,0.13-0.14,0.15v5.17
		c0.58-0.68,0.89-1.84,1.08-3.05c0.09,0.09,0.27,0.19,0.37,0.25c-0.24,1.51-0.72,2.81-1.58,3.54c-0.01,0.06-0.02,0.09-0.07,0.13
		l-0.27-0.41l0.05-0.09V22.84z"/>
	<path d="M251.44,24.46l0.2,0.06c0,0.03-0.01,0.07-0.02,0.11c-0.05,2.31-0.15,3.46-0.31,4.05c-0.13,0.42-0.32,0.54-0.52,0.54
		c-0.19,0-0.48-0.05-0.78-0.13c0.02-0.12,0.01-0.26-0.01-0.46c0.25,0.07,0.58,0.12,0.69,0.12c0.09,0,0.18-0.09,0.27-0.45
		c0.1-0.42,0.19-1.34,0.24-3.32h-1.03c-0.17,1.6-0.52,3.19-1.3,4.29c-0.07-0.1-0.23-0.28-0.36-0.39c0.75-0.95,1.11-2.47,1.25-3.9
		h-1.08v-0.51h1.12c0.05-0.6,0.06-1.23,0.06-1.8l0.61,0.05c0,0.07-0.06,0.13-0.16,0.14c-0.02,0.5-0.04,1.06-0.09,1.61h1.13
		L251.44,24.46z"/>
	<path d="M252.49,22.61c0.24,0.29,0.47,0.67,0.6,0.99l-0.24,0.13c-0.11-0.32-0.35-0.71-0.58-0.99L252.49,22.61z M253.19,22.24
		c0.24,0.29,0.47,0.64,0.6,0.98l-0.24,0.13c-0.12-0.31-0.36-0.71-0.6-0.99L253.19,22.24z"/>
	<path d="M256.52,23.31c0.54,0.27,1.12,0.64,1.49,0.97l-0.24,0.46c-0.39-0.37-0.98-0.77-1.47-1.02L256.52,23.31z M256.47,28.59
		c1.74-0.9,2.4-2.6,2.84-4.7c0.1,0.09,0.27,0.2,0.35,0.25c-0.42,2.14-1.14,3.86-2.76,4.8c-0.02,0.06-0.05,0.12-0.09,0.15
		L256.47,28.59z"/>
</g>
<g>
	<path d="M41.61,37.86c-0.01,0.07-0.06,0.13-0.17,0.14c-0.09,1.71-0.34,3.52-1.25,4.51c-0.07-0.1-0.25-0.31-0.35-0.39
		c0.83-0.8,1.12-2.59,1.17-4.34L41.61,37.86z M42.72,36.15l0.35,0.24c-0.02,0.03-0.04,0.06-0.07,0.08c-0.15,0.84-0.46,1.87-0.8,2.51
		c-0.09-0.09-0.24-0.2-0.36-0.27c0.27-0.5,0.59-1.34,0.68-2h-2.63V36.2h2.76L42.72,36.15z"/>
	<path d="M44.17,39.64c-0.03-0.47-0.18-1.18-0.39-1.78l0.34-0.1c0.22,0.59,0.37,1.29,0.42,1.8L44.17,39.64z M46.81,37.76
		c-0.01,0.05-0.05,0.07-0.1,0.08c-0.24,2.04-0.83,3.71-2.04,4.89c-0.06-0.11-0.21-0.24-0.33-0.31c1.19-1.08,1.79-2.66,2.01-4.77
		L46.81,37.76z M45.14,39.37c-0.02-0.56-0.1-1.33-0.24-1.92l0.35-0.05c0.13,0.62,0.22,1.33,0.23,1.91L45.14,39.37z"/>
	<path d="M47.82,36.47h2.57l0.07-0.06l0.35,0.22c-0.02,0.03-0.06,0.08-0.09,0.09c-0.26,2.99-1.01,4.69-2.36,5.67
		c-0.07-0.1-0.24-0.29-0.35-0.39c1.25-0.85,1.97-2.44,2.2-5.02h-2.39V36.47z"/>
	<path d="M52.15,37.11c-0.38,0-0.68-0.38-0.68-0.84c0-0.46,0.31-0.84,0.68-0.84s0.68,0.38,0.68,0.84
		C52.83,36.74,52.52,37.11,52.15,37.11z M52.15,36.87c0.27,0,0.46-0.28,0.46-0.61s-0.2-0.6-0.46-0.6c-0.27,0-0.46,0.27-0.46,0.6
		C51.69,36.61,51.89,36.87,52.15,36.87z"/>
	<path d="M55.66,38.12h2.6l0.06-0.06l0.32,0.24c-0.01,0.04-0.06,0.07-0.09,0.09c-0.27,2.09-0.86,3.4-2.24,4.09
		c-0.05-0.12-0.2-0.31-0.29-0.41c1.21-0.59,1.83-1.75,2.04-3.45h-2.41V38.12z M55.98,36.06h2.3v0.5h-2.3V36.06z"/>
	<path d="M61.05,38.67c-0.4,0.59-0.97,1.2-1.46,1.68c-0.06-0.13-0.16-0.27-0.28-0.42c1.2-1.08,2.33-2.73,2.88-4.09l0.53,0.27
		c-0.03,0.06-0.11,0.08-0.17,0.09c-0.29,0.64-0.71,1.36-1.08,1.91c0.02,0.01,0.08,0.04,0.13,0.07c-0.01,0.04-0.05,0.08-0.09,0.09
		v4.24h-0.46V38.67z"/>
	<path d="M64.32,35.69l0.62,0.05c0,0.07-0.06,0.13-0.16,0.15v2.31c0.54,0.28,1.42,0.78,1.87,1.06l-0.21,0.49
		c-0.42-0.29-1.14-0.72-1.66-1.01v3.8h-0.46V35.69z"/>
</g>
<g>
	<path d="M224.31,36.89c-0.02,0.06-0.06,0.13-0.15,0.15c-0.17,1.96-0.46,3.7-0.96,4.97c-0.05-0.13-0.24-0.31-0.34-0.44
		c0.46-1.17,0.79-2.85,0.94-4.87L224.31,36.89z M226.08,41.99c-0.14-1.47-0.59-3.65-0.97-5.13l0.32-0.25
		c0.42,1.53,0.92,3.61,1.08,4.98L226.08,41.99z"/>
	<path d="M227.15,39.01h2.92v0.52h-2.92V39.01z"/>
	<path d="M231.13,36.47h2.57l0.07-0.06l0.35,0.22c-0.02,0.03-0.05,0.08-0.09,0.09c-0.26,2.99-1.01,4.69-2.36,5.67
		c-0.07-0.1-0.24-0.29-0.35-0.39c1.25-0.85,1.97-2.44,2.2-5.02h-2.39V36.47z"/>
	<path d="M235.45,37.11c-0.38,0-0.68-0.38-0.68-0.84c0-0.46,0.31-0.84,0.68-0.84c0.38,0,0.68,0.38,0.68,0.84
		C236.14,36.74,235.82,37.11,235.45,37.11z M235.45,36.87c0.27,0,0.46-0.28,0.46-0.61s-0.2-0.6-0.46-0.6c-0.27,0-0.46,0.27-0.46,0.6
		C234.99,36.61,235.19,36.87,235.45,36.87z"/>
	<path d="M238.95,37.99c0.37,0.19,0.97,0.53,1.24,0.75l-0.23,0.45c-0.27-0.22-0.88-0.6-1.23-0.78L238.95,37.99z M239.15,41.8
		c1.28-0.81,2.11-2.3,2.58-4.49c0.09,0.08,0.27,0.18,0.38,0.24c-0.5,2.17-1.38,3.78-2.57,4.58c0,0.07-0.06,0.15-0.09,0.18
		L239.15,41.8z M239.48,36.08c0.39,0.21,0.92,0.57,1.16,0.79l-0.23,0.46c-0.28-0.26-0.79-0.6-1.17-0.82L239.48,36.08z"/>
	<path d="M243,36.68h2.67v5.5h-0.46v-0.35h-2.29v-0.52h2.29v-4.12H243V36.68z"/>
	<path d="M246.79,39.01h2.92v0.52h-2.92V39.01z"/>
	<path d="M251.55,35.69l0.62,0.05c0,0.07-0.06,0.13-0.16,0.15v2.31c0.54,0.28,1.42,0.78,1.87,1.06l-0.21,0.49
		c-0.42-0.29-1.14-0.72-1.66-1.01v3.8h-0.46V35.69z"/>
	<path d="M254.59,35.71c0.24,0.29,0.47,0.67,0.6,0.99l-0.24,0.13c-0.11-0.32-0.35-0.71-0.58-0.99L254.59,35.71z M255.29,35.34
		c0.24,0.29,0.47,0.64,0.6,0.98l-0.24,0.13c-0.12-0.31-0.36-0.71-0.6-0.99L255.29,35.34z"/>
</g>
<g>
	<path d="M42.76,49.95c-0.17-0.11-0.55-0.27-1.05-0.27c-0.83,0-1.15,0.51-1.15,0.94c0,0.59,0.36,0.89,1.16,1.23
		c0.97,0.41,1.46,0.9,1.46,1.76c0,0.95-0.69,1.68-1.98,1.68c-0.54,0-1.13-0.17-1.43-0.38l0.18-0.54c0.32,0.21,0.8,0.37,1.29,0.37
		c0.8,0,1.27-0.43,1.27-1.08c0-0.59-0.32-0.95-1.1-1.27c-0.9-0.34-1.52-0.86-1.52-1.69c0-0.91,0.74-1.58,1.83-1.58
		c0.57,0,1,0.14,1.23,0.28L42.76,49.95z"/>
	<path d="M48.17,55.2H47.4l-1.96-3l-0.56,0.65v2.35h-0.65v-5.99h0.65v2.92h0.03c0.15-0.23,0.31-0.45,0.46-0.64l1.82-2.28H48
		l-2.11,2.55L48.17,55.2z"/>
	<path d="M48.38,52.55h2.15v0.5h-2.15V52.55z"/>
	<path d="M54.62,55.2h-3.16v-5.99h3.03v0.55h-2.37v2.03h2.23v0.54h-2.23v2.32h2.51V55.2z"/>
	<path d="M59.49,55.2h-0.75l-0.79-1.38c-0.3-0.5-0.49-0.83-0.68-1.19h-0.02c-0.17,0.36-0.35,0.68-0.64,1.19l-0.73,1.38h-0.75
		l1.78-3.03l-1.71-2.95h0.75l0.81,1.46c0.21,0.38,0.38,0.68,0.54,1.01h0.02c0.17-0.36,0.33-0.64,0.54-1.01l0.83-1.46h0.75
		l-1.76,2.92L59.49,55.2z"/>
	<path d="M62.05,51.08c0.37,0.19,0.97,0.53,1.24,0.75l-0.23,0.45c-0.27-0.22-0.88-0.6-1.23-0.78L62.05,51.08z M62.25,54.9
		c1.28-0.81,2.11-2.3,2.58-4.49c0.09,0.08,0.27,0.18,0.38,0.24c-0.5,2.17-1.37,3.78-2.57,4.58c0,0.07-0.06,0.15-0.09,0.18
		L62.25,54.9z M62.57,49.17c0.39,0.21,0.92,0.57,1.16,0.79l-0.23,0.46c-0.28-0.26-0.79-0.6-1.17-0.82L62.57,49.17z"/>
	<path d="M65.9,48.8c0.24,0.29,0.47,0.67,0.6,0.99l-0.24,0.13c-0.11-0.32-0.35-0.71-0.58-0.99L65.9,48.8z M66.6,48.43
		c0.24,0.29,0.47,0.64,0.6,0.98l-0.24,0.13c-0.12-0.31-0.36-0.71-0.6-0.99L66.6,48.43z"/>
	<path d="M70.59,50.08l0.53-0.02c0,0.06-0.05,0.13-0.12,0.16l0.2,1.37l1.26-0.39l0.07-0.08l0.32,0.2c-0.02,0.04-0.04,0.07-0.09,0.09
		c-0.15,0.92-0.37,1.68-0.65,2.26c-0.07-0.08-0.21-0.2-0.31-0.27c0.23-0.48,0.42-1.1,0.54-1.71l-1.07,0.33l0.58,3.74l-0.38,0.05
		l-0.57-3.65l-1.09,0.35l-0.12-0.44l1.15-0.35L70.59,50.08z"/>
	<path d="M73.89,49.82V49.3h2.17l0.1-0.04l0.35,0.26c-0.02,0.04-0.07,0.07-0.11,0.09c-0.19,0.86-0.53,1.93-0.86,2.72
		c0.42,0.75,1.13,2.06,1.44,2.66l-0.35,0.42c-0.27-0.62-0.93-1.88-1.3-2.59c-0.42,0.93-0.97,1.89-1.6,2.58
		c-0.05-0.12-0.19-0.34-0.27-0.43c0.98-1.01,2-3.11,2.47-5.15H73.89z"/>
	<path d="M77.69,48.8c0.24,0.29,0.47,0.67,0.6,0.99l-0.24,0.13c-0.11-0.32-0.35-0.71-0.58-0.99L77.69,48.8z M78.39,48.43
		c0.24,0.29,0.47,0.64,0.6,0.98l-0.24,0.13c-0.12-0.31-0.36-0.71-0.6-0.99L78.39,48.43z"/>
</g>
<g>
	<path d="M223.46,49.13l0.6,0.05c-0.01,0.06-0.08,0.12-0.16,0.13v2.44c0.61-0.34,1.35-0.86,1.82-1.27l0.3,0.53
		c-0.02,0.02-0.06,0.03-0.09,0.03c-0.02,0-0.05-0.01-0.07-0.02c-0.53,0.41-1.35,0.91-1.96,1.2v1.78c0,0.58,0.14,0.71,0.54,0.71h0.94
		c0.2,0,0.46-0.02,0.68-0.07c-0.01,0.17,0,0.35,0.01,0.5c-0.14,0.03-0.45,0.05-0.67,0.05h-0.96c-0.69,0-0.97-0.28-0.97-1.23V49.13z"
		/>
	<path d="M227.1,48.8c0.24,0.29,0.47,0.67,0.6,0.99l-0.24,0.13c-0.11-0.32-0.35-0.71-0.58-0.99L227.1,48.8z M227.8,48.43
		c0.24,0.29,0.47,0.64,0.6,0.98l-0.24,0.13c-0.12-0.31-0.36-0.71-0.6-0.99L227.8,48.43z"/>
	<path d="M231.13,49.56h2.57l0.07-0.06l0.35,0.22c-0.02,0.03-0.05,0.08-0.09,0.09c-0.26,2.99-1.01,4.69-2.36,5.67
		c-0.07-0.1-0.24-0.29-0.35-0.39c1.25-0.85,1.97-2.44,2.2-5.02h-2.39V49.56z"/>
	<path d="M234.95,48.8c0.24,0.29,0.47,0.67,0.6,0.99l-0.24,0.13c-0.11-0.32-0.35-0.71-0.58-0.99L234.95,48.8z M235.65,48.43
		c0.24,0.29,0.47,0.64,0.6,0.98l-0.24,0.13c-0.12-0.31-0.36-0.71-0.6-0.99L235.65,48.43z"/>
	<path d="M238.97,51.21h2.6l0.06-0.06l0.32,0.24c-0.01,0.04-0.06,0.07-0.09,0.09c-0.27,2.09-0.86,3.4-2.24,4.09
		c-0.05-0.12-0.2-0.31-0.29-0.41c1.21-0.59,1.83-1.75,2.04-3.45h-2.41V51.21z M239.28,49.15h2.3v0.5h-2.3V49.15z"/>
	<path d="M242.91,49.56h2.57l0.07-0.06l0.35,0.22c-0.02,0.03-0.05,0.08-0.09,0.09c-0.26,2.99-1.01,4.69-2.36,5.67
		c-0.07-0.1-0.24-0.29-0.35-0.39c1.25-0.85,1.97-2.44,2.2-5.02h-2.39V49.56z"/>
	<path d="M248.36,50.08l0.55,0.02c-0.01,0.06-0.06,0.12-0.15,0.13l0.01,1.2h0.87v0.45h-0.87l0.03,3.28c0,0.64-0.45,0.66-1.07,0.66
		c-0.02-0.12-0.07-0.31-0.13-0.44c0.09,0,0.2,0.01,0.31,0.01c0.39,0,0.48,0,0.48-0.24l-0.02-2.64c-0.33,0.86-0.95,1.82-1.55,2.4
		c-0.05-0.11-0.17-0.27-0.26-0.37c0.6-0.58,1.34-1.7,1.68-2.66h-1.32v-0.45h1.45L248.36,50.08z"/>
	<path d="M250.76,49.5c0.54,0.27,1.12,0.64,1.49,0.97l-0.24,0.46c-0.39-0.37-0.98-0.77-1.47-1.02L250.76,49.5z M250.71,54.78
		c1.74-0.9,2.4-2.6,2.84-4.7c0.1,0.09,0.27,0.2,0.35,0.25c-0.42,2.14-1.14,3.86-2.76,4.8c-0.02,0.06-0.05,0.12-0.09,0.15
		L250.71,54.78z"/>
</g>
<g>
	<path d="M43.25,68.3h-3.16v-5.99h3.03v0.55h-2.37v2.03h2.23v0.54h-2.23v2.32h2.51V68.3z"/>
	<path d="M48.12,68.3h-0.75l-0.79-1.38c-0.3-0.5-0.49-0.83-0.68-1.19H45.9c-0.17,0.36-0.35,0.68-0.64,1.19l-0.73,1.38h-0.75
		l1.78-3.03l-1.71-2.95h0.75l0.81,1.46c0.21,0.38,0.38,0.68,0.54,1.01h0.02c0.17-0.36,0.33-0.64,0.54-1.01l0.83-1.46h0.75
		l-1.76,2.92L48.12,68.3z"/>
	<path d="M50.41,67.17c0.31-0.48,0.54-1.23,0.67-2.04l0.35,0.19c-0.14,0.85-0.39,1.7-0.71,2.23L50.41,67.17z M51.91,62.02l0.56,0.04
		c-0.01,0.08-0.06,0.13-0.13,0.13v1.4h1.27v0.52h-1.27v3.83c0,0.61-0.17,0.68-0.96,0.68c-0.02-0.13-0.06-0.33-0.12-0.5
		c0.1,0.01,0.2,0.01,0.3,0.01c0.13,0,0.23,0,0.27-0.01c0.07,0,0.09-0.05,0.09-0.18v-3.83h-1.24V63.6h1.24V62.02z M53.5,67.54
		c-0.14-0.6-0.49-1.62-0.74-2.22l0.35-0.22c0.27,0.59,0.6,1.52,0.75,2.1L53.5,67.54z"/>
	<path d="M55.04,63.3c-0.38,0-0.68-0.38-0.68-0.84c0-0.46,0.31-0.84,0.68-0.84c0.38,0,0.68,0.38,0.68,0.84
		C55.73,62.94,55.41,63.3,55.04,63.3z M55.04,63.06c0.27,0,0.46-0.28,0.46-0.61s-0.2-0.6-0.46-0.6c-0.27,0-0.46,0.27-0.46,0.6
		C54.58,62.8,54.78,63.06,55.04,63.06z"/>
	<path d="M58.84,65.83c-0.03-0.47-0.18-1.18-0.39-1.78l0.34-0.1c0.22,0.59,0.37,1.29,0.42,1.8L58.84,65.83z M61.48,63.95
		c-0.01,0.05-0.06,0.07-0.1,0.08c-0.24,2.04-0.83,3.71-2.04,4.89c-0.06-0.11-0.21-0.24-0.33-0.31c1.19-1.08,1.79-2.66,2.01-4.77
		L61.48,63.95z M59.81,65.56c-0.02-0.56-0.1-1.33-0.24-1.92l0.35-0.05c0.13,0.62,0.22,1.33,0.23,1.91L59.81,65.56z"/>
	<path d="M62.5,62.66h2.57l0.07-0.06l0.35,0.22c-0.02,0.03-0.05,0.08-0.09,0.09c-0.26,2.99-1.01,4.69-2.36,5.67
		c-0.07-0.1-0.24-0.29-0.35-0.39c1.25-0.85,1.97-2.44,2.2-5.02H62.5V62.66z"/>
	<path d="M66.82,63.3c-0.38,0-0.68-0.38-0.68-0.84c0-0.46,0.31-0.84,0.68-0.84c0.38,0,0.68,0.38,0.68,0.84
		C67.51,62.94,67.19,63.3,66.82,63.3z M66.82,63.06c0.27,0,0.46-0.28,0.46-0.61s-0.2-0.6-0.46-0.6c-0.27,0-0.46,0.27-0.46,0.6
		C66.36,62.8,66.57,63.06,66.82,63.06z"/>
</g>
<g>
	<path d="M223.3,62.92V62.4h2.17l0.1-0.04l0.35,0.26c-0.02,0.04-0.07,0.07-0.11,0.09c-0.19,0.86-0.53,1.93-0.86,2.72
		c0.42,0.75,1.13,2.06,1.44,2.66l-0.35,0.42c-0.27-0.62-0.93-1.88-1.3-2.59c-0.42,0.93-0.97,1.89-1.6,2.58
		c-0.05-0.12-0.19-0.34-0.27-0.43c0.98-1.01,2-3.11,2.47-5.15H223.3z"/>
	<path d="M227.98,61.88l0.62,0.05c0,0.07-0.06,0.13-0.16,0.15v2.31c0.54,0.27,1.42,0.78,1.87,1.06l-0.21,0.49
		c-0.42-0.29-1.14-0.72-1.66-1.01v3.8h-0.46V61.88z"/>
	<path d="M231.34,62.4l0.64,0.05c-0.01,0.08-0.09,0.13-0.18,0.15v3.42h-0.46V62.4z M233.26,62.1l0.65,0.05
		c-0.01,0.07-0.07,0.13-0.19,0.15v2.47c0,1.78-0.34,3.17-1.75,3.93c-0.06-0.13-0.22-0.28-0.35-0.39c1.28-0.67,1.63-1.89,1.63-3.54
		V62.1z"/>
	<path d="M235.05,62.6c0.54,0.27,1.12,0.64,1.49,0.97l-0.24,0.46c-0.39-0.37-0.98-0.77-1.47-1.02L235.05,62.6z M235,67.88
		c1.74-0.9,2.4-2.6,2.84-4.7c0.1,0.09,0.27,0.2,0.35,0.25c-0.42,2.14-1.14,3.86-2.76,4.8c-0.02,0.06-0.05,0.12-0.09,0.15L235,67.88z
		"/>
	<path d="M241.57,63.13l0.3,0.16c-0.02,0.05-0.02,0.08-0.05,0.09c-0.29,2.33-0.88,4.18-2.23,5.38c-0.07-0.1-0.24-0.28-0.36-0.37
		c1.26-1.04,1.86-2.78,2.11-4.72h-1.29c-0.23,0.81-0.53,1.53-0.89,2.1c-0.07-0.1-0.25-0.28-0.37-0.35c0.52-0.77,0.98-2.07,1.23-3.5
		l0.57,0.12c-0.02,0.06-0.09,0.1-0.17,0.1c-0.06,0.35-0.14,0.68-0.23,1.02h1.26L241.57,63.13z"/>
	<path d="M242.81,61.9c0.24,0.29,0.47,0.67,0.6,0.99l-0.24,0.13c-0.11-0.32-0.35-0.71-0.58-0.99L242.81,61.9z M243.51,61.53
		c0.24,0.29,0.47,0.64,0.6,0.98l-0.24,0.13c-0.12-0.31-0.36-0.71-0.6-0.99L243.51,61.53z"/>
	<path d="M250.31,64.05c-0.01,0.07-0.05,0.13-0.17,0.14c-0.09,1.71-0.34,3.52-1.25,4.51c-0.07-0.1-0.25-0.31-0.35-0.39
		c0.82-0.8,1.12-2.58,1.17-4.34L250.31,64.05z M251.42,62.35l0.35,0.24c-0.02,0.03-0.04,0.06-0.07,0.08
		c-0.15,0.84-0.46,1.87-0.8,2.51c-0.09-0.09-0.24-0.2-0.36-0.27c0.27-0.5,0.59-1.34,0.68-2h-2.62v-0.52h2.76L251.42,62.35z"/>
	<path d="M252.59,62.6c0.54,0.27,1.12,0.64,1.49,0.97l-0.24,0.46c-0.39-0.37-0.98-0.77-1.47-1.02L252.59,62.6z M252.54,67.88
		c1.74-0.9,2.4-2.6,2.84-4.7c0.1,0.09,0.27,0.2,0.35,0.25c-0.42,2.14-1.14,3.86-2.76,4.8c-0.02,0.06-0.05,0.12-0.09,0.15
		L252.54,67.88z"/>
	<path d="M256.96,62.06l0.57,0.05c-0.01,0.07-0.06,0.13-0.15,0.15v1.47h1.09v-1.79l0.51,0.04c-0.01,0.07-0.03,0.13-0.09,0.14v1.61
		h0.75v0.51h-0.75v0.3c0,1.57-0.23,3.2-1.32,4.09c-0.08-0.13-0.22-0.28-0.32-0.39c1.06-0.88,1.23-2.3,1.23-3.71v-0.29h-1.09v2.15
		h-0.42v-2.15h-0.71v-0.51h0.71V62.06z"/>
	<path d="M260.45,62.6c0.54,0.27,1.12,0.64,1.49,0.97l-0.24,0.46c-0.39-0.37-0.98-0.77-1.47-1.02L260.45,62.6z M260.4,67.88
		c1.74-0.9,2.4-2.6,2.84-4.7c0.1,0.09,0.27,0.2,0.35,0.25c-0.42,2.14-1.14,3.86-2.76,4.8c-0.02,0.06-0.05,0.12-0.09,0.15
		L260.4,67.88z"/>
	<path d="M264.38,62.66h2.57l0.07-0.06l0.35,0.22c-0.02,0.03-0.05,0.08-0.09,0.09c-0.26,2.99-1.01,4.69-2.36,5.67
		c-0.07-0.1-0.24-0.29-0.35-0.39c1.25-0.85,1.97-2.44,2.2-5.02h-2.39V62.66z"/>
	<path d="M268.2,61.9c0.24,0.29,0.47,0.67,0.6,0.99l-0.24,0.13c-0.11-0.32-0.35-0.71-0.58-0.99L268.2,61.9z M268.9,61.53
		c0.24,0.29,0.47,0.64,0.6,0.98l-0.24,0.13c-0.12-0.31-0.36-0.71-0.6-0.99L268.9,61.53z"/>
	<path d="M273.08,63.25c-0.01,0.08-0.05,0.11-0.15,0.13c-0.03,2.48-0.17,4.23-0.79,5.29c-0.07-0.1-0.24-0.31-0.34-0.4
		c0.54-0.88,0.71-2.61,0.71-5.07L273.08,63.25z M273.63,62.13l0.57,0.06c0,0.07-0.05,0.13-0.14,0.15v5.17
		c0.58-0.68,0.89-1.84,1.08-3.05c0.09,0.09,0.27,0.19,0.37,0.25c-0.24,1.51-0.72,2.81-1.58,3.54c-0.01,0.05-0.02,0.09-0.07,0.13
		l-0.27-0.41l0.05-0.09V62.13z"/>
</g>
<g>
	<path d="M42.76,76.14c-0.17-0.11-0.55-0.28-1.05-0.28c-0.83,0-1.15,0.51-1.15,0.94c0,0.59,0.36,0.89,1.16,1.23
		c0.97,0.41,1.46,0.9,1.46,1.76c0,0.95-0.69,1.68-1.98,1.68c-0.54,0-1.13-0.17-1.43-0.38l0.18-0.54c0.32,0.21,0.8,0.37,1.29,0.37
		c0.8,0,1.27-0.43,1.27-1.08c0-0.59-0.32-0.95-1.1-1.27c-0.9-0.34-1.52-0.86-1.52-1.69c0-0.91,0.74-1.58,1.83-1.58
		c0.57,0,1,0.14,1.23,0.28L42.76,76.14z"/>
	<path d="M48.17,81.39H47.4l-1.96-3l-0.56,0.65v2.35h-0.65V75.4h0.65v2.92h0.03c0.15-0.23,0.31-0.45,0.46-0.64l1.82-2.28H48
		l-2.11,2.55L48.17,81.39z"/>
	<path d="M48.38,78.74h2.15v0.5h-2.15V78.74z"/>
	<path d="M54.62,81.39h-3.16V75.4h3.03v0.55h-2.37v2.03h2.23v0.54h-2.23v2.32h2.51V81.39z"/>
	<path d="M59.49,81.39h-0.75l-0.79-1.38c-0.3-0.5-0.49-0.83-0.68-1.19h-0.02c-0.17,0.36-0.35,0.68-0.64,1.19l-0.73,1.38h-0.75
		l1.78-3.03l-1.71-2.96h0.75l0.81,1.46c0.21,0.38,0.38,0.68,0.54,1.01h0.02c0.17-0.36,0.33-0.64,0.54-1.01l0.83-1.46h0.75
		l-1.76,2.92L59.49,81.39z"/>
	<path d="M62.46,76.78c0.36,0.26,0.79,0.61,1.2,0.98c0.24-0.76,0.47-1.74,0.61-2.6l0.61,0.15c-0.02,0.07-0.1,0.13-0.21,0.14
		c-0.18,0.88-0.39,1.83-0.66,2.66c0.4,0.39,0.75,0.78,0.97,1.09l-0.28,0.5c-0.21-0.33-0.53-0.71-0.88-1.08
		c-0.38,1.09-0.92,2.21-1.57,3.06c-0.09-0.11-0.27-0.27-0.38-0.34c0.67-0.83,1.22-1.92,1.62-3.08c-0.43-0.43-0.88-0.83-1.26-1.11
		L62.46,76.78z"/>
	<path d="M66.11,75.98h2.65v5.41h-0.42v-0.44h-1.82v0.44h-0.41V75.98z M66.52,80.44h1.82v-3.97h-1.82V80.44z"/>
	<path d="M71.11,75.06l0.59,0.05c-0.01,0.06-0.06,0.12-0.13,0.13v1.34h0.86l0.09-0.03l0.28,0.09c0,0.04-0.02,0.09-0.04,0.11
		c-0.13,2.45-0.55,4.11-1.86,5.08c-0.09-0.12-0.25-0.28-0.38-0.39c1.23-0.84,1.7-2.38,1.79-4.38h-1.93v1.84h-0.41v-2.32h1.15V75.06z
		"/>
</g>
<g>
	<path d="M223.3,76.02V75.5h2.17l0.1-0.04l0.35,0.26c-0.02,0.04-0.07,0.07-0.11,0.09c-0.19,0.86-0.53,1.93-0.86,2.72
		c0.42,0.75,1.13,2.06,1.44,2.66l-0.35,0.42c-0.27-0.62-0.93-1.88-1.3-2.59c-0.42,0.93-0.97,1.89-1.6,2.58
		c-0.05-0.12-0.19-0.34-0.27-0.43c0.98-1.01,2-3.11,2.47-5.15H223.3z"/>
	<path d="M227.3,75.98h2.65v5.41h-0.42v-0.44h-1.82v0.44h-0.41V75.98z M227.71,80.44h1.82v-3.97h-1.82V80.44z"/>
	<path d="M232.3,75.06l0.59,0.05c-0.01,0.06-0.06,0.12-0.13,0.13v1.34h0.86l0.09-0.03l0.28,0.09c0,0.04-0.02,0.09-0.04,0.11
		c-0.13,2.45-0.55,4.11-1.86,5.08c-0.09-0.12-0.25-0.28-0.38-0.39c1.23-0.84,1.7-2.38,1.79-4.38h-1.93v1.84h-0.41v-2.32h1.15V75.06z
		"/>
	<path d="M236.91,76.02V75.5h2.17l0.1-0.04l0.35,0.26c-0.02,0.04-0.07,0.07-0.11,0.09c-0.19,0.86-0.53,1.93-0.86,2.72
		c0.42,0.75,1.13,2.06,1.44,2.66l-0.35,0.42c-0.27-0.62-0.93-1.88-1.3-2.59c-0.42,0.93-0.97,1.89-1.6,2.58
		c-0.05-0.12-0.19-0.34-0.27-0.43c0.98-1.01,2-3.11,2.47-5.15H236.91z"/>
	<path d="M241.6,74.98l0.62,0.05c0,0.07-0.06,0.13-0.16,0.15v2.31c0.54,0.27,1.42,0.78,1.87,1.06l-0.21,0.49
		c-0.42-0.29-1.14-0.72-1.66-1.01v3.8h-0.46V74.98z"/>
	<path d="M244.95,75.5l0.64,0.05c-0.01,0.08-0.09,0.13-0.18,0.15v3.42h-0.46V75.5z M246.87,75.2l0.65,0.05
		c-0.01,0.07-0.07,0.13-0.19,0.15v2.47c0,1.78-0.34,3.17-1.75,3.93c-0.06-0.13-0.22-0.28-0.35-0.39c1.28-0.67,1.63-1.89,1.63-3.54
		V75.2z"/>
	<path d="M248.67,75.69c0.54,0.28,1.12,0.64,1.49,0.97l-0.24,0.46c-0.39-0.37-0.98-0.77-1.47-1.02L248.67,75.69z M248.61,80.97
		c1.74-0.9,2.4-2.6,2.84-4.7c0.1,0.09,0.27,0.21,0.35,0.25c-0.42,2.14-1.14,3.86-2.76,4.8c-0.02,0.06-0.05,0.12-0.09,0.15
		L248.61,80.97z"/>
	<path d="M255.18,76.23l0.3,0.16c-0.02,0.05-0.02,0.08-0.05,0.09c-0.29,2.33-0.88,4.18-2.23,5.38c-0.07-0.1-0.24-0.28-0.36-0.37
		c1.26-1.04,1.86-2.78,2.11-4.72h-1.29c-0.23,0.81-0.53,1.53-0.89,2.1c-0.07-0.1-0.25-0.28-0.37-0.35c0.52-0.77,0.98-2.07,1.23-3.5
		l0.57,0.12c-0.02,0.06-0.09,0.1-0.17,0.1c-0.06,0.35-0.14,0.68-0.23,1.02h1.26L255.18,76.23z"/>
	<path d="M256.42,74.99c0.24,0.29,0.47,0.67,0.6,0.99l-0.24,0.13c-0.11-0.32-0.35-0.71-0.58-0.99L256.42,74.99z M257.12,74.62
		c0.24,0.29,0.47,0.64,0.6,0.98l-0.24,0.13c-0.12-0.31-0.36-0.71-0.6-0.99L257.12,74.62z"/>
	<path d="M260.48,76.02V75.5h2.17l0.1-0.04l0.35,0.26c-0.02,0.04-0.07,0.07-0.11,0.09c-0.19,0.86-0.53,1.93-0.86,2.72
		c0.42,0.75,1.13,2.06,1.44,2.66l-0.35,0.42c-0.27-0.62-0.93-1.88-1.3-2.59c-0.42,0.93-0.97,1.89-1.6,2.58
		c-0.05-0.12-0.19-0.34-0.27-0.43c0.98-1.01,2-3.11,2.47-5.15H260.48z"/>
</g>
<g>
	<path d="M43.25,94.49h-3.16V88.5h3.03v0.55h-2.37v2.03h2.23v0.54h-2.23v2.32h2.51V94.49z"/>
	<path d="M48.12,94.49h-0.75l-0.79-1.38c-0.3-0.5-0.49-0.83-0.68-1.19H45.9c-0.17,0.36-0.35,0.68-0.64,1.19l-0.73,1.38h-0.75
		l1.78-3.03l-1.71-2.96h0.75l0.81,1.46c0.21,0.38,0.38,0.68,0.54,1.01h0.02c0.17-0.36,0.33-0.64,0.54-1.01l0.83-1.46h0.75
		l-1.76,2.92L48.12,94.49z"/>
	<path d="M51.09,89.87c0.36,0.26,0.79,0.61,1.19,0.98c0.24-0.76,0.47-1.74,0.61-2.6l0.61,0.15c-0.02,0.07-0.1,0.13-0.21,0.14
		c-0.18,0.88-0.39,1.83-0.66,2.66c0.4,0.39,0.75,0.78,0.97,1.09l-0.28,0.5c-0.21-0.33-0.53-0.71-0.88-1.08
		c-0.38,1.09-0.92,2.21-1.57,3.06c-0.09-0.11-0.27-0.27-0.38-0.34c0.67-0.83,1.22-1.92,1.62-3.08c-0.43-0.43-0.88-0.83-1.26-1.11
		L51.09,89.87z"/>
	<path d="M54.74,89.08h2.65v5.41h-0.42v-0.44h-1.82v0.44h-0.41V89.08z M55.15,93.54h1.82v-3.97h-1.82V93.54z"/>
	<path d="M59.75,88.16l0.59,0.05c-0.01,0.06-0.06,0.12-0.13,0.13v1.34h0.86l0.09-0.03l0.28,0.09c0,0.04-0.02,0.09-0.04,0.11
		c-0.13,2.45-0.55,4.11-1.86,5.08c-0.09-0.12-0.25-0.28-0.38-0.39c1.23-0.84,1.7-2.38,1.79-4.38h-1.93V92H58.6v-2.32h1.15V88.16z"/>
</g>
<g>
	<path d="M225.86,89.32l0.3,0.16c-0.02,0.05-0.02,0.08-0.05,0.09c-0.29,2.33-0.88,4.18-2.23,5.38c-0.07-0.1-0.24-0.28-0.36-0.37
		c1.26-1.04,1.86-2.78,2.11-4.72h-1.29c-0.23,0.81-0.53,1.53-0.89,2.1c-0.07-0.1-0.25-0.28-0.37-0.35c0.52-0.77,0.98-2.07,1.23-3.5
		l0.57,0.12c-0.02,0.06-0.09,0.1-0.17,0.1c-0.06,0.35-0.14,0.68-0.23,1.02h1.26L225.86,89.32z"/>
	<path d="M227.22,88.89h2.55l0.07-0.06l0.35,0.23c-0.02,0.04-0.06,0.08-0.09,0.1c-0.09,3.04-0.58,4.49-2.11,5.65
		c-0.08-0.12-0.24-0.29-0.35-0.39c1.35-1.01,1.93-2.32,2.01-5.01h-1.99v2.15h-0.43V88.89z"/>
	<path d="M232.57,91.05c-0.4,0.59-0.97,1.2-1.46,1.68c-0.06-0.13-0.16-0.28-0.28-0.42c1.2-1.08,2.33-2.73,2.88-4.09l0.53,0.27
		c-0.03,0.06-0.11,0.08-0.17,0.09c-0.29,0.64-0.71,1.36-1.08,1.91c0.02,0.01,0.08,0.04,0.13,0.07c-0.01,0.04-0.05,0.08-0.09,0.09
		v4.24h-0.46V91.05z"/>
	<path d="M236.7,90.24c-0.01,0.07-0.05,0.13-0.17,0.14c-0.09,1.71-0.34,3.52-1.25,4.51c-0.07-0.1-0.25-0.31-0.35-0.39
		c0.82-0.8,1.12-2.58,1.17-4.34L236.7,90.24z M237.8,88.54l0.35,0.24c-0.02,0.03-0.04,0.06-0.07,0.08c-0.15,0.84-0.46,1.87-0.8,2.51
		c-0.09-0.09-0.24-0.2-0.36-0.27c0.27-0.5,0.59-1.34,0.68-2h-2.62v-0.52h2.76L237.8,88.54z"/>
</g>
<g>
	<path d="M43.25,107.58h-3.16v-5.99h3.03v0.55h-2.37v2.03h2.23v0.54h-2.23v2.32h2.51V107.58z"/>
	<path d="M48.12,107.58h-0.75l-0.79-1.38c-0.3-0.5-0.49-0.83-0.68-1.19H45.9c-0.17,0.36-0.35,0.68-0.64,1.19l-0.73,1.38h-0.75
		l1.78-3.03l-1.71-2.96h0.75l0.81,1.46c0.21,0.38,0.38,0.68,0.54,1.01h0.02c0.17-0.36,0.33-0.64,0.54-1.01l0.83-1.46h0.75
		l-1.76,2.92L48.12,107.58z"/>
	<path d="M50.75,101.74h2.67v0.52h-1.31v1.92h1.63v0.5h-1.63v2.15c0,0.32,0.06,0.4,0.35,0.4h0.67c0.12,0,0.35,0,0.48-0.04l0.01,0.49
		c-0.14,0.03-0.38,0.03-0.49,0.03h-0.74c-0.53,0-0.72-0.23-0.72-0.86v-2.17h-1.15v-0.5h1.15v-1.92h-0.92V101.74z"/>
	<path d="M55.76,102.82c-0.24,0.83-0.57,1.59-0.97,2.19c-0.06-0.09-0.25-0.26-0.35-0.32c0.63-0.83,1.04-2.16,1.25-3.54l0.56,0.11
		c-0.01,0.06-0.07,0.09-0.15,0.09c-0.05,0.31-0.13,0.66-0.2,0.97h1.31l0.08-0.03l0.32,0.22c-0.02,0.04-0.05,0.06-0.09,0.08
		c-0.12,0.96-0.31,1.78-0.54,2.5c0.19,0.15,0.46,0.39,0.6,0.53l-0.28,0.48c-0.13-0.15-0.33-0.35-0.5-0.5
		c-0.39,1-0.95,1.84-1.54,2.41c-0.09-0.11-0.25-0.25-0.38-0.35c0.58-0.49,1.19-1.39,1.56-2.39c-0.28-0.23-0.61-0.47-0.96-0.68
		l0.23-0.43c0.35,0.22,0.68,0.45,0.91,0.63c0.18-0.55,0.35-1.2,0.45-1.97H55.76z"/>
	<path d="M58.47,101.19c0.24,0.29,0.47,0.67,0.6,0.99l-0.24,0.13c-0.11-0.32-0.35-0.71-0.58-0.99L58.47,101.19z M59.17,100.82
		c0.24,0.29,0.47,0.64,0.6,0.98l-0.24,0.13c-0.12-0.31-0.36-0.71-0.6-0.99L59.17,100.82z"/>
	<path d="M62.5,101.89c0.54,0.28,1.12,0.64,1.49,0.97l-0.24,0.46c-0.39-0.37-0.98-0.77-1.47-1.02L62.5,101.89z M62.44,107.17
		c1.74-0.9,2.4-2.6,2.84-4.7c0.1,0.09,0.27,0.21,0.35,0.25c-0.42,2.14-1.14,3.86-2.76,4.8c-0.02,0.06-0.05,0.12-0.09,0.15
		L62.44,107.17z"/>
</g>
<g>
	<path d="M223.27,101.95h2.57l0.07-0.05l0.35,0.22c-0.02,0.03-0.05,0.08-0.09,0.09c-0.26,2.99-1.01,4.69-2.36,5.67
		c-0.07-0.1-0.24-0.29-0.35-0.39c1.25-0.85,1.97-2.44,2.2-5.02h-2.39V101.95z"/>
	<path d="M228.79,104.27c-0.02,0.07-0.05,0.11-0.14,0.13c-0.09,1.55-0.37,2.96-1.09,3.83c-0.05-0.09-0.22-0.24-0.34-0.31
		c0.68-0.83,0.99-2.09,1.05-3.71L228.79,104.27z M227.28,102.87h2.41l0.06-0.04l0.31,0.21c-0.02,0.03-0.04,0.05-0.06,0.06
		c-0.14,0.74-0.38,1.56-0.64,2.08c-0.08-0.09-0.24-0.19-0.34-0.24c0.26-0.46,0.45-1.04,0.54-1.61h-2.29V102.87z"/>
	<path d="M231.13,101.89c0.54,0.28,1.12,0.64,1.49,0.97l-0.24,0.46c-0.39-0.37-0.98-0.77-1.47-1.02L231.13,101.89z M231.07,107.17
		c1.74-0.9,2.4-2.6,2.84-4.7c0.1,0.09,0.27,0.21,0.35,0.25c-0.42,2.14-1.14,3.86-2.76,4.8c-0.02,0.06-0.05,0.12-0.09,0.15
		L231.07,107.17z"/>
	<path d="M236.17,102.82c-0.24,0.83-0.57,1.59-0.97,2.19c-0.06-0.09-0.25-0.26-0.35-0.32c0.63-0.83,1.04-2.16,1.25-3.54l0.56,0.11
		c-0.01,0.06-0.07,0.09-0.15,0.09c-0.05,0.31-0.13,0.66-0.2,0.97h1.31l0.08-0.03l0.32,0.22c-0.02,0.04-0.05,0.06-0.09,0.08
		c-0.12,0.96-0.31,1.78-0.54,2.5c0.19,0.15,0.46,0.39,0.6,0.53l-0.28,0.48c-0.13-0.15-0.33-0.35-0.5-0.5
		c-0.39,1-0.95,1.84-1.54,2.41c-0.09-0.11-0.25-0.25-0.38-0.35c0.58-0.49,1.19-1.39,1.56-2.39c-0.28-0.23-0.61-0.47-0.96-0.68
		l0.23-0.43c0.35,0.22,0.68,0.45,0.91,0.63c0.18-0.55,0.35-1.2,0.45-1.97H236.17z"/>
	<path d="M238.95,103.46c0.37,0.19,0.97,0.54,1.24,0.75l-0.23,0.45c-0.27-0.22-0.88-0.6-1.23-0.78L238.95,103.46z M239.15,107.28
		c1.28-0.81,2.11-2.3,2.58-4.49c0.09,0.08,0.27,0.18,0.38,0.24c-0.5,2.17-1.38,3.78-2.57,4.58c0,0.07-0.06,0.15-0.09,0.18
		L239.15,107.28z M239.48,101.56c0.39,0.21,0.92,0.57,1.16,0.79l-0.23,0.46c-0.28-0.26-0.79-0.6-1.17-0.82L239.48,101.56z"/>
	<path d="M242.81,101.19c0.24,0.29,0.47,0.67,0.6,0.99l-0.24,0.13c-0.11-0.32-0.35-0.71-0.58-0.99L242.81,101.19z M243.51,100.82
		c0.24,0.29,0.47,0.64,0.6,0.98l-0.24,0.13c-0.12-0.31-0.36-0.71-0.6-0.99L243.51,100.82z"/>
	<path d="M246.79,104.49h2.92v0.52h-2.92V104.49z"/>
</g>
<g>
	<path d="M41.08,115.92c-0.24,0.83-0.57,1.59-0.97,2.19c-0.06-0.09-0.25-0.26-0.35-0.32c0.63-0.83,1.04-2.16,1.25-3.54l0.56,0.11
		c-0.01,0.06-0.07,0.09-0.15,0.09c-0.06,0.31-0.13,0.66-0.2,0.97h1.31l0.08-0.03l0.32,0.22c-0.02,0.04-0.06,0.06-0.09,0.08
		c-0.12,0.96-0.31,1.78-0.54,2.5c0.19,0.15,0.46,0.39,0.6,0.53l-0.28,0.48c-0.13-0.15-0.33-0.35-0.5-0.5
		c-0.39,1-0.95,1.84-1.54,2.41c-0.09-0.11-0.25-0.25-0.39-0.35c0.58-0.49,1.19-1.39,1.56-2.39c-0.28-0.23-0.6-0.47-0.96-0.68
		l0.23-0.43c0.35,0.22,0.68,0.45,0.91,0.63c0.18-0.55,0.35-1.2,0.45-1.97H41.08z"/>
	<path d="M45.34,117.25c-0.4,0.59-0.97,1.2-1.46,1.68c-0.06-0.13-0.16-0.28-0.28-0.42c1.2-1.08,2.33-2.73,2.88-4.09l0.53,0.27
		c-0.03,0.06-0.11,0.08-0.17,0.09c-0.29,0.64-0.71,1.36-1.08,1.91c0.02,0.01,0.08,0.04,0.13,0.07c-0.01,0.04-0.05,0.08-0.09,0.09
		v4.24h-0.46V117.25z"/>
	<path d="M47.82,114.98c0.54,0.28,1.12,0.64,1.49,0.97l-0.24,0.46c-0.39-0.37-0.98-0.77-1.47-1.02L47.82,114.98z M47.77,120.26
		c1.74-0.9,2.4-2.6,2.84-4.7c0.1,0.09,0.27,0.21,0.35,0.25c-0.42,2.14-1.14,3.86-2.76,4.8c-0.02,0.06-0.05,0.12-0.09,0.15
		L47.77,120.26z"/>
	<path d="M56.87,120.68h-3.16v-5.99h3.03v0.55h-2.37v2.03h2.23v0.54h-2.23v2.32h2.51V120.68z"/>
	<path d="M57.63,120.28c0-0.3,0.2-0.51,0.47-0.51c0.27,0,0.46,0.21,0.46,0.51c0,0.28-0.18,0.5-0.47,0.5
		C57.79,120.77,57.63,120.54,57.63,120.28z"/>
	<path d="M61.44,114.61l0.6,0.05c-0.01,0.06-0.08,0.12-0.16,0.13v2.44c0.61-0.34,1.35-0.86,1.82-1.27l0.3,0.53
		c-0.02,0.02-0.06,0.03-0.09,0.03c-0.02,0-0.05-0.01-0.07-0.02c-0.53,0.41-1.35,0.91-1.96,1.2v1.78c0,0.58,0.14,0.71,0.54,0.71h0.94
		c0.2,0,0.46-0.02,0.68-0.07c-0.01,0.17,0,0.35,0.01,0.5c-0.14,0.03-0.45,0.05-0.67,0.05h-0.96c-0.69,0-0.97-0.28-0.97-1.23V114.61z
		"/>
	<path d="M65.58,115.68c-0.38,0-0.68-0.38-0.68-0.84S65.2,114,65.58,114c0.38,0,0.68,0.38,0.68,0.84
		C66.26,115.32,65.95,115.68,65.58,115.68z M65.58,115.45c0.27,0,0.46-0.28,0.46-0.61s-0.2-0.6-0.46-0.6c-0.27,0-0.46,0.27-0.46,0.6
		C65.11,115.19,65.32,115.45,65.58,115.45z"/>
	<path d="M70.75,116.44c-0.01,0.07-0.05,0.13-0.17,0.14c-0.09,1.71-0.34,3.52-1.25,4.51c-0.07-0.1-0.25-0.31-0.35-0.39
		c0.82-0.8,1.12-2.58,1.17-4.34L70.75,116.44z M71.85,114.73l0.35,0.24c-0.02,0.03-0.04,0.06-0.07,0.08
		c-0.15,0.84-0.46,1.87-0.8,2.51c-0.09-0.09-0.24-0.2-0.36-0.27c0.27-0.5,0.59-1.34,0.68-2h-2.62v-0.52h2.76L71.85,114.73z"/>
	<path d="M75.98,114.61c-0.02,0.07-0.09,0.11-0.18,0.11c-0.52,2.78-1.43,4.97-2.54,6.32c-0.1-0.1-0.28-0.24-0.41-0.33
		c1.11-1.23,2.03-3.43,2.52-6.25L75.98,114.61z"/>
</g>
<g>
	<path d="M223.27,115.04h2.57l0.07-0.05l0.35,0.22c-0.02,0.03-0.05,0.08-0.09,0.09c-0.26,2.99-1.01,4.69-2.36,5.67
		c-0.07-0.1-0.24-0.29-0.35-0.39c1.25-0.85,1.97-2.44,2.2-5.02h-2.39V115.04z"/>
	<path d="M228.79,117.37c-0.02,0.07-0.05,0.11-0.14,0.13c-0.09,1.55-0.37,2.96-1.09,3.83c-0.05-0.09-0.22-0.24-0.34-0.31
		c0.68-0.83,0.99-2.09,1.05-3.71L228.79,117.37z M227.28,115.96h2.41l0.06-0.04l0.31,0.21c-0.02,0.03-0.04,0.05-0.06,0.06
		c-0.14,0.74-0.38,1.56-0.64,2.08c-0.08-0.09-0.24-0.19-0.34-0.24c0.26-0.46,0.45-1.04,0.54-1.61h-2.29V115.96z"/>
	<path d="M231.13,114.98c0.54,0.28,1.12,0.64,1.49,0.97l-0.24,0.46c-0.39-0.37-0.98-0.77-1.47-1.02L231.13,114.98z M231.07,120.26
		c1.74-0.9,2.4-2.6,2.84-4.7c0.1,0.09,0.27,0.21,0.35,0.25c-0.42,2.14-1.14,3.86-2.76,4.8c-0.02,0.06-0.05,0.12-0.09,0.15
		L231.07,120.26z"/>
	<path d="M236.17,115.92c-0.24,0.83-0.57,1.59-0.97,2.19c-0.06-0.09-0.25-0.26-0.35-0.32c0.63-0.83,1.04-2.16,1.25-3.54l0.56,0.11
		c-0.01,0.06-0.07,0.09-0.15,0.09c-0.05,0.31-0.13,0.66-0.2,0.97h1.31l0.08-0.03l0.32,0.22c-0.02,0.04-0.05,0.06-0.09,0.08
		c-0.12,0.96-0.31,1.78-0.54,2.5c0.19,0.15,0.46,0.39,0.6,0.53l-0.28,0.48c-0.13-0.15-0.33-0.35-0.5-0.5
		c-0.39,1-0.95,1.84-1.54,2.41c-0.09-0.11-0.25-0.25-0.38-0.35c0.58-0.49,1.19-1.39,1.56-2.39c-0.28-0.23-0.61-0.47-0.96-0.68
		l0.23-0.43c0.35,0.22,0.68,0.45,0.91,0.63c0.18-0.55,0.35-1.2,0.45-1.97H236.17z"/>
	<path d="M238.95,116.56c0.37,0.19,0.97,0.54,1.24,0.75l-0.23,0.45c-0.27-0.22-0.88-0.6-1.23-0.78L238.95,116.56z M239.15,120.38
		c1.28-0.81,2.11-2.3,2.58-4.49c0.09,0.08,0.27,0.18,0.38,0.24c-0.5,2.17-1.38,3.78-2.57,4.58c0,0.07-0.06,0.15-0.09,0.18
		L239.15,120.38z M239.48,114.65c0.39,0.21,0.92,0.57,1.16,0.79l-0.23,0.46c-0.28-0.26-0.79-0.61-1.17-0.82L239.48,114.65z"/>
	<path d="M242.81,114.28c0.24,0.29,0.47,0.67,0.6,0.99l-0.24,0.13c-0.11-0.32-0.35-0.71-0.58-0.99L242.81,114.28z M243.51,113.91
		c0.24,0.29,0.47,0.64,0.6,0.98l-0.24,0.13c-0.12-0.31-0.36-0.71-0.6-0.99L243.51,113.91z"/>
	<path d="M246.79,117.59h2.92v0.52h-2.92V117.59z"/>
	<path d="M255.92,120.68h-3.48v-0.4l0.57-0.61c1.4-1.41,2.11-2.27,2.11-3.23c0-0.63-0.27-1.21-1.12-1.21c-0.47,0-0.9,0.26-1.18,0.49
		l-0.22-0.46c0.36-0.32,0.9-0.57,1.52-0.57c1.19,0,1.66,0.86,1.66,1.67c0,1.11-0.78,2.05-2,3.28l-0.46,0.49v0.02h2.6V120.68z"/>
</g>
<g>
	<path d="M40,127.93h2.67v0.52h-1.31v1.92H43v0.5h-1.63v2.15c0,0.32,0.06,0.4,0.35,0.4h0.67c0.12,0,0.35,0,0.48-0.04l0.01,0.49
		c-0.14,0.03-0.38,0.03-0.49,0.03h-0.74c-0.53,0-0.72-0.23-0.72-0.86v-2.17h-1.15v-0.5h1.15v-1.92H40V127.93z"/>
	<path d="M45.01,129.01c-0.24,0.83-0.57,1.59-0.97,2.19c-0.06-0.09-0.25-0.26-0.35-0.32c0.63-0.83,1.04-2.16,1.25-3.54l0.56,0.11
		c-0.01,0.06-0.07,0.09-0.15,0.09c-0.06,0.31-0.13,0.66-0.2,0.97h1.31l0.08-0.03l0.32,0.22c-0.02,0.04-0.06,0.06-0.09,0.08
		c-0.12,0.96-0.31,1.78-0.54,2.5c0.19,0.15,0.46,0.39,0.6,0.53l-0.28,0.48c-0.13-0.15-0.33-0.35-0.5-0.5
		c-0.39,1-0.95,1.84-1.54,2.41c-0.09-0.11-0.25-0.25-0.39-0.35c0.58-0.49,1.19-1.39,1.56-2.39c-0.28-0.23-0.6-0.47-0.96-0.68
		l0.23-0.43c0.35,0.22,0.68,0.45,0.91,0.63c0.18-0.55,0.35-1.2,0.45-1.97H45.01z"/>
	<path d="M47.72,127.38c0.24,0.29,0.47,0.67,0.6,0.99l-0.24,0.13c-0.11-0.32-0.35-0.71-0.58-0.99L47.72,127.38z M48.42,127.01
		c0.24,0.29,0.47,0.64,0.6,0.98l-0.24,0.13c-0.12-0.31-0.36-0.71-0.6-0.99L48.42,127.01z"/>
	<path d="M51.75,128.08c0.54,0.28,1.12,0.64,1.49,0.97L53,129.52c-0.39-0.37-0.98-0.77-1.47-1.02L51.75,128.08z M51.7,133.36
		c1.74-0.9,2.4-2.6,2.84-4.7c0.1,0.09,0.27,0.21,0.35,0.25c-0.42,2.14-1.14,3.86-2.76,4.8c-0.02,0.06-0.05,0.12-0.09,0.15
		L51.7,133.36z"/>
	<path d="M60.79,133.78h-3.16v-5.99h3.03v0.55h-2.37v2.03h2.23v0.54h-2.23v2.32h2.51V133.78z"/>
	<path d="M61.55,133.37c0-0.3,0.2-0.51,0.47-0.51c0.27,0,0.46,0.21,0.46,0.51c0,0.28-0.18,0.5-0.47,0.5
		C61.72,133.87,61.55,133.63,61.55,133.37z"/>
	<path d="M65.36,127.71l0.6,0.05c-0.01,0.06-0.08,0.12-0.16,0.13v2.44c0.61-0.34,1.35-0.86,1.82-1.27l0.3,0.53
		c-0.02,0.02-0.06,0.03-0.09,0.03c-0.02,0-0.05-0.01-0.07-0.02c-0.53,0.41-1.35,0.91-1.96,1.2v1.78c0,0.58,0.14,0.71,0.54,0.71h0.94
		c0.2,0,0.46-0.02,0.68-0.07c-0.01,0.17,0,0.35,0.01,0.5c-0.14,0.03-0.45,0.05-0.67,0.05h-0.96c-0.69,0-0.97-0.28-0.97-1.23V127.71z
		"/>
	<path d="M69.5,128.78c-0.38,0-0.68-0.38-0.68-0.84s0.31-0.84,0.68-0.84c0.38,0,0.68,0.38,0.68,0.84
		C70.19,128.42,69.87,128.78,69.5,128.78z M69.5,128.54c0.27,0,0.46-0.28,0.46-0.61s-0.2-0.6-0.46-0.6c-0.27,0-0.46,0.27-0.46,0.6
		C69.04,128.28,69.24,128.54,69.5,128.54z"/>
	<path d="M74.67,129.53c-0.01,0.07-0.05,0.13-0.17,0.14c-0.09,1.71-0.34,3.52-1.25,4.51c-0.07-0.1-0.25-0.31-0.35-0.39
		c0.82-0.8,1.12-2.58,1.17-4.34L74.67,129.53z M75.78,127.83l0.35,0.24c-0.02,0.03-0.04,0.06-0.07,0.08
		c-0.15,0.84-0.46,1.87-0.8,2.51c-0.09-0.09-0.24-0.2-0.36-0.27c0.27-0.5,0.59-1.34,0.68-2h-2.62v-0.52h2.76L75.78,127.83z"/>
	<path d="M79.91,127.71c-0.02,0.07-0.09,0.11-0.18,0.11c-0.52,2.78-1.43,4.97-2.54,6.32c-0.1-0.1-0.28-0.24-0.41-0.33
		c1.11-1.23,2.03-3.43,2.52-6.25L79.91,127.71z"/>
</g>
<polygon points="12.24,38.18 3.28,48.57 21.2,48.57 "/>
<polygon points="8.77,45.34 8.77,121.44 15.71,116.81 15.71,45.34 "/>
<line class="st3" x1="20.03" y1="113.93" x2="4.45" y2="124.31"/>
<line class="st3" x1="20.03" y1="119.35" x2="4.45" y2="129.73"/>
<polygon points="194.39,91.66 202.84,82.44 185.93,82.44 "/>
<polygon points="197.66,85.31 197.66,7.56 191.11,11.67 191.11,85.31 "/>
<line class="st3" x1="187.04" y1="14.13" x2="201.73" y2="4.94"/>
<g>
	<defs>
		<rect id="SVGID_00000176045049729778241410000011664285716968644784_" x="0.02" y="0.01" width="341.95" height="137.45"/>
	</defs>
	<clipPath id="SVGID_00000113315360969584396530000018252464849326610071_">
		<use xlink:href="#SVGID_00000176045049729778241410000011664285716968644784_"  style="overflow:visible;"/>
	</clipPath>
	
		<line style="clip-path:url(#SVGID_00000113315360969584396530000018252464849326610071_);fill:none;stroke:#000000;stroke-width:0.283;" x1="187.04" y1="9.31" x2="201.73" y2="0.12"/>
	<path style="clip-path:url(#SVGID_00000113315360969584396530000018252464849326610071_);" d="M13.12,16.97
		c-0.15,0-0.29,0.06-0.38,0.18l-3.55,4.74c-0.16,0.21-0.12,0.51,0.09,0.66c0.08,0.06,0.18,0.1,0.28,0.1c0.14,0,0.29-0.07,0.38-0.19
		l3.17-4.23l3.17,4.23c0.09,0.12,0.23,0.19,0.38,0.19c0.1,0,0.2-0.03,0.28-0.1c0.21-0.16,0.25-0.45,0.1-0.66l-3.55-4.74
		C13.41,17.03,13.26,16.97,13.12,16.97"/>
	<path style="clip-path:url(#SVGID_00000113315360969584396530000018252464849326610071_);fill:#FFFFFF;" d="M9.34,11.16h7.56
		c0.96,0,2.06-0.86,2.29-1.41c0.19-0.45,0.34-0.88,0.38-1.01c-1.89-1.2-4.09-1.9-6.46-1.9c-2.37,0-4.57,0.7-6.46,1.9
		c0.05,0.13,0.2,0.57,0.39,1.01C7.27,10.3,8.38,11.16,9.34,11.16"/>
	
		<path style="clip-path:url(#SVGID_00000113315360969584396530000018252464849326610071_);fill:none;stroke:#000000;stroke-width:0.33;stroke-linecap:round;stroke-linejoin:round;stroke-miterlimit:10;" d="
		M24.62,20.01c0,6.67-5.15,12.08-11.5,12.08c-6.35,0-11.5-5.41-11.5-12.08c0-6.67,5.15-12.08,11.5-12.08
		C19.47,7.92,24.62,13.33,24.62,20.01z"/>
	
		<path style="clip-path:url(#SVGID_00000113315360969584396530000018252464849326610071_);fill:none;stroke:#000000;stroke-width:0.66;stroke-linecap:round;stroke-linejoin:round;stroke-miterlimit:10;" d="
		M25.91,20.01c0,7.42-5.73,13.44-12.79,13.44c-7.06,0-12.79-6.02-12.79-13.44c0-7.42,5.73-13.44,12.79-13.44
		C20.18,6.57,25.91,12.59,25.91,20.01z"/>
	<path style="clip-path:url(#SVGID_00000113315360969584396530000018252464849326610071_);" d="M199.63,105.46
		c-0.14,0-0.29,0.06-0.38,0.19l-3.17,4.23l-3.17-4.23c-0.09-0.12-0.24-0.19-0.38-0.19c-0.1,0-0.2,0.03-0.28,0.09
		c-0.21,0.16-0.25,0.45-0.09,0.66l3.55,4.73c0.09,0.12,0.23,0.19,0.38,0.19c0.15,0,0.29-0.07,0.38-0.19l3.55-4.73
		c0.16-0.21,0.12-0.51-0.09-0.66C199.83,105.49,199.73,105.46,199.63,105.46"/>
	<path style="clip-path:url(#SVGID_00000113315360969584396530000018252464849326610071_);fill:#FFFFFF;" d="M192.3,99.69h7.56
		c0.96,0,2.06-0.86,2.29-1.41c0.19-0.45,0.34-0.88,0.38-1.01c-1.89-1.2-4.09-1.9-6.46-1.9c-2.37,0-4.57,0.7-6.46,1.9
		c0.05,0.13,0.2,0.57,0.39,1.01C190.23,98.82,191.34,99.69,192.3,99.69"/>
	
		<path style="clip-path:url(#SVGID_00000113315360969584396530000018252464849326610071_);fill:none;stroke:#000000;stroke-width:0.33;stroke-linecap:round;stroke-linejoin:round;stroke-miterlimit:10;" d="
		M207.58,108.53c0,6.67-5.15,12.08-11.5,12.08c-6.35,0-11.5-5.41-11.5-12.08c0-6.67,5.15-12.08,11.5-12.08
		C202.43,96.45,207.58,101.86,207.58,108.53z"/>
	
		<path style="clip-path:url(#SVGID_00000113315360969584396530000018252464849326610071_);fill:none;stroke:#000000;stroke-width:0.66;stroke-linecap:round;stroke-linejoin:round;stroke-miterlimit:10;" d="
		M208.87,108.53c0,7.42-5.73,13.44-12.79,13.44c-7.06,0-12.79-6.02-12.79-13.44s5.73-13.44,12.79-13.44
		C203.14,95.09,208.87,101.11,208.87,108.53z"/>
</g>
</svg>
