<?xml version="1.0" encoding="utf-8"?>
<!-- Generator: Adobe Illustrator 24.2.0, SVG Export Plug-In . SVG Version: 6.00 Build 0)  -->
<svg version="1.1" id="Ebene_1" xmlns="http://www.w3.org/2000/svg" xmlns:xlink="http://www.w3.org/1999/xlink" x="0px" y="0px"
	 viewBox="0 0 841.89 595.28" style="enable-background:new 0 0 841.89 595.28;" xml:space="preserve">
<g>
	<g>
		<path d="M789.3,204.23v7.22H779.2v36.21h-9.08v-36.21h-10.11v-7.22H789.3z"/>
		<path d="M793.33,247.66v-43.43h14.62l6.8,29.53h0.12l7.22-29.53h14.14v43.43h-8.84v-33.5h-0.12l-8.36,33.5h-8.66l-7.94-33.5h-0.12
			v33.5H793.33z"/>
	</g>
	<g>
		<polygon points="377.64,307.27 377.16,307.27 353.37,204.15 289.19,204.15 289.19,372.41 330.53,372.41 330.53,252.46 
			331.01,252.46 359.86,372.41 393.27,372.41 423.8,252.46 424.28,252.46 424.28,372.41 465.62,372.41 465.62,204.15 403.12,204.15 
					"/>
		<rect x="487.25" y="204.15" width="43.51" height="168.26"/>
		<path d="M654.07,213.88c-9.13-6.49-21.96-9.73-38.46-9.73h-63.22v168.26h63.22c16.5,0,29.33-3.25,38.46-9.73
			c9.13-6.49,15.38-15.74,18.75-27.76c3.37-12.02,5.05-27.56,5.05-46.63c0-19.07-1.68-34.61-5.05-46.63
			C669.46,229.63,663.21,220.37,654.07,213.88z M633.76,315.56c-0.88,6.49-3.21,11.74-6.97,15.74c-3.77,4.01-9.58,6.01-17.43,6.01
			H594.7v-98.07h14.66c7.85,0,13.66,2.01,17.43,6.01c3.76,4.01,6.09,9.25,6.97,15.74c0.88,6.49,1.32,15.59,1.32,27.28
			C635.08,299.98,634.64,309.07,633.76,315.56z"/>
		<rect x="695.18" y="204.15" width="43.51" height="168.26"/>
		<path d="M204.65,194.52c-15.18,0-39.6,9.31-69.77,53.64c-0.96,1.41-1.91,2.84-2.85,4.29c-0.95-1.45-1.9-2.88-2.85-4.29
			C99,203.83,74.57,194.52,59.4,194.52c-11.59,0-21.72,5.28-29.29,15.28c-13.27,17.52-15.99,46.03-15.94,66.87
			c0.07,28.32,5.11,61.36,14.57,95.74h22.14c-0.28-0.96-0.56-1.92-0.83-2.89c-18.22-64.69-19.43-125.08-2.95-146.85
			c4.64-6.12,9.24-6.83,12.29-6.83c15.82,0,38.68,21.32,60.31,57.08c-15.71,28.3-29.28,61.68-39.11,96.6
			c-0.27,0.97-0.53,1.93-0.79,2.89h22.14c8.33-28.87,18.79-54.97,30.09-77.23c11.3,22.26,21.76,48.36,30.09,77.23h22.14
			c-0.27-0.96-0.52-1.92-0.79-2.89c-9.84-34.92-23.4-68.3-39.11-96.6c21.63-35.76,44.48-57.08,60.31-57.08
			c3.06,0,7.65,0.71,12.29,6.83c16.49,21.77,15.28,82.16-2.95,146.85c-0.27,0.97-0.55,1.93-0.83,2.89h22.14
			c9.45-34.37,14.49-67.42,14.57-95.74c0.05-20.83-2.67-49.35-15.94-66.87C226.37,199.8,216.24,194.52,204.65,194.52z"/>
	</g>
</g>
</svg>
