<?xml version="1.0" encoding="utf-8"?>
<!-- Generator: Adobe Illustrator 24.2.0, SVG Export Plug-In . SVG Version: 6.00 Build 0)  -->
<svg version="1.1" id="Ebene_1" xmlns="http://www.w3.org/2000/svg" xmlns:xlink="http://www.w3.org/1999/xlink" x="0px" y="0px"
	 viewBox="0 0 841.89 595.28" style="enable-background:new 0 0 841.89 595.28;" xml:space="preserve">
<g>
	<g>
		<g>
			<polygon points="377.84,307.22 377.36,307.22 353.55,204.04 289.33,204.04 289.33,372.4 330.7,372.4 330.7,252.39 331.18,252.39 
				360.04,372.4 393.47,372.4 424.02,252.39 424.5,252.39 424.5,372.4 465.87,372.4 465.87,204.04 403.34,204.04 			"/>
			<rect x="487.51" y="204.04" width="43.53" height="168.36"/>
			<path d="M654.43,213.78c-9.14-6.49-21.97-9.74-38.48-9.74h-63.26V372.4h63.26c16.51,0,29.34-3.25,38.48-9.74
				c9.14-6.49,15.39-15.75,18.76-27.78c3.37-12.02,5.05-27.58,5.05-46.66c0-19.08-1.68-34.63-5.05-46.66
				C669.83,229.54,663.57,220.28,654.43,213.78z M634.11,315.52c-0.88,6.5-3.21,11.75-6.97,15.75c-3.77,4.01-9.58,6.01-17.44,6.01
				h-14.67v-98.13h14.67c7.85,0,13.67,2.01,17.44,6.01c3.77,4.01,6.09,9.26,6.97,15.75c0.88,6.49,1.32,15.6,1.32,27.3
				C635.43,299.93,634.99,309.03,634.11,315.52z"/>
			<rect x="695.56" y="204.04" width="43.53" height="168.36"/>
			<path d="M204.75,194.41c-15.19,0-39.63,9.31-69.82,53.67c-0.96,1.41-1.91,2.84-2.86,4.29c-0.95-1.45-1.9-2.88-2.86-4.29
				c-30.19-44.36-54.63-53.67-69.82-53.67c-11.6,0-21.73,5.29-29.3,15.29c-13.28,17.53-16,46.06-15.95,66.91
				c0.07,28.34,5.11,61.4,14.57,95.8h22.15c-0.28-0.96-0.56-1.92-0.83-2.89c-18.23-64.73-19.44-125.15-2.95-146.94
				c4.64-6.13,9.24-6.84,12.3-6.84c15.83,0,38.7,21.34,60.34,57.12c-15.72,28.32-29.29,61.71-39.14,96.66
				c-0.27,0.97-0.53,1.93-0.79,2.89h22.15c8.33-28.88,18.8-55,30.11-77.27c11.3,22.27,21.78,48.39,30.11,77.27h22.15
				c-0.27-0.96-0.52-1.93-0.79-2.89c-9.84-34.94-23.42-68.34-39.14-96.66c21.64-35.78,44.51-57.12,60.34-57.12
				c3.06,0,7.66,0.71,12.3,6.84c16.5,21.78,15.28,82.21-2.95,146.94c-0.27,0.97-0.55,1.93-0.83,2.89h22.15
				c9.46-34.39,14.5-67.46,14.57-95.8c0.05-20.85-2.67-49.38-15.95-66.91C226.48,199.7,216.34,194.41,204.75,194.41z"/>
		</g>
	</g>
	<g>
		<path d="M791.43,199.23c-16.27,0-29.86,13.11-29.86,30.02c0,16.43,13.27,29.86,29.86,29.86c16.59,0,30.02-13.43,30.02-29.86
			C821.45,212.34,807.71,199.23,791.43,199.23z M791.43,255.37c-14.32,0-26.12-11.72-26.12-26.12c0-14.9,11.97-26.37,26.12-26.37
			c14.48,0,26.37,11.72,26.37,26.37C817.8,243.49,806.08,255.37,791.43,255.37z"/>
		<g>
			<path d="M800.22,213.51c1.22,0.52,2.25,1.29,3.09,2.31c0.7,0.84,1.25,1.76,1.66,2.78c0.41,1.02,0.61,2.17,0.61,3.47
				c0,1.57-0.4,3.11-1.19,4.63c-0.79,1.52-2.1,2.59-3.92,3.21c1.52,0.61,2.6,1.48,3.24,2.61c0.63,1.13,0.95,2.85,0.95,5.16v2.22
				c0,1.51,0.06,2.53,0.18,3.07c0.18,0.85,0.61,1.48,1.27,1.88v0.83h-7.62c-0.21-0.73-0.36-1.32-0.45-1.77
				c-0.18-0.93-0.28-1.87-0.29-2.85l-0.04-3.07c-0.03-2.11-0.39-3.51-1.09-4.21c-0.7-0.7-2.01-1.05-3.93-1.05h-6.74v12.95h-6.74
				v-33.02h15.79C797.27,212.7,799,212.99,800.22,213.51z M785.96,218.39v8.87h7.43c1.48,0,2.58-0.18,3.32-0.54
				c1.31-0.63,1.96-1.87,1.96-3.72c0-2-0.63-3.35-1.89-4.03c-0.71-0.39-1.77-0.58-3.19-0.58H785.96z"/>
		</g>
	</g>
</g>
</svg>
