<?xml version="1.0" standalone="no"?>
<!DOCTYPE svg PUBLIC "-//W3C//DTD SVG 20010904//EN"
 "http://www.w3.org/TR/2001/REC-SVG-20010904/DTD/svg10.dtd">
<svg version="1.0" xmlns="http://www.w3.org/2000/svg"
 width="3022.000000pt" height="743.000000pt" viewBox="0 0 3022.000000 743.000000"
 preserveAspectRatio="xMidYMid meet">

<g transform="translate(0.000000,743.000000) scale(0.100000,-0.100000)"
fill="#000000" stroke="none">
<path d="M1660 7405 c-556 -92 -1000 -482 -1278 -1125 -379 -877 -472 -2211
-266 -3825 85 -671 217 -1350 405 -2085 45 -173 83 -325 86 -337 l5 -23 459 0
c296 0 459 4 459 10 0 5 -20 81 -44 167 -316 1120 -520 2307 -577 3351 -15
282 -6 1002 15 1207 72 685 199 1127 418 1452 172 257 373 363 632 334 553
-62 1281 -687 2011 -1726 157 -224 419 -630 418 -650 0 -5 -42 -86 -93 -180
-578 -1063 -1117 -2402 -1500 -3729 -33 -115 -60 -216 -60 -223 0 -11 85 -13
458 -13 l457 0 54 182 c228 771 549 1634 880 2367 124 275 312 661 321 661 14
0 265 -529 425 -895 281 -644 588 -1488 781 -2148 l49 -167 457 0 c373 0 458
2 458 13 0 12 -100 365 -135 477 -304 977 -558 1654 -918 2450 -120 266 -389
809 -512 1035 -48 88 -87 165 -87 170 -1 6 23 48 52 95 850 1369 1725 2208
2375 2281 211 23 377 -39 524 -196 275 -295 448 -814 527 -1585 21 -211 30
-929 15 -1212 -57 -1048 -259 -2220 -577 -3351 -24 -86 -44 -162 -44 -167 0
-6 164 -10 460 -10 253 0 460 2 460 4 0 3 36 146 80 318 271 1065 425 1975
495 2928 22 297 31 941 16 1215 -60 1126 -315 1947 -754 2432 -237 262 -506
419 -837 490 -133 28 -447 26 -600 -5 -312 -63 -665 -225 -990 -456 -531 -377
-1087 -988 -1624 -1785 l-95 -141 -128 188 c-540 789 -1077 1373 -1608 1749
-308 218 -649 376 -950 439 -151 32 -439 42 -575 19z"/>
<path d="M11470 3515 l0 -3505 865 0 865 0 0 2500 c0 1660 3 2500 10 2500 6 0
10 -3 10 -6 0 -7 1188 -4950 1196 -4977 5 -16 45 -17 701 -15 l696 3 635 2497
c435 1708 640 2498 649 2498 11 0 13 -463 13 -2500 l0 -2500 860 0 860 0 0
3505 0 3505 -1304 0 -1304 0 -17 -72 c-125 -516 -1044 -4220 -1048 -4225 -4
-3 -10 -4 -13 -1 -3 4 -217 921 -475 2040 -258 1118 -481 2084 -495 2146 l-26
112 -1339 0 -1339 0 0 -3505z"/>
<path d="M19730 3515 l0 -3505 905 0 905 0 0 3505 0 3505 -905 0 -905 0 0
-3505z"/>
<path d="M22450 3515 l0 -3505 1394 0 c866 0 1453 4 1548 10 568 39 1003 178
1338 429 97 72 256 225 333 321 190 236 333 531 422 875 220 843 257 2326 84
3345 -95 562 -255 964 -505 1271 -68 83 -220 234 -299 295 -338 264 -768 409
-1344 454 -85 6 -659 10 -1553 10 l-1418 0 0 -3505z m2560 2035 c328 -40 544
-182 690 -453 148 -274 190 -626 190 -1582 1 -777 -33 -1186 -116 -1417 -100
-279 -283 -479 -510 -559 -161 -57 -210 -62 -646 -66 l-408 -5 0 2046 0 2046
358 0 c197 0 396 -5 442 -10z"/>
<path d="M28400 3515 l0 -3505 905 0 905 0 0 3505 0 3505 -905 0 -905 0 0
-3505z"/>
</g>
</svg>
