<?xml version="1.0" encoding="UTF-8" standalone="no"?>
<svg
   xmlns:dc="http://purl.org/dc/elements/1.1/"
   xmlns:cc="http://creativecommons.org/ns#"
   xmlns:rdf="http://www.w3.org/1999/02/22-rdf-syntax-ns#"
   xmlns:svg="http://www.w3.org/2000/svg"
   xmlns="http://www.w3.org/2000/svg"
   viewBox="0 0 453.54266 302.36267"
   height="302.36267"
   width="453.54266"
   xml:space="preserve"
   id="svg2"
   version="1.1"><metadata
     id="metadata8"><rdf:RDF><cc:Work
         rdf:about=""><dc:format>image/svg+xml</dc:format><dc:type
           rdf:resource="http://purl.org/dc/dcmitype/StillImage" /></cc:Work></rdf:RDF></metadata><defs
     id="defs6"><clipPath
       id="clipPath18"
       clipPathUnits="userSpaceOnUse"><path
         id="path16"
         d="M 0,226.772 H 340.157 V 0 H 0 Z" /></clipPath></defs><g
     transform="matrix(1.3333333,0,0,-1.3333333,0,302.36267)"
     id="g10"><g
       id="g12"><g
         clip-path="url(#clipPath18)"
         id="g14"><g
           transform="translate(241.7071,202.33)"
           id="g20"><path
             id="path22"
             style="fill:#222222;fill-opacity:1;fill-rule:nonzero;stroke:none"
             d="m 0,0 c -15.177,0 -39.603,-9.306 -69.775,-53.642 -0.957,-1.407 -1.907,-2.841 -2.854,-4.288 -0.947,1.447 -1.897,2.881 -2.855,4.288 C -105.656,-9.306 -130.081,0 -145.258,0 c -11.589,0 -21.716,-5.284 -29.286,-15.281 -13.267,-17.52 -15.989,-46.033 -15.937,-66.868 0.072,-28.319 5.112,-61.365 14.566,-95.739 h 22.139 c -0.278,0.961 -0.556,1.921 -0.829,2.889 -18.22,64.692 -19.431,125.078 -2.945,146.849 4.638,6.125 9.236,6.833 12.292,6.833 15.822,0 38.677,-21.323 60.306,-57.082 -15.711,-28.304 -29.277,-61.677 -39.112,-96.6 -0.272,-0.965 -0.527,-1.926 -0.792,-2.889 h 22.139 c 8.326,28.866 18.792,54.971 30.088,77.228 11.296,-22.257 21.762,-48.362 30.088,-77.228 h 22.139 c -0.265,0.963 -0.52,1.924 -0.792,2.889 -9.836,34.922 -23.402,68.296 -39.113,96.6 21.63,35.759 44.485,57.082 60.307,57.082 3.055,0 7.654,-0.708 12.292,-6.833 16.486,-21.771 15.275,-82.157 -2.945,-146.849 -0.273,-0.968 -0.552,-1.928 -0.829,-2.889 h 22.139 c 9.454,34.374 14.494,67.42 14.566,95.739 0.052,20.835 -2.67,49.348 -15.937,66.868 C 21.716,-5.284 11.589,0 0,0" /></g></g></g></g></svg>