<?xml version="1.0" encoding="UTF-8" standalone="no"?>
<svg
   xmlns:dc="http://purl.org/dc/elements/1.1/"
   xmlns:cc="http://creativecommons.org/ns#"
   xmlns:rdf="http://www.w3.org/1999/02/22-rdf-syntax-ns#"
   xmlns:svg="http://www.w3.org/2000/svg"
   xmlns="http://www.w3.org/2000/svg"
   viewBox="0 0 1122.52 793.70135"
   height="793.70135"
   width="1122.52"
   xml:space="preserve"
   id="svg2"
   version="1.1"><metadata
     id="metadata8"><rdf:RDF><cc:Work
         rdf:about=""><dc:format>image/svg+xml</dc:format><dc:type
           rdf:resource="http://purl.org/dc/dcmitype/StillImage" /></cc:Work></rdf:RDF></metadata><defs
     id="defs6"><clipPath
       id="clipPath24"
       clipPathUnits="userSpaceOnUse"><path
         id="path22"
         d="M 0,595.276 H 841.89 V 0 H 0 Z" /></clipPath></defs><g
     transform="matrix(1.3333333,0,0,-1.3333333,0,793.70133)"
     id="g10"><g
       transform="translate(422.1621,292.6966)"
       id="g12"><path
         id="path14"
         style="fill:#000000;fill-opacity:1;fill-rule:nonzero;stroke:none"
         d="M 0,0 H -0.482 L -24.293,103.182 H -88.511 V -65.18 h 41.369 V 54.839 h 0.481 L -17.799,-65.18 H 15.632 L 46.179,54.839 h 0.48 V -65.18 h 41.37 V 103.182 H 25.495 Z" /></g><path
       id="path16"
       style="fill:#000000;fill-opacity:1;fill-rule:nonzero;stroke:none"
       d="m 531.835,227.516 h 43.533 v 168.362 h -43.533 z" /><g
       id="g18"><g
         clip-path="url(#clipPath24)"
         id="g20"><g
           transform="translate(678.4302,284.3991)"
           id="g26"><path
             id="path28"
             style="fill:#000000;fill-opacity:1;fill-rule:nonzero;stroke:none"
             d="m 0,0 c -0.883,-6.495 -3.21,-11.749 -6.975,-15.754 -3.769,-4.011 -9.582,-6.014 -17.437,-6.014 h -14.672 v 98.132 h 14.672 c 7.855,0 13.668,-2.007 17.437,-6.014 C -3.21,66.342 -0.883,61.092 0,54.596 0.879,48.103 1.323,39 1.323,27.299 1.323,15.592 0.879,6.493 0,0 m 20.324,101.739 c -9.139,6.493 -21.969,9.74 -38.482,9.74 H -81.414 V -56.883 h 63.256 c 16.513,0 29.343,3.248 38.482,9.741 9.14,6.495 15.393,15.754 18.76,27.78 3.368,12.025 5.05,27.576 5.05,46.661 0,19.08 -1.682,34.634 -5.05,46.659 -3.367,12.027 -9.62,21.286 -18.76,27.781" /></g><path
           id="path30"
           style="fill:#000000;fill-opacity:1;fill-rule:nonzero;stroke:none"
           d="m 739.882,227.516 h 43.533 v 168.362 h -43.533 z" /><g
           transform="translate(249.0698,405.5102)"
           id="g32"><path
             id="path34"
             style="fill:#000000;fill-opacity:1;fill-rule:nonzero;stroke:none"
             d="m 0,0 c -15.186,0 -39.626,-9.312 -69.816,-53.674 -0.958,-1.408 -1.909,-2.843 -2.856,-4.29 -0.947,1.447 -1.898,2.882 -2.856,4.29 C -105.718,-9.312 -130.158,0 -145.345,0 c -11.595,0 -21.728,-5.287 -29.303,-15.29 -13.275,-17.531 -15.999,-46.061 -15.946,-66.908 0.072,-28.336 5.115,-61.402 14.574,-95.796 h 22.152 c -0.277,0.962 -0.556,1.923 -0.829,2.891 -18.231,64.73 -19.443,125.153 -2.947,146.937 4.641,6.127 9.242,6.836 12.299,6.836 15.832,0 38.701,-21.335 60.343,-57.115 -15.72,-28.321 -29.295,-61.714 -39.136,-96.658 -0.272,-0.966 -0.527,-1.927 -0.792,-2.891 h 22.152 c 8.331,28.883 18.803,55.004 30.106,77.274 11.303,-22.27 21.775,-48.391 30.106,-77.274 h 22.152 c -0.265,0.964 -0.52,1.925 -0.792,2.891 -9.842,34.943 -23.416,68.337 -39.136,96.658 21.642,35.78 44.511,57.115 60.342,57.115 3.057,0 7.658,-0.709 12.299,-6.836 16.496,-21.784 15.284,-82.207 -2.947,-146.937 -0.272,-0.968 -0.551,-1.929 -0.829,-2.891 h 22.152 c 9.46,34.394 14.503,67.46 14.574,95.796 0.053,20.847 -2.671,49.377 -15.946,66.908 C 21.729,-5.287 11.596,0 0,0" /></g></g></g></g></svg>