<?xml version="1.0" encoding="utf-8"?>
<!-- Generator: Adobe Illustrator 21.1.0, SVG Export Plug-In . SVG Version: 6.00 Build 0)  -->
<svg version="1.1" id="レイヤー_1" xmlns="http://www.w3.org/2000/svg" xmlns:xlink="http://www.w3.org/1999/xlink" x="0px"
	 y="0px" viewBox="0 0 54 54" style="enable-background:new 0 0 54 54;" xml:space="preserve">
<style type="text/css">
	.st0{fill:#000000;}
</style>
<g id="round-play_x5F_arrow-24px">
</g>
<g id="round-skip_x5F_previous-24px">
</g>
<g id="round-skip_x5F_next-24px">
</g>
<g id="round-repeat-24px">
</g>
<g id="round-shuffle-24px">
</g>
<g id="round-pause-24px">
</g>
<g id="round-apps-24px">
</g>
<g id="round-music_x5F_note-24px">
</g>
<g id="round-settings-24px">
</g>
<path class="st0" d="M52,50.9V33.5c0-3-2.5-5.5-5.5-5.5c-4.1,0-7.5-3.4-7.5-7.5c0-10.2-8.3-18.6-18.5-18.6
	c-10.3,0-18.6,8.4-18.6,18.6v30.4c0,0.7,0.6,1.2,1.2,1.2h47.8C51.5,52.1,52.1,51.5,52,50.9z M20.5,4.2c8.9,0,16.2,7.3,16.2,16.2
	c0,5.5,4.5,9.9,9.9,9.9c1.8,0,3.2,1.4,3.2,3.2v4.8H4.3c0-8.5,0-17.9,0-17.9C4.3,11.5,11.6,4.2,20.5,4.2z M4.3,49.7c0,0,0-5.3,0-9.4
	h5.1v5.9c0,0.8,0.6,1.4,1.4,1.4s1.4-0.6,1.4-1.4v-5.9h4.5v5.9c0,0.8,0.6,1.4,1.4,1.4c0.8,0,1.4-0.6,1.4-1.4v-5.9h9.6v5.9
	c0,0.8,0.6,1.4,1.4,1.4c0.7,0,1.3-0.6,1.4-1.4v-5.9h3.5v5.9c0,0.8,0.6,1.4,1.4,1.4c0.7,0,1.4-0.6,1.4-1.4v-5.9h3.5v5.9
	c0,0.8,0.6,1.4,1.4,1.4c0.7,0,1.4-0.6,1.4-1.4v-5.9h5.3v9.4H4.3z"/>
</svg>
