<svg id="グループ_2" data-name="グループ 2" xmlns="http://www.w3.org/2000/svg" width="34" height="34" viewBox="0 0 34 34">
  <metadata><?xpacket begin="﻿" id="W5M0MpCehiHzreSzNTczkc9d"?>
<x:xmpmeta xmlns:x="adobe:ns:meta/" x:xmptk="Adobe XMP Core 5.6-c138 79.159824, 2016/09/14-01:09:01        ">
   <rdf:RDF xmlns:rdf="http://www.w3.org/1999/02/22-rdf-syntax-ns#">
      <rdf:Description rdf:about=""/>
   </rdf:RDF>
</x:xmpmeta>
                                                                                                    
                                                                                                    
                                                                                                    
                                                                                                    
                                                                                                    
                                                                                                    
                                                                                                    
                                                                                                    
                                                                                                    
                                                                                                    
                                                                                                    
                                                                                                    
                                                                                                    
                                                                                                    
                                                                                                    
                                                                                                    
                                                                                                    
                                                                                                    
                                                                                                    
                                                                                                    
                           
<?xpacket end="w"?></metadata>
<defs>
    <style>
      .cls-1 {
        fill: #000000;
        fill-rule: evenodd;
      }
    </style>
  </defs>
  <path id="icon_piano" class="cls-1" d="M2.964,23.416V14.151c0-6.318,4.646-10.69,10.111-10.69a10.236,10.236,0,0,1,10.111,9.978,5.621,5.621,0,0,0,5.778,5.7,2.061,2.061,0,0,1,2.188,1.77l-0.021,2.506H2.964ZM13.074,2.036C6.822,2.036,1.522,7.009,1.522,13.12l0,18.136a0.726,0.726,0,0,0,.722.713h29.61a0.726,0.726,0,0,0,.722-0.713L32.563,20.91a3.318,3.318,0,0,0-3.332-3.294,4.522,4.522,0,0,1-4.545-4.5C24.7,7.01,19.381,2.038,13.074,2.036M26.8,28.405V24.842H23.907v3.564H22.463V24.842H19.574v3.564H18.13l0.007-3.451-6.506-.113v3.564H10.186V24.842H7.3v3.564H5.852V24.842l-2.9.113,0.014,5.589H31.129v-5.7H28.24v3.564H26.8Z"/>
</svg>
