<svg id="レイヤー_1" data-name="レイヤー 1" xmlns="http://www.w3.org/2000/svg" width="31.07mm" height="31.37mm" viewBox="0 0 88.07 88.91"><defs><style>.cls-1,.cls-2{fill:#dbdbdb;stroke:#000;}.cls-1,.cls-10,.cls-11,.cls-14,.cls-15,.cls-16,.cls-17,.cls-5,.cls-7,.cls-8,.cls-9{stroke-width:0.18px;}.cls-2{stroke-width:0.22px;}.cls-3{fill:#666;}.cls-4{fill:#8a8a8a;}.cls-16,.cls-17,.cls-18,.cls-4,.cls-5,.cls-7{stroke:#040000;}.cls-10,.cls-13,.cls-14,.cls-15,.cls-16,.cls-17,.cls-18,.cls-4,.cls-5,.cls-7,.cls-8{stroke-linecap:round;}.cls-10,.cls-11,.cls-12,.cls-13,.cls-14,.cls-15,.cls-16,.cls-17,.cls-18,.cls-4,.cls-5,.cls-7,.cls-8{stroke-linejoin:round;}.cls-12,.cls-13,.cls-18,.cls-4{stroke-width:0.09px;}.cls-14,.cls-24,.cls-5,.cls-8,.cls-9{fill:#fff;}.cls-13,.cls-16,.cls-18,.cls-19,.cls-20,.cls-23,.cls-6{fill:none;}.cls-7{fill:#b5b5b6;}.cls-10,.cls-11,.cls-8,.cls-9{stroke:#231815;}.cls-19,.cls-20,.cls-9{stroke-miterlimit:10;}.cls-10,.cls-11,.cls-12,.cls-21{fill:#231815;}.cls-12,.cls-13{stroke:#fff;}.cls-14,.cls-15,.cls-19,.cls-20,.cls-23{stroke:#4d4d4d;}.cls-15,.cls-17{fill:#999;}.cls-19,.cls-20,.cls-23{stroke-width:0.36px;}.cls-20{stroke-dasharray:0.18 0.36;}.cls-22{fill:#595757;}.cls-23{stroke-dasharray:0.18 0.36;}</style></defs><path class="cls-1" d="M49.38,88.81H72.74A2.08,2.08,0,0,0,74.46,87H90.72a1.71,1.71,0,0,0,1.46-1.49l-.05-7.24a1.57,1.57,0,0,0-1.55-1.64l-14.5-1.39c0-.53-.59-1.58-1.43-1.65l-1,0v-.25L57.49,71l0-1.83-.13-5H38.76l.08,5.19V78.7c0,8.65,8,10.12,10.79,10.12" transform="translate(-4.96)"/><path class="cls-2" d="M38.79,78.94" transform="translate(-4.96)"/><path class="cls-2" d="M57,72.16c-1.8,3.43-4.09,3.92-4.09,3.92" transform="translate(-4.96)"/><path class="cls-1" d="M72.9,75.35c-2.05,2.85-2.2,9.55-.57,11.84" transform="translate(-4.96)"/><path class="cls-1" d="M75.76,75.59c-2.05,2.86-2.45,8.82-1.63,10.46" transform="translate(-4.96)"/><ellipse class="cls-3" cx="91.48" cy="82.14" rx="4.95" ry="1.54" transform="translate(-1.02 168.46) rotate(-86.52)"/><ellipse class="cls-4" cx="43.11" cy="64.19" rx="9.31" ry="4.76"/><path class="cls-5" d="M55,53.05c0-1.94-3.09-3.51-6.91-3.51s-6.91,1.57-6.91,3.51l-.06,5.5V64c0,2,3.11,3.6,6.94,3.6S55,66,55,64v-11Z" transform="translate(-4.96)"/><path class="cls-6" d="M44.32,47.94" transform="translate(-4.96)"/><ellipse class="cls-7" cx="43.14" cy="52.84" rx="5.99" ry="2.72"/><polyline class="cls-8" points="45.7 53.24 45.6 51.5 46.67 51.62 46.8 53.6"/><rect class="cls-9" x="50.57" y="51.34" width="1.07" height="0.36" rx="0.13" transform="translate(6.2 -9.07) rotate(11.37)"/><polyline class="cls-8" points="45.41 55.3 45.32 53.41 46.39 53.53 46.52 54.93"/><rect class="cls-9" x="50.29" y="53.25" width="1.07" height="0.36" rx="0.13" transform="translate(6.57 -8.97) rotate(11.37)"/><polyline class="cls-8" points="38.38 54.34 38.29 51.51 39.35 51.63 39.49 54.98"/><rect class="cls-9" x="43.25" y="51.36" width="1.07" height="0.36" rx="0.13" transform="translate(6.06 -7.62) rotate(11.37)"/><polyline class="cls-8" points="40.61 53.3 40.52 50.76 41.58 50.88 41.72 53.15"/><rect class="cls-9" x="45.49" y="50.61" width="1.07" height="0.36" rx="0.13" transform="translate(5.95 -8.08) rotate(11.37)"/><polyline class="cls-8" points="40.02 55.03 39.93 53.25 40.99 53.37 41.13 55.29"/><rect class="cls-9" x="44.89" y="53.09" width="1.07" height="0.36" rx="0.13" transform="translate(6.43 -7.91) rotate(11.37)"/><polygon class="cls-10" points="42.74 52.55 43.3 52.63 43.96 51.59 43.45 51.54 42.74 52.55"/><polyline class="cls-11" points="42.74 55.46 42.74 52.55 43.96 51.59 43.96 55.53"/><line class="cls-12" x1="43.31" y1="55.17" x2="43.31" y2="52.73"/><polyline class="cls-13" points="42.74 52.55 43.3 52.63 43.96 51.59"/><g id="CIRCLE"><circle class="cls-14" cx="44.11" cy="9.38" r="9.29"/></g><g id="CIRCLE-2" data-name="CIRCLE"><circle class="cls-15" cx="44.11" cy="9.38" r="8.33"/></g><g id="ARC"><path class="cls-16" d="M55.91,7.69A7,7,0,0,0,42,9.36" transform="translate(-4.96)"/></g><g id="ARC-2" data-name="ARC"><path class="cls-14" d="M55.91,7.72a7,7,0,1,0,0,3.33" transform="translate(-4.96)"/></g><polyline class="cls-15" points="51.02 11.2 48.24 11.2 48.24 7.61 51.02 7.61"/><path class="cls-17" d="M56,11.2" transform="translate(-4.96)"/><path class="cls-17" d="M56,7.61" transform="translate(-4.96)"/><g id="LINE"><line class="cls-18" x1="36.93" y1="9.4" x2="36.93" y2="9.43"/></g><path d="M44,8.91c-1,.06-1.78.23-1.78.43s.75.37,1.77.42a.87.87,0,0,0,1.56,0c1,0,1.75-.22,1.75-.42s-.74-.37-1.77-.42a.85.85,0,0,0-.76-.47.89.89,0,0,0-.77.46" transform="translate(-4.96)"/><path d="M50.38,4.89c-1,.06-1.78.23-1.78.43s.75.36,1.77.42a.87.87,0,0,0,1.56,0c1-.06,1.75-.22,1.75-.42s-.74-.37-1.77-.43a.86.86,0,0,0-.76-.46.89.89,0,0,0-.77.46" transform="translate(-4.96)"/><path d="M45.73,5.55c-.69.77-1.1,1.42-1,1.57s.79-.27,1.55-1A.89.89,0,0,0,47.21,6a.87.87,0,0,0,.21-.89c.68-.76,1.09-1.4.95-1.54s-.79.27-1.56.95a.86.86,0,0,0-1.08,1.08" transform="translate(-4.96)"/><path d="M49.46,8.6c-.06-1-.23-1.78-.43-1.78s-.36.74-.42,1.77a.88.88,0,0,0-.48.78.9.9,0,0,0,.48.78c.06,1,.22,1.75.42,1.75s.37-.74.43-1.77a.87.87,0,0,0,.46-.76.89.89,0,0,0-.46-.77" transform="translate(-4.96)"/><path d="M50.38,13.81a.89.89,0,0,0,.77.46.85.85,0,0,0,.76-.47c1-.06,1.77-.22,1.77-.42S53,13,51.93,13a.88.88,0,0,0-1.56,0c-1,.06-1.77.23-1.77.43s.75.37,1.78.43" transform="translate(-4.96)"/><path d="M45.73,13.14A.89.89,0,0,0,46,14a.84.84,0,0,0,.86.21c.77.69,1.41,1.09,1.56.95s-.27-.78-.95-1.54a.87.87,0,0,0-.21-.89.89.89,0,0,0-.89-.21c-.76-.68-1.41-1.09-1.55-.95s.27.79,1,1.56" transform="translate(-4.96)"/><line class="cls-19" x1="43.98" y1="51.37" x2="43.98" y2="51.28"/><line class="cls-20" x1="43.98" y1="50.91" x2="43.98" y2="12.79"/><line class="cls-19" x1="43.98" y1="12.6" x2="43.98" y2="12.51"/><path class="cls-21" d="M5.6,70.47a1.88,1.88,0,0,1,1.76-2c1,0,1.57.74,1.57,1.82a2.21,2.21,0,0,1,0,.42H6.39a1.16,1.16,0,0,0,1.19,1.18,1.67,1.67,0,0,0,.92-.29l.28.51a2.33,2.33,0,0,1-1.3.41A1.86,1.86,0,0,1,5.6,70.47Zm2.63-.35c0-.66-.3-1.05-.86-1.05a1.06,1.06,0,0,0-1,1.05Z" transform="translate(-4.96)"/><path class="cls-21" d="M9.83,68.54h.65l.07.53h0a1.85,1.85,0,0,1,1.27-.63C12.66,68.44,13,69,13,70v2.42h-.81V70.07c0-.67-.19-.93-.65-.93a1.3,1.3,0,0,0-.94.52v2.73h-.8Z" transform="translate(-4.96)"/><path class="cls-21" d="M13.92,70.47a1.9,1.9,0,0,1,1.91-2,1.62,1.62,0,0,1,1.12.45l-.4.52a1,1,0,0,0-.68-.3c-.65,0-1.12.55-1.12,1.36s.45,1.36,1.09,1.36a1.35,1.35,0,0,0,.84-.35L17,72a2,2,0,0,1-1.26.48A1.83,1.83,0,0,1,13.92,70.47Z" transform="translate(-4.96)"/><path class="cls-21" d="M17.81,66.81h.81v1.48l0,.76a1.83,1.83,0,0,1,1.25-.61C20.65,68.44,21,69,21,70v2.42h-.8V70.07c0-.67-.2-.93-.65-.93a1.3,1.3,0,0,0-.94.52v2.73h-.81Z" transform="translate(-4.96)"/><path class="cls-21" d="M22.11,71V68.54h.81v2.33c0,.66.19.92.64.92s.6-.17.93-.57V68.54h.8v3.85h-.66l-.06-.58h0a1.61,1.61,0,0,1-1.26.68C22.47,72.49,22.11,72,22.11,71Z" transform="translate(-4.96)"/><path class="cls-21" d="M26.63,69.19h-.52v-.61l.52,0v-.48c0-.79.36-1.34,1.22-1.34a1.87,1.87,0,0,1,.68.13l-.16.61a1,1,0,0,0-.42-.1c-.34,0-.51.22-.51.69v.49h.78v.65h-.78v3.2h-.81Z" transform="translate(-4.96)"/><path class="cls-21" d="M28.69,71.37c0-.82.7-1.25,2.31-1.43,0-.45-.17-.84-.74-.84a2.1,2.1,0,0,0-1.11.39L28.84,69a3,3,0,0,1,1.56-.51c1,0,1.4.61,1.4,1.64v2.31h-.66L31.08,72h0a1.92,1.92,0,0,1-1.22.54A1.07,1.07,0,0,1,28.69,71.37Zm2.31,0v-1c-1.15.14-1.53.43-1.53.87s.26.53.6.53A1.36,1.36,0,0,0,31,71.4Z" transform="translate(-4.96)"/><path class="cls-21" d="M32.94,68.54h.66l.06.7h0a1.35,1.35,0,0,1,1.09-.8.93.93,0,0,1,.44.09l-.15.7a1.16,1.16,0,0,0-.38-.06c-.32,0-.7.21-.93.82v2.4h-.81Z" transform="translate(-4.96)"/><path class="cls-21" d="M5,11.37l.15-.6a1.82,1.82,0,0,0,.35.06c.36,0,.46-.26.46-.72V6h.8V10.1c0,.81-.31,1.37-1.16,1.37A1.77,1.77,0,0,1,5,11.37Zm.85-6.61a.46.46,0,0,1,.5-.48.48.48,0,1,1,0,1A.46.46,0,0,1,5.81,4.76Z" transform="translate(-4.96)"/><path class="cls-21" d="M7.71,8.79c0-.83.7-1.25,2.3-1.43,0-.45-.17-.84-.73-.84a2.13,2.13,0,0,0-1.12.39l-.3-.54a2.9,2.9,0,0,1,1.56-.51c1,0,1.4.61,1.4,1.63V9.81h-.66l-.06-.44h0a1.93,1.93,0,0,1-1.23.53A1.06,1.06,0,0,1,7.71,8.79Zm2.3,0v-1c-1.14.14-1.53.43-1.53.86s.26.54.61.54A1.34,1.34,0,0,0,10,8.82Z" transform="translate(-4.96)"/><path class="cls-21" d="M11.68,7.89a1.9,1.9,0,0,1,1.91-2,1.68,1.68,0,0,1,1.13.44l-.4.53a1,1,0,0,0-.69-.3c-.65,0-1.11.54-1.11,1.36S13,9.25,13.6,9.25a1.35,1.35,0,0,0,.84-.35l.34.53a1.93,1.93,0,0,1-1.25.47A1.82,1.82,0,0,1,11.68,7.89Z" transform="translate(-4.96)"/><path class="cls-21" d="M15.58,4.23h.79V7.82h0L17.89,6h.89l-1.3,1.57,1.45,2.28h-.87L17,8.07l-.64.74v1h-.79Z" transform="translate(-4.96)"/><path class="cls-22" d="M45,29.49c-2.24,2.16-3.32,6.09.68,11.53l-3.54-.36c-2.54-1.81-4-7.26-1.76-11.8l-3.59-.75,9.18-2.25,1.76,3.85Z" transform="translate(-4.96)"/><polyline class="cls-23" points="36.34 9.76 31.81 9.76 18.48 31.08 30.67 51.6 37.41 51.6"/><polyline class="cls-23" points="38.89 5.45 22.61 5.45 7.2 31.48 21.29 54.82 40.26 54.82"/><polyline class="cls-23" points="40.48 49.54 29.71 31.42 41.48 12.58"/><polyline class="cls-23" points="46.97 50.42 57.74 32.29 45.96 13.46"/><polyline class="cls-23" points="48.02 5.44 64.3 5.44 79.71 31.47 65.62 54.81 46.65 54.81"/><circle class="cls-24" cx="56.52" cy="31.67" r="2.94"/><path class="cls-21" d="M61.59,34.35a2.74,2.74,0,1,1,2.74-2.73A2.73,2.73,0,0,1,61.59,34.35ZM59,31.62a2.55,2.55,0,1,0,2.55-2.56A2.55,2.55,0,0,0,59,31.62Zm2.42-1.16h0l-.51.27-.07-.31.61-.32h.36v3h-.39Z" transform="translate(-4.96)"/><circle class="cls-24" cx="19.22" cy="31.86" r="2.94"/><path class="cls-21" d="M24.21,34.55a2.74,2.74,0,1,1,2.73-2.74A2.73,2.73,0,0,1,24.21,34.55Zm-2.55-2.74a2.55,2.55,0,1,0,2.55-2.55A2.55,2.55,0,0,0,21.66,31.81Zm2.79,1.52v-.8H22.89v-.26l1.55-2h.39v1.92h.46v.31h-.46v.8Zm0-1.11V31.06c0-.1,0-.26,0-.37h0c-.07.12-.14.24-.22.35l-1,1.17h1.19Z" transform="translate(-4.96)"/><circle class="cls-24" cx="30.57" cy="31.68" r="2.94"/><path class="cls-21" d="M35.56,34.37a2.74,2.74,0,1,1,2.73-2.74A2.74,2.74,0,0,1,35.56,34.37ZM33,31.63a2.56,2.56,0,1,0,2.56-2.55A2.55,2.55,0,0,0,33,31.63Zm3.48-1.15H35.25l-.11.77a1.17,1.17,0,0,1,.29,0c.59,0,1.12.31,1.12.93a1.05,1.05,0,0,1-1.15,1,1.57,1.57,0,0,1-.81-.2l.1-.3a1.49,1.49,0,0,0,.71.18.7.7,0,0,0,.75-.63c0-.39-.25-.68-.9-.68a3.08,3.08,0,0,0-.48,0L35,30.15h1.53Z" transform="translate(-4.96)"/><circle class="cls-24" cx="44.02" cy="31.98" r="2.94"/><path class="cls-21" d="M49,34.67a2.74,2.74,0,1,1,2.74-2.74A2.74,2.74,0,0,1,49,34.67Zm-2.55-2.74A2.55,2.55,0,1,0,49,29.38,2.55,2.55,0,0,0,46.46,31.93Zm3.32-1.19h-.1l-.28,0a1.16,1.16,0,0,0-1.07,1.06h0a1,1,0,0,1,.81-.35.91.91,0,0,1,1,.93A1.08,1.08,0,0,1,49,33.46c-.59,0-1.06-.41-1.06-1.27a1.63,1.63,0,0,1,1.42-1.76l.44,0Zm-.07,1.66a.65.65,0,0,0-.66-.66c-.36,0-.75.23-.75.54s.13.89.73.89A.72.72,0,0,0,49.71,32.4Z" transform="translate(-4.96)"/><circle class="cls-24" cx="78.64" cy="31.26" r="2.94"/><path class="cls-21" d="M83.63,34a2.73,2.73,0,1,1,2.73-2.73A2.73,2.73,0,0,1,83.63,34Zm-2.55-2.73a2.55,2.55,0,1,0,2.55-2.55A2.55,2.55,0,0,0,81.08,31.22ZM82.6,32.7v-.25l.33-.29c1-.85,1.25-1.14,1.25-1.53a.59.59,0,0,0-.67-.61,1.17,1.17,0,0,0-.71.28L82.68,30a1.44,1.44,0,0,1,.92-.33.88.88,0,0,1,1,.87c0,.57-.41.94-1.21,1.63l-.21.17h1.5v.33Z" transform="translate(-4.96)"/><circle class="cls-24" cx="8.13" cy="31.77" r="2.94"/><path class="cls-21" d="M13.12,34.46a2.74,2.74,0,1,1,2.73-2.73A2.74,2.74,0,0,1,13.12,34.46Zm-2.55-2.73a2.55,2.55,0,1,0,2.55-2.55A2.55,2.55,0,0,0,10.57,31.73Zm1.65,1a1.56,1.56,0,0,0,.73.2c.63,0,.75-.39.75-.56,0-.48-.5-.6-.88-.6h-.24v-.31h.25c.36,0,.75-.14.75-.49,0-.2-.13-.44-.58-.44a1.23,1.23,0,0,0-.66.2l-.11-.28a1.5,1.5,0,0,1,.84-.25c.67,0,.92.38.92.71a.75.75,0,0,1-.59.69h0a.81.81,0,0,1,.72.76c0,.43-.37.89-1.17.89a1.54,1.54,0,0,1-.84-.23Z" transform="translate(-4.96)"/></svg>