<svg id="レイヤー_1" data-name="レイヤー 1" xmlns="http://www.w3.org/2000/svg" width="23.02mm" height="33.27mm" viewBox="0 0 65.26 94.32"><defs><style>.cls-1{fill:#1b1b1b;}.cls-2{fill:#231815;}.cls-3{fill:#070001;}.cls-4{fill:none;stroke-width:0.5px;}.cls-4,.cls-5{stroke:#040000;stroke-linecap:round;stroke-linejoin:round;}.cls-5{fill:#949494;stroke-width:0.25px;}</style></defs><polygon class="cls-1" points="51.02 33.41 43.57 33.41 43.57 21.72 40.2 21.72 47.29 14.63 54.37 21.72 51.02 21.72 51.02 33.41"/><polygon class="cls-1" points="43.56 72.79 51 72.79 51 84.48 54.37 84.48 47.28 91.57 40.2 84.48 43.56 84.48 43.56 72.79"/><path class="cls-2" d="M32.36,34h.94L35,39.19h-.86l-.44-1.47H31.92l-.44,1.47h-.83Zm-.25,3h1.41l-.21-.69c-.17-.56-.33-1.14-.48-1.72h0c-.15.59-.31,1.16-.48,1.72Z"/><path class="cls-2" d="M35.57,37.76V35.34h.8v2.32c0,.66.19.93.64.93s.61-.17.93-.58V35.34h.81v3.85h-.66L38,38.61h0a1.63,1.63,0,0,1-1.25.67C35.92,39.28,35.57,38.74,35.57,37.76Z"/><path class="cls-2" d="M40,35.34h.66l.07.54h0a1.68,1.68,0,0,1,1.19-.64A1,1,0,0,1,43,36a1.77,1.77,0,0,1,1.26-.71c.8,0,1.18.54,1.18,1.53v2.42h-.81V36.86c0-.66-.21-.93-.64-.93a1.29,1.29,0,0,0-.87.53v2.73h-.8V36.86c0-.66-.21-.93-.65-.93a1.27,1.27,0,0,0-.86.53v2.73H40Z"/><path class="cls-2" d="M46.27,37.26a1.88,1.88,0,0,1,1.76-2c1,0,1.58.73,1.58,1.82a2.18,2.18,0,0,1,0,.41h-2.5a1.16,1.16,0,0,0,1.19,1.18,1.64,1.64,0,0,0,.91-.29l.28.51a2.28,2.28,0,0,1-1.3.41A1.86,1.86,0,0,1,46.27,37.26Zm2.64-.35c0-.66-.3-1-.86-1a1,1,0,0,0-1,1Z"/><path class="cls-2" d="M50.5,35.34h.66l.06.53h0a1.83,1.83,0,0,1,1.27-.63c.82,0,1.18.54,1.18,1.53v2.42h-.8V36.86c0-.66-.2-.93-.65-.93a1.26,1.26,0,0,0-.94.53v2.73H50.5Z"/><path class="cls-2" d="M55,37.93V36h-.56v-.6l.6,0,.09-1.07h.67v1.07h1V36h-1v2c0,.47.16.71.56.71a1.18,1.18,0,0,0,.42-.1l.14.6a2.38,2.38,0,0,1-.75.14C55.3,39.28,55,38.74,55,37.93Z"/><path class="cls-2" d="M57.42,38.17c0-.83.7-1.26,2.3-1.43,0-.45-.16-.84-.73-.84a2.07,2.07,0,0,0-1.11.39l-.31-.55a3,3,0,0,1,1.56-.5c1,0,1.4.61,1.4,1.63v2.32h-.66l-.06-.44h0a1.91,1.91,0,0,1-1.23.53A1.06,1.06,0,0,1,57.42,38.17Zm2.3,0v-.94c-1.14.13-1.52.43-1.52.86s.26.53.6.53A1.32,1.32,0,0,0,59.72,38.19Z"/><path class="cls-2" d="M61.67,35.34h.66l.06.69h0a1.32,1.32,0,0,1,1.09-.79,1.08,1.08,0,0,1,.44.08l-.15.7a1.16,1.16,0,0,0-.38-.06c-.32,0-.7.22-.94.83v2.4h-.8Z"/><path class="cls-2" d="M29.09,45.26a1.87,1.87,0,0,1,1.76-2c1,0,1.57.73,1.57,1.82a2.18,2.18,0,0,1,0,.41h-2.5a1.16,1.16,0,0,0,1.19,1.18,1.67,1.67,0,0,0,.92-.29l.28.51a2.34,2.34,0,0,1-1.31.41A1.85,1.85,0,0,1,29.09,45.26Zm2.63-.35c0-.66-.3-1-.86-1a1,1,0,0,0-1,1Z"/><path class="cls-2" d="M33.32,46.28V41.61h.8v4.72c0,.21.09.29.19.29h.13l.11.61a1.44,1.44,0,0,1-.44.06C33.53,47.28,33.32,46.91,33.32,46.28Z"/><path class="cls-2" d="M36.46,43.34h.83l.65,2.07c.12.38.23.77.34,1.15h0c.11-.38.23-.77.33-1.15l.66-2.07h.79l-1.33,3.85h-.94Z"/><path class="cls-2" d="M40.52,45.26a1.83,1.83,0,1,1,1.81,2A1.85,1.85,0,0,1,40.52,45.26Zm2.8,0c0-.81-.38-1.36-1-1.36s-1,.55-1,1.36.38,1.36,1,1.36S43.32,46.08,43.32,45.26Z"/><path class="cls-2" d="M45.09,46.28V41.61h.81v4.72c0,.21.09.29.18.29h.14l.1.61a1.41,1.41,0,0,1-.43.06C45.31,47.28,45.09,46.91,45.09,46.28Z"/><path class="cls-2" d="M47.13,45.76V43.34h.8v2.32c0,.66.19.93.65.93s.6-.17.92-.58V43.34h.81v3.85h-.66l-.06-.58h0a1.61,1.61,0,0,1-1.25.67C47.48,47.28,47.13,46.74,47.13,45.76Zm1.15-3.48,1.14-1.35.56.53-1.29,1.22Z"/><path class="cls-2" d="M51.52,43.34h.65l.07.53h0a1.7,1.7,0,0,1,1.19-.63,1,1,0,0,1,1.06.7,1.79,1.79,0,0,1,1.26-.7c.8,0,1.18.54,1.18,1.52v2.43h-.8V44.86c0-.66-.22-.93-.65-.93a1.29,1.29,0,0,0-.87.53v2.73h-.8V44.86c0-.66-.21-.93-.65-.93a1.29,1.29,0,0,0-.86.53v2.73h-.8Z"/><path class="cls-2" d="M57.84,45.26a1.87,1.87,0,0,1,1.75-2c1,0,1.58.73,1.58,1.82a2.18,2.18,0,0,1,0,.41h-2.5a1.16,1.16,0,0,0,1.19,1.18,1.67,1.67,0,0,0,.92-.29l.28.51a2.34,2.34,0,0,1-1.31.41A1.85,1.85,0,0,1,57.84,45.26Zm2.63-.35c0-.66-.3-1-.86-1a1,1,0,0,0-1,1Z"/><path class="cls-2" d="M62.06,43.34h.66l.07.53h0a1.83,1.83,0,0,1,1.27-.63c.82,0,1.18.54,1.18,1.52v2.43h-.8V44.86c0-.66-.2-.93-.65-.93a1.28,1.28,0,0,0-.94.53v2.73h-.81Z"/><path class="cls-2" d="M31.46,58.07H32.8a2.28,2.28,0,0,1,2.49,2.56,2.3,2.3,0,0,1-2.45,2.6H31.46Zm1.28,4.49c1.11,0,1.7-.65,1.7-1.93s-.59-1.9-1.7-1.9h-.47v3.83Z"/><path class="cls-2" d="M36.19,58.17a.46.46,0,0,1,.49-.48.47.47,0,0,1,.51.48.47.47,0,0,1-.51.48A.45.45,0,0,1,36.19,58.17Zm.09,1.21h.81v3.85h-.81Z"/><path class="cls-2" d="M37.89,62.79l.37-.52a1.8,1.8,0,0,0,1.1.44c.46,0,.68-.22.68-.52s-.44-.5-.85-.66-1.09-.47-1.09-1.12.52-1.13,1.38-1.13a2,2,0,0,1,1.24.45l-.38.5a1.38,1.38,0,0,0-.85-.34c-.43,0-.62.22-.62.48s.37.46.8.61,1.13.44,1.13,1.17-.51,1.17-1.46,1.17A2.34,2.34,0,0,1,37.89,62.79Z"/><path class="cls-2" d="M41.65,59.38h.66l.06.54h0a1.7,1.7,0,0,1,1.2-.64,1,1,0,0,1,1.06.71,1.77,1.77,0,0,1,1.25-.71c.81,0,1.19.54,1.19,1.53v2.42h-.81V60.9c0-.66-.21-.93-.64-.93a1.29,1.29,0,0,0-.87.53v2.73H44V60.9c0-.66-.2-.93-.64-.93a1.27,1.27,0,0,0-.86.53v2.73h-.81Z"/><path class="cls-2" d="M48.15,58.17a.46.46,0,0,1,.5-.48.47.47,0,0,1,.5.48.46.46,0,0,1-.5.48A.46.46,0,0,1,48.15,58.17Zm.1,1.21h.8v3.85h-.8Z"/><path class="cls-2" d="M50.26,59.38h.65l.07.53h0a1.83,1.83,0,0,1,1.27-.63c.82,0,1.19.54,1.19,1.53v2.42h-.81V60.9c0-.66-.2-.93-.65-.93a1.28,1.28,0,0,0-.94.53v2.73h-.8Z"/><path class="cls-2" d="M54.57,61.8V59.38h.81V61.7c0,.66.19.93.64.93s.61-.17.93-.58V59.38h.8v3.85H57.1L57,62.65h0a1.63,1.63,0,0,1-1.25.67C54.93,63.32,54.57,62.78,54.57,61.8Z"/><path class="cls-2" d="M58.87,58.17a.46.46,0,0,1,.49-.48.47.47,0,0,1,.51.48.47.47,0,0,1-.51.48A.45.45,0,0,1,58.87,58.17ZM59,59.38h.81v3.85H59Z"/><path class="cls-2" d="M61,59.38h.66l.06.69h0a1.33,1.33,0,0,1,1.1-.79,1,1,0,0,1,.43.08l-.15.7a1.16,1.16,0,0,0-.38-.06c-.32,0-.69.22-.93.83v2.4H61Z"/><path class="cls-2" d="M28.8,69.3a1.88,1.88,0,0,1,1.76-2c1,0,1.58.73,1.58,1.82a2.18,2.18,0,0,1,0,.41H29.6a1.16,1.16,0,0,0,1.19,1.18,1.64,1.64,0,0,0,.91-.29l.28.51a2.28,2.28,0,0,1-1.3.41A1.86,1.86,0,0,1,28.8,69.3ZM31.44,69c0-.66-.3-1-.86-1a1,1,0,0,0-1,1Z"/><path class="cls-2" d="M33,70.32V65.65h.81v4.72c0,.21.09.29.19.29h.13l.1.61a1.36,1.36,0,0,1-.43.06C33.25,71.32,33,71,33,70.32Z"/><path class="cls-2" d="M36.18,67.38H37l.66,2.07c.11.38.22.77.34,1.15h0c.12-.38.24-.77.34-1.15L39,67.38h.78l-1.33,3.85h-.93Z"/><path class="cls-2" d="M40.24,69.3a1.82,1.82,0,1,1,1.81,2A1.85,1.85,0,0,1,40.24,69.3Zm2.8,0c0-.81-.38-1.36-1-1.36s-1,.55-1,1.36.38,1.36,1,1.36S43,70.12,43,69.3Z"/><path class="cls-2" d="M44.81,70.32V65.65h.8v4.72c0,.21.09.29.19.29h.13l.11.61a1.41,1.41,0,0,1-.43.06C45,71.32,44.81,71,44.81,70.32Z"/><path class="cls-2" d="M46.84,69.8V67.38h.81V69.7c0,.66.19.93.64.93s.61-.17.93-.58V67.38H50v3.85h-.65l-.07-.58h0a1.63,1.63,0,0,1-1.25.67C47.2,71.32,46.84,70.78,46.84,69.8ZM48,66.32,49.14,65l.55.53-1.28,1.22Z"/><path class="cls-2" d="M51.23,67.38h.66l.06.54h0a1.7,1.7,0,0,1,1.2-.64,1,1,0,0,1,1.06.71,1.77,1.77,0,0,1,1.25-.71c.81,0,1.19.54,1.19,1.53v2.42h-.81V68.9c0-.66-.21-.93-.64-.93a1.29,1.29,0,0,0-.87.53v2.73h-.81V68.9c0-.66-.2-.93-.64-.93a1.27,1.27,0,0,0-.86.53v2.73h-.81Z"/><path class="cls-2" d="M57.55,69.3a1.87,1.87,0,0,1,1.76-2c1,0,1.58.73,1.58,1.82a2.18,2.18,0,0,1,0,.41h-2.5a1.16,1.16,0,0,0,1.19,1.18,1.64,1.64,0,0,0,.91-.29l.28.51a2.31,2.31,0,0,1-1.3.41A1.86,1.86,0,0,1,57.55,69.3ZM60.19,69c0-.66-.3-1-.86-1a1,1,0,0,0-1,1Z"/><path class="cls-2" d="M61.78,67.38h.66l.06.53h0a1.86,1.86,0,0,1,1.28-.63c.82,0,1.18.54,1.18,1.53v2.42h-.8V68.9c0-.66-.2-.93-.65-.93a1.26,1.26,0,0,0-.94.53v2.73h-.81Z"/><path class="cls-3" d="M7.79,5.75l-.08,0-2-1.07H5A.18.18,0,0,1,5,4.3h.78a.11.11,0,0,1,.08,0l1.8,1V.47L5.22,1.75l-.08,0H3.69V4.48a.18.18,0,0,1-.36,0V1.59a.18.18,0,0,1,.18-.18H5.09L7.71,0a.17.17,0,0,1,.18,0A.16.16,0,0,1,8,.18V5.57a.19.19,0,0,1-.08.16Z"/><path class="cls-3" d="M9.38,4.67l-.08,0a.19.19,0,0,1-.08-.24,3.29,3.29,0,0,0,0-3.07A.19.19,0,0,1,9.3,1.1a.17.17,0,0,1,.23.08,3.56,3.56,0,0,1,0,3.39A.18.18,0,0,1,9.38,4.67Z"/><path class="cls-3" d="M10.81,5.64l-.08,0a.19.19,0,0,1-.08-.24,5.3,5.3,0,0,0,0-5,.19.19,0,0,1,.08-.24A.19.19,0,0,1,11,.21a5.71,5.71,0,0,1,0,5.33A.2.2,0,0,1,10.81,5.64Z"/><path class="cls-3" d="M21,80a1.12,1.12,0,1,1,1.11-1.12A1.12,1.12,0,0,1,21,80Zm0-1.88a.76.76,0,0,0-.76.76.76.76,0,1,0,1.52,0A.76.76,0,0,0,21,78.07Z"/><circle class="cls-3" cx="21.01" cy="70.91" r="0.72"/><circle class="cls-3" cx="21.01" cy="62.98" r="0.72"/><circle class="cls-3" cx="21.01" cy="55.05" r="0.72"/><circle class="cls-3" cx="21.01" cy="47.12" r="0.72"/><circle class="cls-3" cx="21.01" cy="39.19" r="0.72"/><path class="cls-3" d="M21,32.38a1.12,1.12,0,1,1,1.11-1.11A1.12,1.12,0,0,1,21,32.38Zm0-1.87a.76.76,0,1,0,.76.76A.76.76,0,0,0,21,30.51Z"/><path class="cls-3" d="M22.32,17.26H19.69a.18.18,0,0,1-.18-.19.18.18,0,0,1,.18-.18h2.63a.19.19,0,1,1,0,.37Z"/><path class="cls-3" d="M21,18.57a.19.19,0,0,1-.19-.18V15.76a.2.2,0,0,1,.19-.19.19.19,0,0,1,.18.19v2.63A.18.18,0,0,1,21,18.57Z"/><path class="cls-3" d="M22.32,93.19H19.69a.18.18,0,0,1-.18-.18.18.18,0,0,1,.18-.19h2.63a.19.19,0,1,1,0,.37Z"/><path class="cls-4" d="M8.55,88.53"/><path class="cls-4" d="M1.82,69"/><path class="cls-4" d="M2.28,70.06"/><path class="cls-4" d="M8.55,70.06"/><polyline class="cls-4" points="8.34 70.06 8.23 69.18 7.82 68.34 7.14 67.72 6.36 67.3 5.42 67.14 4.53 67.3 3.69 67.72 3.07 68.34 2.65 69.18 2.49 70.06"/><polyline class="cls-4" points="2.29 70.06 2.44 69.13 2.91 68.24 3.59 67.56 4.48 67.09 5.42 66.93 6.41 67.09 7.24 67.56 7.97 68.24 8.39 69.13 8.55 70.06"/><line class="cls-4" x1="8.55" y1="70.06" x2="8.55" y2="78.93"/><polyline class="cls-4" points="8.55 70.06 8.55 70.06 8.49 70.06 8.44 70.06 8.39 70.06 8.34 70.06"/><line class="cls-4" x1="8.34" y1="78.93" x2="8.34" y2="70.06"/><line class="cls-4" x1="2.28" y1="88.53" x2="2.28" y2="79.66"/><line class="cls-4" x1="2.49" y1="79.66" x2="2.49" y2="88.53"/><line class="cls-4" x1="2.49" y1="70.06" x2="2.49" y2="78.93"/><polyline class="cls-4" points="2.29 70.06 2.34 70.06 2.39 70.06 2.44 70.06 2.49 70.06"/><line class="cls-4" x1="2.28" y1="78.93" x2="2.28" y2="70.06"/><polyline class="cls-4" points="2.49 88.53 2.49 88.53 2.44 88.53 2.39 88.53 2.34 88.53 2.29 88.53"/><polyline class="cls-4" points="8.55 88.53 8.39 89.53 7.97 90.41 7.24 91.09 6.41 91.51 5.42 91.67 4.48 91.51 3.59 91.09 2.91 90.41 2.44 89.53 2.29 88.53"/><polyline class="cls-4" points="2.49 88.53 2.65 89.47 3.07 90.26 3.69 90.94 4.53 91.35 5.42 91.46 6.36 91.35 7.14 90.94 7.82 90.26 8.23 89.47 8.34 88.53"/><polyline class="cls-4" points="8.34 88.53 8.39 88.53 8.44 88.53 8.49 88.53 8.55 88.53"/><line class="cls-4" x1="8.55" y1="79.66" x2="8.55" y2="88.53"/><line class="cls-4" x1="8.34" y1="88.53" x2="8.34" y2="79.66"/><line class="cls-4" x1="8.34" y1="79.66" x2="2.55" y2="79.66"/><polyline class="cls-4" points="8.55 79.25 8.55 79.19 8.55 79.14 8.49 79.09 8.49 79.04 8.44 79.04 8.39 78.99 8.34 78.99"/><polyline class="cls-4" points="2.29 79.25 2.34 79.19 2.34 79.14 2.34 79.09 2.39 79.04 2.44 78.99 2.49 78.99 2.55 78.99"/><polyline class="cls-4" points="2.55 79.35 2.55 79.4 2.55 79.46 2.55 79.51 2.55 79.56 2.55 79.61 2.55 79.66"/><line class="cls-4" x1="2.55" y1="79.35" x2="8.34" y2="79.35"/><polyline class="cls-4" points="2.55 78.99 2.55 78.99 2.55 79.04 2.55 79.09 2.55 79.14 2.55 79.19 2.55 79.25"/><line class="cls-4" x1="8.34" y1="79.25" x2="2.55" y2="79.25"/><polyline class="cls-4" points="8.34 78.99 8.34 78.99 8.34 79.04 8.34 79.09 8.34 79.14 8.34 79.19 8.34 79.25"/><line class="cls-4" x1="2.55" y1="78.99" x2="8.34" y2="78.99"/><polyline class="cls-4" points="8.34 79.35 8.34 79.4 8.34 79.46 8.34 79.51 8.34 79.56 8.34 79.61 8.34 79.66"/><polyline class="cls-4" points="8.55 79.35 8.55 79.4 8.55 79.46 8.49 79.51 8.49 79.56 8.44 79.61 8.39 79.61 8.39 79.66 8.34 79.66"/><polyline class="cls-4" points="2.55 79.25 2.49 79.25 2.44 79.25 2.39 79.25 2.34 79.25 2.29 79.25"/><line class="cls-4" x1="2.28" y1="79.35" x2="2.28" y2="79.25"/><polyline class="cls-4" points="2.55 79.35 2.49 79.35 2.44 79.35 2.39 79.35 2.34 79.35 2.29 79.35"/><line class="cls-4" x1="2.55" y1="79.25" x2="2.55" y2="79.35"/><polyline class="cls-4" points="8.55 79.25 8.55 79.25 8.49 79.25 8.44 79.25 8.39 79.25 8.34 79.25"/><line class="cls-4" x1="8.34" y1="79.35" x2="8.34" y2="79.25"/><polyline class="cls-4" points="8.55 79.35 8.55 79.35 8.49 79.35 8.44 79.35 8.39 79.35 8.34 79.35"/><line class="cls-4" x1="8.55" y1="79.25" x2="8.55" y2="79.35"/><path class="cls-4" d="M3.43,66.52"/><path class="cls-4" d="M7.4,66.52"/><polyline class="cls-4" points="10.63 88.9 10.48 90.15 10.01 91.35 9.33 92.34 8.39 93.18 7.24 93.75 6.04 94.06 4.79 94.06 3.59 93.75 2.49 93.18 1.55 92.34 0.82 91.35 0.41 90.15 0.25 88.9"/><line class="cls-4" x1="0.25" y1="88.9" x2="0.25" y2="25.35"/><line class="cls-4" x1="10.63" y1="25.35" x2="10.63" y2="88.9"/><polyline class="cls-4" points="0.25 25.35 0.41 24.1 0.82 22.9 1.55 21.91 2.49 21.07 3.59 20.5 4.79 20.18 6.04 20.18 7.24 20.5 8.39 21.07 9.33 21.91 10.01 22.9 10.48 24.1 10.63 25.35"/><line class="cls-5" x1="3.64" y1="30.75" x2="3.64" y2="67.38"/><line class="cls-5" x1="7.19" y1="30.75" x2="3.64" y2="30.75"/><line class="cls-5" x1="7.19" y1="67.38" x2="7.19" y2="30.75"/><polyline class="cls-4" points="2.29 79.66 2.34 79.66 2.39 79.66 2.44 79.66 2.49 79.66"/><line class="cls-4" x1="8.34" y1="79.66" x2="2.49" y2="79.66"/><polyline class="cls-4" points="8.34 79.66 8.39 79.66 8.44 79.66 8.49 79.66 8.55 79.66"/><polyline class="cls-4" points="8.55 78.93 8.49 78.93 8.44 78.93 8.39 78.93 8.34 78.93"/><line class="cls-4" x1="2.49" y1="78.93" x2="8.34" y2="78.93"/><polyline class="cls-4" points="2.49 78.93 2.44 78.93 2.39 78.93 2.34 78.93 2.29 78.93"/></svg>