<svg id="レイヤー_1" data-name="レイヤー 1" xmlns="http://www.w3.org/2000/svg" width="3.93mm" height="3.93mm" viewBox="0 0 11.15 11.15">
  <defs>
    <style>
      .cls-1 {
        fill: #231815;
      }
    </style>
  </defs>
  <path class="cls-1" d="M11.57,6A5.58,5.58,0,1,1,6,.43,5.57,5.57,0,0,1,11.57,6ZM4.41,5a2.34,2.34,0,0,1,1.45-.5c.8,0,1,.5,1,.74C4.74,5.27,3.79,6,3.79,7A1.48,1.48,0,0,0,5.46,8.43a2.29,2.29,0,0,0,1.48-.5H7l0,.46H8.07a5.1,5.1,0,0,1-.14-1.27V5.64a1.8,1.8,0,0,0-2-2A3.21,3.21,0,0,0,4,4.19ZM6.87,6.75a1.26,1.26,0,0,1-1.28.78c-.38,0-.73-.2-.73-.59,0-.54,1-.81,2-.82Z" transform="translate(-0.42 -0.43)"/>
</svg>
