<svg id="レイヤー_1" data-name="レイヤー 1" xmlns="http://www.w3.org/2000/svg" width="3.93mm" height="3.93mm" viewBox="0 0 11.15 11.15">
  <defs>
    <style>
      .cls-1 {
        fill: #231815;
      }
    </style>
  </defs>
  <path class="cls-1" d="M11.57,6A5.58,5.58,0,1,1,6,.43,5.57,5.57,0,0,1,11.57,6ZM3.84,8c0,.37,0,1,0,1.35h1V8.94h0a2,2,0,0,0,1.34.47A2.28,2.28,0,0,0,8.46,6.93,2.16,2.16,0,0,0,6.31,4.6,2.08,2.08,0,0,0,5,5.06l0,0V2.67H3.84Zm1.08-1.3A1.22,1.22,0,0,1,6.14,5.53,1.29,1.29,0,0,1,7.38,7,1.33,1.33,0,0,1,6.1,8.46a1.14,1.14,0,0,1-1.18-1.1Z" transform="translate(-0.42 -0.43)"/>
</svg>
