<svg id="レイヤー_1" data-name="レイヤー 1" xmlns="http://www.w3.org/2000/svg" width="3.93mm" height="3.93mm" viewBox="0 0 11.15 11.15">
  <defs>
    <style>
      .cls-1 {
        fill: #231815;
      }
    </style>
  </defs>
  <path class="cls-1" d="M11.57,6A5.58,5.58,0,1,1,6,.43,5.57,5.57,0,0,1,11.57,6ZM7.06,2.67V4.94L7,5A2,2,0,0,0,5.82,4.6,2.3,2.3,0,0,0,3.54,7.08,2.18,2.18,0,0,0,5.73,9.4a1.93,1.93,0,0,0,1.38-.5l0,0,0,.44h1c0-.37,0-.73,0-1.1V2.67Zm0,4.62A1.17,1.17,0,0,1,5.88,8.46,1.28,1.28,0,0,1,4.62,7a1.35,1.35,0,0,1,1.27-1.5A1.1,1.1,0,0,1,7.06,6.66Z" transform="translate(-0.42 -0.43)"/>
</svg>
