<svg id="レイヤー_1" data-name="レイヤー 1" xmlns="http://www.w3.org/2000/svg" viewBox="0 0 63.6 63.48"><defs><style>.cls-1{fill-rule:evenodd;}</style></defs><polygon class="cls-1" points="28.07 32.59 27.46 31.97 26.72 31.97 26.32 31.97 26.48 31.64 26.57 31.28 26.57 29.07 27.13 28.47 27.55 27.76 27.82 26.96 27.92 26.1 27.92 14.51 27.62 13 26.82 11.77 25.63 10.95 24.17 10.64 22.72 10.95 21.53 11.77 20.73 13 20.43 14.51 20.43 26.1 20.53 26.96 20.8 27.76 21.22 28.47 21.78 29.07 21.78 31.28 21.87 31.64 22.03 31.97 20.88 31.97 20.28 32.59 20.28 34.13 20.88 34.75 23.43 34.75 23.43 52.8 23.76 53.15 24.59 53.15 24.92 52.8 24.92 34.75 27.46 34.75 28.07 34.13 28.07 32.59"/><polygon class="cls-1" points="44.84 16.6 44.78 16.1 44.67 15.62 42.78 17.73 41.96 18.34 41 18.55 40.01 18.37 39.12 17.8 38.15 16.87 37.53 16 37.28 15 37.41 14 37.92 13.1 40.15 10.61 39.55 10.42 38.91 10.32 38.25 10.32 35.69 10.86 33.59 12.31 32.18 14.47 31.66 17.12 31.93 19.02 32.66 20.72 33.8 22.12 35.26 23.17 35.26 39.51 33.8 40.56 32.66 41.97 31.93 43.66 31.66 45.56 31.68 46.1 31.75 46.63 31.84 47.15 31.98 47.64 33.88 45.52 34.7 44.92 35.66 44.7 36.65 44.88 37.54 45.45 38.51 46.38 39.14 47.25 39.39 48.25 39.26 49.26 38.74 50.15 36.9 52.22 37.33 52.31 37.79 52.36 38.25 52.36 40.82 51.83 42.91 50.37 44.32 48.21 44.84 45.56 44.54 43.53 43.71 41.75 42.43 40.3 40.8 39.29 40.8 23.39 42.43 22.38 43.71 20.93 44.54 19.15 44.84 17.12 44.84 16.6"/><polygon class="cls-1" points="31.81 0 28.1 0.21 24.52 0.84 21.08 1.85 17.82 3.23 14.76 4.94 11.91 6.97 9.32 9.3 6.99 11.89 4.95 14.72 3.23 17.78 1.85 21.03 0.84 24.45 0.21 28.03 0 31.73 0.21 35.43 0.84 39.01 1.86 42.44 3.23 45.69 4.95 48.75 6.99 51.58 9.32 54.18 11.91 56.5 14.76 58.53 17.82 60.25 21.08 61.63 24.52 62.64 28.1 63.26 31.81 63.48 35.51 63.26 39.09 62.64 42.52 61.63 45.78 60.25 48.84 58.53 50.79 57.14 31.81 57.14 28.05 56.86 24.46 56.06 21.08 54.78 17.95 53.04 15.11 50.9 12.59 48.4 10.45 45.56 8.71 42.43 7.43 39.06 6.62 35.48 6.35 31.73 6.72 27.39 7.83 23.2 9.63 19.27 12.1 15.67 19.3 15.67 15.7 12.07 19.3 9.61 23.25 7.81 27.45 6.71 31.81 6.34 50.79 6.34 48.84 4.94 45.78 3.23 42.52 1.85 39.09 0.84 35.51 0.21 31.81 0"/><polygon class="cls-1" points="19.3 15.67 12.1 15.67 47.9 51.4 44.29 53.86 40.35 55.66 36.16 56.76 31.81 57.14 50.79 57.14 54.28 54.18 56.61 51.58 58.64 48.75 59.17 47.81 51.5 47.81 19.3 15.67"/><polygon class="cls-1" points="50.79 6.34 31.81 6.34 35.56 6.61 39.15 7.41 42.53 8.7 45.65 10.43 48.49 12.57 51 15.07 53.15 17.91 54.88 21.03 56.17 24.4 56.97 27.98 57.25 31.73 56.87 36.08 55.77 40.27 53.97 44.21 51.5 47.81 59.17 47.81 61.74 42.43 62.76 39.01 63.38 35.43 63.6 31.73 63.38 28.03 62.76 24.45 61.74 21.03 60.36 17.78 58.64 14.72 56.61 11.89 54.28 9.3 51.69 6.97 50.79 6.34"/></svg>