<!-- Generated by IcoMoon.io -->
<svg version="1.1" xmlns="http://www.w3.org/2000/svg" width="512" height="512" viewBox="0 0 512 512">
<title></title>
<g id="icomoon-ignore">
</g>
<path fill="#231815" d="M119.086 445.983v0l-71.062 32.666c-1.409 0.688-3.066 1.091-4.816 1.091-6.172 0-11.175-5.003-11.175-11.175 0-1.751 0.402-3.408 1.12-4.882l-0.029 0.067 32.952-71.062 8.31-8.31 53.010 53.010z"></path>
<path fill="#231815" d="M433.993 131.077l20.63 20.631c2.808 2.668 4.555 6.431 4.555 10.602s-1.747 7.933-4.55 10.596l-0.006 0.006-132.381 133.814c-2.734 2.668-6.476 4.313-10.603 4.313s-7.868-1.646-10.605-4.317l0.003 0.003c-2.752-2.749-4.454-6.548-4.454-10.745s1.702-7.996 4.454-10.745v0l121.493-121.493-9.743-9.743-279.377 279.089-53.010-53.010 318.058-318.058 53.010 53.010z"></path>
<path fill="#231815" d="M452.618 39.098l20.63 20.344c4.153 4.191 6.719 9.962 6.719 16.333s-2.566 12.141-6.721 16.335l0.002-0.002-15.76 15.473-53.010-53.010 15.473-15.473c4.16-4.222 9.94-6.838 16.333-6.838s12.173 2.616 16.329 6.835l0.003 0.003z"></path>
</svg>
