<svg id="レイヤー_1" data-name="レイヤー 1" xmlns="http://www.w3.org/2000/svg" xmlns:xlink="http://www.w3.org/1999/xlink" viewBox="0 0 28.35 28.35"><defs><style>.cls-1{fill:none;}.cls-2{clip-path:url(#clip-path);}.cls-3{fill:#231815;}.cls-4{fill:#fff;}</style><clipPath id="clip-path" transform="translate(-320.77 -491.76)"><rect class="cls-1" x="320.77" y="491.76" width="28.35" height="28.35"/></clipPath></defs><g class="cls-2"><path class="cls-3" d="M331.37,499.35l-.12.12-3.85,3.85v10.17l10.88.79,4-4V500.14Zm6.39,14.14-9.61-.7v-8.91l9.61.7Zm.23-9.65-9.37-.68,3-3,9.36.67Zm3.5,6.16-3,3v-8.6l3-3V510" transform="translate(-320.77 -491.76)"/><path class="cls-3" d="M333.37,495.91l.06-.28-.27.12a6.48,6.48,0,0,0-1.75,1,.92.92,0,1,0,1.46,1.12,6.47,6.47,0,0,0,.5-1.94m-1.66,1.94a.64.64,0,0,1-.11-.89,4.3,4.3,0,0,1,1.39-.77,4,4,0,0,1-.34,1.49.71.71,0,0,1-.94.17" transform="translate(-320.77 -491.76)"/><path class="cls-3" d="M340.27,496.88l.06-.28-.27.12a6.48,6.48,0,0,0-1.75,1,.92.92,0,1,0,1.46,1.12,6.47,6.47,0,0,0,.5-1.94m-1.66,1.94a.64.64,0,0,1-.11-.9,4.38,4.38,0,0,1,1.39-.76,4,4,0,0,1-.34,1.49.71.71,0,0,1-.94.17" transform="translate(-320.77 -491.76)"/><path class="cls-3" d="M337.15,501.09l.06-.29-.27.13a6.43,6.43,0,0,0-1.75,1,1,1,0,0,0,.12,1.37,1,1,0,0,0,1.34-.24,6.54,6.54,0,0,0,.5-1.94M335.5,503a.63.63,0,0,1-.12-.89,4.49,4.49,0,0,1,1.39-.76,4,4,0,0,1-.34,1.49.69.69,0,0,1-.93.16" transform="translate(-320.77 -491.76)"/><path class="cls-3" d="M326.5,505.26l.06-.28-.27.12a6.48,6.48,0,0,0-1.75,1A.92.92,0,1,0,326,507.2a6.47,6.47,0,0,0,.5-1.94m-1.66,1.94a.65.65,0,0,1-.11-.9,4.49,4.49,0,0,1,1.39-.76,4,4,0,0,1-.34,1.49.71.71,0,0,1-.94.17" transform="translate(-320.77 -491.76)"/><path class="cls-3" d="M331.67,508.59l.06-.29-.26.13c-.29.17-1.43.55-1.75,1a.92.92,0,1,0,1.46,1.12,6.43,6.43,0,0,0,.49-1.94M330,510.53a.65.65,0,0,1-.12-.9,4.44,4.44,0,0,1,1.4-.76,4.19,4.19,0,0,1-.35,1.49.7.7,0,0,1-.93.17" transform="translate(-320.77 -491.76)"/><path class="cls-3" d="M341.08,506.2l.06-.28-.26.12c-.29.17-1.43.55-1.75,1a.92.92,0,1,0,1.46,1.12,6.14,6.14,0,0,0,.49-1.94m-1.65,1.94a.65.65,0,0,1-.12-.9,4.44,4.44,0,0,1,1.4-.76,4.19,4.19,0,0,1-.35,1.49.7.7,0,0,1-.93.17" transform="translate(-320.77 -491.76)"/><path class="cls-3" d="M344.62,501.39l.06-.29-.26.13c-.29.17-1.43.55-1.75,1a.92.92,0,1,0,1.46,1.12,6.43,6.43,0,0,0,.49-1.94M343,503.33a.65.65,0,0,1-.12-.9,4.56,4.56,0,0,1,1.4-.76,4.19,4.19,0,0,1-.35,1.49.7.7,0,0,1-.93.17" transform="translate(-320.77 -491.76)"/><path class="cls-3" d="M335.94,513.25,336,513l-.27.12a6.48,6.48,0,0,0-1.75,1,.92.92,0,1,0,1.46,1.12,6.47,6.47,0,0,0,.5-1.94m-1.65,1.94a.64.64,0,0,1-.12-.9,4.49,4.49,0,0,1,1.39-.76,4,4,0,0,1-.34,1.49.7.7,0,0,1-.93.17" transform="translate(-320.77 -491.76)"/><path class="cls-4" d="M334.29,515.19a.64.64,0,0,1-.12-.9,4.49,4.49,0,0,1,1.39-.76,4,4,0,0,1-.34,1.49.7.7,0,0,1-.93.17" transform="translate(-320.77 -491.76)"/><path class="cls-3" d="M345,495.91a14.17,14.17,0,1,0,4.15,10,14.18,14.18,0,0,0-4.15-10m-8.66,21.27A11.34,11.34,0,0,1,326,498.93l.15-.17,15.94,15.94a11.29,11.29,0,0,1-5.8,2.48m7.56-4.25-.15.17-15.94-15.94a11.33,11.33,0,0,1,16.09,15.77" transform="translate(-320.77 -491.76)"/></g></svg>