<!-- Generated by IcoMoon.io -->
<svg version="1.1" xmlns="http://www.w3.org/2000/svg" width="512" height="512" viewBox="0 0 512 512">
<title></title>
<g id="icomoon-ignore">
</g>
<path fill="#000" d="M145.976 32.389c-7.388 1.561-17.224 8.95-19.981 15.089-2.341 5.204-3.070 9.73-2.757 17.691 0.521 14.256 5.932 27.837 16.546 41.626 2.082 2.757 11.499 12.748 21.228 22.478l17.431 17.588h-2.341c-1.25 0-5.673-0.261-9.782-0.521-8.794-0.625-14.725-0.104-20.709 1.821-6.191 1.925-10.198 4.579-16.026 10.406-5.463 5.411-8.222 9.782-10.459 16.391-1.249 3.694-1.3 12.227-0.104 15.453l0.781 2.186-3.174 1.925c-12.177 7.494-20.397 22.53-18.68 34.341 0.311 2.133 1.249 5.255 2.186 7.284 0.885 1.925 1.561 3.538 1.508 3.59-7.18 4.267-12.487 9.887-15.766 16.546-4.63 9.365-5.047 17.692-1.3 25.651 3.85 8.065 11.291 12.956 24.768 16.39 6.347 1.613 14.361 2.81 22.115 3.382l4.944 0.312 0.625 5.568c1.404 12.541 5.775 22.166 15.558 34.394 5.1 6.348 33.716 35.642 40.481 41.471 10.823 9.365 19.721 14.413 28.826 16.442l5.048 1.144-0.468 1.561c-0.729 2.394-0.676 11.134 0.104 14.309 0.989 4.111 4.214 10.666 7.024 14.413 8.845 11.656 23.518 17.743 36.215 15.038l3.902-0.832 17.171 17.171c11.551 11.551 17.587 17.171 18.368 17.224 1.457 0.104 2.394 0.104 3.851 0 0.832-0.053 18.628-17.483 58.588-57.445 45.58-45.529 57.495-57.704 57.913-59.213 1.092-3.59 0.521-4.318-16.649-21.49l-16.13-16.077 1.561-3.070c2.237-4.475 3.122-8.377 3.122-13.945 0-5.933-0.885-9.73-3.643-15.349-5.048-10.252-15.402-18.68-26.225-21.332-2.237-0.521-5.255-0.781-8.326-0.729l-4.786 0.104-8.741-19.2c-13.32-29.398-18.003-39.96-19.877-45.268-4.683-13.113-13.32-24.351-29.866-39.128-14.881-13.268-35.278-33.302-72.951-71.805-55.155-56.352-55.57-56.715-62.907-60.462-5.827-2.965-12.956-4.215-18.21-3.122zM156.903 47.062c1.561 0.729 4.319 2.394 6.087 3.747 1.821 1.353 17.846 17.327 35.642 35.538 62.388 63.636 73.679 74.822 91.213 90.486 9.678 8.637 14.829 13.946 19.46 20.24 3.851 5.1 5.827 8.898 8.637 16.339 2.497 6.555 7.701 18.421 20.76 47.142 3.902 8.586 7.024 15.817 6.92 16.13-0.053 0.26-24.872 25.236-55.155 55.416l-54.998 54.895-4.422 0.207c-3.694 0.104-5.204-0.053-8.741-1.197-7.077-2.186-15.142-7.597-24.247-16.181-8.534-8.116-33.977-34.81-37.202-39.128-6.297-8.326-9.523-16.026-10.406-24.664l-0.364-3.433 3.694-0.312c3.954-0.312 5.673-1.144 7.024-3.175 1.093-1.665 1.093-4.943 0.053-6.973-1.404-2.705-3.070-3.226-10.302-3.226-20.136 0-38.296-2.601-47.036-6.765-7.909-3.798-9.99-11.031-5.62-19.721 3.329-6.712 9.365-11.395 17.378-13.528 6.087-1.613 9.209-1.718 23.675-0.832 7.44 0.417 15.35 0.78 17.638 0.78 3.903 0 4.111-0.053 5.775-1.718 2.29-2.29 2.757-4.839 1.508-7.441-1.925-3.851-1.718-3.798-21.228-4.944-13.216-0.729-18.68-0.885-22.061-0.468-4.475 0.521-4.475 0.521-5.983-0.936-3.122-2.965-4.007-6.661-2.706-11.655 1.093-4.422 3.487-8.221 7.597-12.124 5.828-5.464 11.656-7.544 21.332-7.544 3.279 0 13.424 0.468 22.582 1.040 22.582 1.404 21.75 1.404 23.986-0.676 3.174-2.915 2.965-7.909-0.468-10.355-1.457-1.040-3.018-1.196-20.864-2.341-10.615-0.625-22.322-1.144-26.069-1.093l-6.765 0.053-0.936-1.768c-2.341-4.371 0.625-12.748 6.555-18.732 5.775-5.827 11.187-8.169 18.835-8.273 2.029-0.053 15.35 0.053 29.659 0.261 25.756 0.311 26.016 0.311 27.733-0.78 1.768-1.093 3.226-3.747 3.226-5.775 0-1.718-1.508-4.475-3.018-5.516-1.144-0.78-2.862-0.989-9.73-1.196l-8.326-0.261-22.166-22.374c-21.958-22.165-26.12-26.849-30.751-34.809-7.388-12.644-10.095-28.462-6.191-36.163 1.144-2.237 5.673-5.932 8.69-7.077 2.757-1.039 6.661-0.729 10.095 0.885zM373.305 287.14c5.099 2.497 9.99 7.337 12.541 12.435 1.717 3.486 1.822 3.902 1.822 9.105 0 5.933-0.521 7.597-3.747 11.448-0.832 0.989-26.225 26.433-56.402 56.56l-54.842 54.687-3.59 1.092c-4.422 1.353-7.077 1.353-11.344 0.053-11.395-3.538-19.721-15.453-18.056-25.911 0.936-6.036-0.676-4.267 57.391-62.439 30.075-30.127 55.57-55.363 56.663-56.144 5.673-3.954 12.695-4.267 19.564-0.885zM362.327 412.591l-51.148 51.148-25.236-25.236 102.245-102.245 25.236 25.236-51.096 51.096z"></path>
</svg>
