<svg id="レイヤー_1" data-name="レイヤー 1" xmlns="http://www.w3.org/2000/svg" viewBox="0 0 63.24 63.22"><defs><style>.cls-1{fill:#fff;}</style></defs><path class="cls-1" d="M318,480.34c-17.18-.26-31.54,14-31.67,31.29a31.62,31.62,0,1,0,63.24.28c0-17.23-14.27-31.8-31.57-31.57" transform="translate(-286.35 -480.33)"/><path d="M318,480.34c17.3-.23,31.58,14.34,31.57,31.57a31.62,31.62,0,1,1-63.24-.28c.13-17.33,14.49-31.55,31.67-31.29" transform="translate(-286.35 -480.33)"/><path d="M313.8,513.37V520h-5.71c-1.22,0-2.36.29-2.37,1.77s1.1,1.75,2.34,1.74c1.91,0,3.82,0,5.77,0,.09,1.21.15,2.18.22,3.11.34.1.52.23.68.2,3.11-.5,5.32.48,7.1,3.28,1.37,2.16,4,2.21,5.88.49a2.51,2.51,0,0,1,2.46-.64,4.09,4.09,0,0,0,4.83-4.65c-.07-.67-.17-1.33-.3-2.25h6.48c1.22,0,1.81-.51,1.59-1.94h-2.1c-4.55,0-9.11,0-13.66,0-3.12,0-5-2.09-4.7-5,.24-2.22,2-3.62,4.86-3.65,4.86-.06,9.73,0,14.59,0a2.75,2.75,0,0,0,2.73-3.82,4.43,4.43,0,0,0-5.9-2.74,31.9,31.9,0,0,0-5.94,3.71c-1.25.93-4.62,1.52-5.9.57s-2.69-2.2-4.33-3.56c2.45-2.42,4.53-5.07,7.16-6.93s5.95-3,8.94-4.49c-.28-1.41-.91-1.44-1.92-1-5.81,2.53-11.42,5.32-14.86,11a3.09,3.09,0,0,1-3.18,1.46c-1.47-.1-2.95,0-4.49,0-.09,1.21-.16,2.13-.25,3.27-2,0-3.91,0-5.83,0-1.22,0-2.32.38-2.27,1.87s1.09,1.62,2.26,1.61c1.92,0,3.83,0,5.82,0" transform="translate(-286.35 -480.33)"/><path d="M302,529.25V494.13c-2.8-.53-2.95-.42-2.95,2.18q0,15.35,0,30.68c0,2.65,0,2.67,2.95,2.26" transform="translate(-286.35 -480.33)"/><path d="M317.55,489.94c0,.14,0,.29,0,.43H305.82v2.36h12l-3.41,2.19,1.29,2.05,9.46-5.41-9.52-5.77-1.21,2.15,3.14,2" transform="translate(-286.35 -480.33)"/><path class="cls-1" d="M313.8,513.37c-2,0-3.9,0-5.82,0-1.17,0-2.22-.22-2.26-1.61s1-1.85,2.27-1.87c1.92,0,3.83,0,5.83,0,.09-1.14.16-2.06.25-3.27,1.54,0,3-.07,4.49,0a3.09,3.09,0,0,0,3.18-1.46c3.44-5.71,9.05-8.5,14.86-11,1-.44,1.64-.41,1.92,1-3,1.46-6.24,2.59-8.94,4.49s-4.71,4.51-7.16,6.93c1.64,1.36,2.94,2.53,4.34,3.56s4.64.36,5.89-.57a31.9,31.9,0,0,1,5.94-3.71,4.43,4.43,0,0,1,5.9,2.74,2.75,2.75,0,0,1-2.73,3.82c-4.86,0-9.73,0-14.59,0-2.84,0-4.62,1.43-4.86,3.65-.32,2.87,1.58,4.93,4.7,5,4.55.05,9.11,0,13.66,0h2.1c.22,1.43-.37,1.95-1.59,1.94H334.7c.13.92.23,1.58.3,2.25a4.09,4.09,0,0,1-4.83,4.65,2.51,2.51,0,0,0-2.46.64c-1.84,1.72-4.51,1.67-5.88-.49-1.78-2.8-4-3.78-7.1-3.28-.16,0-.34-.1-.68-.2-.07-.93-.13-1.9-.22-3.11-1.95,0-3.86,0-5.77,0-1.24,0-2.36-.24-2.34-1.74s1.15-1.76,2.37-1.77h5.71Z" transform="translate(-286.35 -480.33)"/><path class="cls-1" d="M321.9,527.4c.72,1,1.44,2.38,3.25,2.28s2.21-1.63,2.53-3.3c1.45,1.3,2.77,2.67,4.66,1.35s.41-3,.56-4.3c-4.81-1.85-7.9,1-11,4" transform="translate(-286.35 -480.33)"/><path class="cls-1" d="M334.5,510l.21.6c2.21,0,4.42,0,6.62,0,.47,0,1.28-.33,1.33-.6a2,2,0,0,0-.48-1.63c-.66-.48-1.7-1.06-2.32-.85a51,51,0,0,0-5.36,2.5" transform="translate(-286.35 -480.33)"/><path class="cls-1" d="M315.61,517.92h4.85c0-.85-.1-1.57-.14-2.25h-4.71Z" transform="translate(-286.35 -480.33)"/><path class="cls-1" d="M302,529.25c-2.92.41-2.95.39-2.95-2.26q0-15.35,0-30.68c0-2.6.15-2.71,2.95-2.18Z" transform="translate(-286.35 -480.33)"/><path class="cls-1" d="M317.55,489.94l-3.14-2,1.21-2.15,9.52,5.77L315.68,497l-1.29-2.05,3.41-2.19h-12v-2.36h11.69c0-.14,0-.29,0-.43" transform="translate(-286.35 -480.33)"/><path d="M321.9,527.4c3.1-3,6.19-5.82,11-4-.15,1.28,1.33,3-.56,4.3s-3.21-.05-4.67-1.35c-.31,1.67-.61,3.2-2.52,3.3s-2.53-1.27-3.25-2.28" transform="translate(-286.35 -480.33)"/><path d="M334.5,510a51,51,0,0,1,5.36-2.5c.62-.21,1.66.37,2.32.85a2,2,0,0,1,.48,1.63c-.05.27-.86.58-1.33.6-2.2.06-4.41,0-6.62,0l-.21-.6" transform="translate(-286.35 -480.33)"/><path d="M315.61,517.92v-2.25h4.71c0,.68.09,1.4.14,2.25Z" transform="translate(-286.35 -480.33)"/></svg>