<?xml version="1.0" encoding="utf-8"?>
<!-- Generator: Adobe Illustrator 25.4.2, SVG Export Plug-In . SVG Version: 6.00 Build 0)  -->
<svg version="1.1" id="レイヤー_1" xmlns="http://www.w3.org/2000/svg" xmlns:xlink="http://www.w3.org/1999/xlink" x="0px"
	 y="0px" viewBox="0 0 512 512" style="enable-background:new 0 0 512 512;" xml:space="preserve">
<style type="text/css">
	.st0{fill:none;stroke:#FFFFFF;stroke-width:22.1358;stroke-linejoin:round;}
	.st1{fill:#00A0E9;}
	.st2{fill:#FFFFFF;}
	.st3{fill:#231815;}
</style>
<g id="icomoon-ignore">
</g>
<path class="st0" d="M436.5,411v-256l12.2,12.2l8.9-8.9l-22.9-22.9c-1.2-1.1-2.7-1.7-4.4-1.7s-3.3,0.7-4.4,1.7l0,0L403,158.3
	l8.9,8.9l12-12.2v256l-12.2-12.4l-8.9,8.9l22.9,22.9c1.1,1.1,2.6,1.8,4.3,1.8c0.1,0,0.2,0,0.3,0h0c0,0,0.1,0,0.2,0
	c1.7,0,3.1-0.7,4.2-1.8l0,0l22.7-22.7l-8.9-8.9L436.5,411z M431.1,148.9l1.8,1.8h-3.8L431.1,148.9z M431.1,416.5L431.1,416.5
	L431.1,416.5z"/>
<path class="st1" d="M436.5,411v-256l12.2,12.2l8.9-8.9l-22.9-22.9c-1.2-1.1-2.7-1.7-4.4-1.7s-3.3,0.7-4.4,1.7l0,0L403,158.3
	l8.9,8.9l12-12.2v256l-12.2-12.4l-8.9,8.9l22.9,22.9c1.1,1.1,2.6,1.8,4.3,1.8c0.1,0,0.2,0,0.3,0h0c0,0,0.1,0,0.2,0
	c1.7,0,3.1-0.7,4.2-1.8l0,0l22.7-22.7l-8.9-8.9L436.5,411z M431.1,148.9L431.1,148.9L431.1,148.9L431.1,148.9z M431.1,416.5
	L431.1,416.5L431.1,416.5z"/>
<path class="st2" d="M164.6,272.8c7.8,0.3,14.7,3.7,19.7,8.9l0,0c0.2,0,0.4,0,0.6,0c30.5,0,58-12.4,78-32.4l0,0
	c7.8,0,14.8,3,20.1,7.9l0,0v-93.7c0.1-16.7,13.7-30.2,30.4-30.2c1.8,0,3.6,0.2,5.4,0.5l-0.2,0c14.3,3.2,24.8,15.7,24.8,30.7
	c0,0.3,0,0.5,0,0.8l0,0v143.7h6.2c0,0,0,0,0,0c15.5,0,28.1,12.6,28.1,28.1c0,0.2,0,0.5,0,0.7l0,0v45.8
	c-2.5,65.6-56.3,117.9-122.3,117.9S135.5,449,133,383.6l0-0.2v-78.8c0-0.2,0-0.3,0-0.5c0-17.3,14-31.3,31.3-31.3c0.2,0,0.5,0,0.7,0
	l0,0L164.6,272.8z"/>
<path class="st2" d="M337.2,165.6v92h-48V164c0,0,0,0,0-0.1c0-13.2,10.7-23.9,23.9-23.9c1.5,0,3,0.1,4.5,0.4l-0.1,0
	c11.4,2.7,19.7,12.8,19.7,24.8C337.2,165.3,337.2,165.5,337.2,165.6L337.2,165.6L337.2,165.6z"/>
<path class="st2" d="M163.6,279L163.6,279c6.2,0.4,11.6,3,15.7,7l0,0c1.1,1.1,2.7,1.8,4.4,1.8c0.5,0,1-0.1,1.5-0.2l0,0
	c2.1-0.5,3.8-2,4.5-4l0,0c3.1-9.7,12-16.7,22.6-16.7h0c6.5,0.1,12.4,2.8,16.7,7l0,0c1.1,1.1,2.7,1.8,4.4,1.8c0.5,0,1-0.1,1.5-0.2
	l0,0c2.1-0.5,3.8-2,4.5-4l0,0c3.1-9.6,12-16.4,22.5-16.4c6.2,0,11.8,2.4,16,6.3l0,0c1.1,1,2.5,1.6,4.1,1.6c0.9,0,1.8-0.2,2.6-0.6
	l0,0c2.2-0.9,3.7-3.1,3.7-5.5c0,0,0-0.1,0-0.1v0h48v51.7c0,3.4,2.8,6.2,6.2,6.2l0,0h6.2c0.1,0,0.1,0,0.2,0c12,0,21.7,9.7,21.7,21.7
	c0,0.2,0,0.5,0,0.7l0,0v46c0,64.1-52,116.1-116.1,116.1s-116.1-52-116.1-116.1v-78.8c0-7.5,3.2-14.4,8.2-19.2l0,0
	c4.1-3.8,9.6-6.1,15.6-6.1C162.6,279,163.1,279,163.6,279L163.6,279L163.6,279z"/>
<path class="st3" d="M255,512c-71-0.1-128.5-57.6-128.6-128.6v-78.8c0.1-11.1,4.7-21.1,12.2-28.2l0,0c6.3-6.1,15-9.9,24.5-9.9
	c7,0,13.6,2.1,19.1,5.6l-0.1-0.1c6.6-10.1,17.8-16.7,30.6-16.7c0.1,0,0.1,0,0.2,0h0c0,0,0.1,0,0.1,0c7.1,0,13.7,2.1,19.2,5.6
	l-0.1-0.1c6.6-10.1,17.8-16.7,30.6-16.7c0.1,0,0.1,0,0.2,0h0c5,0,9.8,1.1,14.1,2.9l-0.2-0.1v-82.4c0-11.2,5-21.1,12.8-27.9l0,0
	c6.4-5.3,14.7-8.5,23.8-8.5c2.2,0,4.3,0.2,6.4,0.5l-0.2,0c17.2,3.8,29.9,19,29.9,37.1c0,0.2,0,0.4,0,0.6v0v137.3
	c19,0.1,34.5,15.6,34.5,34.6c0,0.2,0,0.4,0,0.5v0v45.8C383.3,455,325.9,512,255.2,512C255.2,512,255.1,512,255,512L255,512L255,512z
	 M163.6,279L163.6,279c-0.2,0-0.5,0-0.8,0c-6.2,0-11.8,2.4-15.9,6.4l0,0c-5,4.9-8.2,11.7-8.2,19.2v78.4c0,64.1,52,116.1,116.1,116.1
	s116.1-52,116.1-116.1v-46c0-0.2,0-0.4,0-0.7c0-12-9.7-21.7-21.7-21.7c-0.1,0-0.1,0-0.2,0h-6.2c-3.4,0-6.2-2.8-6.2-6.2l0,0V165.6
	c0-0.1,0-0.3,0-0.5c0-12-8.3-22.1-19.6-24.7l-0.2,0c-1.3-0.3-2.8-0.4-4.3-0.4c-13.2,0-23.9,10.7-23.9,23.9c0,0,0,0,0,0.1v0v93.7
	c0,0,0,0.1,0,0.1c0,2.5-1.5,4.6-3.6,5.5l0,0c-0.8,0.4-1.6,0.6-2.6,0.6c-1.6,0-3-0.6-4.1-1.6l0,0c-4.2-3.9-9.8-6.2-16-6.2
	c-10.5,0-19.4,6.8-22.4,16.3l0,0.2c-0.7,2-2.4,3.5-4.5,4l0,0c-0.4,0.1-0.9,0.2-1.4,0.2c-1.7,0-3.3-0.7-4.4-1.8l0,0
	c-4.3-4.2-10.2-6.9-16.7-7h0c-10.6,0-19.5,7-22.5,16.6l0,0.2c-0.7,2-2.4,3.5-4.5,4l0,0c-0.4,0.1-0.9,0.2-1.4,0.2
	c-1.7,0-3.3-0.7-4.4-1.8l0,0C175.6,282.5,169.9,279.6,163.6,279L163.6,279L163.6,279z"/>
<path class="st3" d="M234.3,315c-3.4-0.1-6.1-2.8-6.2-6.2v-41.5c0.5-3,3.1-5.3,6.3-5.3s5.8,2.3,6.3,5.3l0,0v41.5
	C240.6,312.2,237.8,315,234.3,315C234.3,315,234.3,315,234.3,315L234.3,315z"/>
<path class="st3" d="M184.3,315c-3.4-0.1-6.1-2.8-6.2-6.2v-32.1c-0.1-0.3-0.1-0.7-0.1-1c0-3.5,2.8-6.4,6.4-6.4s6.4,2.8,6.4,6.4
	c0,0.4,0,0.7-0.1,1.1l0,0v32.1C190.6,312.2,187.8,315,184.3,315C184.3,315,184.3,315,184.3,315L184.3,315L184.3,315z"/>
<path class="st3" d="M283,315c-3.4,0-6.2-2.8-6.2-6.2l0,0v-51.7c0-3.4,2.8-6.2,6.2-6.2s6.2,2.8,6.2,6.2l0,0v51.7
	C289.2,312.2,286.4,315,283,315L283,315z"/>
<path class="st3" d="M343.3,397.6c-3.4,0-6.2-2.8-6.2-6.2l0,0V288.1c0.5-3,3.1-5.3,6.3-5.3s5.8,2.3,6.3,5.3l0,0v103.4c0,0,0,0,0,0
	c0,3.4-2.8,6.2-6.2,6.2C343.5,397.6,343.4,397.6,343.3,397.6L343.3,397.6L343.3,397.6z"/>
</svg>
