<!-- Generated by IcoMoon.io -->
<svg version="1.1" xmlns="http://www.w3.org/2000/svg" width="512" height="512" viewBox="0 0 512 512">
<title></title>
<g id="icomoon-ignore">
</g>
<path fill="none" stroke="#fff" stroke-linejoin="round" stroke-linecap="butt" stroke-miterlimit="4" stroke-width="22.2512" d="M265.901 159.974h-83.378l12.173-12.34c1.42-1.139 2.321-2.875 2.321-4.822 0-3.407-2.762-6.17-6.17-6.17-1.946 0-3.681 0.9-4.813 2.309l-0.009 0.012-22.846 22.846c-1.142 1.095-1.851 2.632-1.851 4.335s0.709 3.24 1.849 4.333l0.003 0.002 22.679 22.846c1.115 1.106 2.641 1.8 4.328 1.833h0.006c1.75-0.025 3.33-0.72 4.506-1.837l-0.003 0.003c1.073-1.157 1.732-2.711 1.732-4.418s-0.659-3.263-1.736-4.423l0.003 0.004-12.173-12.173h83.378z"></path>
<path fill="#00a0e9" d="M265.901 159.974h-83.378l12.173-12.34c1.42-1.139 2.321-2.875 2.321-4.822 0-3.407-2.762-6.17-6.17-6.17-1.946 0-3.681 0.9-4.813 2.309l-0.009 0.012-22.846 22.846c-1.142 1.095-1.851 2.632-1.851 4.335s0.709 3.24 1.849 4.333l0.003 0.002 22.679 22.846c1.115 1.106 2.641 1.8 4.328 1.833h0.006c1.75-0.025 3.33-0.72 4.506-1.837l-0.003 0.003c1.073-1.157 1.732-2.711 1.732-4.418s-0.659-3.263-1.736-4.423l0.003 0.004-12.173-12.173h83.378z"></path>
<path fill="none" stroke="#fff" stroke-linejoin="round" stroke-linecap="butt" stroke-miterlimit="4" stroke-width="22.2512" d="M457.671 161.641l-22.68-22.679c-1.131-1.131-2.694-1.831-4.418-1.831-3.452 0-6.249 2.798-6.249 6.249 0 1.726 0.7 3.287 1.83 4.418v0l12.173 12.007h-83.378v12.506h83.378l-12.173 12.173c-1.074 1.157-1.731 2.711-1.731 4.418s0.659 3.263 1.736 4.423l-0.003-0.004c1.172 1.115 2.755 1.81 4.498 1.833h0.005c1.695-0.034 3.221-0.728 4.336-1.834l22.846-22.845c1.102-1.114 1.782-2.647 1.782-4.338 0-1.774-0.748-3.371-1.947-4.497l-0.003-0.003z"></path>
<path fill="#00a0e9" d="M457.671 161.641l-22.68-22.679c-1.131-1.131-2.694-1.831-4.418-1.831-3.452 0-6.249 2.798-6.249 6.249 0 1.726 0.7 3.287 1.83 4.418v0l12.173 12.007h-83.378v12.506h83.378l-12.173 12.173c-1.074 1.157-1.731 2.711-1.731 4.418s0.659 3.263 1.736 4.423l-0.003-0.004c1.172 1.115 2.755 1.81 4.498 1.833h0.005c1.695-0.034 3.221-0.728 4.336-1.834l22.846-22.845c1.102-1.114 1.782-2.647 1.782-4.338 0-1.774-0.748-3.371-1.947-4.497l-0.003-0.003z"></path>
<path fill="#fff" d="M162.012 273.534c7.746 0.349 14.655 3.664 19.671 8.832l0.007 0.007c4.149-12.003 15.339-20.478 28.512-20.511h0.004c0.063-0 0.137-0.001 0.213-0.001 8.269 0 15.747 3.381 21.131 8.836l0.003 0.003c4.149-12.003 15.339-20.477 28.512-20.511h0.003c7.7 0.042 14.714 2.944 20.041 7.696l-0.030-0.027v-93.383c0-0.003 0-0.006 0-0.009 0-16.578 13.438-30.016 30.016-30.016 1.947 0 3.849 0.185 5.692 0.539l-0.188-0.030c14.209 3.102 24.691 15.578 24.691 30.5 0 0.299-0.003 0.596-0.013 0.894l0.002-0.044v143.077h6.17c0.003 0 0.005 0 0.009 0 15.471 0 28.015 12.543 28.015 28.015 0 0.235-0.003 0.469-0.009 0.702l0.001-0.034v45.692c0.053 1.345 0.084 2.925 0.084 4.511 0 67.416-54.651 122.066-122.066 122.066s-122.066-54.651-122.066-122.066c0-1.587 0.030-3.166 0.090-4.738l-0.007 0.226v-78.543c-0.003-0.151-0.004-0.329-0.004-0.507 0-17.223 13.962-31.183 31.184-31.183 0.237 0 0.471 0.003 0.706 0.009l-0.035-0.001z"></path>
<path fill="#fff" d="M334.105 165.643v91.549h-47.859v-93.383c0.026-7.281 3.31-13.791 8.469-18.147l0.036-0.029c4.182-3.55 9.642-5.71 15.606-5.71 1.498 0 2.964 0.136 4.387 0.398l-0.148-0.022c11.276 2.731 19.52 12.737 19.52 24.668 0 0.238-0.003 0.476-0.009 0.714l0.001-0.035z"></path>
<path fill="#fff" d="M161.012 279.705c6.144 0.38 11.614 2.982 15.677 7.006l-0.002-0.002c1.156 1.209 2.781 1.959 4.582 1.959 0.445 0 0.876-0.045 1.295-0.133l-0.041 0.007c2.102-0.593 3.754-2.135 4.488-4.123l0.015-0.046c3.072-9.706 11.978-16.626 22.506-16.675h0.006c6.511 0.115 12.379 2.767 16.679 7.007l-0.003-0.003c1.156 1.209 2.781 1.959 4.582 1.959 0.445 0 0.876-0.045 1.295-0.133l-0.041 0.007c2.077-0.642 3.709-2.165 4.486-4.122l0.016-0.047c3.111-9.591 11.966-16.403 22.411-16.403 6.159 0 11.766 2.369 15.957 6.244l-0.015-0.015c1.086 0.969 2.524 1.56 4.101 1.56 0.931 0 1.815-0.207 2.606-0.577l-0.038 0.015c2.175-0.935 3.67-3.059 3.67-5.531 0-0.049-0.001-0.098-0.002-0.146v0.007h47.859v51.528c-0.002 0.051-0.003 0.111-0.003 0.17 0 3.316 2.688 6.002 6.002 6.002 0.060 0 0.118-0.001 0.178-0.003l-0.009 0h6.17c0.002 0 0.003 0 0.005 0 12.065 0 21.845 9.781 21.845 21.845 0 0.176-0.003 0.351-0.007 0.526l0-0.026v45.859c0 63.916-51.813 115.729-115.73 115.729s-115.73-51.813-115.73-115.73v-78.543c0-0.003 0-0.005 0-0.009 0-7.476 3.133-14.221 8.16-18.991l0.012-0.010c4.165-4.029 9.845-6.511 16.106-6.511 0.201 0 0.399 0.003 0.599 0.008l-0.029-0.001z"></path>
<path fill="#231815" d="M177.687 286.709c-4.060-4.022-9.532-6.625-15.606-7.001l-0.069-0.003h-1.001c-0.17-0.004-0.368-0.007-0.569-0.007-6.261 0-11.942 2.483-16.113 6.517l0.006-0.006c-5.037 4.782-8.171 11.526-8.171 19.002 0 0.003 0 0.005 0 0.009v-0 78.543c0 63.916 51.814 115.729 115.73 115.729s115.73-51.813 115.73-115.73v-45.859c0.003-0.149 0.005-0.325 0.005-0.5 0-12.065-9.781-21.845-21.845-21.845-0.002 0-0.003 0-0.006 0h-6.17c-0.051 0.002-0.111 0.003-0.17 0.003-3.316 0-6.002-2.688-6.002-6.002 0-0.060 0.001-0.118 0.003-0.178l-0 0.009v-143.744c0.005-0.202 0.009-0.44 0.009-0.679 0-11.93-8.244-21.938-19.347-24.632l-0.173-0.036c-1.274-0.238-2.74-0.374-4.238-0.374-5.964 0-11.424 2.16-15.64 5.739l0.034-0.029c-5.195 4.387-8.479 10.895-8.504 18.172v93.388c0.002 0.041 0.002 0.089 0.002 0.139 0 2.474-1.495 4.597-3.632 5.517l-0.039 0.015c-0.754 0.354-1.637 0.56-2.569 0.56-1.577 0-3.017-0.592-4.107-1.565l0.006 0.005c-4.177-3.861-9.783-6.23-15.942-6.23-10.447 0-19.3 6.811-22.364 16.237l-0.047 0.166c-0.792 2.004-2.425 3.527-4.453 4.155l-0.050 0.014c-0.377 0.080-0.81 0.125-1.254 0.125-1.801 0-3.426-0.75-4.579-1.958l-0.003-0.003c-4.298-4.238-10.166-6.889-16.654-7.003l-0.021-0c-10.535 0.050-19.439 6.971-22.466 16.507l-0.046 0.168c-0.748 2.034-2.4 3.575-4.455 4.158l-0.047 0.011c-0.296 0.050-0.637 0.077-0.984 0.077-1.606 0-3.074-0.598-4.19-1.584l0.007 0.006zM252.56 511.997c-70.784-0.094-128.142-57.452-128.236-128.227v-78.551c0.046-11.038 4.708-20.978 12.154-27.998l0.019-0.018c6.266-6.212 14.893-10.050 24.417-10.050 0.62 0 1.237 0.015 1.85 0.048l-0.086-0.003c6.238 0.495 11.925 2.479 16.825 5.591l-0.149-0.088c6.534-10.092 17.736-16.676 30.476-16.676 0.073 0 0.146 0 0.219 0.001h-0.011c7.103 0.057 13.719 2.098 19.335 5.595l-0.158-0.092c6.534-10.093 17.736-16.676 30.476-16.676 0.073 0 0.146 0 0.219 0.001h-0.011c5.004 0.043 9.756 1.081 14.080 2.926l-0.24-0.091v-82.21c-0.001-0.087-0.002-0.189-0.002-0.29 0-19.892 16.127-36.019 36.019-36.019 2.36 0 4.666 0.226 6.899 0.661l-0.226-0.037c17.171 3.676 29.858 18.72 29.858 36.73 0 0.278-0.003 0.555-0.009 0.832l0.001-0.041v136.906c0.311-0.010 0.676-0.016 1.044-0.016 18.42 0 33.351 14.933 33.351 33.351 0 0.592-0.015 1.182-0.046 1.766l0.003-0.081v45.692c-0.755 70.339-57.95 127.068-128.395 127.068-0.003 0-0.005 0-0.008 0h0z"></path>
<path fill="#231815" d="M231.55 315.724c-3.407 0-6.17-2.762-6.17-6.17v0-41.355c0.511-3.031 3.115-5.313 6.254-5.313s5.743 2.281 6.248 5.274l0.005 0.038v41.355c0 0.001 0 0.002 0 0.003 0 3.407-2.762 6.17-6.17 6.17-0.058 0-0.117-0.001-0.176-0.003l0.009 0z"></path>
<path fill="#231815" d="M181.689 315.724c-3.407 0-6.17-2.762-6.17-6.17v0-32.185c0.511-3.031 3.115-5.313 6.254-5.313s5.743 2.281 6.248 5.274l0.005 0.038v32.017c0 0.001 0 0.002 0 0.003 0 3.407-2.762 6.17-6.17 6.17-0.058 0-0.117-0.001-0.176-0.003l0.009 0z"></path>
<path fill="#231815" d="M280.075 315.724c-0.051 0.002-0.111 0.003-0.17 0.003-3.316 0-6.002-2.688-6.002-6.002 0-0.060 0.001-0.118 0.003-0.178l-0 0.009v-51.528c0-3.407 2.762-6.17 6.17-6.17s6.17 2.762 6.17 6.17v0 51.528c0.002 0.051 0.003 0.111 0.003 0.17 0 3.316-2.688 6.002-6.002 6.002-0.060 0-0.118-0.001-0.178-0.003l0.009 0z"></path>
<path fill="#231815" d="M340.274 398.103c-3.427-0.092-6.17-2.893-6.17-6.334 0-0.001 0-0.002 0-0.003v0-103.056c0.511-3.031 3.115-5.313 6.254-5.313s5.743 2.281 6.248 5.274l0.005 0.038v103.056c0 3.5-2.837 6.337-6.337 6.337v0z"></path>
</svg>
