<svg id="レイヤー_1" data-name="レイヤー 1" xmlns="http://www.w3.org/2000/svg" width="31.91mm" height="31.37mm" viewBox="0 0 90.44 88.91"><defs><style>.cls-1,.cls-2{fill:#dbdbdb;stroke:#000;}.cls-1,.cls-10,.cls-11,.cls-14,.cls-15,.cls-16,.cls-17,.cls-5,.cls-7,.cls-8,.cls-9{stroke-width:0.18px;}.cls-2{stroke-width:0.22px;}.cls-3{fill:#666;}.cls-4{fill:#8a8a8a;}.cls-16,.cls-17,.cls-18,.cls-4,.cls-5,.cls-7{stroke:#040000;}.cls-10,.cls-13,.cls-14,.cls-15,.cls-16,.cls-17,.cls-18,.cls-4,.cls-5,.cls-7,.cls-8{stroke-linecap:round;}.cls-10,.cls-11,.cls-12,.cls-13,.cls-14,.cls-15,.cls-16,.cls-17,.cls-18,.cls-4,.cls-5,.cls-7,.cls-8{stroke-linejoin:round;}.cls-12,.cls-13,.cls-18,.cls-4{stroke-width:0.09px;}.cls-14,.cls-24,.cls-5,.cls-8,.cls-9{fill:#fff;}.cls-13,.cls-16,.cls-18,.cls-19,.cls-20,.cls-23,.cls-6{fill:none;}.cls-7{fill:#b5b5b6;}.cls-10,.cls-11,.cls-8,.cls-9{stroke:#231815;}.cls-19,.cls-20,.cls-9{stroke-miterlimit:10;}.cls-10,.cls-11,.cls-12,.cls-21{fill:#231815;}.cls-12,.cls-13{stroke:#fff;}.cls-14,.cls-15,.cls-19,.cls-20,.cls-23{stroke:#4d4d4d;}.cls-15,.cls-17{fill:#999;}.cls-19,.cls-20,.cls-23{stroke-width:0.36px;}.cls-20{stroke-dasharray:0.18 0.36;}.cls-22{fill:#595757;}.cls-23{stroke-dasharray:0.18 0.36;}</style></defs><path class="cls-1" d="M49.38,88.81H72.74A2.08,2.08,0,0,0,74.46,87H90.72a1.71,1.71,0,0,0,1.46-1.49l-.05-7.24a1.57,1.57,0,0,0-1.55-1.64l-14.5-1.39c0-.53-.59-1.58-1.43-1.65l-1,0v-.25L57.49,71l0-1.83-.13-5H38.76l.08,5.19V78.7c0,8.65,8,10.12,10.79,10.12" transform="translate(-2.6)"/><path class="cls-2" d="M38.79,78.94" transform="translate(-2.6)"/><path class="cls-2" d="M57,72.16c-1.8,3.43-4.09,3.92-4.09,3.92" transform="translate(-2.6)"/><path class="cls-1" d="M72.9,75.35c-2.05,2.85-2.2,9.55-.57,11.84" transform="translate(-2.6)"/><path class="cls-1" d="M75.76,75.59c-2.05,2.86-2.45,8.82-1.63,10.46" transform="translate(-2.6)"/><ellipse class="cls-3" cx="91.48" cy="82.14" rx="4.95" ry="1.54" transform="translate(1.34 168.46) rotate(-86.52)"/><ellipse class="cls-4" cx="45.48" cy="64.19" rx="9.31" ry="4.76"/><path class="cls-5" d="M55,53.05c0-1.94-3.09-3.51-6.91-3.51s-6.91,1.57-6.91,3.51l-.06,5.5V64c0,2,3.11,3.6,6.94,3.6S55,66,55,64v-11Z" transform="translate(-2.6)"/><path class="cls-6" d="M44.32,47.94" transform="translate(-2.6)"/><ellipse class="cls-7" cx="45.5" cy="52.84" rx="5.99" ry="2.72"/><polyline class="cls-8" points="48.06 53.24 47.97 51.5 49.03 51.62 49.17 53.6"/><rect class="cls-9" x="50.57" y="51.34" width="1.07" height="0.36" rx="0.13" transform="translate(8.57 -9.07) rotate(11.37)"/><polyline class="cls-8" points="47.78 55.3 47.69 53.41 48.75 53.53 48.89 54.93"/><rect class="cls-9" x="50.29" y="53.25" width="1.07" height="0.36" rx="0.13" transform="translate(8.94 -8.97) rotate(11.37)"/><polyline class="cls-8" points="40.74 54.34 40.65 51.51 41.72 51.63 41.85 54.98"/><rect class="cls-9" x="43.25" y="51.36" width="1.07" height="0.36" rx="0.13" transform="translate(8.42 -7.62) rotate(11.37)"/><polyline class="cls-8" points="42.98 53.3 42.88 50.76 43.95 50.88 44.09 53.15"/><rect class="cls-9" x="45.49" y="50.61" width="1.07" height="0.36" rx="0.13" transform="translate(8.32 -8.08) rotate(11.37)"/><polyline class="cls-8" points="42.39 55.03 42.29 53.25 43.36 53.37 43.49 55.29"/><rect class="cls-9" x="44.89" y="53.09" width="1.07" height="0.36" rx="0.13" transform="translate(8.8 -7.91) rotate(11.37)"/><polygon class="cls-10" points="45.11 52.55 45.66 52.63 46.33 51.59 45.81 51.54 45.11 52.55"/><polyline class="cls-11" points="45.11 55.46 45.11 52.55 46.33 51.59 46.33 55.53"/><line class="cls-12" x1="45.68" y1="55.17" x2="45.68" y2="52.73"/><polyline class="cls-13" points="45.11 52.55 45.66 52.63 46.33 51.59"/><g id="CIRCLE"><circle class="cls-14" cx="46.47" cy="9.38" r="9.29"/></g><g id="CIRCLE-2" data-name="CIRCLE"><circle class="cls-15" cx="46.47" cy="9.38" r="8.33"/></g><g id="ARC"><path class="cls-16" d="M55.91,7.69A7,7,0,0,0,42,9.36" transform="translate(-2.6)"/></g><g id="ARC-2" data-name="ARC"><path class="cls-14" d="M55.91,7.72a7,7,0,1,0,0,3.33" transform="translate(-2.6)"/></g><polyline class="cls-15" points="53.39 11.2 50.61 11.2 50.61 7.61 53.39 7.61"/><path class="cls-17" d="M56,11.2" transform="translate(-2.6)"/><path class="cls-17" d="M56,7.61" transform="translate(-2.6)"/><g id="LINE"><line class="cls-18" x1="39.29" y1="9.4" x2="39.29" y2="9.43"/></g><path d="M44,8.91c-1,.06-1.78.23-1.78.43s.75.37,1.77.42a.87.87,0,0,0,1.56,0c1,0,1.75-.22,1.75-.42s-.74-.37-1.77-.42a.85.85,0,0,0-.76-.47.89.89,0,0,0-.77.46" transform="translate(-2.6)"/><path d="M50.38,4.89c-1,.06-1.78.23-1.78.43s.75.36,1.77.42a.87.87,0,0,0,1.56,0c1-.06,1.75-.22,1.75-.42s-.74-.37-1.77-.43a.86.86,0,0,0-.76-.46.89.89,0,0,0-.77.46" transform="translate(-2.6)"/><path d="M45.73,5.55c-.69.77-1.1,1.42-1,1.57s.79-.27,1.55-1A.89.89,0,0,0,47.21,6a.87.87,0,0,0,.21-.89c.68-.76,1.09-1.4.95-1.54s-.79.27-1.56.95a.86.86,0,0,0-1.08,1.08" transform="translate(-2.6)"/><path d="M49.46,8.6c-.06-1-.23-1.78-.43-1.78s-.36.74-.42,1.77a.88.88,0,0,0-.48.78.9.9,0,0,0,.48.78c.06,1,.22,1.75.42,1.75s.37-.74.43-1.77a.87.87,0,0,0,.46-.76.89.89,0,0,0-.46-.77" transform="translate(-2.6)"/><path d="M50.38,13.81a.89.89,0,0,0,.77.46.85.85,0,0,0,.76-.47c1-.06,1.77-.22,1.77-.42S53,13,51.93,13a.88.88,0,0,0-1.56,0c-1,.06-1.77.23-1.77.43s.75.37,1.78.43" transform="translate(-2.6)"/><path d="M45.73,13.14A.89.89,0,0,0,46,14a.84.84,0,0,0,.86.21c.77.69,1.41,1.09,1.56.95s-.27-.78-.95-1.54a.87.87,0,0,0-.21-.89.89.89,0,0,0-.89-.21c-.76-.68-1.41-1.09-1.55-.95s.27.79,1,1.56" transform="translate(-2.6)"/><line class="cls-19" x1="46.34" y1="51.37" x2="46.34" y2="51.28"/><line class="cls-20" x1="46.34" y1="50.91" x2="46.34" y2="12.79"/><line class="cls-19" x1="46.34" y1="12.6" x2="46.34" y2="12.51"/><path class="cls-21" d="M2.6,70.47a1.88,1.88,0,0,1,1.76-2c1,0,1.57.74,1.57,1.82a2.21,2.21,0,0,1,0,.42H3.39a1.16,1.16,0,0,0,1.19,1.18,1.67,1.67,0,0,0,.92-.29l.28.51a2.33,2.33,0,0,1-1.3.41A1.86,1.86,0,0,1,2.6,70.47Zm2.63-.35c0-.66-.3-1.05-.86-1.05a1.06,1.06,0,0,0-1,1.05ZM3.89,67.48,5,66.13l.56.54L4.3,67.88Z" transform="translate(-2.6)"/><path class="cls-21" d="M6.83,71.49V66.81h.8v4.72c0,.22.09.3.19.3l.13,0,.11.61a1.14,1.14,0,0,1-.44.07C7,72.49,6.83,72.11,6.83,71.49Z" transform="translate(-2.6)"/><path class="cls-21" d="M8.64,70.47a1.88,1.88,0,0,1,1.76-2c1,0,1.57.74,1.57,1.82a2.21,2.21,0,0,1,0,.42H9.43a1.17,1.17,0,0,0,1.19,1.18,1.67,1.67,0,0,0,.92-.29l.28.51a2.33,2.33,0,0,1-1.3.41A1.86,1.86,0,0,1,8.64,70.47Zm2.63-.35c0-.66-.3-1.05-.86-1.05a1.06,1.06,0,0,0-1,1.05Z" transform="translate(-2.6)"/><path class="cls-21" d="M12.59,70.47a1.9,1.9,0,0,1,1.91-2,1.64,1.64,0,0,1,1.13.45l-.4.52a1,1,0,0,0-.69-.3c-.65,0-1.11.55-1.11,1.36s.45,1.36,1.08,1.36a1.33,1.33,0,0,0,.84-.35l.34.53a1.94,1.94,0,0,1-1.25.48A1.83,1.83,0,0,1,12.59,70.47Z" transform="translate(-2.6)"/><path class="cls-21" d="M16.61,71.13V69.19h-.56v-.61l.6,0,.1-1.06h.67v1.06h1v.65h-1v2c0,.46.16.7.56.7a1.12,1.12,0,0,0,.41-.09l.15.6a2.51,2.51,0,0,1-.76.14C16.91,72.49,16.61,72,16.61,71.13Z" transform="translate(-2.6)"/><path class="cls-21" d="M19.26,68.54h.66l.06.7h0a1.33,1.33,0,0,1,1.09-.8.93.93,0,0,1,.44.09l-.15.7a1.16,1.16,0,0,0-.38-.06c-.32,0-.7.21-.94.82v2.4h-.8Z" transform="translate(-2.6)"/><path class="cls-21" d="M22,67.34a.5.5,0,1,1,.5.48A.47.47,0,0,1,22,67.34Zm.1,1.2h.81v3.85h-.81Z" transform="translate(-2.6)"/><path class="cls-21" d="M26.52,72.65l0-.67a1.62,1.62,0,0,1-1.1.51c-1,0-1.59-.74-1.59-2a1.82,1.82,0,0,1,1.65-2,1.51,1.51,0,0,1,1.08.47h0l.07-.37h.64V74h-.81Zm0-1.3V69.47a1.19,1.19,0,0,0-.84-.35c-.54,0-1,.51-1,1.34s.35,1.36.95,1.36A1.12,1.12,0,0,0,26.52,71.35Z" transform="translate(-2.6)"/><path class="cls-21" d="M28.49,71V68.54h.81v2.33c0,.66.19.92.64.92s.6-.17.93-.57V68.54h.8v3.85H31L31,71.81h0a1.61,1.61,0,0,1-1.26.68C28.85,72.49,28.49,72,28.49,71Z" transform="translate(-2.6)"/><path class="cls-21" d="M32.61,70.47a1.87,1.87,0,0,1,1.75-2c1,0,1.58.74,1.58,1.82a2.21,2.21,0,0,1,0,.42H33.4a1.16,1.16,0,0,0,1.19,1.18,1.67,1.67,0,0,0,.92-.29l.28.51a2.34,2.34,0,0,1-1.31.41A1.85,1.85,0,0,1,32.61,70.47Zm2.63-.35c0-.66-.3-1.05-.86-1.05a1.06,1.06,0,0,0-1,1.05Z" transform="translate(-2.6)"/><path class="cls-21" d="M4.47,4.65H6c1.15,0,2,.4,2,1.56S7.18,7.86,6.06,7.86H5.28v2H4.47ZM6,7.21c.83,0,1.22-.32,1.22-1s-.43-.9-1.25-.9H5.28v1.9Z" transform="translate(-2.6)"/><path class="cls-21" d="M8.93,6h.65l.07.69h0a1.34,1.34,0,0,1,1.09-.79.86.86,0,0,1,.43.09l-.14.7a1.23,1.23,0,0,0-.39-.07c-.31,0-.69.22-.93.83v2.4h-.8Z" transform="translate(-2.6)"/><path class="cls-21" d="M11.69,4.76a.46.46,0,0,1,.5-.48.48.48,0,1,1,0,1A.46.46,0,0,1,11.69,4.76Zm.1,1.2h.8V9.81h-.8Z" transform="translate(-2.6)"/><path class="cls-21" d="M13.39,9.37l.38-.52a1.72,1.72,0,0,0,1.09.44c.46,0,.68-.22.68-.51s-.43-.51-.85-.67S13.61,7.64,13.61,7,14.13,5.86,15,5.86a2,2,0,0,1,1.25.46l-.38.5A1.43,1.43,0,0,0,15,6.48c-.42,0-.62.21-.62.48s.38.45.8.6S16.3,8,16.3,8.73,15.79,9.9,14.84,9.9A2.38,2.38,0,0,1,13.39,9.37Z" transform="translate(-2.6)"/><path class="cls-21" d="M16.88,7.89a1.88,1.88,0,0,1,1.76-2c1,0,1.58.74,1.58,1.82a2.3,2.3,0,0,1,0,.42H17.67a1.17,1.17,0,0,0,1.2,1.17A1.63,1.63,0,0,0,19.78,9l.28.51a2.3,2.3,0,0,1-1.3.4A1.85,1.85,0,0,1,16.88,7.89Zm2.64-.35c0-.66-.3-1-.86-1a1,1,0,0,0-1,1Z" transform="translate(-2.6)"/><path class="cls-22" d="M45,29.49c-2.24,2.16-3.32,6.09.68,11.53l-3.54-.36c-2.54-1.81-4-7.26-1.76-11.8l-3.59-.75,9.18-2.25,1.76,3.85Z" transform="translate(-2.6)"/><polyline class="cls-23" points="38.71 9.76 34.18 9.76 20.85 31.08 33.04 51.6 39.77 51.6"/><polyline class="cls-23" points="41.25 5.45 24.97 5.45 9.56 31.48 23.66 54.82 42.62 54.82"/><polyline class="cls-23" points="42.84 49.54 32.07 31.42 43.85 12.58"/><polyline class="cls-23" points="49.34 50.42 60.1 32.29 48.33 13.46"/><polyline class="cls-23" points="50.39 5.44 66.67 5.44 82.08 31.47 67.99 54.81 49.02 54.81"/><circle class="cls-24" cx="58.89" cy="31.67" r="2.94"/><path class="cls-21" d="M61.59,34.35a2.74,2.74,0,1,1,2.74-2.73A2.73,2.73,0,0,1,61.59,34.35ZM59,31.62a2.55,2.55,0,1,0,2.55-2.56A2.55,2.55,0,0,0,59,31.62Zm2.42-1.16h0l-.51.27-.07-.31.61-.32h.36v3h-.39Z" transform="translate(-2.6)"/><circle class="cls-24" cx="21.59" cy="31.86" r="2.94"/><path class="cls-21" d="M24.21,34.55a2.74,2.74,0,1,1,2.73-2.74A2.73,2.73,0,0,1,24.21,34.55Zm-2.55-2.74a2.55,2.55,0,1,0,2.55-2.55A2.55,2.55,0,0,0,21.66,31.81Zm2.79,1.52v-.8H22.89v-.26l1.55-2h.39v1.92h.46v.31h-.46v.8Zm0-1.11V31.06c0-.1,0-.26,0-.37h0c-.07.12-.14.24-.22.35l-1,1.17h1.19Z" transform="translate(-2.6)"/><circle class="cls-24" cx="32.93" cy="31.68" r="2.94"/><path class="cls-21" d="M35.56,34.37a2.74,2.74,0,1,1,2.73-2.74A2.74,2.74,0,0,1,35.56,34.37ZM33,31.63a2.56,2.56,0,1,0,2.56-2.55A2.55,2.55,0,0,0,33,31.63Zm3.48-1.15H35.25l-.11.77a1.17,1.17,0,0,1,.29,0c.59,0,1.12.31,1.12.93a1.05,1.05,0,0,1-1.15,1,1.57,1.57,0,0,1-.81-.2l.1-.3a1.49,1.49,0,0,0,.71.18.7.7,0,0,0,.75-.63c0-.39-.25-.68-.9-.68a3.08,3.08,0,0,0-.48,0L35,30.15h1.53Z" transform="translate(-2.6)"/><circle class="cls-24" cx="46.39" cy="31.98" r="2.94"/><path class="cls-21" d="M49,34.67a2.74,2.74,0,1,1,2.74-2.74A2.74,2.74,0,0,1,49,34.67Zm-2.55-2.74A2.55,2.55,0,1,0,49,29.38,2.55,2.55,0,0,0,46.46,31.93Zm3.32-1.19h-.1l-.28,0a1.16,1.16,0,0,0-1.07,1.06h0a1,1,0,0,1,.81-.35.91.91,0,0,1,1,.93A1.08,1.08,0,0,1,49,33.46c-.59,0-1.06-.41-1.06-1.27a1.63,1.63,0,0,1,1.42-1.76l.44,0Zm-.07,1.66a.65.65,0,0,0-.66-.66c-.36,0-.75.23-.75.54s.13.89.73.89A.72.72,0,0,0,49.71,32.4Z" transform="translate(-2.6)"/><circle class="cls-24" cx="81.01" cy="31.26" r="2.94"/><path class="cls-21" d="M83.63,34a2.73,2.73,0,1,1,2.73-2.73A2.73,2.73,0,0,1,83.63,34Zm-2.55-2.73a2.55,2.55,0,1,0,2.55-2.55A2.55,2.55,0,0,0,81.08,31.22ZM82.6,32.7v-.25l.33-.29c1-.85,1.25-1.14,1.25-1.53a.59.59,0,0,0-.67-.61,1.17,1.17,0,0,0-.71.28L82.68,30a1.44,1.44,0,0,1,.92-.33.88.88,0,0,1,1,.87c0,.57-.41.94-1.21,1.63l-.21.17h1.5v.33Z" transform="translate(-2.6)"/><circle class="cls-24" cx="10.49" cy="31.77" r="2.94"/><path class="cls-21" d="M13.12,34.46a2.74,2.74,0,1,1,2.73-2.73A2.74,2.74,0,0,1,13.12,34.46Zm-2.55-2.73a2.55,2.55,0,1,0,2.55-2.55A2.55,2.55,0,0,0,10.57,31.73Zm1.65,1a1.56,1.56,0,0,0,.73.2c.63,0,.75-.39.75-.56,0-.48-.5-.6-.88-.6h-.24v-.31h.25c.36,0,.75-.14.75-.49,0-.2-.13-.44-.58-.44a1.23,1.23,0,0,0-.66.2l-.11-.28a1.5,1.5,0,0,1,.84-.25c.67,0,.92.38.92.71a.75.75,0,0,1-.59.69h0a.81.81,0,0,1,.72.76c0,.43-.37.89-1.17.89a1.54,1.54,0,0,1-.84-.23Z" transform="translate(-2.6)"/></svg>