<svg id="レイヤー_1" data-name="レイヤー 1" xmlns="http://www.w3.org/2000/svg" width="242.19" height="61.3" viewBox="0 0 242.19 61.3"><defs><style>.cls-1{fill:#fff;}.cls-2,.cls-3{fill:none;stroke:#000;}.cls-2{stroke-width:0.73px;}.cls-3{stroke-miterlimit:10;stroke-width:2.32px;}.cls-4{fill:#231815;}</style></defs><rect x="75.3" y="13.18" width="93.27" height="14.43"/><path class="cls-1" d="M112.05,20.13a4.2,4.2,0,0,0-1.44-1l.55-.67a9.87,9.87,0,0,1,1.49.94Zm.19,2.73c-.16.59-.33,1.19-.47,1.77a3,3,0,0,0-1-.57,8,8,0,0,0,.72-1.63c.17-.57.34-1.17.47-1.76a2.07,2.07,0,0,0,.79.49C112.58,21.66,112.41,22.25,112.24,22.86Zm.25-5a6.42,6.42,0,0,0-1.32-1.08l.57-.65a14.64,14.64,0,0,1,1.34,1Zm3.12,3a18.78,18.78,0,0,0-1.93.1V20.1a18.78,18.78,0,0,0,1.93.1V18.15c-1,0-1.72,0-2.29.1v-.92c.67.07,1.58.1,2.82.1s2.13,0,2.8-.1v.92c-.61-.06-1.41-.09-2.48-.1V20.2c.89,0,1.58,0,2.12-.1V21c-.54-.06-1.23-.09-2.12-.1v2.59c1.09,0,1.93,0,2.56-.1v.91c-.72-.06-1.69-.09-3-.09s-2.29,0-3,.09v-.91c.64.06,1.49.09,2.61.1Zm.08-3.7a4,4,0,0,0-.41-1.15l.91-.31a6.63,6.63,0,0,1,.46,1.14Z"/><path class="cls-1" d="M125.69,24.53l-.82-.33a3.16,3.16,0,0,0,.73-1.5l.87.22C126.17,23.61,126,24,125.69,24.53Zm1.27-6.9,1-.28a3.11,3.11,0,0,0,.36.61c-.29.08-.51.13-.76.22h2.24a2.92,2.92,0,0,0,.41-.83,6.54,6.54,0,0,0,1.05.22c.12,0,.13.05,0,.08a1.3,1.3,0,0,0-.64.53c1,0,1.8,0,2.44-.06v.74c-.65-.05-1.56-.08-4-.08s-3.58,0-4.11.08v-.74c.55,0,1.63.06,2.43.06A2.31,2.31,0,0,0,127,17.63ZM128.35,16l1-.17c0,.19.12.56.23.89,1.26,0,2.14,0,2.92-.07v.73c-.89,0-2-.07-3.6-.07s-2.7,0-3.59.07V16.6c.77,0,1.83.07,3.28.07A3.46,3.46,0,0,0,128.35,16Zm.68,6.24c-1.77,0-2.33,0-2.93,0a2.25,2.25,0,0,0,.09-.67V20a2.35,2.35,0,0,0-.09-.69c.6,0,1.16.05,2.93.05s2.33,0,2.94-.05a2,2,0,0,0-.1.69v1.57a1.93,1.93,0,0,0,.1.67C131.36,22.2,130.79,22.19,129,22.19ZM131.14,20h-4.22v.54h4.22Zm-4.22,1.64h4.22v-.52h-4.22Zm3.16,3a21.48,21.48,0,0,1-2.55,0c-.45-.1-.49-.16-.49-.6v-.81a2.26,2.26,0,0,0-.06-.57,2.43,2.43,0,0,0,.86.13c.16,0,.2,0,.07.12a.23.23,0,0,0-.12.23v.37c0,.28.07.49.34.51a12,12,0,0,0,1.78,0c.61-.05.67-.1.78-.94a1.5,1.5,0,0,0,.86.37C131.13,24.4,131.07,24.52,130.08,24.58ZM129,23.48a3.06,3.06,0,0,0-.49-1l.9-.25c.13.24.38.69.53.9Zm3.53.73a6.05,6.05,0,0,0-1.06-1.36l.68-.37,1.15,1.18Z"/><rect class="cls-2" x="75.3" y="13.18" width="93.2" height="40.24"/><rect class="cls-2" x="0.36" y="0.36" width="241.46" height="60.58"/><path d="M105.14,38.59a8.11,8.11,0,0,0,0,.86h-.74a5.86,5.86,0,0,0,0-.86V37.23h-.72a7.12,7.12,0,0,1-.61,2.34,1.15,1.15,0,0,0-.69-.33,5.44,5.44,0,0,0,.71-2.94V33.59a1.47,1.47,0,0,1-.1.13,1,1,0,0,0-.58-.41,6.07,6.07,0,0,0,1.65-2.38,3.48,3.48,0,0,0,.83.19c.18,0,.19.13,0,.22a1.73,1.73,0,0,0-.52.5,9.25,9.25,0,0,0,1.94-.09l-1,1.71,1.22,0c0,.31,0,.65,0,1.53v3.59c0,.79-.08.88-1,1a1.66,1.66,0,0,0-.23-.83c.54.09.59,0,.59-.35V37.23h-.81Zm-.41-5.13.59-1h-1.27c-.23.33-.48.68-.75,1Zm-.23.57h-.71v1.08h.71Zm0,1.64h-.71v1h.71Zm.64-.56H106V34h-.81Zm0,1.56H106v-1h-.81ZM111,32.74c0,.18,0,.56,0,.94v1.81c0,.39,0,.91,0,1.19h-.74v-.42h-.91v2l.87-.16a6.18,6.18,0,0,0-.29-.78l.63-.19a21.52,21.52,0,0,1,.83,2.26l-.8.22a8.4,8.4,0,0,0-.2-.9l-2.37.45a5,5,0,0,0-.92.25,7,7,0,0,0-.29-.83,9.53,9.53,0,0,0,1.88-.19V36.26h-.85v.56h-.72a9.84,9.84,0,0,0,0-1.07V33.68c0-.6,0-.79,0-.94.28,0,.81,0,1.54,0,0-1.38,0-1.65,0-1.84a5.33,5.33,0,0,0,.88.08c.13,0,.14.08,0,.15a.71.71,0,0,0-.22.55v1.06C110.14,32.78,110.7,32.76,111,32.74Zm-2.31.66h-.85v2.25h.85Zm.66,2.25h.91V33.4h-.91Z"/><path d="M120,32.18a6.83,6.83,0,0,0-.06,1.1V36A11.31,11.31,0,0,0,120,37.5h-.91v-.58H117v1.2c0,.39.17.46,1.34.5.35,0,1.25,0,1.52,0,.59-.06.73-.17.81-1.18a.87.87,0,0,0,.82.6c-.34,1.12-.48,1.21-1.56,1.29-.44,0-1.32,0-1.7,0-1.82-.05-2-.2-2-.82V36.92h-2v1h-.89a10.23,10.23,0,0,0,.1-1.61v-3a9.88,9.88,0,0,0-.06-1.1,28.08,28.08,0,0,0,2.89.11,7.57,7.57,0,0,0-.11-1.52,7.83,7.83,0,0,0,1,.06c.2,0,.23.15,0,.22a.41.41,0,0,0-.19.33v.91A29.92,29.92,0,0,0,120,32.18Zm-5.87.82v1.28h2V33Zm0,3.25h2V34.94h-2Zm5-3.25H117v1.28h2.15Zm0,1.94H117v1.31h2.15Z"/><path d="M128.12,31.64a14,14,0,0,0,1.7,0l-.34.45-1.06,1.34c1.75,0,2.46,0,2.79-.07v.8c-.48,0-1.28-.07-2.39-.07h-4.27c0,2.5-.24,4-1.08,5.45a2,2,0,0,0-.92-.47c1.09-.87,1.24-2.48,1.25-5.57-.16.12-.3.19-.44.29a2,2,0,0,0-.76-.6,5.6,5.6,0,0,0,2.78-2.44,2.56,2.56,0,0,0,.8.34c.18,0,.18.13,0,.21s-.18.11-.43.38Zm.27.65h-3.26c-.34.33-.81.75-1.25,1.1h3.54Zm1,7.08c-.52,0-1.18,0-2,0-1.51,0-1.82-.12-1.82-1V34.86h3c.58,0,.94,0,1.17,0l-.1,2.07c0,.66-.37.83-1.64.82a2.08,2.08,0,0,0-.35-.86c.91.28,1.26,0,1.27-.39l0-.88h-2.63v2.54c0,.48.06.52,1,.55.77,0,1.37,0,1.9,0,.88,0,1-.24,1-1.41a1.29,1.29,0,0,0,.88.35C130.79,39.23,130.62,39.34,129.36,39.37Z"/><path d="M134.64,34.71a4.11,4.11,0,0,1,.9,1.92,1.33,1.33,0,0,1-1.37,1.52,1.37,1.37,0,0,0-.37-.9c.78.06,1-.08,1-.71a4,4,0,0,0-.81-1.76l.67-2.51h-1v5.49c0,.62,0,1.21.08,2h-1a17.41,17.41,0,0,0,.11-2V32.5a6.8,6.8,0,0,0-.08-1,12.41,12.41,0,0,0,1.51.06,10.62,10.62,0,0,0,1.5-.07Zm2.1-.8a9.15,9.15,0,0,0,1.35.07,8.08,8.08,0,0,0,1.48-.08v.79a13.57,13.57,0,0,0-1.48,0,8.47,8.47,0,0,0-1.4.08V34a10.69,10.69,0,0,1-1,1.16,1.36,1.36,0,0,0-.73-.53A7.39,7.39,0,0,0,137,32.23a5.08,5.08,0,0,0,.58-1.37,4.43,4.43,0,0,0,1,.33c.15,0,.17.11,0,.17a.5.5,0,0,0-.17.1,4.15,4.15,0,0,0,3,2.23,1.92,1.92,0,0,0-.52,1,5.4,5.4,0,0,1-2.81-2.82A16.94,16.94,0,0,1,136.74,33.91Zm2.67,1.14a6.71,6.71,0,0,0,1,.34c.14,0,.13.09,0,.18s-.19.2-.3.49c-.21.59-.67,1.8-.93,2.46a15.61,15.61,0,0,0,1.73-.09v.85a25.23,25.23,0,0,0-2.8-.09,26.15,26.15,0,0,0-2.84.09v-.85a17.52,17.52,0,0,0,1.83.09h1.38A17.34,17.34,0,0,0,139.41,35.05Zm-3,2.67a5.84,5.84,0,0,0-.39-2l.78-.23c.1.59.28,1.38.44,2Zm1.33-.36a5.73,5.73,0,0,0-.29-1.89l.77-.14a18.62,18.62,0,0,0,.33,1.9Z"/><path d="M104.46,47.93a8.62,8.62,0,0,0-.66.75,3.47,3.47,0,0,0-.61-.66,1.2,1.2,0,0,0,.31-1V43.8a6.13,6.13,0,0,0-1,.05V43a5.2,5.2,0,0,0,.88,0,6.59,6.59,0,0,0,1,0,7.43,7.43,0,0,0-.08,1.24V47.1a6.94,6.94,0,0,0,1-.94,1.89,1.89,0,0,0,.38.7Zm-.47-5.7a6.17,6.17,0,0,0-1-1.46l.76-.44c.3.49.67,1,1,1.46Zm1.36-.51V41c.35.05,1.44.1,2.29.12,0-.49,0-.75,0-.93a3.73,3.73,0,0,0,.82,0c.12,0,.14.06,0,.16a.58.58,0,0,0-.09.35v.4c.91,0,2.11-.07,2.52-.12v.75c-.41,0-1.61-.1-2.52-.11v.66c.82,0,1.8-.06,2.2-.11v.73c-.4,0-1.38-.1-2.2-.11v.72c1,0,2.43,0,2.86-.1v.74c-.53-.07-2.11-.11-3.08-.11s-2.58,0-3.1.11V43.4c.4.05,1.64.09,2.58.1v-.72c-.75,0-1.62.06-2,.11v-.73c.37.05,1.25.1,2,.11v-.66C106.79,41.63,105.69,41.67,105.35,41.72Zm1.32,5.76V49h-.81c0-.52.06-1,.06-1.39V45.51a8.28,8.28,0,0,0,0-.84c.36,0,1.5,0,2.26,0,1,0,1.91,0,2.25,0,0,.14,0,.49,0,.84V48c0,.91-.06,1-1.39,1.09a2.18,2.18,0,0,0-.35-.86c.85.09,1,0,1-.4v-.34Zm3-1.66v-.56h-3v.56Zm0,1.1v-.56h-3v.56Z"/><path d="M118.67,41.6c1,0,1.8,0,2.2-.06L120.48,47c-.08,1.21-.45,1.6-2.13,1.75a2.48,2.48,0,0,0-.41-1.13c1.23.16,1.61-.07,1.66-.76l.4-4.49h-1.14c-.74,4.12-1.57,5.11-4.41,6.51a1.84,1.84,0,0,0-.7-.74c2.82-1,3.76-2.33,4.31-5.77h-1.17a6.41,6.41,0,0,1-3.15,4.5,1.66,1.66,0,0,0-.6-.61,5.25,5.25,0,0,0,3-3.89H115a16.78,16.78,0,0,1-1.36,2,1.39,1.39,0,0,0-.75-.42,7.55,7.55,0,0,0,1.48-2.08A8.48,8.48,0,0,0,115,40a5.07,5.07,0,0,0,1.13.34c.15,0,.16.08,0,.19s-.37.31-.77,1Z"/><path d="M124.08,42.8a11.72,11.72,0,0,0-1.41.09v-.78a12.09,12.09,0,0,0,1.41.08,11.61,11.61,0,0,0-.11-2,4.12,4.12,0,0,0,.94.09c.37,0,.4.09.16.28s-.2.19-.2.35v1.27a12.74,12.74,0,0,0,1.45-.08v.78a12.35,12.35,0,0,0-1.45-.09v1.89c.44-.15.89-.32,1.37-.52a6.25,6.25,0,0,0,0,.77c-.33.09-.84.25-1.39.44v2.56c0,.78-.19,1-1.69,1.09a2.23,2.23,0,0,0-.44-1c1.15.08,1.34-.05,1.34-.44V45.67a13.08,13.08,0,0,0-1.33.57c0-.3-.15-.71-.23-1a12,12,0,0,0,1.56-.3Zm5.6,5.07c0,.85-.45,1.17-1.91,1.17a2.52,2.52,0,0,0-.44-1c1.35.3,1.52.21,1.52-.4V41.88c-1.25,0-2,0-2.44.08v-.85c.51,0,1.37.08,2.84.08a20.42,20.42,0,0,0,2.17-.08V42c-.43-.05-1-.07-1.74-.08Z"/><path d="M141.18,44.26v.9c-.5,0-1.42-.06-2.24-.06v2.28c0,.47,0,1.12.1,1.7H138c.05-.58.09-1.23.09-1.7V45.09h-2a5.45,5.45,0,0,1-2.41,4,2.25,2.25,0,0,0-1-.66,4.05,4.05,0,0,0,2.55-3.37c-1,0-2,0-2.55.1v-.9c.65,0,1.46.06,2.56.06V41.63a15.51,15.51,0,0,0-2,.1v-.92c.49.07,1.77.1,3.69.1a29.09,29.09,0,0,0,3.71-.1v.92a15.72,15.72,0,0,0-1.71-.09v2.7C139.76,44.33,140.67,44.31,141.18,44.26Zm-3.12.09V41.63h-2v2.72Z"/><path class="cls-3" d="M38.4,14.22c1.21-2.09,3.18-2.09,4.39,0L63,49.19c1.21,2.09.22,3.8-2.19,3.8H20.41c-2.42,0-3.41-1.71-2.2-3.8Z"/><polygon points="47.19 29.22 39.43 34.17 42.54 21.05 38.4 21.13 36.56 37.91 42.29 33.94 40.71 43.65 39.62 42.88 40.48 50.89 44.36 43.92 43.03 44.24 47.19 29.22"/><path class="cls-3" d="M198.85,14.22c1.21-2.09,3.18-2.09,4.39,0l20.19,35c1.21,2.09.22,3.8-2.19,3.8H180.85c-2.41,0-3.4-1.71-2.19-3.8Z"/><path class="cls-4" d="M204.78,47a3.29,3.29,0,1,1-3.31-3.28A3.29,3.29,0,0,1,204.78,47Zm-1.92-6.41c-.11,1-.5,1.67-1.35,1.67s-1.32-.6-1.43-1.67L198.62,25.2c-.18-1.74.07-4.27,2.85-4.27,2.6,0,3.1,2.14,2.89,4.27Z"/></svg>