<?xml version="1.0" encoding="UTF-8"?><svg id="_レイヤー_1" xmlns="http://www.w3.org/2000/svg" viewBox="0 0 88.44 88.92"><defs><style>.cls-1,.cls-2,.cls-3,.cls-4,.cls-5{fill:#fff;}.cls-6,.cls-2,.cls-7,.cls-8,.cls-9,.cls-10,.cls-11,.cls-12,.cls-4,.cls-13,.cls-14,.cls-5{stroke-linejoin:round;}.cls-6,.cls-2,.cls-7,.cls-9,.cls-10,.cls-11,.cls-12,.cls-4,.cls-13,.cls-5{stroke-linecap:round;}.cls-6,.cls-15,.cls-16,.cls-8,.cls-17,.cls-10,.cls-12{fill:none;}.cls-6,.cls-8{stroke:#fff;}.cls-6,.cls-8,.cls-12,.cls-13{stroke-width:.09px;}.cls-2,.cls-3,.cls-9,.cls-14{stroke:#231815;}.cls-2,.cls-7,.cls-18,.cls-9,.cls-10,.cls-11,.cls-4,.cls-14,.cls-5{stroke-width:.18px;}.cls-3{stroke-miterlimit:10;stroke-width:.18px;}.cls-19{fill:#595757;}.cls-15,.cls-16{stroke-dasharray:0 0 .18 .36;}.cls-15,.cls-16,.cls-17{stroke-width:.36px;}.cls-15,.cls-16,.cls-17,.cls-11,.cls-4{stroke:#4d4d4d;}.cls-15,.cls-17{stroke-miterlimit:10;}.cls-7{fill:#b5b5b6;}.cls-7,.cls-10,.cls-12,.cls-13,.cls-5{stroke:#040000;}.cls-16,.cls-18,.cls-20{stroke-miterlimit:4;}.cls-18,.cls-20{fill:#dbdbdb;stroke:#000;}.cls-9,.cls-14,.cls-21{fill:#231815;}.cls-20{stroke-width:.22px;}.cls-11{fill:#999;}.cls-13{fill:#8a8a8a;}.cls-22{fill:#666;}</style></defs><path class="cls-18" d="m44.79,88.82h23.35c.91-.15,1.61-.89,1.72-1.81h16.27c.77-.11,1.36-.72,1.45-1.49l-.05-7.24c.04-.87-.63-1.6-1.5-1.64-.02,0-.03,0-.05,0l-14.49-1.36c0-.53-.6-1.58-1.43-1.65h-1v-.25l-16.17-2.37v-1.83l-.13-5h-18.59l.08,5.19v9.34c0,8.65,8,10.12,10.78,10.12"/><path class="cls-20" d="m52.38,72.17c-1.8,3.43-4.08,3.92-4.08,3.92"/><path class="cls-18" d="m68.31,75.36c-2,2.85-2.21,9.55-.57,11.84"/><path class="cls-18" d="m71.17,75.6c-2.06,2.86-2.45,8.82-1.64,10.46"/><ellipse class="cls-22" cx="86.89" cy="82.15" rx="4.95" ry="1.54" transform="translate(-.39 163.89) rotate(-86.52)"/><ellipse class="cls-13" cx="43.48" cy="64.2" rx="9.31" ry="4.76"/><path class="cls-5" d="m50.44,53.06c0-1.94-3.1-3.51-6.91-3.51s-6.91,1.57-6.91,3.51l-.07,5.5v5.45c0,2,3.11,3.6,6.94,3.6s6.95-1.6,6.95-3.6v-11,.05Z"/><ellipse class="cls-7" cx="43.5" cy="52.85" rx="5.99" ry="2.72"/><polyline class="cls-2" points="46.06 53.25 45.97 51.51 47.03 51.63 47.17 53.61"/><rect class="cls-3" x="46.33" y="50.99" width=".36" height="1.07" rx=".13" ry=".13" transform="translate(-13.17 86.97) rotate(-78.63)"/><polyline class="cls-2" points="45.78 55.31 45.69 53.42 46.76 53.54 46.89 54.94"/><rect class="cls-3" x="46.05" y="52.9" width=".36" height="1.07" rx=".13" ry=".13" transform="translate(-15.27 88.22) rotate(-78.63)"/><polyline class="cls-2" points="38.75 54.35 38.65 51.52 39.72 51.64 39.86 54.99"/><rect class="cls-3" x="39.02" y="51.01" width=".36" height="1.07" rx=".13" ry=".13" transform="translate(-19.06 79.81) rotate(-78.63)"/><polyline class="cls-2" points="40.98 53.31 40.89 50.77 41.95 50.89 42.09 53.16"/><rect class="cls-3" x="41.25" y="50.26" width=".36" height="1.07" rx=".13" ry=".13" transform="translate(-16.54 81.4) rotate(-78.63)"/><polyline class="cls-2" points="40.39 55.04 40.3 53.26 41.36 53.38 41.5 55.3"/><rect class="cls-3" x="40.66" y="52.74" width=".36" height="1.07" rx=".13" ry=".13" transform="translate(-19.44 82.81) rotate(-78.63)"/><polygon class="cls-9" points="43.11 52.56 43.67 52.64 44.33 51.6 43.81 51.55 43.11 52.56"/><polyline class="cls-14" points="43.11 55.47 43.11 52.56 44.33 51.6 44.33 55.54"/><line class="cls-8" x1="43.68" y1="55.18" x2="43.68" y2="52.74"/><polyline class="cls-6" points="43.11 52.56 43.67 52.64 44.33 51.6"/><g id="CIRCLE"><circle class="cls-4" cx="44.47" cy="9.39" r="9.29"/></g><g id="CIRCLE-2"><circle class="cls-11" cx="44.47" cy="9.39" r="8.33"/></g><g id="ARC"><path class="cls-10" d="m51.31,7.7c-.71-3.8-4.37-6.3-8.17-5.59-3.45.65-5.89,3.75-5.7,7.26"/></g><g id="ARC-2"><path class="cls-4" d="m51.31,7.73c-.92-3.76-4.71-6.05-8.46-5.13s-6.05,4.71-5.13,8.46c.92,3.76,4.71,6.05,8.46,5.13,2.53-.62,4.51-2.6,5.13-5.13"/></g><polyline class="cls-11" points="51.39 11.21 48.61 11.21 48.61 7.62 51.39 7.62"/><g id="LINE"><line class="cls-12" x1="37.3" y1="9.41" x2="37.3" y2="9.44"/></g><path d="m39.43,8.92c-1,.06-1.78.23-1.78.43s.74.37,1.76.42c.16.29.46.48.79.48.33,0,.62-.19.77-.48,1,0,1.76-.22,1.76-.42s-.75-.37-1.77-.42c-.15-.29-.44-.47-.76-.47-.32,0-.62.18-.77.46"/><path d="m45.79,4.9c-1,.06-1.78.23-1.78.43s.74.36,1.76.42c.16.29.46.48.79.48.33,0,.62-.19.77-.48,1-.06,1.76-.22,1.76-.42s-.75-.37-1.77-.43c-.23-.42-.76-.58-1.18-.35-.15.08-.27.2-.35.35"/><path d="m41.13,5.56c-.68.77-1.1,1.42-1,1.57s.78-.27,1.55-1c.31.14.67.1.94-.12.23-.25.3-.62.17-.94.68-.76,1.08-1.4.94-1.54s-.79.27-1.55.95c-.31-.09-.64,0-.87.21-.22.23-.3.56-.22.87"/><path d="m44.86,8.61c0-1-.22-1.78-.42-1.78s-.37.74-.43,1.77c-.29.15-.48.45-.48.78,0,.33.19.63.48.78.06,1,.23,1.75.43,1.75s.36-.74.42-1.77c.28-.15.46-.44.47-.76,0-.32-.19-.62-.47-.77"/><path d="m45.79,13.82c.15.28.45.46.77.46.32,0,.61-.18.76-.47,1-.06,1.77-.22,1.77-.42s-.74-.38-1.76-.38c-.15-.29-.45-.47-.77-.47-.32,0-.62.19-.77.47-1,.06-1.76.23-1.76.43s.75.37,1.78.43"/><path d="m41.13,13.15c-.08.31,0,.64.22.87.23.23.56.31.87.21.76.69,1.41,1.09,1.55.95s-.26-.78-.94-1.54c.15-.46-.1-.95-.55-1.1-.18-.06-.37-.06-.55,0-.77-.68-1.41-1.09-1.55-.95s.27.79,1,1.56"/><line class="cls-17" x1="44.34" y1="51.38" x2="44.34" y2="51.29"/><line class="cls-15" x1="44.34" y1="50.92" x2="44.34" y2="12.8"/><line class="cls-17" x1="44.34" y1="12.61" x2="44.34" y2="12.52"/><path class="cls-19" d="m40.35,29.5c-2.24,2.16-3.31,6.09.68,11.53l-3.54-.36c-2.54-1.81-4-7.26-1.75-11.8l-3.6-.75,9.18-2.25,1.77,3.85-2.74-.22Z"/><polyline class="cls-16" points="36.71 9.77 32.18 9.77 18.85 31.09 31.04 51.61 37.78 51.61"/><polyline class="cls-16" points="39.26 5.46 22.97 5.46 7.57 31.49 21.66 54.83 40.63 54.83"/><polyline class="cls-16" points="40.84 49.55 30.07 31.43 41.85 12.59"/><polyline class="cls-16" points="47.34 50.43 58.11 32.3 46.33 13.47"/><polyline class="cls-16" points="48.39 5.45 64.67 5.45 80.08 31.48 65.99 54.82 47.02 54.82"/><circle class="cls-1" cx="56.89" cy="31.68" r="2.94"/><path class="cls-21" d="m57,34.36c-1.51,0-2.74-1.22-2.75-2.73,0-1.51,1.22-2.74,2.73-2.75,1.51,0,2.74,1.22,2.75,2.73,0,0,0,.01,0,.02,0,1.51-1.22,2.72-2.73,2.73Zm-2.55-2.73c0,1.41,1.15,2.55,2.56,2.54,1.41,0,2.55-1.15,2.54-2.56,0-1.4-1.15-2.54-2.55-2.54-1.41,0-2.55,1.14-2.55,2.55,0,0,0,0,0,.01Zm2.42-1.16h0l-.5.27-.08-.31.61-.32h.37v3h-.39v-2.64Z"/><circle class="cls-1" cx="19.59" cy="31.87" r="2.94"/><path class="cls-21" d="m19.62,34.56c-1.51,0-2.74-1.22-2.75-2.73,0-1.51,1.22-2.74,2.73-2.75s2.74,1.22,2.75,2.73c0,0,0,0,0,0,0,1.51-1.22,2.73-2.73,2.74Zm-2.56-2.74c0,1.41,1.14,2.56,2.55,2.57,1.41,0,2.56-1.14,2.57-2.55,0-1.41-1.14-2.56-2.55-2.57,0,0,0,0,0,0-1.41,0-2.55,1.13-2.56,2.54,0,0,0,0,0,.01Zm2.8,1.52v-.8h-1.57v-.26l1.55-2h.4v1.92h.45v.31h-.45v.8l-.38.03Zm0-1.11v-1.53h0l-.22.35-1,1.17h1.22Z"/><circle class="cls-1" cx="30.93" cy="31.69" r="2.94"/><path class="cls-21" d="m30.96,34.38c-1.51,0-2.74-1.22-2.75-2.73s1.22-2.74,2.73-2.75,2.74,1.22,2.75,2.73c0,0,0,0,0,0,0,1.51-1.22,2.73-2.73,2.74Zm-2.55-2.74c0,1.41,1.14,2.55,2.55,2.55s2.55-1.14,2.55-2.55-1.14-2.55-2.55-2.55h0c-1.41,0-2.55,1.14-2.55,2.55Zm3.47-1.15h-1.23l-.11.77c.1-.01.2-.01.3,0,.58,0,1.12.31,1.12.93-.03.58-.53,1.03-1.11,1-.02,0-.03,0-.05,0-.28,0-.56-.06-.81-.2l.1-.3c.22.12.46.18.71.18.38.03.71-.25.75-.63,0-.39-.24-.68-.9-.68-.16-.01-.31-.01-.47,0l.17-1.42h1.53v.35Z"/><circle class="cls-1" cx="44.39" cy="31.99" r="2.94"/><path class="cls-21" d="m44.42,34.68c-1.51,0-2.74-1.22-2.75-2.73,0-1.51,1.22-2.74,2.73-2.75,1.51,0,2.74,1.22,2.75,2.73,0,0,0,0,0,0,0,1.51-1.22,2.73-2.73,2.74Zm-2.55-2.74c0,1.41,1.14,2.55,2.55,2.55s2.55-1.14,2.55-2.55-1.14-2.55-2.55-2.55h0c-1.41,0-2.55,1.14-2.55,2.55h0Zm3.32-1.19h-.38c-.57.04-1.03.49-1.08,1.06h0c.2-.23.49-.36.8-.35.51-.04.95.33,1,.84,0,.03,0,.06,0,.09,0,.6-.49,1.08-1.09,1.07-.01,0-.02,0-.03,0-.59,0-1.06-.41-1.06-1.27-.08-.88.56-1.66,1.44-1.75h.45l-.05.31Zm-.07,1.66c0-.37-.3-.66-.67-.66-.36,0-.74.23-.74.54s.12.89.73.89c.4-.02.7-.36.68-.76,0,0,0,0,0-.01Z"/><circle class="cls-1" cx="79.01" cy="31.27" r="2.94"/><path class="cls-21" d="m79.04,34.01c-1.51-.01-2.72-1.24-2.71-2.75.01-1.51,1.24-2.72,2.75-2.71,1.48.01,2.68,1.2,2.71,2.68.02,1.51-1.19,2.76-2.7,2.78-.02,0-.03,0-.05,0Zm-2.55-2.78c0,1.41,1.14,2.55,2.55,2.55s2.55-1.14,2.55-2.55-1.14-2.55-2.55-2.55-2.55,1.14-2.55,2.55h0Zm1.52,1.48v-.25l.33-.29c1-.85,1.24-1.14,1.25-1.53.01-.33-.24-.6-.56-.61-.04,0-.07,0-.11,0-.26.01-.51.11-.71.28l-.13-.3c.26-.21.58-.33.92-.33.48-.07.93.27.99.75,0,.04,0,.08,0,.12,0,.57-.4.94-1.21,1.63l-.21.17h1.5v.33l-2.07.03Z"/><circle class="cls-1" cx="8.5" cy="31.78" r="2.94"/><path class="cls-21" d="m8.52,34.47c-1.51,0-2.74-1.22-2.75-2.73,0-1.51,1.22-2.74,2.73-2.75,1.51,0,2.74,1.22,2.75,2.73,0,0,0,.01,0,.02,0,1.51-1.22,2.73-2.73,2.73Zm-2.55-2.73c0,1.41,1.14,2.55,2.55,2.55s2.55-1.14,2.55-2.55-1.14-2.55-2.55-2.55h0c-1.41,0-2.55,1.14-2.55,2.55Zm1.65,1c.23.13.48.2.74.2.63,0,.75-.39.75-.56,0-.48-.51-.6-.88-.6h-.25v-.31h.26c.35,0,.75-.14.75-.49,0-.2-.14-.44-.59-.44-.23,0-.46.07-.66.2l-.11-.28c.25-.16.54-.25.84-.25.67,0,.92.38.92.71-.02.34-.26.63-.6.69h0c.39.04.69.37.71.76,0,.43-.36.89-1.17.89-.29,0-.57-.09-.81-.25l.1-.27Z"/><g><path d="m.33,4.07c.29-.13.58-.25.86-.39v-1.54H.38v-.48h.81V.4h.5v1.26h.79v.48h-.79v1.3c.25-.12.49-.25.72-.38.01.23.03.41.05.55-.26.13-.52.26-.78.4v2.32c0,.46-.2.71-.59.73-.18,0-.39.01-.61,0-.02-.18-.05-.37-.08-.57.22.02.4.03.54.03.16,0,.25-.09.25-.26v-2.01c-.26.13-.53.27-.79.41l-.07-.6Zm3.94-.49c-.37.11-.75.22-1.13.32v.9h1.1v.46h-1.1v1.02h1.35v-3.64h-1.98v-.49h1.98v-.81c-.54.03-1.12.06-1.74.08-.03-.15-.06-.32-.1-.49,1.46-.04,2.85-.12,4.16-.25l.1.49c-.56.05-1.2.09-1.92.14v.83h2.15v.49h-2.15v3.64h1.35v-1.03h-1.09v-.46h1.09v-.94h-1.11v-.46h1.6v3.74h-.49v-.38h-3.2v.4h-.49v-3.61c.51-.12.97-.27,1.38-.44l.23.48Z"/><path d="m7.33,4.08c.58-.14,1.14-.28,1.7-.42v-1.1l1.08-1.22h-2.42v-.5h3.14v.53l-1.26,1.36v.78c.47-.13.94-.25,1.39-.38,0,.23-.01.42-.01.57-.47.12-.93.24-1.38.36v2.06c0,.56-.29.84-.86.84-.23,0-.53,0-.88-.01-.02-.15-.05-.34-.1-.58.34.03.63.05.86.05.29,0,.43-.14.43-.42v-1.78c-.53.15-1.05.3-1.54.45l-.15-.59ZM11.45.48h.55v5.46c0,.31.15.46.44.46h.5c.31,0,.48-.16.53-.48.04-.34.07-.77.09-1.3.13.06.33.13.59.22-.06.7-.11,1.16-.16,1.38-.09.47-.41.7-.96.7h-.75c-.55,0-.82-.3-.83-.9V.48Z"/></g><g><path d="m13.82,77.48c.29-.13.58-.25.86-.39v-1.54h-.81v-.48h.81v-1.26h.5v1.26h.79v.48h-.79v1.3c.25-.12.49-.25.72-.38.01.23.03.41.05.55-.26.13-.52.26-.78.4v2.32c0,.46-.2.71-.59.73-.18,0-.39.01-.61,0-.02-.18-.05-.37-.08-.57.22.02.4.03.54.03.16,0,.25-.09.25-.26v-2.01c-.26.13-.53.27-.79.41l-.07-.6Zm3.94-.48c-.37.11-.75.22-1.13.32v.9h1.1v.46h-1.1v1.02h1.35v-3.64h-1.98v-.49h1.98v-.81c-.54.03-1.12.06-1.74.08-.03-.15-.06-.32-.1-.48,1.46-.04,2.85-.12,4.16-.25l.1.49c-.56.05-1.2.09-1.92.14v.83h2.15v.49h-2.15v3.64h1.35v-1.03h-1.09v-.46h1.09v-.94h-1.11v-.46h1.6v3.74h-.49v-.38h-3.2v.4h-.49v-3.61c.51-.12.97-.27,1.38-.44l.23.48Z"/><path d="m20.9,77.55h3.4c.07-.92.11-2.15.11-3.68h.59c0,1.33-.03,2.56-.1,3.68h2.67v.49h-2.76c-.03.15-.08.3-.16.45.92.46,1.85.96,2.79,1.49l-.35.53c-.94-.59-1.85-1.12-2.73-1.58-.55.65-1.59,1.21-3.12,1.67-.08-.14-.21-.32-.37-.54,1.95-.53,3.05-1.21,3.32-2.02h-3.27v-.49Zm.68-2.01c.65.39,1.24.77,1.77,1.14l-.33.47c-.52-.39-1.1-.79-1.74-1.2l.31-.42Zm.68-1.47c.69.42,1.26.79,1.73,1.12l-.34.46c-.61-.46-1.17-.86-1.68-1.18l.29-.4Z"/></g></svg>