<svg id="レイヤー_1" data-name="レイヤー 1" xmlns="http://www.w3.org/2000/svg" width="68.48mm" height="35.86mm" viewBox="0 0 194.12 101.66"><defs><style>.cls-1,.cls-2{fill:none;stroke:#231815;stroke-linecap:round;stroke-linejoin:round;}.cls-2{stroke-width:0.25px;}.cls-3{fill:#231815;}</style></defs><path class="cls-1" d="M59.27,39.91,25.79,25.46m0-25L196,63.46m0,35.47L156,81.67" transform="translate(-2.35)"/><path class="cls-2" d="M81.8,33.49l-2.36.83-2.32.77-2.64.82-1.2.35-1.52.44-1.86.52-2.54.69-2.59.69c-.89.23-1.77.47-2.66.69-1.59.42-3.18.82-4.77,1.22L55.25,41l-2.11.52-.31.07-.14,0-.43.11-.56.15-.54.17-.49.18-.46.18-.3.13-.29.13-.53.27-.48.29a4.73,4.73,0,0,0-.43.31,3.87,3.87,0,0,0-.37.32,3.7,3.7,0,0,0-.28.28c-.08.11-.17.22-.24.33a2.21,2.21,0,0,0-.18.34A.87.87,0,0,0,47,45c0,.05,0,.11,0,.17a2,2,0,0,0,0,.34,1.51,1.51,0,0,0,0,.3,2,2,0,0,0,.09.33,1.68,1.68,0,0,0,.16.33,3.71,3.71,0,0,0,.23.32q.15.16.3.3l.32.25m0,0,.31.2a4.23,4.23,0,0,0,.47.25l.51.23.57.2.61.17.49.11c.43.09.87.16,1.3.21l.65.06.75,0c.45,0,.89,0,1.34,0q.39,0,.78-.06l.67-.07c.44-.06.87-.13,1.31-.22l.45-.11a3.74,3.74,0,0,0,.45-.12c.31-.09.63-.19.93-.3a3.39,3.39,0,0,0,.41-.15l.24-.09.32-.12.4-.15.56-.22c.56-.22,1.13-.45,1.69-.69l1-.45.44-.2.43-.2.71-.33.71-.34.7-.33.83-.4,1.39-.65c1.1-.52,2.2-1,3.3-1.52" transform="translate(-2.35)"/><path class="cls-1" d="M81.34,45.35l0,2m0,0-2.48,1m-1-15.11a1.57,1.57,0,0,1,.3-1,.86.86,0,0,1,1-.22M120.7,50.38a2.81,2.81,0,0,0-1.56-2.55m-41-.88v-.27M77.87,34.8l0-1.52m11.82,18.6-.15-13.94m-1.42-2.38L79.15,32m10.36,5.92a2.72,2.72,0,0,0-1.42-2.38m53,23A1.3,1.3,0,0,1,143,57.25M107.41,47l0-1.88m12.92,20,.35-14.66m-13.27-5.29a1.55,1.55,0,0,1,.41-1.11,1,1,0,0,1,1.14-.17m10.16,4-10.16-4m32,17.45.12-2.72m13.49,3.31L143,57.25m11.65,4.6a2.94,2.94,0,0,1,1.71,2.76m-1,15.45,1-15.45" transform="translate(-2.35)"/><path class="cls-1" d="M75.19,65.26a2.32,2.32,0,0,0,0,.87,2.07,2.07,0,0,0,.1.43c0,.07,0,.14.07.2l0,.1a.08.08,0,0,0,0,0v0h0a3.24,3.24,0,0,0,.52.75,7.92,7.92,0,0,0,3.14,2,17.53,17.53,0,0,0,2.74.8c.57.11,1.14.21,1.71.28h.07l.17,0,.42,0c.4,0,.81.06,1.22.08a23.56,23.56,0,0,0,6.43-.56,15.66,15.66,0,0,0,2.33-.71A28.14,28.14,0,0,0,97.81,68c1.22-.69,2.36-1.49,3.52-2.25l1.92-1.24c1.81-1.15,3.64-2.28,5.5-3.37,3.7-2.2,7.47-4.27,11.31-6.24" transform="translate(-2.35)"/><path class="cls-2" d="M122.4,81.63l-.57-.19c-.24-.08-.47-.18-.71-.28s-.33-.15-.49-.24a5.76,5.76,0,0,1-.6-.33,5.07,5.07,0,0,1-.54-.36,4.78,4.78,0,0,1-.42-.34,4,4,0,0,1-.36-.35,4.35,4.35,0,0,1-.34-.41,1.64,1.64,0,0,1-.14-.22.86.86,0,0,1-.1-.16,2.59,2.59,0,0,1-.17-.38,2.91,2.91,0,0,1-.12-.39,3.47,3.47,0,0,1-.06-.45,2.75,2.75,0,0,1,0-.4.88.88,0,0,1,0-.16c0-.08,0-.16.05-.23a1.87,1.87,0,0,0,.07-.22l.09-.22a2.82,2.82,0,0,1,.21-.38l.1-.17.12-.16a2.75,2.75,0,0,1,.22-.26A2.91,2.91,0,0,1,119,75l.16-.15.23-.2.17-.15.18-.15.3-.24.18-.14.19-.15.55-.43.38-.28.38-.28.39-.27.52-.36.67-.45c.19-.11.37-.23.55-.35l.7-.42.42-.26.56-.33.7-.42.84-.5,1.67-1,2.75-1.58M111.86,45.41c-.88.38-1.77.74-2.66,1.1l-.72.29-2,.78-2.4.94-1.84.7-5,1.92-1.61.62L94,52.4l-4.31,1.7-2.37.95-.68.27-.77.31-.35.14L85,56l-.68.29-.59.25-1.23.58c-.4.19-.79.39-1.18.6l-.3.17-.38.2-.22.13-.3.17-.28.18a2.68,2.68,0,0,0-.28.18l-.26.18-.24.19a2.11,2.11,0,0,0-.23.19l-.21.2-.2.19a1.63,1.63,0,0,1-.17.2l-.15.21a1.43,1.43,0,0,0-.14.2l-.12.21-.09.2-.08.21a1.6,1.6,0,0,0,0,.21,1.18,1.18,0,0,0,0,.2,1.48,1.48,0,0,0,0,.21,1.34,1.34,0,0,0,0,.2,1.49,1.49,0,0,0,0,.21,3,3,0,0,0,.12.4,3.72,3.72,0,0,0,.21.39,2,2,0,0,0,.28.37,3.15,3.15,0,0,0,.36.37l.43.34.25.16a2.26,2.26,0,0,0,.26.16l.28.15.29.15" transform="translate(-2.35)"/><path class="cls-1" d="M114.88,81.33A3.42,3.42,0,0,0,115.4,84a7.76,7.76,0,0,0,2.78,2.44,18.14,18.14,0,0,0,6.15,2,25.18,25.18,0,0,0,6.49.16A16.79,16.79,0,0,0,137,86.79a6.64,6.64,0,0,0,2.47-2.18l.05-.08h0s0,0,0,0l0,0a.56.56,0,0,1,.05-.08l.1-.17a3.45,3.45,0,0,1,.2-.32c.13-.22.27-.44.41-.65.28-.43.57-.86.86-1.27a40.57,40.57,0,0,1,4.18-5,54.1,54.1,0,0,1,10.2-8M78.17,47.9l0-.86M89.66,52v.88" transform="translate(-2.35)"/><path class="cls-2" d="M146.27,59.08c-4.43,2.31-10.37,5.38-14.73,7.83" transform="translate(-2.35)"/><path class="cls-1" d="M89,42.13l-11.18,4.6L72.18,49,68,50.76l-1.37.55c-1.19.45-2.39.87-3.59,1.27-.71.23-1.43.46-2.15.66l-.06,0h-.06a23.7,23.7,0,0,1-5.87.77,21.29,21.29,0,0,1-6-.73A11.57,11.57,0,0,1,47,52.59a5.84,5.84,0,0,1-1.32-.88,2.34,2.34,0,0,1-.89-2.13" transform="translate(-2.35)"/><path class="cls-2" d="M87.57,35.78c-4.4,1.84-10.37,4.33-14.72,6.3" transform="translate(-2.35)"/><path class="cls-1" d="M78.16,47.9l.72.58m0,0-2.37-1M121,66.6l-.68-.58m0,0,6.78,2.91m-.28.17L121,66.6M90.37,53.42l-.71-.58m0,0,1.34.58m-.33.13-.3-.13m65.55,28.2-.62-.57m.06-1-.06,1m-35-16,0,.93" transform="translate(-2.35)"/><path class="cls-2" d="M118.63,48.1l-1.6.82-1.59.83-1.54.82c-.69.36-1.37.73-2.05,1.11-.85.47-1.69,1-2.54,1.44s-1.68,1-2.52,1.51L105,55.73l-.75.49-1.25.84-1.24.86c-.71.49-1.41,1-2.11,1.51l-.62.46-.73.56-.56.42-.18.14-.19.15-.37.29c-.1.07-.2.16-.31.23l-.26.19a2.48,2.48,0,0,1-.26.19l-.54.37c-.31.2-.61.4-.93.59l-.44.27-.53.31-.23.12-.31.18-.48.25-.41.2-.34.16-.27.11-.38.14-.28.09a2.91,2.91,0,0,1-.39.12l-.7.19a8.33,8.33,0,0,1-.84.17q-.37.08-.75.12l-.33,0-.44,0c-.55,0-1.1.07-1.65.07h-.33l-.44,0c-.29,0-.58,0-.86-.06-.52-.06-1-.13-1.55-.24a11.35,11.35,0,0,1-1.42-.36c-.22-.07-.43-.14-.65-.23l-.28-.11-.31-.14M153.79,62c-1,.61-2,1.23-2.94,1.89s-1.75,1.23-2.59,1.87c-.42.32-.83.65-1.24,1s-.8.66-1.19,1c-.72.62-1.41,1.26-2.08,1.92-.31.31-.6.62-.9.93s-.7.76-1,1.15c-.68.78-1.33,1.59-1.94,2.43s-1,1.42-1.48,2.15c-.28.45-.56.89-.82,1.35s-.38.65-.56,1l-.06.12a.56.56,0,0,0,0,.08,1.62,1.62,0,0,1-.1.18l-.07.11-.06.09-.14.19a2.55,2.55,0,0,1-.26.3l-.33.32-.37.3-.42.28-.22.14-.31.17-.67.32c-.21.08-.42.17-.64.24l-.78.25q-.36.1-.72.18c-.28.07-.56.12-.85.17-.55.09-1.11.16-1.66.2s-1.15.07-1.73.07-1.23,0-1.84-.1l-.9-.11L124,82a13.35,13.35,0,0,1-1.54-.39" transform="translate(-2.35)"/><path class="cls-1" d="M115.78,78a5.54,5.54,0,0,1,.21-.57,5.6,5.6,0,0,1,.27-.55c.11-.18.22-.36.34-.53a5,5,0,0,1,.4-.51l.39-.42.43-.4.15-.12,0,0,.2-.17.23-.18.22-.18.87-.67c.56-.42,1.14-.83,1.72-1.23s1.21-.8,1.83-1.18l.27-.17.28-.17.89-.53,2.2-1.29L130.43,67m0,0,1.18-.66c.4-.23.79-.45,1.19-.66l2.4-1.31.56-.3.21-.11.56-.3,2.6-1.38L141.51,61l4.09-2.16M114.81,81.28c0-.1,0-.19.07-.29s.05-.21.08-.31l.18-.64.18-.6.33-1,.12-.38M45.33,46.78a5.31,5.31,0,0,1,.2-.68,5.75,5.75,0,0,1,.34-.65,4.44,4.44,0,0,1,.45-.62,6.25,6.25,0,0,1,.57-.58,5.85,5.85,0,0,1,.69-.54c.26-.19.54-.35.81-.51s.62-.32.94-.47.69-.29,1-.42l.86-.29c.3-.1.6-.18.91-.26l.2-.06.22-.05.14,0,.21,0,.46-.11.2,0,.39-.1.67-.16.65-.16,2.1-.52,4.78-1.22L67,38l2.35-.64L70.5,37l.58-.16.46-.13,1.38-.4,1.31-.39,1.29-.4,1.28-.4c1.6-.52,3.2-1.07,4.77-1.66M44.77,49.66l0-.24c0-.09,0-.18,0-.26s.07-.37.1-.56.07-.35.11-.52c.08-.43.17-.86.26-1.29M75.11,65.26a2.38,2.38,0,0,1,0-.26l.06-.26c0-.19.09-.38.14-.56s.09-.35.14-.52.17-.6.25-.9c0-.12.07-.24.1-.35m0,0a4.78,4.78,0,0,1,.27-.75,5.73,5.73,0,0,1,.41-.73,6.2,6.2,0,0,1,.54-.7c.21-.23.44-.45.67-.66s.22-.19.34-.27.23-.18.35-.27.34-.24.52-.35l.26-.16,0,0,.1,0,.07-.05.06,0,.14-.08.28-.16.34-.19.36-.2.72-.37.74-.37,1-.46,1-.45.14-.05.08,0,.25-.1.47-.19,1.1-.44,2.59-1c2.25-.89,4.5-1.78,6.75-2.65l3.13-1.21,1.43-.55.69-.26.28-.11.59-.22.44-.17.86-.33,2.28-.88c1.07-.42,2.15-.85,3.22-1.29s2-.83,3.06-1.26" transform="translate(-2.35)"/><path class="cls-3" d="M7.64,60.54a8.05,8.05,0,0,0,3,1.5,4,4,0,0,0-.55.7,8.2,8.2,0,0,1-3.2-1.88v2.06H6.07V60.85a8.66,8.66,0,0,1-3.16,1.94,4.65,4.65,0,0,0-.56-.7,8.19,8.19,0,0,0,3-1.55H2.55v-.73H6.07v-.46H5.33a3.18,3.18,0,0,0-.25-.67,9.06,9.06,0,0,0,1,0c.13,0,.17,0,.17-.13V57.5H6.2a8.55,8.55,0,0,1-3.15,1.92,2.81,2.81,0,0,0-.52-.64A9,9,0,0,0,5.17,57.5H2.7v-.67H6.45a14.35,14.35,0,0,0-1.82-.47l.48-.47a10.17,10.17,0,0,1,1.43.34,10.15,10.15,0,0,0,1.2-.57H3.48V55H8.7l.18,0,.54.42a8.65,8.65,0,0,1-2,1.15c.24.08.45.17.63.25L8,56.83H9.62l.17,0,.64.21A10.63,10.63,0,0,1,9,58.81l-.75-.29a7.07,7.07,0,0,0,.89-1h-2v1.1c0,.38-.09.56-.39.65l-.13,0h.32v.52h3.55v.73Z" transform="translate(-2.35)"/><path class="cls-3" d="M19.49,57.5v.74h-8V57.5h2.16a4.86,4.86,0,0,0-.47-1.22l.54-.11H12v-.75h3v-.77h.88v.77h3.15v.75H17.45l.5.11c-.21.44-.42.89-.61,1.22Zm-6.68,1.41h5.53v4h-.88v-.3H13.65v.32h-.84Zm.84.71v.79h3.81v-.79Zm3.81,2.28v-.84H13.65v.84Zm-3.4-5.73a4.47,4.47,0,0,1,.51,1.23l-.44.1h2.76l-.4-.1A8.55,8.55,0,0,0,17,56.17Z" transform="translate(-2.35)"/><path class="cls-3" d="M23.67,60.75l.1.71c-1.13.37-2.34.74-3.24,1l-.19-.77.39-.11v-3h.64v2.83l.49-.13V57.84H20.7V55h2.8v2.82h-.95V59h1v.74h-1v1.39ZM21.4,57.11h1.36V55.74H21.4Zm4.19-1.22a4,4,0,0,1-1.68,2.93,2.64,2.64,0,0,0-.46-.55,3.07,3.07,0,0,0,1.27-1.78h-1v-.71H25l.12,0Zm-1.46,3.28h4.06v3.7h-.81V62.6H24.91v.31h-.78Zm.78.68v.71h2.47v-.71Zm2.47,2.07v-.75H24.91v.75Zm1.17-6c-.4.36-.85.73-1.24,1a3.15,3.15,0,0,0,1.47,1.21,3.52,3.52,0,0,0-.52.67,3.9,3.9,0,0,1-1.73-2v1.41c0,.37-.06.57-.3.68a2.74,2.74,0,0,1-1.11.13,2.64,2.64,0,0,0-.2-.7c.32,0,.63,0,.72,0s.13,0,.13-.12V54.67h.76v.49A7.31,7.31,0,0,0,27,56.32a10.25,10.25,0,0,0,.93-1Z" transform="translate(-2.35)"/><path class="cls-3" d="M32.26,60.18a11.19,11.19,0,0,0-.72-1.24v4h-.78V59a8.9,8.9,0,0,1-1.08,2.29,4.23,4.23,0,0,0-.41-.76,9.48,9.48,0,0,0,1.4-3.23H29.49v-.78h1.27V54.65h.78v1.88h1.1v.78h-1.1V58c.26.29,1,1.33,1.21,1.57Zm5.15-2.58A8.16,8.16,0,0,1,36,61.05a4.77,4.77,0,0,0,1.68,1.19,3,3,0,0,0-.55.69,5.2,5.2,0,0,1-1.65-1.24,6.2,6.2,0,0,1-1.64,1.22,2.94,2.94,0,0,0-.5-.66A5,5,0,0,0,35,61a8.84,8.84,0,0,1-1.15-2.52,7.93,7.93,0,0,1-1.24,4.38,3,3,0,0,0-.67-.51,7.9,7.9,0,0,0,1.12-4.7v-2.5h4.42V56H33.88v1.5h2.87l.14,0Zm-2.87.63a7.47,7.47,0,0,0,1,2.16,6.84,6.84,0,0,0,.94-2.16Z" transform="translate(-2.35)"/><path class="cls-3" d="M17.66,74.67a16,16,0,0,1-.88,1.82v6.14H16V77.71a9.62,9.62,0,0,1-.84,1,4.5,4.5,0,0,0-.47-.85,9.57,9.57,0,0,0,2.2-3.45Zm3.39,4.8a6.62,6.62,0,0,0,2.22,2.16,3.67,3.67,0,0,0-.58.67,7.66,7.66,0,0,1-2.09-2.24v2.6h-.84V80.1a7.24,7.24,0,0,1-2.2,2.18,3.61,3.61,0,0,0-.57-.67,6.68,6.68,0,0,0,2.33-2.14h-2v-.75h2.48v-1H17.91V74.8h4.65v2.93h-2v1H23v.75ZM18.69,77h3V75.54h-3Z" transform="translate(-2.35)"/><path class="cls-3" d="M31.71,74.85v.33c-.09,1.91-.18,2.64-.4,2.91a.81.81,0,0,1-.58.28,6.57,6.57,0,0,1-1,0,1.63,1.63,0,0,0-.22-.74,7.85,7.85,0,0,0,.85,0,.34.34,0,0,0,.28-.09,5.73,5.73,0,0,0,.26-2H29.71a3.34,3.34,0,0,1-1.86,3.09,1.79,1.79,0,0,0-.44-.56l-.18.09a3.43,3.43,0,0,0-.18-.41l-3,.81-.22-.79c.23,0,.49-.11.78-.17l-.13-2.73.69.19a12.69,12.69,0,0,0,2-.67l.56.62a13.31,13.31,0,0,1-2.36.67l.09,1.72,1.26-.3c-.18-.27-.37-.54-.56-.77l.68-.34a6.88,6.88,0,0,1,1.14,1.71,2.81,2.81,0,0,0,1-2.16H28v-.69Zm-6.69,4H31V82.6h-.84v-.26H25.83v.3H25Zm.81.68v.75h1.71v-.75Zm1.71,2.13v-.77H25.83v.77Zm2.58-2.13H28.33v.75h1.79Zm0,2.13v-.77H28.33v.77Z" transform="translate(-2.35)"/><path class="cls-3" d="M40.94,77.23V78H33v-.75h2.16A4.65,4.65,0,0,0,34.66,76l.54-.11H33.48v-.76h3v-.76h.88v.76h3.15v.76H38.9l.5.11c-.21.44-.42.89-.61,1.21Zm-6.68,1.41h5.53v4H38.9v-.29H35.1v.31h-.84Zm.84.71v.8h3.8v-.8Zm3.8,2.28V80.8H35.1v.83Zm-3.39-5.72a4.2,4.2,0,0,1,.5,1.22l-.43.1h2.76l-.4-.1a8.42,8.42,0,0,0,.51-1.22Z" transform="translate(-2.35)"/><path class="cls-3" d="M45.12,80.48l.1.71c-1.13.37-2.34.75-3.24,1l-.19-.78.39-.1v-3h.64v2.84l.49-.14V77.57H42.15V74.76H45v2.81H44v1.12h1v.74H44v1.38Zm-2.28-3.64h1.37V75.48H42.84ZM47,75.62a4,4,0,0,1-1.68,2.93A2.36,2.36,0,0,0,44.9,78a3.13,3.13,0,0,0,1.27-1.79h-1v-.71h1.27l.12,0Zm-1.46,3.29h4.06V82.6h-.81v-.26H46.36v.3h-.78Zm.78.68v.7h2.47v-.7Zm2.47,2.06V80.9H46.36v.75Zm1.17-6c-.4.36-.85.74-1.24,1a3.07,3.07,0,0,0,1.47,1.2,3.22,3.22,0,0,0-.52.68,4,4,0,0,1-1.73-2v1.41c0,.37-.06.57-.3.69a2.77,2.77,0,0,1-1.11.12,2.43,2.43,0,0,0-.21-.7c.33,0,.64,0,.73,0s.13,0,.13-.12V74.4H48v.49a7,7,0,0,0,.44,1.16,8.3,8.3,0,0,0,.93-1Z" transform="translate(-2.35)"/><path class="cls-3" d="M53.71,79.91c-.15-.3-.44-.81-.72-1.24v4h-.78v-3.9A8.9,8.9,0,0,1,51.13,81a4.6,4.6,0,0,0-.41-.76A9.39,9.39,0,0,0,52.11,77H50.94v-.77h1.27V74.39H53v1.88h1.1V77H53v.64c.26.3,1,1.33,1.21,1.58Zm5.15-2.57a8.22,8.22,0,0,1-1.37,3.45A4.9,4.9,0,0,0,59.17,82a3.13,3.13,0,0,0-.56.69A5.43,5.43,0,0,1,57,81.43a6.16,6.16,0,0,1-1.64,1.21,2.92,2.92,0,0,0-.51-.66,4.86,4.86,0,0,0,1.64-1.2,9,9,0,0,1-1.15-2.52,7.87,7.87,0,0,1-1.24,4.37,3.34,3.34,0,0,0-.67-.5,7.92,7.92,0,0,0,1.12-4.7v-2.5h4.42v.77H55.33v1.5H58.2l.14,0ZM56,78a7.54,7.54,0,0,0,1,2.15A6.68,6.68,0,0,0,57.91,78Z" transform="translate(-2.35)"/><path class="cls-3" d="M88.11,96.56a10,10,0,0,1-.8,3.16,5.2,5.2,0,0,0,3.43.88c.43,0,2.22,0,2.76,0a3.13,3.13,0,0,0-.33.82H90.71a5.71,5.71,0,0,1-3.78-1,4.11,4.11,0,0,1-1.2,1.25,3.84,3.84,0,0,0-.63-.58,4.09,4.09,0,0,0,1.26-1.26,5.77,5.77,0,0,1-.9-1.81l.65-.24a4.91,4.91,0,0,0,.62,1.32,8,8,0,0,0,.5-1.91h-1l-.2.35-.76-.22c.49-.84,1-1.89,1.43-2.69H85.17v-.73H87.1l.14,0,.57.18c-.32.69-.76,1.57-1.2,2.41h.85l.16,0Zm2.41-2c-.67.1-1.35.17-2,.22a2.55,2.55,0,0,0-.23-.69,23.17,23.17,0,0,0,4.27-.74l.57.67a14,14,0,0,1-1.81.41v1.72h1.83v.73H91.34v2h2v.77H88.1V98.9h.69V95.69h.79V98.9h.94Z" transform="translate(-2.35)"/><path class="cls-3" d="M102.28,96.2V97h-8V96.2h2.16A4.86,4.86,0,0,0,96,95l.54-.1H94.82v-.76h3v-.77h.88v.77h3.15v.76h-1.62l.5.1c-.21.45-.42.9-.61,1.22ZM95.6,97.61h5.53v4h-.88v-.3H96.44v.32H95.6Zm.84.71v.8h3.81v-.8Zm3.81,2.28v-.84H96.44v.84Zm-3.4-5.72a4.42,4.42,0,0,1,.51,1.22l-.44.1h2.76l-.4-.1a8.42,8.42,0,0,0,.51-1.22Z" transform="translate(-2.35)"/><path class="cls-3" d="M106.46,99.45l.1.71c-1.13.37-2.34.75-3.24,1l-.19-.78.39-.1v-3h.64v2.83l.49-.13V96.54h-1.16V93.72h2.8v2.82h-1v1.12h1v.74h-1v1.38Zm-2.27-3.64h1.36V94.44h-1.36Zm4.19-1.22a4,4,0,0,1-1.68,2.93,2.64,2.64,0,0,0-.46-.55,3.07,3.07,0,0,0,1.27-1.78h-1v-.71h1.27l.12,0Zm-1.46,3.28H111v3.7h-.81v-.27H107.7v.31h-.78Zm.78.69v.7h2.47v-.7Zm2.47,2.06v-.75H107.7v.75Zm1.17-6a15.5,15.5,0,0,1-1.24,1,3.09,3.09,0,0,0,1.47,1.21,3.3,3.3,0,0,0-.52.68,4,4,0,0,1-1.73-2v1.41c0,.37-.06.57-.3.69a3,3,0,0,1-1.11.12,2.75,2.75,0,0,0-.2-.7c.32,0,.63,0,.72,0s.13,0,.13-.12V93.37h.76v.49a7.31,7.31,0,0,0,.44,1.16,9.17,9.17,0,0,0,.93-1Z" transform="translate(-2.35)"/><path class="cls-3" d="M115.05,98.88a12.18,12.18,0,0,0-.72-1.24v4h-.78v-3.9a8.9,8.9,0,0,1-1.08,2.29,4.23,4.23,0,0,0-.41-.76,9.39,9.39,0,0,0,1.4-3.23h-1.18v-.77h1.27V93.35h.78v1.89h1.1V96h-1.1v.64c.26.3,1,1.33,1.21,1.58Zm5.15-2.57a8.27,8.27,0,0,1-1.37,3.45,4.87,4.87,0,0,0,1.68,1.18,3.09,3.09,0,0,0-.55.7,5.23,5.23,0,0,1-1.65-1.25,6.2,6.2,0,0,1-1.64,1.22,3.19,3.19,0,0,0-.5-.66,4.92,4.92,0,0,0,1.63-1.2,9,9,0,0,1-1.15-2.52,7.89,7.89,0,0,1-1.24,4.37,3.34,3.34,0,0,0-.67-.5,7.92,7.92,0,0,0,1.12-4.7V93.89h4.42v.78h-3.61v1.5h2.87l.14,0Zm-2.87.63a7.54,7.54,0,0,0,1,2.15,6.68,6.68,0,0,0,.94-2.15Z" transform="translate(-2.35)"/></svg>