<?xml version="1.0" encoding="utf-8"?>
<!-- Generator: Adobe Illustrator 26.5.0, SVG Export Plug-In . SVG Version: 6.00 Build 0)  -->
<svg version="1.1" id="レイヤー_1" xmlns="http://www.w3.org/2000/svg" xmlns:xlink="http://www.w3.org/1999/xlink" x="0px"
	 y="0px" viewBox="0 0 211 119" style="enable-background:new 0 0 211 119;" xml:space="preserve">
<style type="text/css">
	.st0{clip-path:url(#SVGID_00000065043798608560122530000004700960695447713159_);fill:none;stroke:#000000;stroke-width:0.81;}
	.st1{clip-path:url(#SVGID_00000160169058424231501670000016573548439841463171_);}
	.st2{clip-path:url(#SVGID_00000053502911770947543840000000801154648945847230_);}
	.st3{clip-path:url(#SVGID_00000166661516545370973350000007565491921943541146_);}
	.st4{fill:none;}
</style>
<g>
	<defs>
		<rect id="SVGID_1_" x="1.79" y="1.67" width="207.41" height="115.65"/>
	</defs>
	<clipPath id="SVGID_00000047056908489483044840000014701973252487499693_">
		<use xlink:href="#SVGID_1_"  style="overflow:visible;"/>
	</clipPath>
	
		<rect x="2.2" y="2.08" style="clip-path:url(#SVGID_00000047056908489483044840000014701973252487499693_);fill:none;stroke:#000000;stroke-width:0.81;" width="206.6" height="114.84"/>
</g>
<g>
	<path d="M60.29,45.94c0,0.61,0.01,1.09,0.03,1.42h-0.7c0.04-0.4,0.06-0.88,0.06-1.42V42.9c-0.27,0.4-0.49,0.72-0.63,0.95
		c-0.15-0.19-0.33-0.36-0.54-0.51c0.32-0.29,0.65-0.78,1-1.44c0.35-0.67,0.6-1.31,0.74-1.95c0.23,0.11,0.48,0.2,0.76,0.29
		c-0.17,0.21-0.41,0.74-0.73,1.58V45.94z M61.11,41.38v-0.63c0.38,0.02,0.79,0.03,1.23,0.03h2.88c-0.3,1.77-0.81,3.21-1.55,4.3
		c0.7,0.67,1.46,1.16,2.28,1.46c-0.23,0.27-0.38,0.52-0.44,0.73c-0.8-0.42-1.55-0.99-2.25-1.71c-0.76,0.72-1.53,1.31-2.31,1.77
		c-0.11-0.21-0.27-0.42-0.51-0.63c0.89-0.36,1.68-0.91,2.37-1.65c-0.61-0.8-1.06-2.04-1.33-3.7L61.11,41.38z M63.26,44.51
		c0.57-0.82,0.96-1.88,1.17-3.16h-2.28C62.43,42.91,62.8,43.96,63.26,44.51z"/>
	<path d="M68.36,42.99c-0.02,0.38-0.03,0.77-0.03,1.17v1.65c0.55,0.46,1.4,0.72,2.56,0.78c1.16,0.05,2.17,0,3.04-0.17
		c-0.13,0.23-0.23,0.48-0.32,0.76h-2.12c-0.53,0-1.02-0.03-1.47-0.09c-0.45-0.06-0.89-0.21-1.3-0.43c-0.41-0.22-0.71-0.23-0.89-0.03
		c-0.18,0.2-0.36,0.43-0.55,0.68c-0.21-0.17-0.4-0.3-0.57-0.38c0.46-0.44,0.81-0.75,1.04-0.92v-2.5c-0.34,0-0.65,0.01-0.95,0.03
		v-0.57c0.32,0.02,0.61,0.03,0.89,0.03H68.36z M68.55,41.63c-0.25,0.15-0.42,0.27-0.51,0.38c-0.23-0.38-0.54-0.77-0.92-1.17
		c0.19-0.11,0.35-0.23,0.47-0.38C67.96,40.84,68.27,41.23,68.55,41.63z M71.52,40.87v1.17c1.12,0,1.85-0.01,2.18-0.03v0.57
		c-0.34-0.02-1.07-0.03-2.18-0.03v0.92h1.65c-0.02,0.53-0.03,0.95-0.03,1.27s0.01,0.75,0.03,1.3h-0.6v-0.38h-2.59v0.41h-0.6
		c0.02-0.53,0.03-0.96,0.03-1.3c0-0.34-0.01-0.77-0.03-1.3h1.58v-0.92c-1.1,0-1.81,0.01-2.15,0.03v-0.57
		c0.27,0.02,0.99,0.03,2.15,0.03v-1.11c-0.25,0.02-0.76,0.07-1.52,0.16c-0.04-0.19-0.14-0.37-0.28-0.54c0.7,0,1.38-0.04,2.06-0.13
		c0.67-0.08,1.25-0.19,1.74-0.32c0.04,0.15,0.15,0.36,0.32,0.63C72.99,40.75,72.41,40.79,71.52,40.87z M72.56,45.15v-1.17h-2.59
		v1.17H72.56z"/>
	<path d="M75.43,45.84c0.14-0.4,0.22-0.8,0.25-1.2c0.03-0.4,0.05-1.08,0.05-2.02s-0.01-1.71-0.03-2.28h5.66
		c-0.02,0.61-0.03,1.16-0.03,1.65v4.14c0,0.44-0.13,0.72-0.38,0.82c-0.25,0.11-0.55,0.18-0.89,0.22c-0.04-0.32-0.12-0.56-0.22-0.73
		c0.42,0.02,0.67,0.01,0.74-0.05c0.07-0.05,0.11-0.15,0.11-0.3v-1.58h-1.93v1.23c0,0.46,0.01,0.89,0.03,1.27h-0.7
		c0.02-0.36,0.03-0.77,0.03-1.23v-1.27h-1.8c-0.08,0.91-0.37,1.82-0.85,2.75c-0.23-0.15-0.44-0.24-0.63-0.28
		C75.1,46.62,75.29,46.24,75.43,45.84z M78.13,42.2v-1.36h-1.8v1.36H78.13z M78.13,44.01v-1.33h-1.8v1.33H78.13z M80.7,42.2v-1.36
		h-1.93v1.36H80.7z M80.7,44.01v-1.33h-1.93v1.33H80.7z"/>
	<path d="M86.17,43.53h-2.21c-0.42,0-0.79,0.01-1.11,0.03v-0.63c0.32,0.02,0.69,0.03,1.11,0.03h2.21v-1.99h-1.55
		c-0.38,0-0.71,0.01-0.98,0.03v-0.63c0.27,0.02,0.6,0.03,0.98,0.03h3.61c0.36,0,0.72-0.01,1.08-0.03V41
		c-0.36-0.02-0.72-0.03-1.08-0.03h-1.39v1.99h2.06c0.46,0,0.89-0.01,1.27-0.03v0.63c-0.34-0.02-0.76-0.03-1.27-0.03h-2.06v2.91
		c0,0.38-0.13,0.61-0.38,0.68c-0.25,0.07-0.62,0.12-1.11,0.14c-0.02-0.27-0.11-0.56-0.25-0.85c0.34,0.04,0.6,0.06,0.79,0.05
		c0.19-0.01,0.28-0.1,0.28-0.27V43.53z"/>
	<path d="M93.32,41.48v-0.7c0-0.15-0.01-0.35-0.03-0.6h0.7c-0.02,0.21-0.03,0.56-0.03,1.04V46c0,0.49,0.01,0.91,0.03,1.27h-0.7
		c0.02-0.36,0.03-0.64,0.03-0.85v-0.73H91.9c-0.3,0-0.58,0.02-0.85,0.06v-0.63c0.27,0.02,0.55,0.03,0.82,0.03h1.46v-1.42h-0.95
		c-0.3,0-0.61,0.01-0.95,0.03v-0.57c0.34,0.02,0.66,0.03,0.98,0.03h0.92v-1.2h-1.33c-0.25,0-0.54,0.01-0.85,0.03v-0.6
		c0.32,0.02,0.6,0.03,0.85,0.03H93.32z M98.13,45.75c-0.21-0.04-0.5-0.06-0.85-0.06h-1.58v0.73c0,0.4,0.01,0.72,0.03,0.95h-0.66
		c0.02-0.23,0.03-0.53,0.03-0.89v-5.19c0-0.57-0.01-0.96-0.03-1.17h0.7c-0.04,0.21-0.06,0.43-0.06,0.66v0.7h1.49
		c0.32,0,0.6-0.01,0.85-0.03v0.6c-0.25-0.02-0.56-0.03-0.92-0.03h-1.42v1.2h1.33c0.3,0,0.55-0.01,0.76-0.03v0.57
		c-0.19-0.02-0.44-0.03-0.76-0.03h-1.33v1.42h1.58c0.32,0,0.6-0.01,0.85-0.03V45.75z"/>
	<path d="M99.68,47.42c-0.19-0.13-0.39-0.22-0.6-0.28c0.25-0.36,0.54-0.89,0.85-1.58c0.19,0.13,0.39,0.23,0.6,0.32
		C100.39,46.06,100.1,46.58,99.68,47.42z M100.41,44.64c0.06-0.04,0.1-0.15,0.1-0.32v-0.85c-0.34,0.08-0.71,0.19-1.11,0.32
		c-0.04-0.19-0.12-0.4-0.22-0.63c0.32-0.02,0.76-0.09,1.33-0.22v-1.04c-0.42,0-0.81,0.01-1.17,0.03v-0.54
		c0.34,0.02,0.73,0.03,1.17,0.03c0-0.57-0.01-1.02-0.03-1.36h0.6c-0.02,0.27-0.03,0.73-0.03,1.36c0.25,0,0.56-0.01,0.92-0.03v0.54
		c-0.36-0.02-0.66-0.03-0.92-0.03v0.92c0.3-0.06,0.6-0.14,0.92-0.22v0.51c-0.32,0.08-0.62,0.17-0.92,0.25v0.95
		c0,0.44-0.07,0.71-0.22,0.79c-0.15,0.08-0.44,0.17-0.89,0.25c-0.06-0.23-0.16-0.45-0.28-0.66
		C100.09,44.69,100.34,44.68,100.41,44.64z M101.23,45.97c0.19-0.06,0.37-0.14,0.54-0.22c0.29,0.65,0.47,1.12,0.54,1.39
		c-0.21,0.06-0.4,0.13-0.57,0.19C101.65,46.97,101.48,46.52,101.23,45.97z M102.94,43.56c-0.15-0.15-0.4-0.33-0.76-0.54
		c0.13-0.17,0.23-0.33,0.32-0.47c0.25,0.15,0.46,0.28,0.63,0.41c0.08-0.27,0.13-0.65,0.13-1.14c-0.25,0-0.56,0.02-0.92,0.06
		l-0.03-0.51c0.34-0.02,0.65-0.03,0.95-0.03c0-0.51-0.01-0.94-0.03-1.3c0.15,0.06,0.38,0.11,0.7,0.13
		c-0.06,0.32-0.09,0.71-0.09,1.17l1.39-0.06c-0.06,0.34-0.11,0.81-0.13,1.41c-0.02,0.6,0.03,1.07,0.16,1.41
		c0.13,0.34,0.25,0.5,0.36,0.47c0.12-0.02,0.21-0.29,0.27-0.82c0.19,0.13,0.39,0.21,0.6,0.25c-0.17,0.53-0.31,0.86-0.43,1
		c-0.12,0.14-0.25,0.21-0.4,0.21c-0.15,0-0.33-0.08-0.54-0.24s-0.37-0.5-0.47-1.03c-0.11-0.53-0.14-1.24-0.09-2.15l-0.73,0.03
		c-0.02,0.51-0.1,1-0.22,1.49c0.44,0.34,0.77,0.59,0.98,0.76c-0.13,0.19-0.24,0.37-0.35,0.54c-0.36-0.38-0.63-0.62-0.82-0.73
		c-0.25,0.57-0.65,1.12-1.2,1.64c-0.13-0.19-0.31-0.33-0.54-0.41C102.26,44.67,102.69,44.15,102.94,43.56z M103.03,45.84
		c0.21-0.06,0.39-0.14,0.54-0.22c0.25,0.53,0.46,1,0.63,1.42c-0.23,0.06-0.43,0.14-0.6,0.22C103.43,46.76,103.24,46.28,103.03,45.84
		z M104.81,45.62c0.17-0.06,0.34-0.15,0.51-0.25c0.46,0.76,0.78,1.31,0.95,1.65l-0.57,0.29C105.54,46.94,105.25,46.38,104.81,45.62z
		"/>
	<path d="M111.17,41.48c0,0.23,0.01,0.51,0.03,0.82h-0.66c0.02-0.3,0.03-0.57,0.03-0.82h-1.17c0,0.3,0.01,0.59,0.03,0.89h-0.63
		c0.02-0.29,0.03-0.59,0.03-0.89h-0.63c-0.13,0-0.41,0.02-0.85,0.06v-0.63c0.44,0.02,0.74,0.03,0.89,0.03h0.6
		c0-0.34-0.01-0.63-0.03-0.89h0.63c-0.02,0.32-0.03,0.61-0.03,0.89h1.17c0-0.27-0.01-0.57-0.03-0.89h0.66
		c-0.02,0.32-0.03,0.61-0.03,0.89h1.14v-0.85h0.6c-0.02,0.23-0.03,0.52-0.03,0.85h0.38c0.21,0,0.57-0.01,1.08-0.03v0.63
		c-0.51-0.04-0.87-0.06-1.08-0.06h-0.38c0,0.3,0.01,0.57,0.03,0.82h-0.6v-0.82H111.17z M114.3,44.13h-0.57v-0.92h-5.76v0.92h-0.6
		c0.02-0.29,0.03-0.56,0.03-0.79s-0.01-0.45-0.03-0.67h6.93V44.13z M113.41,44.23c-0.02,0.3-0.03,0.59-0.03,0.89v0.82
		c0,0.44-0.1,0.72-0.3,0.82s-0.52,0.18-0.96,0.22c-0.04-0.27-0.13-0.51-0.25-0.7c0.48,0.02,0.75,0,0.81-0.06s0.08-0.18,0.08-0.35
		v-1.11h-1.61v1.42c0,0.34,0.01,0.72,0.03,1.14h-0.7c0.02-0.42,0.03-0.8,0.03-1.14v-1.42h-1.58v1.99h-0.67
		c0.02-0.29,0.03-0.71,0.03-1.23c0-0.53-0.01-0.96-0.03-1.3h2.25c0-0.27-0.01-0.55-0.03-0.82h0.7c-0.02,0.27-0.03,0.55-0.03,0.82
		H113.41z"/>
	<path d="M117.4,40.84h3.48c0.38,0,0.74-0.01,1.08-0.03v0.57c-0.34-0.02-0.7-0.03-1.08-0.03h-3.73c-0.11,0.21-0.27,0.48-0.49,0.81
		c-0.22,0.33-0.44,0.61-0.65,0.84c-0.17-0.17-0.38-0.28-0.63-0.35c0.27-0.23,0.59-0.63,0.95-1.19c0.36-0.56,0.61-1.07,0.76-1.53
		c0.23,0.11,0.47,0.2,0.73,0.28C117.68,40.4,117.55,40.61,117.4,40.84z M121.8,47.34c-0.29,0.05-0.55-0.09-0.76-0.43
		s-0.36-0.72-0.44-1.16c-0.08-0.43-0.11-1.06-0.06-1.88h-3.48c-0.34,0-0.7,0.01-1.08,0.03v-0.57c0.38,0.02,0.74,0.03,1.08,0.03h4.15
		c-0.04,0.65-0.06,1.16-0.05,1.52c0.01,0.36,0.06,0.68,0.16,0.97c0.09,0.28,0.2,0.5,0.32,0.65s0.27-0.19,0.46-1.01
		c0.23,0.27,0.43,0.43,0.6,0.47C122.39,46.83,122.09,47.29,121.8,47.34z M120.34,42.08c0.34,0,0.67-0.01,1.01-0.03v0.57
		c-0.34-0.02-0.68-0.03-1.01-0.03H118c-0.34,0-0.67,0.01-1.01,0.03v-0.54c0.34,0.02,0.67,0.02,1.01,0H120.34z"/>
	<path d="M124.83,41.63v4.11c0,0.7,0.02,1.21,0.06,1.55h-0.66c0.02-0.38,0.03-0.91,0.03-1.58v-2.94c-0.13,0.29-0.32,0.64-0.57,1.04
		c-0.15-0.19-0.3-0.34-0.44-0.44c0.21-0.27,0.46-0.71,0.74-1.31c0.28-0.6,0.5-1.3,0.65-2.1c0.15,0.08,0.39,0.18,0.73,0.29
		C125.25,40.43,125.07,40.9,124.83,41.63z M126,42.11v2.82c0,0.27,0.01,0.53,0.03,0.76h-0.63c0.02-0.23,0.03-0.48,0.03-0.76V42.2
		c0-0.29-0.01-0.57-0.03-0.82h0.63C126.02,41.61,126,41.85,126,42.11z M127.24,42.3c0.29,0.11,0.51,0.18,0.63,0.22
		c-0.06,0.06-0.16,0.23-0.29,0.51h1.58c0.34,0,0.64-0.01,0.92-0.03v0.57c-0.3-0.02-0.6-0.03-0.92-0.03h-0.41
		c-0.02,0.19-0.05,0.52-0.09,0.98h0.89c0.38,0,0.72-0.01,1.01-0.03v0.57c-0.27-0.02-0.61-0.03-1.01-0.03h-0.79
		c0.55,0.91,1.22,1.46,2.03,1.65c-0.17,0.13-0.32,0.34-0.44,0.63c-0.89-0.4-1.53-1.01-1.93-1.83c-0.32,0.76-1.01,1.4-2.09,1.93
		c-0.13-0.21-0.31-0.39-0.54-0.54c1.18-0.38,1.92-0.99,2.21-1.83h-0.44c-0.34,0-0.75,0.01-1.23,0.03v-0.57
		c0.49,0.02,0.9,0.03,1.23,0.03h0.54c0.04-0.44,0.07-0.77,0.09-0.98h-0.85c-0.13,0.21-0.24,0.41-0.35,0.6
		c-0.17-0.08-0.35-0.17-0.54-0.25C126.87,43.25,127.13,42.72,127.24,42.3z M127.78,40.81c-0.36,0-0.71,0.01-1.04,0.03v-0.6
		c0.32,0.04,0.67,0.06,1.04,0.06h1.87c-0.15,0.55-0.26,1.01-0.35,1.39h0.41c0.38,0,0.71-0.01,0.98-0.03v0.6
		c-0.27-0.04-0.6-0.06-0.98-0.06h-2.31c-0.46,0-0.83,0.02-1.11,0.06v-0.6c0.25,0.02,0.62,0.03,1.11,0.03h1.27
		c0.06-0.25,0.12-0.55,0.16-0.89H127.78z"/>
	<path d="M134.14,40.65h3.58c-0.21,0.34-0.46,0.69-0.76,1.04c-0.3,0.36-0.67,0.71-1.11,1.04c0.29,0.17,0.72,0.32,1.27,0.46
		c0.55,0.14,1.16,0.21,1.83,0.21c-0.21,0.21-0.33,0.43-0.35,0.66c-0.78-0.08-1.43-0.21-1.95-0.38c-0.52-0.17-0.99-0.39-1.41-0.66
		c-0.65,0.38-1.26,0.65-1.82,0.82c-0.56,0.17-1.09,0.31-1.6,0.41c-0.06-0.23-0.19-0.42-0.38-0.57c0.82-0.08,1.51-0.22,2.07-0.41
		s0.94-0.38,1.16-0.57c-0.36-0.29-0.74-0.67-1.14-1.14c-0.27,0.36-0.6,0.74-0.98,1.14c-0.19-0.19-0.37-0.31-0.54-0.35
		c0.42-0.36,0.8-0.78,1.14-1.27c0.34-0.48,0.55-0.89,0.63-1.2c0.34,0.15,0.58,0.24,0.73,0.29C134.43,40.24,134.31,40.4,134.14,40.65
		z M134.11,45.72c-0.08,0.08-0.33,0.27-0.73,0.57c-0.4,0.3-0.8,0.57-1.2,0.82c-0.13-0.17-0.27-0.32-0.44-0.44
		c0.27-0.13,0.61-0.33,1-0.62s0.67-0.54,0.84-0.78L134.11,45.72z M134.83,44.35c0-0.19-0.01-0.45-0.03-0.79h0.7
		c-0.02,0.36-0.03,0.62-0.03,0.79h1.33c0.44,0,0.89-0.01,1.33-0.03v0.6c-0.44-0.02-0.88-0.03-1.3-0.03h-1.36v1.77
		c0.02,0.44-0.4,0.68-1.27,0.73c-0.06-0.21-0.16-0.44-0.29-0.7c0.63,0.06,0.94-0.05,0.92-0.35v-1.46h-1.39
		c-0.42,0-0.85,0.01-1.3,0.03v-0.6c0.44,0.02,0.88,0.03,1.3,0.03H134.83z M136.57,41.19h-2.63c0.38,0.51,0.82,0.92,1.33,1.23
		C135.89,42.02,136.32,41.61,136.57,41.19z M138.44,46.6c-0.13,0.15-0.25,0.32-0.38,0.51c-0.3-0.21-0.6-0.42-0.9-0.63
		c-0.31-0.21-0.67-0.42-1.09-0.63c0.13-0.15,0.24-0.32,0.35-0.51C137.05,45.69,137.72,46.12,138.44,46.6z"/>
	<path d="M140.66,42.55c-0.21,0.32-0.46,0.66-0.76,1.04c-0.11-0.21-0.25-0.37-0.44-0.47c0.38-0.38,0.73-0.84,1.04-1.39
		c0.32-0.55,0.58-1.14,0.79-1.77c0.25,0.17,0.47,0.29,0.66,0.35c-0.15,0.13-0.38,0.53-0.7,1.2v4.3c0,0.68,0.01,1.18,0.03,1.52h-0.67
		c0.02-0.3,0.03-0.79,0.03-1.49V42.55z M142.9,41.82h1.23v-0.63c0-0.53-0.01-0.89-0.03-1.08h0.67c-0.02,0.17-0.03,0.52-0.03,1.04
		v0.67h0.95c0.27,0,0.53-0.01,0.76-0.03v0.6c-0.23-0.02-0.49-0.03-0.76-0.03h-0.95v1.71h1.04c0.32,0,0.7-0.01,1.14-0.03v0.6
		c-0.36-0.02-0.75-0.03-1.17-0.03h-1.01v1.65c0,0.32,0.01,0.66,0.03,1.04h-0.67c0.02-0.38,0.03-0.73,0.03-1.04v-1.65h-1.23
		c-0.36,0-0.78,0.01-1.27,0.03v-0.6c0.46,0.02,0.84,0.03,1.14,0.03h1.36v-1.71h-1.42c-0.06,0.17-0.24,0.56-0.54,1.17
		c-0.06-0.06-0.25-0.16-0.57-0.28c0.21-0.32,0.4-0.67,0.57-1.08c0.17-0.4,0.32-0.91,0.44-1.52c0.17,0.11,0.41,0.2,0.73,0.28
		C143.24,41.02,143.09,41.32,142.9,41.82z"/>
	<path d="M153.63,40.65c0.4,0,0.81-0.01,1.23-0.03v0.67c-0.46-0.02-0.88-0.03-1.23-0.03h-2.18v4.87c0,0.27,0.01,0.62,0.03,1.04
		h-0.73c0.02-0.38,0.03-0.73,0.03-1.04v-4.87h-1.74c-0.42,0-0.83,0.01-1.23,0.03v-0.67c0.4,0.02,0.81,0.03,1.23,0.03H153.63z
		 M153.88,45.34c-0.34-0.44-0.99-1.11-1.96-1.99l0.47-0.47c0.57,0.46,1.25,1.12,2.06,1.96C154.24,44.98,154.05,45.15,153.88,45.34z"
		/>
	<path d="M159.24,42.5c-0.07,0.12-0.23,0.42-0.46,0.9h2.94c0.51,0,0.92-0.01,1.23-0.03v0.57c-0.34-0.02-0.74-0.03-1.2-0.03h-0.32
		c-0.23,0.61-0.55,1.16-0.95,1.65c0.78,0.3,1.58,0.67,2.4,1.14c-0.15,0.17-0.3,0.37-0.44,0.6c-0.78-0.53-1.59-0.96-2.44-1.3
		c-0.53,0.4-1.13,0.71-1.8,0.93c-0.68,0.22-1.23,0.37-1.68,0.46c-0.08-0.25-0.21-0.47-0.38-0.66c0.65-0.04,1.27-0.16,1.85-0.35
		c0.58-0.19,1.03-0.4,1.34-0.63c-0.63-0.23-1.37-0.44-2.21-0.63c0.34-0.46,0.59-0.86,0.76-1.2h-0.79c-0.25,0-0.61,0.01-1.08,0.03
		v-0.57c0.25,0.02,0.6,0.03,1.04,0.03h1.04c0.27-0.51,0.48-1.01,0.63-1.52c0.25,0.15,0.5,0.25,0.73,0.32
		C159.4,42.29,159.32,42.39,159.24,42.5z M159.26,39.89c0.23,0.3,0.46,0.62,0.7,0.98c-0.13,0.06-0.26,0.16-0.41,0.28h2.91
		c-0.02,0.3-0.03,0.54-0.03,0.73c0,0.19,0.01,0.44,0.03,0.76h-0.66v-0.98h-4.68v0.92h-0.67c0.02-0.29,0.03-0.55,0.03-0.76
		s-0.02-0.43-0.06-0.67h2.91c-0.17-0.36-0.36-0.65-0.57-0.89C158.94,40.15,159.11,40.02,159.26,39.89z M159.89,45.34
		c0.29-0.27,0.58-0.75,0.85-1.42h-2.15c-0.17,0.25-0.35,0.55-0.54,0.89C158.92,45.03,159.53,45.21,159.89,45.34z"/>
	<path d="M167.9,40.49c0.74,1.18,1.86,1.94,3.35,2.28c-0.19,0.23-0.32,0.47-0.38,0.73c-0.42-0.17-0.78-0.35-1.08-0.54v0.51
		c-0.23-0.02-0.6-0.03-1.11-0.03h-0.76v1.27h1.2c0.44,0,0.8-0.01,1.08-0.03v0.57c-0.27-0.02-0.63-0.03-1.08-0.03h-1.2v1.42h1.23
		c0.63,0,1.15-0.02,1.55-0.06v0.66c-0.38-0.06-0.88-0.09-1.49-0.09h-3.48c-0.63,0-1.11,0.01-1.42,0.03V46.6
		c0.32,0.02,0.79,0.03,1.42,0.03h1.55v-1.42h-0.89c-0.72,0-1.19,0.01-1.42,0.03v-0.57c0.23,0.02,0.7,0.03,1.39,0.03h0.92v-1.27
		h-0.63c-0.65,0-1.08,0.01-1.27,0.03v-0.51c-0.19,0.15-0.55,0.37-1.08,0.66c-0.13-0.25-0.27-0.47-0.44-0.66
		c0.51-0.13,1.1-0.44,1.77-0.95c0.67-0.51,1.21-1.17,1.61-1.99c0.25,0.11,0.52,0.21,0.79,0.32L167.9,40.49z M166.7,42.9h1.9
		c0.42,0,0.75-0.01,0.98-0.03c-0.91-0.46-1.58-1.14-2.03-2.03c-0.57,0.87-1.22,1.54-1.96,2.03C165.84,42.89,166.21,42.9,166.7,42.9z
		"/>
	<path d="M173.53,41.48v4.37c0,0.46,0.01,0.96,0.03,1.49h-0.63c0.02-0.51,0.03-0.98,0.03-1.42v-3.35c-0.3,0.61-0.5,1.01-0.6,1.2
		c-0.11-0.19-0.26-0.35-0.47-0.47c0.23-0.32,0.51-0.82,0.84-1.5s0.52-1.27,0.58-1.76l0.73,0.28
		C173.93,40.43,173.76,40.82,173.53,41.48z M176.28,41.06c0-0.46-0.01-0.83-0.03-1.11c0.27,0.04,0.52,0.07,0.73,0.09
		c-0.06,0.21-0.09,0.55-0.09,1.01h1.01c0.46,0,0.89-0.01,1.27-0.03v0.57c-0.4-0.02-0.82-0.03-1.27-0.03h-1.01v0.7h1.93
		c-0.02,0.3-0.03,0.61-0.03,0.95c0,0.32,0.01,0.64,0.03,0.98h-1.96c-0.04,0.67-0.16,1.22-0.35,1.64c0.59,0.53,1.53,0.8,2.82,0.82
		c-0.15,0.11-0.26,0.31-0.35,0.6c-1.12-0.04-2.07-0.36-2.85-0.95c-0.49,0.51-1.08,0.89-1.77,1.14c-0.02-0.15-0.17-0.31-0.44-0.47
		c0.8-0.23,1.39-0.57,1.77-1.01c-0.36-0.36-0.74-0.78-1.14-1.27c0.13-0.06,0.27-0.18,0.44-0.35c0.34,0.46,0.68,0.83,1.04,1.11
		c0.13-0.36,0.2-0.78,0.22-1.27h-1.87c0.02-0.34,0.03-0.67,0.03-1.01c0-0.34-0.01-0.64-0.03-0.92h1.9v-0.7h-1.04
		c-0.44,0-0.82,0.01-1.14,0.03v-0.57c0.3,0.02,0.67,0.03,1.11,0.03H176.28z M176.28,43.69v-0.95h-1.27v0.95H176.28z M178.18,43.69
		v-0.95h-1.3v0.95H178.18z"/>
	<path d="M180.73,45.84c0.14-0.4,0.22-0.8,0.25-1.2c0.03-0.4,0.05-1.08,0.05-2.02s-0.01-1.71-0.03-2.28h5.66
		c-0.02,0.61-0.03,1.16-0.03,1.65v4.14c0,0.44-0.13,0.72-0.38,0.82s-0.55,0.18-0.89,0.22c-0.04-0.32-0.12-0.56-0.22-0.73
		c0.42,0.02,0.67,0.01,0.74-0.05c0.07-0.05,0.11-0.15,0.11-0.3v-1.58h-1.93v1.23c0,0.46,0.01,0.89,0.03,1.27h-0.7
		c0.02-0.36,0.03-0.77,0.03-1.23v-1.27h-1.8c-0.08,0.91-0.37,1.82-0.85,2.75c-0.23-0.15-0.44-0.24-0.63-0.28
		C180.4,46.62,180.59,46.24,180.73,45.84z M183.43,42.2v-1.36h-1.8v1.36H183.43z M183.43,44.01v-1.33h-1.8v1.33H183.43z M186,42.2
		v-1.36h-1.93v1.36H186z M186,44.01v-1.33h-1.93v1.33H186z"/>
	<path d="M190.68,45.37c0.08,0.23,0.09,0.46,0.03,0.68c-0.06,0.22-0.18,0.39-0.35,0.51c-0.17,0.12-0.37,0.17-0.6,0.17
		c-0.23,0-0.44-0.1-0.63-0.29c-0.19-0.19-0.29-0.4-0.29-0.62s0.05-0.42,0.16-0.58s0.27-0.29,0.49-0.38c0.22-0.08,0.45-0.08,0.7,0.02
		C190.43,44.97,190.59,45.14,190.68,45.37z M190.11,46.25c0.19-0.13,0.28-0.3,0.27-0.52s-0.12-0.38-0.32-0.49s-0.39-0.09-0.57,0.03
		c-0.18,0.13-0.27,0.3-0.27,0.51s0.1,0.37,0.3,0.49C189.72,46.39,189.92,46.38,190.11,46.25z"/>
</g>
<g>
	<defs>
		<rect id="SVGID_00000113315686063462968990000003997877095683217811_" x="1.79" y="1.67" width="207.41" height="115.65"/>
	</defs>
	<clipPath id="SVGID_00000020375336502380014380000001570958930435181488_">
		<use xlink:href="#SVGID_00000113315686063462968990000003997877095683217811_"  style="overflow:visible;"/>
	</clipPath>
	<path style="clip-path:url(#SVGID_00000020375336502380014380000001570958930435181488_);" d="M18.07,14.97
		c-0.5-0.24-1.07-0.44-1.62-0.61l0.28-0.47c0.59,0.14,1.09,0.31,1.61,0.51L18.07,14.97z M18.12,11.69h-1.73
		c-0.01,0.02-0.03,0.04-0.04,0.06c0.26,0.36,0.57,0.66,0.91,0.9C17.61,12.35,17.92,11.98,18.12,11.69 M18.09,16.27
		c-0.65-0.34-1.46-0.65-2.27-0.84l0.29-0.54c0.8,0.21,1.59,0.45,2.36,0.81L18.09,16.27z M15.01,14.3c-0.1-0.19-0.24-0.42-0.39-0.63
		c0.88-0.07,1.6-0.32,2.2-0.71c-0.3-0.26-0.56-0.53-0.75-0.83c-0.17,0.22-0.36,0.46-0.59,0.72c-0.19-0.15-0.38-0.25-0.6-0.35
		c0.67-0.51,1.18-1.16,1.56-2.04c0.25,0.14,0.46,0.2,0.62,0.23c0.22,0.04,0.23,0.1,0.07,0.19c-0.09,0.06-0.2,0.15-0.33,0.28h2.34
		c-0.42,0.83-0.82,1.31-1.39,1.79c0.61,0.31,1.3,0.48,2.03,0.56c-0.21,0.26-0.34,0.49-0.43,0.76c-0.72-0.21-1.45-0.54-2.06-0.95
		C16.64,13.76,15.71,14.16,15.01,14.3 M19.9,10.33h-5.51v6.07h5.51V10.33z M14.38,17.44h-0.8c0.05-0.51,0.07-0.97,0.07-1.51v-5.18
		c0-0.37-0.01-0.79-0.06-1.15c0.48,0.07,1.17,0.1,3.56,0.1c2.4,0,3.16-0.05,3.56-0.1c-0.05,0.33-0.06,0.8-0.06,1.15v5.12
		c0,0.53,0.02,0.91,0.07,1.51H19.9v-0.37h-5.51V17.44z"/>
	<path style="clip-path:url(#SVGID_00000020375336502380014380000001570958930435181488_);" d="M29.82,16.26
		c-0.4-0.93-0.75-1.54-1.31-2.25l0.6-0.41c0.52,0.73,0.95,1.36,1.44,2.15L29.82,16.26z M27.77,10.5c-0.86,0-1.48,0.02-1.93,0.06
		V9.73c0.48,0.05,1.07,0.06,1.93,0.06c0.86,0,1.48-0.02,1.93-0.06v0.83C29.25,10.52,28.64,10.5,27.77,10.5 M28.07,16.68
		c0,0.46-0.1,0.65-1.3,0.89c-0.07-0.39-0.16-0.57-0.46-0.89c0.75,0.14,1,0.06,1-0.34v-3.67c-0.78,0.01-1.39,0.03-1.87,0.06v-0.82
		c0.6,0.05,1.37,0.07,2.4,0.07c1.05,0,1.83-0.02,2.38-0.07v0.82c-0.51-0.05-1.21-0.06-2.15-0.06V16.68z M26.86,14.23
		c-0.09,0.02-0.23,0.17-0.5,0.72c-0.27,0.57-0.53,1.14-0.82,1.8c-0.19-0.16-0.47-0.25-0.84-0.31c0.7-0.84,1.17-1.77,1.33-2.75
		c0.28,0.16,0.62,0.3,0.86,0.34C27.03,14.04,27.05,14.18,26.86,14.23 M24.86,14.59c-0.17-0.53-0.34-0.87-0.63-1.28l0.63-0.33
		c0.24,0.48,0.44,0.86,0.67,1.27L24.86,14.59z M22.56,15.53c-0.16-0.31-0.31-0.56-0.55-0.82c0.51-0.55,1.08-1.67,1.46-2.85
		c-0.57,0.01-0.99,0.04-1.3,0.07v-0.79c0.33,0.05,0.75,0.06,1.33,0.07c0-1.03-0.05-1.63-0.1-2.04c0.31,0.04,0.54,0.05,0.82,0.02
		c0.18-0.02,0.24,0.07,0.07,0.23c-0.08,0.07-0.11,0.14-0.11,0.25v1.54c0.52-0.01,0.93-0.03,1.23-0.07v0.79
		c-0.3-0.04-0.71-0.07-1.23-0.07v3.86c0,0.49,0.04,1.13,0.09,1.72H23.4c0.05-0.6,0.09-1.24,0.09-1.72v-2.76
		C23.16,14.25,22.93,14.88,22.56,15.53"/>
	<path style="clip-path:url(#SVGID_00000020375336502380014380000001570958930435181488_);" d="M35.26,13.14h2.84v-1.4h-2.84V13.14z
		 M35.61,10.92c-0.12-0.32-0.53-1-0.75-1.28l0.7-0.29c0.23,0.42,0.49,0.85,0.75,1.25L35.61,10.92z M37.63,9.15
		c0.29,0.15,0.75,0.31,0.99,0.36c0.15,0.03,0.16,0.06,0.03,0.16c-0.36,0.24-0.54,0.42-1.16,1.47c0.77,0,1.05-0.02,1.36-0.05
		c-0.02,0.33-0.03,0.84-0.03,1.34c0,0.49,0.01,1.03,0.03,1.36c-0.38-0.03-0.66-0.04-1.17-0.04v2.37c0,0.33,0.06,0.51,0.43,0.51
		c0.55,0,0.69-0.1,0.83-1.09c0.25,0.27,0.45,0.36,0.72,0.42c-0.29,1.15-0.46,1.28-1.54,1.28c-0.97,0-1.13-0.24-1.13-0.78v-2.71
		h-0.75c-0.03,1.93-0.56,2.75-1.95,3.77c-0.1-0.15-0.28-0.29-0.71-0.52c1.51-0.83,1.94-1.62,1.96-3.25
		c-0.41,0.01-0.74,0.02-1.06,0.04c0.02-0.32,0.03-0.89,0.03-1.36s-0.01-1.02-0.03-1.34c0.42,0.04,1.07,0.05,2.39,0.05
		C37.22,10.46,37.44,9.91,37.63,9.15 M32.98,11.25c-0.2-0.47-0.51-0.99-0.89-1.49l0.72-0.42c0.27,0.46,0.68,1.06,0.95,1.47
		L32.98,11.25z M32.58,17.21c-0.18-0.25-0.44-0.5-0.61-0.61c0.29-0.26,0.48-0.75,0.48-1.17v-2.93c-0.65,0-0.89,0.01-1.16,0.03v-0.78
		c0.27,0.04,0.53,0.06,0.97,0.06c0.4,0,0.74,0,0.98-0.02c-0.06,0.28-0.09,0.71-0.09,1.13v2.78c0.26-0.3,0.57-0.69,0.82-1.02
		c0.09,0.29,0.23,0.51,0.37,0.63C33.1,16.6,32.78,16.95,32.58,17.21"/>
	<path style="clip-path:url(#SVGID_00000020375336502380014380000001570958930435181488_);" d="M45.44,13.82h1.94v-1.33h-1.94V13.82
		z M47.39,10.45h-1.94v1.36h1.94V10.45z M43.94,17.57c-0.25-0.24-0.47-0.39-0.79-0.57c1.32-0.88,1.55-2.33,1.55-3.35v-2.76
		c0-0.56-0.01-0.91-0.05-1.15c0.54,0.03,1.03,0.04,1.77,0.04c0.76,0,1.24-0.01,1.79-0.04c-0.05,0.25-0.06,0.6-0.06,1.15v5.81
		c0,0.43-0.14,0.64-1.57,0.8c-0.02-0.29-0.14-0.65-0.4-0.93c1.08,0.1,1.2-0.08,1.2-0.42v-1.67h-1.96
		C45.35,15.56,44.93,16.57,43.94,17.57 M43.04,12.8h-1.2v1.75h1.2V12.8z M43.04,10.51h-1.2v1.63h1.2V10.51z M41.84,16.45h-0.79
		c0.02-0.4,0.03-0.81,0.03-1.25v-4.49c0-0.32,0-0.7-0.01-0.93c0.22,0.06,0.61,0.07,1.37,0.07c0.75,0,1.14-0.02,1.34-0.07
		c-0.02,0.23-0.03,0.61-0.03,0.93v3.85c0,0.43,0.02,0.83,0.05,1.22h-0.75v-0.57h-1.2V16.45z"/>
	<path style="clip-path:url(#SVGID_00000020375336502380014380000001570958930435181488_);" d="M44.73,56.98
		c-0.27,0-0.53-0.1-0.74-0.3L18.92,32.39c-0.42-0.41-0.43-1.08-0.02-1.5c0.41-0.42,1.08-0.43,1.5-0.02l25.06,24.29
		c0.42,0.41,0.43,1.08,0.02,1.5C45.28,56.87,45.01,56.98,44.73,56.98"/>
	<path style="clip-path:url(#SVGID_00000020375336502380014380000001570958930435181488_);" d="M37.3,47.57
		c-0.23,0-0.45-0.15-0.53-0.38c-0.1-0.29,0.05-0.62,0.35-0.72c1.54-0.54,3.19-1.96,3.24-3.52c0.05-1.27-0.93-2.74-1.88-4.15
		c-0.1-0.15-0.2-0.3-0.3-0.45c-0.71-1.1-1.22-1.98-1.39-2.7c-0.27-1.15,0.33-1.84,0.81-2.4c0.66-0.76,1.39-1.52,3.03-2.41
		c0.27-0.15,0.62-0.05,0.77,0.23c0.15,0.27,0.05,0.62-0.23,0.77c-1.6,0.87-2.24,1.61-2.72,2.16c-0.5,0.57-0.69,0.86-0.57,1.4
		c0.14,0.59,0.67,1.48,1.23,2.34c0.09,0.14,0.19,0.29,0.29,0.44c1.05,1.57,2.13,3.19,2.07,4.82c-0.07,2.09-2.06,3.87-4,4.55
		C37.42,47.56,37.36,47.57,37.3,47.57 M25.27,47.59c-0.24,0-0.45-0.15-0.53-0.38c-0.1-0.3,0.06-0.62,0.35-0.72
		c1.53-0.53,3.19-1.94,3.24-3.52c0.05-1.26-0.94-2.75-1.9-4.18l-0.28-0.42c-0.63-0.97-1.2-1.91-1.39-2.69
		c-0.28-1.16,0.35-1.88,0.81-2.41c0.58-0.68,1.34-1.49,3.03-2.41c0.27-0.15,0.62-0.05,0.77,0.23c0.15,0.27,0.05,0.62-0.23,0.77
		c-1.52,0.83-2.17,1.52-2.71,2.15c-0.5,0.57-0.7,0.88-0.57,1.41c0.14,0.6,0.71,1.52,1.23,2.32l0.27,0.41
		c1.06,1.58,2.15,3.22,2.09,4.84c-0.07,2.11-2.07,3.89-4,4.55C25.39,47.58,25.33,47.59,25.27,47.59 M31.29,47.59
		c-0.24,0-0.45-0.15-0.54-0.38c-0.1-0.3,0.06-0.62,0.35-0.72c1.52-0.52,3.18-1.94,3.24-3.53c0.04-1.23-0.91-2.68-1.84-4.08
		c-0.11-0.17-0.23-0.34-0.34-0.51c-0.58-0.88-1.2-1.88-1.39-2.68c-0.28-1.17,0.34-1.89,0.8-2.41c0.63-0.72,1.38-1.5,3.04-2.41
		c0.27-0.15,0.62-0.05,0.77,0.23c0.15,0.27,0.05,0.62-0.23,0.77c-1.5,0.82-2.15,1.49-2.73,2.16c-0.49,0.56-0.68,0.86-0.55,1.41
		c0.15,0.63,0.74,1.57,1.23,2.32c0.11,0.17,0.22,0.34,0.34,0.51c1.02,1.55,2.09,3.16,2.03,4.75c-0.08,2.11-2.08,3.89-4,4.55
		C31.41,47.58,31.35,47.59,31.29,47.59"/>
	<path style="clip-path:url(#SVGID_00000020375336502380014380000001570958930435181488_);" d="M48.92,51.84
		c0.01,1.19-0.65,1.68-1.19,2.31c-0.56,0.62-1.01,1.39-1.52,2.08c-0.92,1.19-2.07,2.1-3.29,3.12c-0.33,0.29-0.66,0.56-1.01,0.81
		c-0.71,0.5-1.41,0.85-2.77,0.9c-2,1.41-6.01,0.92-8.95,0.81c-1.34-0.17-2.72-0.56-3.91-1.02c-0.53-0.22-1.02-0.43-1.41-0.81
		c-0.29-0.29-0.52-0.65-0.88-0.85c-0.57-0.32-1.51-0.22-2.13-1.01c-1.42-0.93-2.3-2.73-3.81-3.97c-0.65-0.52-1.41-0.95-1.41-2
		c0-0.16,0.01-0.32-0.2-0.39c2.42-1.21,4.1-2.44,5.53-2.44c1.12,0,2.08,0.78,3.43,1.57c0.79,0.46,1.71,0.92,2.52,1.02
		c2.27,0.3,3.74-2.21,5.35-2.44c0.82-0.11,1.68,0.36,2.43,0.83c1.15,0.75,2.01,1.49,3.2,1.47c0.76,0,1.68-0.34,2.83-1.08
		c0.72-0.46,1.54-1.08,2.3-1.28c1.25-0.32,2.39,0.46,3.06,0.98C48.02,51.17,48.13,51.42,48.92,51.84"/>
	<path style="clip-path:url(#SVGID_00000020375336502380014380000001570958930435181488_);" d="M32.71,26.67
		c-9.38,0-17,7.63-17,17.02c0,9.38,7.63,17.01,17,17.01c9.38,0,17-7.63,17-17.01C49.72,34.3,42.09,26.67,32.71,26.67 M32.71,62.81
		c-10.55,0-19.13-8.58-19.13-19.13c0-10.55,8.58-19.14,19.13-19.14c10.55,0,19.13,8.59,19.13,19.14
		C51.84,54.23,43.26,62.81,32.71,62.81"/>
</g>
<g>
	<path d="M60.29,93.31c0,0.61,0.01,1.09,0.03,1.42h-0.7c0.04-0.4,0.06-0.88,0.06-1.42v-3.04c-0.27,0.4-0.49,0.72-0.63,0.95
		c-0.15-0.19-0.33-0.36-0.54-0.51c0.32-0.29,0.65-0.78,1-1.44c0.35-0.67,0.6-1.31,0.74-1.95c0.23,0.11,0.48,0.2,0.76,0.29
		c-0.17,0.21-0.41,0.74-0.73,1.58V93.31z M61.11,88.75v-0.63c0.38,0.02,0.79,0.03,1.23,0.03h2.88c-0.3,1.77-0.81,3.21-1.55,4.3
		c0.7,0.67,1.46,1.16,2.28,1.46c-0.23,0.27-0.38,0.52-0.44,0.73c-0.8-0.42-1.55-0.99-2.25-1.71c-0.76,0.72-1.53,1.31-2.31,1.77
		c-0.11-0.21-0.27-0.42-0.51-0.63c0.89-0.36,1.68-0.91,2.37-1.65c-0.61-0.8-1.06-2.04-1.33-3.7L61.11,88.75z M63.26,91.88
		c0.57-0.82,0.96-1.88,1.17-3.16h-2.28C62.43,90.28,62.8,91.33,63.26,91.88z"/>
	<path d="M68.36,90.36c-0.02,0.38-0.03,0.77-0.03,1.17v1.65c0.55,0.46,1.4,0.72,2.56,0.78c1.16,0.05,2.17,0,3.04-0.17
		c-0.13,0.23-0.23,0.48-0.32,0.76h-2.12c-0.53,0-1.02-0.03-1.47-0.09c-0.45-0.06-0.89-0.21-1.3-0.43c-0.41-0.22-0.71-0.23-0.89-0.03
		c-0.18,0.2-0.36,0.43-0.55,0.68c-0.21-0.17-0.4-0.3-0.57-0.38c0.46-0.44,0.81-0.75,1.04-0.92v-2.5c-0.34,0-0.65,0.01-0.95,0.03
		v-0.57c0.32,0.02,0.61,0.03,0.89,0.03H68.36z M68.55,89c-0.25,0.15-0.42,0.27-0.51,0.38c-0.23-0.38-0.54-0.77-0.92-1.17
		c0.19-0.11,0.35-0.23,0.47-0.38C67.96,88.21,68.27,88.6,68.55,89z M71.52,88.24v1.17c1.12,0,1.85-0.01,2.18-0.03v0.57
		c-0.34-0.02-1.07-0.03-2.18-0.03v0.92h1.65c-0.02,0.53-0.03,0.95-0.03,1.27s0.01,0.75,0.03,1.3h-0.6v-0.38h-2.59v0.41h-0.6
		c0.02-0.53,0.03-0.96,0.03-1.3c0-0.34-0.01-0.77-0.03-1.3h1.58v-0.92c-1.1,0-1.81,0.01-2.15,0.03v-0.57
		c0.27,0.02,0.99,0.03,2.15,0.03v-1.11c-0.25,0.02-0.76,0.07-1.52,0.16c-0.04-0.19-0.14-0.37-0.28-0.54c0.7,0,1.38-0.04,2.06-0.13
		c0.67-0.08,1.25-0.19,1.74-0.32c0.04,0.15,0.15,0.36,0.32,0.63C72.99,88.12,72.41,88.16,71.52,88.24z M72.56,92.51v-1.17h-2.59
		v1.17H72.56z"/>
	<path d="M75.43,93.21c0.14-0.4,0.22-0.8,0.25-1.2c0.03-0.4,0.05-1.08,0.05-2.02s-0.01-1.71-0.03-2.28h5.66
		c-0.02,0.61-0.03,1.16-0.03,1.65v4.14c0,0.44-0.13,0.72-0.38,0.82c-0.25,0.11-0.55,0.18-0.89,0.22c-0.04-0.32-0.12-0.56-0.22-0.73
		c0.42,0.02,0.67,0.01,0.74-0.05c0.07-0.05,0.11-0.15,0.11-0.3v-1.58h-1.93v1.23c0,0.46,0.01,0.89,0.03,1.27h-0.7
		c0.02-0.36,0.03-0.77,0.03-1.23v-1.27h-1.8c-0.08,0.91-0.37,1.82-0.85,2.75c-0.23-0.15-0.44-0.24-0.63-0.28
		C75.1,93.99,75.29,93.61,75.43,93.21z M78.13,89.57v-1.36h-1.8v1.36H78.13z M78.13,91.38v-1.33h-1.8v1.33H78.13z M80.7,89.57v-1.36
		h-1.93v1.36H80.7z M80.7,91.38v-1.33h-1.93v1.33H80.7z"/>
	<path d="M86.17,90.9h-2.21c-0.42,0-0.79,0.01-1.11,0.03V90.3c0.32,0.02,0.69,0.03,1.11,0.03h2.21v-1.99h-1.55
		c-0.38,0-0.71,0.01-0.98,0.03v-0.63c0.27,0.02,0.6,0.03,0.98,0.03h3.61c0.36,0,0.72-0.01,1.08-0.03v0.63
		c-0.36-0.02-0.72-0.03-1.08-0.03h-1.39v1.99h2.06c0.46,0,0.89-0.01,1.27-0.03v0.63c-0.34-0.02-0.76-0.03-1.27-0.03h-2.06v2.91
		c0,0.38-0.13,0.61-0.38,0.68c-0.25,0.07-0.62,0.12-1.11,0.14c-0.02-0.27-0.11-0.56-0.25-0.85c0.34,0.04,0.6,0.06,0.79,0.05
		c0.19-0.01,0.28-0.1,0.28-0.27V90.9z"/>
	<path d="M90.92,90.11c0.15-0.15,0.26-0.32,0.35-0.51c0.38,0.23,0.89,0.57,1.52,1.01c-0.17,0.19-0.31,0.37-0.41,0.54
		C91.8,90.69,91.32,90.34,90.92,90.11z M92.34,93.02c-0.19,0.46-0.44,0.98-0.76,1.55c-0.08-0.13-0.28-0.24-0.6-0.35
		c0.25-0.36,0.5-0.78,0.73-1.25c0.23-0.47,0.43-0.92,0.6-1.34c0.15,0.17,0.32,0.31,0.51,0.41C92.69,92.23,92.53,92.56,92.34,93.02z
		 M93.16,88.53c-0.15,0.19-0.28,0.37-0.41,0.54c-0.49-0.4-0.97-0.74-1.46-1.01c0.15-0.17,0.26-0.33,0.35-0.47
		C92.04,87.81,92.55,88.13,93.16,88.53z M97.94,93.18v0.57c-0.17-0.02-0.38-0.03-0.63-0.03c-0.04,0.48-0.14,0.78-0.3,0.89
		s-0.42,0.18-0.78,0.22c-0.06-0.19-0.15-0.4-0.25-0.63c0.32,0.02,0.52,0,0.62-0.05c0.09-0.05,0.15-0.19,0.17-0.43h-3.04
		c0.06-0.65,0.12-1.3,0.16-1.93c-0.23,0-0.47,0.01-0.73,0.03v-0.57c0.21,0.02,0.46,0.03,0.76,0.03c0.04-0.78,0.07-1.35,0.09-1.71
		c-0.11,0.15-0.3,0.4-0.57,0.76c-0.15-0.15-0.31-0.27-0.47-0.38c0.36-0.36,0.66-0.78,0.9-1.27c0.24-0.48,0.42-0.94,0.52-1.36
		c0.25,0.15,0.47,0.24,0.66,0.29c-0.08,0.11-0.2,0.32-0.35,0.63h2.28c0.4,0,0.76-0.01,1.08-0.03v0.57
		c-0.32-0.02-0.69-0.03-1.11-0.03h-2.47c-0.15,0.25-0.3,0.5-0.44,0.73h3.45c-0.02,0.51-0.04,1.11-0.06,1.8
		c0.23,0,0.48-0.01,0.76-0.03v0.57c-0.27-0.02-0.54-0.03-0.79-0.03c-0.02,0.27-0.04,0.75-0.06,1.42
		C97.49,93.21,97.69,93.2,97.94,93.18z M96.9,91.79h-2.5c-0.04,0.57-0.07,1.04-0.09,1.42h2.53L96.9,91.79z M94.49,89.98
		c0,0.27-0.02,0.71-0.06,1.3h2.5c0-0.46,0.01-0.9,0.03-1.3H94.49z M96.07,92.83c-0.17,0.08-0.32,0.18-0.44,0.28
		c-0.17-0.34-0.35-0.64-0.54-0.92c0.15-0.11,0.28-0.2,0.41-0.29C95.74,92.25,95.93,92.56,96.07,92.83z M96.1,90.93
		c-0.17,0.08-0.32,0.18-0.44,0.28c-0.13-0.27-0.28-0.57-0.47-0.89l0.38-0.29C95.8,90.38,95.98,90.68,96.1,90.93z"/>
	<path d="M100.31,87.48h0.63c-0.02,0.27-0.03,0.82-0.03,1.65c0.36,0,0.64-0.01,0.85-0.03v0.57c-0.21-0.02-0.5-0.03-0.85-0.03V91
		c0.25-0.08,0.52-0.21,0.79-0.38c0.02,0.21,0.07,0.39,0.16,0.54c-0.51,0.21-0.82,0.35-0.95,0.41v2.12c0,0.34-0.08,0.57-0.24,0.7
		c-0.16,0.13-0.51,0.23-1.06,0.32c-0.04-0.23-0.14-0.46-0.28-0.7c0.38,0.02,0.64,0.01,0.79-0.03c0.15-0.04,0.22-0.21,0.22-0.51
		v-1.71c-0.44,0.19-0.78,0.35-1.01,0.47c-0.08-0.21-0.19-0.42-0.32-0.63c0.32-0.06,0.76-0.2,1.33-0.41v-1.55
		c-0.51,0-0.88,0.01-1.11,0.03V89.1c0.25,0.02,0.62,0.03,1.11,0.03C100.34,88.37,100.33,87.82,100.31,87.48z M103.64,88.1
		c-0.02,0.2-0.05,0.56-0.1,1.09h1.61c0.25,0,0.58-0.01,0.98-0.03v0.57c-0.4-0.02-0.74-0.03-1.01-0.03h-1.65
		c-0.04,0.27-0.1,0.56-0.16,0.85h2.44c-0.11,0.51-0.25,1-0.44,1.49s-0.41,0.9-0.66,1.23c0.25,0.23,0.54,0.44,0.85,0.62
		s0.6,0.31,0.85,0.4c-0.21,0.15-0.37,0.33-0.47,0.54c-0.57-0.27-1.11-0.65-1.61-1.14c-0.55,0.46-1.17,0.84-1.87,1.14
		c-0.11-0.21-0.24-0.37-0.41-0.47c0.36-0.11,0.71-0.26,1.06-0.46s0.64-0.41,0.87-0.62c-0.32-0.42-0.61-0.99-0.89-1.71
		c-0.3,0.78-0.74,1.57-1.33,2.37c-0.17-0.19-0.35-0.33-0.54-0.41c0.44-0.46,0.82-1.02,1.12-1.66c0.31-0.64,0.51-1.37,0.62-2.17
		c-0.36,0-0.69,0.01-0.98,0.03v-0.57c0.29,0.02,0.53,0.03,0.7,0.03h0.35c0.04-0.72,0.05-1.28,0.03-1.68
		c0.25,0.08,0.51,0.13,0.76,0.13C103.7,87.75,103.66,87.9,103.64,88.1z M105.03,91.06h-1.61c0.08,0.27,0.22,0.61,0.41,1.01
		c0.19,0.4,0.34,0.66,0.44,0.79C104.56,92.48,104.82,91.88,105.03,91.06z M105.72,88.62c-0.15,0.08-0.32,0.21-0.51,0.38
		c-0.23-0.36-0.47-0.68-0.73-0.98c0.15-0.08,0.31-0.2,0.47-0.35C105.28,88.03,105.53,88.35,105.72,88.62z"/>
	<path d="M107.18,93.65c0.02-0.32,0.17-0.6,0.44-0.85s0.62-0.65,1.04-1.19s0.7-0.95,0.82-1.25c0.13-0.29,0.17-0.55,0.14-0.76
		c-0.03-0.21-0.13-0.38-0.3-0.52c-0.17-0.14-0.36-0.19-0.59-0.17c-0.22,0.02-0.43,0.11-0.63,0.25c-0.2,0.15-0.35,0.37-0.46,0.67
		l-0.6-0.1c0.17-0.48,0.38-0.84,0.65-1.06s0.57-0.34,0.93-0.36c0.21-0.02,0.4-0.02,0.57,0.02c0.17,0.03,0.34,0.11,0.52,0.22
		c0.18,0.12,0.33,0.29,0.44,0.52c0.12,0.23,0.16,0.51,0.13,0.84s-0.2,0.72-0.49,1.17c-0.3,0.45-0.87,1.17-1.71,2.14h2.28v0.57h-3.2
		V93.65z"/>
	<path d="M111.13,90.76c0.02-0.56,0.1-1,0.24-1.33c0.14-0.33,0.33-0.6,0.59-0.81c0.25-0.21,0.56-0.32,0.93-0.32
		c0.37,0,0.69,0.15,0.96,0.46c0.27,0.31,0.45,0.69,0.54,1.16c0.08,0.46,0.11,1,0.08,1.6c-0.03,0.6-0.14,1.09-0.32,1.47
		c-0.18,0.38-0.45,0.64-0.81,0.79s-0.72,0.13-1.08-0.05c-0.36-0.18-0.61-0.42-0.76-0.71c-0.15-0.29-0.25-0.61-0.32-0.93
		C111.13,91.76,111.11,91.32,111.13,90.76z M111.8,90.57c-0.06,0.58-0.04,1.1,0.06,1.55c0.1,0.45,0.28,0.77,0.52,0.96
		c0.24,0.19,0.49,0.23,0.74,0.11c0.25-0.12,0.44-0.35,0.55-0.7c0.12-0.35,0.17-0.73,0.17-1.14s-0.02-0.79-0.05-1.12
		c-0.03-0.34-0.13-0.64-0.28-0.92c-0.16-0.27-0.37-0.42-0.63-0.43c-0.26-0.01-0.5,0.12-0.7,0.4
		C111.99,89.56,111.86,89.99,111.8,90.57z"/>
	<path d="M115.18,90.76c0.02-0.56,0.1-1,0.24-1.33c0.14-0.33,0.33-0.6,0.58-0.81c0.25-0.21,0.56-0.32,0.93-0.32s0.69,0.15,0.96,0.46
		c0.27,0.31,0.45,0.69,0.54,1.16c0.08,0.46,0.11,1,0.08,1.6s-0.14,1.09-0.32,1.47c-0.18,0.38-0.45,0.64-0.81,0.79
		c-0.36,0.15-0.72,0.13-1.08-0.05c-0.36-0.18-0.61-0.42-0.76-0.71c-0.15-0.29-0.25-0.61-0.32-0.93
		C115.18,91.76,115.16,91.32,115.18,90.76z M115.85,90.57c-0.06,0.58-0.04,1.1,0.06,1.55c0.11,0.45,0.28,0.77,0.52,0.96
		c0.24,0.19,0.49,0.23,0.74,0.11c0.25-0.12,0.44-0.35,0.55-0.7c0.12-0.35,0.17-0.73,0.17-1.14s-0.02-0.79-0.05-1.12
		c-0.03-0.34-0.13-0.64-0.29-0.92c-0.16-0.27-0.37-0.42-0.63-0.43s-0.5,0.12-0.7,0.4S115.91,89.99,115.85,90.57z"/>
	<path d="M119.23,90.76c0.02-0.56,0.1-1,0.24-1.33c0.14-0.33,0.33-0.6,0.58-0.81c0.25-0.21,0.56-0.32,0.93-0.32s0.69,0.15,0.96,0.46
		c0.27,0.31,0.45,0.69,0.54,1.16c0.08,0.46,0.11,1,0.08,1.6s-0.14,1.09-0.32,1.47c-0.18,0.38-0.45,0.64-0.81,0.79
		c-0.36,0.15-0.72,0.13-1.08-0.05c-0.36-0.18-0.61-0.42-0.76-0.71c-0.15-0.29-0.25-0.61-0.32-0.93
		C119.23,91.76,119.21,91.32,119.23,90.76z M119.9,90.57c-0.06,0.58-0.04,1.1,0.06,1.55c0.11,0.45,0.28,0.77,0.52,0.96
		c0.24,0.19,0.49,0.23,0.74,0.11c0.25-0.12,0.44-0.35,0.55-0.7c0.12-0.35,0.17-0.73,0.17-1.14s-0.02-0.79-0.05-1.12
		c-0.03-0.34-0.13-0.64-0.29-0.92c-0.16-0.27-0.37-0.42-0.63-0.43s-0.5,0.12-0.7,0.4S119.96,89.99,119.9,90.57z"/>
	<path d="M126.86,93.81h-0.63v-2.56c0-0.13-0.02-0.23-0.06-0.32s-0.13-0.13-0.25-0.13c-0.15,0-0.29,0.08-0.41,0.24
		c-0.13,0.16-0.19,0.36-0.19,0.62v2.15h-0.63v-2.56c0-0.13-0.02-0.23-0.06-0.32c-0.04-0.08-0.13-0.13-0.25-0.13
		c-0.15,0-0.28,0.08-0.41,0.24c-0.13,0.16-0.19,0.36-0.19,0.62v2.15h-0.63v-3.54h0.63v0.47c0.11-0.17,0.23-0.3,0.38-0.4
		c0.15-0.09,0.31-0.14,0.47-0.14c0.17,0,0.31,0.05,0.43,0.14s0.2,0.23,0.24,0.4c0.11-0.17,0.23-0.3,0.36-0.4
		c0.14-0.09,0.29-0.14,0.46-0.14c0.25,0,0.44,0.07,0.57,0.21c0.13,0.14,0.19,0.33,0.19,0.58V93.81z"/>
	<path d="M130.88,91.85c-0.7,0.53-1.54,1.31-2.53,2.34c-0.19-0.21-0.35-0.37-0.47-0.47c0.17-0.21,0.25-0.44,0.25-0.7v-3.51
		c0-0.32-0.01-0.67-0.03-1.04h0.73c-0.02,0.15-0.03,0.39-0.03,0.73v3.67c0.61-0.55,1.15-1.09,1.61-1.61
		C130.55,91.48,130.71,91.68,130.88,91.85z M133.58,89.83c-0.09,0.99-0.3,1.8-0.62,2.44c0.86,0.84,1.46,1.48,1.77,1.9
		c-0.19,0.13-0.38,0.27-0.57,0.44c-0.38-0.55-0.91-1.14-1.58-1.77c-0.82,0.91-1.74,1.58-2.75,2.02c-0.21-0.32-0.38-0.53-0.51-0.63
		c0.91-0.27,1.68-0.72,2.31-1.33c0.63-0.61,1.02-1.44,1.17-2.48c0.15-1.04,0.21-1.93,0.19-2.67c0.36,0.08,0.65,0.15,0.89,0.19
		C133.78,88.2,133.68,88.83,133.58,89.83z M130.88,88.45c0.25,0.31,0.54,0.68,0.85,1.12c-0.19,0.13-0.38,0.27-0.57,0.44
		c-0.27-0.49-0.78-1.15-1.52-1.99c0.17-0.11,0.34-0.24,0.51-0.41C130.38,87.86,130.63,88.14,130.88,88.45z"/>
	<path d="M141.48,88.02c0.4,0,0.81-0.01,1.23-0.03v0.67c-0.46-0.02-0.88-0.03-1.23-0.03h-2.18v4.87c0,0.27,0.01,0.62,0.03,1.04
		h-0.73c0.02-0.38,0.03-0.73,0.03-1.04v-4.87h-1.74c-0.42,0-0.83,0.01-1.23,0.03v-0.67c0.4,0.02,0.81,0.03,1.23,0.03H141.48z
		 M141.73,92.7c-0.34-0.44-0.99-1.11-1.96-1.99l0.47-0.47c0.57,0.46,1.25,1.12,2.06,1.96C142.09,92.35,141.9,92.51,141.73,92.7z"/>
	<path d="M145.31,92.8c0.29-0.08,0.63-0.21,1.01-0.38c-0.02,0.23-0.03,0.44-0.03,0.63c-0.36,0.13-0.76,0.26-1.22,0.41
		c-0.45,0.15-0.84,0.31-1.16,0.47c-0.06-0.21-0.17-0.43-0.32-0.67c0.32-0.08,0.67-0.19,1.08-0.32v-2.78c-0.4,0-0.73,0.01-0.98,0.03
		v-0.6c0.25,0.02,0.58,0.03,0.98,0.03v-1.01c0-0.36-0.01-0.72-0.03-1.08h0.7c-0.02,0.27-0.03,0.63-0.03,1.08v1.01
		c0.38,0,0.68-0.01,0.92-0.03v0.6c-0.23-0.02-0.54-0.03-0.92-0.03V92.8z M145.88,90.49c0.23-0.04,0.52-0.13,0.85-0.25v-0.73
		c0-0.38-0.01-0.81-0.03-1.3h0.63c-0.02,0.44-0.03,0.87-0.03,1.27v0.57l0.95-0.35v-1.27c0-0.36-0.01-0.72-0.03-1.08h0.66
		c-0.02,0.25-0.03,0.62-0.03,1.11v1.04c0.32-0.08,0.86-0.26,1.64-0.54c-0.02,0.25-0.03,0.62-0.03,1.11v1.23
		c0.02,0.55-0.08,0.9-0.3,1.04s-0.5,0.26-0.84,0.35c-0.06-0.21-0.16-0.43-0.29-0.66c0.38-0.04,0.62-0.1,0.71-0.17
		c0.09-0.07,0.13-0.31,0.11-0.71v-1.36c-0.36,0.11-0.7,0.21-1.01,0.32v2.12c0,0.38,0.01,0.7,0.03,0.95h-0.66
		c0.02-0.38,0.03-0.7,0.03-0.95V90.3l-0.95,0.35v2.63c0,0.42,0.15,0.63,0.44,0.63h2.02c0.21,0,0.35-0.07,0.41-0.21
		c0.06-0.14,0.13-0.38,0.19-0.71c0.21,0.15,0.44,0.24,0.7,0.28c-0.13,0.46-0.26,0.78-0.41,0.93s-0.38,0.24-0.7,0.24h-2.5
		c-0.46,0-0.71-0.29-0.73-0.85v-2.75c-0.25,0.08-0.44,0.17-0.57,0.25C146.05,90.84,145.96,90.64,145.88,90.49z"/>
	<path d="M158.75,88.24c-0.32-0.02-0.74-0.03-1.27-0.03h-4.68v5.85h5.16c0.42,0,0.76-0.01,1.01-0.03v0.57
		c-0.27-0.02-0.63-0.03-1.08-0.03h-5.76c0.02-0.51,0.03-0.88,0.03-1.11v-4.81c0-0.36-0.01-0.69-0.03-0.98h6.61V88.24z M156.16,90.55
		c0.48-0.57,0.84-1.14,1.08-1.71c0.23,0.15,0.51,0.3,0.82,0.44c-0.23,0.15-0.43,0.35-0.6,0.6c-0.17,0.25-0.42,0.61-0.76,1.08
		c0.72,0.59,1.3,1.17,1.74,1.74c-0.25,0.17-0.43,0.35-0.54,0.54c-0.34-0.51-0.9-1.09-1.68-1.74c-0.32,0.36-0.64,0.69-0.96,0.98
		c-0.33,0.3-0.73,0.62-1.22,0.98c-0.19-0.19-0.4-0.35-0.63-0.47c0.42-0.19,0.8-0.42,1.14-0.68c0.34-0.26,0.74-0.68,1.2-1.25
		c-0.53-0.48-1.18-0.97-1.96-1.46c0.21-0.17,0.36-0.35,0.44-0.54C154.97,89.57,155.61,90.07,156.16,90.55z"/>
	<path d="M163.29,89.87c-0.07,0.12-0.23,0.42-0.46,0.9h2.94c0.51,0,0.92-0.01,1.23-0.03v0.57c-0.34-0.02-0.74-0.03-1.2-0.03h-0.32
		c-0.23,0.61-0.55,1.16-0.95,1.65c0.78,0.3,1.58,0.67,2.4,1.14c-0.15,0.17-0.3,0.37-0.44,0.6c-0.78-0.53-1.59-0.96-2.44-1.3
		c-0.53,0.4-1.13,0.71-1.8,0.93c-0.68,0.22-1.23,0.37-1.68,0.46c-0.08-0.25-0.21-0.47-0.38-0.66c0.65-0.04,1.27-0.16,1.85-0.35
		c0.58-0.19,1.03-0.4,1.34-0.63c-0.63-0.23-1.37-0.44-2.21-0.63c0.34-0.46,0.59-0.86,0.76-1.2h-0.79c-0.25,0-0.61,0.01-1.08,0.03
		v-0.57c0.25,0.02,0.6,0.03,1.04,0.03h1.04c0.27-0.51,0.48-1.01,0.63-1.52c0.25,0.15,0.5,0.25,0.73,0.32
		C163.45,89.66,163.37,89.76,163.29,89.87z M163.31,87.26c0.23,0.3,0.46,0.62,0.7,0.98c-0.13,0.06-0.26,0.16-0.41,0.28h2.91
		c-0.02,0.3-0.03,0.54-0.03,0.73c0,0.19,0.01,0.44,0.03,0.76h-0.66v-0.98h-4.68v0.92h-0.67c0.02-0.29,0.03-0.55,0.03-0.76
		s-0.02-0.43-0.06-0.67h2.91c-0.17-0.36-0.36-0.65-0.57-0.89C162.99,87.51,163.16,87.39,163.31,87.26z M163.94,92.7
		c0.29-0.27,0.58-0.75,0.85-1.42h-2.15c-0.17,0.25-0.35,0.55-0.54,0.89C162.97,92.4,163.58,92.58,163.94,92.7z"/>
	<path d="M171.95,87.86c0.74,1.18,1.86,1.94,3.35,2.28c-0.19,0.23-0.32,0.47-0.38,0.73c-0.42-0.17-0.78-0.35-1.08-0.54v0.51
		c-0.23-0.02-0.6-0.03-1.11-0.03h-0.76v1.27h1.2c0.44,0,0.8-0.01,1.08-0.03v0.57c-0.27-0.02-0.63-0.03-1.08-0.03h-1.2V94h1.23
		c0.63,0,1.15-0.02,1.55-0.06v0.66c-0.38-0.06-0.88-0.09-1.49-0.09h-3.48c-0.63,0-1.11,0.01-1.42,0.03v-0.57
		c0.32,0.02,0.79,0.03,1.42,0.03h1.55v-1.42h-0.89c-0.72,0-1.19,0.01-1.42,0.03v-0.57c0.23,0.02,0.7,0.03,1.39,0.03h0.92v-1.27
		h-0.63c-0.65,0-1.08,0.01-1.27,0.03v-0.51c-0.19,0.15-0.55,0.37-1.08,0.66c-0.13-0.25-0.27-0.47-0.44-0.66
		c0.51-0.13,1.1-0.44,1.77-0.95c0.67-0.51,1.21-1.17,1.61-1.99c0.25,0.11,0.52,0.21,0.79,0.32L171.95,87.86z M170.75,90.27h1.9
		c0.42,0,0.75-0.01,0.98-0.03c-0.91-0.46-1.58-1.14-2.03-2.03c-0.57,0.87-1.22,1.54-1.96,2.03
		C169.89,90.26,170.26,90.27,170.75,90.27z"/>
	<path d="M177.58,88.84v4.37c0,0.46,0.01,0.96,0.03,1.49h-0.63c0.02-0.51,0.03-0.98,0.03-1.42v-3.35c-0.29,0.61-0.5,1.01-0.6,1.2
		c-0.11-0.19-0.26-0.35-0.47-0.47c0.23-0.32,0.51-0.82,0.84-1.5s0.52-1.27,0.59-1.76l0.73,0.28
		C177.98,87.8,177.81,88.19,177.58,88.84z M180.33,88.43c0-0.46-0.01-0.83-0.03-1.11c0.27,0.04,0.52,0.07,0.73,0.09
		c-0.06,0.21-0.09,0.55-0.09,1.01h1.01c0.46,0,0.89-0.01,1.27-0.03v0.57c-0.4-0.02-0.82-0.03-1.27-0.03h-1.01v0.7h1.93
		c-0.02,0.3-0.03,0.61-0.03,0.95c0,0.32,0.01,0.64,0.03,0.98h-1.96c-0.04,0.67-0.16,1.22-0.35,1.64c0.59,0.53,1.53,0.8,2.82,0.82
		c-0.15,0.11-0.26,0.31-0.35,0.6c-1.12-0.04-2.07-0.36-2.85-0.95c-0.49,0.51-1.08,0.89-1.77,1.14c-0.02-0.15-0.17-0.31-0.44-0.47
		c0.8-0.23,1.39-0.57,1.77-1.01c-0.36-0.36-0.74-0.78-1.14-1.27c0.13-0.06,0.27-0.18,0.44-0.35c0.34,0.46,0.69,0.83,1.04,1.11
		c0.13-0.36,0.2-0.78,0.22-1.27h-1.87c0.02-0.34,0.03-0.67,0.03-1.01c0-0.34-0.01-0.64-0.03-0.92h1.9v-0.7h-1.04
		c-0.44,0-0.82,0.01-1.14,0.03V88.4c0.29,0.02,0.66,0.03,1.11,0.03H180.33z M180.33,91.06v-0.95h-1.27v0.95H180.33z M182.23,91.06
		v-0.95h-1.3v0.95H182.23z"/>
	<path d="M184.78,93.21c0.14-0.4,0.22-0.8,0.25-1.2c0.03-0.4,0.05-1.08,0.05-2.02s-0.01-1.71-0.03-2.28h5.66
		c-0.02,0.61-0.03,1.16-0.03,1.65v4.14c0,0.44-0.13,0.72-0.38,0.82c-0.25,0.11-0.55,0.18-0.89,0.22c-0.04-0.32-0.12-0.56-0.22-0.73
		c0.42,0.02,0.67,0.01,0.74-0.05c0.07-0.05,0.11-0.15,0.11-0.3v-1.58h-1.93v1.23c0,0.46,0.01,0.89,0.03,1.27h-0.7
		c0.02-0.36,0.03-0.77,0.03-1.23v-1.27h-1.8c-0.08,0.91-0.37,1.82-0.85,2.75c-0.23-0.15-0.44-0.24-0.63-0.28
		C184.45,93.99,184.64,93.61,184.78,93.21z M187.48,89.57v-1.36h-1.8v1.36H187.48z M187.48,91.38v-1.33h-1.8v1.33H187.48z
		 M190.05,89.57v-1.36h-1.93v1.36H190.05z M190.05,91.38v-1.33h-1.93v1.33H190.05z"/>
	<path d="M194.73,92.74c0.08,0.23,0.09,0.46,0.03,0.68c-0.06,0.22-0.18,0.39-0.35,0.51c-0.17,0.12-0.37,0.17-0.6,0.17
		c-0.23,0-0.44-0.1-0.63-0.29c-0.19-0.19-0.29-0.4-0.29-0.62s0.05-0.42,0.16-0.58s0.27-0.29,0.49-0.38c0.22-0.08,0.45-0.08,0.7,0.02
		C194.48,92.34,194.64,92.5,194.73,92.74z M194.16,93.62c0.19-0.13,0.28-0.3,0.27-0.52s-0.12-0.38-0.32-0.49s-0.39-0.09-0.57,0.03
		c-0.18,0.13-0.27,0.3-0.27,0.51s0.1,0.37,0.3,0.49C193.77,93.75,193.97,93.75,194.16,93.62z"/>
</g>
<path d="M24.16,94.36l-4.95,2.71l4.95,2.71l-0.09,0.42l-5.51-3.03v-0.23l5.48-2.97L24.16,94.36z M24.16,102.17l-0.09,0.42
	l-5.51-2.98l0.09-0.4L24.16,102.17z"/>
<path d="M24.01,102.7l-5.51-2.99l-0.06-0.14l0.09-0.4l0.18-0.08l5.51,2.97l0.06,0.14l-0.08,0.42L24.01,102.7z M18.7,99.54l5.28,2.86
	l0.03-0.16l-5.28-2.85L18.7,99.54z M24.01,100.31l-5.51-3.03l-0.07-0.11v-0.23l0.07-0.11l5.48-2.98l0.18,0.08l0.11,0.4l-0.06,0.14
	l-4.75,2.6l4.75,2.6l0.06,0.14l-0.08,0.42L24.01,100.31z M18.68,97.09l5.3,2.91l0.03-0.16l-4.87-2.66v-0.22l4.86-2.66l-0.04-0.16
	l-5.28,2.86V97.09z"/>
<g>
	<defs>
		<rect id="SVGID_00000007424685450849376850000003368408870194326456_" x="1.79" y="1.67" width="207.41" height="115.65"/>
	</defs>
	<clipPath id="SVGID_00000116935131043435888520000017264988364060293250_">
		<use xlink:href="#SVGID_00000007424685450849376850000003368408870194326456_"  style="overflow:visible;"/>
	</clipPath>
	<path style="clip-path:url(#SVGID_00000116935131043435888520000017264988364060293250_);" d="M39.62,97.12v0.2
		c0.14,0.03,0.24,0.09,0.29,0.2c0.04,0.09,0.07,0.35,0.07,0.75v3c0,0.4-0.02,0.65-0.06,0.73c-0.06,0.13-0.16,0.19-0.29,0.22v0.2
		h1.69v-0.2c-0.15-0.02-0.24-0.09-0.28-0.21c-0.05-0.13-0.07-0.37-0.07-0.74v-2.85c0.13-0.28,0.24-0.49,0.35-0.6
		c0.08-0.08,0.16-0.12,0.25-0.12c0.06,0,0.12,0.03,0.18,0.11c0.06,0.07,0.09,0.16,0.11,0.28c0.03,0.13,0.04,0.43,0.04,0.9v2.28
		c0,0.31-0.01,0.51-0.02,0.6c-0.02,0.09-0.06,0.17-0.11,0.23c-0.05,0.07-0.12,0.11-0.22,0.12v0.2h1.7v-0.2
		c-0.15-0.01-0.25-0.09-0.31-0.23c-0.03-0.09-0.06-0.34-0.06-0.72v-2.85c0.11-0.23,0.21-0.4,0.31-0.53c0.1-0.12,0.2-0.17,0.3-0.17
		c0.07,0,0.13,0.03,0.18,0.09c0.05,0.06,0.08,0.16,0.11,0.29c0.03,0.13,0.04,0.43,0.04,0.89v2.28c0,0.37-0.02,0.6-0.07,0.71
		c-0.06,0.14-0.16,0.22-0.29,0.24v0.2h1.7v-0.2c-0.14-0.04-0.24-0.09-0.28-0.2c-0.05-0.09-0.07-0.35-0.07-0.75V99.1
		c0-0.57-0.03-0.98-0.08-1.24c-0.05-0.26-0.15-0.48-0.28-0.64c-0.14-0.17-0.32-0.25-0.55-0.25c-0.19,0-0.37,0.08-0.54,0.23
		c-0.17,0.15-0.35,0.39-0.54,0.73c-0.07-0.32-0.19-0.57-0.33-0.72c-0.14-0.16-0.32-0.24-0.53-0.24c-0.19,0-0.35,0.06-0.5,0.19
		c-0.16,0.13-0.32,0.35-0.5,0.67v-0.71H39.62z M38,100.99c-0.02,0.44-0.07,0.76-0.17,0.97c-0.06,0.13-0.15,0.19-0.26,0.19
		c-0.11,0-0.2-0.05-0.26-0.14c-0.06-0.09-0.12-0.26-0.15-0.53c-0.05-0.37-0.07-1.1-0.07-2.18c0-1.99,0.02-3.15,0.04-3.49
		c0.04-0.33,0.09-0.57,0.18-0.69c0.06-0.09,0.14-0.14,0.24-0.14c0.13,0,0.23,0.06,0.29,0.18c0.09,0.19,0.14,0.53,0.17,1.05
		c0.01,0.23,0.01,1.01,0.01,2.35L38,100.99z M38.85,96.26c-0.11-0.51-0.29-0.91-0.53-1.23c-0.24-0.3-0.5-0.45-0.78-0.45
		c-0.26,0-0.52,0.15-0.77,0.46c-0.24,0.3-0.42,0.75-0.55,1.32c-0.14,0.71-0.22,1.47-0.22,2.3c0,0.61,0.05,1.2,0.15,1.78
		c0.08,0.43,0.16,0.77,0.27,1.03c0.14,0.35,0.3,0.61,0.49,0.81c0.19,0.19,0.39,0.28,0.62,0.28c0.2,0,0.39-0.08,0.56-0.23
		s0.32-0.36,0.46-0.61c0.13-0.26,0.24-0.6,0.32-1.01c0.14-0.66,0.2-1.38,0.2-2.14C39.09,97.74,39.01,96.97,38.85,96.26 M34.4,100.99
		c-0.02,0.44-0.07,0.76-0.17,0.97c-0.06,0.13-0.15,0.19-0.26,0.19c-0.11,0-0.19-0.05-0.26-0.14c-0.07-0.09-0.12-0.26-0.15-0.53
		c-0.05-0.37-0.07-1.1-0.07-2.18c0-1.99,0.02-3.15,0.04-3.49c0.04-0.33,0.09-0.57,0.18-0.69c0.06-0.09,0.14-0.14,0.24-0.14
		c0.13,0,0.22,0.06,0.29,0.18c0.09,0.19,0.14,0.53,0.17,1.05c0.01,0.23,0.01,1.01,0.01,2.35L34.4,100.99z M35.26,96.26
		c-0.11-0.51-0.29-0.91-0.53-1.23c-0.24-0.3-0.5-0.45-0.78-0.45c-0.26,0-0.52,0.15-0.77,0.46c-0.25,0.3-0.42,0.75-0.55,1.32
		c-0.14,0.71-0.21,1.47-0.21,2.3c0,0.61,0.05,1.2,0.15,1.78c0.08,0.43,0.16,0.77,0.27,1.03c0.14,0.35,0.3,0.61,0.49,0.81
		c0.19,0.19,0.39,0.28,0.62,0.28c0.2,0,0.39-0.08,0.56-0.23s0.32-0.36,0.46-0.61c0.13-0.26,0.24-0.6,0.32-1.01
		c0.14-0.66,0.2-1.38,0.2-2.14C35.49,97.74,35.41,96.97,35.26,96.26 M30.8,100.99c-0.01,0.44-0.07,0.76-0.17,0.97
		c-0.06,0.13-0.15,0.19-0.27,0.19c-0.11,0-0.19-0.05-0.26-0.14c-0.06-0.09-0.12-0.26-0.15-0.53c-0.05-0.37-0.07-1.1-0.07-2.18
		c0-1.99,0.02-3.15,0.04-3.49c0.03-0.33,0.09-0.57,0.18-0.69c0.06-0.09,0.14-0.14,0.24-0.14c0.13,0,0.22,0.06,0.29,0.18
		c0.09,0.19,0.14,0.53,0.17,1.05c0.01,0.23,0.01,1.01,0.01,2.35L30.8,100.99z M31.66,96.26c-0.11-0.51-0.29-0.91-0.53-1.23
		c-0.24-0.3-0.5-0.45-0.78-0.45c-0.26,0-0.52,0.15-0.77,0.46c-0.25,0.3-0.42,0.75-0.55,1.32c-0.14,0.71-0.22,1.47-0.22,2.3
		c0,0.61,0.05,1.2,0.15,1.78c0.08,0.43,0.16,0.77,0.27,1.03c0.14,0.35,0.3,0.61,0.49,0.81c0.19,0.19,0.39,0.28,0.62,0.28
		c0.2,0,0.39-0.08,0.56-0.23c0.17-0.15,0.32-0.36,0.46-0.61c0.13-0.26,0.24-0.6,0.32-1.01c0.14-0.66,0.2-1.38,0.2-2.14
		C31.9,97.74,31.82,96.97,31.66,96.26 M28.21,100.2h-0.13c-0.08,0.26-0.14,0.43-0.19,0.51c-0.04,0.08-0.11,0.14-0.19,0.17
		c-0.07,0.04-0.24,0.05-0.49,0.05h-1.03c0.79-1.25,1.31-2.22,1.55-2.92c0.17-0.52,0.26-1.03,0.26-1.53c0-0.28-0.06-0.57-0.16-0.88
		c-0.12-0.32-0.28-0.57-0.47-0.75c-0.2-0.17-0.42-0.26-0.66-0.26c-0.34,0-0.63,0.17-0.89,0.52c-0.26,0.35-0.45,0.88-0.57,1.61
		l0.13,0.07c0.19-0.58,0.48-0.87,0.84-0.87c0.21,0,0.4,0.13,0.55,0.39c0.15,0.26,0.23,0.59,0.23,0.98c0,0.54-0.09,1.1-0.27,1.67
		c-0.18,0.57-0.71,1.68-1.57,3.32v0.13h2.81L28.21,100.2z"/>
</g>
<polygon points="23.65,79.4 28.46,92.66 18.85,92.66 "/>
<polygon points="41.64,79.4 46.45,92.66 36.84,92.66 "/>
<polygon points="32.65,74.25 39.33,92.64 25.99,92.64 "/>
<g>
	<defs>
		<rect id="SVGID_00000089570059872320811760000010068954764990279814_" x="1.79" y="1.67" width="207.41" height="115.65"/>
	</defs>
	<clipPath id="SVGID_00000173148582981579171090000004157301469276005770_">
		<use xlink:href="#SVGID_00000089570059872320811760000010068954764990279814_"  style="overflow:visible;"/>
	</clipPath>
	<path style="clip-path:url(#SVGID_00000173148582981579171090000004157301469276005770_);" d="M32.66,109.68
		c-10.52,0-19.08-8.58-19.08-19.14c0-10.55,8.56-19.13,19.08-19.13s19.08,8.58,19.08,19.13C51.74,101.1,43.18,109.68,32.66,109.68
		 M32.66,73.53c-9.35,0-16.96,7.63-16.96,17.02c0,9.38,7.61,17.02,16.96,17.02c9.35,0,16.96-7.63,16.96-17.02
		C49.63,81.16,42.01,73.53,32.66,73.53"/>
</g>
<rect class="st4" width="211" height="119"/>
</svg>
