<?xml version="1.0" encoding="utf-8"?>
<!-- Generator: Adobe Illustrator 26.5.0, SVG Export Plug-In . SVG Version: 6.00 Build 0)  -->
<svg version="1.1" id="レイヤー_1" xmlns="http://www.w3.org/2000/svg" xmlns:xlink="http://www.w3.org/1999/xlink" x="0px"
	 y="0px" viewBox="0 0 291 61" style="enable-background:new 0 0 291 61;" xml:space="preserve">
<style type="text/css">
	.st0{clip-path:url(#SVGID_00000145045178873703993980000017536210643924416698_);}
	.st1{fill:none;}
</style>
<g>
	<defs>
		<rect id="SVGID_1_" x="2.89" y="2.51" width="65.23" height="55.98"/>
	</defs>
	<clipPath id="SVGID_00000124152887437129797810000016589651803779470779_">
		<use xlink:href="#SVGID_1_"  style="overflow:visible;"/>
	</clipPath>
	<path style="clip-path:url(#SVGID_00000124152887437129797810000016589651803779470779_);" d="M58.92,21.47l-9.2,9.21h4.86
		c-0.1,10.45-8.6,18.9-19.08,18.9c-8.31,0-15.38-5.32-18-12.74l-5.42,5.43L8.82,39C12.42,50.3,23,58.49,35.5,58.49
		c15.4,0,27.9-12.44,27.99-27.81h4.62L58.92,21.47z M12.08,39.89l9.2-9.21h-4.86c0-0.06,0-0.12,0-0.18
		c0-10.54,8.54-19.08,19.08-19.08c8.41,0,15.55,5.44,18.09,13l5.33-5.34l3.42,3.43C58.9,10.94,48.19,2.51,35.5,2.51
		C20.04,2.51,7.51,15.04,7.51,30.5c0,0.06,0,0.12,0,0.18H2.89L12.08,39.89z"/>
	<path style="clip-path:url(#SVGID_00000124152887437129797810000016589651803779470779_);" d="M32.31,20.36v21.23h-5.28V30.21
		c0-1.64-0.04-2.63-0.12-2.96c-0.08-0.33-0.3-0.58-0.65-0.75c-0.35-0.17-1.14-0.26-2.36-0.26h-0.52v-2.46
		c2.56-0.55,4.5-1.69,5.83-3.42H32.31z"/>
	<path style="clip-path:url(#SVGID_00000124152887437129797810000016589651803779470779_);" d="M41.65,25.77
		c0-1.13-0.06-1.83-0.17-2.12c-0.11-0.28-0.38-0.42-0.8-0.42c-0.41,0-0.68,0.15-0.81,0.45c-0.13,0.3-0.2,1-0.2,2.09v10.35
		c0,1.23,0.06,1.97,0.18,2.23c0.12,0.25,0.39,0.38,0.8,0.38c0.41,0,0.68-0.15,0.8-0.44c0.13-0.3,0.19-0.97,0.19-2.01V25.77z
		 M46.94,27.55v7.07c0,1.61-0.09,2.78-0.26,3.51c-0.18,0.73-0.54,1.42-1.09,2.06c-0.55,0.64-1.22,1.1-2,1.38
		c-0.78,0.28-1.65,0.42-2.62,0.42c-1.27,0-2.33-0.15-3.17-0.44c-0.84-0.29-1.51-0.75-2.01-1.37c-0.5-0.62-0.86-1.27-1.07-1.96
		c-0.21-0.68-0.32-1.78-0.32-3.27v-7.4c0-1.95,0.17-3.41,0.51-4.38c0.34-0.97,1.01-1.75,2.01-2.33c1.01-0.58,2.22-0.88,3.65-0.88
		c1.17,0,2.21,0.2,3.13,0.61c0.92,0.41,1.61,0.9,2.07,1.49c0.46,0.58,0.76,1.24,0.93,1.98C46.85,24.78,46.94,25.95,46.94,27.55"/>
</g>
<g>
	<path d="M74.29,26.79c-0.36,0.11-0.74,0.22-1.13,0.32c-0.4,0.11-0.68,0.22-0.85,0.34c-0.12-0.29-0.24-0.56-0.36-0.83
		c0.22-0.02,0.41-0.06,0.58-0.11v-3.92c0-0.31-0.02-0.66-0.07-1.04h0.76c-0.02,0.38-0.04,0.74-0.04,1.08v3.78
		c0.34-0.07,0.68-0.16,1.04-0.25v-5.4c0-0.34-0.01-0.71-0.04-1.12h0.76c-0.02,0.41-0.04,0.78-0.04,1.12v1.55
		c0.65,0,1.09-0.02,1.33-0.07v0.76c-0.31-0.02-0.76-0.04-1.33-0.04v3.02c0.43-0.1,0.86-0.2,1.3-0.32v0.68
		C75.29,26.53,74.65,26.68,74.29,26.79z M77.39,20.69v2.05c0.36-0.19,0.74-0.43,1.13-0.72c0.4-0.29,0.71-0.56,0.95-0.83
		c0.19,0.26,0.38,0.52,0.58,0.76c-1.22,0.7-2.11,1.21-2.66,1.55v2.7c-0.02,0.36,0.16,0.53,0.54,0.5h0.79c0.1,0,0.19-0.04,0.29-0.13
		c0.1-0.08,0.19-0.39,0.29-0.92c0.24,0.17,0.52,0.3,0.83,0.4c-0.17,0.6-0.35,0.97-0.56,1.12c-0.2,0.14-0.45,0.22-0.74,0.22h-1.08
		c-0.77,0.05-1.13-0.26-1.08-0.94v-5.76c0-0.41-0.01-0.82-0.04-1.22h0.79C77.4,19.82,77.39,20.23,77.39,20.69z"/>
	<path d="M82.42,20.43c0-0.38-0.01-0.76-0.04-1.12h0.72c-0.02,0.34-0.04,0.71-0.04,1.12v0.86c0.38,0,0.79-0.01,1.22-0.04v0.68
		c-0.43-0.02-0.84-0.04-1.22-0.04v1.22c0.17-0.12,0.34-0.25,0.5-0.4c0.31,0.5,0.59,1,0.83,1.48c-0.26,0.12-0.49,0.25-0.68,0.4
		c-0.14-0.48-0.36-0.92-0.65-1.33v2.81c0,0.5,0.01,1.01,0.04,1.51h-0.72c0.02-0.53,0.04-1.03,0.04-1.51v-2.34
		c-0.24,0.67-0.61,1.32-1.12,1.94c-0.14-0.19-0.32-0.37-0.54-0.54c0.41-0.41,0.74-0.92,0.99-1.53c0.25-0.61,0.41-1.18,0.49-1.71
		c-0.46,0-0.85,0.02-1.19,0.07v-0.72c0.46,0.02,0.91,0.04,1.37,0.04V20.43z M85.23,25.36c-0.26,0.62-0.47,1.07-0.61,1.33
		c-0.22-0.12-0.46-0.23-0.72-0.32c0.31-0.48,0.55-0.92,0.7-1.31c0.16-0.4,0.28-0.79,0.38-1.17c0.26,0.12,0.53,0.23,0.79,0.32
		C85.67,24.36,85.5,24.74,85.23,25.36z M88.04,22.27c0.48,0,0.9-0.01,1.26-0.04v0.68c-0.36-0.02-0.73-0.04-1.12-0.04h-1.12v3.63
		c0,0.38-0.11,0.64-0.32,0.76s-0.6,0.22-1.15,0.29c-0.05-0.29-0.14-0.56-0.29-0.83c0.48,0,0.78-0.02,0.9-0.05s0.18-0.17,0.18-0.41
		v-3.38h-0.9c-0.6,0-1.03,0.02-1.3,0.07v-0.72c0.31,0.02,0.74,0.04,1.3,0.04H88.04z M87.64,19.89c0.5,0,0.91-0.01,1.22-0.04v0.72
		c-0.46-0.05-0.94-0.07-1.44-0.07h-1.76c-0.38,0-0.76,0.02-1.12,0.07v-0.72c0.34,0.02,0.71,0.04,1.12,0.04H87.64z M89.51,26.05
		c-0.26,0.12-0.53,0.26-0.79,0.43c-0.26-0.7-0.66-1.43-1.19-2.2c0.24-0.12,0.46-0.26,0.65-0.43C88.71,24.67,89.15,25.4,89.51,26.05z
		"/>
	<path d="M92.18,21.95c-0.02,0.43-0.04,0.94-0.04,1.51v2.09c0.24-0.24,0.5-0.54,0.79-0.9c0.1,0.24,0.23,0.49,0.4,0.76
		c-0.36,0.34-0.67,0.65-0.92,0.94s-0.51,0.6-0.77,0.94c-0.17-0.26-0.37-0.48-0.61-0.65c0.26-0.22,0.4-0.46,0.4-0.72v-3.35
		c-0.53,0-0.95,0.01-1.26,0.04v-0.68c0.29,0.02,0.61,0.04,0.97,0.04H92.18z M92.75,20.58c-0.22,0.14-0.42,0.32-0.61,0.54
		c-0.46-0.7-0.82-1.19-1.08-1.47c0.19-0.12,0.38-0.28,0.58-0.47C92.19,19.8,92.56,20.27,92.75,20.58z M94.34,26.34
		c-0.34,0.46-0.71,0.91-1.12,1.37c-0.12-0.14-0.31-0.31-0.58-0.5c0.94-0.98,1.55-1.8,1.84-2.45c0.24,0.17,0.48,0.32,0.72,0.47
		C94.96,25.51,94.67,25.88,94.34,26.34z M97.79,21.98c0,0.98,0.01,1.69,0.04,2.12h-4.28c0.02-0.41,0.04-1.12,0.04-2.12
		s-0.01-1.75-0.04-2.23h4.28C97.8,20.23,97.79,20.97,97.79,21.98z M97.04,23.49v-3.06h-2.7v3.06H97.04z M98.62,26.98
		c-0.26,0.19-0.49,0.38-0.68,0.58c-0.48-0.72-1.07-1.49-1.76-2.3c0.19-0.12,0.38-0.3,0.58-0.54C97.66,25.75,98.28,26.5,98.62,26.98z
		"/>
	<path d="M101.35,22.67c-0.02,0.43-0.04,0.88-0.04,1.33v1.87c0.62,0.53,1.6,0.82,2.92,0.88s2.47-0.01,3.46-0.2
		c-0.14,0.26-0.26,0.55-0.36,0.86h-2.41c-0.6,0-1.16-0.04-1.67-0.11c-0.52-0.07-1.01-0.23-1.48-0.49s-0.8-0.26-1.01-0.04
		c-0.2,0.23-0.41,0.49-0.63,0.77c-0.24-0.19-0.46-0.34-0.65-0.43c0.53-0.5,0.92-0.85,1.19-1.04v-2.84c-0.38,0-0.74,0.01-1.08,0.04
		v-0.65c0.36,0.02,0.7,0.04,1.01,0.04H101.35z M101.57,21.12c-0.29,0.17-0.48,0.31-0.58,0.43c-0.26-0.43-0.61-0.88-1.04-1.33
		c0.22-0.12,0.4-0.26,0.54-0.43C100.9,20.22,101.26,20.66,101.57,21.12z M104.95,20.25v1.33c1.27,0,2.1-0.01,2.48-0.04v0.65
		c-0.38-0.02-1.21-0.04-2.48-0.04v1.04h1.87c-0.02,0.6-0.04,1.08-0.04,1.44c0,0.36,0.01,0.85,0.04,1.48h-0.68v-0.43h-2.95v0.47
		h-0.68c0.02-0.6,0.04-1.09,0.04-1.48s-0.01-0.88-0.04-1.48h1.8v-1.04c-1.25,0-2.06,0.01-2.45,0.04v-0.65
		c0.31,0.02,1.13,0.04,2.45,0.04v-1.26c-0.29,0.02-0.86,0.08-1.73,0.18c-0.05-0.22-0.16-0.42-0.32-0.61c0.79,0,1.57-0.05,2.34-0.14
		c0.77-0.1,1.43-0.22,1.98-0.36c0.05,0.17,0.17,0.41,0.36,0.72C106.62,20.11,105.96,20.16,104.95,20.25z M106.14,25.11v-1.33h-2.95
		v1.33H106.14z"/>
	<path d="M109.4,25.9c0.16-0.46,0.25-0.91,0.29-1.37c0.04-0.46,0.05-1.22,0.05-2.3c0-1.08-0.01-1.94-0.04-2.59h6.44
		c-0.02,0.7-0.04,1.32-0.04,1.87v4.71c0,0.5-0.14,0.82-0.43,0.94s-0.62,0.2-1.01,0.25c-0.05-0.36-0.13-0.64-0.25-0.83
		c0.48,0.02,0.76,0.01,0.85-0.05c0.08-0.06,0.13-0.17,0.13-0.34v-1.8h-2.2v1.4c0,0.53,0.01,1.01,0.04,1.44h-0.79
		c0.02-0.41,0.04-0.88,0.04-1.4v-1.44h-2.05c-0.1,1.03-0.42,2.08-0.97,3.13c-0.26-0.17-0.5-0.28-0.72-0.32
		C109.02,26.79,109.24,26.36,109.4,25.9z M112.47,21.77v-1.55h-2.05v1.55H112.47z M112.47,23.82v-1.51h-2.05v1.51H112.47z
		 M115.39,21.77v-1.55h-2.2v1.55H115.39z M115.39,23.82v-1.51h-2.2v1.51H115.39z"/>
	<path d="M121.61,23.28h-2.52c-0.48,0-0.9,0.01-1.26,0.04v-0.72c0.36,0.02,0.78,0.04,1.26,0.04h2.52v-2.27h-1.76
		c-0.43,0-0.8,0.01-1.12,0.04v-0.72c0.31,0.02,0.68,0.04,1.12,0.04h4.1c0.41,0,0.82-0.01,1.22-0.04v0.72
		c-0.41-0.02-0.82-0.04-1.22-0.04h-1.58v2.27h2.34c0.53,0,1.01-0.01,1.44-0.04v0.72c-0.38-0.02-0.86-0.04-1.44-0.04h-2.34v3.31
		c0,0.43-0.14,0.69-0.43,0.77c-0.29,0.08-0.71,0.14-1.26,0.16c-0.02-0.31-0.12-0.64-0.29-0.97c0.38,0.05,0.68,0.07,0.9,0.05
		c0.22-0.01,0.32-0.11,0.32-0.31V23.28z"/>
	<path d="M130.14,20.72c0.1-0.31,0.18-0.58,0.25-0.81c0.07-0.23,0.12-0.46,0.14-0.7c0.33,0.07,0.63,0.14,0.9,0.22
		c-0.12,0.24-0.2,0.43-0.25,0.56c-0.05,0.13-0.13,0.38-0.25,0.74h2.92c0.5,0,0.96-0.01,1.37-0.04v0.68
		c-0.41-0.02-0.86-0.04-1.37-0.04h-3.13c-0.14,0.34-0.33,0.71-0.56,1.12c-0.23,0.41-0.52,0.85-0.88,1.33v2.52
		c0,0.48,0.01,0.95,0.04,1.4h-0.76c0.02-0.46,0.04-0.92,0.04-1.4v-1.87c-0.38,0.36-0.73,0.66-1.04,0.9
		c-0.17-0.22-0.37-0.4-0.61-0.54c0.29-0.17,0.58-0.37,0.86-0.61s0.55-0.52,0.79-0.83c0-0.22-0.01-0.43-0.04-0.65h0.58
		c0.17-0.19,0.32-0.41,0.45-0.65c0.13-0.24,0.25-0.48,0.34-0.72h-0.86c-0.58,0-1.08,0.01-1.51,0.04v-0.68
		c0.46,0.02,0.96,0.04,1.51,0.04H130.14z M131.98,23.53v-0.5c0-0.48-0.01-0.86-0.04-1.15h0.79c-0.02,0.29-0.04,0.67-0.04,1.15v0.5
		h0.83c0.43,0,0.83-0.01,1.19-0.04v0.68c-0.36-0.02-0.76-0.04-1.19-0.04h-0.83v2.41h1.37c0.46,0,0.86-0.01,1.22-0.04v0.65
		c-0.36-0.02-0.77-0.04-1.22-0.04h-2.92c-0.62,0-1.12,0.01-1.48,0.04v-0.65c0.36,0.02,0.85,0.04,1.48,0.04h0.83v-2.41h-0.68
		c-0.43,0-0.85,0.01-1.26,0.04v-0.68c0.41,0.02,0.83,0.04,1.26,0.04H131.98z"/>
	<path d="M140.87,19.28c-0.02,0.67-0.04,1.31-0.04,1.91h3.13c-0.02,0.48-0.04,1.14-0.04,1.98c0,0.82,0.01,1.43,0.04,1.83h-0.79
		v-0.54h-2.34v1.55c0,0.29,0.01,0.83,0.04,1.62H140c0.05-0.43,0.07-0.94,0.07-1.51v-1.66h-2.34V25h-0.79
		c0.02-0.36,0.04-0.97,0.04-1.83c0-0.89-0.01-1.55-0.04-1.98h3.13c0-0.65-0.01-1.28-0.04-1.91H140.87z M140.08,23.89v-2.12h-2.34
		v2.12H140.08z M143.17,23.89v-2.12h-2.34v2.12H143.17z"/>
	<path d="M148.17,20.15c-0.1,0.17-0.22,0.35-0.36,0.54v2.34c0,0.38,0.01,0.79,0.04,1.22h-0.79c0.02-0.46,0.04-0.86,0.04-1.22v-1.55
		c-0.1,0.17-0.24,0.35-0.43,0.56c-0.19,0.2-0.38,0.41-0.58,0.63c-0.22-0.22-0.42-0.4-0.61-0.54c0.33-0.24,0.64-0.52,0.92-0.83
		s0.5-0.58,0.67-0.81c0.17-0.23,0.31-0.46,0.41-0.68c0.11-0.23,0.19-0.41,0.23-0.56c0.24,0.14,0.53,0.29,0.86,0.43
		C148.4,19.82,148.27,19.98,148.17,20.15z M149.22,25c0-0.41-0.01-0.74-0.04-1.01h0.76c-0.02,0.22-0.04,0.55-0.04,1.01h2.59
		c0.36,0,0.78-0.01,1.26-0.04v0.72c-0.46-0.02-0.86-0.04-1.22-0.04h-2.63c0,0.98,0.01,1.63,0.04,1.94h-0.76
		c0.02-0.34,0.04-0.98,0.04-1.94h-2.63c-0.31,0-0.66,0.01-1.04,0.04v-0.72c0.38,0.02,0.74,0.04,1.08,0.04H149.22z M150.69,20.36
		v0.86c0.36-0.17,0.7-0.35,1.03-0.54c0.32-0.19,0.68-0.47,1.06-0.83c0.14,0.19,0.35,0.42,0.61,0.68c-0.31,0.12-0.73,0.32-1.26,0.61
		c-0.53,0.29-1.01,0.54-1.44,0.76v0.94c0,0.31,0.17,0.47,0.5,0.47h1.26c0.31,0,0.49-0.07,0.54-0.22c0.05-0.14,0.1-0.38,0.14-0.72
		c0.29,0.17,0.56,0.29,0.83,0.36c-0.12,0.46-0.25,0.77-0.4,0.94s-0.35,0.25-0.61,0.25h-2.19c-0.5,0-0.77-0.25-0.79-0.76V22.2
		c-0.5,0.24-0.89,0.41-1.15,0.5c-0.07-0.22-0.2-0.42-0.4-0.61c0.46-0.09,0.97-0.28,1.55-0.54v-1.12c0-0.46-0.01-0.83-0.04-1.12h0.83
		C150.71,19.61,150.69,19.95,150.69,20.36z"/>
	<path d="M156.99,25.29c0.53-0.67,0.89-1.36,1.1-2.07c0.2-0.71,0.32-1.37,0.34-1.98c0.02-0.61,0.01-1.25-0.04-1.92
		c0.26,0.02,0.56,0.05,0.9,0.07c-0.07,0.38-0.11,0.78-0.11,1.19s0.02,0.88,0.07,1.4c0.05,0.53,0.39,1.33,1.03,2.39
		c0.63,1.07,1.57,1.87,2.79,2.39c-0.29,0.29-0.48,0.53-0.58,0.72c-1.68-0.82-2.88-2.29-3.6-4.43c-0.48,1.9-1.64,3.41-3.49,4.54
		c-0.14-0.19-0.35-0.4-0.61-0.61C155.73,26.53,156.46,25.96,156.99,25.29z"/>
	<path d="M168.47,22.2c0.02,0.46,0.07,0.88,0.14,1.26h1.83c0.34,0,0.73-0.01,1.19-0.04v0.68c-0.41-0.02-0.8-0.04-1.19-0.04h-1.73
		c0.24,0.94,0.63,1.63,1.17,2.09c0.54,0.46,0.91,0.67,1.1,0.63c0.19-0.04,0.32-0.16,0.38-0.36c0.06-0.2,0.09-0.4,0.09-0.59
		c0.24,0.17,0.52,0.3,0.83,0.4c-0.19,0.53-0.37,0.89-0.54,1.08c-0.17,0.19-0.44,0.26-0.83,0.22c-0.38-0.05-0.74-0.19-1.06-0.43
		c-0.32-0.24-0.6-0.51-0.83-0.81s-0.43-0.63-0.59-0.99c-0.17-0.36-0.3-0.77-0.4-1.22h-2.52v2.38c0.6-0.29,1.16-0.59,1.69-0.9
		c0.02,0.29,0.08,0.53,0.18,0.72c-0.5,0.22-0.97,0.44-1.39,0.67c-0.42,0.23-0.8,0.45-1.13,0.67c-0.14-0.22-0.3-0.42-0.47-0.61
		c0.29-0.19,0.42-0.58,0.4-1.15v-4.5c0-0.55-0.01-1.08-0.04-1.58h6.33c-0.02,0.43-0.04,0.83-0.04,1.19c0,0.34,0.01,0.76,0.04,1.26
		H168.47z M170.34,21.62v-1.29h-4.82v1.29H170.34z M167.93,23.46c-0.07-0.48-0.12-0.9-0.14-1.26h-2.27v1.26H167.93z"/>
	<path d="M175.63,21.44c0-0.96-0.01-1.58-0.04-1.87h0.86c-0.05,0.29-0.07,0.91-0.07,1.87h1.98c0-0.98-0.01-1.62-0.04-1.91h0.86
		c-0.05,0.29-0.07,0.92-0.07,1.91h0.72c0.43,0,0.8-0.01,1.12-0.04v0.65c-0.31-0.02-0.68-0.04-1.12-0.04h-0.72v2.09h1.22
		c0.43,0,0.79-0.01,1.08-0.04v0.65c-0.26-0.02-0.61-0.04-1.04-0.04h-6.12c-0.46,0-0.82,0.01-1.08,0.04v-0.65
		c0.26,0.02,0.62,0.04,1.08,0.04h1.37v-2.09h-0.61c-0.58,0-1.01,0.01-1.3,0.04v-0.65c0.31,0.02,0.76,0.04,1.33,0.04H175.63z
		 M175.54,26.57c-0.54,0.4-1.07,0.71-1.6,0.95c-0.17-0.24-0.36-0.44-0.58-0.61c0.5-0.22,0.98-0.46,1.42-0.74
		c0.44-0.28,0.87-0.62,1.28-1.03c0.26,0.22,0.53,0.41,0.79,0.58C176.52,25.89,176.08,26.17,175.54,26.57z M178.37,24.1v-2.09h-1.98
		v2.09H178.37z M179.8,25.9c0.55,0.34,1.03,0.67,1.44,1.01c-0.22,0.17-0.41,0.36-0.58,0.58c-0.41-0.31-0.86-0.63-1.35-0.95
		c-0.49-0.32-0.93-0.58-1.31-0.77c0.19-0.19,0.37-0.4,0.54-0.61C178.83,25.32,179.25,25.57,179.8,25.9z"/>
	<path d="M185.17,20.54v1.62h0.54c0.36,0,0.74-0.01,1.15-0.04v0.65c-0.41-0.02-0.78-0.04-1.12-0.04h-0.58v3.71
		c0,0.41,0.01,0.78,0.04,1.12h-0.72c0.02-0.38,0.04-0.76,0.04-1.12V24.1c-0.36,0.67-0.9,1.44-1.62,2.3
		c-0.12-0.17-0.31-0.33-0.58-0.5c0.53-0.5,0.99-1.09,1.38-1.75c0.4-0.66,0.62-1.13,0.67-1.42h-0.65c-0.53,0-0.91,0.01-1.15,0.04
		v-0.65c0.26,0.02,0.65,0.04,1.15,0.04h0.79v-1.51c-0.31,0.05-0.8,0.11-1.47,0.18c-0.05-0.24-0.12-0.46-0.22-0.65
		c0.46-0.02,1.03-0.08,1.73-0.18c0.7-0.1,1.28-0.24,1.76-0.43c0.05,0.26,0.16,0.53,0.32,0.79
		C186.43,20.36,185.93,20.42,185.17,20.54z M185.27,23.75c0.14-0.1,0.32-0.24,0.54-0.43c0.46,0.5,0.84,1.02,1.15,1.55
		c-0.24,0.14-0.44,0.3-0.61,0.47C186.04,24.73,185.68,24.2,185.27,23.75z M190.35,22.05v3.71c0,0.43,0.01,0.78,0.04,1.04h-0.72
		v-0.86h-1.73v0.94h-0.68c0.02-0.55,0.04-0.89,0.04-1.01v-3.81c0-0.41-0.01-0.85-0.04-1.33h3.13
		C190.36,21.2,190.35,21.65,190.35,22.05z M189.67,25.36v-4.03h-1.73v4.03H189.67z"/>
	<path d="M199.42,21.62v3.85c0,0.74,0.01,1.48,0.04,2.2h-0.72v-0.5h-5.97v0.54h-0.72c0.02-0.74,0.04-1.51,0.04-2.3v-3.78
		c0-0.72-0.01-1.39-0.04-2.01h7.41C199.43,20.21,199.42,20.88,199.42,21.62z M198.73,26.62v-6.48h-5.97v6.48H198.73z M196.86,21.12
		c0.36,0,0.74-0.01,1.15-0.04v0.65c-0.36-0.02-0.74-0.04-1.15-0.04h-0.9v1.19h0.65c0.43,0,0.84-0.01,1.22-0.04v0.65
		c-0.38-0.02-0.79-0.04-1.22-0.04h-0.65v1.62h1.01c0.43,0,0.84-0.01,1.22-0.04v0.65c-0.36-0.02-0.77-0.04-1.22-0.04h-2.45
		c-0.41,0-0.82,0.01-1.22,0.04v-0.65c0.41,0.02,0.82,0.04,1.22,0.04h0.79v-1.62h-0.5c-0.41,0-0.79,0.01-1.15,0.04v-0.65
		c0.36,0.02,0.74,0.04,1.15,0.04h0.5v-1.19h-0.54c-0.43,0-0.85,0.01-1.26,0.04v-0.65c0.41,0.02,0.83,0.04,1.26,0.04H196.86z
		 M197.69,24.46c-0.24,0.14-0.44,0.28-0.61,0.4c-0.07-0.1-0.28-0.35-0.61-0.76c0.19-0.14,0.36-0.28,0.5-0.4
		C197.09,23.83,197.33,24.08,197.69,24.46z"/>
	<path d="M200.68,21.91c0.36-0.36,0.67-0.76,0.94-1.19c0.26-0.43,0.48-0.88,0.65-1.33c0.34,0.19,0.6,0.32,0.79,0.4
		c-0.31,0.43-0.52,0.74-0.61,0.94c0.6,0,1.1-0.01,1.51-0.04v0.68c-0.41-0.02-1.03-0.04-1.87-0.04c-0.36,0.48-0.64,0.82-0.83,1.01
		C201.08,22.15,200.89,22.01,200.68,21.91z M203.74,22.88c-0.31-0.02-0.62-0.04-0.94-0.04v1.08c0.41,0,0.84-0.01,1.29-0.04v0.65
		c-0.46-0.02-0.89-0.04-1.29-0.04v1.66c0.22-0.14,0.48-0.38,0.79-0.72c0.07,0.22,0.19,0.43,0.36,0.65
		c-0.24,0.17-0.49,0.35-0.76,0.56c-0.26,0.2-0.54,0.46-0.83,0.77c-0.12-0.22-0.28-0.41-0.47-0.58c0.14-0.14,0.23-0.36,0.25-0.65
		V24.5c-0.29,0-0.64,0.01-1.04,0.04v-0.65c0.41,0.02,0.75,0.04,1.04,0.04v-1.08c-0.29,0-0.53,0.01-0.72,0.04v-0.65
		c0.31,0.02,0.67,0.04,1.08,0.04c0.43,0,0.84-0.01,1.22-0.04V22.88z M205.82,21.3c-0.22,0.1-0.43,0.22-0.65,0.36
		c-0.17-0.38-0.44-0.85-0.83-1.4c0.24-0.1,0.44-0.22,0.61-0.36C205.34,20.49,205.63,20.96,205.82,21.3z M206.36,20.54
		c0-0.36-0.01-0.74-0.04-1.15h0.72c-0.02,0.26-0.04,0.65-0.04,1.15v1.58h1.73c-0.02,0.36-0.04,0.84-0.04,1.44v3.13
		c0,0.34-0.11,0.54-0.34,0.61c-0.23,0.07-0.53,0.14-0.92,0.22c-0.05-0.24-0.16-0.48-0.32-0.72c0.55-0.02,0.84-0.09,0.86-0.2
		c0.02-0.11,0.04-0.45,0.04-1.03h-2.52v1.83h-0.68c0.02-0.5,0.04-0.91,0.04-1.22v-2.55c0-0.6-0.01-1.1-0.04-1.51h1.55V20.54z
		 M208.02,23.6v-0.94h-2.52v0.94H208.02z M208.02,25.04v-0.9h-2.52v0.9H208.02z M208.2,21.69c-0.22-0.12-0.44-0.22-0.68-0.29
		c0.26-0.31,0.53-0.82,0.79-1.51c0.19,0.12,0.44,0.23,0.76,0.32C208.87,20.46,208.58,20.95,208.2,21.69z"/>
	<path d="M212.37,20.4h4.28c0.41,0,0.82-0.01,1.22-0.04v0.58c-0.41-0.02-0.82-0.04-1.22-0.04H215v0.61h1.26
		c0.41,0,0.79-0.01,1.15-0.04v0.65c-0.34-0.05-0.71-0.07-1.12-0.07H215v0.61h2.45v0.61c-0.34-0.02-0.71-0.04-1.12-0.04H215v0.68
		h1.51c0.48,0,1-0.01,1.55-0.04v0.65c-0.53-0.05-1.04-0.07-1.55-0.07h-4.35v0.32h-0.75c0.02-0.58,0.04-1.55,0.04-2.92
		c-0.31,0.53-0.6,0.92-0.86,1.19c-0.17-0.22-0.34-0.37-0.5-0.47c0.26-0.31,0.5-0.62,0.7-0.92c0.2-0.3,0.43-0.64,0.67-1.01
		c0.24-0.37,0.44-0.85,0.61-1.42c0.31,0.17,0.6,0.31,0.86,0.43C212.79,19.77,212.61,20.01,212.37,20.4z M217.23,26.37
		c0,0.5,0.01,0.95,0.04,1.33h-0.76v-0.4h-4.46v0.43h-0.76c0.05-0.41,0.07-0.86,0.07-1.37s-0.02-0.94-0.07-1.3h5.97
		C217.24,25.44,217.23,25.87,217.23,26.37z M216.51,26.73v-1.08h-4.46v1.08H216.51z M214.28,21.51V20.9h-2.12v0.61H214.28z
		 M214.28,22.67v-0.61h-2.12v0.61H214.28z M214.28,23.92v-0.68h-2.12v0.68H214.28z M215.25,20.04c-0.14,0.05-0.36,0.13-0.65,0.25
		c-0.07-0.19-0.23-0.47-0.47-0.83c0.22-0.07,0.42-0.17,0.61-0.29C214.99,19.56,215.16,19.85,215.25,20.04z"/>
	<path d="M221.3,21.08h1.62c-0.02,0.41-0.04,0.92-0.04,1.55v3.17c0,0.36,0.01,0.88,0.04,1.55h-0.72v-0.72h-1.84v0.79h-0.72
		c0.02-0.77,0.04-1.25,0.04-1.44v-3.31c0-0.65-0.01-1.17-0.04-1.58h1.04c0.12-0.55,0.22-1.13,0.29-1.73
		c0.33,0.12,0.61,0.2,0.83,0.25C221.68,19.82,221.51,20.31,221.3,21.08z M222.2,23.49v-1.8h-1.84v1.8H222.2z M222.2,26.01V24.1
		h-1.84v1.91H222.2z M226.98,26.52c-0.05,0.43-0.28,0.72-0.68,0.86c-0.41,0.14-0.86,0.24-1.37,0.29c-0.02-0.26-0.13-0.54-0.32-0.83
		c0.48,0.02,0.86,0.01,1.13-0.04s0.45-0.16,0.52-0.32c0.07-0.17,0.13-0.66,0.16-1.48c0.04-0.82,0.07-1.96,0.09-3.42h-2.09
		c-0.19,0.46-0.47,1-0.83,1.62c-0.17-0.17-0.37-0.3-0.61-0.4c0.22-0.29,0.42-0.63,0.61-1.04c0.19-0.41,0.36-0.85,0.5-1.33
		c0.14-0.48,0.23-0.85,0.25-1.12c0.33,0.14,0.62,0.25,0.86,0.32c-0.12,0.19-0.22,0.4-0.31,0.63c-0.08,0.23-0.17,0.45-0.27,0.67h2.56
		c-0.02,0.5-0.04,0.97-0.04,1.4C227.14,23.8,227.08,25.2,226.98,26.52z M225.04,23.82c0.14,0.29,0.31,0.66,0.5,1.12
		c-0.17,0.07-0.4,0.19-0.68,0.36c-0.17-0.46-0.32-0.85-0.47-1.17c-0.14-0.32-0.29-0.59-0.43-0.81c0.17-0.1,0.38-0.22,0.65-0.36
		L225.04,23.82z"/>
	<path d="M236.38,27.36c-0.14,0.16-0.38,0.23-0.72,0.23h-2.81c-0.65,0.02-0.98-0.3-1.01-0.97v-1.26h-2.09v0.68h-0.83
		c0.02-0.24,0.04-1.07,0.04-2.48c0-1.42-0.01-2.34-0.04-2.77h2.92c0-0.65-0.01-1.15-0.04-1.51h0.79c-0.02,0.31-0.04,0.82-0.04,1.51
		h2.92c-0.02,0.36-0.04,1.1-0.04,2.23c0,1.1,0.01,1.88,0.04,2.34h-2.92v0.97c0,0.43,0.23,0.65,0.68,0.65h1.91
		c0.38,0,0.61-0.08,0.68-0.25c0.07-0.17,0.13-0.43,0.18-0.79c0.24,0.17,0.52,0.29,0.83,0.36C236.68,26.85,236.52,27.21,236.38,27.36
		z M231.84,22.74v-1.33h-2.09v1.33H231.84z M231.84,24.75v-1.44h-2.09v1.44H231.84z M234.72,22.74v-1.33h-2.16v1.33H234.72z
		 M234.72,24.75v-1.44h-2.16v1.44H234.72z"/>
	<path d="M241.23,26.68c0.14-0.06,0.22-0.21,0.22-0.45V23.6h-2.56c-0.34,0-0.73,0.01-1.19,0.04v-0.65c0.46,0.02,0.85,0.04,1.19,0.04
		h2.56c0-0.38-0.01-0.82-0.04-1.3c0.33-0.14,0.68-0.32,1.03-0.54s0.75-0.47,1.21-0.76h-3.67c-0.5,0-0.95,0.01-1.33,0.04v-0.65
		c0.5,0.02,0.92,0.04,1.26,0.04h5.07v0.65c-0.36,0.14-0.76,0.34-1.19,0.58c-0.43,0.24-0.97,0.58-1.62,1.01v0.94h2.41
		c0.41,0,0.86-0.02,1.37-0.07v0.65c-0.5-0.02-0.96-0.02-1.37,0h-2.41v2.88c0,0.48-0.14,0.77-0.41,0.86
		c-0.28,0.09-0.69,0.17-1.24,0.22c-0.05-0.26-0.16-0.54-0.32-0.83C240.74,26.76,241.09,26.74,241.23,26.68z"/>
	<path d="M248.79,21.05v4.93c0,0.72,0.01,1.28,0.04,1.69h-0.79c0.07-0.43,0.11-1.01,0.11-1.73v-3.63c-0.29,0.58-0.56,1.06-0.83,1.44
		c-0.14-0.24-0.32-0.43-0.54-0.58c0.26-0.29,0.59-0.8,0.97-1.53c0.38-0.73,0.67-1.51,0.86-2.32c0.26,0.1,0.55,0.19,0.86,0.29
		C249.33,19.75,249.1,20.23,248.79,21.05z M255.16,21.15c-0.48-0.02-1.43-0.04-2.84-0.04c-1.42,0-2.38,0.01-2.88,0.04v-0.61h5.72
		V21.15z M254.62,22.45c-0.41-0.02-1.15-0.04-2.23-0.04c-1.08,0-1.88,0.01-2.41,0.04v-0.61c0.46,0.02,1.24,0.04,2.34,0.04
		c1.13,0,1.89-0.01,2.3-0.04V22.45z M254.62,23.71c-0.34-0.02-1.07-0.04-2.2-0.04c-1.1,0-1.92,0.01-2.45,0.04V23.1
		c0.5,0.02,1.32,0.04,2.45,0.04c1.15,0,1.88-0.01,2.2-0.04V23.71z M254.51,25.94c0,0.65,0.01,1.14,0.04,1.48h-0.68V26.8h-3.09v0.76
		h-0.72c0.02-0.36,0.04-0.86,0.04-1.51c0-0.67-0.01-1.19-0.04-1.55h4.5C254.53,24.79,254.51,25.27,254.51,25.94z M253.87,26.23V25
		h-3.09v1.22H253.87z M252.43,19.75c0.07,0.17,0.14,0.35,0.22,0.54c-0.22,0.07-0.43,0.13-0.65,0.18c-0.17-0.5-0.31-0.82-0.43-0.94
		c0.24-0.1,0.46-0.18,0.65-0.25C252.28,19.43,252.35,19.58,252.43,19.75z"/>
	<path d="M256.78,27.09c-0.22-0.1-0.46-0.18-0.72-0.25c0.29-0.41,0.53-1.01,0.72-1.8c0.19,0.07,0.42,0.13,0.68,0.18
		C257.18,26.11,256.95,26.73,256.78,27.09z M259.62,20.25h3.63c-0.02,0.48-0.04,1.13-0.04,1.94c0,0.79,0.01,1.46,0.04,2.02h-5.97
		c0.02-0.55,0.04-1.22,0.04-2.02c0-0.82-0.01-1.46-0.04-1.94h1.69c0.07-0.19,0.14-0.54,0.22-1.04c0.26,0.07,0.56,0.14,0.9,0.22
		C259.85,19.79,259.7,20.06,259.62,20.25z M262.54,21.41v-0.65H258v0.65H262.54z M262.54,22.56v-0.65H258v0.65H262.54z
		 M262.54,23.71v-0.65H258v0.65H262.54z M258.98,26.23c0,0.29,0.03,0.46,0.09,0.52c0.06,0.06,0.25,0.09,0.56,0.09h1.8
		c0.17,0,0.28-0.04,0.34-0.11c0.06-0.07,0.1-0.32,0.13-0.76c0.19,0.12,0.44,0.22,0.76,0.29c-0.12,0.48-0.23,0.78-0.32,0.9
		c-0.1,0.12-0.31,0.19-0.65,0.22h-2.66c-0.38-0.02-0.61-0.13-0.67-0.31c-0.06-0.18-0.08-0.44-0.07-0.77s0.01-0.83-0.02-1.48h0.76
		C258.99,25.47,258.98,25.94,258.98,26.23z M261.1,25.69c-0.17,0.07-0.38,0.19-0.65,0.36c-0.17-0.41-0.37-0.77-0.61-1.08
		c0.22-0.12,0.42-0.24,0.61-0.36C260.71,24.99,260.93,25.35,261.1,25.69z M264.45,26.3c-0.24,0.17-0.44,0.34-0.61,0.5
		c-0.46-0.7-0.88-1.24-1.26-1.62c0.19-0.12,0.38-0.28,0.58-0.47C263.56,25.24,263.99,25.77,264.45,26.3z"/>
	<path d="M271.7,22.07c-0.16,0.28-0.29,0.53-0.41,0.77h1.12c0.5,0,0.84-0.01,1.01-0.04v0.72c-0.19-0.02-0.5-0.04-0.94-0.04h-5.43
		c0,1.9-0.46,3.29-1.37,4.17c-0.1-0.19-0.28-0.37-0.54-0.54c0.62-0.7,0.98-1.42,1.08-2.18s0.12-1.46,0.07-2.11h4.25
		c0.31-0.65,0.54-1.25,0.68-1.8c0.31,0.14,0.61,0.28,0.9,0.4C271.99,21.59,271.85,21.8,271.7,22.07z M270.17,20.33h1.8
		c0.43,0,0.84-0.01,1.22-0.04v0.68c-0.38-0.02-0.76-0.04-1.12-0.04h-4.35c-0.36,0-0.82,0.01-1.37,0.04v-0.68
		c0.58,0.02,0.95,0.04,1.12,0.04h1.87c-0.07-0.31-0.17-0.64-0.29-0.97c0.29-0.07,0.56-0.13,0.83-0.18
		C269.93,19.34,270.02,19.73,270.17,20.33z M269.09,22.41c-0.24,0.1-0.49,0.22-0.76,0.36c-0.22-0.5-0.47-0.94-0.76-1.3
		c0.24-0.14,0.47-0.28,0.68-0.4C268.55,21.47,268.82,21.91,269.09,22.41z"/>
	<path d="M277.51,27.34v-0.58h-1.94v0.61h-0.68c0.02-0.41,0.04-1.05,0.04-1.94c0-0.91-0.01-1.57-0.04-1.98h3.31
		c-0.05,0.41-0.07,0.98-0.07,1.73c0,0.72,0.02,1.44,0.07,2.16H277.51z M277.51,26.12V24.1h-1.94v2.02H277.51z M281.07,21.23
		c0,0.53,0.01,1,0.04,1.4h-4.93c0.05-0.41,0.07-0.89,0.07-1.44c0-0.55-0.02-1.03-0.07-1.44h4.93
		C281.08,20.18,281.07,20.67,281.07,21.23z M280.42,22.02v-1.66h-3.53v1.66H280.42z M282.44,25.44c0,0.86,0.01,1.47,0.04,1.83h-0.68
		v-0.5h-2.05v0.61h-0.68c0.02-0.41,0.04-1.05,0.04-1.94s-0.01-1.55-0.04-1.98h3.42C282.45,23.89,282.44,24.55,282.44,25.44z
		 M281.79,26.12V24.1h-2.05v2.02H281.79z"/>
	<path d="M286.54,25.36c0.1,0.26,0.11,0.52,0.04,0.77s-0.2,0.44-0.4,0.58c-0.19,0.13-0.42,0.2-0.68,0.2c-0.26,0-0.5-0.11-0.72-0.32
		c-0.22-0.22-0.32-0.45-0.32-0.7s0.06-0.47,0.18-0.67c0.12-0.19,0.31-0.33,0.56-0.43c0.25-0.1,0.52-0.09,0.79,0.02
		C286.26,24.91,286.45,25.1,286.54,25.36z M285.89,26.37c0.22-0.14,0.32-0.34,0.31-0.59c-0.01-0.25-0.13-0.44-0.36-0.56
		c-0.23-0.12-0.44-0.11-0.65,0.04c-0.2,0.14-0.31,0.34-0.31,0.58c0,0.24,0.11,0.43,0.34,0.56
		C285.46,26.52,285.68,26.52,285.89,26.37z"/>
</g>
<g>
	<path d="M73.21,34.6c0-0.38-0.01-0.76-0.04-1.12h0.72c-0.02,0.34-0.04,0.71-0.04,1.12v0.86c0.38,0,0.79-0.01,1.22-0.04v0.68
		c-0.43-0.02-0.84-0.04-1.22-0.04v1.22c0.17-0.12,0.34-0.25,0.5-0.4c0.31,0.5,0.59,1,0.83,1.48c-0.26,0.12-0.49,0.25-0.68,0.4
		c-0.14-0.48-0.36-0.92-0.65-1.33v2.81c0,0.5,0.01,1.01,0.04,1.51h-0.72c0.02-0.53,0.04-1.03,0.04-1.51v-2.34
		c-0.24,0.67-0.61,1.32-1.12,1.94c-0.14-0.19-0.32-0.37-0.54-0.54c0.41-0.41,0.74-0.92,0.99-1.53c0.25-0.61,0.41-1.18,0.49-1.71
		c-0.46,0-0.85,0.02-1.19,0.07v-0.72c0.46,0.02,0.91,0.04,1.37,0.04V34.6z M76.02,39.53c-0.26,0.62-0.47,1.07-0.61,1.33
		c-0.22-0.12-0.46-0.23-0.72-0.32c0.31-0.48,0.55-0.92,0.7-1.31c0.16-0.4,0.28-0.79,0.38-1.17c0.26,0.12,0.53,0.23,0.79,0.32
		C76.46,38.53,76.28,38.91,76.02,39.53z M78.83,36.44c0.48,0,0.9-0.01,1.26-0.04v0.68c-0.36-0.02-0.73-0.04-1.12-0.04h-1.12v3.63
		c0,0.38-0.11,0.64-0.32,0.76s-0.6,0.22-1.15,0.29c-0.05-0.29-0.14-0.56-0.29-0.83c0.48,0,0.78-0.02,0.9-0.05s0.18-0.17,0.18-0.41
		v-3.38h-0.9c-0.6,0-1.03,0.02-1.29,0.07V36.4c0.31,0.02,0.74,0.04,1.29,0.04H78.83z M78.43,34.06c0.5,0,0.91-0.01,1.22-0.04v0.72
		c-0.46-0.05-0.94-0.07-1.44-0.07h-1.76c-0.38,0-0.76,0.02-1.12,0.07v-0.72c0.34,0.02,0.71,0.04,1.12,0.04H78.43z M80.3,40.22
		c-0.26,0.12-0.53,0.26-0.79,0.43c-0.26-0.7-0.66-1.43-1.19-2.2c0.24-0.12,0.46-0.26,0.65-0.43C79.5,38.84,79.94,39.57,80.3,40.22z"
		/>
	<path d="M82.96,36.11c-0.02,0.43-0.04,0.94-0.04,1.51v2.09c0.24-0.24,0.5-0.54,0.79-0.9c0.1,0.24,0.23,0.49,0.4,0.76
		c-0.36,0.34-0.67,0.65-0.92,0.94s-0.51,0.6-0.77,0.94c-0.17-0.26-0.37-0.48-0.61-0.65c0.26-0.22,0.4-0.46,0.4-0.72v-3.35
		c-0.53,0-0.95,0.01-1.26,0.04v-0.68c0.29,0.02,0.61,0.04,0.97,0.04H82.96z M83.54,34.75c-0.22,0.14-0.42,0.32-0.61,0.54
		c-0.46-0.7-0.82-1.19-1.08-1.47c0.19-0.12,0.38-0.28,0.58-0.47C82.98,33.97,83.35,34.44,83.54,34.75z M85.12,40.5
		c-0.34,0.46-0.71,0.91-1.12,1.37c-0.12-0.14-0.31-0.31-0.58-0.5c0.94-0.98,1.55-1.8,1.84-2.45c0.24,0.17,0.48,0.32,0.72,0.47
		C85.75,39.68,85.46,40.05,85.12,40.5z M88.58,36.15c0,0.98,0.01,1.69,0.04,2.12h-4.28c0.02-0.41,0.04-1.12,0.04-2.12
		s-0.01-1.75-0.04-2.23h4.28C88.59,34.4,88.58,35.14,88.58,36.15z M87.82,37.66V34.6h-2.7v3.06H87.82z M89.41,41.15
		c-0.26,0.19-0.49,0.38-0.68,0.58c-0.48-0.72-1.07-1.49-1.76-2.3c0.19-0.12,0.38-0.3,0.58-0.54C88.45,39.92,89.07,40.67,89.41,41.15
		z"/>
	<path d="M92.5,33.96c0.24,0,0.52-0.01,0.83-0.04v0.65c-0.31-0.02-0.59-0.04-0.83-0.04h-0.25v1.73c0.34,0,0.71-0.01,1.12-0.04v0.65
		c-0.43-0.02-0.8-0.04-1.12-0.04v2.05c0.22-0.05,0.58-0.19,1.08-0.43c0,0.19,0.01,0.42,0.04,0.68c-0.72,0.26-1.27,0.46-1.64,0.58
		c-0.37,0.12-0.77,0.28-1.21,0.47c-0.1-0.24-0.22-0.49-0.36-0.76c0.17,0,0.65-0.11,1.44-0.32v-2.27c-0.41,0-0.79,0.02-1.15,0.07
		v-0.68c0.36,0.02,0.74,0.04,1.15,0.04v-1.73h-0.32c-0.31,0-0.62,0.01-0.94,0.04v-0.65c0.31,0.02,0.61,0.04,0.9,0.04H92.5z
		 M97.25,33.96c0.36,0,0.77-0.01,1.22-0.04v0.68c-0.41-0.02-0.82-0.04-1.22-0.04h-0.68c-0.22,0.77-0.36,1.3-0.43,1.58v4.39
		c0,0.48,0.01,0.91,0.04,1.29h-0.76c0.02-0.36,0.04-0.79,0.04-1.29v-2.88c-0.5,0.98-1.12,1.81-1.84,2.48
		c-0.14-0.14-0.36-0.3-0.65-0.47c0.34-0.24,0.65-0.54,0.95-0.92c0.3-0.37,0.59-0.81,0.88-1.31c0.29-0.5,0.5-0.97,0.63-1.4
		c0.13-0.43,0.26-0.92,0.38-1.48H94.8c-0.38,0-0.78,0.01-1.19,0.04v-0.68c0.41,0.02,0.8,0.04,1.19,0.04H97.25z M98.69,38.89
		c-0.24,0.14-0.47,0.29-0.68,0.43c-0.36-0.65-0.64-1.13-0.85-1.44s-0.45-0.65-0.74-1.01c0.22-0.12,0.41-0.26,0.58-0.43
		C97.74,37.45,98.31,38.26,98.69,38.89z"/>
	<path d="M101.68,34.5c-0.14,0.31-0.26,0.6-0.36,0.86V40c0,0.77,0.01,1.36,0.04,1.76h-0.72c0.02-0.38,0.04-0.96,0.04-1.73v-3.42
		c-0.34,0.58-0.64,1.03-0.9,1.37c-0.12-0.22-0.28-0.4-0.47-0.54c0.5-0.6,0.93-1.28,1.28-2.03c0.35-0.75,0.58-1.42,0.7-2
		c0.19,0.14,0.46,0.26,0.79,0.36C101.95,33.94,101.82,34.18,101.68,34.5z M106.79,35.25c0,0.55,0.01,0.98,0.04,1.29h-1.73v1.15h1.08
		c0.65,0,1.15-0.01,1.51-0.04v0.68c-0.41-0.02-0.89-0.04-1.44-0.04h-0.61c0.22,0.48,0.52,0.91,0.9,1.28
		c0.38,0.37,0.84,0.65,1.37,0.85c-0.19,0.17-0.37,0.4-0.54,0.68c-0.58-0.31-1.05-0.71-1.42-1.19c-0.37-0.48-0.65-0.96-0.85-1.44
		v1.98c0,0.55,0.01,0.98,0.04,1.3h-0.76c0.02-0.34,0.04-0.74,0.04-1.22v-2.2c-0.58,1.15-1.31,2.1-2.2,2.84
		c-0.14-0.22-0.36-0.38-0.65-0.5c0.84-0.46,1.54-1.25,2.09-2.38h-0.5c-0.5,0-0.92,0.01-1.26,0.04v-0.68
		c0.34,0.02,0.73,0.04,1.19,0.04h1.33v-1.15h-1.66c0.02-0.33,0.04-0.79,0.04-1.37c0-0.6-0.01-1.04-0.04-1.33h4.07
		C106.8,34.21,106.79,34.67,106.79,35.25z M106.14,35.97v-1.55h-2.7v1.55H106.14z"/>
	<path d="M110.42,35.11v4.97c0,0.53,0.01,1.09,0.04,1.69h-0.72c0.02-0.58,0.04-1.12,0.04-1.62v-3.81c-0.34,0.7-0.56,1.15-0.68,1.37
		c-0.12-0.22-0.3-0.4-0.54-0.54c0.26-0.36,0.58-0.93,0.95-1.71c0.37-0.78,0.59-1.44,0.67-2l0.83,0.32
		C110.88,33.92,110.69,34.36,110.42,35.11z M113.55,34.64c0-0.53-0.01-0.95-0.04-1.26c0.31,0.05,0.59,0.08,0.83,0.11
		c-0.07,0.24-0.11,0.62-0.11,1.15h1.15c0.53,0,1.01-0.01,1.44-0.04v0.65c-0.46-0.02-0.94-0.04-1.44-0.04h-1.15v0.79h2.2
		c-0.02,0.34-0.04,0.7-0.04,1.08c0,0.36,0.01,0.73,0.04,1.12h-2.23c-0.05,0.77-0.18,1.39-0.4,1.87c0.67,0.6,1.74,0.91,3.2,0.94
		c-0.17,0.12-0.3,0.35-0.4,0.68c-1.27-0.05-2.35-0.41-3.24-1.08c-0.55,0.58-1.22,1.01-2.01,1.3c-0.02-0.17-0.19-0.35-0.5-0.54
		c0.91-0.26,1.58-0.65,2.01-1.15c-0.41-0.41-0.84-0.89-1.29-1.44c0.14-0.07,0.31-0.2,0.5-0.4c0.38,0.53,0.78,0.95,1.19,1.26
		c0.14-0.41,0.23-0.89,0.25-1.44h-2.12c0.02-0.38,0.04-0.77,0.04-1.15s-0.01-0.73-0.04-1.04h2.16v-0.79h-1.19
		c-0.5,0-0.94,0.01-1.3,0.04V34.6c0.34,0.02,0.76,0.04,1.26,0.04H113.55z M113.55,37.63v-1.08h-1.44v1.08H113.55z M115.71,37.63
		v-1.08h-1.48v1.08H115.71z"/>
	<path d="M118.61,40.07c0.16-0.46,0.25-0.91,0.29-1.37c0.04-0.46,0.05-1.22,0.05-2.3c0-1.08-0.01-1.94-0.04-2.59h6.44
		c-0.02,0.7-0.04,1.32-0.04,1.87v4.71c0,0.5-0.14,0.82-0.43,0.94s-0.62,0.2-1.01,0.25c-0.05-0.36-0.13-0.64-0.25-0.83
		c0.48,0.02,0.76,0.01,0.85-0.05c0.08-0.06,0.13-0.17,0.13-0.34v-1.8h-2.19v1.4c0,0.53,0.01,1.01,0.04,1.44h-0.79
		c0.02-0.41,0.04-0.88,0.04-1.4v-1.44h-2.05c-0.1,1.03-0.42,2.08-0.97,3.13c-0.26-0.17-0.5-0.28-0.72-0.32
		C118.23,40.96,118.45,40.53,118.61,40.07z M121.69,35.93v-1.55h-2.05v1.55H121.69z M121.69,37.99v-1.51h-2.05v1.51H121.69z
		 M124.6,35.93v-1.55h-2.19v1.55H124.6z M124.6,37.99v-1.51h-2.19v1.51H124.6z"/>
	<path d="M128.33,40.52c-0.25,0.35-0.5,0.65-0.74,0.92c-0.24-0.17-0.44-0.3-0.61-0.4c0.22-0.17,0.44-0.4,0.68-0.7
		c0.24-0.3,0.43-0.59,0.58-0.88l0.72,0.43C128.79,39.96,128.58,40.17,128.33,40.52z M127.98,33.56h0.76
		c-0.02,0.48-0.04,0.88-0.04,1.19h1.62c0-0.46-0.01-0.85-0.04-1.19h0.79c-0.02,0.41-0.04,0.8-0.04,1.19c0.17,0,0.38-0.01,0.65-0.04
		v0.61c-0.24-0.02-0.46-0.04-0.65-0.04v3.42c0.19,0,0.41-0.01,0.65-0.04v0.61c-0.46-0.02-0.9-0.04-1.33-0.04h-1.94
		c-0.53,0-0.98,0.01-1.37,0.04v-0.61c0.36,0.02,0.68,0.04,0.97,0.04v-3.42c-0.22,0-0.47,0.01-0.76,0.04v-0.61
		c0.26,0.02,0.52,0.04,0.76,0.04C128.02,34.39,128.01,33.99,127.98,33.56z M130.32,36.08v-0.79h-1.62v0.79H130.32z M130.32,37.37
		v-0.76h-1.62v0.76H130.32z M130.32,38.71v-0.79h-1.62v0.79H130.32z M129.85,39.89c0.14-0.1,0.3-0.24,0.47-0.43
		c0.29,0.29,0.62,0.65,1.01,1.08c-0.19,0.14-0.38,0.31-0.58,0.5C130.37,40.47,130.07,40.08,129.85,39.89z M134.46,40.68v-2.02h-1.58
		c-0.05,0.58-0.18,1.13-0.4,1.66c-0.22,0.53-0.53,1.02-0.94,1.47c-0.17-0.22-0.4-0.37-0.68-0.47c0.41-0.41,0.71-0.84,0.92-1.29
		c0.2-0.46,0.32-0.91,0.36-1.37c0.04-0.46,0.05-1.2,0.05-2.23c0-1.06-0.01-1.9-0.04-2.52h3.06c-0.02,0.46-0.04,1.01-0.04,1.66v5.29
		c0,0.34-0.11,0.56-0.32,0.68s-0.5,0.2-0.86,0.25c0-0.26-0.1-0.54-0.29-0.83C134.26,41.04,134.51,40.95,134.46,40.68z M134.46,36.08
		v-1.62h-1.55v1.62H134.46z M134.46,38.13v-1.51h-1.55v1.51H134.46z"/>
	<path d="M138.56,36.69c0.48,0.58,0.75,1.1,0.83,1.58c0.07,0.48-0.03,0.88-0.31,1.19c-0.28,0.31-0.62,0.53-1.03,0.65
		c-0.02-0.31-0.13-0.59-0.32-0.83c0.43,0,0.71-0.08,0.83-0.25c0.12-0.17,0.17-0.44,0.14-0.81c-0.02-0.37-0.31-0.87-0.86-1.49
		c0.38-1.08,0.62-1.86,0.72-2.34h-1.08v7.27h-0.68c0.02-0.67,0.04-1.33,0.04-1.98v-4.21c0-0.43-0.01-0.98-0.04-1.66h2.66
		C139.03,35.23,138.73,36.19,138.56,36.69z M143.82,35.61c0,0.74,0.01,1.33,0.04,1.76h-1.69c0,0.46,0.12,0.94,0.36,1.44
		c0.62-0.41,1.03-0.78,1.22-1.12c0.19,0.29,0.37,0.5,0.54,0.65c-0.43,0.22-0.96,0.53-1.58,0.94c0.26,0.36,0.54,0.67,0.83,0.94
		c0.29,0.26,0.71,0.49,1.26,0.68c-0.29,0.14-0.5,0.37-0.65,0.68c-0.58-0.36-1.03-0.72-1.35-1.1c-0.32-0.37-0.59-0.8-0.79-1.29
		c-0.2-0.49-0.34-1.1-0.41-1.82h-0.83v3.27c0.38-0.19,0.73-0.42,1.04-0.68c0.02,0.22,0.07,0.47,0.14,0.76
		c-0.22,0.12-0.5,0.28-0.85,0.47c-0.35,0.19-0.64,0.38-0.88,0.58c-0.1-0.19-0.23-0.41-0.4-0.65c0.14-0.14,0.24-0.36,0.29-0.65v-5.07
		c0-0.48-0.01-1.01-0.04-1.58h3.78C143.83,34.24,143.82,34.84,143.82,35.61z M143.17,35.29v-0.9h-2.41v0.9H143.17z M143.17,36.8
		v-0.97h-2.41v0.97H143.17z"/>
	<path d="M147.6,35.25h1.62c-0.02,0.41-0.04,0.92-0.04,1.55v3.17c0,0.36,0.01,0.88,0.04,1.55h-0.72v-0.72h-1.83v0.79h-0.72
		c0.02-0.77,0.04-1.25,0.04-1.44v-3.31c0-0.65-0.01-1.17-0.04-1.58h1.04c0.12-0.55,0.22-1.13,0.29-1.73
		c0.34,0.12,0.61,0.2,0.83,0.25C147.98,33.99,147.81,34.48,147.6,35.25z M148.5,37.66v-1.8h-1.83v1.8H148.5z M148.5,40.18v-1.91
		h-1.83v1.91H148.5z M153.28,40.68c-0.05,0.43-0.28,0.72-0.68,0.86c-0.41,0.14-0.86,0.24-1.37,0.29c-0.02-0.26-0.13-0.54-0.32-0.83
		c0.48,0.02,0.86,0.01,1.13-0.04c0.28-0.05,0.45-0.16,0.52-0.32c0.07-0.17,0.13-0.66,0.16-1.48c0.04-0.82,0.07-1.96,0.09-3.42h-2.09
		c-0.19,0.46-0.47,1-0.83,1.62c-0.17-0.17-0.37-0.3-0.61-0.4c0.22-0.29,0.42-0.63,0.61-1.04s0.36-0.85,0.5-1.33
		c0.14-0.48,0.23-0.85,0.25-1.12c0.34,0.14,0.62,0.25,0.86,0.32c-0.12,0.19-0.22,0.4-0.31,0.63c-0.08,0.23-0.17,0.45-0.27,0.67h2.55
		c-0.02,0.5-0.04,0.97-0.04,1.4C153.44,37.97,153.38,39.37,153.28,40.68z M151.34,37.99c0.14,0.29,0.31,0.66,0.5,1.12
		c-0.17,0.07-0.4,0.19-0.68,0.36c-0.17-0.46-0.32-0.85-0.47-1.17c-0.14-0.32-0.29-0.59-0.43-0.81c0.17-0.1,0.38-0.22,0.65-0.36
		L151.34,37.99z"/>
	<path d="M156.27,34.89c0.46-0.72,0.71-1.24,0.76-1.55c0.36,0.14,0.7,0.25,1.01,0.32c-0.22,0.22-0.46,0.56-0.72,1.04h3.63
		c0.53,0,1.07-0.01,1.62-0.04v0.61c-0.5-0.02-1.04-0.04-1.62-0.04h-1.19v1.48c0.91,0,1.71-0.01,2.41-0.04v0.61
		c-0.72-0.02-1.52-0.04-2.41-0.04v1.69h1.83c0.53,0,1.02-0.01,1.48-0.04v0.61c-0.43-0.02-0.92-0.04-1.48-0.04h-1.83v0.83
		c0,0.55,0.01,1.05,0.04,1.51H159c0.02-0.46,0.04-0.94,0.04-1.44v-0.9h-2.45c-0.67,0-1.31,0.01-1.91,0.04v-0.61
		c0.58,0.02,1.14,0.04,1.69,0.04c0-0.94-0.01-1.68-0.04-2.23h2.7v-1.48h-2.05c-0.5,0.77-0.96,1.39-1.37,1.87
		c-0.26-0.22-0.54-0.35-0.83-0.4C155.32,36.22,155.81,35.61,156.27,34.89z M159.04,38.96v-1.69h-1.98v1.69H159.04z"/>
	<path d="M166.02,33.6h0.72c-0.02,0.5-0.04,1.06-0.04,1.66c0.82,0,1.39-0.01,1.73-0.04v0.65c-0.34-0.02-0.91-0.04-1.73-0.04
		c0,0.7,0.01,1.24,0.04,1.62h-0.72c0.02-0.34,0.04-0.76,0.04-1.26c-0.12,0.19-0.35,0.44-0.68,0.74c-0.34,0.3-0.65,0.53-0.94,0.7
		c-0.12-0.22-0.3-0.37-0.54-0.47c0.22-0.07,0.5-0.24,0.86-0.5c0.36-0.26,0.63-0.54,0.83-0.83c-0.48,0-0.94,0.01-1.37,0.04v-0.65
		c0.41,0.02,1.02,0.04,1.83,0.04C166.06,34.67,166.04,34.12,166.02,33.6z M166.2,38.17h1.98c-0.14,0.6-0.4,1.2-0.76,1.8
		c0.38,0.14,0.68,0.28,0.9,0.4c-0.12,0.17-0.23,0.35-0.32,0.54c-0.22-0.14-0.54-0.29-0.97-0.43c-0.48,0.53-1.31,1-2.48,1.4
		c-0.12-0.26-0.28-0.44-0.47-0.54c1.13-0.26,1.9-0.62,2.3-1.08c-0.67-0.17-1.22-0.31-1.66-0.43c0.14-0.22,0.33-0.58,0.58-1.08
		c-0.24,0-0.64,0.01-1.19,0.04v-0.65c0.46,0.02,0.92,0.04,1.4,0.04c0.1-0.22,0.17-0.46,0.22-0.72c0.26,0.1,0.53,0.18,0.79,0.25
		C166.43,37.79,166.32,37.95,166.2,38.17z M165.66,34.75l-0.54,0.32c-0.17-0.33-0.42-0.65-0.76-0.94c0.22-0.14,0.37-0.28,0.47-0.4
		C165.17,34.08,165.45,34.41,165.66,34.75z M166.78,39.79c0.19-0.24,0.37-0.59,0.54-1.04h-1.33c-0.12,0.24-0.25,0.49-0.4,0.76
		C165.88,39.57,166.27,39.67,166.78,39.79z M168.11,37.01c-0.14,0.12-0.3,0.26-0.47,0.43c-0.34-0.41-0.61-0.73-0.83-0.97
		c0.14-0.12,0.28-0.25,0.4-0.4C167.52,36.39,167.82,36.7,168.11,37.01z M168,34.53c-0.07,0.17-0.17,0.37-0.29,0.61
		c-0.19-0.1-0.38-0.17-0.58-0.22c0.19-0.31,0.37-0.71,0.54-1.19c0.24,0.12,0.44,0.2,0.61,0.25C168.17,34.18,168.07,34.36,168,34.53z
		 M169.84,34.33c-0.07,0.2-0.18,0.57-0.32,1.1h1.66c0.24,0,0.53-0.01,0.86-0.04v0.65c-0.26-0.02-0.47-0.04-0.61-0.04
		c0,0.38-0.07,0.99-0.2,1.82c-0.13,0.83-0.37,1.54-0.7,2.14c0.24,0.29,0.51,0.55,0.81,0.77c0.3,0.23,0.58,0.39,0.85,0.49
		c-0.29,0.22-0.48,0.42-0.58,0.61c-0.29-0.17-0.55-0.36-0.79-0.58c-0.24-0.22-0.48-0.48-0.72-0.79c-0.26,0.29-0.55,0.53-0.85,0.74
		s-0.68,0.43-1.13,0.67c-0.12-0.22-0.29-0.38-0.5-0.5c0.36-0.14,0.74-0.35,1.15-0.61c0.41-0.26,0.72-0.53,0.94-0.79
		c-0.17-0.34-0.33-0.7-0.49-1.08c-0.16-0.38-0.29-0.89-0.41-1.51c-0.07,0.19-0.19,0.44-0.36,0.76c-0.17-0.1-0.37-0.19-0.61-0.29
		c0.38-0.67,0.7-1.4,0.94-2.2c0.24-0.79,0.4-1.48,0.47-2.05c0.29,0.12,0.55,0.2,0.79,0.25C169.97,33.97,169.91,34.13,169.84,34.33z
		 M170.12,39.32c0.24-0.55,0.4-1.11,0.49-1.67c0.08-0.56,0.14-1.11,0.16-1.64h-1.4l-0.14,0.36
		C169.44,37.78,169.74,38.77,170.12,39.32z"/>
	<path d="M175.99,39.53c0.1,0.26,0.11,0.52,0.04,0.77c-0.07,0.25-0.2,0.44-0.4,0.58c-0.19,0.13-0.42,0.2-0.68,0.2
		c-0.26,0-0.5-0.11-0.72-0.32s-0.32-0.45-0.32-0.7s0.06-0.47,0.18-0.67c0.12-0.19,0.31-0.33,0.56-0.43c0.25-0.1,0.52-0.09,0.79,0.02
		C175.71,39.08,175.89,39.27,175.99,39.53z M175.34,40.54c0.22-0.14,0.32-0.34,0.31-0.59c-0.01-0.25-0.13-0.44-0.36-0.56
		c-0.23-0.12-0.44-0.11-0.65,0.04c-0.2,0.14-0.31,0.34-0.31,0.58c0,0.24,0.11,0.43,0.34,0.56C174.9,40.69,175.13,40.68,175.34,40.54
		z"/>
</g>
<rect class="st1" width="291" height="61"/>
</svg>
