<?xml version="1.0" encoding="UTF-8"?><svg id="_レイヤー_1" xmlns="http://www.w3.org/2000/svg" xmlns:xlink="http://www.w3.org/1999/xlink" viewBox="0 0 266.3 111.3"><defs><style>.cls-1{fill:#9e9d9e;isolation:isolate;opacity:.7;}.cls-2{stroke:#9e9d9e;stroke-miterlimit:4;stroke-width:3px;}.cls-2,.cls-3,.cls-4,.cls-5{fill:none;}.cls-3{stroke-width:.22px;}.cls-3,.cls-5{stroke:#040000;stroke-linecap:round;stroke-linejoin:round;}.cls-6{clip-path:url(#clippath);}.cls-5{stroke-width:.43px;}</style><clipPath id="clippath"><rect class="cls-4" y="18.8" width="266.3" height="92.5"/></clipPath></defs><g class="cls-6"><g><path class="cls-3" d="m138.6,371.7h-.3m-10.3,0h-.3m1.2-1.3v.3m8.4,0v-.3m-36.1,1.3h-.3m1.2-1.3v.3m9.7,1h-.3m-1-1v-.3m45.2,0v.3m-1,1h-.3m10.9,0h-.3m-1-1v-.3m-52.6,4.5h-.8m17.8,0h-.4m10.3,0h-.5m17.8,0h-.8m-53-.8h-.6m10.3,0h-.8m18,0h-.7m10.3,0h-.8m18.1,0h-.8m10.3,0h-.5m-53,3.2h-.8m44.8,0h-.8m2.6-6.6v2.9m6.1,0l-.6-1-.3-1.1-.1-.8m1.4.1h0l-.1.9.1.7m.7,1.7h0l-.3-.3-.1-.1-.2-.1h-.5m-6.1.1h6.1m4,3.6l-1-.8-.9-.7-1.2-1.2-.9-1m-7.3,1.1v-3.9m12,6.7l-.1-.1-.2-.1-.2-.1h-.2m-10-3.5l-.1,2.5v1l.1.6.2.5.3.3.3.3.5.3.6.2.7.2.7.1.8.1.9.1.8-.1.9-.1.8-.1.7-.2.6-.2.5-.2.4-.3.3-.3.1-.3v-.3l-.1-.3-.3-.3m-11.2-2.5l.1-.2.1-.2.1-.2.1-.1.2-.1.2-.1.2-.1h.3m-1,5.6h0l-.3-1.2-.1-.5v-.5l.1-2.5m13.1,4.3l-.1.3-.1.4-.4.3-.5.3-.6.3-.9.3-.9.2-1,.1-1,.1h-1.1l-1-.1-1-.1-1-.1-.9-.3-.7-.2-.6-.3-.5-.3-.3-.3-.1-.1m-47.4-5.8v-2.9m-5.1,0l-.1.8-.3,1.1-.6,1m-.3-1.1l.1-.8-.1-.9m.3,2.8h-.4l-.2.1-.2.1-.1.2-.1.1m.9-.5l-.5.6-.6.7-1.2,1.1-1.5,1.2m3.8-3.6h6.2m1.3-2.9v3.9m-.3,4.7h0l-.2.3-.4.4-.5.3-.7.3-.8.2-1,.2-1,.1-1,.1h-1.1l-1-.1-1-.1-1-.2-.8-.2-.8-.3-.7-.3-.4-.3-.3-.3-.1-.3v-.1m13.1-4.3v3.3l-.1.6-.3.8m-1-5.8h.2l.2.1.2.1.2.1.2.1.1.2.1.2.1.2m-11.3,2.7l-.1.1-.2.3-.1.3.1.3.2.3.3.3.5.2.6.3.7.1.7.1.8.1.8.1.9-.1h.8l.8-.1.7-.1.7-.2.5-.2.5-.3.3-.3.1-.3.2-.7.1-.5v-.6l-.1-1.4v-1.3m-9.8,3.6h-.2l-.2.1-.2.1-.1.1m32.3-6.9l-.1.9-.5,2m6.4,0l-.3-1.2-.2-1.2v-.5m-6.6,1.2l.1-1.2m-.6,3.8h0l.1-.2.1-.2.1-.1.2-.1.2-.1.2-.1h.3m0-.1h6.4m-6.4,0l-.5,1.3-.5,1.2-.7,1.2m8.8-6.5l.1,1.2m.5,2.5h0l-.1-.2-.1-.2-.1-.1-.2-.1-.2-.1-.2-.1h-.2m-8.3,3.6l-.2.5-.1.7.1.3.3.3.3.3.5.3.6.2.7.2.8.1.8.1h1.7l.9-.1.8-.1.7-.2.7-.2.5-.2.5-.3.3-.3.2-.3v-.4l-.1-.4-.1-.4-.2-.4-.4-.7-.6-1.4-.5-1.2m-9.3,4.2h0l.1-.3.1-.1.2-.1.2-.1h.4m11.4,2.4h0l-.3.5-.3.3-.5.3-.7.3-.8.3-1,.2-1,.1-1.1.1h-1l-1.1-.1-1-.1-.9-.1-.8-.2-.7-.3-.6-.3-.5-.3-.2-.3-.1-.3m12.6-.7l.1.5m-28.1,1.1h-.9m45,0h-.9m-7.3,4.6h0m-10.3.5h0m10.3-.5h.2m1.6,3.3h0l.1-.1.1-.1m0-1.8h0l-.2.1m-.5-.8h.1l.1.1.1.1.1.1m-13.1,2.7h0l.1.1m0,0v.2m1-3.4h-.3l-.1.1h-.1m-.6,1.3v-.2m.1,2v-1.8m0,1.8h0l.1.1h.3m.2-2.6h-.2l-.1.1-.1.1-.1.1-.1.1v.3m.3.1h-.1l-.1-.1h-.1v-.1m12.8,2h0l.2-.1.1-.1v-.1l.1-.1v-.1m-.1,0v-1.9m-.5,2l.1-.1.3-.1m-.4,1.2h0m.5-3h0l-.1-.2v-.1l-.1-.1-.1-.1-.1-.1-.1-.1-.1-.1m.6.8l-.3.1-.3.1-.2.1-.1.1m.4.7h0l-.1.1m-.2-.7h0l-.3-.1m-11.5,2.5h0l-.1-.1v-.1l-.1-.1v-.1m0-1.9v1.8m0,0l.5.1.4.1.3.1.3.1.2.1.1.1m-1.8-2.4v-.1l.1-.1v-.2l.1-.1.1-.1v-.1h.1m1.5,1.4h0l-.1-.2-.2-.1-.3-.1-.3-.1-.4-.1-.5-.1m1.8,2.8h0l.1.1.1.1h.1m0-2h-.1l-.1-.1h-.1m.1-.4h0l.2-.1.1-.1h.1l.1-.1m9.5,2.7h0l.2-.1v-.1l.1-.1v-.1m-2.4,1.1h0l.1-.1.1-.1v-.3m-.6,0h.5l.1-.1m-4.9-6.6l-.3.1-.5.1-.5.1-.3.1-.3.2-.1.1-.1.1.1.2.1.1.3.1.4.1.5.1.6.1m-.1.1h.5l.6.1h.7l.6-.1.5-.1.5-.1.5-.1.3-.1.3-.1.1-.2.1-.1-.1-.1-.1-.2-.3-.1-.4-.1-.5-.1-.5-.1h-.2m2.9,1.3l-.1.2-.2.1-.2.1-.4.2-.5.1-.5.2-.6.1-.6.1h-2l-.6-.1m-.1,0l-.6-.1-.5-.1-.5-.1-.4-.1-.2-.2-.1-.1-.1-.1m10,4.4v-1.8m-2.2.6v1.8m0,0h.4l.3-.1.3-.1.3-.1.3-.1.2-.1.3-.1.2-.1m-2.3-1.2h-.6m-7,2.3h0l-.1-.1-.1-.1-.1-.1v-.2m10.1-2.3v-.1l-.1-.1v-.1l-.1-.1-.1-.1-.1-.1h-.1l-.1-.1m-1.6,1.2v-.4l-.1-.1-.1-.1-.1-.1h-.1l-.1-.1m2.7.3l-.2.1-.3.1-.2.1-.3.1-.3.1-.3.1-.3.1-.4.1m-4.9,2.3h0l-.1-.5m-2.8-2.2v1.9m0,0l.3.1.3.1h.4l.3.1.3.1h.4l.3.1h.4m.1-.2v-1.8m0,1.8h.5l.1-.1h0m-3.4-2.1v-.2l.1-.1.1-.1.1-.1.1-.1.1-.1.1-.1m2.2,1.2l-.4-.1h-.3l-.4-.1h-.3l-.3-.1-.4-.1-.3-.1-.3-.1m3.3.5h-.2l-.1.1h-.3m0,0v-.5l.1-.1v-.1l.1-.1m4.5,3h0l-.1-.1v-.1l-.1-.1v-.2m-4.2.7h0l.1-.1.1-.1.1-.1v-.1l.1-.1v-.1m3.8-.1v-1.9m-3.9.2v1.8m0,0l.4-.1.4-.1.5-.1.5-.1h1l.5.1.5.1m.1-1.8v-.2l.1-.1v-.2l.1-.1.1-.1.1-.1m-4.3,1v-.1l-.1-.1v-.1l-.1-.1-.1-.1-.1-.1h-.1l-.1-.1m4.5.5l-.5-.1h-1.6l-.5.1h-.5l-.4.1-.4.1m-4.9-2.9l-.1.1-.1.1-.1.1v.1l-.1.1v.3m0,0l.5.1.6.1.4.1.3.1.3.1.1.2.1.1-.1.1m.1.1l.3.1.3.1.3.1h.3l.3.1h.3l.4.1h.3m0-.1l.5-.1.5-.1.6-.1.6-.1h1.3l.6.1.5.1m.1,0l.3-.1.3-.1.3-.1h.2l.3-.1.2-.1.2-.1.2-.1m-.1.1l-.3-.1-.2-.1-.1-.2.1-.1.1-.1.2-.2.3-.1.4-.1m.2-.2h0l-.2-.1-.1-.1-.1-.1-.2-.1-.2-.1-.2-.1-.2-.1m-.1.1h-.5m-8.2.2l-.5.1-.5.1h-.6M-55.4,177h.1m0,0v.1m-.1,13.2h.1m0,0v.1m-43,204.2v-196.7m5,198.7v15m11.2-15v15m0,.2l.1-.2m-11.2.2v-.2m-.3-15l.3-.3m11.4.3l-.3-.3m-11.1.4v-.4m11.1.4l-.1-.4m-12.4-1.4v.8m10.6-234.2h0v-.5m0-2.1v-.3m434.3,2.4v.5m0-2.9h0v.4m6.5,254.9h0v-.6m-3.7.6h0v-.6m0,0h3.7m-3.7,0h-.3l-.2-.1h-.1l-.1-.1h-.1l-.1-.1h0m.9-1.1l.1,1.4m3.6,0l.1-1.4m.9,1.1h0l-.1.1h-.1l-.1.1h-.1l-.1.1h-.4m-443.7.6h0v-.6m-3.8.6h0v-.6m4.7-.3h0l-.1.1h-.1l-.1.1h-.2l-.1.1h-.3m-3.8,0h-.3l-.1-.1h-.2l-.1-.1h-.1v-.1l-.1-.1m.8-1l.1,1.4m0,0h3.8m0,0l.1-1.4m445.7-179.1h-9.8m-432,0h-9.8m457.2,161.8v-196.7m-5,198.7v15m-11.2-15v15m.1.2l-.1-.2m11.1.2l.1-.2m-11.5-15l.3-.3m11.4.3l-.3-.3m.1.4l-.1-.4m-11.1.4l.1-.4m12.4-1.4v.8M-84.1,162.7v-.7m434.4,0h0v.7m.8,29.2H-84.9m436.1,1H-84.9m436.1,21.7H-84.9m436.1-18.4H-84.9m436.1-.2H-84.9m436.1-3.1H-84.9m0-42.2h-10.7m10.7,31h-10.7m10.7-7.2h-10.7m-3.7,23h0m3.5.2h0m-.3,0h0m-3.2-90.6v90.4m3.2-90.4v90.6m-3.2-.2l.1.1m3.1.1l.1.2m.2-.2l-.1.2m11.7-39.4v-1.1m0,4.5v-.3m0-4.3v.1m-.2.1h-.5m0,.8h.5m434.8-.9v-.1m0,4.2v.3m0-4.4v1.1m.8-1h-.5m0,.9h.5m-.5-8.9h.5m-436.1,0h.5m434.8,4.5h0m0-.1h0m.5-1.3h0v2.9m-435-1.8h0m0,.8h0m-.5,1.1v-2.9m.2,8.9h-.3m435.7,0h-.4m15,35.9h0m-3.6.2h0m.2,0h0m3.4-90.6v90.4m-3.4-90.4v90.6m3.3-.1l-.1.1m-3.2.1l-.1.2m-.1-.2l.1.2m-417-12.3h395.2m-400.2-2.4h-20.9m0,0v-7.2m0,0h20.9m0,0v7.2m-23.7,1.2h0m26.5,0h0m.1-9.7h0m-26.8,0h0m27.7,9.8l.1-10.2m.3,0v10.6m-.3,6.9l-.1-6.1m0,0h0l.3-.1m.1-.7h0v.7m-.4-1.1h.1l.1.1h.1v.1l.1.1v.1m-.4-.4h-28.6m28.6,1.2h-28.6m28.6,0v-1.2m407.1-19.5H-84.7m36.5,9.1h-36.5m49.9,0h-9.8m19,0h-5.5m18.8,0h-9.8m18.6,0h-5.1m13.7,0H0m18.5,0h-9.8m18.9,0h-5.5m18.9,0h-9.8m18.5,0h-5.1m13.7,0h-5m18.4,0h-9.7m18.9,0h-5.6m18.9,0h-9.7m18.5,0h-5.1m13.7,0h-5m18.5,0h-9.8m18.9,0h-5.5m18.9,0h-9.8m18.4,0h-5.1m13.8,0h-5m18.4,0h-9.8m18.9,0h-5.4m18.8,0h-9.8m18.5,0h-5.1m13.7,0h-5m18.5,0h-9.8m18.9,0h-5.5m18.8,0h-9.7m18.5,0h-5.1m13.8,0h-5m18.4,0h-9.9m18.9,0h-5.5m18.8,0h-9.8m18.5,0h-5m13.8,0h-5.1m31.5,0h-22.9m22.8-2H-84.7m435.7,0H-84.7m435.7-6.5H-84.7m429.7,15.3l-.1-1.2m2.3,1.2l.1-1.2m-2.4,0v2.9m0-2.9h0m2.5,0h0m0,3v-2.9m-2.5,2.9h0m2.5,0h0m.1-.1h0m-2.6,0h0m0,0h0m2.6,0h0m-2.6,0v-2.9m2.6,0h0m-2.6,0h0m2.6,0v2.9m-6-8.1v10m-.3.3v-9.9m.3,10.7l-.1,6.1m.1-7.2h-.1v.1h-.1l-.1.1v.1m-.1.8h0l.1-.7m.3.7h-.3l-.1-.1m9.9-.9h-9.6m.1,0v1.1m9.5,0h-9.6m5.3-4.8h0l-.2-.1-.2-.1h-.5l-.2.1h-.1v.1m1.3,0h0m-.1.2v-.2m-1.2,0v.3m-.1-.3h0m0,0l-.1.1m.1.1v-.2m1.4,0l.1.1m-.1-.1v.3m.1.1v-.3m0,.1h0m-1.6-.1v.3m0-.2h0m0,.2h0m1.6,0h0m-1.6,0h0m1.6,0h0m-.1-.2h0m-.1,0h0m-1.2,0h0m-.1,0h0m1.3,0h-1.2m0,0h0m0,0h0m1.3,0h0m-.1,0h0m.2.2h0m0,0l-.1-.1m0-.1h0m-1.4,0h0m0,0l-.1.1m0,.1h0m1.6,0h0m0,0h0m-1.6,0h0m.1,0h0m1.5.1h0m-1.5-.1h0m1.4-.2h0m-.1.1h-1.2m1.2-.1h0m-1.2,0h1.2m-1.2,0h0m0,0h0m1.3,0h0m.1.2l-.1-.1m.1.1h0m-.1-.2l.1.1m-1.4,0h0m-.2.1l.1-.1m0,.1h0m.1-.1l-.1.1m-.1.6v-.4m0-.2h0m0,.2v-.4m1.6.4v.4m0-.8v.4m0-.2h0m0,.5v-.4m-1.6,0v.4m1.5-.5v.3m-1.4.1v-.3m1.3.3v-.4m-1.2,0v.4m0,0h0m1.2,0h0m-1.2,0h0l.1.1h.9l.2-.1v-.1m-1.4.2h0m1.6,0h0m-1.6,0l.1-.1m-.1.1h0l.2.1.3.1h.6l.3-.1.2-.1.1-.1m-.1.1l-.1-.1m0,0h0l-.2.1h-1l-.1-.1-.1-.1m1.5.3l.1,1m-1.8-1l-.1,1m-416.5,34.8h0m27.7,0h0m-18.5-2.8h0m-3.9-.1v.1m0,.5v-.5m3.9.5v-.5m.6,0l-.2-.1m-4.8,0l-.2.1m-5.6,2h0l-.1-.1h-.1v-.1l-.1-.1v-.1m29,1h.2l.2-.1.1-.1.1-.1.1-.1.1-.1.1-.1h0m-29.6-2.2v2.2m0,0h0l.1.2.1.1.1.1.1.1.1.1.2.1h.2m.1-.1h27.7m1-.6v-2.2m.3,1.9h0l-.1.1v.1h-.1l-.1.1h-.1m383.1-40.5h.8m9.5-31.3H-84.4m435,7H-84.4m435.1-4H-84.3m1.8,14.1h431.4m-432.2-2.8h432.8m0,.1H-83.3m432.2,2.7h0m-432-.2h432.4m-431.9.2h0m-.7-9.1h432.8m0,0H-83.3m.2,1h432.6m-.6.3H-82.6m449.5-52.3H-100.5m467.4,4.6H-100.5m467.4-4.2H-100.5m-.1-.4l-.1.1m467.7,0l-.1-.1m.1.3l-.1.1m.1,4.1l-.1.1m-467.5-4.2l-.1-.1m.1,4.3l-.1-.1m462.2,2.2H-95.2m445.3,34H-83.8m445.3-32.7H-95.2m456.7-.2H-95.2m211,19.9h0m2.4,0h0m-5.6,0h0m2,0h0m3.6,0h0m-5.5,0h0m1.9,0h0m1.2,0h0m2.2,0h0m-5.1-.1h0m3.1,0h0m-1.6-2.7h0m.1-.1h0m1.6-1.4h0m1.9-.7h0m-5.4,0h0m2,0h0m1.3,0h0m20.5,3.3h0m-2.7,0h0m.1-.1h0m.5-1.8h0m2.1,1.9h0m-2.8-.1h0m2.7.1h0m1-2.4h0m-1.8-.3h0m-2.9.1h0m2.9-.2h0m1.5-.5h0m-4.2,0h0m5.8,0h0m-7.9,0h0m3.1,0h0m2,0h0m15.7,5.1h0m2.2,0h0m-2.2,0h0m2.2,0h0m-2.2-5.1h0m2.2,0h0m-10.4,5.1h0m1.7,0h0m-1.8,0h0m4.2,0h0m-6,0h0m3.7,0h0m-2.1-.1h0m.4-1.8h0m1.3,0h0m-1.4,0h0m-1.3,1.2h0m5,.4h0m-3.3-4.7h0m.1-.1h0m1,0h0m.1.1h0m-21.3,5h0m1.7,0h0m-1.8,0h0m4.2,0h0m-6,0h0m3.7,0h0m-2.1-.1h0m.4-1.8h0m1.3,0h0m-1.3,0h0m-1.3,1.2h0m4.9.4h0m-2.1-4.8h0m.1.1h0m-1.2.1h0m0-.2h0m-13.5-29.3h0m45,0h0m20.5,0h0m-86,0h0m63.6.1h0m-65.5,0h0m89.8,0h0m-65.5,0h0m52.4-.7h94.8m-154.6,0h56m-154.5,0h94.9m-94.9,1.3h253.1M6.6,100.9h253.1M6.6,96.6h253.1m-104-.9v-.1m-45,.1v-.1m65.5.1v-.1m-86,.1v-.1m22.4.3v-.2m41.2.2v-.2m24.3.2v-.2m-89.8.2v-.2m171.6-.5l-.1-.1m-253.2-.1l-.1.1m.1,1.2l-.1.1m253.3,0l-.1-.1m.1.3h-.1m.1,4.3h-.1m-253.3,0h.1m-.1-4.3h.1m87.8-.9h0v.1m.9.1h-.9m0,0v.2m0-.2h-4.3m0-.2h0v.1m0,.1v.2m0-.2h-.4l-.1.1h-.5m6.3-.3h0l-.1.2m12.3.2h-.9m-3.8-.1h-4.4l-1-.1h-2.2m0,0v.1m12.3.1h0m-18.5-.1h0m-.2-.2h0l.1.1.1.1h0m0,0h0l-.1.1m18.8,0v-.2m-3.7.2h3.8m-19-.3h0l-.1.1h-.1l.1.1m5.6-.3h-4.3m17.6.2h-1.3m-17.8-.1h0l-.1.1v.1m23.9,0h0v-.1h-.1l-.1-.1m-9.8-.1h-12.3m20.6,0h-4.5m-11-6.7h0m0-.1h0m0,.1h0m0,0h0m.3.3l-.2-.1m0,0h0l.1.1m-.3,0v-.1l.1-.1m.1.1h0l-.1-.1v-.1m.1.2l.1.1h.1m-.3-.3l.1-.1.1-.1h.1l.1.1m-.4.1h0l.1.1v.1m0,.3h0m.5-.6v.1m0,0l3.9,2.4,3.8,2.5,3.1,2.2m-10.9-7h0m76.4,6.6h0v.1m-.9.1h0l.9-.1m0,.1v.2m0-.2h4.2m0-.2h0v.1m0,.1v.2m0-.2h.4l.2.1h.5l.1.1m-6.4-.4h0l.1.1v.1m-12.4.2h1m11.5-.2v.1m-7.6,0h4.3l1.1-.1h2.2m-12.4.2h0m18.6-.1h0m.1-.2h0l-.1.1v.1m0,0h0m-18.8.1v-.2m0,0h1.3m12.1-.2h4.2m1.3.1h0l.1.1v.1m-15.3.1h-3.7m5.4-.4h12.2m-20.6,0h4.6m-6.3.3h0l.1-.1.1-.1m23.6,0h0l.1.1v.1h.1l-.1.1m-6.6-7.1h0m0-.1h0m0,.1h0m0,0h0m-.3.3l.1-.1m0,0h0l-.1.1m.4,0v-.1l-.1-.1m-.2.1h0l.1-.1v-.1l.1-.1m-.2.3h0l-.1.1m.3-.3l-.1-.1-.1-.1h-.1l-.1.1m.4.1h0l-.1.1-.1.1m.1.3h0m-.4-.6v.1m0,0l-4,2.4-3.8,2.5-3.1,2.2m10.8-7h0m-271.3-8.2l-.1.1m468,0l-.2-.1M39.6,35.3v-.1m187.1.1v-.1m-216.7,2v-.1m246.4,0v.1M5.9,41.6v.3m254.4,0v-.3m-254.2-.1l-.1.1m254.3,0l-.1-.1m91,109.2h10.8m-10.8,23.8h10.8m-10.8,7.2h10.8M-24.9,215.1h-.2m0,0v1.4m.2.1v-1.4m.4,1.8v-.1l-.1-.1v-.1h-.1l-.1-.1-.1-.1h-.1m-.1.1h.2m-.6.4v-.2l.1-.1.1-.1.1-.1h.1m-.9,1v1.5m1.5-2h0l-.1.1h-.7l-.1-.1m-.1,1.2v.3m0-.1h0l.1.1h.7l.1-.1.1-.1m-11,.7v1.8m0,0v.2l.1.1v.1l.1.2v.3l.1.1m-3.9-3h0"/><path class="cls-5" d="m127.6,376.8v-5.2m0,11.3v-.3m.4-6.4v-4.6m0,11.3v-.2m0,.2h-.3m10.9-.3v.3m0-11.2v5.3m-.3,5.7v.2m0-11.2v4.6m.3,6.6h-.3m-1-12.2l.2.1.2.1.1.1.1.1.1.2.1.1.1.1v.2m-10.6,0l.1-.2.1-.3.1-.2.1-.2.2-.1.2-.1.3-.1h.2m-1,1.2v-.2l.1-.1.1-.1.1-.2.1-.1.2-.1.2-.1.1-.1m8.4-.3h.3l.2.1.3.1.2.1.1.2.1.2.1.3v.2m-9.7-.9h8.4m-8.4-.3h8.4m-36.1,4.4v-3.1m0,11.1v-.1m-.3-7.6v-3.5m0,11.2v-.1m.3.1h-.3m10.6-11.2v11.2m.4-11.2v11.2m0,0h-.3m-10.7-11.2l.1-.2.1-.3.1-.2.1-.2.2-.1.2-.1.3-.1h.2m-1,1.2v-.2l.1-.1.1-.1.1-.2.1-.1.2-.1.1-.1.2-.1m0,.1h8.4m0-.3h.3l.2.1.3.1.1.1.2.2.1.2.1.3v.2m-1.3-1l.2.1.1.1.2.1.1.1.1.2.1.1.1.1v.2m-9.3-1.3h8.4m44,12.5v-11.2m.2,11.2v-11.2m0,11.2h-.3m11-.2v.1m0-11.1v3.5m-.4,7.5v.1m0-11.1v3.1m.4,8.1h-.3m-9.3-12.1h8.4m-9.4,1l.1-.2v-.1l.1-.1.1-.2.2-.1.1-.1.2-.1.1-.1m-1.1,1v-.2l.1-.3.1-.2.1-.2.2-.1.2-.1.3-.1h.2m0,0h8.4m0,0h.3l.3.1.2.1.2.1.1.2.1.2.1.3v.2m-1.3-1l.2.1.2.1.1.1.1.1.1.2.1.1.1.1v.2m-62.9,1.5h-.9m10.3,0h-.8m18.1,0h-.8m10.3,0h-.8m18.2,0h-.9m10.3,0h-.8m-52.8,3.2h-.8m44.9,0h-.8m9.6-2.9l-.1.3m-.5-1.3h0m.6,1l-.5-2.7m-8.3,2.7l.5-2.7m-.5,9.3v-6.6m.4,8l-.3-.7-.1-.7m13.9,1h0l-.1.4-.5.4-.8.3-1,.3-1.2.2-1.3.1-1.4.1h-1.4l-1.4-.1-1.3-.2-1.1-.2-.9-.3-.6-.3-.4-.3m12.1-3.9h0m-66.1-4.1v.3m0-.3l.5-2.7m8.1,2.7l-.4-2.7m-13.4,10.3h0l.1.4.5.4.7.3,1,.3,1.2.2,1.4.1,1.4.1h1.4l1.4-.1,1.3-.2,1.1-.2.9-.3.7-.3.3-.3m0-.1l.3-.7.1-.7m0,.1v-6.6m-12.5,3.9h0m30.6-4l-.1.9m.2-.6l.3-1.2.1-.7m-.5,1.6l.5-2.7m-2.9,10.4v.5m0,0l.2.4.4.3.6.3.9.2,1,.2,1.2.2,1.2.1h2.5l1.2-.1,1.2-.2,1-.2.8-.2.7-.3.4-.3.2-.4m.1,0v-.5m-2.4-6.8v-.9m0,0l-.5-2.7m.1,1.3v.2l.2,1.2.1.5m-10.7,5.7h0v-.6m12.8.1h0m16.4-8.1h-1m9.8,0h-.9m-34.7,0h-1m9.8,0h-1m-34.6,0h-1m9.7,0h-1m1.3,6.6h-.8m44.8,0h-.8m-43.2-.1h-.8m44.8,0h-.8m-10.7,7h0l-.1.1-.2.1-.3.1-.3.1h-.8l-.3-.1-.3-.1-.2-.1-.1-.1m5.4,1.8h0l-.1.3-.2.1-.3.2-.4.1-.5.1-.6.1-.6.1-.7.1h-.7l-.7-.1h-.7l-.6-.1-.6-.1-.5-.1-.4-.1-.3-.1-.2-.2-.1-.1v-.1M-55.3,177l-.1.4-.3.3m.4-.7l.3-2m-.2,2.1l-.1.4-.3.3-.1.1m.5-.8l.3-1.8m-.4,1.8l.4-2.2m-.4,2.2l-.1.4-.3.3m.4,12.5l-.1.4-.3.3v.1m.4-.8l.4-2.2m-.3,2.4l-.1.4-.3.3-.1.1m.5-.8l.3-1.9m-.4,1.9l.4-2.2m-.4,2.2l-.1.4-.3.3v.1m-42.9,203.2v-196.6m.3,196.7h-.2l-.1-.1m0-196.6v-.1m.3.1h-.1v-.1h-.1m1.9.1h-1.8m2.7,0h-.1m-2.6,0h-.2m0,0v-.1m2.3.1h-2m2.7,0h-.2m2.2,196.7h-4.7m.1.2l-.3-.2m4.9.2h-4.6m-.2-.2h0m0,0h0m-.1-196.7v-.1m0,.1h0m.1,0h0m0,0h.1m1.8,0h-1.8m2.7,0h-.1m2.1,198.6v15m0,0h0l.3.1m11.2,0h.3v-.1m0-15v15m-.3-14.9h.3v-.1m0,.1h0m-.3,0h.1l.1-.1h.1m-11.5.1l1.4.1h1.4l1.4.1h2.8l1.4-.1h1.4l1.4-.1m-11.4,0h0l.3.1m-.3-17.1v16.9m0-16.9h0m-.1,0v16.9m0,0h0l.3.1m0,15l1.4.1,1.4.1h5.6l1.4-.1,1.4-.1m-11.2-15l1.4.1,1.4.1h5.6l1.4-.1,1.4-.1m-.1,15.1l-1.4.1-1.4.1h-5.5l-1.4-.1-1.4-.1m11.4-39v23.8m-11.6-16.9l.3-.3m-.3,17.2v-16.9m.2,17h-.2l-.1-.1m11.7.1h0l-.1.1h-.1m-10.6-17.3h-.6m0,0v16.8m11.1,0v-23.6m-11.1,39l1.4.1h1.4l1.4.1h2.8l1.4-.1h1.4l1.4-.1m0-15l-1.4.1h-1.4l-1.4.1h-2.8l-1.4-.1h-1.4l-1.4-.1m0-.5l1.4.1,1.4.1h5.5l1.4-.1,1.4-.1m-11.4-.5h-1.1m0,0l-.3-.1h-.4l-.2-.1-.2-.1h-.1l-.1-.1-.1-.1m.1-.3v.5m448.2,17.7l-.1-1.1m5.7-.1l-.1,1.2m-443.5-1.1l-.1,1.1m-5.6,0l-.1-1.2m450.6-179v162.9m-9.8-162.9v162.9m9.8,0h-9.8m0-180.1v17.2m9.8-17.2v17.2m-9.5-17.6h1.7m7.7.3h-9.7m0,.1v-.7m0,.6h0m.3-.3l-.3.3m.3-.6v.3m9.4.3h0m.1.1h0m0-.1h0m-451.6,17.3v162.9m9.7-162.9v162.9m0,0h-9.8m.1-180.1v17.2m9.7-17.2v17.2m-9.7-17.2h0m0-.1h0m7.7-.3h1.8m-9.5.3h0m9.7,0h-9.7m9.5-.3v-.3m.2.6l-.3-.3m.3.4h0m0-.7v.7m447.6-17.7v-.1m-.1.1h.1m-1.9,0h1.8m-2.7,0h0m2.9,0v-.1m-4.9,196.8h4.7m-2-196.7h2m-2.7,0h.2m2.5,196.7h.2v-.1m0,0v-196.6m-.2,0h0l.1-.1h.1m-4.9,197.1h4.6m0,0l.3-.2m-.1-.1h0m0,0h0m0-196.7v-.1m0,.1h0m0,0h0m-1.9,0h1.8m-2.7,0h0m2.8,0h-.1m-16.5,198.6v15m.3.1h-.3v-.1h-.1m11.9-15v15m0,0h0l-.3.1m0,0l-1.4.1-1.4.1h-5.6l-1.4-.1-1.4-.1m0-15h-.3v-.1h-.1m11.6.1l-1.4.1-1.4.1h-5.6l-1.4-.1-1.4-.1m11.5-.1h0l-.3.1m.3-17v16.9m-.1-16.9h0m0,0v16.9m0,0h0l-.3.1m.1-.1l-1.4.1h-1.4l-1.4.1h-2.8l-1.4-.1h-1.4l-1.4-.1m0,0h-.2v-.1h-.1m0,.1h0m.4,15.2l1.4.1,1.4.1h5.5l1.4-.1,1.4-.1m.2-32.1l-.3-.3m.3,17.2v-16.8m-11.7-7.1v23.8m0,.1h0l.3.1m11.2,0h.2v-.1h.1m-.9-17.1h.5m-11,16.8v-23.6m11,6.8v16.8m.1,15.4l-1.4.1h-1.4l-1.4.1h-2.8l-1.4-.1h-1.4l-1.4-.1m11.1-15.4l-1.4.1-1.4.1h-5.5l-1.4-.1-1.4-.1m.1.4l1.4.1h1.4l1.4.1h2.8l1.4-.1h1.4l1.4-.1m2.6-1.3h0l-.1.1h-.2l-.1.1-.2.1h-.5l-.3.1m1.3-.9v.5m-1.3.3h-1M-54.9,185.8l-.3-.1-.5-.1m0,1.5h.3l.5-.1h.1m-.7-9.7h-.2m.8,0h-.4m396.5,0h-.8m10.8,0h0m-435.9,0h-.2m0-35.5h0m0,0v8.9m-10.7-7.2v7.2m10.7-8.9h-10.7m10.4,73.7l.3-.2m-10.4.2l-.3-.2m10.4.2h-10.1m10.4-64.8v23.8m-10.7-23.8v23.8m10.7,7.2v33.7m-10.7-33.7v33.7m0-.1h0m0,0h10.7m0,0h0m0-40.8v7.2m-10.7-7.2v7.2m-.5,16h-.4l-.4-.1h-.8l-.4-.1h-.4l-.4-.1h-.4m0,.1h0l-.2-.1m.2,0h-.2v-.1h-.1m0-90.2v90.3m4,.4h0l-.1-.1m0,0h-.3m0-.1h-.8l-.4-.1h-.8l-.4-.1h-.4l-.4-.1m3.6.3h-.1m.2-90.5v36.3m-.2,54.2h-.3m-3.2,0h0m3.6.3l-.3.1m0-.1l-.4-.1h-.8l-.4-.1h-.5l-.4-.1h-.4l-.3-.1m3.2.4h-.1m-3.5-.5h.1l.1.1m0,0h.4l.4.1h.4l.4.1h.8l.4.1h.4m0-.1h.3m0,0h.1v.1m12.4-40.4h-.9m.9-.1h-.9m0,0h-.4l-.1.1h-.1l-.1.1-.1.1m.8-.2h-.2v.1m0,0v.8m0,3.2v-.5m0-2.7v.5m433.9-1.5h.9m-.9.1h.9m0,0h.2v.1h.1m-.3-.2h.4l.1.1h.1l.1.1h.1v.1m-.5-.1v.8m0,2.7v.5m0-2.6h0v-.5m.4-16.5h-.3m-.1.1h.4m0,.2h-.5m.1.1h.5m-.1.2h-.5m.1,0h.5m-.1.2h-.5m.1,0h.5m-.1.3h-.5m.1,0h.5m-.1.2h-.5m.1.1h.5m-.1.1h-.5m.1.1h.5m-.1.2h-.5m.1.1h.5m-.1.2h-.5m.1,0h.5m-.1.3h-.5m.1,0h.5m-.1.2h-.5m.1.1h.5m-.1.2h-.5m.1.1h.5m-.1.2h-.5m.1,0h.5m-.1.2h-.5m.1.1h.5m-.1.2h-.5m.1.1h.5m-.1.2h-.5m.1.1h.5m-.1.2h-.5m.1,0h.5m-.1.2h-.5m.1.1h.5m-.1.2h-.5m.1.1h.5m-.1.2h-.5m.1.1h.5m-.1.2h-.5m.1,0h.5m-.1.2h-.5m.1.1h.5m-.1.2h-.5m.1.1h.5m-.1.2h-.5m.1.1h.5m-436.1-6.3h.3m.1.1h-.4m0,.2h.5m0,0h-.5m0,.2h.5m0,0h-.5m0,.3h.5m0,0h-.5m0,.2h.5m0,.1h-.5m0,.2h.5m0,.1h-.5m0,.2h.5m0,0h-.5m0,.2h.5m0,0h-.5m0,.2h.5m0,.1h-.5m0,.2h.5m0,.1h-.5m0,.2h.5m0,.1h-.5m0,.2h.5m0,0h-.5m0,.2h.5m0,.1h-.5m0,.2h.5m0,.1h-.5m0,.2h.5m0,.1h-.5m0,.2h.5m0,0h-.5m0,.2h.5m0,.1h-.5m0,.2h.5m0,.1h-.5m0,.2h.5m0,.1h-.5m0,.2h.5m0,0h-.5m0,.2h.5m0,.1h-.5m0,.2h.5m0,.1h-.5m0,.2h.5m0,0h-.5m0,.2h.5m-.5.2h.5m434.8,6.2v-.3m0,.5v-.2m0,.2h0m0-.2v.2m0-.4v.2m0-.5h0m0,0h0m0-.2v-.2m0,.4h0v-.2m0,.1h0m0,.3v-.3m0,.3h0m-434.5.3h0m-.1.1h0l.1-.1m-.1-.1v.2m.1-.3h0l-.1.1m.1-.4v.3m-.1-.5v.1l.1.1m-.1-.4v.1m.1.1h0l-.1-.1m.1.1h0m-.3,7.8h0m-.3.1h0m.3,0v1.1m-.3-1.1v1.1m435.7-1.2h0m-.4.1h0m.4,0v1.1m-.4-1.1v1.1m11.7,35h.4l.4-.1h.8l.4-.1h.4l.4-.1h.4m0,.1h0l.2-.1m-.1,0h.1l.1-.1m0-90.2v90.3m-3.7.3h.2m-.4.1h0l.1-.1m.3-.1h.9l.4-.1h.8l.4-.1h.4l.4-.1m-3.7.3h.1m.1,0h.2m-.4-90.5v36.3m3.6,54.2h0m-3.6.3l.3.1m0-.1l.5-.1h.8l.3-.1h.4l.4-.1h.4l.4-.1m-3.2.4h0m3.6-.5h-.1v.1h-.1m-.1,0h-.4l-.4.1h-.4l-.4.1h-.8l-.4.1h-.4m0-.1h-.2m0,0h0m-99.4-25.2v5.1m3.7-5.1v5.1m0-5.1h-3.6m-5.2,0v5.1m-3.6-5.1v5.1m3.6-5.1h-3.6m62,0v5.1m3.6-5.1v5.1m0-5.1h-3.7m-284.7,0v5.1m-3.6-5.1v5.1m3.6-5.1h-3.6m140.9,0v5.1m-3.6-5.1v5.1m3.6-5.1h-3.6m159.7,0v5.1m3.6-5.1v5.1m0-5.1h-3.5m-372.9,0v5.1m3.7-5.1v5.1m0-5.1h-3.6m336.5,0v5.1m-3.6-5.1v5.1m3.6-5.1h-3.6m-49.7,0v5.1m-3.6-5.1v5.1m3.6-5.1h-3.6m-27.2,0v5.1m-3.6-5.1v5.1m3.6-5.1h-3.6m93.1,0v5.1m3.7-5.1v5.1m0-5.1h-3.6m-178.6,0v5.1m-3.7-5.1v5.1m3.7-5.1h-3.6m-103,0v5.1m-3.6-5.1v5.1m3.6-5.1h-3.6m-39.9,0v5.1m3.7-5.1v5.1m0-5.1h-3.6m212.9,0v5.1m3.7-5.1v5.1m0-5.1h-3.6m-125.1,0v5.1m-3.6-5.1v5.1m3.6-5.1h-3.6m-49.6,0v5.1m-3.5-5.1v5.1m3.5-5.1h-3.5m225.2,0v5.1m-3.6-5.1v5.1m3.6-5.1h-3.6m-226.8,0v5.1m-3.6-5.1v5.1m3.6-5.1h-3.6m84,0v5.1m3.6-5.1v5.1m0-5.1h-3.6m34.9,0v5.1m-3.6-5.1v5.1m3.6-5.1h-3.6m141.3,0v5.1m-3.6-5.1v5.1m3.6-5.1h-3.6m-196,0v5.1m-3.7-5.1v5.1m3.6-5.1h-3.6m172,0v5.1m-3.6-5.1v5.1m3.6-5.1h-3.6m97.8,0v5.1m3.6-5.1v5.1m0-5.1h-3.6m-329.3,0v5.1m-3.5-5.1v5.1m3.5-5.1h-3.5m84,0v5.1m3.6-5.1v5.1m0-5.1h-3.7m22.6,0v5.1m3.6-5.1v5.1m0-5.1h-3.6m16.9,0v5.1m-3.6-5.1v5.1m3.6-5.1h-3.6m180.8,0v5.1m-3.6-5.1v5.1m3.6-5.1h-3.6m-84,0v5.1m3.6-5.1v5.1m0-5.1h-3.6m-58.8,0v5.1m-3.6-5.1v5.1m3.6-5.1h-3.6m-106.6,0v5.1m3.7-5.1v5.1m0-5.1h-3.6m141.3,0v5.1m-3.6-5.1v5.1m3.6-5.1h-3.6m-5.1,0v5.1m-3.6-5.1v5.1m3.6-5.1h-3.6m-9.8,0v5.1m-3.6-5.1v5.1m3.6-5.1h-3.6m34.4,9.3v.1m-3.6-.1v.1m150.9-.1v.1m3.7-.1v.1m-31.2-.1v.1m-3.6-.1v.1m-147-.1v.1m-3.6-.1v.1m-5.5-.1v.1m-3.6-.1v.1m26.1-.1v.1m-3.6-.1v.1m115.2-.1v.1m3.6-.1v.1m8.7-.1v.1m-3.7-.1v.1m-36.2-.1v.1m-3.7-.1v.1m62.4-.1v.1m3.6-.1v.1m9.8-.1v.1m3.6-.1v.1m-66.6-.1v.1m-3.6-.1v.1m16.9-.1v.1m-3.6-.1v.1m70.7-.1v.1m3.6-.1v.1m-168.4-.1v.1m-3.6-.1v.1m-164.9-.1v.1m-3.6-.1v.1m56.9-.1v.1m-3.6-.1v.1m39.9-.1v.1m3.6-.1v.1m30.8-.1v.1m-3.7-.1v.1m66.7-.1v.1m3.6-.1v.1m-216.7-.1v.1m3.7-.1v.1m218.4-.1v.1m3.7-.1v.1m-84.4-.1v.1m-3.6-.1v.1m-94.3-.1v.1m-3.6-.1v.1m-53.3-.1v.1m3.7-.1v.1m248.8-.1v.1m-3.6-.1v.1m-102.9-.1v.1m-3.6-.1v.1m-40.9-.1v.1m-3.6-.1v.1m22-.1v.1m3.7-.1v.1m-44.2-.1v.1m-3.6-.1v.1m30.7-.1v.1m3.7-.1v.1m-62-.1v.1m-3.5-.1v.1m216.5-.1v.1m-3.6-.1v.1m-191-.1v.1m3.6-.1v.1m-44.1-.1v.1m-3.6-.1v.1m247.3-.1v.1m-3.6-.1v.1m-80.3-4.3v4.2m-3.7-4.2v4.2m3.7,0h-3.7m3.7-4.2h-3.7m190.6,0v4.2m3.5-4.2v4.2m0,0h-3.5m3.5-4.2h-3.5m-80.4,0v4.2m-3.6-4.2v4.2m3.6,0h-3.6m3.6-4.2h-3.6m16.9,0v4.2m-3.6-4.2v4.2m3.6,0h-3.6m3.6-4.2h-3.6m34.4,0v4.2m-3.6-4.2v4.2m3.6,0h-3.6m3.6-4.2h-3.6m-9.8,0v4.2m-3.6-4.2v4.2m3.6,0h-3.6m3.6-4.2h-3.6m-120.2,0v4.2m-3.7-4.2v4.2m3.7,0h-3.5m3.5-4.2h-3.6m115.2,0v4.2m3.6-4.2v4.2m0,0h-3.6m3.6-4.2h-3.6m44.5,0v4.2m3.6-4.2v4.2m0,0h-3.6m3.6-4.2h-3.6m8.7,0v4.2m3.6-4.2v4.2m0,0h-3.6m3.6-4.2h-3.6m-80.8,0v4.2m-3.6-4.2v4.2m3.6,0h-3.6m3.6-4.2h-3.6m-102.9,0v4.2m-3.6-4.2v4.2m3.6,0h-3.6m3.6-4.2h-3.6m168.8,0v4.2m3.6-4.2v4.2m0,0h-3.6m3.6-4.2h-3.6m-134,0v4.2m-3.6-4.2v4.2m3.6,0h-3.6m3.6-4.2h-3.6m12.3,0v4.2m-3.6-4.2v4.2m3.6,0h-3.6m3.6-4.2h-3.6m-173.6,0v4.2m-3.6-4.2v4.2m3.6,0h-3.6m3.6-4.2h-3.6m-35.9,0v4.2m3.7-4.2v4.2m0,0h-3.6m3.6-4.2h-3.6m252.4,0v4.2m-3.6-4.2v4.2m3.6,0h-3.6m3.6-4.2h-3.6m-156.1,0v4.2m-3.6-4.2v4.2m3.6,0h-3.6m3.6-4.2h-3.6m-9.8,0v4.2m-3.6-4.2v4.2m3.6,0h-3.6m3.6-4.2h-3.6m70.2,0v4.2m-3.6-4.2v4.2m3.6,0h-3.6m3.6-4.2h-3.6m93.1,0v4.2m3.7-4.2v4.2m0,0h-3.6m3.6-4.2h-3.6m34.3,0v4.2m-3.6-4.2v4.2m3.6,0h-3.6m3.6-4.2h-3.6m-252.9,0v4.2m3.7-4.2v4.2m0,0h-3.6m3.6-4.2h-3.6m106.4,0v4.2m3.7-4.2v4.2m0,0h-3.6m3.6-4.2h-3.6m9.1,0v4.2m3.6-4.2v4.2m0,0h-3.6m3.6-4.2h-3.6m-103,0v4.2m-3.6-4.2v4.2m3.6,0h-3.5m3.5-4.2h-3.5m132.1,0v4.2m-3.5-4.2v4.2m3.6,0h-3.6m3.6-4.2h-3.6m-94.2,0v4.2m-3.6-4.2v4.2m3.6,0h-3.7m3.6-4.2h-3.6m48.2,0v4.2m-3.6-4.2v4.2m3.6,0h-3.6m3.6-4.2h-3.6m-49.7,0v4.2m-3.5-4.2v4.2m3.5,0h-3.5m3.5-4.2h-3.5m181.7,0v4.2m3.7-4.2v4.2m0,0h-3.6m3.6-4.2h-3.6m-159.8,0v4.2m3.6-4.2v4.2m0,0h-3.6m3.6-4.2h-3.6m39.8,0v4.2m3.7-4.2v4.2m0,0h-3.7m3.7-4.2h-3.7m57,0v4.2m-3.7-4.2v4.2m3.7,0h-3.6m3.6-4.2h-3.6m101.3,0v4.2m-3.6-4.2v4.2m3.6,0h-3.6m3.6-4.2h-3.6m-264.3-2.6v10.4m395.3-10.4v10.4m-384.9-3.4h-3.6m16.9,0h-3.6m12.7,0h-3.5m16.9,0h-3.6m12.3,0h-3.5m12.2,0h-3.6m17,0h-3.7m12.8,0h-3.6m17,0h-3.6m21,0h-3.7m-5,0h-3.6m25.7,0h-3.6m12.7,0h-3.6m16.9,0h-3.6m12.4,0h-3.6m12.3,0h-3.6m17,0h-3.7m12.7,0h-3.6m17,0h-3.6m12.3,0h-3.6m12.3,0h-3.6m17,0h-3.6m12.6,0h-3.6m17,0h-3.6m12.3,0h-3.6m12.3,0h-3.6m17,0h-3.6m12.7,0h-3.6m17,0h-3.6m12.3,0h-3.6m12.3,0h-3.6m16.9,0h-3.6m12.7,0h-3.6m17,0h-3.6m12.3,0h-3.6m12.3,0h-3.5m-379.6,4v5.8m395.3-5.8v5.8m-395.3-5.9v.1m395.3-.1v.1m-395.3,0h395.2m-395.2-.3v.2m395.3-.2v.2m-395.3,0h395.2m-395.2-.6h0v.3m395.3-.3h0v.3m-395.3-.3h395.2m-422.6-10.8h24.2m0-.2v.2m-24.2-.2v.2m25.5,9.5h0m0-8.1h0m0,8h0m-.3-9.1h-26.5m0,0h-.2v.1h-.2m0,0v9.5m27.2,0v-9.5m0,0h0l-.1-.1h-.2m0,9.7h.3v-.1m0,0h0m-27.2,0h0l.3.1m-.3,0h0m.3,0h26.5m-26.8-9.4h0m27.2.1h0m-27.2-.4v9.6m.2-9.6h-.2m27,0h-26.8m27,0h-.2m.2,9.6v-9.6m-.3,9.7h.3v-.1m-26.8.1h26.5m-26.9-.1h0l.3.1m28-7.5v14.8m0-17.5v2.7m0,8.7l.1,6.1m-29.1-15.3v11.3m0,0v1.8m0,0v1.8m0,.1v.4m.1-6.2l-.1,6.1m.1-7.2v1.2m-.1-11.5l.1,10.2m-.1-8v-2.2m435.7-9.2v-2.4m-435.7,0v2.4m1.1-2.4h-1.1m435.7,0h-1.2m1.2,3v-.7m-435.7,0v.6m435.7,8.8h0v-.1m-435.7-.1v.1m435.7-.1v-2m-435.7,0v2m435.7-2h0m-435.7-.1h0m435.7.1v-6.5m-435.7,0v6.5m29,2.2v.3m397-.1v-.3m-397,.3v.4m383.8,0h13.1m-21.7,0h5.1m-13.8,0h5m-18.4,0h9.8m-18.9,0h5.5m-18.8,0h9.8m-18.5,0h5m-13.7,0h5.1m-18.4,0h9.7m-18.9,0h5.5m-18.9,0h9.8m-18.5,0h5m-13.7,0h5.1m-18.4,0h9.8m-18.9,0h5.5m-18.9,0h9.8m-18.4,0h5m-13.8,0h5.1m-18.5,0h9.8m-18.9,0h5.5m-18.8,0h9.7m-18.4,0h5m-13.8,0h5.2m-18.4,0h9.7m-18.9,0h5.5m-18.9,0h9.8m-18.5,0h5m-13.6,0h5.1m-18.5,0h9.7m-18.9,0h5.5m-18.9,0h9.7m-18.4,0h5.1m-13.8,0H-3.6m-18.5,0h9.8m-18.8,0h5.5m-18.9,0h9.8m-21,0h7.5m389.5-.3v.3m-13.1-.3h13.1m-21.8,0h5.1m-13.8,0h5m-18.4,0h9.8m-18.9,0h5.5m-18.9,0h9.8m-18.4,0h5m-13.8,0h5.1m-18.4,0h9.7m-18.9,0h5.5m-18.9,0h9.8m-18.4,0h5m-13.8,0h5.1m-18.4,0h9.8m-18.9,0h5.5m-18.9,0h9.8m-18.5,0h5m-13.7,0h5.1m-18.5,0h9.8m-19,0h5.5m-18.8,0h9.9m-18.4,0h5m-13.8,0h5.2m-18.4,0h9.7m-18.9,0h5.5m-18.9,0h9.8m-18.5,0h5m-13.6,0h5.1m-18.5,0h9.7m-18.9,0h5.5m-18.9,0h9.7m-18.4-.1h5.1m-13.8,0H-3.6m-18.5,0h9.8m-18.8,0h5.5m-18.9,0h9.8m-21,0h7.5m399.4-11.5h-.2m.1,0v.8m0,.1h-.1m.1,6.6h-.1m.1-6.6v6.6m-436,0h.1m-.1,0v-6.6m0,0h.1m-.1-.8h.1m-.1.8v-.8m433.3,13.9h0l-.1-.1-.1-.1-.3-.1h-.1m-3.4,0h0l-.3.1-.1.1-.1.1m3.5,2.8h0l-.2-.1-.3-.1h-1.5l-.3.1-.2.1v.1m.1,1h0l.3-.1.3-.1h1.1l.3.1.1.1.1.1m-2.2,1.7v-1.8m2.2,0v1.8m.2,0h0m-2.5,0h0m6.2-8.2v10m0-11.2v.4m-3.6,8.9h0l-.3.1-.3.1-.3.1h-.8l-.3-.1-.3-.1-.1-.1-.1-.1m-.1-2.8h0l.2-.1.3-.1h1.5l.3.1.2.1.1.1m0-3.2h0l.4.1.3.1.2.1.1.1-.1.1-.2.1-.3.1-.4.1-.4.1-.5.1h-1l-.5-.1-.4-.1-.4-.1-.3-.1-.1-.1-.1-.1.1-.1.1-.1.3-.1.4-.1h.1m6.3-3.3h-.1m-9.8,4.8v13.7m0-13.7v-3.2m9.9,10.7v6.1m-9.9.1v-6.2m9.9-1v1.1m-4.9-8.9v.1m-.1-.1h.1m-.1.1h0v-.1m.1.1h-.1m.3-.1h.1m-.7,0h0l.7.1.1-.1-.1-.1m-.8.1h0m.9,0h.1l.1.1-.1.1-.2.1h-.7l-.2-.1-.1-.1v-.1h.2m.7,0h.1m.1,0h.1l.1.1-.1.1-.2.1h-.7l-.2-.1-.1-.1v-.1h.2m0,0h0m.1,0h0l-.1.1h.8l.1-.1-.1-.1m-.4,0h.1m0,0v.2m0,0h-.1m0,0h0v-.1m0,.4h.5l.4-.1.3-.1.3-.1.2-.1.1-.1-.1-.1-.2-.1-.3-.1-.3-.1-.4-.1h-1l-.4.1-.4.1-.3.1-.1.1-.1.1.1.1.1.1.3.1.4.1.4.1h.5m2-.3h0l.1.1-.1.1-.1.1h0m-3.7,0h0l-.3-.1v-.1l.1-.1m1.2,4h0m1.7.1h0m-.2-.2h0m-1.3,0h0l.1-.1m-.3.7h0m1.7,0h0m-1.7,1v.4m0-1.4v-.1m0,0v.1m0-.4l-.1,1.4m1.8.4v-.4m0-1.1v.1m0-.4l.1,1.4m-.1-1v-.1m0,0h0m-.2-.1h0m-1.4.1h0m0,0h0m1.4-.1h0m-1.3,0h0m1.3,0h-1.2m1.4.6h0l-.2.1h-1.2l-.1-.1-.1-.1m5.7-7.4v.2m-9.7,0v-.2m0,.2h9.7m0-.2v-.6m-9.7.6h0m0,0h9.7m-.1-.6h0m-417,41.2h3.9m-4.2-.1h0l.1.1h.1m4,0h0l.2-.1h.1l.1-.1m-10.9,2v-1.9m10.5.6h-3.9m0,0l-.1-.1h-.1l-.1-.1h-.1l-.1-.1-.1-.1v-.1l-.1-.1m0,.1v-.1m5.2,0v.1m0,0v.1l-.1.1-.1.1-.1.1h-.1l-.1.1h0l-.1.1m19.8-.7v1.9m-15.4-1.9l.1.2.1.1m3.4,0l.1-.1.1-.2m-2.5.2l-.2.1-.2.2-.1.2.1.2.2.2.3.2.3.1h.3l.3-.1.3-.2.2-.2.1-.2m0,0l-.1-.2-.2-.2-.1-.1m.6.6l-.1.2-.1.3-.3.1-.3.1h-.8l-.3-.1-.3-.1-.2-.2-.1-.2.1-.3.1-.2.3-.1.3-.1h.8l.3.1.3.1.1.2.2.2m-2.3-.8l-.1.1-.3.2-.1.3-.1.3.1.3.1.3.3.2.3.2.4.1.5.1.4-.1.4-.1.3-.2.3-.2.1-.3.1-.3m.1-.1l-.1-.3-.1-.3-.3-.2-.1-.1m5.7.1l.2.1.4-.1m-9.1.7l-.3-.3m4,0h0l-.3.3m.7-.7h0l-.4.5m-3.9-.1h0l-.3-.5m3.9.5h0l.2-.3v-.1m-3.7,0l.1.2.1.2m-.6-.4l.1.1.1.2.1.1m0,0l.1.2.1.1m3.4,0l.1-.1.1-.2m.1,0l.1-.1.1-.2v-.1m402.8,32.3H-82.8m0-.2h432m1.6-101.8v-3.2m-435,0v3.1m435,3v-3m-435,0v3m434.9,4.9h0v-.9m-435,0v.9m435-.9v-4m-435,0v4m1.1,1.9v5.5m432.7-5.5v5.5m-432.8.1h0m432.8-.1h0m-432.8.1v2m432.8-2v2m0,0h0m-.6.7h0l.3-.1.1-.1.1-.1m.1-.4v.3l-.1.1v.1l-.1.1h-.1m.3-.6v.3l-.1.1v.1l-.1.1h-.1m.1-.1h0l-.2.1-.2.1m0,0H-82.6m-.7-.7h0m.7.7h0l-.3-.1-.1-.1-.1-.1m0,.1h0l-.1-.1v-.1l-.1-.1v-.1m.2.4h0l-.1-.1v-.1l-.1-.1v-.1m.2.4h0l.2.1.2.1h.1m-.7-9.3v.1m432.8-.1v.1m-432.8.2h0m432.8-.1h0m-432.8.1v.6m432.8-.6v.6m-432.8.1v-.1m0,.1v.2h.1v.1h.1m.5.2h0l-.1.1-.2-.1-.1-.1-.1-.1m0-.1h0l-.1-.1v-.2m432.7.1v-.1m-.1.4h0l.1-.3m0-.1v.3l-.1.1m0,0l-.1.1-.2.1-.2.1-.1-.1m.1,0h.1l.2-.1.2-.1.1-.1m-432.6,0l.1.1.1.1.2.1h.1m-1,8.5h0m433.5,0H-83.6m433.5,0h0m-433.5-1.6v1.6m433.5,0H-83.6m433.5-1.6v1.6m-433.2-1.6h-.3m433.5,0h-.3M-100.6,106.8v.3m467.5-.3v.3m-467.5-15.6v10.7m467.5-10.7v10.7M4.5,91.5h-104.9m467,0h-104.9m-362.3,0l.2-.1m467,.1l.2.1m-467.4,10.6h0v.4m467.4-.4h0v.4m-467.4,0v4.2m467.4-4.2v4.2m.2-.1v.1m-467.7.1h0v-.1m467.7-15v10.6m-.1-10.8l.1.1m-467.7,10.6v-10.5m0,0l.1-.1m-.1,10.8h0v-.2m467.7,0h0v.2m0,0v4.2m-467.7,0v-4.2m450.8,40.4v.2m-433.9,0h0l-.1-.1v-.1m-11.3-34.1h0m456.7.1h0m-456.7,0v1.1m456.7,0v-1.1m-456.7,1.4v31.3m456.7,0v-31.3m-447.2,31.3h-9.6m11.5,1.3l-.1-.3-.2-.3-.2-.2-.2-.2-.3-.1-.3-.1-.3-.1-.3-.1m437.7.1l-.3.1-.3.1-.3.1-.2.1-.3.2-.2.2-.1.3-.1.3m11.3-1.4h-9.5m-447.2-31.6h0v.3m456.7,0v-.3m-445.3,32.9h0l.1.1m433.8.1h0v-.1m-234.5-12.9h0m.1-.2h0m2.5,0h0m-5.7.2h0m2.1,0h0m3.7,0h0m-5.6-.2h0m1.9,0h0m-1.7-.1h0l-.1.1h-.1m1.8,0h-.1l-.1-.1v-.1m1.7.1h0l-.1.1h-.1m-1.5-.1h0m1.7-.1h0m1.9.1l-2.4-2.7m2.4,2.7h0m-2.4-2.7h0m0,0h0m-1-.1h0m1,.1h0m.6-1.5l-1.7,1.4m1.8-1.6h0l-.1.1m-.4-.4h0l.1.1m0,0h.1m0,0l.1.1h.1m0-.1l.1.1v.1l-.1.1-.1.1m.1,0l-1.6,1.4m-.1,0h0m0,.1h0l-.1-.1m-.1-.1v-1.4m0,0l.1-.1v-.1m0,0h0l.1-.1h.1m0,0h0m.1,0h0m0-.1h0m-2.1-.1h0m0,.1h0l.1.1m0-.1h0m.1,0h0l.1.1v.1h.1m0,0v.2m0,0v4.1m0,0v.2m0,0h0l-.1.1h-.1m0,0h0m-.1,0h0l-.1.1v.1m0,0h0m0,0h0l.1.1m0,0h2m0,0h0m.1-.1h0m0,0h0m-.1-.1h0m-.1,0h-.1l-.1-.1v-.1m0,.1h0l-.1-.2m.1,0v-1.8m0,0h0m0-.1h.1m.1,0l1.4,1.7m0,0l.1.1v.1m0,.1h0l-.1.1h-.1m0,0h0m0,0h0l-.1.1v.1m-.1,0h0m0,0h0l.1.1m.1,0h2.5m-.1,0h0l.1-.1m.1,0h0m0,0h0l-.1-.1m-.1,0h0m0,0h-.1l-.1-.1m0,0h0l-.1-.1m0,.1l-2.4-2.7m0-.1h0m0,0h0l-.1-.1.1-.1m0,0l1.7-1.4m0,.1l.3-.2.3-.1m-.1-.1h0l.2-.1m0,.1h0m0,0h0l.1-.1m.1,0h0m-2.4-.1h0m2.2-.1h-2.1m2.1,0h-2.1m2.3.1h0l-.1-.1m.1.2h0m-3.4,0h0l-.1-.1m.1.1h0m-2.2,0h0m.1-.2h0l-.1.1h0m2.1-.1h-2m2,0h-2m3.1.1h0m.1-.1h0l-.1.1v.1m20.7,3h0m-2.7,0h0m.5-1.9l-.5,1.8m3.5-2.2l-.9,2.3m-2.7,0l-1-2.5m3.6,2.5l-.7-2.7m1.8.1v.2l-.1.1m-4.6-.5v-.1h.1l.1-.1m-.1,0h0m.1,0h0m0,0h0m0,0h0m-2.2-.1h0m0,.1h0m0,0h0m.1,0h0l.1.1m0,0h0l.1.1m.1,0l.1.1v.1m-.1.1l1.8,4.5m0,0h0l.2.1m0,0h.7m.1,0h0l.1-.1m0,0l.7-2.4m0,0h0m0,0h0m.1,0l.7,2.4m0,0h0l.1.1m0,0h.7m0,0h0l.1-.1m.1,0l1.8-4.5m-.1,0h0l.1-.2m0,0l.1-.1.2-.1m0-.1h.1m.1,0h0m0,0h0m0,0h0m-1.8-.1h0m0,.1h0m.1,0h.1l.1.1m0,0l.1.1.1.1v.1m0,0h0m0,0v.2l-.1.1m0,0l-.9,2.3m0,0h0m0,0h0m-.1,0l-.7-2.7m-.1.1h0l-.1-.1m.1-.1h0l.1-.1h.1m-.1,0h0l.1-.1m0,0h0m.1,0h0m-2.1-.1h0m0,.1h0m.1,0h0m0,0h0m.1.1h0l.1.1m0,0v.1l.1.1m0,0l.1.6m0,.1v.1m0,0l-.5,1.8m.1,0h0m-.1,0h0m-.1,0l-1-2.5m0-.1v-.2m4.3-.3h0m.1-.1v.1h-.1m1.7-.1h-1.6m1.6,0h-1.6m-4.2,0h-2.1m2.1,0h-2.1m2.2.1h0m0,.1h0m5.9,0h0l-.1-.1m.1.1h0m-8.2,0h0m.1-.2h0m5.1.1h0m0,.1h0m-2.1,0h0m.1-.2h0m2,0h-2m2,0h-2m17.7,5.1h0m-.1.1v-.1m2.4.1h0m-.1-.2h0m-2,0h0l-.2.1m2.2-.1h-.1l-.1-.1m-1.6-.3v.2l-.1.1m-.1.1h0m1.7,0l-.1-.2v-.1m.1.3h0m-2-4.9h0m2.3.1h0m.1,0h0m-2.3-.2h0l-.1.1v.1m0-.1h0m0,.1h0l.1.1m0-.1h0m0,0l.1.1.1.1m0,0l.1.1v.1m.1,0v4m0,0v.2l-.1.1m-.1.1h0l-.2.1m0,0h0m0,0h0l-.1.1v.1m0-.1h0m0,.1h0l.1.1m0-.1h2.2m0,0h0m.1,0h0m0-.1v-.1h-.1m0,0h0m0,0h-.1l-.1-.1m-.1,0l-.1-.2v-.1m0,0v-4m0,0l.1-.2.1-.1m-.1,0l.1-.1h.1m.1,0h0m0-.3h-2.2m2.2,0h-2.2m2.3.1h0l-.1-.1m.1.2h0m-10.5,4.9h0m1.8,0h-.1m-1.6.1v-.1m-2.1.1h0m6.2,0h0m-2.6,0h0m-1.7-.1h-.1l-.1-.1m4.4.1h-.1l-.1-.1m-5.5,0l-.1.1h-.1m3.9-.1l-.2.1h-.1m2-.1l-.1-.1-.1-.1m.2.2h0m-1.7-.2h0l-.1.1m.1.1h0m-3.4-.6l-.1.3-.2.2m-.1.1h0m1.3,0l-.1-.1-.1-.2v-.1m.6-1.4h1.3m-1.3,0h0m.4-3.1l-1.7,4.3m4.9.3l-1.9-4.6m-.1-.1h-1m3.7,5.2v-.1l-.1-.1m0,0h-.1l-.1-.1m-.1.1l-.1-.1-.1-.1m0-.1l-2-4.6m0,0h-.1v-.1m0,0h-1m0,0h0m-.1.1l-1.8,4.3m0,0l-.1.3-.2.3m0,0l-.1.1h-.1m-.1-.1h0l-.1.1m0,.1h0m0,0h0m.1.1h1.8m0,0h0l.1-.1m.1,0h0m0,0h0l-.1-.1m-.1,0h0m0,0h-.2l-.1-.1m.1,0l-.1-.1-.1-.2v-.1l.1-.1m-.1-.1l.2-.6m0,0h0l.1-.1m0,0h1.9m0,0h0m.1.1l.4.9m0,0v.3h-.1m0,0l-.2.1h-.1m0,0h0m-.1,0h0m0,.1h0m0,0h0m0,.1h2.4m0,0h0m.1-.1h0m-2.8-2.1h0m-1.3.1h1.3m-1.4,0h0m0-.2h0l.1.1m.6-1.6l-.7,1.6m.7-1.7h0m.1.1h0m.7,1.5l-.7-1.6m.7,1.7h0m-21,2.1v-.1m-2,.1h0m3.6,0h0m2.5,0h0m-4.2-.2h0m1.8,0h0m-1.9,0h-.1l-.1-.1m4.5.1h-.1l-.1-.1m-5.6,0l-.1.1h-.1m3.9-.1l-.1.1h-.2m2.1,0l-.2-.1-.1-.1m.3.2h0m-1.7-.2h0l-.1.1m0,0h0m-3.4-.6l-.1.3-.2.2m0,.2h0m1.3,0l-.1-.1-.1-.2v-.1m.6-1.5h1.2m-1.4,0h0m.5-3.1l-1.7,4.3m4.9.4l-2-4.6m2.5,5.1h0l-.1-.1m0-.1h-.1l-.1-.1m0,.1l-.2-.1-.1-.1m0-.1l-2-4.6m-1.2,0l-1.7,4.2m0,0l-.1.3-.2.3m0,.1l-.1.1h-.1m-.1-.1h0l-.1.1m0,.1h0m0,0h0m.1.1h1.8m0,0h0l.1-.1m.1,0h0m0,0h0l-.1-.1m-.1,0h0m0,0h-.1l-.1-.1m0,0l-.1-.1-.1-.2v-.1l.1-.1m-.1-.1l.2-.6m0,0h0l.1-.1m0,0h1.8m0,0h0l.1.1m.1,0l.4.9m0,0v.3h-.1m0,0l-.1.1h-.2m0,0h0m-.1,0h0m-.1.1h0m0,0h0m.1.1h2.4m0,0h0m.1-.1h0m-2.8-2.1h0m-1.3.1h1.3m-1.4,0h0m0-.2h0m.7-1.6l-.7,1.6m.7-1.7h0m.1.1h0l-.1-.1m.8,1.7l-.7-1.6m.7,1.6h0m0-3h-1m1,0h-1m1.2,0h-.1v-.1m-1,.1v.1h-.1M6.6,95h0m253.1,0h0m-95.5.5h12m-20.5,0h4.8m-54.6,0h4.7m-20.4,0h12m8.4,0h1.5l.2.1h.1l.1.1m41.2,0l.1-.1h.1l.1-.1h1.5m20.6,0h1.5l.2.1h.2l.1.1m-89.9,0l.1-.1h.1l.1-.1h1.5m63.6.2h0l.1-.1m-65.6.1h0l.1-.1m89.9.1h0l.1.1m-65.6-.1h0l.1.1m-106.1.4v-1.2m253.1,1.2v-1.2m-147.1.9h0l.1-.1v-.1l-.1-.1h-.1m-1.9.4h1.3l.2-.1h.3l.1-.1m-22.4.2h20.5m-22.4-.1l.1.1h.3l.3.1h1.2m-1.9-.5h0l-.1.1v.1h.1v.1h.1m1.8-.4h-1.2l-.3.1h-.3l-.1.1m13.9-.2h-12m20.5,0h-4.8m6.7.1h0l-.4-.1-.2-.1h-1.3m49.8.1h-4.8m20.5,0h-11.8m13.7.1h0l-.4-.1-.2-.1h-1.3m1.9.5h0l.1-.1v-.1l-.1-.1h0m-1.9.5h1.3l.2-.1h.4l.1-.1m-22.4.2h20.5m-22.4-.2l.1.1h.3l.3.1h1.2m-1.9-.5h0l-.1.1v.1h.1v.1h.1m1.8-.4h-1.3l-.3.1h-.3l-.1.1M6.6,101.2h0v-.3m253.1.3h0v-.3M6.6,96.6v-.3m253.1.3v-.3M6.6,100.9v-4.3m253.1,4.3v-4.3m-253.3-1.4h0m253.4,0h0m-147.3.5h0l.1.1m-24.5,0h0l.1-.1m0,0l.1-.1h.1l.1-.1h1.5m15.9.1h4.7m-20.5,0h12m8.5,0h1.5l.2.1h.1l.1.1m51.6-.2h12m-20.5,0h4.8m15.7,0h1.5l.2.1h.2l.1.1m0-.1h0l.1.1m-24.6,0h0l.1-.1m.1,0l.1-.1h.1l.1-.1h1.5m104.2-.3v1.2m-253.4,0v-1.2m253.4,5.7h0v.1m-253.4,0h0v-.1m0-4.3h0v-.2m253.4,0v.2m0,0v4.3m-253.4,0v-4.3m83.6-.9h0m20.6,0h0m-3.2.4h0m.2-.2h0l-.1.1-.1.1v.1m-3.5-.1h0m-3.6,0h3.6m-13.9-.4h-.8l-.3.1h-.2m6.5-.1h-1m8.2.2h-1.8l-1.1-.1h-2.1l-1.1-.1h-1m-5.2,0h-1.2l-.1.1h-.2m23.6,0h-.2l-.1-.1h-1.2m-15.6-6.7h0m0,0h0m0-.1h0m-.1.3v-.2h.1m0-.1h0l.2-.1h.3l.1.1m-.6.1h0l.1.1h.1v.1m-.1,0h0m0,0h0m0,0h0l-.1.3h.1m0-.3l.1-.1h.1l.1-.1h.1v.1m7.2,6.9l-1.3-.9-3.2-2.7-.3-.3m-1.6-2.9l2.6,1.7,2.7,1.8,2.7,1.8,2.1,1.5m-10.2-6.8l-.3-.1-.3-.2m-.1.2l2.9,1.7,2.9,1.8,2.8,1.9,2.2,1.5m-10.8-6.9l-.1.2m0,0h0m0,0h0m-.1,0l-.1.3m0-.1l.4.4.3.3.7.5,1.1,1,2.1,1.8,2.4,1.9.7.6m73.2-.3h0m-20.6,0h0m3.2.3h0m-.1-.2h0l.1.1v.1m3.5,0h0m1.5-.2h1.9l1.1-.1h2.2l1-.1h1.1m0,.1h1m4.2,0h.9l.3.1h.1m-11.6.3h-3.6m13.8-.4h1.2l.1.1h.1m-23.5,0h.2l.1-.1h1.2m15.6-6.7h0m0,0h0m0-.1h0m.1.3h0l-.1-.2m0-.1h0l-.1-.1-.1-.1h-.3v.1m.5.2h0l-.1.1h-.1l-.1.1m.1,0h0m0,0h0m0,0h0l.1.2-.1.1v.1m0-.4l-.1-.1h-.1l-.1-.1h-.1l-.1.1m-7,7l1.4-1,3.1-2.7.3-.3m1.7-2.9l.3-.1.3-.2h.1m-.7.3l-2.7,1.7-2.7,1.8-2.7,1.8-2.1,1.5m11.3-6.4l-2.3,2-2.3,2-2.4,2-.6.5m7.4-6.8l.2.3m-.2-.3h0m0,0h0m-.2-.2l.2.2m-.2-.2l-2.9,1.7-2.9,1.8-2.8,1.9-2.2,1.5m-260.7-15l.1-.2.1-.1m467.6,0h0l.1.3m-467.8,15.4l-.1-.2m468,0l-.1.2m-467.9-4.9v-10.5m468,0v10.5M5.7,79.8h-102.2m459.3,0h-102.2m-357.1,0h-.7l-.7.1-.6.1-.6.1-.5.1-.4.1-.3.2-.2.1-.1.2m-.1.1v10.4m467.7,0v-10.4m0,0l-.1-.2-.2-.1-.3-.2-.4-.1-.5-.1-.6-.1-.7-.1-.7-.1h-.8m-463.5,16.3v-4.7m.1,4.8l-.1-.1m.1-4.7v.2m467.7.1v-.2m.1,4.6l-.1.1m.1-4.8v4.7m-467.8-4.9l-.1.1m.1.1l-.1-.1m.1-.1H4.5m-105.2.2v-.2m.1.2h-.1m467.8,0l-.1-.1m.1.1l-.1.1m0-.1h-.1m.1-.2v.2m-105.3-.2h105.3M39.6,35.1l10.9-.9,11-.8,11-.7,11-.6,11-.5,11.1-.3,11-.2,11-.1h11l11.1.1,11,.2,11,.3,11,.5,11,.6,11,.7,11,.8,11,.9m-216.7,2l3.7-.1,3.7-.2,3.8-.2,3.7-.3,3.7-.3,3.7-.3,3.7-.3,3.7-.3m187,0l3.7.3,3.7.3,3.7.3,3.8.3,3.7.3,3.7.2,3.7.2,3.8.1M5.9,41.6v.3m254.4,0v-.3m-254.4,0l.1-.7.1-.7.3-.7.3-.6.5-.5.5-.5.7-.3.7-.2.8-.1m246.5-.2l.7.1.8.2.6.3.6.5.5.5.4.6.3.7.1.7v.7m-254.5.5l.3,5.9.2,5.9.1,5.4m253.3.1v-5.4l.2-5.9.3-5.9M4,95.4v-.4m0,.3l.1.1m258-.1l-.1.1m.1-.4v.3m0,.2v-.3m-258-.1v.3m255.6.1h2.3m-258,0h2.4m3.6-58.3l-.7.1-.7.3-.6.3-.5.4-.5.5-.4.6-.2.6-.2.7v.7m254,.1v-.7l-.1-.7-.3-.6-.3-.6-.5-.5-.6-.4-.6-.3-.7-.3-.7-.1m0-.1l-3.8-.2-3.7-.1-3.7-.3-3.7-.2-3.8-.3-3.7-.3-3.7-.3-3.7-.3m.1.1l-11-1-11-.8-11-.7-11-.6-11-.5-11-.3-11-.3h-22.1l-11,.1-11,.3-11.1.3-11,.5-11,.6-11,.7-11,.8-10.9,1m0-.1l-3.7.3-3.8.3-3.7.3-3.7.3-3.7.2-3.7.3h-3.6s-3.7.2-3.7.2m-6,57.8l.7-5.9.6-5.9.5-5.9.3-6,.2-5.9.1-6v-5.8l-.2-5.9-.3-6m.2-.2l.3,6,.2,5.9.1,6-.1,6-.2,5.9-.4,6-.5,5.9-.6,5.9-.7,5.9m257.9,0l-.7-5.9-.6-5.9-.5-5.9-.4-6-.2-5.9-.1-6,.1-6,.1-5.9.3-6m.2-.1l-.3,6-.2,5.9v5.9l.1,6,.2,5.9.3,6,.5,5.9.6,5.9.8,5.9m-258.1.2h-.2m.1.1l-.1-.1m258.1.1l.1-.1m0,0h-.2m.1.1l-.1-.1m-2.3,0h2.4m-257.9,0h2.4m-2.4.1v-.1m2.3.1h-2.3m258,0h-2.3m-354.8,12v1.8m456.1-1.8v1.8m-206.7,273.8h-15.8m208.6-.5v.5m0,0h-181.9m-37.8,0h-15.8m-192.8,0v-.5m181.8.5H-81m430.1-35.9H-82.9m250.7,35.4h179.5m0-8.4v8.4m1.3-9.6h-.2l-.3.1-.2.1-.2.1-.1.2-.1.2-.1.3-.1.2m1.8-1.2h-.5m-430.9,0h-.5m1.8,1.2v-.2l-.1-.3-.1-.2-.1-.2-.2-.1-.3-.1-.2-.1h-.3m1.3,9.6v-8.4m0,8.4H98.5m2.3-10.5v3.5m1.3-4.8h-.2l-.3.1-.2.1-.2.1-.1.2-.1.2-.1.3-.1.2m9.7-1.2h-8.4m9.7,1.3v-.2l-.1-.3-.1-.2-.2-.2-.1-.1-.3-.1-.2-.1h-.3m1.3,11.7v-10.6m0,10.6h15.1m.7-10.5v5.2m1.3-6.5h-.2l-.3.1-.2.1-.2.1-.1.2-.1.2-.1.3-.1.2m9.7-1.2h-8.4m9.7,1.3v-.2l-.1-.3-.1-.2-.1-.2-.2-.1-.3-.1-.2-.1h-.3m1.3,6.4v-5.3m.7,10.6h15.2m0-10.5v10.6m1.2-11.9h-.2l-.3.1-.2.1-.2.1-.1.2-.1.2-.1.3v.2m9.6-1.2h-8.4m9.7,1.3v-.2l-.1-.3-.1-.2-.1-.2-.2-.1-.2-.1-.3-.1h-.3m1.3,4.7v-3.5m183.7-7.8H-82.9m432-2.8H-82.9m434-219.3h0m0,0v8.9m10.9-7.2v7.2m-10.8-8.9h10.7m-10.4,73.7l-.3-.2m10.4.2l.3-.2m-10.4.2h10.1m-10.4-64.8v23.8m10.8-23.8v23.8m-10.8,7.2v33.7m10.8-33.7v33.7m-10.8-.1h0m10.8,0h-10.8m10.7,0h0m-10.7-40.8v7.2m10.8-7.2v7.2M-24.9,215.1h0l.1.1h.1l.1.1.1.1v.1l.1.1v.1m-.7-.6h0l-.1.1h-.1l-.1.1v.1l-.1.1v.1m-.5,3.4h0v.2l.1.2v.1l.1.2v.1m.4-2.9v-1.4m.9,0h0v1.5m-.9.9v.3m-12.7-.1v.7h-.1l-.1.1h-.4l-.1-.1h-.2l-.1-.1m203.6,155.4l-.3-.5-.2-.5-.2-.5v-.2m4.3,5.1h0l-.9-.7-.7-.6-.5-.5-.5-.5-.5-.5-.4-.5m4.8,6.8l-.2-1.3-.1-.8m-.1,0v-.1l-.1-.4-.2-.3-.3-.3-.2-.1v-.1m-65.6-5.1h0l-.1.5-.1.4-.3.5-.1.3m-.2-.1l-.4.5-.5.5-.5.5-.6.5-.7.5-.8.6-.1.1m-1,1.6l-.1.8-.3,1.3m1.3-3.5l-.1.1-.2.2-.3.3-.2.4-.1.3m31.7-5.1l-.1.4-.1.3m8.8.1l-.1-.3-.1-.4m-8.6.7h0l-.3.9-.4.9-.5.9-.3.6-.1.1m12.8,3.3l-.1-.6v-.3l-.1-.3-.1-.8v-.1m-12.9,0h0l-.1.5-.1.4-.1.6-.1.6m.8-3.3h0l-.2.4-.2.5v.1m12.8.2l-.1-.4-.1-.4-.2-.5-.3-.4-.1-.3-.2-.3-.1-.4-.4-.9-.3-.8v-.1m17,6.7h1.2m-45.6,0h1.2m36.1,4h-.3m0,0h-.5m-9.8.5h-.2v.1h-.1m12.2,3.2h.1l.1-.1.1-.1.1-.1.1-.1v-.1l.1-.1v-.1m-10.7-2.8l-.2.1-.5.1h-.6l-.4.1m12.1.2l-.2-.1-.3-.3-.6-.2-.5-.2m1.8,3.2v-1.8m0-.1v-.1l-.1-.1v-.1l-.1-.1-.1-.1m-13.1,2.8l.1.2v.1m-.1-2.2v1.8m.1.4l.1.1v.1l.1.1.1.1h.1l.1.1h.1m0-3.9l-.1.1-.3.3-.1.3-.1.3v.1m12.6,2.2l.1-.1h.1m-.5,1.2h0l.1-.1.1-.1.1-.1h0l.1-.1v-.1m-.1,0v-1.9m-.3-.5l-.1-.1-.1-.1m.5.7v-.1l-.1-.1v-.1l-.1-.1-.1-.1-.1-.1h-.1m-11.6,2.5l.3.1.5.1.4.1.3.1.2.1m3.2-7.4v1.8m2.6-.1v-1.8m-5.8,7.4l.1.1v.1l.1.1.1.1.1.1.1.1.1.1h.1m-.7-2.5v1.8m7.7.8h.2m-7.8-3h0l-.1.1v.1l-.1.1v.1m8.1,2.6l.3-.1.6-.1.6-.2.5-.2m-9.6-5.1v1.2m8.2,0v-1.2m-5.3-1.5l-.5.1-.5.1-.6.1-.5.1-.3.3-.2.1-.1.3-.1.3v.1m8,0v-.2l-.1-.3-.1-.2-.3-.2-.3-.2-.4-.1-.5-.1-.6-.1-.5-.1m-5.2,7l.3.1.7.1.8.1.8.1m0-.1h.2m0,0l.2-.1.5-.1.5-.1.5-.1.6-.1h.5l.6.1h.6l.3.1M-55.4,177v.2l-.2.3-.1.1m.7-2.6l-.4,2m0,13.4v.1l-.2.3-.1.1m.8-3.2l-.5,2.7m-26.8,221.4l.3-.2m-11.6,0l.2.2m9.2-250.4l.1-.1.1-.1.1-.1.1-.1m-.2-2.2h0l-.1-.1-.1-.1m0,0h0l-.2-.1-.1.1v.1m0,2.7h0l.1.1h.2v-.1m434.4-2.8l-.1.1-.1.1-.1.1m.1,2.1l.1.1.1.1.1.1.1.1m-.2,0h0l.3.1v-.1l.1-.1m0-2.7h0l-.1-.1h-.2l-.1.1m6.5,255.3h.2l.1-.1.2-.1.1-.1.1-.1.1-.2.1-.1v-.2m-4.6.9h3.7m-4.6-.9v.2l.1.1.1.2.1.1.1.1.2.1.1.1h.2m-440,0h.1l.2-.1.1-.1.1-.1.1-.1.1-.2.1-.1.1-.2m-4.6.9h3.8m-4.8-.9l.1.2.1.1.1.2.1.1.1.1.1.1.2.1h.1m438.9-2.3l.3.2m11,0l.3-.2M-84.8,167.2h0m-.1,1.3h0m.2-5.8h-.2m0,1.3h0m1.3-1.3h0l-.1-.2-.1-.1-.1-.1-.1-.1-.1-.1m.1-.2h0l-.3-.1v.1l-.1.1m435.6,6.5h0m0-1.3h0m0-3.2h0m0-1.3h-.2m-.7-.8h0l-.1.2-.1.1-.1.1-.1.1v.1l-.1.1m.8-.6h0l-.1-.1h-.2v.1m-435.2,52.9h436.1m0-23H-84.9m-14.6,5.5h0m0,.1l.3.2m449.9-47.7h.5m-436.1,0h.5m434.8,3.9h0m.3-.8h0l-.1.1-.1.1-.1.1m.5-.8h0l-.1.2-.1.1m-.2,1.8h0l.1.2h0l.1.1.1.1.1.1.1.1.1.1m-.2.1h.2v-.1m0-2.7v-.1h-.1v-.1h0l-.1.1m.2,29.5h0l.1-.1m0-2.7h0l-.1-.1m-435.8-.1h-.1v.1h-.1m0,2.8h0l.1.1h.1m435.9-12.4h0m0-2.8h0m-435.4-13.2h0m.1.6h0m-.5,1.2l.1-.1.1-.1.1-.1.1-.1v-.1l.1-.2.1-.1v-.1m-.4-1.8h0l-.1-.1-.1-.1m.5,1.1v-.1l-.1-.1-.1-.2v-.1l-.1-.1m-.2-.5h0l-.1-.1h-.1l-.1.1v.1l-.1.1m.1,2.6h0l.1.1h.1l.1.1.1-.1h.1m-.4,11.3h0m-.1,2.8h0m.5-8.1h-.3m435.7,0h-.4m15.2,35.9h0m-.3.2l.3-.2m-37.6-23h22.8m-31.5,0h5.1m-13.8,0h5m-18.4,0h9.8m-18.9,0h5.5m-18.9,0h9.8m-18.5,0h5m-13.7,0h5.1m-18.4,0h9.7m-18.9,0h5.5m-18.9,0h9.8m-18.4,0h5m-13.8,0h5.1m-18.5,0h9.8m-18.9,0h5.5m-18.8,0h9.8m-18.5,0h5m-13.7,0h5.1m-18.5,0h9.8m-19,0h5.5m-18.8,0h9.9m-18.4,0h5m-13.8,0h5.2m-18.4,0h9.7m-18.9,0h5.5m-18.9,0h9.8m-18.5,0h5m-13.6,0h5.1m-18.5,0h9.7m-18.9,0h5.5m-18.9,0h9.7m-18.4,0h5.1m-13.8,0H-3.6m-18.5,0h9.8m-18.8,0h5.5m-18.9,0h9.8m-50,0h36.5m394.6,2.5h0m-.5,0h0m-1.9.2v.1m4.3,0v-.1m-3.8-.4l-.3.2m3.9,0l-.3-.2m-2.3,4.2l-.1.1m1.6,0l-.1-.1m-1.6.4h0m1.7.1h0m-1.5-.2l-.1.1m1.6,0l-.1-.1m-.2,0h-1.2m1.3,0h0m-1.3,0h0m1.2.6h0l-.2.1h-.3m-417.5,35.8h27.7m-29-1v.3l.1.2.2.2.3.2.3.1.4.1m27.7-.1h.2l.3-.1.3-.2.2-.1.1-.3.1-.3m-11.7-.9v-.9m-3.4,0v.9m398.7-39.4h-.8m-424.8-23.4h435m-433.2,9.3h431.5m-431.6-7.7h431.7m.5,6.4h1.6m.1-2.2l-1.6.1m-434.5,2.1h1.6m0-2.1h-1.6m-15.7-51.8h467.4m.1-.1l.1-.1m-467.7,0l.1.1m16.8,36.2h433.8m11.5-34.3H-95.2m445.3,34.2h0m-248.6-48.1H6.6m154.6,0h-56m154.5,0h-94.8M6.6,101.2h253.1M6.6,95l-.1.1m253.3,0l-.1-.1m0,6.1l.1-.1m-253.4,0l.1.1m95.8-5.4h-12.3m20.6,0h-4.5m1.5.3h-3.7m-15.4-.3h0l-.1.1m24.1.1h0l-.2-.1m-17.3-6.6h0m0,.1v.2l.1.1m0,0l.6.5.4.4.3.3.2.2.4.3.4.3.3.3h.3m62.2,3.8h-4.6m20.6,0h-12.2m-1.6.4h-3.7m19.3-.2h0l-.1-.1m-23.9,0h0l-.2.2m17.5-6.7h0m-.1.3l.1-.1.1-.2m-3,2.8l.6-.5.4-.4.3-.3.3-.3.5-.4.7-.6m-271.7-9l-.1.1m467.6.1l-.2-.1M5.9,41.3v.3m254.4,0v-.3M-24.5,215.5h0l-.1-.2-.1-.1-.1-.1-.1-.1h-.4l-.1.1-.1.1-.1.1v.1m.1,1.9l-.1.1-.1.1h-.1v.1h-.2m.1,2.4l.5-.3.5-.3.3-.5.1-.5m-1.5-.9l-4.7.7-2.3.3-2.4.4m.2,2.9l2.3-.4,2.4-.5,4.6-.9m.5-3.1v1m.9.5v-1.4m-11,2h-.9l-.3-.1-.3-.1-.5-.2-.3-.2-.1-.2h-.1m-1,.5l.1.5.2.6.3.5.4.5.5.4.8.3.7.2.8-.1m-2.8-3.5v-3.2m-1,0v3.8"/></g></g><line class="cls-2" x1="133.4" y1="56.9" x2="133.4" y2="26.1"/><path class="cls-1" d="m133.4,56.9c5.7,0,10.3,4.6,10.3,10.3s-4.6,10.3-10.3,10.3-10.3-4.6-10.3-10.3h0c0-5.6,4.6-10.3,10.3-10.3"/><rect class="cls-2" x="90.5" y="82" width="85.7" height="19.2"/><g><path d="m115.65,15.06l.96.67c-1.32,1.76-2.52,3.15-3.58,4.17-.26-.23-.54-.48-.86-.77,1.26-1.25,2.42-2.61,3.49-4.07Zm-1.59-6.77c3.45-.07,6.73-.28,9.82-.63l.37,1.07c-3.24.3-6.3.48-9.17.53l-.52,3.94h3.99v-3.1h1.13v3.1h5.39v1.04h-5.39v4.29c0,.7-.13,1.19-.38,1.45-.28.29-.74.44-1.38.44-.34,0-.94,0-1.82-.01-.05-.36-.12-.76-.22-1.18.92.08,1.52.12,1.79.11.58.02.88-.28.88-.9v-4.2h-5.28l.79-5.95Zm8.11,6.74c1.34,1.36,2.54,2.71,3.61,4.05l-.92.82c-1.06-1.39-2.24-2.79-3.55-4.21l.86-.66Z"/><path d="m130.21,16.8c0,.22.08.63.21,1.24-.89.79-1.68,1.55-2.37,2.28l-.81-.93c.3-.35.45-.76.45-1.23v-5.25h-1.52v-.98h2.54v6.32c.4-.36.9-.85,1.49-1.45Zm-2.82-9.35c.65.64,1.29,1.32,1.94,2.05l-.86.74c-.56-.76-1.18-1.47-1.83-2.15l.75-.64Zm10.31.27c-.39.5-.76.94-1.11,1.31h2.64v.88h-2.86v2.82h3.36v.88h-10.23v-.88h3.34v-2.82h-2.78v-.88h2.6c-.34-.49-.69-.94-1.07-1.34l.74-.55c.46.47.86.95,1.2,1.44l-.6.45h3.32l-.52-.41c.45-.48.83-.96,1.16-1.44l.79.53Zm-7.4,3.13l.7-.59c.44.44.91.95,1.41,1.53l-.75.63c-.46-.59-.92-1.12-1.35-1.57Zm.68,3.81h7.22v6.03h-.98v-.67h-5.25v.67h-.98v-6.03Zm6.23.88h-5.25v1.37h5.25v-1.37Zm-5.25,3.61h5.25v-1.39h-5.25v1.39Zm1.8-6.43h1.67v-2.82h-1.67v2.82Zm5.25-1.87c-.52.58-1.02,1.12-1.49,1.6l-.67-.66c.5-.47.97-.98,1.41-1.53l.75.59Z"/><path d="m140.16,19.64c3.36-1.16,5.34-2.61,5.93-4.33h-5.78v-.96h5.97c.02-.79.03-2.21.03-4.27h-5.49v-.96h5.5v-1.91h1.19c0,.69,0,1.33-.01,1.91h5.56v.96h-5.56c-.01,2.17-.03,3.59-.04,4.27h6.17v.96h-5.93c.97,2.08,2.99,3.45,6.07,4.1-.34.4-.63.77-.88,1.09-2.95-.82-4.92-2.37-5.91-4.65-.73,1.86-2.72,3.46-5.97,4.81-.21-.28-.49-.62-.85-1.03Zm1.64-8.27l.79-.66c.66.64,1.38,1.37,2.16,2.19l-.92.79c-.64-.78-1.32-1.56-2.04-2.32Zm7.01,1.56c.93-.82,1.69-1.57,2.28-2.26l.92.82c-.62.61-1.44,1.34-2.45,2.2l-.75-.77Z"/></g></svg>