<?xml version="1.0" encoding="utf-8"?>
<!-- Generator: Adobe Illustrator 25.4.6, SVG Export Plug-In . SVG Version: 6.00 Build 0)  -->
<svg version="1.1" id="レイヤー_1" xmlns="http://www.w3.org/2000/svg" xmlns:xlink="http://www.w3.org/1999/xlink" x="0px"
	 y="0px" viewBox="0 0 24.2 21.3" style="enable-background:new 0 0 24.2 21.3;" xml:space="preserve">
<style type="text/css">
	.st0{fill:none;}
	.st1{fill:none;stroke:#231815;stroke-width:1.5513;stroke-miterlimit:10;}
	.st2{display:none;fill:none;stroke:#231815;stroke-width:0.2223;stroke-miterlimit:10;}
	.st3{fill:#231815;}
</style>
<rect x="0.8" y="0.8" class="st0" width="22.6" height="19.8"/>
<g>
	<path class="st1" d="M11.5,1.2L0.9,19.4c-0.2,0.3-0.2,0.5,0,0.8s0.3,0.3,0.7,0.3h21c0.3,0,0.5-0.2,0.7-0.3c0.2-0.3,0.2-0.5,0-0.8
		L12.8,1.2c-0.2-0.3-0.7-0.5-1-0.3C11.6,1,11.5,1.1,11.5,1.2z"/>
	<path class="st2" d="M0.9,20.7h22.5L12.1,1.3C9.8,5.2,3.2,16.7,0.9,20.7"/>
	<path class="st3" d="M12.9,14.8c0,0.4-0.3,0.8-0.8,0.8c-0.4,0-0.8-0.3-0.8-0.8L10.9,7c0-0.6,0.6-1.1,1.3-1.1s1.3,0.5,1.3,1.1
		L12.9,14.8z"/>
	<path class="st3" d="M12.1,18.8c0.7,0,1.2-0.5,1.2-1.2c0-0.7-0.5-1.2-1.2-1.2c-0.7,0-1.2,0.5-1.2,1.2l0,0
		C10.9,18.3,11.5,18.8,12.1,18.8L12.1,18.8"/>
</g>
</svg>
