<svg id="レイヤー_1" data-name="レイヤー 1" xmlns="http://www.w3.org/2000/svg" width="3.93mm" height="3.93mm" viewBox="0 0 11.15 11.15">
  <defs>
    <style>
      .cls-1 {
        fill: #231815;
      }
    </style>
  </defs>
  <path class="cls-1" d="M11.57,6A5.58,5.58,0,1,1,6,.43,5.57,5.57,0,0,1,11.57,6ZM7.71,7.15a2.83,2.83,0,0,1-1.23.3A1.4,1.4,0,0,1,5,6,1.39,1.39,0,0,1,6.54,4.54a1.88,1.88,0,0,1,1.14.34L8.07,4a2.8,2.8,0,0,0-1.52-.4A2.45,2.45,0,0,0,3.91,6.06,2.3,2.3,0,0,0,6.36,8.4,3.52,3.52,0,0,0,8,8Z" transform="translate(-0.42 -0.43)"/>
</svg>
