<?xml version="1.0" encoding="utf-8"?>
<!-- Generator: Adobe Illustrator 25.4.2, SVG Export Plug-In . SVG Version: 6.00 Build 0)  -->
<svg version="1.1" id="レイヤー_1" xmlns="http://www.w3.org/2000/svg" xmlns:xlink="http://www.w3.org/1999/xlink" x="0px"
	 y="0px" viewBox="0 0 512 512" style="enable-background:new 0 0 512 512;" xml:space="preserve">
<style type="text/css">
	.st0{fill:#FFFFFF;stroke:#FFFFFF;stroke-width:22.136;stroke-linejoin:round;stroke-miterlimit:10;}
	.st1{fill:#00A0E9;}
	.st2{fill:#FFFFFF;}
	.st3{fill:#231815;}
</style>
<g>
	<path class="st0" d="M264.4,189.9c6.6,23.7,27.9,40.8,53.3,40.8c30.5,0,55.2-24.7,55.2-55.2s-24.7-55.2-55.2-55.2
		c-5.1,0-10,0.7-14.7,2l0.4-0.1c-23.7,6.6-40.8,28-40.8,53.4c0,5.1,0.7,10,2,14.7L264.4,189.9L264.4,189.9z"/>
	<path class="st0" d="M275.2,181.6h-96.1v-12.2h96.1"/>
	<path class="st0" d="M197,201.9l-22.1-22.1c-1.1-1.1-1.8-2.6-1.8-4.3s0.7-3.2,1.8-4.3l22.2-22.2l8.4,8.6l-17.9,17.9l17.9,17.9
		L197,201.9z"/>
	<path class="st0" d="M311.6,134V37.9h12.2V134"/>
	<path class="st0" d="M291.3,55.8l22.1-22.1c1.1-1,2.6-1.7,4.3-1.7s3.2,0.6,4.3,1.7l22.2,22.2l-8.6,8.6l-18-18l-17.7,17.9
		L291.3,55.8z"/>
	<path class="st0" d="M361.5,169.3h96.1v12.2h-96.1"/>
	<path class="st0" d="M439.5,201.9l-8.6-8.6l18-18.2L431,157.2l8.6-8.6l22.1,22.1c1.1,1.1,1.8,2.6,1.8,4.3s-0.7,3.2-1.8,4.3l0,0
		L439.5,201.9z"/>
</g>
<g id="icomoon-ignore">
</g>
<path class="st1" d="M264.9,189.9c6.6,23.7,27.9,40.8,53.3,40.8c30.5,0,55.2-24.7,55.2-55.2s-24.7-55.2-55.2-55.2
	c-5.1,0-10,0.7-14.7,2l0.4-0.1c-23.7,6.6-40.8,28-40.8,53.4c0,5.1,0.7,10,2,14.7L264.9,189.9L264.9,189.9z"/>
<path class="st1" d="M179.6,169.4h96.1v12.2h-96.1V169.4z"/>
<path class="st1" d="M197.5,201.9l-22.1-22.1c-1.1-1.1-1.8-2.6-1.8-4.3s0.7-3.2,1.8-4.3l22.2-22.2l8.4,8.6l-17.9,17.9l17.9,17.9
	L197.5,201.9z"/>
<path class="st1" d="M312.1,37.9h12.2V134h-12.2V37.9z"/>
<path class="st1" d="M291.8,55.8l22.1-22.1c1.1-1,2.6-1.7,4.3-1.7s3.2,0.6,4.3,1.7l22.2,22.2l-8.6,8.6l-18-18l-17.7,17.9L291.8,55.8
	z"/>
<path class="st1" d="M362,169.3h96.1v12.2H362V169.3z"/>
<path class="st1" d="M440,201.9l-8.6-8.6l18-18.2l-17.9-17.9l8.6-8.6l22.1,22.1c1.1,1.1,1.8,2.6,1.8,4.3s-0.7,3.2-1.8,4.3l0,0
	L440,201.9z"/>
<path class="st2" d="M174.3,280c7.5,0.5,14.2,3.7,19.2,8.6l0,0c4-11.7,14.9-19.9,27.8-20l0,0c0.1,0,0.2,0,0.3,0
	c8.1,0,15.3,3.4,20.5,8.8l0,0c3.9-11.8,14.9-20.1,27.8-20.1l0,0c7.5,0,14.4,2.9,19.5,7.6l0,0V174c0-0.1,0-0.1,0-0.2
	c0-16.1,13.1-29.2,29.2-29.2c1.9,0,3.7,0.2,5.5,0.5h-0.2c13.8,3,24,15.2,24,29.7c0,0.3,0,0.6,0,0.9l0,0V315h6
	c15.2,0.1,27.4,12.4,27.4,27.6c0,0.1,0,0.2,0,0.3l0,0v44.6C378.9,451.2,326.6,502,262.5,502s-116.3-50.7-118.8-114.2v-0.2V311
	c0-0.1,0-0.2,0-0.3C143.8,293.7,157.4,280,174.3,280c0.2,0,0.3,0,0.5,0l0,0H174.3z"/>
<path class="st3" d="M173.3,285.8c-0.2,0-0.2,0-0.4,0.1c-6.1,0.7-11.6,2.5-15.7,6.4l0,0c-4.9,4.7-7.9,11.2-8,18.5v76.6
	c0,62.2,50.4,112.7,112.7,112.7s112.7-50.4,112.7-112.7v-44.6c0-0.2,0-0.5,0-0.8c0-5.7-2.3-10.9-6-14.6l0,0
	c-3.9-3.9-9.3-6.3-15.2-6.3c0,0,0,0-0.1,0h-6c-3.3-0.1-6-2.8-6-6.2l0,0l0,0V175.1c0-0.2,0-0.5,0-0.8c0-11.6-8-21.2-18.8-23.7h-0.2
	c-1.3-0.3-2.9-0.5-4.5-0.5c-5.6,0-10.8,2.1-14.7,5.5l0,0c-5.2,4.2-8.4,10.6-8.4,17.8v0.1l0,0v90.9c0,3.3-2.7,6-6,6
	c-1.6,0-3-0.6-4.1-1.6l0,0c-4.1-3.8-9.5-6.1-15.5-6.1c-10.2,0-18.8,6.6-21.8,15.8v0.2c-0.7,2-2.3,3.5-4.3,4l0,0
	c-0.4,0.1-0.9,0.2-1.4,0.2c-1.7,0-3.2-0.7-4.3-1.8l0,0c-4.1-4.3-9.9-6.9-16.2-7l0,0c-10.2,0.1-18.9,6.8-21.9,16.1v0.2
	c-0.7,2-2.3,3.5-4.3,4l0,0c-0.4,0.1-0.9,0.2-1.4,0.2c-1.7,0-3.2-0.7-4.3-1.8l0,0c-3.9-4-9.2-6.6-15.2-7h-0.1h-0.3L173.3,285.8z
	 M262.8,512c-68.9-0.1-124.7-55.8-124.9-124.7v-76.7c0-10.7,4.6-20.4,11.8-27.3l0,0c6.2-6,14.6-9.6,23.8-9.6c0.6,0,1.2,0,1.8,0h-0.1
	c9.6,0,16.8,4.9,18.1,4.9c1.6,0,11.6-16.4,28.5-16.4l0,0c6.9,0,13.4,2,18.8,5.4l-0.1-0.1c6.2-10.1,17.2-16.7,29.8-16.7
	c4.9,0,9.6,1,13.8,2.8l-0.2-0.1v-79.9c0-0.1,0-0.1,0-0.2c0-10.8,4.8-20.4,12.5-26.9l0,0c6.1-5.2,14.1-8.3,22.9-8.3
	c2.2,0,4.3,0.2,6.4,0.6h-0.2c16.8,3.6,29.2,18.3,29.2,35.9c0,0.2,0,0.4,0,0.6l0,0v133.3c18.4,0.2,33.3,15.2,33.3,33.6
	c0,0.2,0,0.3,0,0.5l0,0v44.5c-0.2,68.8-56,124.6-124.8,124.7l0,0L262.8,512z"/>
<path class="st3" d="M242.1,321.2c-3.3-0.1-6-2.8-6-6.2l0,0l0,0v-40c-0.1-0.3-0.1-0.6-0.1-1c0-3.4,2.8-6.2,6.2-6.2s6.2,2.8,6.2,6.2
	c0,0.4,0,0.7-0.1,1l0,0v40.1C248.3,318.5,245.5,321.2,242.1,321.2L242.1,321.2L242.1,321.2z"/>
<path class="st3" d="M193.6,321.2c-3.3-0.1-6-2.8-6-6.2l0,0l0,0v-31.2c0.5-3,3-5.2,6.1-5.2s5.6,2.2,6.1,5.1l0,0v31.2
	C199.8,318.5,197,321.2,193.6,321.2L193.6,321.2L193.6,321.2z"/>
<path class="st3" d="M289.4,321.2L289.4,321.2c-3.3,0-6-2.7-6-6c0-0.1,0-0.1,0-0.2l0,0v-50c0-3.3,2.7-6,6-6s6,2.7,6,6v50
	c0,0,0,0.1,0,0.2C295.4,318.5,292.7,321.2,289.4,321.2L289.4,321.2L289.4,321.2z"/>
<path class="st3" d="M348,401.3c-3.3-0.1-5.9-2.7-6-6V294.8c0.5-3,3-5.2,6.1-5.2s5.6,2.2,6.1,5.1l0,0v100.5
	C354.1,398.6,351.3,401.3,348,401.3L348,401.3L348,401.3L348,401.3z"/>
</svg>
