<svg id="レイヤー_1" data-name="レイヤー 1" xmlns="http://www.w3.org/2000/svg" viewBox="0 0 232 231.69"><defs><style>.cls-1{fill:#fff;}</style></defs><path d="M309.37,413.69h-7a9.34,9.34,0,0,0-1-.16,109.88,109.88,0,0,1-23.67-3.38c-23.71-6.08-43.67-18.32-59.51-36.95-19.85-23.35-29-50.47-27.64-81.1a106.85,106.85,0,0,1,3.74-23.91c7.53-27.36,22.93-49.22,46.25-65.32,21.93-15.12,46.35-21.66,73-20.06A111.05,111.05,0,0,1,343,188.64a115.74,115.74,0,0,1,78.43,105.59,111.19,111.19,0,0,1-2.11,26,115.79,115.79,0,0,1-66.61,83.54,112.37,112.37,0,0,1-36.46,9.39Zm43.38-82.37,24.94,24.93c29.4-35.47,28.88-91.92-10.05-126.94-37.92-34.1-90.33-28.38-119.95-3l45,45a6.29,6.29,0,0,0,.44-.57c4-5.79,8-11.56,12-17.38,5.21-7.67,15.67-8.11,20.93-.82a13.64,13.64,0,0,1,2.37,8.22q0,21,0,42.08c0,1.07-.23,2.14-.16,3.19a3.28,3.28,0,0,0,.7,2c3.62,3.73,7.35,7.36,11,11.08a3.06,3.06,0,0,0,2.41,1q18.74,0,37.49,0h1.77v11.29Zm-77.08-49.91-41.55-41.55C206.72,272.33,204,326.48,240.06,363c36.64,37.1,91.53,34.31,124.17,6.63-.2-.22-.38-.46-.59-.67q-18.45-18.47-36.93-36.88a3.06,3.06,0,0,0-2-.72q-19.27-.06-38.57,0H284.4V320h30.11c-1.58-1.81-2.83-3.18-5.49-3.11-8.71.24-17.44.09-26.17.09H281.2c0,10.6,0,21,0,31.31a38.44,38.44,0,0,1-.29,4.54,7.69,7.69,0,0,1-15,1.29,14.58,14.58,0,0,1-.59-3.87c-.06-6.43,0-12.86,0-19.28v-1.61a3.86,3.86,0,0,0-.55.33c-4.76,5.11-9.54,10.21-14.27,15.34a8.08,8.08,0,0,1-6.88,3,7.28,7.28,0,0,1-6.6-4.9c-1.25-3.29-.32-6.16,2-8.68,9.11-9.7,18.27-19.35,27.25-29.17a11.16,11.16,0,0,1,9-3.91c6.33.07,12.66,0,19,0,.47,0,.94,0,1.69-.08-2.69-2.69-5.19-5.09-7.58-7.6a2.51,2.51,0,0,0-2.78-.8c-8,2.05-16.07,4-24.12,6-4.32,1.07-7.85-.92-8.88-5-.94-3.7,1.43-7.18,5.6-8.22,2.07-.52,4.15-1,6.22-1.53Z" transform="translate(-189.67 -182)"/><path class="cls-1" d="M309.37,413.69l6.84-.54A114.91,114.91,0,0,0,389.32,378a114.29,114.29,0,0,0,30-57.77,111.19,111.19,0,0,0,2.11-26A115.74,115.74,0,0,0,343,188.64a111.05,111.05,0,0,0-29.54-5.83c-26.61-1.6-51,4.94-73,20.06-23.32,16.1-38.72,38-46.25,65.32a106.85,106.85,0,0,0-3.74,23.91c-1.33,30.63,7.79,57.75,27.64,81.1,15.84,18.63,35.8,30.87,59.51,36.95a109.88,109.88,0,0,0,23.67,3.38,9.34,9.34,0,0,1,1,.16H189.69s0-.09,0-.13V182h232V413.69Z" transform="translate(-189.67 -182)"/><path class="cls-1" d="M352.75,331.32h28.79V320h-1.77q-18.75,0-37.49,0a3.06,3.06,0,0,1-2.41-1c-3.64-3.72-7.37-7.35-11-11.08a3.28,3.28,0,0,1-.7-2c-.07-1,.16-2.12.16-3.19q0-21,0-42.08a13.64,13.64,0,0,0-2.37-8.22c-5.26-7.29-15.72-6.85-20.93.82-3.94,5.82-8,11.59-12,17.38a6.29,6.29,0,0,1-.44.57l-45-45c29.62-25.42,82-31.14,120,3,38.93,35,39.45,91.47,10.05,126.94ZM329.33,229.88a13.51,13.51,0,1,0-27-.07,13.51,13.51,0,1,0,27,.07Z" transform="translate(-189.67 -182)"/><path class="cls-1" d="M275.67,281.41l-11.26,2.78c-2.07.52-4.15,1-6.22,1.53-4.17,1-6.54,4.52-5.6,8.22,1,4,4.56,6,8.88,5,8-2,16.09-4,24.12-6a2.51,2.51,0,0,1,2.78.8c2.39,2.51,4.89,4.91,7.58,7.6-.75,0-1.22.08-1.69.08-6.32,0-12.65.06-19,0a11.16,11.16,0,0,0-9,3.91c-9,9.82-18.14,19.47-27.25,29.17-2.37,2.52-3.3,5.39-2,8.68a7.28,7.28,0,0,0,6.6,4.9,8.08,8.08,0,0,0,6.88-3c4.73-5.13,9.51-10.23,14.27-15.34a3.86,3.86,0,0,1,.55-.33V331c0,6.42,0,12.85,0,19.28a14.58,14.58,0,0,0,.59,3.87,7.69,7.69,0,0,0,15-1.29,38.44,38.44,0,0,0,.29-4.54c0-10.36,0-20.71,0-31.31h1.65c8.73,0,17.46.15,26.17-.09,2.66-.07,3.91,1.3,5.49,3.11H284.4v11.37h1.74q19.29,0,38.57,0a3.06,3.06,0,0,1,2,.72q18.51,18.4,36.93,36.88c.21.21.39.45.59.67-32.64,27.68-87.53,30.47-124.17-6.63-36.1-36.54-33.34-90.69-5.94-123.16Z" transform="translate(-189.67 -182)"/><path d="M329.33,229.88a13.51,13.51,0,1,1-13.47-13.55A13.57,13.57,0,0,1,329.33,229.88Z" transform="translate(-189.67 -182)"/></svg>