<svg id="レイヤー_1" data-name="レイヤー 1" xmlns="http://www.w3.org/2000/svg" viewBox="0 0 232 202.77"><defs><style>.cls-1{fill:#fff;}.cls-2{fill:none;}</style></defs><path class="cls-1" d="M189.67,554.71V351.94h232V554.71Zm116.13-.2H415a7,7,0,0,0,6.3-4.83c.67-2.29,0-4.3-1.16-6.3q-34.33-59.44-68.64-118.93L312,356.06a9.34,9.34,0,0,0-1.27-1.83,6.87,6.87,0,0,0-11,1.57q-19.09,33.32-38.36,66.55l-48.41,83.91Q202,525.15,191.13,544a6.69,6.69,0,0,0-.93,5.07,6.76,6.76,0,0,0,7,5.42Z" transform="translate(-189.67 -351.94)"/><path d="M305.8,554.51H197.15a6.76,6.76,0,0,1-7-5.42,6.69,6.69,0,0,1,.93-5.07q10.89-18.88,21.8-37.76l48.41-83.91q19.2-33.27,38.36-66.55a6.87,6.87,0,0,1,11-1.57,9.34,9.34,0,0,1,1.27,1.83l39.46,68.39q34.32,59.46,68.64,118.93c1.16,2,1.83,4,1.16,6.3a7,7,0,0,1-6.3,4.83H305.8Zm0-181L209.51,540.4H402.09Q353.93,456.88,305.8,373.47Z" transform="translate(-189.67 -351.94)"/><path class="cls-1" d="M305.8,373.47Q354,457,402.09,540.4H209.51Zm-6.14,109.22a2.94,2.94,0,0,0,0,.43,7.36,7.36,0,0,0,7.13,6.21c2.76,0,5.52,0,8.27,0,.37,0,.72.51,1.07.78a7.23,7.23,0,0,1-1,.73,2,2,0,0,1-.81,0H292.74c-2.62,0-5.24,0-7.86,0a3.64,3.64,0,0,0-3.24,5.6,3.84,3.84,0,0,0,3.57,1.74q14.66,0,29.31,0c.61,0,1.58-.33,1.58.73s-1,.81-1.64.81c-11.44,0-22.87,0-34.31,0a5.3,5.3,0,0,0-2.42.58,3.62,3.62,0,0,0,2,6.69h34.61a2.42,2.42,0,0,1,1,0c.31.15.52.51.77.78a4.18,4.18,0,0,1-.82.71,2.5,2.5,0,0,1-.91,0H286.12a17.84,17.84,0,0,0-1.93.11,3.57,3.57,0,0,0-3,4.37,3.68,3.68,0,0,0,4,2.9h29.21c.66,0,1.69-.3,1.72.72s-1,.82-1.74.82c-6.84,0-13.68,0-20.52,0a3.63,3.63,0,0,0-3.23,1.6,3.49,3.49,0,0,0-.19,3.77,3.53,3.53,0,0,0,3.34,1.93c13.21,0,26.41,0,39.62,0a42.38,42.38,0,0,0,7.19-.68,17.91,17.91,0,0,0,10.75-5.74,2.56,2.56,0,0,1,2.24-1c2.72,0,5.45,0,8.17,0,.77,0,1.07-.17,1.07-1q0-12.71,0-25.42c0-.79-.22-1.06-1-1-2.92,0-5.85,0-8.78,0a2.38,2.38,0,0,1-1.35-.63c-1-.84-1.89-1.86-2.95-2.63-4.06-3-8.77-4-13.65-4.06-11.6-.12-23.21-.05-34.82-.06C300,482.63,299.87,482.67,299.66,482.69ZM265.35,470.9l9.81,10.92,9.88-11h-5.81v-1.32c0-5.58,0-11.15,0-16.73,0-1-.29-1.21-1.21-1.18-1.94.07-3.88.08-5.82,0-1,0-1.17.32-1.17,1.22,0,5.58,0,11.15,0,16.73v1.32ZM252,489.3h46.05v-4.95H252Zm.22,42.06h45.86v-4.77H252.22Z" transform="translate(-189.67 -351.94)"/><path d="M299.66,482.69c.21,0,.38-.06.54-.06,11.61,0,23.22-.06,34.82.06,4.88.06,9.59,1.1,13.65,4.06,1.06.77,1.94,1.79,2.95,2.63A2.38,2.38,0,0,0,353,490c2.93.06,5.86.06,8.78,0,.82,0,1,.25,1,1q0,12.71,0,25.42c0,.84-.3,1-1.07,1-2.72,0-5.45,0-8.17,0a2.56,2.56,0,0,0-2.24,1,17.91,17.91,0,0,1-10.75,5.74,42.38,42.38,0,0,1-7.19.68c-13.21.06-26.41,0-39.62,0a3.53,3.53,0,0,1-3.34-1.93,3.49,3.49,0,0,1,.19-3.77,3.63,3.63,0,0,1,3.23-1.6c6.84,0,13.68,0,20.52,0,.69,0,1.77.3,1.74-.82s-1.06-.71-1.72-.72H285.16a3.68,3.68,0,0,1-4-2.9,3.57,3.57,0,0,1,3-4.37,17.84,17.84,0,0,1,1.93-.11h28.29a2.5,2.5,0,0,0,.91,0,4.18,4.18,0,0,0,.82-.71c-.25-.27-.46-.63-.77-.78a2.42,2.42,0,0,0-1,0H279.75a3.62,3.62,0,0,1-2-6.69,5.3,5.3,0,0,1,2.42-.58c11.44,0,22.87,0,34.31,0,.67,0,1.64.27,1.64-.81s-1-.73-1.58-.73q-14.65,0-29.31,0a3.84,3.84,0,0,1-3.57-1.74,3.64,3.64,0,0,1,3.24-5.6c2.62,0,5.24,0,7.86,0h21.55a2,2,0,0,0,.81,0,7.23,7.23,0,0,0,1-.73c-.35-.27-.7-.77-1.07-.78-2.75-.06-5.51,0-8.27,0a7.36,7.36,0,0,1-7.13-6.21A2.94,2.94,0,0,1,299.66,482.69Z" transform="translate(-189.67 -351.94)"/><path d="M265.35,470.9h5.72v-1.32c0-5.58,0-11.15,0-16.73,0-.9.19-1.26,1.17-1.22,1.94.08,3.88.07,5.82,0,.92,0,1.22.22,1.21,1.18,0,5.58,0,11.15,0,16.73v1.32H285l-9.88,11Z" transform="translate(-189.67 -351.94)"/><path d="M252,489.3v-4.95h46.05v4.95Z" transform="translate(-189.67 -351.94)"/><path d="M252.22,531.36v-4.77h45.86v4.77Z" transform="translate(-189.67 -351.94)"/><rect class="cls-2" width="232" height="202.77"/></svg>