<svg id="レイヤー_1" data-name="レイヤー 1" xmlns="http://www.w3.org/2000/svg" xmlns:xlink="http://www.w3.org/1999/xlink" viewBox="0 0 28.35 28.35"><defs><style>.cls-1{fill:none;}.cls-2{clip-path:url(#clip-path);}.cls-3{fill:#231815;}</style><clipPath id="clip-path" transform="translate(-320.77 -491.76)"><rect class="cls-1" x="320.77" y="491.76" width="28.35" height="28.35"/></clipPath></defs><g class="cls-2"><path class="cls-3" d="M339.45,498.25a1.5,1.5,0,0,0-.73.19v-.28a1.53,1.53,0,0,0-1.53-1.52,1.47,1.47,0,0,0-.8.23,1.51,1.51,0,0,0-3,.34,1.52,1.52,0,0,0-2.27,1.33v9a.32.32,0,0,1-.25.28.34.34,0,0,1-.37-.13s-1.92-2.57-1.92-2.57a1.53,1.53,0,0,0-2.13-.31,1.5,1.5,0,0,0-.6,1,1.48,1.48,0,0,0,.25,1.08L329,511.6a9.24,9.24,0,0,0,1.45,1.89c.25.27,1.55,1.5,4.56,1.5h1.25a5.29,5.29,0,0,0,3.53-1.26,4.17,4.17,0,0,0,1.22-3.16v-10.8a1.53,1.53,0,0,0-1.53-1.52m.8,12.32c0,3.87-4,3.69-4,3.69H335c-2.94,0-4-1.28-4-1.28a8.76,8.76,0,0,1-1.35-1.75l-2.84-4.72a.81.81,0,0,1,.16-1.12.8.8,0,0,1,1.12.17l1.92,2.57a1.09,1.09,0,0,0,1.12.4,1.07,1.07,0,0,0,.81-.94v-9a.8.8,0,1,1,1.59,0v6h.67V497.3a.8.8,0,1,1,1.59,0v7.21h.66v-6.35a.8.8,0,0,1,1.6,0v7.29h.66v-5.68a.8.8,0,0,1,1.6,0Z" transform="translate(-320.77 -491.76)"/><path class="cls-3" d="M333.39,507.11l-.13-.26-.13.26a6.38,6.38,0,0,0-.79,1.84.92.92,0,1,0,1.84,0,6.38,6.38,0,0,0-.79-1.84m-.13,2.54a.64.64,0,0,1-.64-.64,4.54,4.54,0,0,1,.64-1.45,3.94,3.94,0,0,1,.64,1.39.7.7,0,0,1-.64.7" transform="translate(-320.77 -491.76)"/><path class="cls-3" d="M336,510.56l-.13-.26-.13.26a6.5,6.5,0,0,0-.79,1.84.92.92,0,1,0,1.84,0,6.5,6.5,0,0,0-.79-1.84m-.13,2.55a.64.64,0,0,1-.64-.64,4.45,4.45,0,0,1,.64-1.45,4.08,4.08,0,0,1,.64,1.38.71.71,0,0,1-.64.71" transform="translate(-320.77 -491.76)"/><path class="cls-3" d="M342.05,500.79l-.28-.08.11.27a6.6,6.6,0,0,0,.81,1.84.93.93,0,1,0,1.25-1.36,6.63,6.63,0,0,0-1.89-.67m1.78,1.83a.64.64,0,0,1-.9,0,4.53,4.53,0,0,1-.63-1.46,4.18,4.18,0,0,1,1.45.48.7.7,0,0,1,.08.95" transform="translate(-320.77 -491.76)"/><path class="cls-3" d="M342.05,504.15l-.28-.08.11.27a6.55,6.55,0,0,0,.81,1.83.92.92,0,1,0,1.25-1.35,6.34,6.34,0,0,0-1.89-.67m1.78,1.82a.63.63,0,0,1-.9,0,4.63,4.63,0,0,1-.63-1.46,4.18,4.18,0,0,1,1.45.48.69.69,0,0,1,.08.94" transform="translate(-320.77 -491.76)"/><path class="cls-3" d="M342,507.67l-.24-.15,0,.29a6.47,6.47,0,0,0,.32,2,1,1,0,0,0,1.32.37,1,1,0,0,0,.24-1.35c-.29-.46-1.39-.94-1.66-1.14m1.25,2.22a.64.64,0,0,1-.88-.19,4.47,4.47,0,0,1-.23-1.58,4.18,4.18,0,0,1,1.28.84.7.7,0,0,1-.17.93" transform="translate(-320.77 -491.76)"/><path class="cls-3" d="M345,495.91a14.17,14.17,0,1,0,4.15,10,14.18,14.18,0,0,0-4.15-10m-8.66,21.28A11.35,11.35,0,0,1,326,498.93l.15-.17,15.94,15.94a11.3,11.3,0,0,1-5.8,2.49m7.56-4.26c-.05.06-.11.11-.15.17l-16-15.94a11.34,11.34,0,0,1,16.1,15.77" transform="translate(-320.77 -491.76)"/></g></svg>