<?xml version="1.0" standalone="no"?>

<svg version="1.0" xmlns="http://www.w3.org/2000/svg"
 width="512" height="512" viewBox="0 0 350 350"
 preserveAspectRatio="xMidYMid meet">

<g transform="translate(-220.000000,420.000000) scale(0.100000,-0.100000)"
fill="#000000" stroke="none">
<path d="M2780 2500 l0 -1180 315 0 315 0 0 95 0 95 -215 0 -215 0 0 990 0
990 215 0 215 0 0 95 0 95 -315 0 -315 0 0 -1180z"/>
<path d="M4090 3585 l0 -95 215 0 215 0 0 -990 0 -990 -215 0 -215 0 0 -95 0
-95 315 0 315 0 0 1180 0 1180 -315 0 -315 0 0 -95z"/>
</g>
</svg>
