<?xml version="1.0" encoding="utf-8"?>
<!-- Generator: Adobe Illustrator 25.4.2, SVG Export Plug-In . SVG Version: 6.00 Build 0)  -->
<svg version="1.1" id="レイヤー_1" xmlns="http://www.w3.org/2000/svg" xmlns:xlink="http://www.w3.org/1999/xlink" x="0px"
	 y="0px" viewBox="0 0 512 512" style="enable-background:new 0 0 512 512;" xml:space="preserve">
<style type="text/css">
	.st0{fill:#231815;}
	.st1{fill:none;stroke:#FFFFFF;stroke-width:18.8097;}
	.st2{fill:#00A0E9;}
	.st3{fill:#FFFFFF;}
</style>
<g id="icomoon-ignore">
</g>
<path class="st0" d="M288.5,82.8h-0.1c-2.5,0-4.6-1.4-5.6-3.5l0,0c-0.4-0.8-0.6-1.7-0.6-2.7c0-2.5,1.4-4.6,3.4-5.6l0,0
	c3.4-1.7,7.5-3.2,11.6-4.3l0.4-0.1l2.2,5.9l1.2,6.2c-3.8,1-7.1,2.2-10.2,3.8l0.3-0.1c-0.4,0.1-0.9,0.1-1.3,0.1s-0.9,0-1.4-0.1l0,0
	L288.5,82.8z M346.8,84.6c-0.5,0.1-1,0.2-1.6,0.2s-1.1-0.1-1.6-0.2l0,0c-2.8-1.6-6-3.2-9.4-4.5l-0.5-0.2c-2.5-0.8-4.2-3.1-4.2-5.8
	c0-0.8,0.1-1.5,0.4-2.2l0,0c0.8-2.5,3.1-4.2,5.8-4.2c0.8,0,1.5,0.1,2.2,0.4l0,0c4.7,1.7,8.8,3.5,12.6,5.7l-0.4-0.2
	c1.8,1.1,3.1,3.1,3.1,5.4c0,1.2-0.3,2.3-0.9,3.2l0,0c-1.1,1.9-3.1,3.2-5.4,3.2l0,0L346.8,84.6z M369.4,119
	c-1.1-3.9-2.3-7.3-3.9-10.5l0.2,0.4c-0.5-0.8-0.7-1.8-0.7-2.9c0-2.4,1.5-4.5,3.5-5.5l0,0c0.8-0.4,1.7-0.6,2.7-0.6
	c2.5,0,4.6,1.4,5.6,3.4l0,0c1.7,3.4,3.2,7.5,4.4,11.7l0.1,0.5l-6,2L369.4,119z M257,119h-2.2c-2.5-1-4.2-3.3-4.2-6.1
	c0-0.7,0.1-1.4,0.3-2l0,0c1.7-4.6,3.6-8.6,5.9-12.4l-0.2,0.3c1.1-1.9,3.1-3.2,5.4-3.2c1.2,0,2.2,0.3,3.2,0.9l0,0
	c1.8,1.1,3.1,3.1,3.1,5.4c0,1.2-0.3,2.3-0.9,3.2l0,0c-1.7,2.9-3.2,6.2-4.4,9.7l-0.1,0.4c-0.9,2.4-3.2,4.1-5.9,4.2l0,0L257,119z
	 M260,167.2L260,167.2c-2.5,0-4.6-1.4-5.7-3.5l0,0c-1.8-3.6-3.4-7.7-4.6-12.1l-0.1-0.5l5.9-2.2l6-1.7c1,3.9,2.4,7.3,4,10.5l-0.1-0.3
	c0.4,0.8,0.7,1.8,0.7,2.8c0,2.4-1.4,4.6-3.5,5.6l0,0c-0.4,0.1-0.9,0.2-1.3,0.2s-0.9-0.1-1.4-0.2l0,0L260,167.2z M368.9,169.4
	c-0.1,0-0.1,0-0.2,0c-1.1,0-2-0.3-2.9-0.9l0,0c-1.9-1.1-3.2-3.1-3.2-5.4c0-1.2,0.3-2.2,0.9-3.2l0,0c1.7-2.8,3.2-6.1,4.4-9.5l0.1-0.4
	c0.9-2.5,3.2-4.3,6-4.3c3.5,0,6.3,2.8,6.3,6.3c0,0.7-0.1,1.4-0.3,2.1l0,0c-1.7,4.8-3.6,8.8-5.7,12.6l0.2-0.4c-1.1,1.8-3.1,3-5.4,3
	C369,169.4,369,169.4,368.9,169.4L368.9,169.4L368.9,169.4z M295.4,197.1c-0.3,0.1-0.6,0.1-1,0.1s-0.7,0-1-0.1l0,0
	c-4.6-1.5-8.6-3.4-12.3-5.7l0.2,0.1c-1.9-1.1-3.2-3.1-3.2-5.4c0-1.2,0.3-2.2,0.9-3.2l0,0c1-1.9,3-3.1,5.3-3.1c1.2,0,2.3,0.4,3.3,1
	l0,0c2.8,1.6,6.1,3.1,9.5,4.2l0.4,0.1c2.5,0.9,4.3,3.2,4.3,6c0,0.7-0.1,1.4-0.3,2.1l0,0c-1,2.5-3.3,4.2-6,4.2l0,0L295.4,197.1z
	 M331.6,198.9c-2.9,0-5.3-1.9-6.2-4.5l0,0c-0.1-0.5-0.2-1-0.2-1.6c0-2.9,1.9-5.3,4.5-6.1l0,0h1.8c3.7-1.2,6.7-2.4,9.7-3.9l-0.4,0.2
	c0.8-0.4,1.7-0.6,2.7-0.6c2.5,0,4.6,1.4,5.6,3.4l0,0c0.4,0.8,0.7,1.8,0.7,2.8c0,2.4-1.4,4.6-3.5,5.6l0,0c-3.4,1.7-7.5,3.3-11.7,4.6
	l-0.5,0.1H331.6L331.6,198.9z"/>
<path class="st1" d="M314.8,76.6c-30.8,0-55.7,25-55.7,55.8c0,5.2,0.7,10.2,2,15L261,147c4,14.5,13.4,26.3,25.9,33.4l0.3,0.1
	c8,4.7,17.5,7.5,27.8,7.5c5.1,0,10.1-0.7,14.9-2l-0.4,0.1c24.1-6.5,41.6-28.2,41.6-54c0-30.8-25-55.8-55.8-55.8c-0.1,0-0.3,0-0.4,0
	l0,0 M314.8,200.4c-37.6-0.1-68-30.6-68-68.2c0-37.7,30.5-68.2,68.2-68.2s68.2,30.5,68.2,68.2c0,31.4-21.2,57.8-50,65.8l-0.5,0.1
	C327.4,199.5,321.2,200.4,314.8,200.4L314.8,200.4"/>
<path class="st2" d="M314.8,76.6c-30.8,0-55.7,25-55.7,55.8c0,5.2,0.7,10.2,2,15L261,147c4,14.5,13.4,26.3,25.9,33.4l0.3,0.1
	c8,4.7,17.5,7.5,27.8,7.5c5.1,0,10.1-0.7,14.9-2l-0.4,0.1c24.1-6.5,41.6-28.2,41.6-54c0-30.8-25-55.8-55.8-55.8c-0.1,0-0.3,0-0.4,0
	l0,0L314.8,76.6z M314.8,200.4c-37.6-0.1-68-30.6-68-68.2c0-37.7,30.5-68.2,68.2-68.2s68.2,30.5,68.2,68.2c0,31.4-21.2,57.8-50,65.8
	l-0.5,0.1C327.4,199.5,321.2,200.4,314.8,200.4L314.8,200.4L314.8,200.4z"/>
<path class="st3" d="M165,272.2c7.8,0.3,14.7,3.7,19.8,8.9l0,0c4.2-12.1,15.4-20.6,28.7-20.6l0,0c0.1,0,0.1,0,0.2,0
	c8.3,0,15.8,3.4,21.2,8.9l0,0c4.2-12.1,15.4-20.6,28.7-20.6l0,0c7.7,0,14.8,3,20.1,7.7l0,0v-93.9l0,0c0-16.7,13.5-30.2,30.2-30.2
	c2,0,3.9,0.2,5.7,0.5h-0.2c14.3,3.1,24.8,15.7,24.8,30.7c0,0.3,0,0.6,0,0.9l0,0v143.8h6.2c15.6,0.1,28.2,12.7,28.2,28.3
	c0,0.2,0,0.4,0,0.5l0,0V383c0.1,1.4,0.1,2.9,0.1,4.5c0,67.8-54.9,122.7-122.7,122.7s-122.7-54.9-122.7-122.7c0-1.6,0-3.2,0.1-4.8
	v0.2V304c0-0.2,0-0.3,0-0.5c0-17.3,14-31.3,31.3-31.3c0.2,0,0.5,0,0.7,0l0,0H165z"/>
<path class="st3" d="M337.9,164.4v92h-48.1v-93.9c0.3-13.3,11.1-24,24.5-24c1.4,0,2.8,0.1,4.2,0.4h-0.1
	c11.3,2.7,19.6,12.8,19.6,24.8C337.9,163.9,337.9,164.2,337.9,164.4L337.9,164.4L337.9,164.4z"/>
<path class="st3" d="M263.5,254.9c6.1,0,11.7,2.4,15.9,6.2l0,0c1.1,1,2.7,1.6,4.3,1.6c0.9,0,1.7-0.2,2.4-0.5l0,0
	c2.2-1,3.7-3.2,3.7-5.8v-0.1l0,0h48.1v51.8c0,3.4,2.8,6.2,6.2,6.2l0,0h6.2l0,0c6.2,0,11.8,2.6,15.7,6.7l0,0c3.8,4,6.2,9.4,6.2,15.4
	c0,0.2,0,0.4,0,0.6l0,0v45.9c0,64.2-52.1,116.3-116.3,116.3s-116.3-52.1-116.3-116.3V304c0-7.5,3.2-14.3,8.2-19.1l0,0
	c4.2-4,9.9-6.5,16.2-6.5c0.2,0,0.4,0,0.6,0l0,0H164c6.2,0.4,11.7,3.1,15.7,7.2l0,0c1.1,1.2,2.7,1.9,4.5,1.9c2.8,0,5.1-1.8,5.9-4.4
	l0,0c3.2-9.6,12.1-16.5,22.6-16.5c6.7,0,12.8,2.8,17.1,7.2l0,0c1.1,1.1,2.7,1.8,4.4,1.8c0.5,0,1-0.1,1.5-0.2l0,0
	c2.1-0.6,3.8-2.1,4.5-4.1l0,0c3.2-9.6,12.1-16.4,22.6-16.4C263.1,254.9,263.3,254.9,263.5,254.9L263.5,254.9L263.5,254.9z"/>
<path class="st0" d="M263.5,242.3c5,0,9.8,1.1,14.1,2.9l-0.2-0.1v-82.6v-0.1c0-11.1,5-21,12.9-27.7h0.1c6.3-5.4,14.6-8.6,23.6-8.6
	c2.3,0,4.5,0.2,6.6,0.6h-0.2c17.3,3.7,30.2,18.9,30.2,37.1c0,0.2,0,0.4,0,0.7l0,0V302c0.3,0,0.6,0,0.9,0c18.5,0,33.5,15,33.5,33.5
	c0,0.6,0,1.2,0,1.8v-0.1v45.9c0,71.2-57.7,128.9-128.9,128.9s-128.9-57.7-128.9-128.9l0,0v-78.9c0-11.1,4.7-21.1,12.2-28.1l0,0
	c6.1-6.2,14.5-10,23.9-10c0.9,0,2.2,0.1,2.5,0.1l0,0c10.6-0.4,17.2,4.5,18.7,4.5c1.2,0,13.4-16.3,29.3-16.3h0.1
	c7.1,0,13.8,1.9,19.4,5.5l-0.2-0.1C239.4,249.4,250.6,242.5,263.5,242.3L263.5,242.3L263.5,242.3z M279.4,261.1
	c-4.2-3.9-9.8-6.3-16-6.3c-10.5,0-19.4,6.8-22.5,16.3v0.2c-0.8,2-2.4,3.6-4.5,4.2l0,0c-0.4,0.1-0.9,0.2-1.4,0.2
	c-1.7,0-3.3-0.7-4.4-1.8l0,0c-4.3-4.5-10.4-7.2-17.1-7.2c-10.5,0-19.4,6.8-22.6,16.3v0.2c-0.8,2.6-3.2,4.4-5.9,4.4
	c-1.7,0-3.3-0.7-4.5-1.9l0,0c-4-4.2-9.5-6.8-15.7-7.2h-0.1H164c-0.2,0-0.4,0-0.6,0c-6.3,0-12,2.5-16.2,6.5l0,0
	c-5,4.8-8.2,11.6-8.2,19.1v79.3c0,64.2,52.1,116.3,116.3,116.3s116.3-52.1,116.3-116.3v-45.9c0-0.2,0-0.4,0-0.6
	c0-6-2.4-11.4-6.2-15.4l0,0c-4-4.1-9.5-6.7-15.7-6.7l0,0h-6.2c-3.4,0-6.2-2.8-6.2-6.2l0,0V164.7c0-0.2,0-0.4,0-0.7
	c0-12-8.3-22-19.4-24.8h-0.2c-1.2-0.2-2.6-0.3-4-0.3c-13.3,0-24.2,10.7-24.5,23.9l0,0v93.9v0.1c0,2.5-1.5,4.7-3.6,5.8l0,0
	c-0.5,0.1-1,0.2-1.6,0.2C282.2,262.8,280.6,262.2,279.4,261.1L279.4,261.1L279.4,261.1z"/>
<path class="st0" d="M234.9,314.4c-3.4,0-6.2-2.8-6.2-6.2l0,0V266c0.5-3,3.1-5.3,6.3-5.3s5.8,2.3,6.3,5.3l0,0v41.6l0,0
	c0,3.4-2.9,6.8-6.3,6.8C234.9,314.4,235,314.4,234.9,314.4L234.9,314.4L234.9,314.4L234.9,314.4z"/>
<path class="st0" d="M184.7,314.4c-3.4,0-6.2-2.8-6.2-6.2l0,0V276c0.5-3,3.1-5.3,6.3-5.3s5.8,2.3,6.3,5.3l0,0v32.2l0,0
	c0,3.4-2.8,6.2-6.2,6.2C184.9,314.4,184.8,314.4,184.7,314.4L184.7,314.4L184.7,314.4z"/>
<path class="st0" d="M283.6,314.4c-0.1,0-0.1,0-0.2,0c-3.3,0-6-2.7-6-6c0-0.1,0-0.1,0-0.2l0,0v-51.8c0-3.4,2.8-6.2,6.2-6.2
	s6.2,2.8,6.2,6.2v51.8c0,0.1,0,0.1,0,0.2c0,3.3-2.7,6-6,6C283.7,314.4,283.7,314.4,283.6,314.4L283.6,314.4L283.6,314.4z"/>
<path class="st0" d="M344.1,397.4c-3.4-0.1-6.2-2.9-6.2-6.4l0,0l0,0V287.4c0.5-3,3.1-5.3,6.3-5.3s5.8,2.3,6.3,5.3l0,0V391
	C350.5,394.5,347.7,397.4,344.1,397.4L344.1,397.4L344.1,397.4z"/>
</svg>
