<svg id="レイヤー_1" data-name="レイヤー 1" xmlns="http://www.w3.org/2000/svg" width="174.39mm" height="174.59mm" viewBox="0 0 494.34 494.91"><defs><style>.cls-1,.cls-10,.cls-11,.cls-12,.cls-13,.cls-14,.cls-15,.cls-16,.cls-17,.cls-2,.cls-20,.cls-21,.cls-22,.cls-4,.cls-5,.cls-9{fill:none;}.cls-1,.cls-12,.cls-14,.cls-16,.cls-17,.cls-18,.cls-19,.cls-2,.cls-21,.cls-23,.cls-4,.cls-5,.cls-8,.cls-9{stroke:#000;}.cls-1,.cls-10,.cls-11,.cls-12,.cls-13,.cls-15,.cls-16,.cls-21,.cls-22,.cls-9{stroke-miterlimit:10;}.cls-1{stroke-width:6.08px;}.cls-2,.cls-20{stroke-linecap:round;stroke-linejoin:round;}.cls-2,.cls-4,.cls-5,.cls-8,.cls-9{stroke-width:1.11px;}.cls-18,.cls-19,.cls-3{fill:#bfbfbf;}.cls-5{stroke-miterlimit:2;}.cls-6,.cls-8{fill:#fff;}.cls-23,.cls-7{fill:#ccc;}.cls-10{stroke:#231815;stroke-width:7.38px;}.cls-11,.cls-13,.cls-15,.cls-22{stroke:#ccc;}.cls-11{stroke-width:4.53px;}.cls-12{stroke-width:5.68px;}.cls-13{stroke-width:2.84px;}.cls-14,.cls-23{stroke-width:1.22px;}.cls-15{stroke-width:3.04px;}.cls-16{stroke-width:1.38px;}.cls-17,.cls-18{stroke-width:1.3px;}.cls-19{stroke-width:0.87px;}.cls-20{stroke:#040000;stroke-width:1.61px;}.cls-21{stroke-width:11.07px;}.cls-22{stroke-width:8.25px;}.cls-24{fill:#231815;}</style></defs><path class="cls-1" d="M187.77,166.07v35a4,4,0,0,1-3.94,3.93H83.2A4,4,0,0,0,79.26,209v9.36"/><path d="M34.63,368.78h1v4.79H38v.86H34.63Z"/><path d="M40,374.76l2-6.07h.72l-2,6.07Z"/><path d="M49.82,372.12c0-.72-.08-1.6-.07-2.37h0c-.19.69-.42,1.45-.67,2.17l-.82,2.44h-.8L46.69,372c-.22-.72-.42-1.49-.57-2.2h0c0,.74-.06,1.64-.1,2.41l-.13,2.27h-1l.38-5.65h1.36l.73,2.27c.2.67.38,1.34.52,2h0c.15-.61.34-1.3.56-2l.78-2.26h1.34l.32,5.65h-1Z"/><path d="M57,371.55a2.67,2.67,0,0,1-2.7,3,2.6,2.6,0,0,1-2.6-2.87,2.71,2.71,0,0,1,2.68-3A2.61,2.61,0,0,1,57,371.55Zm-4.21.08c0,1.15.58,2.07,1.56,2.07s1.56-.93,1.56-2.11-.53-2.08-1.56-2.08S52.78,370.47,52.78,371.63Z"/><path d="M57.88,374.43v-5.65h1.17l1.46,2.42a14.74,14.74,0,0,1,1,1.9h0c-.07-.76-.09-1.49-.09-2.35v-2h1v5.65H61.29l-1.47-2.49a18,18,0,0,1-1-1.94h0c0,.72,0,1.47,0,2.4v2Z"/><path d="M68.55,371.55a2.67,2.67,0,0,1-2.7,3,2.61,2.61,0,0,1-2.6-2.87,2.71,2.71,0,0,1,2.68-3A2.61,2.61,0,0,1,68.55,371.55Zm-4.21.08c0,1.15.58,2.07,1.57,2.07s1.55-.93,1.55-2.11-.52-2.08-1.55-2.08S64.34,370.47,64.34,371.63Z"/><path d="M204.62,368.78h1v4.79H208v.86h-3.35Z"/><path d="M210,374.76l2-6.07h.72l-2,6.07Z"/><path d="M219.81,372.12c0-.72-.08-1.6-.07-2.37h0c-.19.69-.42,1.45-.67,2.17l-.82,2.44h-.8l-.75-2.41c-.22-.72-.42-1.49-.57-2.2h0c0,.74-.06,1.64-.1,2.41l-.12,2.27h-1l.38-5.65h1.36l.73,2.27c.2.67.38,1.34.52,2h0c.15-.61.34-1.3.56-2l.78-2.26h1.34l.33,5.65h-1Z"/><path d="M227,371.55a2.67,2.67,0,0,1-2.7,3,2.61,2.61,0,0,1-2.6-2.87,2.71,2.71,0,0,1,2.68-3A2.61,2.61,0,0,1,227,371.55Zm-4.21.08c0,1.15.58,2.07,1.57,2.07s1.55-.93,1.55-2.11-.52-2.08-1.55-2.08S222.77,370.47,222.77,371.63Z"/><path d="M227.87,374.43v-5.65H229l1.46,2.42a16.25,16.25,0,0,1,1,1.9h0c-.07-.76-.09-1.49-.09-2.35v-2h1v5.65h-1.06l-1.47-2.49a20,20,0,0,1-1-1.94h0c0,.72,0,1.47,0,2.4v2Z"/><path d="M238.54,371.55a2.66,2.66,0,0,1-2.7,3,2.61,2.61,0,0,1-2.6-2.87,2.71,2.71,0,0,1,2.68-3A2.61,2.61,0,0,1,238.54,371.55Zm-4.21.08c0,1.15.58,2.07,1.57,2.07s1.56-.93,1.56-2.11-.53-2.08-1.56-2.08S234.33,370.47,234.33,371.63Z"/><path d="M105.92,369.19a11,11,0,0,1,1.56-.11,2.59,2.59,0,0,1,1.74.45,1.43,1.43,0,0,1,.49,1.13,1.5,1.5,0,0,1-1,1.41v0a1.44,1.44,0,0,1,.78,1.09,10.94,10.94,0,0,0,.45,1.57h-1.07a8.24,8.24,0,0,1-.37-1.33c-.16-.74-.43-1-1-1h-.52v2.32h-1Zm1,2.5h.62c.69,0,1.13-.37,1.13-.93s-.44-.91-1.11-.91a2.57,2.57,0,0,0-.64.06Z"/><path d="M272.38,369.19a11,11,0,0,1,1.56-.11,2.59,2.59,0,0,1,1.74.45,1.43,1.43,0,0,1,.49,1.13,1.5,1.5,0,0,1-1,1.41v0a1.44,1.44,0,0,1,.78,1.09,10.94,10.94,0,0,0,.45,1.57h-1.07a8.24,8.24,0,0,1-.37-1.33c-.16-.74-.43-1-1-1h-.53v2.32h-1Zm1,2.5H274c.69,0,1.13-.37,1.13-.93s-.44-.91-1.11-.91a2.63,2.63,0,0,0-.64.06Z"/><path class="cls-2" d="M232.71,339.48a11.13,11.13,0,1,0-11.13,11.13,11.13,11.13,0,0,0,11.13-11.13Z"/><path class="cls-2" d="M237.42,339.48a15.84,15.84,0,1,0-15.84,15.84,15.84,15.84,0,0,0,15.84-15.84Z"/><path class="cls-2" d="M285.51,339.48a11.13,11.13,0,1,0-11.13,11.13,11.13,11.13,0,0,0,11.13-11.13Z"/><path class="cls-2" d="M290.22,339.48a15.84,15.84,0,1,0-15.84,15.84,15.84,15.84,0,0,0,15.84-15.84Z"/><path class="cls-2" d="M62.72,339.48a11.13,11.13,0,1,0-11.13,11.13,11.13,11.13,0,0,0,11.13-11.13Z"/><path class="cls-2" d="M67.43,339.48a15.84,15.84,0,1,0-15.84,15.84,15.84,15.84,0,0,0,15.84-15.84Z"/><path class="cls-2" d="M119.05,339.48a11.13,11.13,0,1,0-11.13,11.13,11.13,11.13,0,0,0,11.13-11.13Z"/><path class="cls-2" d="M123.76,339.48a15.84,15.84,0,1,0-15.84,15.84,15.84,15.84,0,0,0,15.84-15.84Z"/><rect class="cls-3" x="224.84" y="441.75" width="63.25" height="44.43"/><path class="cls-4" d="M213.7,448h1.94m-6.32,0a3.53,3.53,0,1,0,3.53-3.52A3.52,3.52,0,0,0,209.32,448Zm2.3,34.67a1.33,1.33,0,1,0,1.33-1.32A1.33,1.33,0,0,0,211.62,482.66Zm8.77-7h1.1v-3.08h-1.1Zm-.11,4.8h1.32v-8.1h-1.32Zm.12-6.34h1.08m3.36,12.08V441.75H287a.88.88,0,0,1,.88.88V485.3a.88.88,0,0,1-.88.88Zm0-44.43h-19a.88.88,0,0,0-.89.88V485.3a.88.88,0,0,0,.89.88h18.95M205,487.5a1.76,1.76,0,0,0,1.76,1.76h82.49A1.76,1.76,0,0,0,291,487.5V440.43a1.76,1.76,0,0,0-1.76-1.76H206.74a1.76,1.76,0,0,0-1.76,1.76Z"/><path d="M214.83,444.18a.22.22,0,1,0,.22-.22A.22.22,0,0,0,214.83,444.18Z"/><path class="cls-4" d="M214.83,444.18a.22.22,0,1,0,.22-.22A.22.22,0,0,0,214.83,444.18Z"/><path d="M212.63,443.6a.21.21,0,0,0,.22.21.21.21,0,0,0,.21-.21.22.22,0,1,0-.43,0Z"/><path class="cls-4" d="M212.63,443.6a.21.21,0,0,0,.22.21.21.21,0,0,0,.21-.21.22.22,0,1,0-.43,0Z"/><path d="M216.44,445.79a.22.22,0,0,0,.22.22.22.22,0,0,0,0-.44A.22.22,0,0,0,216.44,445.79Z"/><path class="cls-4" d="M216.44,445.79a.22.22,0,0,0,.22.22.22.22,0,0,0,0-.44A.22.22,0,0,0,216.44,445.79Z"/><path d="M217,448a.22.22,0,1,0,.44,0,.22.22,0,1,0-.44,0Z"/><path class="cls-4" d="M217,448a.22.22,0,1,0,.44,0,.22.22,0,1,0-.44,0Z"/><path d="M216.45,450.2a.22.22,0,0,0,.44,0,.22.22,0,0,0-.44,0Z"/><path class="cls-4" d="M216.45,450.2a.22.22,0,0,0,.44,0,.22.22,0,0,0-.44,0Z"/><path d="M214.83,451.8a.22.22,0,1,0,.44,0,.22.22,0,1,0-.44,0Z"/><path class="cls-4" d="M214.83,451.8a.22.22,0,1,0,.44,0,.22.22,0,1,0-.44,0Z"/><path d="M212.63,452.39a.21.21,0,0,0,.22.22.22.22,0,0,0,.22-.22.22.22,0,0,0-.22-.22A.22.22,0,0,0,212.63,452.39Z"/><path class="cls-4" d="M212.63,452.39a.21.21,0,0,0,.22.22.22.22,0,0,0,.22-.22.22.22,0,0,0-.22-.22A.22.22,0,0,0,212.63,452.39Z"/><path d="M210.42,451.8a.22.22,0,1,0,.22-.22A.22.22,0,0,0,210.42,451.8Z"/><path class="cls-4" d="M210.42,451.8a.22.22,0,1,0,.22-.22A.22.22,0,0,0,210.42,451.8Z"/><path d="M210.42,444.18a.22.22,0,1,0,.44,0,.22.22,0,0,0-.44,0Z"/><path class="cls-4" d="M210.42,444.18a.22.22,0,1,0,.44,0,.22.22,0,0,0-.44,0Z"/><path d="M208.69,450.19a.33.33,0,0,0,.33.33.33.33,0,0,0,0-.66A.33.33,0,0,0,208.69,450.19Z"/><path class="cls-4" d="M208.69,450.19a.33.33,0,0,0,.33.33.33.33,0,0,0,0-.66A.33.33,0,0,0,208.69,450.19Z"/><path d="M208.7,445.79a.33.33,0,0,0,.66,0,.33.33,0,0,0-.66,0Z"/><path class="cls-4" d="M208.7,445.79a.33.33,0,0,0,.66,0,.33.33,0,0,0-.66,0Z"/><path class="cls-5" d="M210.52,482.85l-.16.74m-1.06-.74.16.74m1-.3a.9.9,0,0,0,.34-.7.87.87,0,1,0-1.74,0,.9.9,0,0,0,.35.71"/><path d="M212.28,482.66a.67.67,0,0,0,1.33,0,.67.67,0,0,0-1.33,0Z"/><path class="cls-4" d="M212.28,482.66a.67.67,0,0,0,1.33,0,.67.67,0,0,0-1.33,0Z"/><path class="cls-4" d="M212.62,468.48h1.24m-4,0a2.26,2.26,0,1,0,2.25-2.25A2.25,2.25,0,0,0,209.82,468.48Z"/><path d="M213.34,466a.14.14,0,1,0,.14-.14A.14.14,0,0,0,213.34,466Z"/><path class="cls-4" d="M213.34,466a.14.14,0,1,0,.14-.14A.14.14,0,0,0,213.34,466Z"/><path d="M211.93,465.66a.14.14,0,0,0,.28,0,.14.14,0,0,0-.28,0Z"/><path class="cls-4" d="M211.93,465.66a.14.14,0,0,0,.28,0,.14.14,0,0,0-.28,0Z"/><path d="M214.37,467.07a.14.14,0,1,0,.14-.14A.14.14,0,0,0,214.37,467.07Z"/><path class="cls-4" d="M214.37,467.07a.14.14,0,1,0,.14-.14A.14.14,0,0,0,214.37,467.07Z"/><path d="M214.76,468.48a.14.14,0,1,0,.14-.14A.14.14,0,0,0,214.76,468.48Z"/><path class="cls-4" d="M214.76,468.48a.14.14,0,1,0,.14-.14A.14.14,0,0,0,214.76,468.48Z"/><path d="M214.38,469.89a.14.14,0,1,0,.28,0,.14.14,0,1,0-.28,0Z"/><path class="cls-4" d="M214.38,469.89a.14.14,0,1,0,.28,0,.14.14,0,1,0-.28,0Z"/><path d="M213.34,470.92a.14.14,0,1,0,.14-.14A.14.14,0,0,0,213.34,470.92Z"/><path class="cls-4" d="M213.34,470.92a.14.14,0,1,0,.14-.14A.14.14,0,0,0,213.34,470.92Z"/><path d="M211.93,471.3a.14.14,0,1,0,.28,0,.14.14,0,1,0-.28,0Z"/><path class="cls-4" d="M211.93,471.3a.14.14,0,1,0,.28,0,.14.14,0,1,0-.28,0Z"/><path d="M210.52,470.92a.14.14,0,1,0,.14-.14A.14.14,0,0,0,210.52,470.92Z"/><path class="cls-4" d="M210.52,470.92a.14.14,0,1,0,.14-.14A.14.14,0,0,0,210.52,470.92Z"/><path d="M210.52,466a.14.14,0,1,0,.14-.14A.14.14,0,0,0,210.52,466Z"/><path class="cls-4" d="M210.52,466a.14.14,0,1,0,.14-.14A.14.14,0,0,0,210.52,466Z"/><path d="M209.41,469.89a.21.21,0,0,0,.21.2.2.2,0,0,0,.21-.2.21.21,0,0,0-.21-.22A.22.22,0,0,0,209.41,469.89Z"/><path class="cls-4" d="M209.41,469.89a.21.21,0,0,0,.21.2.2.2,0,0,0,.21-.2.21.21,0,0,0-.21-.22A.22.22,0,0,0,209.41,469.89Z"/><path d="M209.42,467.07a.21.21,0,0,0,.21.21.21.21,0,1,0,0-.42A.21.21,0,0,0,209.42,467.07Z"/><path class="cls-4" d="M209.42,467.07a.21.21,0,0,0,.21.21.21.21,0,1,0,0-.42A.21.21,0,0,0,209.42,467.07Z"/><path class="cls-4" d="M212.39,459.71h1.23m-4,0a2.26,2.26,0,1,0,2.26-2.25A2.26,2.26,0,0,0,209.58,459.71Z"/><path d="M213.11,457.27a.14.14,0,0,0,.14.14.14.14,0,0,0,0-.28A.14.14,0,0,0,213.11,457.27Z"/><path class="cls-4" d="M213.11,457.27a.14.14,0,0,0,.14.14.14.14,0,0,0,0-.28A.14.14,0,0,0,213.11,457.27Z"/><path d="M211.69,456.89a.15.15,0,0,0,.14.15.15.15,0,0,0,.15-.15.15.15,0,0,0-.15-.14A.15.15,0,0,0,211.69,456.89Z"/><path class="cls-4" d="M211.69,456.89a.15.15,0,0,0,.14.15.15.15,0,0,0,.15-.15.15.15,0,0,0-.15-.14A.15.15,0,0,0,211.69,456.89Z"/><path d="M214.14,458.3a.14.14,0,1,0,.14-.14A.14.14,0,0,0,214.14,458.3Z"/><path class="cls-4" d="M214.14,458.3a.14.14,0,1,0,.14-.14A.14.14,0,0,0,214.14,458.3Z"/><path d="M214.52,459.71a.14.14,0,0,0,.14.14.14.14,0,1,0,0-.28A.14.14,0,0,0,214.52,459.71Z"/><path class="cls-4" d="M214.52,459.71a.14.14,0,0,0,.14.14.14.14,0,1,0,0-.28A.14.14,0,0,0,214.52,459.71Z"/><path d="M214.14,461.12a.14.14,0,0,0,.15.14.14.14,0,0,0,0-.28A.14.14,0,0,0,214.14,461.12Z"/><path class="cls-4" d="M214.14,461.12a.14.14,0,0,0,.15.14.14.14,0,0,0,0-.28A.14.14,0,0,0,214.14,461.12Z"/><path d="M213.11,462.15a.14.14,0,1,0,.14-.14A.14.14,0,0,0,213.11,462.15Z"/><path class="cls-4" d="M213.11,462.15a.14.14,0,1,0,.14-.14A.14.14,0,0,0,213.11,462.15Z"/><path d="M211.69,462.53a.15.15,0,0,0,.14.14.15.15,0,0,0,.15-.14.14.14,0,0,0-.15-.14A.14.14,0,0,0,211.69,462.53Z"/><path class="cls-4" d="M211.69,462.53a.15.15,0,0,0,.14.14.15.15,0,0,0,.15-.14.14.14,0,0,0-.15-.14A.14.14,0,0,0,211.69,462.53Z"/><circle cx="210.42" cy="462.15" r="0.14"/><circle class="cls-4" cx="210.42" cy="462.15" r="0.14"/><path d="M210.29,457.27a.14.14,0,0,0,.14.14.14.14,0,0,0,0-.28A.14.14,0,0,0,210.29,457.27Z"/><path class="cls-4" d="M210.29,457.27a.14.14,0,0,0,.14.14.14.14,0,0,0,0-.28A.14.14,0,0,0,210.29,457.27Z"/><path d="M209.18,461.11a.21.21,0,1,0,.42,0,.21.21,0,1,0-.42,0Z"/><path class="cls-4" d="M209.18,461.11a.21.21,0,1,0,.42,0,.21.21,0,1,0-.42,0Z"/><path d="M209.18,458.3a.21.21,0,0,0,.21.21.21.21,0,0,0,.22-.21.22.22,0,0,0-.43,0Z"/><path class="cls-4" d="M209.18,458.3a.21.21,0,0,0,.21.21.21.21,0,0,0,.22-.21.22.22,0,0,0-.43,0Z"/><path class="cls-4" d="M211.84,477.44a1.33,1.33,0,1,0,1.32-1.32A1.32,1.32,0,0,0,211.84,477.44Z"/><path d="M212.5,477.44a.67.67,0,0,0,1.33,0,.67.67,0,0,0-1.33,0Z"/><path class="cls-4" d="M212.5,477.44a.67.67,0,0,0,1.33,0,.67.67,0,0,0-1.33,0Z"/><polygon class="cls-6" points="432.31 324.84 397.3 324.84 397.3 354.12 435.4 354.12 435.4 324.84 432.31 324.84"/><polygon class="cls-4" points="432.31 324.84 397.3 324.84 397.3 354.12 435.4 354.12 435.4 324.84 432.31 324.84"/><rect class="cls-6" x="400.38" y="327.92" width="31.93" height="23.12"/><rect class="cls-4" x="400.38" y="327.92" width="31.93" height="23.12"/><rect class="cls-6" x="406.29" y="336.49" width="20.11" height="5.99"/><rect class="cls-4" x="406.29" y="336.49" width="20.11" height="5.99"/><polygon class="cls-4" points="412.44 485.9 412.44 477.53 396.45 477.53 396.45 485.9 374.83 485.9 374.83 487.52 396.45 487.52 412.44 487.52 434.06 487.52 434.06 485.9 412.44 485.9"/><rect class="cls-7" x="354.75" y="418.41" width="99.39" height="62.12"/><path class="cls-8" d="M354.75,418.41v62.12h99.39V418.41Zm96.39,59.12H357.75V421.41h93.39Z"/><rect class="cls-8" x="463.6" y="418.41" width="14.35" height="69.11"/><rect x="466.84" y="423.99" width="1.73" height="22.54"/><rect class="cls-4" x="471.83" y="423.99" width="3.36" height="28.49"/><path class="cls-4" d="M472.83,474.77a2.06,2.06,0,1,1-2.06-2.06A2.06,2.06,0,0,1,472.83,474.77Z"/><rect class="cls-4" x="468.39" y="479.47" width="4.77" height="4.77"/><polyline class="cls-9" points="139.59 339.48 155.43 339.48 155.43 494.35 0.56 494.35 0.56 339.48 16.39 339.48"/><polyline class="cls-9" points="309.58 339.48 325.42 339.48 325.42 494.35 170.55 494.35 170.55 339.48 186.38 339.48"/><polyline class="cls-9" points="451.55 339.48 493.78 339.48 493.78 494.35 338.91 494.35 338.91 339.48 381.15 339.48"/><path class="cls-10" d="M274.18,254.72V217.85a3.7,3.7,0,0,1,3.68-3.69h32.5a3.69,3.69,0,0,0,3.68-3.68v-25.4"/><path class="cls-11" d="M274.18,254.72V217.85a3.7,3.7,0,0,1,3.68-3.69h32.5a3.69,3.69,0,0,0,3.68-3.68v-25.4"/><path class="cls-12" d="M51.87,254.72V221.64a3.5,3.5,0,0,1,3.5-3.5h49.32a3.5,3.5,0,0,1,3.5,3.5v33.08"/><path class="cls-13" d="M51.87,254.72V221.64a3.5,3.5,0,0,1,3.5-3.5h49.32a3.5,3.5,0,0,1,3.5,3.5v33.08"/><path class="cls-6" d="M310.9,157.3v-26c0-.45.77-1,1.07-1.31a.94.94,0,0,0,.09-1.17l-1-1.11a1.56,1.56,0,0,1-.06-1.41l1.89-2.8a1.35,1.35,0,0,1,1.13-.69,1.49,1.49,0,0,1,1.14.75l1.88,2.74a1.39,1.39,0,0,1-.1,1.38l-1.09,1.17a.84.84,0,0,0,.09,1.14c.32.27,1.24.86,1.24,1.31v26"/><path class="cls-14" d="M310.9,157.3v-26c0-.45.77-1,1.07-1.31a.94.94,0,0,0,.09-1.17l-1-1.11a1.56,1.56,0,0,1-.06-1.41l1.89-2.8a1.35,1.35,0,0,1,1.13-.69,1.49,1.49,0,0,1,1.14.75l1.88,2.74a1.39,1.39,0,0,1-.1,1.38l-1.09,1.17a.84.84,0,0,0,.09,1.14c.32.27,1.24.86,1.24,1.31v26"/><rect x="310.9" y="131.81" width="6.28" height="1.2"/><rect class="cls-14" x="310.9" y="131.81" width="6.28" height="1.2"/><path class="cls-3" d="M308.48,157.44l-.9,28.47c0,6.25,2.9,8.15,6.43,8.15s6.43-1.9,6.43-8.15l-.89-28.47Z"/><path class="cls-14" d="M308.48,157.44l-.9,28.47c0,6.25,2.9,8.15,6.43,8.15s6.43-1.9,6.43-8.15l-.89-28.47Z"/><path class="cls-6" d="M277.64,275.22v28.86c0,.51-.85,1.16-1.19,1.46a1,1,0,0,0-.11,1.3l1.12,1.23a1.74,1.74,0,0,1,.07,1.57l-2.1,3.11a1.49,1.49,0,0,1-1.26.77,1.69,1.69,0,0,1-1.27-.83l-2.09-3.05a1.58,1.58,0,0,1,.12-1.53l1.21-1.31a.93.93,0,0,0-.1-1.26c-.36-.3-1.38-1-1.38-1.46V275.22"/><path class="cls-14" d="M277.64,275.22v28.86c0,.51-.85,1.16-1.19,1.46a1,1,0,0,0-.11,1.3l1.12,1.23a1.74,1.74,0,0,1,.07,1.57l-2.1,3.11a1.49,1.49,0,0,1-1.26.77,1.69,1.69,0,0,1-1.27-.83l-2.09-3.05a1.58,1.58,0,0,1,.12-1.53l1.21-1.31a.93.93,0,0,0-.1-1.26c-.36-.3-1.38-1-1.38-1.46V275.22"/><rect x="270.66" y="302.21" width="6.98" height="1.34"/><rect class="cls-14" x="270.66" y="302.21" width="6.98" height="1.34"/><path class="cls-3" d="M280.33,275.07l1-31.64c0-6.94-3.21-9.06-7.14-9.06s-7.14,2.12-7.14,9.06l1,31.64Z"/><path class="cls-14" d="M280.33,275.07l1-31.64c0-6.94-3.21-9.06-7.14-9.06s-7.14,2.12-7.14,9.06l1,31.64Z"/><path class="cls-10" d="M221.72,254.72V217.85a3.7,3.7,0,0,1,3.68-3.69h33.23a3.68,3.68,0,0,0,3.68-3.68v-25.4"/><path class="cls-11" d="M221.72,254.72V217.85a3.7,3.7,0,0,1,3.68-3.69h33.23a3.68,3.68,0,0,0,3.68-3.68v-25.4"/><path class="cls-6" d="M259.17,157.3v-26c0-.45.77-1,1.07-1.31a.94.94,0,0,0,.1-1.17l-1-1.11a1.56,1.56,0,0,1-.07-1.41l1.89-2.8a1.35,1.35,0,0,1,1.14-.69,1.51,1.51,0,0,1,1.14.75l1.88,2.74a1.42,1.42,0,0,1-.11,1.38l-1.08,1.17a.83.83,0,0,0,.09,1.14c.31.27,1.23.86,1.23,1.31v26"/><path class="cls-14" d="M259.17,157.3v-26c0-.45.77-1,1.07-1.31a.94.94,0,0,0,.1-1.17l-1-1.11a1.56,1.56,0,0,1-.07-1.41l1.89-2.8a1.35,1.35,0,0,1,1.14-.69,1.51,1.51,0,0,1,1.14.75l1.88,2.74a1.42,1.42,0,0,1-.11,1.38l-1.08,1.17a.83.83,0,0,0,.09,1.14c.31.27,1.23.86,1.23,1.31v26"/><rect x="259.17" y="131.81" width="6.28" height="1.2"/><rect class="cls-14" x="259.17" y="131.81" width="6.28" height="1.2"/><path class="cls-3" d="M256.75,157.44l-.89,28.47c0,6.25,2.89,8.15,6.43,8.15s6.43-1.9,6.43-8.15l-.9-28.47Z"/><path class="cls-14" d="M256.75,157.44l-.89,28.47c0,6.25,2.89,8.15,6.43,8.15s6.43-1.9,6.43-8.15l-.9-28.47Z"/><path class="cls-6" d="M225.18,275.22v28.86c0,.51-.85,1.16-1.19,1.46a1,1,0,0,0-.11,1.3l1.12,1.23a1.74,1.74,0,0,1,.07,1.57l-2.1,3.11a1.5,1.5,0,0,1-1.26.77,1.69,1.69,0,0,1-1.27-.83l-2.09-3.05a1.58,1.58,0,0,1,.12-1.53l1.21-1.31a.93.93,0,0,0-.1-1.26c-.36-.3-1.38-1-1.38-1.46V275.22"/><path class="cls-14" d="M225.18,275.22v28.86c0,.51-.85,1.16-1.19,1.46a1,1,0,0,0-.11,1.3l1.12,1.23a1.74,1.74,0,0,1,.07,1.57l-2.1,3.11a1.5,1.5,0,0,1-1.26.77,1.69,1.69,0,0,1-1.27-.83l-2.09-3.05a1.58,1.58,0,0,1,.12-1.53l1.21-1.31a.93.93,0,0,0-.1-1.26c-.36-.3-1.38-1-1.38-1.46V275.22"/><rect x="218.2" y="302.21" width="6.98" height="1.34"/><rect class="cls-14" x="218.2" y="302.21" width="6.98" height="1.34"/><path class="cls-3" d="M227.87,275.07l1-31.64c0-6.94-3.21-9.06-7.14-9.06s-7.14,2.12-7.14,9.06l1,31.64Z"/><path class="cls-14" d="M227.87,275.07l1-31.64c0-6.94-3.21-9.06-7.14-9.06s-7.14,2.12-7.14,9.06l1,31.64Z"/><path class="cls-6" d="M55.33,275.22v28.86c0,.51-.86,1.16-1.19,1.46a1,1,0,0,0-.11,1.3l1.11,1.23a1.68,1.68,0,0,1,.07,1.57l-2.1,3.11a1.49,1.49,0,0,1-1.26.77,1.65,1.65,0,0,1-1.26-.83l-2.09-3.05a1.55,1.55,0,0,1,.12-1.53l1.2-1.31a.92.92,0,0,0-.1-1.26c-.35-.3-1.37-1-1.37-1.46V275.22"/><path class="cls-14" d="M55.33,275.22v28.86c0,.51-.86,1.16-1.19,1.46a1,1,0,0,0-.11,1.3l1.11,1.23a1.68,1.68,0,0,1,.07,1.57l-2.1,3.11a1.49,1.49,0,0,1-1.26.77,1.65,1.65,0,0,1-1.26-.83l-2.09-3.05a1.55,1.55,0,0,1,.12-1.53l1.2-1.31a.92.92,0,0,0-.1-1.26c-.35-.3-1.37-1-1.37-1.46V275.22"/><rect x="48.35" y="302.21" width="6.98" height="1.34"/><rect class="cls-14" x="48.35" y="302.21" width="6.98" height="1.34"/><path class="cls-3" d="M58,275.07l1-31.64c0-6.94-3.22-9.06-7.14-9.06s-7.15,2.12-7.15,9.06l1,31.64Z"/><path class="cls-14" d="M58,275.07l1-31.64c0-6.94-3.22-9.06-7.14-9.06s-7.15,2.12-7.15,9.06l1,31.64Z"/><path class="cls-15" d="M187.77,166.07v35a4,4,0,0,1-3.94,3.93H83.2A4,4,0,0,0,79.26,209v9.36"/><path class="cls-6" d="M111.65,275.22v28.86c0,.51-.85,1.16-1.18,1.46a1,1,0,0,0-.11,1.3l1.11,1.23a1.74,1.74,0,0,1,.07,1.57l-2.1,3.11a1.49,1.49,0,0,1-1.26.77,1.65,1.65,0,0,1-1.26-.83l-2.1-3.05a1.58,1.58,0,0,1,.12-1.53l1.21-1.31a.92.92,0,0,0-.1-1.26c-.35-.3-1.37-1-1.37-1.46V275.22"/><path class="cls-14" d="M111.65,275.22v28.86c0,.51-.85,1.16-1.18,1.46a1,1,0,0,0-.11,1.3l1.11,1.23a1.74,1.74,0,0,1,.07,1.57l-2.1,3.11a1.49,1.49,0,0,1-1.26.77,1.65,1.65,0,0,1-1.26-.83l-2.1-3.05a1.58,1.58,0,0,1,.12-1.53l1.21-1.31a.92.92,0,0,0-.1-1.26c-.35-.3-1.37-1-1.37-1.46V275.22"/><rect x="104.68" y="302.21" width="6.98" height="1.34"/><rect class="cls-14" x="104.68" y="302.21" width="6.98" height="1.34"/><path class="cls-3" d="M114.34,275.07l1-31.64c0-6.94-3.22-9.06-7.15-9.06s-7.14,2.12-7.14,9.06l1,31.64Z"/><path class="cls-14" d="M114.34,275.07l1-31.64c0-6.94-3.22-9.06-7.15-9.06s-7.14,2.12-7.14,9.06l1,31.64Z"/><rect class="cls-16" x="79.1" y="0.69" width="359.53" height="113.52"/><path class="cls-6" d="M185.46,145.06V128.31c0-.3.57-.67.79-.85a.55.55,0,0,0,.07-.76l-.74-.71a.88.88,0,0,1,0-.91l1.39-1.81a1,1,0,0,1,.84-.44,1.13,1.13,0,0,1,.84.48l1.39,1.77a.82.82,0,0,1-.08.89l-.8.76a.49.49,0,0,0,.06.73c.24.18.92.55.92.85v16.75"/><path class="cls-17" d="M185.46,145.06V128.31c0-.3.57-.67.79-.85a.55.55,0,0,0,.07-.76l-.74-.71a.88.88,0,0,1,0-.91l1.39-1.81a1,1,0,0,1,.84-.44,1.13,1.13,0,0,1,.84.48l1.39,1.77a.82.82,0,0,1-.08.89l-.8.76a.49.49,0,0,0,.06.73c.24.18.92.55.92.85v16.75"/><rect x="185.46" y="128.62" width="4.63" height="0.77"/><rect class="cls-17" x="185.46" y="128.62" width="4.63" height="0.77"/><polygon class="cls-18" points="191.16 176.2 184.38 176.2 183.85 164.21 191.68 164.21 191.16 176.2"/><line class="cls-19" x1="184.36" y1="170.2" x2="191.17" y2="170.2"/><line class="cls-19" x1="184.36" y1="171.99" x2="191.17" y2="171.99"/><line class="cls-19" x1="184.36" y1="173.78" x2="191.17" y2="173.78"/><rect class="cls-18" x="182.5" y="143.36" width="10.54" height="23.92"/><path class="cls-20" d="M184.66,64.6l-.33,2.11.33,2.11,1.3,1.62,1.62,1.3,2.11.33,2.11-.33,1.63-1.3,1.3-1.62.32-2.11-.32-2.11L193.43,63l-1.63-1.13-2.11-.49-2.11.49L186,63l-1.3,1.63m-5.2-1.3L179,66.71l.49,3.57,1.79,3.09,2.6,2.27,3.24,1.46,3.41.33,3.58-.82,2.92-2,2.11-2.76,1.14-3.41V64.92l-1.14-3.25L197,58.75l-2.92-2L190.5,56l-3.41.33-3.24,1.46-2.6,2.27-1.79,3.25m3.9,6-.65-2.6.65-2.6,1.46-2.27,2.27-1.47,2.6-.48,2.6.48,2.27,1.47L196,64.11l.65,2.6-.65,2.6-1.46,2.27L192.29,73l-2.6.65-2.6-.65-2.27-1.46-1.46-2.27m63-24h12.35M240.19,56l.33-.81,5.84-9.91m24.85,0,2.92,5.2L277.38,56M258.71,45.27h12.5m5.36,26,.65-4.54-.65-4.55-1.63-4.38L272.18,54l-3.57-2.92-4.22-1.95-4.55-.81-4.54.32L250.91,50l-3.9,2.6-3.24,3.25-2.11,4.06-1.14,4.54V69l1.14,4.55,2.11,4.06L247,80.84l3.9,2.59,4.39,1.3,4.54.33,4.55-.81,4.22-2,3.57-2.93,2.76-3.73,1.63-4.39m-17.86-26-2.76.17-2.77.48-2.59,1L248,48.2l-2.28,1.46-2.11,2-1.94,2.11L240.19,56m37.19,0-1.62-2.27L274,51.61l-2.11-2-2.44-1.46L267,46.9l-2.76-1-2.76-.48-2.76-.17M233.86,66.71l3.09-5.2L240.19,56m0,21.44-.48-.82-5.85-9.9M240.19,56l-1.3,2.44-1,2.76L237.43,64l-.16,2.76.16,2.76.49,2.76,1,2.76,1.3,2.44m18.52,10.71H246.36m0,0L243.28,83l-3.09-5.52m0,0,1.47,2.43L243.6,82l2.11,1.79L248,85.38l2.6,1.14,2.59,1L256,88l2.76.16m24.84-21.43-3.08,5.19-3.09,5.53m0-21.44.33.81,5.84,9.91m-6.17,10.72L278.52,75l1-2.76.49-2.76.16-2.76L280,64l-.49-2.76-1-2.76L277.38,56m-6.17,32.15h-12.5m18.67-10.71-.49.81-5.68,9.9m-12.5,0,2.76-.16,2.76-.49,2.76-1,2.43-1.14,2.44-1.62L274,82l1.79-2.11,1.62-2.43M401.44,52.26l-.65.16h-.64m1.29-.16h0M400,50.79h1.46M364.58,82.13h33.78M138.54,70.28l.49-3.57-.49-3.41-1.79-3.25-2.6-2.27-3.24-1.46L127.5,56l-3.58.81-2.92,2-2.11,2.92-1.14,3.25v3.57l1.14,3.41L121,74.66l2.92,2,3.58.82,3.41-.33,3.24-1.46,2.6-2.27,1.79-3.09m62.84,0,.65-3.57-.65-3.57-1.62-3.41-2.44-2.6-3.08-1.79-3.57-.81-3.74.16-3.41,1.46-2.76,2.28-2.11,2.92-1.14,3.57v3.57l1.14,3.58L180.76,75l2.76,2.44,3.41,1.29,3.74.17,3.57-.82,3.08-1.78,2.44-2.6,1.62-3.41M401.44,49.49V49l-.16-.65-.32-.49-.49-.49-.32-.32-.65-.33-.49-.16-.65-.16m3.08,32.64V49.49m-3.08,32.64L399,82l.49-.16.65-.32.32-.33.49-.49.32-.48.16-.65v-.49m-39.94,0,.16.49.16.65.16.48.49.49.49.33.49.32.48.16.65.16M361.5,49.49V79.05m3.08-32.64-.65.16-.48.16-.49.33-.49.32-.49.49-.16.49-.16.65-.16.48m36.86-3.08H364.58m35.08.32H363.28M268.45,82.3h-.65m-18.19,0H249m17.7.65,3.74-2.44,3.08-3.25,2.11-3.89L276.73,69V64.43l-1.14-4.22-2.11-4.06L270.4,52.9l-3.74-2.43m-15.91,0h15.91m-15.91,0L247,52.9l-3.08,3.25-2.11,4.06-1,4.22V69l1,4.39,2.11,3.89L247,80.51,250.75,83m0,0h15.91m-23.38-20.3-.49,4.06.49,4.06,1.62,3.89,2.6,3.41,3.25,2.44,3.9,1.62,4.06.49,4.22-.49,3.73-1.62,3.41-2.44,2.44-3.41,1.62-3.89.49-4.06-.49-4.06-1.62-3.9-2.44-3.25-3.41-2.6-3.73-1.62-4.22-.49-4.06.49-3.9,1.62-3.25,2.6-2.6,3.25-1.62,3.9m3.08,8-.48-3.9.48-3.74L248,59.4l2.76-2.76,3.25-2,3.73-.81,3.9.16,3.57,1.46,3.09,2.44L270.4,61l1.13,3.74v3.9l-1.13,3.73-2.11,3.09-3.09,2.43-3.57,1.46-3.9.17L254,78.72l-3.25-1.94L248,74l-1.63-3.41m3.09-7.31-.65,3.41.65,3.41L251.24,73l2.59,2.27,3.25,1.14h3.41l3.25-1.14,2.6-2.27L268,70.12l.65-3.41L268,63.3l-1.62-2.93-2.6-2.27L260.49,57h-3.41l-3.25,1.14-2.59,2.27-1.79,2.93m-129.75.32-.65,3.09.65,3.08,1.63,2.93,2.43,1.94,2.93,1.14h3.24l2.93-1.14,2.43-1.94,1.63-2.93.65-3.08-.65-3.09-1.63-2.76-2.43-2.11-2.93-1.14h-3.24l-2.93,1.14-2.43,2.11-1.63,2.76M363,47.87v-1m37,1v-1m-37,1V80.51m0-32.64h37M389.91,75.64l4.55-4.71m-26,0,4.71,4.71m21.27-23.87h-26m0,0V70.93m4.71,4.71h16.72m4.55-4.71V51.77M363,80.51h37m0,0V47.87M398.2,80.51l.48,1.46m2.76-14.45-.32.32L400,69.47"/><rect x="238.09" y="27.09" width="101.37" height="0.71"/><path d="M240.25,31h1.08v5.92h2.89v.91h-4Z"/><path d="M249.31,30.39h.74l-2.58,9.08h-.74Z"/><path d="M253.23,31h1.23l1.25,3.46c.16.45.3.91.46,1.37h0c.16-.46.29-.92.45-1.37L257.89,31h1.25V37.8h-1V34.43c0-.62.09-1.5.14-2.12h0l-.55,1.58-1.19,3.25h-.67l-1.19-3.25-.54-1.58h0c.05.62.13,1.5.13,2.12V37.8h-1Z"/><path d="M260.61,34.36c0-2.2,1.22-3.51,3-3.51s3,1.31,3,3.51-1.23,3.56-3,3.56S260.61,36.56,260.61,34.36Zm4.85,0c0-1.6-.75-2.58-1.88-2.58s-1.86,1-1.86,2.58.73,2.63,1.86,2.63S265.46,36,265.46,34.36Z"/><path d="M268.08,31h1.11l2.26,4,.72,1.45h0c0-.7-.14-1.53-.14-2.27V31h1V37.8H272l-2.26-4L269,32.35H269c.06.7.14,1.49.14,2.23V37.8h-1Z"/><path d="M274.62,34.36c0-2.2,1.21-3.51,3-3.51s3,1.31,3,3.51-1.22,3.56-3,3.56S274.62,36.56,274.62,34.36Zm4.84,0c0-1.6-.74-2.58-1.88-2.58s-1.86,1-1.86,2.58.73,2.63,1.86,2.63S279.46,36,279.46,34.36Z"/><path d="M315.18,31h2.24c1.41,0,2.46.51,2.46,2a1.9,1.9,0,0,1-1.43,2l1.67,2.89h-1.21l-1.55-2.75h-1.1V37.8h-1.08Zm2.11,3.22c1,0,1.53-.41,1.53-1.24s-.54-1.11-1.53-1.11h-1v2.35Z"/><path d="M264.09,15.1h1.33v7.3H269v1.13h-4.9Z"/><path d="M270.38,15.1h1.32v8.43h-1.32Z"/><path d="M273.91,15.1h1.36l2.78,5,.88,1.78H279c-.07-.87-.17-1.88-.17-2.8V15.1h1.26v8.43h-1.36l-2.79-5-.88-1.77H275c.07.87.17,1.85.17,2.76v4h-1.25Z"/><path d="M282.29,15.1h5v1.12h-3.64v2.35h3.08v1.11h-3.08V22.4h3.77v1.13h-5.1Z"/><path d="M291.25,19.28c0-2.7,1.5-4.33,3.66-4.33s3.67,1.63,3.67,4.33-1.51,4.39-3.67,4.39S291.25,22,291.25,19.28Zm6,0c0-2-.91-3.17-2.31-3.17s-2.29,1.2-2.29,3.17.9,3.24,2.29,3.24S297.22,21.25,297.22,19.28Z"/><path d="M300.28,19.91V15.1h1.32V20c0,1.9.76,2.52,1.81,2.52s1.84-.62,1.84-2.52V15.1h1.28v4.81c0,2.75-1.26,3.76-3.12,3.76S300.28,22.66,300.28,19.91Z"/><path d="M310.41,16.22h-2.47V15.1h6.28v1.12h-2.48v7.31h-1.33Z"/><rect x="109.59" y="27.09" width="101.37" height="0.71"/><path d="M141.62,15.1H143v7.3h3.56v1.13h-4.89Z"/><path d="M147.9,15.1h1.33v8.43H147.9Z"/><path d="M151.43,15.1h1.36l2.79,5,.88,1.78h.06c-.07-.87-.17-1.88-.17-2.8V15.1h1.26v8.43h-1.36l-2.79-5-.88-1.77h-.06c.07.87.17,1.85.17,2.76v4h-1.26Z"/><path d="M159.82,15.1h5v1.12h-3.65v2.35h3.09v1.11h-3.09V22.4h3.77v1.13h-5.09Z"/><path d="M169.24,15.1h1.33v8.43h-1.33Z"/><path d="M172.77,15.1h1.36l2.79,5,.88,1.78h0c-.06-.87-.17-1.88-.17-2.8V15.1h1.26v8.43h-1.36l-2.79-5-.88-1.77h-.06c.07.87.18,1.85.18,2.76v4h-1.26Z"/><path d="M171.66,36.92l.63-.74a2.66,2.66,0,0,0,1.82.81c.83,0,1.29-.39,1.29-1s-.46-.81-1.1-1.09l-.94-.41A2,2,0,0,1,172,32.73a2,2,0,0,1,2.24-1.88,2.92,2.92,0,0,1,2.07.86l-.57.68a2.16,2.16,0,0,0-1.5-.61c-.69,0-1.15.34-1.15.87s.55.82,1.11,1l.93.4a1.91,1.91,0,0,1,1.39,1.85,2.12,2.12,0,0,1-2.4,2A3.4,3.4,0,0,1,171.66,36.92Z"/><path d="M179.18,31.88h-2V31h5.1v.91h-2V37.8h-1.07Z"/><path d="M183.45,31h4v.91h-3v1.9H187v.91h-2.51v2.2h3.06v.91h-4.13Z"/><path d="M189,31h2.24c1.41,0,2.47.51,2.47,2a1.91,1.91,0,0,1-1.43,2L194,37.8h-1.22l-1.55-2.75h-1.1V37.8H189Zm2.11,3.22c1,0,1.53-.41,1.53-1.24s-.54-1.11-1.53-1.11h-1v2.35Z"/><path d="M195.1,31h4v.91h-3v1.9h2.5v.91h-2.5v2.2h3.06v.91H195.1Z"/><path d="M200.3,34.36c0-2.2,1.21-3.51,3-3.51s3,1.31,3,3.51-1.22,3.56-3,3.56S200.3,36.56,200.3,34.36Zm4.84,0c0-1.6-.74-2.58-1.87-2.58s-1.87,1-1.87,2.58.73,2.63,1.87,2.63S205.14,36,205.14,34.36Z"/><path d="M119,31h1.08v5.92h2.89v.91h-4Z"/><path d="M124.15,31h4v.91h-3v1.9h2.51v.91h-2.51v2.2h3.07v.91h-4.14Z"/><path d="M128.94,31h1.14l1,3.54c.23.78.39,1.45.62,2.24h0c.24-.79.4-1.46.62-2.24l1-3.54h1.09l-2.13,6.83h-1.27Z"/><path d="M135.45,31h4v.91h-3v1.9H139v.91h-2.5v2.2h3.06v.91h-4.14Z"/><path d="M141.1,31h1.08v5.92h2.89v.91h-4Z"/><rect x="129.88" y="100.56" width="58.23" height="1.49"/><rect x="128.39" y="93.1" width="1.49" height="8.96"/><rect x="188.12" y="93.1" width="1.49" height="8.96"/><path d="M128.12,87.53A20.93,20.93,0,0,1,107,66.79a20.27,20.27,0,0,1,2.54-9.85l5.6,3.18A16,16,0,0,0,129,84h0a16,16,0,0,0,12.25-26.27l.82-.69a18,18,0,0,1,4.7,12.13,18.52,18.52,0,0,1-18.68,18.34"/><path d="M106.27,45.17h1.12l1.15,3.15c.14.42.27.84.41,1.26h0c.15-.42.27-.84.41-1.26l1.13-3.15h1.13v6.24h-.91V48.32c0-.55.07-1.36.12-1.93h0l-.5,1.44-1.08,3h-.61l-1.1-3-.49-1.44h0c0,.57.12,1.38.12,1.93v3.09h-.88Z"/><path d="M113.05,50.17c0-1,.84-1.52,2.78-1.73,0-.54-.2-1-.89-1a2.58,2.58,0,0,0-1.34.47l-.37-.66a3.65,3.65,0,0,1,1.88-.61c1.16,0,1.7.74,1.7,2v2.81H116l-.08-.54h0a2.28,2.28,0,0,1-1.48.65A1.29,1.29,0,0,1,113.05,50.17Zm2.78,0V49.06c-1.38.16-1.84.52-1.84,1s.31.65.73.65A1.64,1.64,0,0,0,115.83,50.2Z"/><path d="M119.19,49l-1.4-2.23h1l.56.93.44.79h0c.12-.26.26-.53.39-.79l.49-.93h1l-1.39,2.34,1.49,2.32h-1.05l-.61-1c-.16-.27-.32-.56-.49-.83h0l-.43.83-.54,1h-1Z"/><path d="M138.4,45.17h1.13l1.14,3.15c.14.42.27.84.42,1.26h0c.14-.42.26-.84.4-1.26l1.13-3.15h1.14v6.24h-.92V48.32c0-.55.08-1.36.13-1.93h0l-.5,1.44-1.08,3h-.61l-1.09-3-.49-1.44h0c.05.57.12,1.38.12,1.93v3.09h-.88Z"/><path d="M145.34,45.29a.61.61,0,0,1,1.21,0,.61.61,0,0,1-1.21,0Zm.12,1.46h1v4.66h-1Z"/><path d="M147.89,46.75h.8l.07.64h0a2.24,2.24,0,0,1,1.54-.76c1,0,1.43.66,1.43,1.85v2.93h-1V48.6c0-.81-.24-1.13-.79-1.13a1.55,1.55,0,0,0-1.13.63v3.31h-1Z"/><path d="M396,98.16l-2.85-1.65v1.1H375.82l3.25-3.43a1.38,1.38,0,0,1,1-.41h3.39a1.64,1.64,0,1,0,0-1.08H380a2.42,2.42,0,0,0-1.74.74l-3.47,3.67a1.61,1.61,0,0,1-1.19.51h-1.3a2.75,2.75,0,1,0,0,1.09h5.94a1.67,1.67,0,0,1,1.19.51l3.49,3.68a2.46,2.46,0,0,0,1.75.73h2.73v1.1h3.28v-3.28h-3.28v1.1h-2.73a1.32,1.32,0,0,1-1-.41l-3.25-3.43h12.69v1.1L396,98.16"/><path d="M346.69,19.16V14.24H348v5c0,1.94.77,2.57,1.84,2.57s1.88-.63,1.88-2.57v-5h1.31v4.92c0,2.8-1.28,3.84-3.19,3.84S346.69,22,346.69,19.16Z"/><path d="M354.54,21.74l.8-.94a3.34,3.34,0,0,0,2.29,1c1,0,1.62-.49,1.62-1.21s-.59-1-1.38-1.38l-1.19-.52a2.46,2.46,0,0,1-1.75-2.25,2.55,2.55,0,0,1,2.82-2.37,3.68,3.68,0,0,1,2.61,1.09l-.71.86a2.75,2.75,0,0,0-1.9-.77c-.87,0-1.44.42-1.44,1.1s.69,1,1.39,1.31l1.17.5a2.4,2.4,0,0,1,1.76,2.32c0,1.38-1.15,2.5-3,2.5A4.32,4.32,0,0,1,354.54,21.74Z"/><path d="M362.2,14.24h2.66c1.77,0,3,.58,3,2.13a1.9,1.9,0,0,1-1.23,1.85v.06a2,2,0,0,1,1.7,2c0,1.7-1.39,2.52-3.3,2.52H362.2Zm2.51,3.6c1.31,0,1.86-.49,1.86-1.3s-.61-1.23-1.82-1.23h-1.19v2.53Zm.21,3.95c1.34,0,2.12-.48,2.12-1.53s-.75-1.4-2.12-1.4h-1.36v2.93Z"/><path d="M372.71,20.75V17.5h-.93v-1l1-.07.15-1.78h1.12v1.78h1.67V17.5h-1.67v3.26c0,.77.27,1.16.94,1.16a1.78,1.78,0,0,0,.69-.15l.24,1a4.29,4.29,0,0,1-1.26.23C373.21,23,372.71,22.1,372.71,20.75Z"/><path d="M376.56,19.64a3,3,0,1,1,6.05,0,3,3,0,1,1-6.05,0Zm4.67,0c0-1.36-.63-2.27-1.64-2.27s-1.64.91-1.64,2.27.63,2.26,1.64,2.26S381.23,21,381.23,19.64Z"/><path d="M386.93,14.24h1.36v3.52H392V14.24h1.36v8.61H392V18.94h-3.67v3.91h-1.36Z"/><path d="M395.11,18.52c0-2.77,1.52-4.43,3.73-4.43s3.75,1.66,3.75,4.43S401.05,23,398.84,23,395.11,21.28,395.11,18.52Zm6.09,0c0-2-.94-3.25-2.36-3.25s-2.35,1.23-2.35,3.25.93,3.3,2.35,3.3S401.2,20.52,401.2,18.52Z"/><path d="M403.64,21.74l.79-.94a3.34,3.34,0,0,0,2.29,1c1,0,1.62-.49,1.62-1.21s-.58-1-1.37-1.38l-1.19-.52A2.46,2.46,0,0,1,404,16.46a2.55,2.55,0,0,1,2.82-2.37,3.66,3.66,0,0,1,2.6,1.09l-.71.86a2.73,2.73,0,0,0-1.89-.77c-.87,0-1.45.42-1.45,1.1s.69,1,1.39,1.31l1.18.5a2.39,2.39,0,0,1,1.75,2.32c0,1.38-1.14,2.5-3,2.5A4.3,4.3,0,0,1,403.64,21.74Z"/><path d="M413.1,15.39h-2.52V14.24H417v1.15h-2.53v7.46H413.1Z"/><path class="cls-21" d="M384.18,200.55V223.7c0,1.71,2.92,3.1,6.5,3.1h11.5c3.58,0,10.16,1.4,10.16,3.11v17.53"/><path class="cls-22" d="M384.18,200.55V223.7c0,1.71,2.92,3.1,6.5,3.1h11.5c3.58,0,10.16,1.4,10.16,3.11v17.53"/><path class="cls-7" d="M402,271.78v26.9H422.7v-26.9s.61-6.18-3.46-6.18V254.83s0-2.6-2-3V245.4a.56.56,0,0,0-.56-.55h-8.75a.55.55,0,0,0-.55.55v6.47h0c-1.95.45-2,3-2,3V265.6c-4.06,0-3.45,6.18-3.45,6.18"/><path class="cls-14" d="M402,271.8v26.9h2.08v16.56h16.59V298.7h2.07V271.8s.61-6.18-3.45-6.18V254.85s0-2.6-2-3v-6.45a.55.55,0,0,0-.55-.55h-8.75a.55.55,0,0,0-.55.55v6.48h0c-1.94.44-1.95,2.95-1.95,2.95v10.77C401.37,265.62,402,271.8,402,271.8Z"/><line class="cls-14" x1="420.65" y1="298.63" x2="404.06" y2="298.63"/><path d="M412.23,294.88l-1.29-2.56h1V285.2l-1.45,1.44a2.92,2.92,0,0,0-.83,2v.23h.57v1.71h-1.71v-1.71h.57v-.23a3.42,3.42,0,0,1,1-2.42l1-1a2.9,2.9,0,0,0,.83-2v-2.89a1.42,1.42,0,0,1-.86-.55,1.39,1.39,0,0,1-.27-1,1.43,1.43,0,0,1,.46-.92,1.47,1.47,0,0,1,1-.37,1.45,1.45,0,0,1,.95.37,1.47,1.47,0,0,1,.47.91,1.51,1.51,0,0,1-.27,1,1.45,1.45,0,0,1-.86.55v.32a2.89,2.89,0,0,0,.84,2l1,1a3.46,3.46,0,0,1,1,2.42v1.42a.95.95,0,0,1,.63,1,1,1,0,0,1-.32.56.93.93,0,0,1-1.2,0,.9.9,0,0,1-.31-.56.92.92,0,0,1,.63-1V286.1a2.89,2.89,0,0,0-.84-2l-1.45-1.44v9.68h1l-1.28,2.56"/><line class="cls-14" x1="417.22" y1="251.9" x2="407.37" y2="251.9"/><rect class="cls-23" x="379.25" y="192.73" width="9.85" height="11.97"/><polyline class="cls-7" points="389.4 182.39 389.4 192.73 379.03 192.73 379.03 182.39 376.26 170.01 376.26 141.04 378.68 141.07 389.75 141.07 392.17 141.04 392.17 170.01 389.4 182.39"/><polygon class="cls-14" points="379.05 192.76 379.05 182.41 376.28 170.03 376.28 141.06 378.71 141.1 378.71 124.55 389.77 124.55 389.77 141.1 392.19 141.06 392.19 170.03 389.42 182.41 389.42 192.76 379.05 192.76"/><line class="cls-6" x1="389.77" y1="141.17" x2="378.71" y2="141.17"/><line class="cls-14" x1="389.77" y1="141.17" x2="378.71" y2="141.17"/><path d="M384.39,147.9l1.17,2.33h-.91v6.47l1.31-1.31a2.58,2.58,0,0,0,.77-1.83v-.22h-.52v-1.55h1.55v1.55h-.52v.22a3.15,3.15,0,0,1-.91,2.2l-.92.92a2.59,2.59,0,0,0-.76,1.82v2.63a1.27,1.27,0,0,1,.78.5,1.32,1.32,0,0,1,.25.9,1.28,1.28,0,0,1-.42.83,1.33,1.33,0,0,1-.87.33,1.31,1.31,0,0,1-.87-.33,1.28,1.28,0,0,1-.42-.83,1.37,1.37,0,0,1,.24-.9,1.31,1.31,0,0,1,.79-.5v-.29a2.6,2.6,0,0,0-.76-1.83l-.92-.92a3.15,3.15,0,0,1-.91-2.2v-1.3a.85.85,0,0,1-.58-.93.85.85,0,0,1,.29-.51.84.84,0,0,1,.54-.2.83.83,0,0,1,.55.2.91.91,0,0,1,.29.51.83.83,0,0,1-.12.57.84.84,0,0,1-.45.36v1.3a2.62,2.62,0,0,0,.75,1.83l1.32,1.31v-8.8h-.91l1.17-2.33"/><line class="cls-14" x1="376.28" y1="170.04" x2="392.19" y2="170.04"/><path class="cls-24" d="M20.23,411.22c0-2.64,1.61-4.23,3.66-4.23a3.17,3.17,0,0,1,2.3,1l-.7.82a2.13,2.13,0,0,0-1.58-.73c-1.4,0-2.37,1.17-2.37,3.07s.91,3.1,2.34,3.1a2.36,2.36,0,0,0,1.79-.85l.68.8a3.19,3.19,0,0,1-2.52,1.17C21.8,415.39,20.23,413.87,20.23,411.22Z"/><path class="cls-24" d="M27.24,412.22a2.87,2.87,0,1,1,2.85,3.17A2.92,2.92,0,0,1,27.24,412.22Zm4.4,0c0-1.28-.59-2.14-1.55-2.14s-1.54.86-1.54,2.14.6,2.13,1.54,2.13S31.64,413.5,31.64,412.22Z"/><path class="cls-24" d="M34.42,413.82v-7.35h1.27v7.42c0,.34.14.46.3.46l.21,0,.16,1a2.07,2.07,0,0,1-.68.1C34.77,415.39,34.42,414.8,34.42,413.82Z"/><path class="cls-24" d="M37.7,413.82v-7.35H39v7.42c0,.34.14.46.3.46l.2,0,.17,1a2.12,2.12,0,0,1-.68.1C38,415.39,37.7,414.8,37.7,413.82Z"/><path class="cls-24" d="M40.55,412.22A2.94,2.94,0,0,1,43.31,409c1.61,0,2.48,1.15,2.48,2.86a2.87,2.87,0,0,1-.07.65H41.79a1.84,1.84,0,0,0,1.88,1.85,2.57,2.57,0,0,0,1.44-.46l.44.81a3.72,3.72,0,0,1-2,.64A2.91,2.91,0,0,1,40.55,412.22Zm4.14-.55c0-1-.48-1.64-1.36-1.64a1.64,1.64,0,0,0-1.55,1.64Z"/><path class="cls-24" d="M46.76,416.36a1.6,1.6,0,0,1,.88-1.32V415a1.12,1.12,0,0,1-.55-1,1.47,1.47,0,0,1,.68-1.12v-.05a2,2,0,0,1-.81-1.61A2.18,2.18,0,0,1,49.31,409a2.48,2.48,0,0,1,.88.15h2.14v.95H51.18a1.64,1.64,0,0,1,.39,1.11,2.07,2.07,0,0,1-2.26,2.08,2.1,2.1,0,0,1-.85-.19.79.79,0,0,0-.33.64c0,.36.24.59,1,.59h1.11c1.43,0,2.18.44,2.18,1.48S51.2,418,49.26,418C47.81,418,46.76,417.42,46.76,416.36Zm4.45-.31c0-.51-.4-.66-1.13-.66h-.92a4.18,4.18,0,0,1-.81-.09,1.09,1.09,0,0,0-.52.88c0,.59.62.94,1.62.94S51.21,416.61,51.21,416.05Zm-.76-4.84a1.15,1.15,0,1,0-2.29,0,1.15,1.15,0,1,0,2.29,0Z"/><path class="cls-24" d="M53.2,413.64c0-1.3,1.1-2,3.62-2.25,0-.7-.26-1.32-1.15-1.32a3.31,3.31,0,0,0-1.75.62l-.48-.86a4.63,4.63,0,0,1,2.45-.79c1.5,0,2.2,1,2.2,2.56v3.64h-1l-.1-.69h0a3,3,0,0,1-1.93.84A1.68,1.68,0,0,1,53.2,413.64Zm3.62,0V412.2c-1.79.2-2.4.67-2.4,1.35s.41.83.95.83A2.11,2.11,0,0,0,56.82,413.68Z"/><path class="cls-24" d="M62.35,413.82v-7.35h1.27v7.42c0,.34.14.46.3.46l.2,0,.17,1a2.07,2.07,0,0,1-.68.1C62.69,415.39,62.35,414.8,62.35,413.82Z"/><path class="cls-24" d="M65.48,409.64a1.7,1.7,0,0,0,1-1.55h-.12a.7.7,0,0,1-.74-.71.71.71,0,0,1,.74-.78c.58,0,.9.46.9,1.26a2.53,2.53,0,0,1-1.45,2.34Z"/><path class="cls-24" d="M68.56,413.64c0-1.3,1.1-2,3.62-2.25,0-.7-.27-1.32-1.16-1.32a3.34,3.34,0,0,0-1.75.62l-.47-.86a4.59,4.59,0,0,1,2.44-.79c1.51,0,2.2,1,2.2,2.56v3.64h-1l-.1-.69h0a3,3,0,0,1-1.92.84A1.67,1.67,0,0,1,68.56,413.64Zm3.62,0V412.2c-1.8.2-2.4.67-2.4,1.35s.41.83.94.83A2.15,2.15,0,0,0,72.18,413.68Z"/><path class="cls-24" d="M75.16,413v-3.81h1.26v3.65c0,1,.3,1.46,1,1.46s.95-.27,1.46-.91v-4.2h1.26v6.05h-1l-.1-.91h0a2.54,2.54,0,0,1-2,1.06C75.72,415.39,75.16,414.54,75.16,413Z"/><path class="cls-24" d="M81.65,412.22c0-2,1.24-3.18,2.59-3.18a2.31,2.31,0,0,1,1.63.68l-.05-1v-2.25h1.26v8.77h-1l-.1-.68h0a2.53,2.53,0,0,1-1.76.83C82.63,415.39,81.65,414.23,81.65,412.22Zm4.17,1.38v-3a1.93,1.93,0,0,0-1.33-.55c-.85,0-1.53.81-1.53,2.12s.54,2.13,1.48,2.13A1.77,1.77,0,0,0,85.82,413.6Z"/><path class="cls-24" d="M88.83,407.3a.73.73,0,0,1,.78-.75.76.76,0,1,1-.78.75Zm.15,1.89h1.27v6.05H89Z"/><path class="cls-24" d="M91.71,412.22a2.87,2.87,0,1,1,2.85,3.17A2.91,2.91,0,0,1,91.71,412.22Zm4.4,0c0-1.28-.59-2.14-1.55-2.14s-1.54.86-1.54,2.14.59,2.13,1.54,2.13S96.11,413.5,96.11,412.22Z"/><path class="cls-24" d="M101,412.22c0-2,1.25-3.18,2.6-3.18a2.34,2.34,0,0,1,1.63.68l-.06-1v-2.25h1.27v8.77h-1l-.1-.68h0a2.55,2.55,0,0,1-1.76.83C101.94,415.39,101,414.23,101,412.22Zm4.17,1.38v-3a1.93,1.93,0,0,0-1.33-.55c-.85,0-1.53.81-1.53,2.12s.54,2.13,1.49,2.13A1.77,1.77,0,0,0,105.13,413.6Z"/><path class="cls-24" d="M108.15,407.3a.72.72,0,0,1,.78-.75.76.76,0,1,1,0,1.51A.72.72,0,0,1,108.15,407.3Zm.15,1.89h1.26v6.05H108.3Z"/><path class="cls-24" d="M113.58,413.64c0-1.3,1.1-2,3.62-2.25,0-.7-.27-1.32-1.16-1.32a3.37,3.37,0,0,0-1.75.62l-.47-.86a4.62,4.62,0,0,1,2.44-.79c1.51,0,2.2,1,2.2,2.56v3.64h-1l-.1-.69h0a3,3,0,0,1-1.93.84A1.68,1.68,0,0,1,113.58,413.64Zm3.62,0V412.2c-1.79.2-2.4.67-2.4,1.35s.41.83,1,.83A2.15,2.15,0,0,0,117.2,413.68Z"/><path class="cls-24" d="M120.26,413.82v-7.35h1.26v7.42c0,.34.14.46.3.46l.21,0,.16,1a2.07,2.07,0,0,1-.68.1C120.6,415.39,120.26,414.8,120.26,413.82Z"/><path class="cls-24" d="M123.73,413.26V410.2h-.88v-.94l1-.07.14-1.67H125v1.67h1.57v1H125v3.07c0,.73.25,1.1.88,1.1a1.76,1.76,0,0,0,.65-.14l.23.94a3.88,3.88,0,0,1-1.19.22C124.21,415.39,123.73,414.54,123.73,413.26Z"/><path class="cls-24" d="M127.89,409.19h1l.1,1.09h0a2.08,2.08,0,0,1,1.71-1.24,1.44,1.44,0,0,1,.68.13l-.23,1.1a1.68,1.68,0,0,0-.6-.1c-.5,0-1.09.34-1.46,1.3v3.77h-1.27Z"/><path class="cls-24" d="M132.24,407.3a.72.72,0,0,1,.78-.75.76.76,0,1,1,0,1.51A.72.72,0,0,1,132.24,407.3Zm.15,1.89h1.26v6.05h-1.26Z"/><path class="cls-24" d="M7.32,426.22c0-2,1.24-3.18,2.59-3.18a2.34,2.34,0,0,1,1.63.68l-.06-1v-2.25h1.27v8.77h-1l-.1-.68h0a2.55,2.55,0,0,1-1.76.83C8.29,429.39,7.32,428.23,7.32,426.22Zm4.16,1.38v-3a1.93,1.93,0,0,0-1.33-.55c-.84,0-1.53.81-1.53,2.12s.54,2.13,1.49,2.13A1.76,1.76,0,0,0,11.48,427.6Z"/><path class="cls-24" d="M14.5,421.3a.73.73,0,0,1,.78-.75.76.76,0,1,1-.78.75Zm.15,1.89h1.27v6.05H14.65Z"/><path class="cls-24" d="M17.17,428.55l.6-.81a2.75,2.75,0,0,0,1.71.69c.73,0,1.07-.35,1.07-.82s-.68-.79-1.33-1c-.82-.31-1.71-.74-1.71-1.76s.82-1.77,2.16-1.77a3.21,3.21,0,0,1,2,.71l-.6.78a2.29,2.29,0,0,0-1.34-.52c-.67,0-1,.33-1,.74s.6.72,1.26,1c.84.32,1.78.69,1.78,1.84s-.81,1.84-2.3,1.84A3.79,3.79,0,0,1,17.17,428.55Z"/><path class="cls-24" d="M23.09,423.19h1l.1.66h0a3,3,0,0,1,1.87-.81c1.52,0,2.38,1.22,2.38,3.08,0,2.08-1.24,3.27-2.6,3.27a2.52,2.52,0,0,1-1.6-.69l0,1v2H23.09Zm4.11,2.95c0-1.26-.4-2.05-1.42-2.05a2.12,2.12,0,0,0-1.43.74v3a2,2,0,0,0,1.31.55C26.54,428.34,27.2,427.56,27.2,426.14Z"/><path class="cls-24" d="M29.59,426.22a2.87,2.87,0,1,1,2.85,3.17A2.91,2.91,0,0,1,29.59,426.22Zm4.4,0c0-1.28-.59-2.14-1.55-2.14s-1.54.86-1.54,2.14.59,2.13,1.54,2.13S34,427.5,34,426.22Z"/><path class="cls-24" d="M36.13,428.55l.6-.81a2.79,2.79,0,0,0,1.72.69c.72,0,1.06-.35,1.06-.82s-.68-.79-1.33-1c-.81-.31-1.7-.74-1.7-1.76s.81-1.77,2.15-1.77a3.16,3.16,0,0,1,2,.71l-.59.78a2.32,2.32,0,0,0-1.35-.52c-.67,0-1,.33-1,.74s.59.72,1.25,1c.85.32,1.78.69,1.78,1.84s-.8,1.84-2.3,1.84A3.81,3.81,0,0,1,36.13,428.55Z"/><path class="cls-24" d="M41.9,421.3a.73.73,0,0,1,.78-.75.76.76,0,1,1-.78.75Zm.15,1.89h1.27v6.05H42.05Z"/><path class="cls-24" d="M45.41,427.26V424.2h-.88v-.94l.94-.07.15-1.67h1.05v1.67h1.58v1H46.67v3.07c0,.73.26,1.1.88,1.1a1.72,1.72,0,0,0,.65-.14l.23.94a3.81,3.81,0,0,1-1.18.22C45.88,429.39,45.41,428.54,45.41,427.26Z"/><path class="cls-24" d="M49.41,421.3a.73.73,0,0,1,.78-.75.76.76,0,1,1-.78.75Zm.16,1.89h1.26v6.05H49.57Z"/><path class="cls-24" d="M51.91,423.19h1.3l1,3.26c.18.59.35,1.21.53,1.8h0c.18-.59.37-1.21.53-1.8l1-3.26h1.23l-2.09,6.05H54.05Z"/><path class="cls-24" d="M58.56,421.3a.73.73,0,0,1,.78-.75.76.76,0,1,1,0,1.51A.73.73,0,0,1,58.56,421.3Zm.16,1.89H60v6.05H58.72Z"/><path class="cls-24" d="M64,427.64c0-1.3,1.1-2,3.62-2.25,0-.7-.27-1.32-1.16-1.32a3.34,3.34,0,0,0-1.75.62l-.47-.86a4.59,4.59,0,0,1,2.44-.79c1.51,0,2.2,1,2.2,2.56v3.64h-1l-.1-.69h0a3,3,0,0,1-1.92.84A1.67,1.67,0,0,1,64,427.64Zm3.62,0V426.2c-1.8.2-2.4.67-2.4,1.35s.41.83.94.83A2.15,2.15,0,0,0,67.62,427.68Z"/><path class="cls-24" d="M70.23,430.36a1.62,1.62,0,0,1,.88-1.32V429a1.14,1.14,0,0,1-.55-1,1.46,1.46,0,0,1,.69-1.12v-.05a2,2,0,0,1-.81-1.61A2.18,2.18,0,0,1,72.79,423a2.48,2.48,0,0,1,.88.15h2.14v.95H74.66a1.64,1.64,0,0,1,.39,1.11,2.07,2.07,0,0,1-2.26,2.08,2.1,2.1,0,0,1-.85-.19.79.79,0,0,0-.33.64c0,.36.24.59,1,.59h1.11c1.43,0,2.18.44,2.18,1.48S74.68,432,72.74,432C71.29,432,70.23,431.42,70.23,430.36Zm4.46-.31c0-.51-.4-.66-1.13-.66h-.92a4.18,4.18,0,0,1-.81-.09,1.09,1.09,0,0,0-.52.88c0,.59.62.94,1.62.94S74.69,430.61,74.69,430.05Zm-.76-4.84a1.15,1.15,0,1,0-2.29,0,1.15,1.15,0,1,0,2.29,0Z"/><path class="cls-24" d="M77,427.82v-7.35H78.3v7.42c0,.34.14.46.29.46l.21,0,.17,1a2.17,2.17,0,0,1-.68.1C77.37,429.39,77,428.8,77,427.82Z"/><path class="cls-24" d="M80.16,421.3a.72.72,0,0,1,.78-.75.76.76,0,1,1,0,1.51A.72.72,0,0,1,80.16,421.3Zm.15,1.89h1.26v6.05H80.31Z"/><path class="cls-24" d="M85.59,427.64c0-1.3,1.1-2,3.62-2.25,0-.7-.27-1.32-1.16-1.32a3.37,3.37,0,0,0-1.75.62l-.47-.86a4.62,4.62,0,0,1,2.44-.79c1.51,0,2.2,1,2.2,2.56v3.64h-1l-.1-.69h0a3,3,0,0,1-1.93.84A1.68,1.68,0,0,1,85.59,427.64Zm3.62,0V426.2c-1.79.2-2.4.67-2.4,1.35s.41.83,1,.83A2.15,2.15,0,0,0,89.21,427.68Z"/><path class="cls-24" d="M92.27,427.82v-7.35h1.26v7.42c0,.34.14.46.3.46l.21,0,.16,1a2.07,2.07,0,0,1-.68.1C92.61,429.39,92.27,428.8,92.27,427.82Z"/><path class="cls-24" d="M95.74,427.26V424.2h-.88v-.94l1-.07.14-1.67H97v1.67h1.57v1H97v3.07c0,.73.25,1.1.88,1.1a1.76,1.76,0,0,0,.65-.14l.23.94a3.88,3.88,0,0,1-1.19.22C96.22,429.39,95.74,428.54,95.74,427.26Z"/><path class="cls-24" d="M99.47,426.22a2.87,2.87,0,1,1,2.85,3.17A2.91,2.91,0,0,1,99.47,426.22Zm4.4,0c0-1.28-.59-2.14-1.55-2.14s-1.54.86-1.54,2.14.59,2.13,1.54,2.13S103.87,427.5,103.87,426.22Z"/><path class="cls-24" d="M106.65,423.19h1l.1.66h0a3.07,3.07,0,0,1,1.87-.81c1.53,0,2.39,1.22,2.39,3.08,0,2.08-1.25,3.27-2.61,3.27a2.48,2.48,0,0,1-1.59-.69l0,1v2h-1.27Zm4.12,2.95c0-1.26-.41-2.05-1.42-2.05a2.12,2.12,0,0,0-1.43.74v3a2,2,0,0,0,1.31.55C110.11,428.34,110.77,427.56,110.77,426.14Z"/><path class="cls-24" d="M113.23,427.64c0-1.3,1.1-2,3.62-2.25,0-.7-.26-1.32-1.15-1.32a3.31,3.31,0,0,0-1.75.62l-.48-.86a4.63,4.63,0,0,1,2.45-.79c1.5,0,2.2,1,2.2,2.56v3.64h-1l-.1-.69h0a3,3,0,0,1-1.93.84A1.68,1.68,0,0,1,113.23,427.64Zm3.62,0V426.2c-1.79.2-2.4.67-2.4,1.35s.41.83,1,.83A2.11,2.11,0,0,0,116.85,427.68Z"/><path class="cls-24" d="M119.91,423.19h1l.1,1.09h0a2.07,2.07,0,0,1,1.71-1.24,1.44,1.44,0,0,1,.68.13l-.23,1.1a1.68,1.68,0,0,0-.6-.1c-.5,0-1.09.34-1.47,1.3v3.77h-1.26Z"/><path class="cls-24" d="M124.41,427.82v-7.35h1.26v7.42c0,.34.15.46.3.46l.21,0,.16,1a2.07,2.07,0,0,1-.68.1C124.75,429.39,124.41,428.8,124.41,427.82Z"/><path class="cls-24" d="M127.33,427.64c0-1.3,1.1-2,3.62-2.25,0-.7-.26-1.32-1.15-1.32a3.34,3.34,0,0,0-1.75.62l-.47-.86A4.56,4.56,0,0,1,130,423c1.51,0,2.2,1,2.2,2.56v3.64h-1l-.09-.69H131a3,3,0,0,1-1.92.84A1.68,1.68,0,0,1,127.33,427.64Zm3.62,0V426.2c-1.79.2-2.39.67-2.39,1.35s.4.83.94.83A2.11,2.11,0,0,0,131,427.68Z"/><path class="cls-24" d="M134,423.19h1l.09.84h0a2.86,2.86,0,0,1,2-1c1.29,0,1.86.86,1.86,2.4v3.8h-1.27v-3.65c0-1-.3-1.46-1-1.46a2,2,0,0,0-1.47.82v4.29H134Z"/><path class="cls-24" d="M141.07,427.26V424.2h-.88v-.94l.95-.07.14-1.67h1.06v1.67h1.57v1h-1.57v3.07c0,.73.25,1.1.88,1.1a1.76,1.76,0,0,0,.65-.14l.23.94a3.88,3.88,0,0,1-1.19.22C141.55,429.39,141.07,428.54,141.07,427.26Z"/><path class="cls-24" d="M145.08,421.3a.73.73,0,0,1,.78-.75.76.76,0,1,1-.78.75Zm.15,1.89h1.27v6.05h-1.27Z"/><path class="cls-24" d="M33.79,440.22c0-2,1.25-3.18,2.6-3.18a2.34,2.34,0,0,1,1.63.68l-.06-1v-2.25h1.27v8.77h-1l-.1-.68h0a2.55,2.55,0,0,1-1.76.83C34.77,443.39,33.79,442.23,33.79,440.22ZM38,441.6v-3a1.93,1.93,0,0,0-1.33-.55c-.85,0-1.53.81-1.53,2.12s.54,2.13,1.49,2.13A1.77,1.77,0,0,0,38,441.6Z"/><path class="cls-24" d="M40.7,440.22A2.94,2.94,0,0,1,43.46,437c1.61,0,2.48,1.15,2.48,2.86a3.58,3.58,0,0,1-.07.65H41.94a1.84,1.84,0,0,0,1.87,1.85,2.54,2.54,0,0,0,1.44-.46l.44.81a3.69,3.69,0,0,1-2,.64A2.91,2.91,0,0,1,40.7,440.22Zm4.14-.55c0-1-.48-1.64-1.36-1.64a1.63,1.63,0,0,0-1.55,1.64Z"/><path class="cls-24" d="M47.34,441.82v-7.35h1.27v7.42c0,.34.14.46.3.46l.2,0,.17,1a2.07,2.07,0,0,1-.68.1C47.68,443.39,47.34,442.8,47.34,441.82Z"/><path class="cls-24" d="M50.62,441.82v-7.35h1.27v7.42c0,.34.14.46.29.46l.21,0,.17,1a2.17,2.17,0,0,1-.68.1C51,443.39,50.62,442.8,50.62,441.82Z"/><path class="cls-24" d="M53.47,440.22a2.87,2.87,0,1,1,2.85,3.17A2.91,2.91,0,0,1,53.47,440.22Zm4.4,0c0-1.28-.59-2.14-1.55-2.14s-1.54.86-1.54,2.14.59,2.13,1.54,2.13S57.87,441.5,57.87,440.22Z"/><path class="cls-24" d="M62.49,442.55l.59-.81a2.79,2.79,0,0,0,1.72.69c.73,0,1.07-.35,1.07-.82s-.68-.79-1.33-1c-.82-.31-1.71-.74-1.71-1.76S63.65,437,65,437a3.21,3.21,0,0,1,2,.71l-.6.78A2.31,2.31,0,0,0,65,438c-.67,0-1,.33-1,.74s.59.72,1.25,1c.85.32,1.79.69,1.79,1.84s-.81,1.84-2.3,1.84A3.77,3.77,0,0,1,62.49,442.55Z"/><path class="cls-24" d="M68.61,441.26V438.2h-.88v-.94l.94-.07.15-1.67h1.05v1.67h1.57v1H69.87v3.07c0,.73.25,1.1.88,1.1a1.76,1.76,0,0,0,.65-.14l.23.94a3.88,3.88,0,0,1-1.19.22C69.08,443.39,68.61,442.54,68.61,441.26Z"/><path class="cls-24" d="M72.76,437.19h1l.1,1.09h0A2.09,2.09,0,0,1,75.65,437a1.5,1.5,0,0,1,.68.13l-.23,1.1a1.74,1.74,0,0,0-.61-.1c-.49,0-1.09.34-1.46,1.3v3.77H72.76Z"/><path class="cls-24" d="M77.19,441v-3.81h1.26v3.65c0,1,.3,1.46,1,1.46s1-.27,1.46-.91v-4.2h1.26v6.05h-1l-.1-.91h0a2.52,2.52,0,0,1-2,1.06C77.75,443.39,77.19,442.54,77.19,441Z"/><path class="cls-24" d="M84.08,437.19h1l.1.85h0a2.64,2.64,0,0,1,1.87-1,1.61,1.61,0,0,1,1.67,1.11,2.79,2.79,0,0,1,2-1.11c1.27,0,1.86.86,1.86,2.4v3.8H91.35v-3.65c0-1-.33-1.46-1-1.46A2,2,0,0,0,89,439v4.29H87.71v-3.65c0-1-.32-1.46-1-1.46a2,2,0,0,0-1.35.82v4.29H84.08Z"/><path class="cls-24" d="M94,440.22A2.94,2.94,0,0,1,96.78,437c1.6,0,2.47,1.15,2.47,2.86a3.69,3.69,0,0,1-.06.65H95.26a1.83,1.83,0,0,0,1.87,1.85,2.54,2.54,0,0,0,1.44-.46l.44.81a3.69,3.69,0,0,1-2.05.64A2.91,2.91,0,0,1,94,440.22Zm4.13-.55c0-1-.47-1.64-1.35-1.64a1.63,1.63,0,0,0-1.55,1.64Z"/><path class="cls-24" d="M100.66,437.19h1l.1.84h0a2.86,2.86,0,0,1,2-1c1.29,0,1.86.86,1.86,2.4v3.8h-1.27v-3.65c0-1-.31-1.46-1-1.46a2,2,0,0,0-1.48.82v4.29h-1.26Z"/><path class="cls-24" d="M107.72,441.26V438.2h-.88v-.94l1-.07.14-1.67H109v1.67h1.57v1H109v3.07c0,.73.25,1.1.88,1.1a1.76,1.76,0,0,0,.65-.14l.23.94a3.88,3.88,0,0,1-1.19.22C108.19,443.39,107.72,442.54,107.72,441.26Z"/><path class="cls-24" d="M111.45,440.22a2.87,2.87,0,1,1,2.85,3.17A2.91,2.91,0,0,1,111.45,440.22Zm4.4,0c0-1.28-.59-2.14-1.55-2.14s-1.54.86-1.54,2.14.59,2.13,1.54,2.13S115.85,441.5,115.85,440.22Z"/><path class="cls-24" d="M118.47,442.51a.85.85,0,1,1,1.69,0,.85.85,0,1,1-1.69,0Z"/><path class="cls-24" d="M180.48,389.93c0-2.64,1.61-4.23,3.65-4.23a3.1,3.1,0,0,1,2.3,1l-.69.81a2.14,2.14,0,0,0-1.58-.72c-1.4,0-2.37,1.16-2.37,3.06s.9,3.11,2.33,3.11a2.36,2.36,0,0,0,1.8-.86l.68.8a3.2,3.2,0,0,1-2.52,1.17C182,394.1,180.48,392.58,180.48,389.93Z"/><path class="cls-24" d="M187.49,390.93a2.87,2.87,0,1,1,2.85,3.17A2.92,2.92,0,0,1,187.49,390.93Zm4.4,0c0-1.28-.6-2.13-1.55-2.13s-1.54.85-1.54,2.13.59,2.13,1.54,2.13S191.89,392.22,191.89,390.93Z"/><path class="cls-24" d="M194.67,392.54v-7.35h1.27v7.41c0,.34.14.46.29.46l.21,0,.17,1a2.17,2.17,0,0,1-.68.1C195,394.1,194.67,393.52,194.67,392.54Z"/><path class="cls-24" d="M198,392.54v-7.35h1.26v7.41c0,.34.15.46.3.46l.21,0,.17,1a2.19,2.19,0,0,1-.69.1C198.29,394.1,198,393.52,198,392.54Z"/><path class="cls-24" d="M200.8,390.93a2.94,2.94,0,0,1,2.76-3.18c1.61,0,2.47,1.16,2.47,2.86a3.6,3.6,0,0,1-.06.65H202a1.83,1.83,0,0,0,1.87,1.85,2.61,2.61,0,0,0,1.44-.45l.44.8a3.69,3.69,0,0,1-2,.64A2.91,2.91,0,0,1,200.8,390.93Zm4.13-.55c0-1-.47-1.64-1.35-1.64a1.63,1.63,0,0,0-1.55,1.64Z"/><path class="cls-24" d="M207,395.08a1.59,1.59,0,0,1,.88-1.32v-.06a1.09,1.09,0,0,1-.55-1,1.47,1.47,0,0,1,.68-1.12v0a2.09,2.09,0,0,1-.8-1.62,2.18,2.18,0,0,1,2.34-2.17,2.68,2.68,0,0,1,.88.15h2.15v1h-1.16a1.59,1.59,0,0,1,.4,1.11,2.07,2.07,0,0,1-2.27,2.08,1.94,1.94,0,0,1-.84-.19.8.8,0,0,0-.33.64c0,.37.24.6,1,.6h1.11c1.43,0,2.18.44,2.18,1.47s-1.23,2.11-3.17,2.11C208.06,396.67,207,396.13,207,395.08Zm4.46-.32c0-.51-.4-.66-1.14-.66h-.91a3.53,3.53,0,0,1-.81-.09,1.07,1.07,0,0,0-.52.88c0,.59.62.95,1.62.95S211.46,395.32,211.46,394.76Zm-.76-4.84a1.15,1.15,0,1,0-2.29,0,1.16,1.16,0,1,0,2.29,0Z"/><path class="cls-24" d="M213.45,392.35c0-1.3,1.1-2,3.62-2.24,0-.71-.27-1.33-1.16-1.33a3.34,3.34,0,0,0-1.75.62l-.47-.86a4.68,4.68,0,0,1,2.44-.79c1.51,0,2.2,1,2.2,2.56V394h-1l-.1-.7h0a3,3,0,0,1-1.92.84A1.67,1.67,0,0,1,213.45,392.35Zm3.62,0v-1.48c-1.8.21-2.4.67-2.4,1.35s.41.84.94.84A2.17,2.17,0,0,0,217.07,392.39Z"/><path class="cls-24" d="M222.6,392.54v-7.35h1.26v7.41c0,.34.15.46.3.46l.21,0,.17,1a2.19,2.19,0,0,1-.69.1C222.94,394.1,222.6,393.52,222.6,392.54Z"/><path class="cls-24" d="M225.45,390.93a2.87,2.87,0,1,1,2.85,3.17A2.92,2.92,0,0,1,225.45,390.93Zm4.4,0c0-1.28-.6-2.13-1.55-2.13s-1.54.85-1.54,2.13.59,2.13,1.54,2.13S229.85,392.22,229.85,390.93Z"/><path class="cls-24" d="M234.47,393.26l.59-.81a2.74,2.74,0,0,0,1.72.69c.72,0,1.07-.35,1.07-.81s-.69-.79-1.34-1.05c-.81-.31-1.7-.73-1.7-1.76s.81-1.77,2.16-1.77a3.1,3.1,0,0,1,1.95.72l-.59.78a2.26,2.26,0,0,0-1.34-.53c-.67,0-1,.33-1,.75s.59.71,1.25.95c.85.32,1.78.7,1.78,1.84s-.8,1.84-2.29,1.84A3.7,3.7,0,0,1,234.47,393.26Z"/><path class="cls-24" d="M240.58,392v-3.06h-.88V388l1-.07.14-1.67h1.06v1.67h1.57v1h-1.57V392c0,.72.25,1.1.88,1.1a1.77,1.77,0,0,0,.65-.15l.23.94a3.88,3.88,0,0,1-1.19.22C241.06,394.1,240.58,393.25,240.58,392Z"/><path class="cls-24" d="M244.74,387.9h1l.1,1.09h0a2.09,2.09,0,0,1,1.71-1.24,1.66,1.66,0,0,1,.69.13l-.23,1.1a2,2,0,0,0-.61-.1c-.49,0-1.09.35-1.46,1.3V394h-1.27Z"/><path class="cls-24" d="M249.16,391.71V387.9h1.27v3.66c0,1,.3,1.45,1,1.45.56,0,.95-.26,1.45-.9V387.9h1.27V394h-1L253,393h0a2.53,2.53,0,0,1-2,1.06C249.73,394.1,249.16,393.25,249.16,391.71Z"/><path class="cls-24" d="M256.06,387.9h1l.09.85h0a2.62,2.62,0,0,1,1.87-1,1.61,1.61,0,0,1,1.67,1.11,2.77,2.77,0,0,1,2-1.11c1.26,0,1.86.86,1.86,2.4V394h-1.27V390.3c0-1-.33-1.46-1-1.46a2,2,0,0,0-1.36.83V394h-1.27V390.3c0-1-.32-1.46-1-1.46a2,2,0,0,0-1.35.83V394h-1.27Z"/><path class="cls-24" d="M266,390.93a3,3,0,0,1,2.77-3.18c1.6,0,2.47,1.16,2.47,2.86a2.8,2.8,0,0,1-.07.65h-3.92a1.82,1.82,0,0,0,1.87,1.85,2.61,2.61,0,0,0,1.44-.45l.44.8a3.72,3.72,0,0,1-2.05.64A2.91,2.91,0,0,1,266,390.93Zm4.14-.55c0-1-.47-1.64-1.35-1.64a1.63,1.63,0,0,0-1.55,1.64Z"/><path class="cls-24" d="M272.64,387.9h1l.1.84h0a2.9,2.9,0,0,1,2-1c1.28,0,1.86.86,1.86,2.4V394H276.4V390.3c0-1-.31-1.46-1-1.46a2,2,0,0,0-1.48.83V394h-1.26Z"/><path class="cls-24" d="M279.7,392v-3.06h-.88V388l.95-.07.14-1.67h1v1.67h1.58v1H281V392c0,.72.26,1.1.88,1.1a1.72,1.72,0,0,0,.65-.15l.24.94a3.94,3.94,0,0,1-1.19.22C280.17,394.1,279.7,393.25,279.7,392Z"/><path class="cls-24" d="M283.43,390.93a2.87,2.87,0,1,1,2.85,3.17A2.92,2.92,0,0,1,283.43,390.93Zm4.4,0c0-1.28-.6-2.13-1.55-2.13s-1.54.85-1.54,2.13.59,2.13,1.54,2.13S287.83,392.22,287.83,390.93Z"/><path class="cls-24" d="M292.73,392.35c0-1.3,1.1-2,3.62-2.24,0-.71-.26-1.33-1.15-1.33a3.34,3.34,0,0,0-1.75.62l-.47-.86a4.65,4.65,0,0,1,2.44-.79c1.51,0,2.2,1,2.2,2.56V394h-1l-.09-.7h-.05a3,3,0,0,1-1.92.84A1.67,1.67,0,0,1,292.73,392.35Zm3.62,0v-1.48c-1.79.21-2.39.67-2.39,1.35s.4.84.94.84A2.13,2.13,0,0,0,296.35,392.39Z"/><path class="cls-24" d="M299,390.93c0-2,1.25-3.18,2.6-3.18a2.34,2.34,0,0,1,1.63.68l-.06-1v-2.24h1.27V394h-1l-.09-.69h-.05a2.51,2.51,0,0,1-1.76.83C300,394.1,299,392.94,299,390.93Zm4.17,1.39v-3a1.88,1.88,0,0,0-1.33-.55c-.84,0-1.53.8-1.53,2.11s.54,2.13,1.49,2.13A1.79,1.79,0,0,0,303.17,392.32Z"/><path class="cls-24" d="M180.46,406.35c0-1.3,1.1-2,3.62-2.24,0-.71-.27-1.33-1.16-1.33a3.37,3.37,0,0,0-1.75.62l-.47-.86a4.71,4.71,0,0,1,2.44-.79c1.51,0,2.2,1,2.2,2.56V408h-1l-.1-.7h0a3,3,0,0,1-1.93.84A1.67,1.67,0,0,1,180.46,406.35Zm3.62,0v-1.48c-1.79.21-2.4.67-2.4,1.35s.41.84.95.84A2.17,2.17,0,0,0,184.08,406.39Z"/><path class="cls-24" d="M187.14,406.54v-7.35h1.26v7.41c0,.34.14.46.3.46l.21,0,.16,1a2.07,2.07,0,0,1-.68.1C187.48,408.1,187.14,407.52,187.14,406.54Z"/><path class="cls-24" d="M190.61,406v-3.06h-.88V402l1-.07.14-1.67h1.06v1.67h1.57v1h-1.57V406c0,.72.25,1.1.88,1.1a1.77,1.77,0,0,0,.65-.15l.23.94a3.88,3.88,0,0,1-1.19.22C191.09,408.1,190.61,407.25,190.61,406Z"/><path class="cls-24" d="M194.34,404.93a2.87,2.87,0,1,1,2.85,3.17A2.92,2.92,0,0,1,194.34,404.93Zm4.4,0c0-1.28-.59-2.13-1.55-2.13s-1.54.85-1.54,2.13.59,2.13,1.54,2.13S198.74,406.22,198.74,404.93Z"/><path class="cls-24" d="M201.52,401.9h1l.1.67h0a3,3,0,0,1,1.87-.82c1.53,0,2.39,1.22,2.39,3.08,0,2.08-1.25,3.27-2.61,3.27a2.46,2.46,0,0,1-1.59-.68l0,1v2h-1.27Zm4.12,3c0-1.26-.41-2-1.42-2a2.11,2.11,0,0,0-1.43.73v3a2,2,0,0,0,1.31.55C205,407.05,205.64,406.27,205.64,404.85Z"/><path class="cls-24" d="M208.1,406.35c0-1.3,1.1-2,3.62-2.24,0-.71-.26-1.33-1.15-1.33a3.31,3.31,0,0,0-1.75.62l-.48-.86a4.72,4.72,0,0,1,2.45-.79c1.5,0,2.2,1,2.2,2.56V408h-1l-.1-.7h0a3,3,0,0,1-1.93.84A1.67,1.67,0,0,1,208.1,406.35Zm3.62,0v-1.48c-1.79.21-2.4.67-2.4,1.35s.41.84,1,.84A2.13,2.13,0,0,0,211.72,406.39Z"/><path class="cls-24" d="M214.78,401.9h1l.1,1.09h0a2.07,2.07,0,0,1,1.71-1.24,1.58,1.58,0,0,1,.68.13l-.23,1.1a1.93,1.93,0,0,0-.6-.1c-.5,0-1.09.35-1.47,1.3V408h-1.26Z"/><path class="cls-24" d="M219.28,406.54v-7.35h1.26v7.41c0,.34.15.46.3.46l.21,0,.16,1a2.07,2.07,0,0,1-.68.1C219.62,408.1,219.28,407.52,219.28,406.54Z"/><path class="cls-24" d="M222.2,406.35c0-1.3,1.1-2,3.62-2.24,0-.71-.26-1.33-1.15-1.33a3.34,3.34,0,0,0-1.75.62l-.47-.86a4.65,4.65,0,0,1,2.44-.79c1.51,0,2.2,1,2.2,2.56V408h-1l-.09-.7h-.05a3,3,0,0,1-1.92.84A1.67,1.67,0,0,1,222.2,406.35Zm3.62,0v-1.48c-1.79.21-2.4.67-2.4,1.35s.41.84,1,.84A2.13,2.13,0,0,0,225.82,406.39Z"/><path class="cls-24" d="M228.88,401.9h1l.1.84h0a2.86,2.86,0,0,1,2-1c1.29,0,1.86.86,1.86,2.4V408h-1.27V404.3c0-1-.31-1.46-1-1.46a2,2,0,0,0-1.47.83V408h-1.27Z"/><path class="cls-24" d="M235.94,406v-3.06h-.88V402l.95-.07.14-1.67h1.06v1.67h1.57v1h-1.57V406c0,.72.25,1.1.88,1.1a1.77,1.77,0,0,0,.65-.15l.23.94a3.88,3.88,0,0,1-1.19.22C236.42,408.1,235.94,407.25,235.94,406Z"/><path class="cls-24" d="M240,400a.73.73,0,0,1,.78-.75.76.76,0,1,1-.78.75Zm.15,1.89h1.27V408H240.1Z"/><path class="cls-24" d="M242.88,409.44a1.69,1.69,0,0,0,1.2-1.51H244a.79.79,0,0,1-.85-.81.82.82,0,0,1,.88-.81c.62,0,1,.51,1,1.36a2.58,2.58,0,0,1-1.8,2.48Z"/><path class="cls-24" d="M248.66,406.35c0-1.3,1.1-2,3.62-2.24,0-.71-.27-1.33-1.16-1.33a3.34,3.34,0,0,0-1.75.62l-.47-.86a4.68,4.68,0,0,1,2.44-.79c1.51,0,2.2,1,2.2,2.56V408h-1l-.1-.7h0a3,3,0,0,1-1.93.84A1.67,1.67,0,0,1,248.66,406.35Zm3.62,0v-1.48c-1.8.21-2.4.67-2.4,1.35s.41.84,1,.84A2.17,2.17,0,0,0,252.28,406.39Z"/><path class="cls-24" d="M255.33,401.9h1l.1.85h0a2.64,2.64,0,0,1,1.87-1,1.61,1.61,0,0,1,1.67,1.11,2.79,2.79,0,0,1,2-1.11c1.27,0,1.86.86,1.86,2.4V408h-1.26V404.3c0-1-.33-1.46-1-1.46a2,2,0,0,0-1.36.83V408H259V404.3c0-1-.32-1.46-1-1.46a2,2,0,0,0-1.35.83V408h-1.27Z"/><path class="cls-24" d="M265.7,401.9h1l.1.67h0a3,3,0,0,1,1.87-.82c1.53,0,2.39,1.22,2.39,3.08,0,2.08-1.24,3.27-2.61,3.27a2.48,2.48,0,0,1-1.59-.68l0,1v2H265.7Zm4.11,3c0-1.26-.41-2-1.42-2a2.11,2.11,0,0,0-1.43.73v3a2,2,0,0,0,1.31.55C269.15,407.05,269.81,406.27,269.81,404.85Z"/><path class="cls-24" d="M272.63,406.54v-7.35h1.26v7.41c0,.34.14.46.3.46l.21,0,.16,1a2.07,2.07,0,0,1-.68.1C273,408.1,272.63,407.52,272.63,406.54Z"/><path class="cls-24" d="M275.75,400a.73.73,0,0,1,.78-.75.76.76,0,1,1-.78.75Zm.15,1.89h1.27V408H275.9Z"/><path class="cls-24" d="M279.27,402.92h-.82V402l.82-.07v-.75c0-1.25.56-2.11,1.92-2.11a2.94,2.94,0,0,1,1.06.2l-.25,1a1.62,1.62,0,0,0-.66-.15c-.54,0-.8.35-.8,1.08v.77h1.22v1h-1.22v5h-1.27ZM282.7,400a.8.8,0,1,1,.8.76A.74.74,0,0,1,282.7,400Zm.16,1.89h1.26V408h-1.26Z"/><path class="cls-24" d="M285.6,404.93a3,3,0,0,1,3-3.18,2.62,2.62,0,0,1,1.77.69l-.63.83a1.56,1.56,0,0,0-1.08-.47c-1,0-1.75.85-1.75,2.13s.71,2.13,1.71,2.13a2,2,0,0,0,1.32-.55l.53.84a3,3,0,0,1-2,.75A2.86,2.86,0,0,1,285.6,404.93Z"/><path class="cls-24" d="M291.36,406.35c0-1.3,1.1-2,3.62-2.24,0-.71-.27-1.33-1.16-1.33a3.37,3.37,0,0,0-1.75.62l-.47-.86a4.71,4.71,0,0,1,2.44-.79c1.51,0,2.2,1,2.2,2.56V408h-1l-.1-.7h0a3,3,0,0,1-1.93.84A1.67,1.67,0,0,1,291.36,406.35Zm3.62,0v-1.48c-1.79.21-2.4.67-2.4,1.35s.41.84.95.84A2.17,2.17,0,0,0,295,406.39Z"/><path class="cls-24" d="M298.23,406v-3.06h-.88V402l.95-.07.14-1.67h1.06v1.67h1.57v1H299.5V406c0,.72.25,1.1.88,1.1a1.77,1.77,0,0,0,.65-.15l.23.94a3.88,3.88,0,0,1-1.19.22C298.71,408.1,298.23,407.25,298.23,406Z"/><path class="cls-24" d="M302,404.93a2.87,2.87,0,1,1,2.85,3.17A2.93,2.93,0,0,1,302,404.93Zm4.4,0c0-1.28-.59-2.13-1.55-2.13s-1.54.85-1.54,2.13.6,2.13,1.54,2.13S306.36,406.22,306.36,404.93Z"/><path class="cls-24" d="M309.15,401.9h1l.1,1.09h0a2.09,2.09,0,0,1,1.72-1.24,1.61,1.61,0,0,1,.68.13l-.23,1.1a1.93,1.93,0,0,0-.6-.1c-.5,0-1.09.35-1.47,1.3V408h-1.26Z"/><path class="cls-24" d="M313.49,400a.73.73,0,0,1,.78-.75.76.76,0,1,1-.78.75Zm.16,1.89h1.26V408h-1.26Z"/><path class="cls-24" d="M316.43,409.44a1.69,1.69,0,0,0,1.2-1.51h-.12a.79.79,0,0,1-.85-.81.82.82,0,0,1,.88-.81c.62,0,1,.51,1,1.36a2.58,2.58,0,0,1-1.81,2.48Z"/><path class="cls-24" d="M180.81,415.9h1l.09.85h0a2.62,2.62,0,0,1,1.87-1,1.61,1.61,0,0,1,1.67,1.11,2.77,2.77,0,0,1,2-1.11c1.26,0,1.86.86,1.86,2.4V422h-1.27V418.3c0-1-.33-1.46-1-1.46a2,2,0,0,0-1.36.83V422h-1.27V418.3c0-1-.32-1.46-1-1.46a2,2,0,0,0-1.35.83V422h-1.27Z"/><path class="cls-24" d="M191,414a.73.73,0,0,1,.78-.75.76.76,0,1,1-.78.75Zm.15,1.89h1.27V422h-1.27Z"/><path class="cls-24" d="M195.5,418.8l-1.82-2.9H195l.73,1.21c.18.35.38.69.57,1h0c.16-.34.34-.68.5-1l.64-1.21h1.32l-1.81,3,1.94,3h-1.37l-.79-1.29c-.2-.35-.41-.73-.63-1.07h-.06l-.56,1.07-.7,1.29h-1.33Z"/><path class="cls-24" d="M199.69,418.93a2.94,2.94,0,0,1,2.76-3.18c1.6,0,2.47,1.16,2.47,2.86a3.6,3.6,0,0,1-.06.65h-3.93a1.82,1.82,0,0,0,1.87,1.85,2.61,2.61,0,0,0,1.44-.45l.44.8a3.69,3.69,0,0,1-2,.64A2.91,2.91,0,0,1,199.69,418.93Zm4.13-.55c0-1-.47-1.64-1.35-1.64a1.63,1.63,0,0,0-1.55,1.64Z"/><path class="cls-24" d="M206.33,415.9h1l.1,1.09h0a2.08,2.08,0,0,1,1.71-1.24,1.66,1.66,0,0,1,.69.13l-.24,1.1a1.89,1.89,0,0,0-.6-.1c-.5,0-1.09.35-1.46,1.3V422h-1.27Z"/><path class="cls-24" d="M210.19,421.26l.6-.81a2.69,2.69,0,0,0,1.71.69c.73,0,1.07-.35,1.07-.81s-.68-.79-1.33-1.05c-.82-.31-1.71-.73-1.71-1.76s.82-1.77,2.16-1.77a3.15,3.15,0,0,1,2,.72l-.6.78a2.21,2.21,0,0,0-1.34-.53c-.67,0-1,.33-1,.75s.6.71,1.26.95c.84.32,1.78.7,1.78,1.84s-.8,1.84-2.3,1.84A3.73,3.73,0,0,1,210.19,421.26Z"/><path class="cls-24" d="M218.16,418.93a2.94,2.94,0,0,1,2.76-3.18c1.6,0,2.47,1.16,2.47,2.86a3.6,3.6,0,0,1-.06.65H219.4a1.82,1.82,0,0,0,1.87,1.85,2.61,2.61,0,0,0,1.44-.45l.44.8a3.69,3.69,0,0,1-2.05.64A2.91,2.91,0,0,1,218.16,418.93Zm4.13-.55c0-1-.47-1.64-1.35-1.64a1.63,1.63,0,0,0-1.55,1.64Z"/><path class="cls-24" d="M224.16,421.26l.6-.81a2.69,2.69,0,0,0,1.71.69c.73,0,1.07-.35,1.07-.81s-.68-.79-1.33-1.05c-.82-.31-1.71-.73-1.71-1.76s.82-1.77,2.16-1.77a3.15,3.15,0,0,1,2,.72l-.6.78a2.24,2.24,0,0,0-1.34-.53c-.67,0-1,.33-1,.75s.6.71,1.26.95c.84.32,1.78.7,1.78,1.84s-.8,1.84-2.3,1.84A3.73,3.73,0,0,1,224.16,421.26Z"/><path class="cls-24" d="M230.28,420v-3.06h-.88V416l.94-.07.15-1.67h1v1.67h1.58v1h-1.58V420c0,.72.26,1.1.88,1.1a1.72,1.72,0,0,0,.65-.15l.23.94a3.88,3.88,0,0,1-1.19.22C230.75,422.1,230.28,421.25,230.28,420Z"/><path class="cls-24" d="M234,418.93a2.94,2.94,0,0,1,2.76-3.18c1.6,0,2.47,1.16,2.47,2.86a3.6,3.6,0,0,1-.06.65h-3.93a1.82,1.82,0,0,0,1.87,1.85,2.61,2.61,0,0,0,1.44-.45l.44.8a3.69,3.69,0,0,1-2.05.64A2.91,2.91,0,0,1,234,418.93Zm4.13-.55c0-1-.47-1.64-1.35-1.64a1.63,1.63,0,0,0-1.55,1.64Z"/><path class="cls-24" d="M240.65,415.9h1l.1,1.09h0a2.08,2.08,0,0,1,1.71-1.24,1.58,1.58,0,0,1,.68.13L244,417a1.93,1.93,0,0,0-.6-.1c-.5,0-1.09.35-1.46,1.3V422h-1.27Z"/><path class="cls-24" d="M245.15,415.9h1l.1.84h0a2.86,2.86,0,0,1,2-1c1.28,0,1.86.86,1.86,2.4V422h-1.27V418.3c0-1-.31-1.46-1-1.46a2,2,0,0,0-1.48.83V422h-1.26Z"/><path class="cls-24" d="M251.86,414a.73.73,0,0,1,.78-.75.76.76,0,1,1-.78.75Zm.15,1.89h1.27V422H252Z"/><path class="cls-24" d="M255,421.22a.85.85,0,1,1,1.7,0,.85.85,0,1,1-1.7,0Z"/><path class="cls-24" d="M350.91,365.16c0-2.64,1.61-4.22,3.65-4.22a3.09,3.09,0,0,1,2.3,1l-.69.82a2.15,2.15,0,0,0-1.58-.73c-1.4,0-2.37,1.17-2.37,3.07s.9,3.1,2.33,3.1a2.36,2.36,0,0,0,1.8-.86l.68.81a3.2,3.2,0,0,1-2.52,1.16C352.47,369.33,350.91,367.82,350.91,365.16Z"/><path class="cls-24" d="M357.92,366.16a2.87,2.87,0,1,1,2.85,3.17A2.92,2.92,0,0,1,357.92,366.16Zm4.4,0c0-1.27-.59-2.13-1.55-2.13s-1.54.86-1.54,2.13.59,2.14,1.54,2.14S362.32,367.45,362.32,366.16Z"/><path class="cls-24" d="M365.1,367.77v-7.35h1.27v7.42c0,.34.14.46.29.46l.21,0,.17,1a1.91,1.91,0,0,1-.68.1C365.44,369.33,365.1,368.75,365.1,367.77Z"/><path class="cls-24" d="M368.38,367.77v-7.35h1.26v7.42c0,.34.15.46.3.46l.21,0,.17,1a1.93,1.93,0,0,1-.69.1C368.72,369.33,368.38,368.75,368.38,367.77Z"/><path class="cls-24" d="M371.23,366.16A2.94,2.94,0,0,1,374,363c1.61,0,2.47,1.16,2.47,2.87a3.48,3.48,0,0,1-.06.64h-3.93a1.83,1.83,0,0,0,1.87,1.85,2.53,2.53,0,0,0,1.44-.45l.44.8a3.61,3.61,0,0,1-2,.64A2.91,2.91,0,0,1,371.23,366.16Zm4.13-.55c0-1-.47-1.63-1.35-1.63a1.63,1.63,0,0,0-1.55,1.63Z"/><path class="cls-24" d="M377.43,370.31a1.61,1.61,0,0,1,.88-1.32v-.05a1.12,1.12,0,0,1-.55-1,1.49,1.49,0,0,1,.68-1.13v0a2.07,2.07,0,0,1-.8-1.62A2.18,2.18,0,0,1,380,363a2.43,2.43,0,0,1,.88.16H383v.95h-1.16a1.57,1.57,0,0,1,.4,1.11,2.07,2.07,0,0,1-2.27,2.08,2.1,2.1,0,0,1-.84-.19.77.77,0,0,0-.33.64c0,.36.24.59,1,.59h1.11c1.43,0,2.18.44,2.18,1.48s-1.23,2.11-3.17,2.11C378.49,371.91,377.43,371.37,377.43,370.31Zm4.46-.32c0-.5-.4-.66-1.14-.66h-.91a4.2,4.2,0,0,1-.81-.08,1.07,1.07,0,0,0-.52.88c0,.59.62.94,1.62.94S381.89,370.55,381.89,370Zm-.76-4.84a1.15,1.15,0,1,0-2.29,0,1.16,1.16,0,1,0,2.29,0Z"/><path class="cls-24" d="M383.88,367.58c0-1.29,1.1-2,3.62-2.24,0-.7-.27-1.32-1.16-1.32a3.34,3.34,0,0,0-1.75.62l-.47-.86a4.6,4.6,0,0,1,2.44-.8c1.51,0,2.2,1,2.2,2.57v3.64h-1l-.1-.69h0a3,3,0,0,1-1.93.83A1.67,1.67,0,0,1,383.88,367.58Zm3.62.05v-1.49c-1.8.21-2.4.67-2.4,1.36s.41.83.95.83A2.15,2.15,0,0,0,387.5,367.63Z"/><path class="cls-24" d="M390.56,363.14h1l.1,1.09h0a2.11,2.11,0,0,1,1.72-1.25,1.49,1.49,0,0,1,.68.14l-.23,1.1a1.7,1.7,0,0,0-.61-.1c-.49,0-1.09.34-1.46,1.3v3.77h-1.26Z"/><path class="cls-24" d="M394.63,366.16a2.94,2.94,0,0,1,2.76-3.18c1.6,0,2.47,1.16,2.47,2.87a3.48,3.48,0,0,1-.06.64h-3.93a1.82,1.82,0,0,0,1.87,1.85,2.53,2.53,0,0,0,1.44-.45l.44.8a3.62,3.62,0,0,1-2.05.64A2.9,2.9,0,0,1,394.63,366.16Zm4.13-.55c0-1-.47-1.63-1.35-1.63a1.63,1.63,0,0,0-1.55,1.63Z"/><path class="cls-24" d="M403.74,367.77v-7.35H405v7.42c0,.34.14.46.3.46l.21,0,.16,1a1.83,1.83,0,0,1-.68.1C404.08,369.33,403.74,368.75,403.74,367.77Z"/><path class="cls-24" d="M406.59,366.16a2.87,2.87,0,1,1,2.85,3.17A2.93,2.93,0,0,1,406.59,366.16Zm4.4,0c0-1.27-.59-2.13-1.55-2.13s-1.54.86-1.54,2.13.6,2.14,1.54,2.14S411,367.45,411,366.16Z"/><path class="cls-24" d="M415.61,368.5l.6-.82a2.72,2.72,0,0,0,1.71.7c.73,0,1.07-.36,1.07-.82s-.68-.79-1.33-1c-.82-.31-1.71-.74-1.71-1.76s.82-1.78,2.16-1.78a3.21,3.21,0,0,1,2,.72l-.6.78a2.21,2.21,0,0,0-1.34-.53c-.67,0-1,.33-1,.75s.6.72,1.26,1c.84.32,1.78.69,1.78,1.84s-.8,1.83-2.3,1.83A3.78,3.78,0,0,1,415.61,368.5Z"/><path class="cls-24" d="M421.73,367.21v-3.06h-.88v-.94l.94-.07.15-1.67H423v1.67h1.58v1H423v3.07c0,.73.26,1.1.88,1.1a1.93,1.93,0,0,0,.65-.14l.23.93a3.81,3.81,0,0,1-1.18.22C422.2,369.33,421.73,368.49,421.73,367.21Z"/><path class="cls-24" d="M425.89,363.14h1l.1,1.09h0a2.11,2.11,0,0,1,1.72-1.25,1.46,1.46,0,0,1,.68.14l-.23,1.1a1.68,1.68,0,0,0-.6-.1c-.5,0-1.09.34-1.47,1.3v3.77h-1.26Z"/><path class="cls-24" d="M430.31,367v-3.81h1.26v3.65c0,1,.3,1.45,1,1.45.56,0,.94-.26,1.45-.9v-4.2h1.26v6.05h-1l-.1-.91h0a2.53,2.53,0,0,1-2,1.05C430.87,369.33,430.31,368.49,430.31,367Z"/><path class="cls-24" d="M437.21,363.14h1l.1.85h0a2.65,2.65,0,0,1,1.87-1,1.61,1.61,0,0,1,1.67,1.12,2.8,2.8,0,0,1,2-1.12c1.27,0,1.86.86,1.86,2.4v3.81h-1.26v-3.65c0-1.05-.33-1.47-1-1.47a2,2,0,0,0-1.36.83v4.29h-1.26v-3.65c0-1.05-.32-1.47-1-1.47a2,2,0,0,0-1.35.83v4.29h-1.26Z"/><path class="cls-24" d="M447.14,366.16A2.94,2.94,0,0,1,449.9,363c1.61,0,2.48,1.16,2.48,2.87a3.36,3.36,0,0,1-.07.64h-3.93a1.83,1.83,0,0,0,1.87,1.85,2.53,2.53,0,0,0,1.44-.45l.44.8a3.61,3.61,0,0,1-2,.64A2.91,2.91,0,0,1,447.14,366.16Zm4.14-.55c0-1-.48-1.63-1.36-1.63a1.63,1.63,0,0,0-1.55,1.63Z"/><path class="cls-24" d="M453.78,363.14h1l.1.84h0a2.89,2.89,0,0,1,2-1c1.29,0,1.86.86,1.86,2.4v3.81h-1.27v-3.65c0-1.05-.3-1.47-1-1.47a2,2,0,0,0-1.47.83v4.29h-1.27Z"/><path class="cls-24" d="M460.84,367.21v-3.06H460v-.94l1-.07.14-1.67h1.06v1.67h1.57v1h-1.57v3.07c0,.73.25,1.1.88,1.1a2,2,0,0,0,.65-.14l.23.93a3.88,3.88,0,0,1-1.19.22C461.32,369.33,460.84,368.49,460.84,367.21Z"/><path class="cls-24" d="M464.57,366.16a2.87,2.87,0,1,1,2.85,3.17A2.93,2.93,0,0,1,464.57,366.16Zm4.4,0c0-1.27-.59-2.13-1.55-2.13s-1.54.86-1.54,2.13.6,2.14,1.54,2.14S469,367.45,469,366.16Z"/><path class="cls-24" d="M350.89,381.58c0-1.29,1.1-2,3.62-2.24,0-.7-.26-1.32-1.16-1.32a3.37,3.37,0,0,0-1.75.62l-.47-.86a4.63,4.63,0,0,1,2.44-.8c1.51,0,2.2,1,2.2,2.57v3.64h-1l-.1-.69h0a3,3,0,0,1-1.93.83A1.67,1.67,0,0,1,350.89,381.58Zm3.62.05v-1.49c-1.79.21-2.4.67-2.4,1.36s.41.83.95.83A2.15,2.15,0,0,0,354.51,381.63Z"/><path class="cls-24" d="M360,381v-3.81h1.27v3.65c0,1,.3,1.45,1,1.45.56,0,.95-.26,1.45-.9v-4.2H365v6.05h-1l-.1-.91h0a2.51,2.51,0,0,1-2,1.05C360.53,383.33,360,382.49,360,381Z"/><path class="cls-24" d="M366.86,377.14h1l.09.84h0a2.87,2.87,0,0,1,2-1c1.29,0,1.86.86,1.86,2.4v3.81h-1.27v-3.65c0-1.05-.3-1.47-1-1.47a2,2,0,0,0-1.47.83v4.29h-1.27Z"/><path class="cls-24" d="M375.77,380.16a3,3,0,0,1,3-3.18,2.62,2.62,0,0,1,1.78.7l-.63.82a1.61,1.61,0,0,0-1.08-.47c-1,0-1.75.86-1.75,2.13s.7,2.14,1.71,2.14a2.09,2.09,0,0,0,1.32-.55l.52.84a3,3,0,0,1-2,.74A2.86,2.86,0,0,1,375.77,380.16Z"/><path class="cls-24" d="M381.46,380.16a2.87,2.87,0,1,1,2.85,3.17A2.92,2.92,0,0,1,381.46,380.16Zm4.4,0c0-1.27-.6-2.13-1.55-2.13s-1.54.86-1.54,2.13.59,2.14,1.54,2.14S385.86,381.45,385.86,380.16Z"/><path class="cls-24" d="M388.64,377.14h1l.09.85h0a2.63,2.63,0,0,1,1.87-1,1.61,1.61,0,0,1,1.67,1.12,2.79,2.79,0,0,1,2-1.12c1.26,0,1.86.86,1.86,2.4v3.81h-1.27v-3.65c0-1.05-.33-1.47-1-1.47a2,2,0,0,0-1.36.83v4.29h-1.27v-3.65c0-1.05-.32-1.47-1-1.47a2,2,0,0,0-1.35.83v4.29h-1.27Z"/><path class="cls-24" d="M399,377.14h1l.1.66h0A3.09,3.09,0,0,1,402,377c1.53,0,2.39,1.23,2.39,3.09,0,2.08-1.25,3.26-2.61,3.26a2.51,2.51,0,0,1-1.6-.68l0,1v1.95H399Zm4.12,2.95c0-1.27-.41-2-1.42-2a2.06,2.06,0,0,0-1.43.74v3a2,2,0,0,0,1.31.55C402.46,382.29,403.12,381.51,403.12,380.09Z"/><path class="cls-24" d="M405.86,381v-3.81h1.26v3.65c0,1,.3,1.45,1,1.45s.95-.26,1.46-.9v-4.2h1.26v6.05h-1l-.1-.91h0a2.51,2.51,0,0,1-2,1.05C406.42,383.33,405.86,382.49,405.86,381Z"/><path class="cls-24" d="M413,381.21v-3.06h-.88v-.94l.95-.07.14-1.67h1.06v1.67h1.57v1h-1.57v3.07c0,.73.25,1.1.88,1.1a2,2,0,0,0,.65-.14l.23.93a3.88,3.88,0,0,1-1.19.22C413.42,383.33,413,382.49,413,381.21Z"/><path class="cls-24" d="M416.68,380.16a2.94,2.94,0,0,1,2.76-3.18c1.61,0,2.48,1.16,2.48,2.87a3.36,3.36,0,0,1-.07.64h-3.93a1.83,1.83,0,0,0,1.87,1.85,2.53,2.53,0,0,0,1.44-.45l.44.8a3.61,3.61,0,0,1-2,.64A2.91,2.91,0,0,1,416.68,380.16Zm4.14-.55c0-1-.48-1.63-1.36-1.63a1.63,1.63,0,0,0-1.55,1.63Z"/><path class="cls-24" d="M423.32,377.14h1l.1,1.09h0a2.11,2.11,0,0,1,1.72-1.25,1.49,1.49,0,0,1,.68.14l-.23,1.1a1.74,1.74,0,0,0-.61-.1c-.49,0-1.09.34-1.46,1.3v3.77h-1.27Z"/><path class="cls-24" d="M429.87,380.16a2.87,2.87,0,1,1,2.85,3.17A2.92,2.92,0,0,1,429.87,380.16Zm4.4,0c0-1.27-.59-2.13-1.55-2.13s-1.54.86-1.54,2.13.59,2.14,1.54,2.14S434.27,381.45,434.27,380.16Z"/><path class="cls-24" d="M439.72,381.21v-3.06h-.88v-.94l1-.07.14-1.67H441v1.67h1.57v1H441v3.07c0,.73.25,1.1.88,1.1a2,2,0,0,0,.65-.14l.23.93a3.88,3.88,0,0,1-1.19.22C440.2,383.33,439.72,382.49,439.72,381.21Z"/><path class="cls-24" d="M443.53,381.58c0-1.29,1.1-2,3.62-2.24,0-.7-.26-1.32-1.15-1.32a3.31,3.31,0,0,0-1.75.62l-.48-.86a4.63,4.63,0,0,1,2.44-.8c1.51,0,2.21,1,2.21,2.57v3.64h-1l-.1-.69h0a3,3,0,0,1-1.93.83A1.67,1.67,0,0,1,443.53,381.58Zm3.62.05v-1.49c-1.79.21-2.4.67-2.4,1.36s.41.83.95.83A2.11,2.11,0,0,0,447.15,381.63Z"/><path class="cls-24" d="M451.35,382.56h0l-.12.63h-1v-8.77h1.26v2.32l0,1a2.9,2.9,0,0,1,1.8-.8c1.53,0,2.4,1.23,2.4,3.09,0,2.08-1.24,3.26-2.61,3.26A2.54,2.54,0,0,1,451.35,382.56Zm3-2.47c0-1.27-.4-2-1.42-2a2.06,2.06,0,0,0-1.43.74v3a2,2,0,0,0,1.31.55C453.66,382.29,454.32,381.51,454.32,380.09Z"/><path class="cls-24" d="M457.13,381.77v-7.35h1.26v7.42c0,.34.14.46.3.46l.21,0,.16,1a1.83,1.83,0,0,1-.68.1C457.47,383.33,457.13,382.75,457.13,381.77Z"/><path class="cls-24" d="M460,380.16a2.94,2.94,0,0,1,2.76-3.18c1.6,0,2.47,1.16,2.47,2.87a3.48,3.48,0,0,1-.06.64h-3.93a1.82,1.82,0,0,0,1.87,1.85,2.53,2.53,0,0,0,1.44-.45l.44.8a3.62,3.62,0,0,1-2.05.64A2.9,2.9,0,0,1,460,380.16Zm4.13-.55c0-1-.47-1.63-1.35-1.63a1.63,1.63,0,0,0-1.55,1.63Z"/><path class="cls-24" d="M466.82,381.21v-3.06h-.88v-.94l.94-.07.15-1.67h1.05v1.67h1.58v1h-1.58v3.07c0,.73.26,1.1.88,1.1a1.93,1.93,0,0,0,.65-.14l.23.93a3.88,3.88,0,0,1-1.19.22C467.29,383.33,466.82,382.49,466.82,381.21Z"/><path class="cls-24" d="M351.24,391.14h1l.1.66h0a3.09,3.09,0,0,1,1.87-.82c1.53,0,2.39,1.23,2.39,3.09,0,2.08-1.25,3.26-2.61,3.26a2.51,2.51,0,0,1-1.6-.68l.05,1v1.95h-1.27Zm4.12,2.95c0-1.27-.41-2-1.42-2a2,2,0,0,0-1.43.74v3a2,2,0,0,0,1.31.55C354.7,396.29,355.36,395.51,355.36,394.09Z"/><path class="cls-24" d="M357.74,394.16A3,3,0,0,1,360.5,391c1.61,0,2.48,1.16,2.48,2.87a2.7,2.7,0,0,1-.07.64H359a1.82,1.82,0,0,0,1.87,1.85,2.53,2.53,0,0,0,1.44-.45l.44.8a3.64,3.64,0,0,1-2.05.64A2.91,2.91,0,0,1,357.74,394.16Zm4.14-.55c0-1-.47-1.63-1.35-1.63a1.65,1.65,0,0,0-1.56,1.63Z"/><path class="cls-24" d="M364.39,391.14h1l.1,1.09h0a2.11,2.11,0,0,1,1.72-1.25,1.46,1.46,0,0,1,.68.14l-.23,1.1a1.7,1.7,0,0,0-.61-.1c-.49,0-1.08.34-1.46,1.3v3.77h-1.26Z"/><path class="cls-24" d="M371.21,389.25a.73.73,0,0,1,.78-.75.76.76,0,1,1-.78.75Zm.15,1.89h1.27v6.05h-1.27Z"/><path class="cls-24" d="M374.52,391.14h1l.1.84h0a2.9,2.9,0,0,1,2-1c1.28,0,1.85.86,1.85,2.4v3.81h-1.26v-3.65c0-1.05-.31-1.47-1-1.47a2,2,0,0,0-1.48.83v4.29h-1.26Z"/><path class="cls-24" d="M380.57,391.14h1.3l1,3.26c.18.59.35,1.21.53,1.8h0c.18-.59.36-1.21.53-1.8l1-3.26h1.24l-2.09,6.05h-1.47Z"/><path class="cls-24" d="M387.22,389.25a.73.73,0,0,1,.78-.75.76.76,0,1,1,0,1.51A.73.73,0,0,1,387.22,389.25Zm.16,1.89h1.26v6.05h-1.26Z"/><path class="cls-24" d="M390.18,395.58c0-1.29,1.1-2,3.62-2.24,0-.7-.26-1.32-1.15-1.32a3.31,3.31,0,0,0-1.75.62l-.48-.86a4.63,4.63,0,0,1,2.45-.8c1.5,0,2.2,1,2.2,2.57v3.64h-1l-.1-.69h0a3,3,0,0,1-1.93.83A1.67,1.67,0,0,1,390.18,395.58Zm3.62.05v-1.49c-1.79.21-2.4.67-2.4,1.36s.41.83,1,.83A2.11,2.11,0,0,0,393.8,395.63Z"/><path class="cls-24" d="M396.86,391.14h1l.1,1.09h0a2.11,2.11,0,0,1,1.72-1.25,1.44,1.44,0,0,1,.68.14l-.23,1.1a1.68,1.68,0,0,0-.6-.1c-.5,0-1.09.34-1.47,1.3v3.77h-1.26Z"/><path class="cls-24" d="M400.93,394.16a2.94,2.94,0,0,1,2.76-3.18c1.61,0,2.47,1.16,2.47,2.87a3.48,3.48,0,0,1-.06.64h-3.93a1.83,1.83,0,0,0,1.87,1.85,2.53,2.53,0,0,0,1.44-.45l.44.8a3.61,3.61,0,0,1-2,.64A2.91,2.91,0,0,1,400.93,394.16Zm4.13-.55c0-1-.47-1.63-1.35-1.63a1.63,1.63,0,0,0-1.55,1.63Z"/><path class="cls-24" d="M409.62,394.16a2.87,2.87,0,1,1,2.85,3.17A2.92,2.92,0,0,1,409.62,394.16Zm4.4,0c0-1.27-.6-2.13-1.55-2.13s-1.54.86-1.54,2.13.59,2.14,1.54,2.14S414,395.45,414,394.16Z"/><path class="cls-24" d="M419.28,391.14h1l.1,1.09h0a2.11,2.11,0,0,1,1.72-1.25,1.46,1.46,0,0,1,.68.14l-.23,1.1a1.7,1.7,0,0,0-.61-.1c-.49,0-1.09.34-1.46,1.3v3.77h-1.26Z"/><path class="cls-24" d="M423.62,389.25a.73.73,0,0,1,.78-.75.76.76,0,1,1-.78.75Zm.15,1.89H425v6.05h-1.27Z"/><path class="cls-24" d="M426.5,394.16a3,3,0,0,1,3-3.18,2.58,2.58,0,0,1,1.77.7l-.63.82a1.61,1.61,0,0,0-1.08-.47c-1,0-1.75.86-1.75,2.13s.71,2.14,1.71,2.14a2.09,2.09,0,0,0,1.32-.55l.53.84a3,3,0,0,1-2,.74A2.87,2.87,0,0,1,426.5,394.16Z"/><path class="cls-24" d="M432.19,394.16A2.94,2.94,0,0,1,435,391c1.61,0,2.48,1.16,2.48,2.87a3.36,3.36,0,0,1-.07.64h-3.93a1.83,1.83,0,0,0,1.87,1.85,2.53,2.53,0,0,0,1.44-.45l.44.8a3.61,3.61,0,0,1-2,.64A2.91,2.91,0,0,1,432.19,394.16Zm4.14-.55c0-1-.48-1.63-1.36-1.63a1.63,1.63,0,0,0-1.55,1.63Z"/><path class="cls-24" d="M438,391.14h1.3l1,3.26c.18.59.35,1.21.53,1.8h0c.18-.59.37-1.21.53-1.8l1-3.26h1.23l-2.09,6.05h-1.47Z"/><path class="cls-24" d="M444.4,394.16a2.94,2.94,0,0,1,2.76-3.18c1.61,0,2.48,1.16,2.48,2.87a3.36,3.36,0,0,1-.07.64h-3.93a1.83,1.83,0,0,0,1.87,1.85,2.53,2.53,0,0,0,1.44-.45l.44.8a3.61,3.61,0,0,1-2,.64A2.91,2.91,0,0,1,444.4,394.16Zm4.14-.55c0-1-.48-1.63-1.36-1.63a1.63,1.63,0,0,0-1.55,1.63Z"/><path class="cls-24" d="M451,391.14h1l.1,1.09h0a2.11,2.11,0,0,1,1.72-1.25,1.49,1.49,0,0,1,.68.14l-.23,1.1a1.74,1.74,0,0,0-.61-.1c-.49,0-1.09.34-1.46,1.3v3.77H451Z"/><path class="cls-24" d="M455.11,394.16a3,3,0,0,1,2.76-3.18c1.61,0,2.48,1.16,2.48,2.87a2.7,2.7,0,0,1-.07.64h-3.92a1.82,1.82,0,0,0,1.87,1.85,2.53,2.53,0,0,0,1.44-.45l.44.8a3.64,3.64,0,0,1-2.05.64A2.91,2.91,0,0,1,455.11,394.16Zm4.14-.55c0-1-.47-1.63-1.35-1.63a1.65,1.65,0,0,0-1.56,1.63Z"/><path class="cls-24" d="M463.82,394.16c0-2,1.25-3.18,2.6-3.18a2.35,2.35,0,0,1,1.63.69l-.06-1v-2.25h1.27v8.77h-1l-.1-.68h-.05a2.54,2.54,0,0,1-1.76.82C464.8,397.33,463.82,396.18,463.82,394.16Zm4.17,1.39v-3a1.88,1.88,0,0,0-1.33-.55c-.84,0-1.53.8-1.53,2.11s.54,2.14,1.49,2.14A1.76,1.76,0,0,0,468,395.55Z"/><path class="cls-24" d="M470.81,395.58c0-1.29,1.1-2,3.62-2.24,0-.7-.26-1.32-1.16-1.32a3.37,3.37,0,0,0-1.75.62l-.47-.86a4.63,4.63,0,0,1,2.44-.8c1.51,0,2.2,1,2.2,2.57v3.64h-1l-.1-.69h0a3,3,0,0,1-1.93.83A1.67,1.67,0,0,1,470.81,395.58Zm3.62.05v-1.49c-1.79.21-2.4.67-2.4,1.36s.41.83,1,.83A2.15,2.15,0,0,0,474.43,395.63Z"/><path class="cls-24" d="M477.68,395.21v-3.06h-.88v-.94l.95-.07.14-1.67H479v1.67h1.57v1H479v3.07c0,.73.25,1.1.88,1.1a2,2,0,0,0,.65-.14l.23.93a3.88,3.88,0,0,1-1.19.22C478.16,397.33,477.68,396.49,477.68,395.21Z"/><path class="cls-24" d="M481.69,389.25a.73.73,0,0,1,.78-.75.76.76,0,1,1-.78.75Zm.15,1.89h1.27v6.05h-1.27Z"/><path class="cls-24" d="M351.35,403.08h1.46l1.49,4.11c.19.53.35,1.08.54,1.62h.05c.19-.54.35-1.09.53-1.62l1.47-4.11h1.47v8.11h-1.19v-4c0-.73.1-1.78.17-2.51h0l-.65,1.87-1.4,3.86h-.8L353,406.55l-.63-1.87h-.05c.06.73.16,1.78.16,2.51v4h-1.15Z"/><path class="cls-24" d="M360.48,403.08h1.28v8.11h-1.28Z"/><path class="cls-24" d="M363.88,403.08H366c2.49,0,3.91,1.39,3.91,4s-1.42,4.08-3.84,4.08h-2.17Zm2,7.07c1.74,0,2.68-1,2.68-3s-.94-3-2.68-3h-.73v6Z"/><path class="cls-24" d="M371.57,403.08h1.28v8.11h-1.28Z"/><path class="cls-24" d="M374.69,410.45a.85.85,0,1,1,1.7,0,.85.85,0,1,1-1.7,0Z"/><polyline class="cls-20" points="307.91 45.27 313.92 45.27 320.25 45.27"/><polyline class="cls-20" points="301.74 55.99 302.06 55.18 307.91 45.27"/><polyline class="cls-20" points="332.75 45.27 335.68 50.47 338.93 55.99"/><polyline class="cls-20" points="320.25 45.27 321.06 45.27 332.75 45.27"/><polyline class="cls-20" points="338.11 71.25 338.76 66.71 338.11 62.16 336.49 57.78 333.73 54.04 330.16 51.12 325.93 49.17 321.39 48.36 316.84 48.68 312.46 49.98 308.56 52.58 305.31 55.83 303.2 59.89 302.06 64.44 302.06 68.98 303.2 73.53 305.31 77.59 308.56 80.84 312.46 83.43 316.84 84.73 321.39 85.06 325.93 84.25 330.16 82.3 333.73 79.37 336.49 75.64 338.11 71.25"/><polyline class="cls-20" points="320.25 45.27 317.49 45.44 314.73 45.92 312.13 46.9 309.53 48.2 307.26 49.66 305.15 51.61 303.2 53.72 301.74 55.99"/><polyline class="cls-20" points="338.93 55.99 337.3 53.72 335.51 51.61 333.4 49.66 330.97 48.2 328.53 46.9 325.77 45.92 323.01 45.44 320.25 45.27"/><polyline class="cls-20" points="295.4 66.71 298.49 61.51 301.74 55.99"/><polyline class="cls-20" points="301.74 77.43 301.25 76.61 295.4 66.71"/><polyline class="cls-20" points="301.74 55.99 300.44 58.43 299.46 61.19 298.98 63.95 298.81 66.71 298.98 69.47 299.46 72.23 300.44 74.99 301.74 77.43"/><polyline class="cls-20" points="320.25 88.14 311.81 88.14 307.91 88.14"/><polyline class="cls-20" points="307.91 88.14 304.82 82.95 301.74 77.43"/><polyline class="cls-20" points="301.74 77.43 303.2 79.86 305.15 81.97 307.26 83.76 309.53 85.38 312.13 86.52 314.73 87.49 317.49 87.98 320.25 88.14"/><polyline class="cls-20" points="345.1 66.71 342.01 71.91 338.93 77.43"/><polyline class="cls-20" points="338.93 55.99 339.25 56.8 345.1 66.71"/><polyline class="cls-20" points="338.93 77.43 340.06 74.99 341.04 72.23 341.52 69.47 341.69 66.71 341.52 63.95 341.04 61.19 340.06 58.43 338.93 55.99"/><polyline class="cls-20" points="332.75 88.14 324.31 88.14 320.25 88.14"/><polyline class="cls-20" points="338.93 77.43 338.44 78.24 332.75 88.14"/><polyline class="cls-20" points="320.25 88.14 323.01 87.98 325.77 87.49 328.53 86.52 330.97 85.38 333.4 83.76 335.51 81.97 337.3 79.86 338.93 77.43"/><line class="cls-20" x1="329.99" y1="82.3" x2="329.34" y2="82.3"/><line class="cls-20" x1="311.16" y1="82.3" x2="310.51" y2="82.3"/><polyline class="cls-20" points="328.21 82.95 331.94 80.51 335.03 77.26 337.14 73.37 338.27 68.98 338.27 64.44 337.14 60.21 335.03 56.15 331.94 52.91 328.21 50.47"/><line class="cls-20" x1="312.29" y1="50.47" x2="328.21" y2="50.47"/><polyline class="cls-20" points="312.29 50.47 308.56 52.91 305.47 56.15 303.36 60.21 302.39 64.44 302.39 68.98 303.36 73.37 305.47 77.26 308.56 80.51 312.29 82.95"/><line class="cls-20" x1="312.29" y1="82.95" x2="328.21" y2="82.95"/><polyline class="cls-20" points="304.82 62.65 304.34 66.71 304.82 70.77 306.45 74.67 309.05 78.08 312.29 80.51 316.19 82.14 320.25 82.62 324.47 82.14 328.21 80.51 331.62 78.08 334.05 74.67 335.68 70.77 336.16 66.71 335.68 62.65 334.05 58.75 331.62 55.5 328.21 52.91 324.47 51.28 320.25 50.79 316.19 51.28 312.29 52.91 309.05 55.5 306.45 58.75 304.82 62.65"/><polyline class="cls-20" points="307.91 70.61 307.42 66.71 307.91 62.97 309.53 59.4 312.29 56.64 315.54 54.69 319.28 53.88 323.17 54.04 326.75 55.5 329.83 57.94 331.94 61.02 333.08 64.76 333.08 68.66 331.94 72.39 329.83 75.48 326.75 77.91 323.17 79.37 319.28 79.54 315.54 78.72 312.29 76.78 309.53 74.02 307.91 70.61"/><polyline class="cls-20" points="310.99 63.3 310.35 66.71 310.99 70.12 312.78 73.04 315.38 75.31 318.63 76.45 322.04 76.45 325.28 75.31 327.88 73.04 329.51 70.12 330.16 66.71 329.51 63.3 327.88 60.38 325.28 58.1 322.04 56.97 318.63 56.97 315.38 58.1 312.78 60.38 310.99 63.3"/></svg>