<?xml version="1.0" encoding="UTF-8" standalone="no"?>
<svg
   xmlns:dc="http://purl.org/dc/elements/1.1/"
   xmlns:cc="http://creativecommons.org/ns#"
   xmlns:rdf="http://www.w3.org/1999/02/22-rdf-syntax-ns#"
   xmlns:svg="http://www.w3.org/2000/svg"
   xmlns="http://www.w3.org/2000/svg"
   viewBox="0 0 475.35999 95.053329"
   height="95.053329"
   width="475.35999"
   xml:space="preserve"
   id="svg2"
   version="1.1"><metadata
     id="metadata8"><rdf:RDF><cc:Work
         rdf:about=""><dc:format>image/svg+xml</dc:format><dc:type
           rdf:resource="http://purl.org/dc/dcmitype/StillImage" /></cc:Work></rdf:RDF></metadata><defs
     id="defs6" /><g
     transform="matrix(1.3333333,0,0,-1.3333333,0,95.053333)"
     id="g10"><g
       transform="scale(0.1)"
       id="g12"><path
         id="path14"
         style="fill:#e82a2e;fill-opacity:1;fill-rule:nonzero;stroke:none"
         d="m 3551.29,680.82 h 4.38 c 5.23,0 9.5,4.243 9.5,9.496 v 13.086 c 0,5.235 -4.27,9.493 -9.5,9.493 h -301.06 c -5.23,0 -9.59,-4.258 -9.59,-9.493 v -13.086 c 0,-5.253 4.36,-9.496 9.59,-9.496 h 4.33 c 32.67,0 45.04,-27.832 45.04,-55.425 V 87.4961 c 0,-26.9258 -14.84,-54.6797 -45.04,-55.4063 h -4.33 c -5.23,0 -9.59,-4.2382 -9.59,-9.4726 V 9.57031 c 0,-5.2539 4.36,-9.5117162 9.59,-9.5117162 h 301.06 c 5.23,0 9.5,4.2578162 9.5,9.5117162 V 22.6172 c 0,5.293 -4.27,9.4726 -9.5,9.4726 h -4.38 c -28.68,1.1954 -45.21,28.0704 -45.21,56.9766 V 625.395 c 0.48,28.554 11.79,55.425 45.21,55.425" /><path
         id="path16"
         style="fill:#e82a2e;fill-opacity:1;fill-rule:nonzero;stroke:none"
         d="m 2526.07,712.895 h -218.9 c -5.23,0 -9.58,-4.258 -9.58,-9.493 v -13.086 c 0,-5.253 4.35,-9.496 9.58,-9.496 h 4.35 c 50.75,-5.246 55.98,-40.609 40.03,-89.722 L 2239.39,291.996 c -1.31,-3.695 -4.72,-6.32 -8.92,-6.32 -4.33,0 -8.01,2.961 -9.1,6.976 l -91.9,331.2 c -12.51,46.64 4.92,51.386 29.37,56.968 0,0 1.64,0.328 3.36,0.493 4.25,0.957 7.63,4.738 7.63,9.332 v 12.757 c 0,5.235 -4.35,9.493 -9.58,9.493 h -272.59 c -5.16,0 -9.5,-4.258 -9.5,-9.493 v -13.086 c 0,-5.253 4.34,-9.496 9.5,-9.496 h 10.31 c 13.42,0 24.05,-17.683 34.86,-56.968 l 20.62,-78.098 c 2.14,-7.375 1.98,-12.125 0.26,-18.188 l -62.37,-230.324 c -1.06,-4.105 -4.76,-7.219 -9.25,-7.219 -4.16,0 -7.7,2.696 -9.01,6.461 l -120.01,327.368 c -16.05,48.117 9.89,55.328 21.61,56.968 l 3.36,0.567 c 4.32,0.883 7.53,4.73 7.53,9.258 v 12.757 c 0,5.235 -4.25,9.493 -9.51,9.493 h -283.3 c -5.32,0 -9.58,-4.258 -9.58,-9.493 v -13.086 c 0,-5.253 4.26,-9.496 9.58,-9.496 h 9.57 c 17.44,0 30.21,-18.765 43.31,-56.968 L 1777.3,9.84375 c 2.03,-5.74219 7.51,-9.7851562 13.91,-9.7851562 h 101.67 c 6.98,0 12.86,4.8632862 14.5,11.3086062 l 91.28,334.4808 c 0.81,2.453 3.02,4.242 5.73,4.242 2.76,0 5.07,-1.883 5.72,-4.402 l 93.06,-334.5552 c 1.64,-6.32811 7.47,-11.0742062 14.42,-11.0742062 h 97.18 c 6.46,0 11.86,4.1015662 14,9.8437462 L 2452.46,598.949 c 17.37,49.934 28.83,74.332 71.25,81.871 0,0 2.04,0.328 4.24,0.493 4.35,0.957 7.63,4.738 7.63,9.332 v 12.757 c 0,5.235 -4.26,9.493 -9.51,9.493" /><path
         id="path18"
         style="fill:#e82a2e;fill-opacity:1;fill-rule:nonzero;stroke:none"
         d="m 744.078,32.0898 h -6.465 c -23.812,0 -40.765,25.4454 -64.582,56.879 L 411.902,435.727 c -1.55,1.964 -2.539,4.496 -2.539,7.195 0,3.457 1.477,6.566 3.852,8.68 L 583.477,604.75 c 27.089,25.797 83.648,73.941 120.824,75.406 l 7.855,0.571 c 0.739,0 1.567,0.093 2.379,0.246 4.504,0.664 8.024,4.597 8.024,9.343 v 12.926 c 0,5.25 -4.266,9.496 -9.496,9.496 H 423.285 c -5.32,0 -9.508,-4.246 -9.508,-9.496 v -13.023 c 0,-5.239 4.188,-9.492 9.508,-9.492 h 8.832 c 39.387,0 53.867,-39.125 28.574,-64.414 L 257.59,431.645 c -1.621,-1.473 -3.918,-2.473 -6.375,-2.473 -5.242,0 -9.496,4.269 -9.496,9.504 v 185.176 c 0,24.878 3.601,56.875 36.511,56.875 h 6.383 c 5.313,0 9.575,4.253 9.575,9.492 v 13.023 c 0,5.25 -4.262,9.496 -9.575,9.496 H 11.0469 c -5.15627,0 -9.49221,-4.246 -9.49221,-9.496 v -13.086 c 0,-5.25 4.33594,-9.429 9.49221,-9.429 33.0625,-0.731 42.8789,-16.446 42.8789,-54.516 V 87.3398 c 0,-24.2382 -0.8125,-55.25 -41.5664,-55.25 L 9.49609,32.0117 C 4.33594,32.0117 0,27.7344 0,22.5 V 9.57031 C 0,4.31641 4.33594,0.0585938 9.49609,0.0585938 H 285.852 c 5.312,0 9.484,4.2578162 9.484,9.5117162 V 22.6172 c 0,5.293 -4.172,9.4726 -9.484,9.4726 h -6.477 c -36.586,0 -37.656,36.9883 -37.656,55.7383 V 322.176 c 0,5.328 4.254,9.512 9.496,9.512 3.187,0 5.976,-1.551 7.777,-3.844 L 432.535,88.9688 c 16.606,-24.2266 6.129,-55.8282 -19.816,-56.879 h -8.754 c -5.16,0 -9.402,-4.1796 -9.402,-9.4726 V 9.57031 c 0,-5.2539 4.242,-9.5117162 9.402,-9.5117162 h 340.113 c 5.324,0 9.508,4.2578162 9.508,9.5117162 V 22.6172 c 0,5.2344 -4.184,9.4726 -9.508,9.4726" /><path
         id="path20"
         style="fill:#e82a2e;fill-opacity:1;fill-rule:nonzero;stroke:none"
         d="m 1576.58,32.0117 -5.4,0.0781 c -19.25,2.0352 -42.09,23.8125 -58.29,56.9766 L 1250.13,703.895 c -2.21,5.242 -7.53,9 -13.67,9 h -128.2 c -6.3,0 -11.69,-3.926 -13.83,-9.493 L 873.254,122.289 C 858.352,89.9453 834.453,37.7305 797.695,32.0898 l -4.746,-0.1562 c -5.23,0 -9.496,-4.2578 -9.496,-9.5117 V 9.51172 C 783.453,4.16016 787.719,0 792.949,0 h 249.911 c 5.25,0 9.51,4.16016 9.51,9.51172 V 22.5 c 0,5.2344 -4.26,9.5117 -9.51,9.5117 l -4.16,0.0781 c -60.177,0 -78.919,62.7774 -65.903,97.9732 l 32.083,83.984 c 2.22,5.566 7.53,9.433 13.75,9.433 h 226.42 c 6.13,0 11.47,-3.769 13.68,-9.109 l 55.25,-128.8397 c 8.51,-26.4336 -16.54,-53.4415 -53.95,-53.4415 l -4.26,-0.0781 c -5.23,0 -9.49,-4.2773 -9.49,-9.5117 V 9.57031 c 0,-5.2539 4.26,-9.5117162 9.49,-9.5117162 h 320.81 c 5.23,0 9.49,4.2578162 9.49,9.5117162 V 22.5 c 0,5.2344 -4.26,9.5117 -9.49,9.5117 m -370.9,268.0623 v 0 h -152.17 c -5.89,0 -10.65,4.84 -10.65,10.746 0,1.309 0.25,2.614 0.74,3.832 0.26,0.411 58.21,154.328 72.69,192.789 1.4,3.442 4.83,5.891 8.84,5.891 3.85,0 7.21,-2.281 8.67,-5.578 15.72,-37.242 81.54,-192.356 81.7,-192.609 0.57,-1.383 0.89,-2.782 0.89,-4.325 0,-5.906 -4.82,-10.746 -10.71,-10.746" /><path
         id="path22"
         style="fill:#e82a2e;fill-opacity:1;fill-rule:nonzero;stroke:none"
         d="m 3195.49,32.0117 -5.38,0.0781 c -19.25,2.0352 -42.1,23.8125 -58.3,56.9766 L 2869.06,703.895 c -2.3,5.242 -7.55,9 -13.68,9 h -128.2 c -6.29,0 -11.71,-3.926 -13.8,-9.493 L 2492.09,122.289 c -14.8,-32.3437 -38.64,-84.5585 -75.46,-90.1992 l -4.83,-0.1562 c -5.17,0 -9.5,-4.2578 -9.5,-9.5117 V 9.51172 C 2402.3,4.16016 2406.63,0 2411.8,0 h 249.97 c 5.26,0 9.52,4.16016 9.52,9.51172 V 22.5 c 0,5.2344 -4.26,9.5117 -9.52,9.5117 l -4.15,0.0781 c -60.16,0 -78.91,62.7774 -65.9,97.9732 l 31.99,83.984 c 2.24,5.566 7.62,9.433 13.93,9.433 h 226.42 c 6.05,0 11.39,-3.769 13.59,-9.109 l 55.24,-128.8397 c 8.51,-26.4336 -16.51,-53.4415 -54.03,-53.4415 l -4.17,-0.0781 c -5.23,0 -9.48,-4.2773 -9.48,-9.5117 V 9.57031 c 0,-5.2539 4.25,-9.5117162 9.48,-9.5117162 h 320.8 c 5.25,0 9.51,4.2578162 9.51,9.5117162 L 3205,22.5 c 0,5.2344 -4.26,9.5117 -9.51,9.5117 M 2824.61,300.074 v 0 h -152.17 c -5.9,0 -10.67,4.84 -10.67,10.746 0,1.309 0.27,2.614 0.67,3.832 0.25,0.411 58.2,154.328 72.69,192.789 1.48,3.442 4.91,5.891 8.94,5.891 3.82,0 7.1,-2.281 8.67,-5.578 15.78,-37.242 81.52,-192.356 81.6,-192.609 0.66,-1.383 0.98,-2.782 0.98,-4.325 0,-5.906 -4.82,-10.746 -10.71,-10.746" /></g></g></svg>