<?xml version="1.0" encoding="UTF-8"?>
<svg id="_レイヤー_1" data-name="レイヤー 1" xmlns="http://www.w3.org/2000/svg" viewBox="0 0 572.04 149">
  <defs>
    <style>
      .cls-1 {
        fill: #231815;
        stroke: #231815;
      }

      .cls-1, .cls-2 {
        stroke-miterlimit: 10;
      }

      .cls-3, .cls-2 {
        fill: none;
      }

      .cls-2 {
        stroke: #000;
        stroke-width: .46px;
      }
    </style>
  </defs>
  <g>
    <path class="cls-2" d="M17.75,26.75H550.5M17.75,32.75H550.5M17.75,38.75H550.5M17.75,44.75H550.5M17.75,50.75H550.5M17.75,87.75H550.5M17.75,93.75H550.5M17.75,99.75H550.5M17.75,105.75H550.5M17.75,111.75H550.5M17.75,26.75V111.75"/>
    <path d="M36.06,25.39c0,1.01-.09,1.99-.28,2.94-.25,1.25-.64,2.39-1.19,3.4-.67,1.24-1.54,2.3-2.63,3.19l.71,3.72c.45-.07,.88-.1,1.29-.1,1.31,0,2.44,.36,3.38,1.07,.83,.63,1.46,1.49,1.91,2.58,.4,.98,.6,2.03,.6,3.14,0,1.39-.45,2.58-1.36,3.58-.87,.96-2.03,1.6-3.46,1.93l.99,5.51c.02,.1,.03,.2,.03,.31,0,.11,0,.23,0,.37,0,1-.38,1.88-1.14,2.65-.71,.72-1.6,1.2-2.67,1.44-.23,.05-.48,.08-.74,.08-1.04,0-1.97-.43-2.8-1.28-.79-.81-1.18-1.65-1.18-2.52,0-.14,.01-.27,.03-.39,.13-.69,.45-1.25,.95-1.68,.5-.43,1.09-.65,1.78-.65s1.28,.23,1.78,.69c.5,.46,.75,1.03,.75,1.71s-.23,1.32-.7,1.84c-.46,.52-1.05,.78-1.77,.78h-.38c.33,.31,.67,.54,1.02,.7,.35,.16,.7,.24,1.03,.24,.1,0,.23,0,.36-.02,.14-.02,.42-.13,.86-.34,.64-.31,1.15-.69,1.53-1.13,.52-.61,.79-1.32,.79-2.12,0-.23-.01-.47-.03-.73l-.97-5.23c-.4,.09-.77,.14-1.13,.17-.35,.03-.78,.04-1.27,.04-2.26,0-4.23-.84-5.9-2.51-1.67-1.68-2.51-3.68-2.51-6.01,0-1.29,.59-2.87,1.77-4.74,.85-1.35,1.96-2.78,3.35-4.29,1.13-1.23,1.76-1.87,1.91-1.92-.12-.29-.29-.98-.5-2.09-.21-1.11-.36-2-.44-2.67-.03-.23-.05-.51-.05-.83,0-1.58,.35-3.15,1.05-4.72,.76-1.7,1.6-2.56,2.52-2.56,.64,0,1.25,.8,1.85,2.4,.56,1.49,.84,2.86,.84,4.09Zm-4.52,9.98c-.26,.19-.77,.68-1.52,1.49-.75,.81-1.33,1.47-1.73,1.99-.46,.59-.85,1.15-1.16,1.67-.38,.64-.68,1.26-.89,1.88-.24,.7-.36,1.39-.36,2.06,0,.56,.08,1.13,.25,1.69,.12,.4,.41,.89,.86,1.49,.61,.8,1.33,1.46,2.15,1.96,1.06,.65,2.19,.98,3.39,.98,.37,0,.69-.03,.98-.1,.13-.03,.42-.12,.84-.27l-1.81-9.07c-1.18,.16-2.1,.73-2.74,1.71-.51,.77-.76,1.59-.76,2.44,0,.67,.27,1.34,.82,1.99,.44,.52,1,.99,1.69,1.39,.6,.35,1.05,.53,1.34,.53v.25c-.38-.04-.88-.21-1.5-.53-.77-.39-1.42-.86-1.95-1.42-.68-.71-1.11-1.49-1.28-2.34-.08-.35-.11-.72-.11-1.11,0-1.25,.38-2.38,1.15-3.37,.77-.99,1.77-1.64,3-1.94l-.64-3.36Zm2.04-13.56c-.53,0-1.08,.58-1.65,1.75-.53,1.07-.92,2.25-1.15,3.52-.02,.11-.03,.27-.03,.47,0,.56,.05,1.27,.16,2.13,.11,.86,.21,1.43,.31,1.72l.88-.78c.13-.06,.42-.35,.87-.87,.58-.68,1.04-1.38,1.4-2.08,.49-.98,.73-1.91,.73-2.79,0-.13,0-.26-.01-.39,0-.13-.02-.26-.04-.39-.13-.8-.24-1.31-.34-1.53-.23-.51-.6-.77-1.11-.77Zm1.28,28.11c1.02-.24,1.85-.75,2.49-1.54,.64-.78,.96-1.69,.96-2.71,0-.17-.01-.35-.03-.53-.14-1.18-.64-2.16-1.5-2.93-.87-.77-1.86-1.16-2.99-1.16-.08,0-.16,0-.23,0s-.22,.03-.44,.07l1.75,8.79Z"/>
    <path d="M26.65,91.1c.08,.32,.32,.55,.73,.68,.22,.07,.63,.14,1.23,.21,.6,.07,.99,.33,1.18,.79,.1,.24,.15,.63,.15,1.18,0,.58-.28,1.04-.85,1.38-.5,.3-1.1,.45-1.79,.45-.77,0-1.4-.19-1.89-.58-.55-.43-.82-1.04-.82-1.83,0-.72,.14-1.44,.42-2.14,.31-.78,.76-1.49,1.34-2.12,.45-.47,1.05-.82,1.79-1.05,.62-.19,1.34-.28,2.14-.28,.58,0,1.14,.05,1.68,.15,1.53,.28,2.77,1.08,3.73,2.4,.87,1.19,1.31,2.49,1.31,3.87,0,.2-.01,.39-.03,.59-.2,1.75-1.36,3.63-3.48,5.63-1.65,1.56-3.63,3.01-5.94,4.34-2.04,1.17-3.24,1.7-3.6,1.59l-.1-.44c.59-.21,1.2-.48,1.82-.8,.69-.36,1.37-.78,2.04-1.26,1.14-.81,2.04-1.56,2.72-2.25,.79-.81,1.41-1.68,1.86-2.59,.48-.98,.83-2.14,1.04-3.47,.06-.41,.11-.77,.14-1.08,.03-.31,.05-.64,.05-.99,0-.98-.15-1.82-.46-2.5-.33-.74-.86-1.32-1.58-1.76-.3-.19-.62-.32-.94-.41-.33-.09-.65-.13-.96-.13-.5,0-.98,.09-1.44,.28-.4,.16-.73,.36-.98,.6-.35,.33-.53,.7-.53,1.11,0,.13,.02,.28,.06,.45Zm13.73-1c.31,.29,.46,.65,.46,1.08,0,.31-.1,.6-.29,.88-.28,.37-.68,.56-1.18,.56-.38,0-.71-.12-.98-.36-.16-.14-.29-.31-.37-.5-.08-.19-.12-.4-.12-.61,0-.37,.11-.68,.33-.95,.13-.17,.29-.29,.5-.38,.21-.09,.41-.14,.61-.14,.41,0,.76,.14,1.04,.42Zm0,5.19c.31,.29,.46,.65,.46,1.08,0,.31-.1,.6-.29,.88-.28,.38-.68,.56-1.18,.56-.38,0-.71-.12-.98-.36-.16-.14-.29-.31-.37-.5-.08-.19-.12-.4-.12-.61,0-.37,.11-.68,.33-.95,.13-.17,.29-.29,.5-.38,.21-.09,.41-.14,.61-.14,.41,0,.76,.14,1.04,.42Z"/>
    <path d="M53.53,46.95c0,1.28-.42,2.27-1.25,2.99-.71,.6-1.54,.9-2.5,.9-1.07,0-1.95-.36-2.66-1.07-.71-.71-1.06-1.65-1.06-2.82,0-.48,.25-.98,.75-1.5,.38-.4,.76-.68,1.14-.83-.34-.2-.65-.49-.92-.86-.42-.57-.63-1.21-.63-1.93,0-.95,.36-1.72,1.09-2.32,.67-.55,1.44-.82,2.31-.82s1.65,.25,2.29,.74c.7,.54,1.06,1.25,1.06,2.12,0,.08,0,.13,0,.17v.11c-.04,.5-.28,.99-.71,1.48-.37,.42-.73,.7-1.08,.83,.46,.17,.96,.6,1.51,1.27,.44,.53,.65,1.04,.65,1.53Zm-6.47,.23c0,.78,.23,1.46,.7,2.04,.52,.64,1.19,.96,2.01,.96,.74,0,1.31-.2,1.72-.6,.34-.33,.51-.71,.51-1.13,0-.29-.19-.66-.56-1.09-.33-.38-.7-.7-1.12-.95-.41-.26-.78-.51-1.09-.75-.24-.19-.48-.38-.71-.57-.41,.2-.72,.43-.95,.68-.34,.39-.51,.85-.51,1.41Zm5.03-5.43c0-.72-.2-1.31-.61-1.76-.41-.45-.96-.68-1.66-.68-.55,0-1.01,.19-1.38,.56-.37,.38-.56,.8-.56,1.28,0,.26,.19,.55,.56,.87,.16,.14,.46,.34,.89,.62,.43,.28,.74,.49,.93,.63,.18,.15,.36,.3,.54,.44,.34-.16,.64-.43,.91-.8,.26-.38,.4-.76,.4-1.16Z"/>
    <path d="M48.47,32.53h.35c.08-.04,.15-.06,.19-.08,.76-.28,1.32-.56,1.68-.85,.5-.41,.75-.91,.75-1.51,0-.77-.26-1.44-.79-1.98-.49-.51-1.02-.77-1.6-.77-.46,0-.9,.12-1.3,.35-.35,.21-.53,.39-.53,.55,0,.08,.06,.12,.18,.12,.53,0,.89,.12,1.1,.37,.17,.2,.25,.49,.25,.88,0,.41-.12,.72-.37,.93-.25,.21-.6,.32-1.05,.32-.42,0-.74-.1-.95-.29-.25-.23-.37-.62-.37-1.16,0-.88,.3-1.56,.91-2.01,.66-.5,1.68-.75,3.07-.75,.92,0,1.75,.33,2.48,.99,.76,.69,1.14,1.52,1.14,2.47,0,.74-.17,1.31-.5,1.72-.26,.32-.72,.63-1.37,.91,.61,.27,1.05,.57,1.33,.89,.36,.43,.55,1.01,.55,1.74,0,.95-.38,1.77-1.14,2.46-.73,.67-1.55,1-2.48,1-1.38,0-2.4-.25-3.06-.74-.62-.46-.92-1.14-.92-2.02,0-.53,.12-.92,.37-1.15,.21-.2,.53-.3,.95-.3,.44,0,.79,.11,1.05,.32,.25,.21,.38,.52,.38,.93s-.08,.69-.24,.88c-.21,.25-.58,.37-1.11,.37-.12,0-.18,.04-.18,.12,0,.16,.18,.35,.53,.55,.4,.24,.83,.35,1.3,.35,.58,0,1.11-.26,1.59-.77,.53-.56,.8-1.22,.8-1.98,0-.59-.25-1.09-.74-1.5-.36-.29-.92-.58-1.69-.86-.09-.04-.17-.06-.23-.07-.06-.01-.1-.02-.12-.02h-.19v-.44Z"/>
    <path d="M53.53,107.95c0,1.28-.42,2.27-1.25,2.99-.71,.6-1.54,.9-2.5,.9-1.07,0-1.95-.36-2.66-1.07-.71-.71-1.06-1.65-1.06-2.82,0-.48,.25-.98,.75-1.5,.38-.4,.76-.68,1.14-.83-.34-.2-.65-.49-.92-.86-.42-.57-.63-1.21-.63-1.93,0-.95,.36-1.72,1.09-2.32,.67-.55,1.44-.82,2.31-.82s1.65,.25,2.29,.74c.7,.54,1.06,1.25,1.06,2.12,0,.08,0,.13,0,.17v.11c-.04,.5-.28,.99-.71,1.48-.37,.42-.73,.7-1.08,.83,.46,.17,.96,.6,1.51,1.27,.44,.53,.65,1.04,.65,1.53Zm-6.47,.23c0,.78,.23,1.46,.7,2.04,.52,.64,1.19,.96,2.01,.96,.74,0,1.31-.2,1.72-.6,.34-.33,.51-.71,.51-1.13,0-.29-.19-.66-.56-1.09-.33-.38-.7-.7-1.12-.95-.41-.26-.78-.51-1.09-.75-.24-.19-.48-.38-.71-.57-.41,.2-.72,.43-.95,.68-.34,.39-.51,.85-.51,1.41Zm5.03-5.43c0-.72-.2-1.31-.61-1.76-.41-.45-.96-.68-1.66-.68-.55,0-1.01,.19-1.38,.56-.37,.38-.56,.8-.56,1.28,0,.26,.19,.55,.56,.87,.16,.14,.46,.34,.89,.62,.43,.28,.74,.49,.93,.63,.18,.15,.36,.3,.54,.44,.34-.16,.64-.43,.91-.8,.26-.38,.4-.76,.4-1.16Z"/>
    <path d="M48.47,93.53h.35c.08-.04,.15-.06,.19-.08,.76-.28,1.32-.56,1.68-.85,.5-.41,.75-.91,.75-1.51,0-.77-.26-1.44-.79-1.98-.49-.51-1.02-.77-1.6-.77-.46,0-.9,.12-1.3,.35-.35,.21-.53,.39-.53,.55,0,.08,.06,.12,.18,.12,.53,0,.89,.12,1.1,.37,.17,.2,.25,.49,.25,.88,0,.41-.12,.72-.37,.93-.25,.21-.6,.32-1.05,.32-.42,0-.74-.1-.95-.29-.25-.23-.37-.62-.37-1.16,0-.88,.3-1.56,.91-2.01,.66-.5,1.68-.75,3.07-.75,.92,0,1.75,.33,2.48,.99,.76,.69,1.14,1.52,1.14,2.47,0,.74-.17,1.31-.5,1.72-.26,.32-.72,.63-1.37,.91,.61,.27,1.05,.57,1.33,.89,.36,.43,.55,1.01,.55,1.74,0,.95-.38,1.77-1.14,2.46-.73,.67-1.55,1-2.48,1-1.38,0-2.4-.25-3.06-.74-.62-.46-.92-1.14-.92-2.02,0-.53,.12-.92,.37-1.15,.21-.2,.53-.3,.95-.3,.44,0,.79,.11,1.05,.32,.25,.21,.38,.52,.38,.93s-.08,.69-.24,.88c-.21,.25-.58,.37-1.11,.37-.12,0-.18,.04-.18,.12,0,.16,.18,.35,.53,.55,.4,.24,.83,.35,1.3,.35,.58,0,1.11-.26,1.59-.77,.53-.56,.8-1.22,.8-1.98,0-.59-.25-1.09-.74-1.5-.36-.29-.92-.58-1.69-.86-.09-.04-.17-.06-.23-.07-.06-.01-.1-.02-.12-.02h-.19v-.44Z"/>
    <path class="cls-2" d="M156.5,26.75v24m0,37v24M284.75,26.75v24m0,37v24M415,26.75v24m0,37v24M550.5,26.75v24m0,37v24"/>
    <path d="M72.93,34.83c-.2,.08-.54,.4-1,.95-.5,.59-.93,1.2-1.3,1.83-.43,.74-.64,1.33-.64,1.76,0,.71,.24,1.44,.72,2.18,.6,.93,1.19,1.54,1.78,1.85l-.2,.55s-.1-.02-.25-.04c-.37-.05-.74-.07-1.12-.07-.53,0-.96,.04-1.29,.12-.45,.11-.75,.3-.91,.57-.07,.1-.12,.22-.15,.34-.03,.12-.04,.25-.04,.39,0,.55,.27,1.18,.8,1.89,.45,.6,.75,.91,.89,.94l-.17,.34c-.07,.02-.41-.2-1.03-.67-.72-.55-1.32-1.09-1.79-1.62-.64-.72-.96-1.34-.96-1.86,0-.6,.23-1.1,.7-1.48,.46-.39,1.04-.58,1.73-.58,.36,0,.73,.06,1.1,.18s.74,.31,1.09,.57l-4.26-5.53c.38-.2,.84-.71,1.39-1.55,.5-.75,.89-1.5,1.18-2.25,.07-.17,.1-.36,.1-.55,0-.45-.15-.99-.46-1.6-.23-.46-.52-.93-.89-1.42-.29-.38-.47-.6-.54-.66h.85l4.66,5.42Z"/>
    <path d="M126.77,32.07c-.19-.2-.32-.42-.4-.67-.08-.26-.12-.52-.12-.8,0-.59,.21-1.19,.64-1.8,.41-.58,.91-1.04,1.52-1.38,.37-.21,.74-.37,1.13-.49,.38-.12,.76-.17,1.13-.17s.7,.06,1.02,.19c.32,.12,.62,.32,.89,.58,.44,.42,.66,.9,.66,1.44,0,.6-.22,1.21-.66,1.82-.44,.62-.97,1.1-1.61,1.46-.37,.21-.74,.37-1.12,.49-.38,.12-.75,.17-1.12,.17-.39,0-.75-.07-1.08-.2-.33-.13-.63-.34-.9-.64Z"/>
    <line class="cls-2" x1="126.48" y1="30.25" x2="126.48" y2="50.5"/>
    <path d="M141.77,35.07c-.19-.2-.32-.42-.4-.67-.08-.26-.12-.52-.12-.8,0-.59,.21-1.19,.64-1.8,.41-.58,.91-1.04,1.52-1.38,.37-.21,.74-.37,1.13-.49,.38-.12,.76-.17,1.13-.17s.7,.06,1.02,.19c.32,.12,.62,.32,.89,.58,.44,.42,.66,.9,.66,1.44,0,.6-.22,1.21-.66,1.82-.44,.62-.97,1.1-1.61,1.46-.37,.21-.74,.37-1.12,.49-.38,.12-.75,.17-1.12,.17-.39,0-.75-.07-1.08-.2-.33-.13-.63-.34-.9-.64Z"/>
    <path d="M149.5,31.25c2-4.5,12.5-4.5,14.5,0-2-3-12.5-3-14.5,0"/>
    <path d="M136.87,23.63h.69v3.98l1-.43v2.53l-1,.43v4.05l1-.44v2.53l-1,.43v4.16h-.69v-3.88l-1.66,.66v4.21h-.69v-3.94l-1,.39v-2.53l1-.39v-4.06l-1,.41v-2.54l1-.37v-4.2h.69v3.89l1.66-.65v-4.25Zm-1.66,11.5l1.66-.67v-4.05l-1.66,.65v4.06Z"/>
    <line class="cls-2" x1="141.48" y1="33.25" x2="141.48" y2="53.5"/>
    <polygon points="126.25 47.5 141.25 50.5 141.25 53.5 126.25 50.5 126.25 47.5"/>
    <polygon points="126.25 43 141.25 46 141.25 49 126.25 46 126.25 43"/>
    <path d="M110.35,93.72v3h-7.1v-3h7.1Z"/>
    <line class="cls-2" x1="102.5" y1="93.75" x2="111" y2="93.75"/>
    <path d="M166.02,32.07c-.19-.2-.32-.42-.4-.67-.08-.26-.12-.52-.12-.8,0-.59,.21-1.19,.64-1.8,.41-.58,.91-1.04,1.52-1.38,.37-.21,.74-.37,1.13-.49,.38-.12,.76-.17,1.13-.17s.7,.06,1.02,.19c.32,.12,.62,.32,.89,.58,.44,.42,.66,.9,.66,1.44,0,.6-.22,1.21-.66,1.82-.44,.62-.97,1.1-1.61,1.46-.37,.21-.74,.37-1.12,.49-.38,.12-.75,.17-1.12,.17-.39,0-.75-.07-1.08-.2-.33-.13-.63-.34-.9-.64Z"/>
    <path d="M173.75,28.25c2-2.25,8-2.25,10,0-2-.75-8-.75-10,0"/>
    <line class="cls-2" x1="165.73" y1="30.25" x2="165.73" y2="56"/>
    <path d="M185.77,35.07c-.19-.2-.32-.42-.4-.67-.08-.26-.12-.52-.12-.8,0-.59,.21-1.19,.64-1.8,.41-.58,.91-1.04,1.52-1.38,.37-.21,.74-.37,1.13-.49,.38-.12,.76-.17,1.13-.17s.7,.06,1.02,.19c.32,.12,.62,.32,.89,.58,.44,.42,.66,.9,.66,1.44,0,.6-.22,1.21-.66,1.82-.44,.62-.97,1.1-1.61,1.46-.37,.21-.74,.37-1.12,.49-.38,.12-.75,.17-1.12,.17-.39,0-.75-.07-1.08-.2-.33-.13-.63-.34-.9-.64Z"/>
    <path d="M180.87,23.63h.69v3.98l1-.43v2.53l-1,.43v4.05l1-.44v2.53l-1,.43v4.16h-.69v-3.88l-1.66,.66v4.21h-.69v-3.94l-1,.39v-2.53l1-.39v-4.06l-1,.41v-2.54l1-.37v-4.2h.69v3.89l1.66-.65v-4.25Zm-1.66,11.5l1.66-.67v-4.05l-1.66,.65v4.06Z"/>
    <line class="cls-2" x1="185.48" y1="33.25" x2="185.48" y2="57.25"/>
    <path d="M205.77,32.07c-.19-.2-.32-.42-.4-.67-.08-.26-.12-.52-.12-.8,0-.59,.21-1.19,.64-1.8,.41-.58,.91-1.04,1.52-1.38,.37-.21,.74-.37,1.13-.49,.38-.12,.76-.17,1.13-.17s.7,.06,1.02,.19c.32,.12,.62,.32,.89,.58,.44,.42,.66,.9,.66,1.44,0,.6-.22,1.21-.66,1.82-.44,.62-.97,1.1-1.61,1.46-.37,.21-.74,.37-1.12,.49-.38,.12-.75,.17-1.12,.17-.39,0-.75-.07-1.08-.2-.33-.13-.63-.34-.9-.64Z"/>
    <line class="cls-2" x1="205.48" y1="30.25" x2="205.48" y2="58.5"/>
    <path d="M225.52,41.07c-.19-.2-.32-.42-.4-.67-.08-.26-.12-.52-.12-.8,0-.59,.21-1.19,.64-1.8,.41-.58,.91-1.04,1.52-1.38,.37-.21,.74-.37,1.13-.49,.38-.12,.76-.17,1.13-.17s.7,.06,1.02,.19c.32,.12,.62,.32,.89,.58,.44,.42,.66,.9,.66,1.44,0,.6-.22,1.21-.66,1.82-.44,.62-.97,1.1-1.61,1.46-.37,.21-.74,.37-1.12,.49-.38,.12-.75,.17-1.12,.17-.39,0-.75-.07-1.08-.2-.33-.13-.63-.34-.9-.64Z"/>
    <line class="cls-2" x1="225.23" y1="39.25" x2="225.23" y2="59.5"/>
    <path d="M245.52,35.07c-.19-.2-.32-.42-.4-.67-.08-.26-.12-.52-.12-.8,0-.59,.21-1.19,.64-1.8,.41-.58,.91-1.04,1.52-1.38,.37-.21,.74-.37,1.13-.49,.38-.12,.76-.17,1.13-.17s.7,.06,1.02,.19c.32,.12,.62,.32,.89,.58,.44,.42,.66,.9,.66,1.44,0,.6-.22,1.21-.66,1.82-.44,.62-.97,1.1-1.61,1.46-.37,.21-.74,.37-1.12,.49-.38,.12-.75,.17-1.12,.17-.39,0-.75-.07-1.08-.2-.33-.13-.63-.34-.9-.64Z"/>
    <path d="M238.28,24.38h.69v5.54l3.37-.91v12.13h-.69v-5.43l-3.37,.9v-12.22Zm3.38,9.5v-3.01s-2.69,.73-2.69,.73v3.01s2.69-.72,2.69-.72Z"/>
    <line class="cls-2" x1="245.23" y1="33.25" x2="245.23" y2="60.75"/>
    <path d="M265.27,38.07c-.19-.2-.32-.42-.4-.67-.08-.26-.12-.52-.12-.8,0-.59,.21-1.19,.64-1.8,.41-.58,.91-1.04,1.52-1.38,.37-.21,.74-.37,1.13-.49,.38-.12,.76-.17,1.13-.17s.7,.06,1.02,.19c.32,.12,.62,.32,.89,.58,.44,.42,.66,.9,.66,1.44,0,.6-.22,1.21-.66,1.82-.44,.62-.97,1.1-1.61,1.46-.37,.21-.74,.37-1.12,.49-.38,.12-.75,.17-1.12,.17-.39,0-.75-.07-1.08-.2-.33-.13-.63-.34-.9-.64Z"/>
    <path d="M273,34.25c2-4.5,17.25-4.5,19.25,0-2-3-17.25-3-19.25,0"/>
    <line class="cls-2" x1="264.98" y1="36.25" x2="264.98" y2="62"/>
    <polygon points="165.5 53 264.75 59 264.75 62 165.5 56 165.5 53"/>
    <polygon points="165.5 48.5 264.75 54.5 264.75 57.5 165.5 51.5 165.5 48.5"/>
    <path d="M224.1,93.72v3h-7.1v-3h7.1Z"/>
    <line class="cls-2" x1="216.25" y1="93.75" x2="224.75" y2="93.75"/>
    <path d="M300.04,20.28h.34c.16,.61,.32,1.21,.48,1.81,.33,.72,.81,1.38,1.44,1.97,.69,.65,1.38,1.36,2.06,2.13,.87,.97,1.51,1.79,1.93,2.47,.39,.63,.67,1.33,.84,2.08,.14,.62,.21,1.27,.21,1.97,0,.29-.01,.57-.04,.85-.03,.28-.06,.53-.11,.74-.19,.95-.44,1.82-.77,2.62-.26,.64-.56,1.25-.9,1.84-.25,.42-.48,.76-.7,1.01l-.14-.13c.16-.17,.35-.44,.57-.81,.37-.62,.68-1.28,.93-1.99,.33-.96,.49-1.91,.49-2.84,0-.52-.05-1.03-.14-1.53-.09-.51-.25-1.03-.48-1.56-.49-1.19-1.29-2.24-2.38-3.14-1.1-.9-2.22-1.43-3.37-1.58l-.03,.03v.53h-.25v-6.47Z"/>
    <line class="cls-2" x1="300.27" y1="41.25" x2="300.27" y2="20.75"/>
    <path d="M294.27,44.07c-.19-.2-.32-.42-.4-.67-.08-.26-.12-.52-.12-.8,0-.59,.21-1.19,.64-1.8,.4-.58,.91-1.04,1.52-1.38,.37-.21,.74-.37,1.13-.49,.38-.12,.76-.17,1.13-.17s.7,.06,1.02,.19c.32,.12,.62,.32,.89,.58,.44,.42,.66,.9,.66,1.44,0,.6-.22,1.21-.66,1.82-.44,.62-.97,1.1-1.61,1.46-.37,.21-.74,.37-1.12,.49-.38,.12-.75,.17-1.12,.17-.39,0-.75-.07-1.08-.2-.33-.13-.62-.34-.9-.64Z"/>
    <path d="M339.46,40.64l1.06-4.42c-.23,.38-.57,.68-1,.9s-.93,.32-1.49,.32c-.37,0-.76-.05-1.16-.16-.41-.1-.75-.31-1.02-.61-.3-.34-.45-.74-.45-1.22,0-.44,.16-.81,.47-1.12,.32-.31,.7-.46,1.15-.46s.86,.16,1.18,.49c.32,.32,.48,.69,.48,1.09,0,.17-.05,.36-.15,.57-.14,.3-.34,.52-.6,.67,.01,0,.07,.03,.16,.08,.09,.05,.19,.08,.29,.08,.12,0,.26-.03,.43-.08,.48-.16,.94-.53,1.39-1.12,.38-.57,.77-1.15,1.15-1.74h.27l-3.97,17.09h-.71s2.12-8.69,2.12-8.69c-.23,.4-.56,.71-.99,.93-.42,.22-.91,.32-1.47,.32-.17,0-.35-.01-.52-.03-.18-.02-.37-.06-.57-.11-.44-.11-.8-.32-1.07-.63-.3-.34-.45-.75-.45-1.23,0-.44,.16-.82,.47-1.13,.32-.31,.7-.46,1.15-.46s.86,.16,1.18,.49c.32,.33,.48,.69,.48,1.1,0,.17-.05,.36-.15,.57-.14,.3-.34,.53-.6,.68,.09,.04,.17,.07,.25,.09,.08,.03,.16,.04,.23,.04,.06,0,.12,0,.19-.01,.06,0,.13-.03,.21-.06,.4-.14,.8-.42,1.18-.85,.52-.59,.82-1.05,.88-1.39Z"/>
    <line class="cls-2" x1="352.75" y1="56.75" x2="362.75" y2="56.75"/>
    <path d="M354.77,59.07c-.19-.2-.32-.42-.4-.67-.08-.26-.12-.52-.12-.8,0-.59,.21-1.19,.64-1.8,.4-.58,.91-1.04,1.52-1.38,.37-.21,.74-.37,1.13-.49,.38-.12,.76-.17,1.13-.17s.7,.06,1.02,.19c.32,.12,.62,.32,.89,.58,.44,.42,.66,.9,.66,1.44,0,.6-.22,1.21-.66,1.82-.44,.62-.97,1.1-1.61,1.46-.37,.21-.74,.37-1.12,.49-.38,.12-.75,.17-1.12,.17-.39,0-.75-.07-1.08-.2-.33-.13-.62-.34-.9-.64Z"/>
    <line class="cls-2" x1="360.77" y1="56.25" x2="360.77" y2="36"/>
    <path d="M375.02,53.07c-.19-.2-.32-.42-.4-.67-.08-.26-.12-.52-.12-.8,0-.59,.21-1.19,.64-1.8,.4-.58,.91-1.04,1.52-1.38,.37-.21,.74-.37,1.13-.49,.38-.12,.76-.17,1.13-.17s.7,.06,1.02,.19c.32,.12,.62,.32,.89,.58,.44,.42,.66,.9,.66,1.44,0,.6-.22,1.21-.66,1.82-.44,.62-.97,1.1-1.61,1.46-.37,.21-.74,.37-1.12,.49-.38,.12-.75,.17-1.12,.17-.39,0-.75-.07-1.08-.2-.33-.13-.62-.34-.9-.64Z"/>
    <line class="cls-2" x1="381.02" y1="50.25" x2="381.02" y2="28.5"/>
    <path d="M395.27,44.07c-.19-.2-.32-.42-.4-.67-.08-.26-.12-.52-.12-.8,0-.59,.21-1.19,.64-1.8,.4-.58,.91-1.04,1.52-1.38,.37-.21,.74-.37,1.13-.49,.38-.12,.76-.17,1.13-.17s.7,.06,1.02,.19c.32,.12,.62,.32,.89,.58,.44,.42,.66,.9,.66,1.44,0,.6-.22,1.21-.66,1.82-.44,.62-.97,1.1-1.61,1.46-.37,.21-.74,.37-1.12,.49-.38,.12-.75,.17-1.12,.17-.39,0-.75-.07-1.08-.2-.33-.13-.62-.34-.9-.64Z"/>
    <path d="M403,43.25c2,4.5,17.5,4.5,19.5,0-2,3-17.5,3-19.5,0"/>
    <line class="cls-2" x1="401.27" y1="41.25" x2="401.27" y2="21"/>
    <polygon points="361 36 401.5 21 401.5 24 361 39 361 36"/>
    <polygon points="361 40.5 401.5 25.5 401.5 28.5 361 43.5 361 40.5"/>
    <path d="M294.27,111.07c-.19-.2-.32-.42-.4-.67-.08-.26-.12-.52-.12-.8,0-.59,.21-1.19,.64-1.8,.4-.58,.91-1.04,1.52-1.38,.37-.21,.74-.37,1.13-.49,.38-.12,.76-.17,1.13-.17s.7,.06,1.02,.19c.32,.12,.62,.32,.89,.58,.44,.42,.66,.9,.66,1.44,0,.6-.22,1.21-.66,1.82-.44,.62-.97,1.1-1.61,1.46-.37,.21-.74,.37-1.12,.49-.38,.12-.75,.17-1.12,.17-.39,0-.75-.07-1.08-.2-.33-.13-.62-.34-.9-.64Z"/>
    <line class="cls-2" x1="293.98" y1="109.25" x2="293.98" y2="129.5"/>
    <path d="M314.27,99.07c-.19-.2-.32-.42-.4-.67-.08-.26-.12-.52-.12-.8,0-.59,.21-1.19,.64-1.8,.4-.58,.91-1.04,1.52-1.38,.37-.21,.74-.37,1.13-.49,.38-.12,.76-.17,1.13-.17s.7,.06,1.02,.19c.32,.12,.62,.32,.89,.58,.44,.42,.66,.9,.66,1.44,0,.6-.22,1.21-.66,1.82-.44,.62-.97,1.1-1.61,1.46-.37,.21-.74,.37-1.12,.49-.38,.12-.75,.17-1.12,.17-.39,0-.75-.07-1.08-.2-.33-.13-.62-.34-.9-.64Z"/>
    <line class="cls-2" x1="313.98" y1="97.25" x2="313.98" y2="122"/>
    <path d="M334.52,90.07c-.19-.2-.32-.42-.4-.67-.08-.26-.12-.52-.12-.8,0-.59,.21-1.19,.64-1.8,.4-.58,.91-1.04,1.52-1.38,.37-.21,.74-.37,1.13-.49,.38-.12,.76-.17,1.13-.17s.7,.06,1.02,.19c.32,.12,.62,.32,.89,.58,.44,.42,.66,.9,.66,1.44,0,.6-.22,1.21-.66,1.82-.44,.62-.97,1.1-1.61,1.46-.37,.21-.74,.37-1.12,.49-.38,.12-.75,.17-1.12,.17-.39,0-.75-.07-1.08-.2-.33-.13-.62-.34-.9-.64Z"/>
    <line class="cls-2" x1="334.23" y1="88.25" x2="334.23" y2="114.5"/>
    <polygon points="293.75 126.5 334 111.5 334 114.5 293.75 129.5 293.75 126.5"/>
    <polygon points="293.75 122 334 107 334 110 293.75 125 293.75 122"/>
    <g>
      <path d="M359.71,101.64l1.06-4.42c-.23,.38-.57,.68-1,.9s-.93,.32-1.49,.32c-.37,0-.76-.05-1.16-.16-.41-.1-.75-.31-1.02-.61-.3-.34-.45-.74-.45-1.22,0-.44,.16-.81,.47-1.12,.32-.31,.7-.46,1.15-.46s.86,.16,1.18,.49c.32,.32,.48,.69,.48,1.09,0,.17-.05,.36-.15,.57-.14,.3-.34,.52-.6,.67,.01,0,.07,.03,.16,.08,.09,.05,.19,.08,.29,.08,.12,0,.26-.03,.43-.08,.48-.16,.94-.53,1.39-1.12,.38-.57,.77-1.15,1.15-1.74h.27l-3.97,17.09h-.71s2.12-8.69,2.12-8.69c-.23,.4-.56,.71-.99,.93-.42,.22-.91,.32-1.47,.32-.17,0-.35-.01-.52-.03-.18-.02-.37-.06-.57-.11-.44-.11-.8-.32-1.07-.63-.3-.34-.45-.75-.45-1.23,0-.44,.16-.82,.47-1.13,.32-.31,.7-.46,1.15-.46s.86,.16,1.18,.49c.32,.33,.48,.69,.48,1.1,0,.17-.05,.36-.15,.57-.14,.3-.34,.53-.6,.68,.09,.04,.17,.07,.25,.09,.08,.03,.16,.04,.23,.04,.06,0,.12,0,.19-.01,.06,0,.13-.03,.21-.06,.4-.14,.8-.42,1.18-.85,.52-.59,.82-1.05,.88-1.39Z"/>
      <path d="M378.45,96.45c0,.17-.05,.36-.15,.57-.14,.3-.34,.52-.6,.67,.01,0,.07,.03,.16,.08,.09,.05,.19,.08,.29,.08,.12,0,.26-.03,.43-.08,.48-.16,.94-.53,1.39-1.12,.38-.57,.77-1.15,1.15-1.74h.27l-2.57,11.03h-.71s2.16-8.72,2.16-8.72c-.23,.38-.57,.68-1,.9-.43,.21-.93,.32-1.48,.32-.37,0-.75-.05-1.16-.16-.41-.1-.74-.31-1.01-.61-.3-.34-.45-.74-.45-1.22,0-.44,.16-.81,.47-1.12,.32-.31,.7-.46,1.15-.46s.86,.16,1.18,.49c.32,.32,.48,.69,.48,1.09Z"/>
    </g>
    <path d="M423.89,53.75h.25v.53l.03,.03c1.16-.15,2.28-.67,3.37-1.57,1.09-.9,1.88-1.95,2.38-3.15,.21-.49,.37-1.01,.47-1.55,.1-.54,.15-1.05,.15-1.55,0-.94-.16-1.88-.49-2.84-.24-.7-.55-1.37-.93-1.99-.22-.36-.42-.63-.57-.81l.14-.13c.22,.27,.45,.6,.69,1,.32,.54,.62,1.15,.89,1.84,.35,.86,.61,1.74,.79,2.64,.04,.2,.07,.44,.1,.72,.03,.28,.04,.57,.04,.89,0,.68-.07,1.33-.21,1.95-.17,.76-.45,1.45-.84,2.08-.41,.68-1.05,1.51-1.92,2.47-.69,.77-1.38,1.48-2.07,2.13-.56,.53-1,1.11-1.33,1.76-.23,.45-.4,.92-.5,1.4-.04,.21-.07,.42-.1,.63h-.34v-6.47Z"/>
    <line class="cls-2" x1="424.23" y1="39.25" x2="424.23" y2="59.75"/>
    <g>
      <path d="M424.52,41.07c-.19-.2-.32-.42-.4-.67-.08-.26-.12-.52-.12-.8,0-.59,.21-1.19,.64-1.8,.4-.58,.91-1.04,1.52-1.38,.37-.21,.74-.37,1.13-.49,.38-.12,.76-.17,1.13-.17s.7,.06,1.02,.19c.32,.12,.62,.32,.89,.58,.44,.42,.66,.9,.66,1.44,0,.6-.22,1.21-.66,1.82-.44,.62-.97,1.1-1.61,1.46-.37,.21-.74,.37-1.12,.49-.38,.12-.75,.17-1.12,.17-.39,0-.75-.07-1.08-.2-.33-.13-.62-.34-.9-.64Z"/>
      <path d="M471.45,40.64l1.06-4.42c-.23,.38-.57,.68-1,.9-.43,.21-.93,.32-1.49,.32-.37,0-.76-.05-1.16-.16-.41-.1-.75-.31-1.02-.61-.3-.34-.45-.74-.45-1.22,0-.44,.16-.81,.47-1.12,.32-.31,.7-.46,1.15-.46s.86,.16,1.18,.49c.32,.32,.48,.69,.48,1.09,0,.17-.05,.36-.15,.57-.14,.3-.34,.52-.6,.67,.01,0,.07,.03,.16,.08,.09,.05,.19,.08,.29,.08,.12,0,.26-.03,.43-.08,.48-.16,.94-.53,1.39-1.12,.38-.57,.77-1.15,1.15-1.74h.27l-3.97,17.09h-.71s2.12-8.69,2.12-8.69c-.23,.4-.56,.71-.99,.93-.42,.22-.91,.32-1.47,.32-.17,0-.35-.01-.52-.03-.18-.02-.37-.06-.57-.11-.44-.11-.8-.32-1.07-.63-.3-.34-.45-.75-.45-1.23,0-.44,.16-.82,.47-1.13,.32-.31,.7-.46,1.15-.46s.86,.16,1.18,.49c.32,.33,.48,.69,.48,1.1,0,.17-.05,.36-.15,.57-.14,.3-.34,.53-.6,.68,.09,.04,.17,.07,.25,.09,.08,.03,.16,.04,.23,.04,.06,0,.12,0,.18-.01,.06,0,.13-.03,.21-.06,.4-.14,.8-.42,1.18-.85,.52-.59,.82-1.05,.87-1.39Z"/>
    </g>
    <path d="M487.77,53.07c-.19-.2-.32-.42-.4-.67-.08-.26-.12-.52-.12-.8,0-.59,.21-1.19,.64-1.8,.4-.58,.91-1.04,1.52-1.38,.37-.21,.74-.37,1.13-.49,.38-.12,.76-.17,1.13-.17s.7,.06,1.02,.19c.32,.12,.62,.32,.89,.58,.44,.42,.66,.9,.66,1.44,0,.6-.22,1.21-.66,1.82-.44,.62-.97,1.1-1.61,1.46-.37,.21-.74,.37-1.12,.49-.38,.12-.75,.17-1.12,.17-.39,0-.75-.07-1.08-.2-.33-.13-.62-.34-.9-.64Z"/>
    <line class="cls-2" x1="493.77" y1="50.25" x2="493.77" y2="30"/>
    <path d="M508.77,47.07c-.19-.2-.32-.42-.4-.67-.08-.26-.12-.52-.12-.8,0-.59,.21-1.19,.64-1.8,.4-.58,.91-1.04,1.52-1.38,.37-.21,.74-.37,1.13-.49,.38-.12,.76-.17,1.13-.17s.7,.06,1.02,.19c.32,.12,.62,.32,.89,.58,.44,.42,.66,.9,.66,1.44,0,.6-.22,1.21-.66,1.82-.44,.62-.97,1.1-1.61,1.46-.37,.21-.74,.37-1.12,.49-.38,.12-.75,.17-1.12,.17-.39,0-.75-.07-1.08-.2-.33-.13-.62-.34-.9-.64Z"/>
    <path d="M503.88,35.63h.69v3.98l1-.43v2.53l-1,.43v4.05l1-.44v2.53l-1,.43v4.16h-.69v-3.88l-1.66,.66v4.21h-.69v-3.94l-1,.39v-2.53l1-.39v-4.06l-1,.41v-2.54l1-.37v-4.2h.69v3.89l1.66-.65v-4.25Zm-1.66,11.5l1.66-.67v-4.05l-1.66,.65v4.06Z"/>
    <line class="cls-2" x1="514.77" y1="44.25" x2="514.77" y2="24"/>
    <path d="M529.77,41.07c-.19-.2-.32-.42-.4-.67-.08-.26-.12-.52-.12-.8,0-.59,.21-1.19,.64-1.8,.4-.58,.91-1.04,1.52-1.38,.37-.21,.74-.37,1.13-.49,.38-.12,.76-.17,1.13-.17s.7,.06,1.02,.19c.32,.12,.62,.32,.89,.58,.44,.42,.66,.9,.66,1.44,0,.6-.22,1.21-.66,1.82-.44,.62-.97,1.1-1.61,1.46-.37,.21-.74,.37-1.12,.49-.38,.12-.75,.17-1.12,.17-.39,0-.75-.07-1.08-.2-.33-.13-.62-.34-.9-.64Z"/>
    <path d="M537.5,40.25c2,4.5,14.25,4.5,16.25,0-2,3-14.25,3-16.25,0"/>
    <line class="cls-2" x1="535.77" y1="38.25" x2="535.77" y2="18"/>
    <polygon points="494 30 536 18 536 21 494 33 494 30"/>
    <polygon points="494 34.5 536 22.5 536 25.5 494 37.5 494 34.5"/>
    <line class="cls-2" x1="422.5" y1="117.75" x2="432.5" y2="117.75"/>
    <path d="M424.52,120.07c-.19-.2-.32-.42-.4-.67-.08-.26-.12-.52-.12-.8,0-.59,.21-1.19,.64-1.8,.4-.58,.91-1.04,1.52-1.38,.37-.21,.74-.37,1.13-.49,.38-.12,.76-.17,1.13-.17s.7,.06,1.02,.19c.32,.12,.62,.32,.89,.58,.44,.42,.66,.9,.66,1.44,0,.6-.22,1.21-.66,1.82-.44,.62-.97,1.1-1.61,1.46-.37,.21-.74,.37-1.12,.49-.38,.12-.75,.17-1.12,.17-.39,0-.75-.07-1.08-.2-.33-.13-.62-.34-.9-.64Z"/>
    <line class="cls-2" x1="430.52" y1="117.25" x2="430.52" y2="85"/>
    <path d="M445.52,99.07c-.19-.2-.32-.42-.4-.67-.08-.26-.12-.52-.12-.8,0-.59,.21-1.19,.64-1.8,.4-.58,.91-1.04,1.52-1.38,.37-.21,.74-.37,1.13-.49,.38-.12,.76-.17,1.13-.17s.7,.06,1.02,.19c.32,.12,.62,.32,.89,.58,.44,.42,.66,.9,.66,1.44,0,.6-.22,1.21-.66,1.82-.44,.62-.97,1.1-1.61,1.46-.37,.21-.74,.37-1.12,.49-.38,.12-.75,.17-1.12,.17-.39,0-.75-.07-1.08-.2-.33-.13-.62-.34-.9-.64Z"/>
    <line class="cls-2" x1="451.52" y1="96.25" x2="451.52" y2="77.5"/>
    <path d="M466.52,93.07c-.19-.2-.32-.42-.4-.67-.08-.26-.12-.52-.12-.8,0-.59,.21-1.19,.64-1.8,.4-.58,.91-1.04,1.52-1.38,.37-.21,.74-.37,1.13-.49,.38-.12,.76-.17,1.13-.17s.7,.06,1.02,.19c.32,.12,.62,.32,.89,.58,.44,.42,.66,.9,.66,1.44,0,.6-.22,1.21-.66,1.82-.44,.62-.97,1.1-1.61,1.46-.37,.21-.74,.37-1.12,.49-.38,.12-.75,.17-1.12,.17-.39,0-.75-.07-1.08-.2-.33-.13-.62-.34-.9-.64Z"/>
    <path d="M461.63,81.63h.69v3.98l1-.43v2.53l-1,.43v4.05l1-.44v2.53l-1,.43v4.16h-.69v-3.88l-1.66,.66v4.21h-.69v-3.94l-1,.39v-2.53l1-.39v-4.06l-1,.41v-2.54l1-.37v-4.2h.69v3.89l1.66-.65v-4.25Zm-1.66,11.5l1.66-.67v-4.05l-1.66,.65v4.06Z"/>
    <line class="cls-2" x1="472.52" y1="90.25" x2="472.52" y2="70"/>
    <polygon points="430.75 85 472.75 70 472.75 73 430.75 88 430.75 85"/>
    <polygon points="430.75 89.5 472.75 74.5 472.75 77.5 430.75 92.5 430.75 89.5"/>
    <g>
      <path d="M492.71,101.64l1.06-4.42c-.23,.38-.57,.68-1,.9s-.93,.32-1.49,.32c-.37,0-.76-.05-1.16-.16-.41-.1-.75-.31-1.02-.61-.3-.34-.45-.74-.45-1.22,0-.44,.16-.81,.47-1.12,.32-.31,.7-.46,1.15-.46s.86,.16,1.18,.49c.32,.32,.48,.69,.48,1.09,0,.17-.05,.36-.15,.57-.14,.3-.34,.52-.6,.67,.01,0,.07,.03,.16,.08,.09,.05,.19,.08,.29,.08,.12,0,.26-.03,.43-.08,.48-.16,.94-.53,1.39-1.12,.38-.57,.77-1.15,1.15-1.74h.27l-3.97,17.09h-.71s2.12-8.69,2.12-8.69c-.23,.4-.56,.71-.99,.93-.42,.22-.91,.32-1.47,.32-.17,0-.35-.01-.52-.03-.18-.02-.37-.06-.57-.11-.44-.11-.8-.32-1.07-.63-.3-.34-.45-.75-.45-1.23,0-.44,.16-.82,.47-1.13,.32-.31,.7-.46,1.15-.46s.86,.16,1.18,.49c.32,.33,.48,.69,.48,1.1,0,.17-.05,.36-.15,.57-.14,.3-.34,.53-.6,.68,.09,.04,.17,.07,.25,.09,.08,.03,.16,.04,.23,.04,.06,0,.12,0,.19-.01,.06,0,.13-.03,.21-.06,.4-.14,.8-.42,1.18-.85,.52-.59,.82-1.05,.88-1.39Z"/>
      <path d="M512.19,96.45c0,.17-.05,.36-.15,.57-.14,.3-.34,.52-.6,.67,.01,0,.07,.03,.16,.08,.09,.05,.19,.08,.29,.08,.12,0,.26-.03,.43-.08,.48-.16,.94-.53,1.39-1.12,.38-.57,.77-1.15,1.15-1.74h.27l-2.57,11.03h-.71s2.16-8.72,2.16-8.72c-.23,.38-.57,.68-1,.9-.43,.21-.93,.32-1.48,.32-.37,0-.75-.05-1.16-.16-.41-.1-.74-.31-1.01-.61-.3-.34-.45-.74-.45-1.22,0-.44,.16-.81,.47-1.12,.32-.31,.7-.46,1.15-.46s.86,.16,1.18,.49c.32,.32,.48,.69,.48,1.09Z"/>
    </g>
  </g>
  <rect class="cls-3" width="572.04" height="149"/>
  <circle class="cls-1" cx="130.01" cy="8.69" r="3.53"/>
  <circle class="cls-1" cx="144.75" cy="8.69" r="3.53"/>
  <circle class="cls-1" cx="169" cy="8.69" r="3.53"/>
  <circle class="cls-1" cx="189.2" cy="8.69" r="3.53"/>
  <circle class="cls-1" cx="208.75" cy="8.69" r="3.53"/>
  <circle class="cls-1" cx="228.5" cy="8.69" r="3.53"/>
  <circle class="cls-1" cx="248.5" cy="8.69" r="3.53"/>
  <circle class="cls-1" cx="268.25" cy="8.69" r="3.53"/>
  <circle class="cls-1" cx="297.25" cy="8.69" r="3.53"/>
  <circle class="cls-1" cx="357.75" cy="8.69" r="3.53"/>
  <circle class="cls-1" cx="378" cy="8.69" r="3.53"/>
  <circle class="cls-1" cx="398.25" cy="8.69" r="3.53"/>
  <circle class="cls-1" cx="427.5" cy="8.69" r="3.53"/>
  <circle class="cls-1" cx="490.75" cy="8.69" r="3.53"/>
  <circle class="cls-1" cx="511.75" cy="8.69" r="3.53"/>
  <circle class="cls-1" cx="532.24" cy="8.69" r="3.53"/>
</svg>