<?xml version="1.0" encoding="UTF-8"?>
<svg id="_レイヤー_1" data-name="レイヤー 1" xmlns="http://www.w3.org/2000/svg" viewBox="0 0 572.04 167.19">
  <defs>
    <style>
      .cls-1 {
        fill: #231815;
        stroke: #231815;
      }

      .cls-1, .cls-2 {
        stroke-miterlimit: 10;
      }

      .cls-3, .cls-2 {
        fill: none;
      }

      .cls-2 {
        stroke: #000;
        stroke-width: .46px;
      }
    </style>
  </defs>
  <g>
    <path class="cls-2" d="M18.75,38.19H551.5M18.75,44.19H551.5M18.75,50.19H551.5M18.75,56.19H551.5M18.75,62.19H551.5M18.75,109.19H551.5M18.75,115.19H551.5M18.75,121.19H551.5M18.75,127.19H551.5M18.75,133.19H551.5M18.75,38.19v95"/>
    <path d="M37.06,36.83c0,1.01-.09,1.99-.28,2.94-.25,1.25-.64,2.39-1.19,3.4-.67,1.24-1.54,2.3-2.63,3.19l.71,3.72c.45-.07,.88-.1,1.29-.1,1.31,0,2.44,.36,3.38,1.07,.83,.63,1.46,1.49,1.91,2.58,.4,.98,.6,2.03,.6,3.14,0,1.39-.45,2.58-1.36,3.58-.87,.96-2.03,1.6-3.46,1.93l.99,5.51c.02,.1,.03,.2,.03,.31,0,.11,0,.23,0,.37,0,1-.38,1.88-1.14,2.65-.71,.72-1.6,1.2-2.67,1.44-.23,.05-.48,.08-.74,.08-1.04,0-1.97-.43-2.8-1.28-.79-.81-1.18-1.65-1.18-2.52,0-.14,.01-.27,.03-.39,.13-.69,.45-1.25,.95-1.68,.5-.43,1.09-.65,1.78-.65s1.28,.23,1.78,.69c.5,.46,.75,1.03,.75,1.71s-.23,1.32-.7,1.84c-.46,.52-1.05,.78-1.77,.78h-.38c.33,.31,.67,.54,1.02,.7,.35,.16,.7,.24,1.03,.24,.1,0,.23,0,.36-.02,.14-.02,.42-.13,.86-.34,.64-.31,1.15-.69,1.53-1.13,.52-.61,.79-1.32,.79-2.12,0-.23-.01-.47-.03-.73l-.97-5.23c-.4,.09-.77,.14-1.13,.17-.35,.03-.78,.04-1.27,.04-2.26,0-4.23-.84-5.9-2.51-1.67-1.68-2.51-3.68-2.51-6.01,0-1.29,.59-2.87,1.77-4.74,.85-1.35,1.96-2.78,3.35-4.29,1.13-1.23,1.76-1.87,1.91-1.92-.12-.29-.29-.98-.5-2.09-.21-1.11-.36-2-.44-2.67-.03-.23-.05-.51-.05-.83,0-1.58,.35-3.15,1.05-4.72,.76-1.7,1.6-2.56,2.52-2.56,.64,0,1.25,.8,1.85,2.4,.56,1.49,.84,2.86,.84,4.09Zm-4.52,9.98c-.26,.19-.77,.68-1.52,1.49-.75,.81-1.33,1.47-1.73,1.99-.46,.59-.85,1.15-1.16,1.67-.38,.64-.68,1.26-.89,1.88-.24,.7-.36,1.39-.36,2.06,0,.56,.08,1.13,.25,1.69,.12,.4,.41,.89,.86,1.49,.61,.8,1.33,1.46,2.15,1.96,1.06,.65,2.19,.98,3.39,.98,.37,0,.69-.03,.98-.1,.13-.03,.42-.12,.84-.27l-1.81-9.07c-1.18,.16-2.1,.73-2.74,1.71-.51,.77-.76,1.59-.76,2.44,0,.67,.27,1.34,.82,1.99,.44,.52,1,.99,1.69,1.39,.6,.35,1.05,.53,1.34,.53v.25c-.38-.04-.88-.21-1.5-.53-.77-.39-1.42-.86-1.95-1.42-.68-.71-1.11-1.49-1.28-2.34-.08-.35-.11-.72-.11-1.11,0-1.25,.38-2.38,1.15-3.37,.77-.99,1.77-1.64,3-1.94l-.64-3.36Zm2.04-13.56c-.53,0-1.08,.58-1.65,1.75-.53,1.07-.92,2.25-1.15,3.52-.02,.11-.03,.27-.03,.47,0,.56,.05,1.27,.16,2.13,.11,.86,.21,1.43,.31,1.72l.88-.78c.13-.06,.42-.35,.87-.87,.58-.68,1.04-1.38,1.4-2.08,.49-.98,.73-1.91,.73-2.79,0-.13,0-.26-.01-.39,0-.13-.02-.26-.04-.39-.13-.8-.24-1.31-.34-1.53-.23-.51-.6-.77-1.11-.77Zm1.28,28.11c1.02-.24,1.85-.75,2.49-1.54,.64-.78,.96-1.69,.96-2.71,0-.17-.01-.35-.03-.53-.14-1.18-.64-2.16-1.5-2.93-.87-.77-1.86-1.16-2.99-1.16-.08,0-.16,0-.23,0s-.22,.03-.44,.07l1.75,8.79Z"/>
    <path d="M27.65,112.53c.08,.32,.32,.55,.73,.68,.22,.07,.63,.14,1.23,.21,.6,.07,.99,.33,1.18,.79,.1,.24,.15,.63,.15,1.18,0,.58-.28,1.04-.85,1.38-.5,.3-1.1,.45-1.79,.45-.77,0-1.4-.19-1.89-.58-.55-.43-.82-1.04-.82-1.83,0-.72,.14-1.44,.42-2.14,.31-.78,.76-1.49,1.34-2.12,.45-.47,1.05-.82,1.79-1.05,.62-.19,1.34-.28,2.14-.28,.58,0,1.14,.05,1.68,.15,1.53,.28,2.77,1.08,3.73,2.4,.87,1.19,1.31,2.49,1.31,3.87,0,.2-.01,.39-.03,.59-.2,1.75-1.36,3.63-3.48,5.63-1.65,1.56-3.63,3.01-5.94,4.34-2.04,1.17-3.24,1.7-3.6,1.59l-.1-.44c.59-.21,1.2-.48,1.82-.8,.69-.36,1.37-.78,2.04-1.26,1.14-.81,2.04-1.56,2.72-2.25,.79-.81,1.41-1.68,1.86-2.59,.48-.98,.83-2.14,1.04-3.47,.06-.41,.11-.77,.14-1.08,.03-.31,.05-.64,.05-.99,0-.98-.15-1.82-.46-2.5-.33-.74-.86-1.32-1.58-1.76-.3-.19-.62-.32-.94-.41-.33-.09-.65-.13-.96-.13-.5,0-.98,.09-1.44,.28-.4,.16-.73,.36-.98,.6-.35,.33-.53,.7-.53,1.11,0,.13,.02,.28,.06,.45Zm13.73-1c.31,.29,.46,.65,.46,1.08,0,.31-.1,.6-.29,.88-.28,.37-.68,.56-1.18,.56-.38,0-.71-.12-.98-.36-.16-.14-.29-.31-.37-.5-.08-.19-.12-.4-.12-.61,0-.37,.11-.68,.33-.95,.13-.17,.29-.29,.5-.38,.21-.09,.41-.14,.61-.14,.41,0,.76,.14,1.04,.42Zm0,5.19c.31,.29,.46,.65,.46,1.08,0,.31-.1,.6-.29,.88-.28,.38-.68,.56-1.18,.56-.38,0-.71-.12-.98-.36-.16-.14-.29-.31-.37-.5-.08-.19-.12-.4-.12-.61,0-.37,.11-.68,.33-.95,.13-.17,.29-.29,.5-.38,.21-.09,.41-.14,.61-.14,.41,0,.76,.14,1.04,.42Z"/>
    <path d="M50.38,29.06h.69v3.98l1-.43v2.53l-1,.43v4.05l1-.44v2.53l-1,.43v4.16h-.69v-3.88l-1.66,.66v4.21h-.69v-3.94l-1,.39v-2.53l1-.39v-4.06l-1,.41v-2.54l1-.37v-4.2h.69v3.89l1.66-.65v-4.25Zm-1.66,11.5l1.66-.67v-4.05l-1.66,.65v4.06Z"/>
    <path d="M58.13,38.06h.69v3.98l1-.43v2.53l-1,.43v4.05l1-.44v2.53l-1,.43v4.16h-.69v-3.88l-1.66,.66v4.21h-.69v-3.94l-1,.39v-2.53l1-.39v-4.06l-1,.41v-2.54l1-.37v-4.2h.69v3.89l1.66-.65v-4.25Zm-1.66,11.5l1.66-.67v-4.05l-1.66,.65v4.06Z"/>
    <path d="M50.38,106.06h.69v3.98l1-.43v2.53l-1,.43v4.05l1-.44v2.53l-1,.43v4.16h-.69v-3.88l-1.66,.66v4.21h-.69v-3.94l-1,.39v-2.53l1-.39v-4.06l-1,.41v-2.54l1-.37v-4.2h.69v3.89l1.66-.65v-4.25Zm-1.66,11.5l1.66-.67v-4.05l-1.66,.65v4.06Z"/>
    <path d="M58.13,115.06h.69v3.98l1-.43v2.53l-1,.43v4.05l1-.44v2.53l-1,.43v4.16h-.69v-3.88l-1.66,.66v4.21h-.69v-3.94l-1,.39v-2.53l1-.39v-4.06l-1,.41v-2.54l1-.37v-4.2h.69v3.89l1.66-.65v-4.25Zm-1.66,11.5l1.66-.67v-4.05l-1.66,.65v4.06Z"/>
    <path d="M74.72,55.58c-.11,.15-.39,.56-.82,1.22-.46,.7-.91,1.4-1.37,2.1h3.22v-3.92l2.66-2.27v6.19h1.16v.53h-1.13s-.02,.17-.02,.37,.01,.44,.03,.71c.02,.27,.06,.48,.1,.62,.04,.14,.22,.29,.53,.45,.25,.13,.42,.19,.49,.19v.5h-5v-.5c.1,0,.28-.06,.54-.18,.32-.15,.5-.29,.53-.43,.03-.14,.06-.37,.08-.71,.02-.34,.03-.6,.03-.78v-.24h-4.23s0-.12-.01-.23c0-.11-.01-.18-.01-.21,0-.05,0-.09,.02-.1,1.03-.73,1.83-1.83,2.4-3.3,.39-1,.68-2.2,.87-3.61,.17-1.24,.26-1.87,.28-1.9h3.01c-.41,.7-.82,1.4-1.22,2.1-.44,.75-.82,1.38-1.13,1.89-.4,.63-.73,1.13-1.01,1.5Z"/>
    <path d="M73.97,43.97h.35c.08-.04,.15-.06,.19-.08,.76-.28,1.32-.56,1.68-.85,.5-.41,.75-.91,.75-1.51,0-.77-.26-1.44-.79-1.98-.49-.51-1.02-.77-1.6-.77-.46,0-.9,.12-1.3,.35-.35,.21-.53,.39-.53,.55,0,.08,.06,.12,.18,.12,.53,0,.89,.12,1.1,.37,.17,.2,.25,.49,.25,.88,0,.41-.12,.72-.37,.93-.25,.21-.6,.32-1.05,.32-.42,0-.74-.1-.95-.29-.25-.23-.37-.62-.37-1.16,0-.88,.3-1.56,.91-2.01,.66-.5,1.68-.75,3.07-.75,.92,0,1.75,.33,2.48,.99,.76,.69,1.14,1.52,1.14,2.47,0,.74-.17,1.31-.5,1.72-.26,.32-.72,.63-1.37,.91,.61,.27,1.05,.57,1.33,.89,.36,.43,.55,1.01,.55,1.74,0,.95-.38,1.77-1.14,2.46-.73,.67-1.55,1-2.48,1-1.38,0-2.4-.25-3.06-.74-.62-.46-.92-1.14-.92-2.02,0-.53,.12-.92,.37-1.15,.21-.2,.53-.3,.95-.3,.44,0,.79,.11,1.05,.32,.25,.21,.38,.52,.38,.93s-.08,.69-.24,.88c-.21,.25-.58,.37-1.11,.37-.12,0-.18,.04-.18,.12,0,.16,.18,.35,.53,.55,.4,.24,.83,.35,1.3,.35,.58,0,1.11-.26,1.59-.77,.53-.56,.8-1.22,.8-1.98,0-.59-.25-1.09-.74-1.5-.36-.29-.92-.58-1.69-.86-.09-.04-.17-.06-.23-.07-.06-.01-.1-.02-.12-.02h-.19v-.44Z"/>
    <path d="M74.72,126.58c-.11,.15-.39,.56-.82,1.22-.46,.7-.91,1.4-1.37,2.1h3.22v-3.92l2.66-2.27v6.19h1.16v.53h-1.13s-.02,.17-.02,.37,.01,.44,.03,.71c.02,.27,.06,.48,.1,.62,.04,.14,.22,.29,.53,.45,.25,.13,.42,.19,.49,.19v.5h-5v-.5c.1,0,.28-.06,.54-.18,.32-.15,.5-.29,.53-.43,.03-.14,.06-.37,.08-.71,.02-.34,.03-.6,.03-.78v-.24h-4.23s0-.12-.01-.23c0-.11-.01-.18-.01-.21,0-.05,0-.09,.02-.1,1.03-.73,1.83-1.83,2.4-3.3,.39-1,.68-2.2,.87-3.61,.17-1.24,.26-1.87,.28-1.9h3.01c-.41,.7-.82,1.4-1.22,2.1-.44,.75-.82,1.38-1.13,1.89-.4,.63-.73,1.13-1.01,1.5Z"/>
    <path d="M73.97,114.97h.35c.08-.04,.15-.06,.19-.08,.76-.28,1.32-.56,1.68-.85,.5-.41,.75-.91,.75-1.51,0-.77-.26-1.44-.79-1.98-.49-.51-1.02-.77-1.6-.77-.46,0-.9,.12-1.3,.35-.35,.21-.53,.39-.53,.55,0,.08,.06,.12,.18,.12,.53,0,.89,.12,1.1,.37,.17,.2,.25,.49,.25,.88,0,.41-.12,.72-.37,.93-.25,.21-.6,.32-1.05,.32-.42,0-.74-.1-.95-.29-.25-.23-.37-.62-.37-1.16,0-.88,.3-1.56,.91-2.01,.66-.5,1.68-.75,3.07-.75,.92,0,1.75,.33,2.48,.99,.76,.69,1.14,1.52,1.14,2.47,0,.74-.17,1.31-.5,1.72-.26,.32-.72,.63-1.37,.91,.61,.27,1.05,.57,1.33,.89,.36,.43,.55,1.01,.55,1.74,0,.95-.38,1.77-1.14,2.46-.73,.67-1.55,1-2.48,1-1.38,0-2.4-.25-3.06-.74-.62-.46-.92-1.14-.92-2.02,0-.53,.12-.92,.37-1.15,.21-.2,.53-.3,.95-.3,.44,0,.79,.11,1.05,.32,.25,.21,.38,.52,.38,.93s-.08,.69-.24,.88c-.21,.25-.58,.37-1.11,.37-.12,0-.18,.04-.18,.12,0,.16,.18,.35,.53,.55,.4,.24,.83,.35,1.3,.35,.58,0,1.11-.26,1.59-.77,.53-.56,.8-1.22,.8-1.98,0-.59-.25-1.09-.74-1.5-.36-.29-.92-.58-1.69-.86-.09-.04-.17-.06-.23-.07-.06-.01-.1-.02-.12-.02h-.19v-.44Z"/>
    <path class="cls-2" d="M200.25,38.19v24m0,47v24m117.5-95v24m0,47v24m121.75-95v24m0,47v24m112-95v24m0,47v24M98.27,73.69v-23.5m-8.02,24h10m-10-6h10"/>
    <path d="M92.27,76.51c-.19-.2-.32-.42-.4-.67-.08-.26-.12-.52-.12-.8,0-.59,.21-1.19,.64-1.8,.41-.58,.91-1.04,1.52-1.38,.37-.21,.74-.37,1.13-.49,.38-.12,.76-.17,1.13-.17s.7,.06,1.02,.19c.32,.12,.62,.32,.89,.58,.44,.42,.66,.9,.66,1.44,0,.6-.22,1.21-.66,1.82-.44,.62-.97,1.1-1.61,1.46-.37,.21-.74,.37-1.12,.49-.38,.12-.75,.17-1.12,.17-.39,0-.75-.07-1.08-.2-.33-.13-.63-.34-.9-.64Z"/>
    <line class="cls-2" x1="134.27" y1="64.69" x2="134.27" y2="44.19"/>
    <path d="M128.27,67.51c-.19-.2-.32-.42-.4-.67-.08-.26-.12-.52-.12-.8,0-.59,.21-1.19,.64-1.8,.41-.58,.91-1.04,1.52-1.38,.37-.21,.74-.37,1.13-.49,.38-.12,.76-.17,1.13-.17s.7,.06,1.02,.19c.32,.12,.62,.32,.89,.58,.44,.42,.66,.9,.66,1.44,0,.6-.22,1.21-.66,1.82-.44,.62-.97,1.1-1.61,1.46-.37,.21-.74,.37-1.12,.49-.38,.12-.75,.17-1.12,.17-.39,0-.75-.07-1.08-.2-.33-.13-.63-.34-.9-.64Z"/>
    <line class="cls-2" x1="170.52" y1="58.69" x2="170.52" y2="38.19"/>
    <path d="M164.52,61.51c-.19-.2-.32-.42-.4-.67-.08-.26-.12-.52-.12-.8,0-.59,.21-1.19,.64-1.8,.41-.58,.91-1.04,1.52-1.38,.37-.21,.74-.37,1.13-.49,.38-.12,.76-.17,1.13-.17s.7,.06,1.02,.19c.32,.12,.62,.32,.89,.58,.44,.42,.66,.9,.66,1.44,0,.6-.22,1.21-.66,1.82-.44,.62-.97,1.1-1.61,1.46-.37,.21-.74,.37-1.12,.49-.38,.12-.75,.17-1.12,.17-.39,0-.75-.07-1.08-.2-.33-.13-.63-.34-.9-.64Z"/>
    <path class="cls-2" d="M98.27,141.69v-41.5m-8.02,39h10"/>
    <path d="M92.27,144.51c-.19-.2-.32-.42-.4-.67-.08-.26-.12-.52-.12-.8,0-.59,.21-1.19,.64-1.8,.41-.58,.91-1.04,1.52-1.38,.37-.21,.74-.37,1.13-.49,.38-.12,.76-.17,1.13-.17s.7,.06,1.02,.19c.32,.12,.62,.32,.89,.58,.44,.42,.66,.9,.66,1.44,0,.6-.22,1.21-.66,1.82-.44,.62-.97,1.1-1.61,1.46-.37,.21-.74,.37-1.12,.49-.38,.12-.75,.17-1.12,.17-.39,0-.75-.07-1.08-.2-.33-.13-.63-.34-.9-.64Z"/>
    <path d="M92.27,117.51c-.19-.2-.32-.42-.4-.67-.08-.26-.12-.52-.12-.8,0-.59,.21-1.19,.64-1.8,.41-.58,.91-1.04,1.52-1.38,.37-.21,.74-.37,1.13-.49,.38-.12,.76-.17,1.13-.17s.7,.06,1.02,.19c.32,.12,.62,.32,.89,.58,.44,.42,.66,.9,.66,1.44,0,.6-.22,1.21-.66,1.82-.44,.62-.97,1.1-1.61,1.46-.37,.21-.74,.37-1.12,.49-.38,.12-.75,.17-1.12,.17-.39,0-.75-.07-1.08-.2-.33-.13-.63-.34-.9-.64Z"/>
    <path d="M92.27,123.51c-.19-.2-.32-.42-.4-.67-.08-.26-.12-.52-.12-.8,0-.59,.21-1.19,.64-1.8,.41-.58,.91-1.04,1.52-1.38,.37-.21,.74-.37,1.13-.49,.38-.12,.76-.17,1.13-.17s.7,.06,1.02,.19c.32,.12,.62,.32,.89,.58,.44,.42,.66,.9,.66,1.44,0,.6-.22,1.21-.66,1.82-.44,.62-.97,1.1-1.61,1.46-.37,.21-.74,.37-1.12,.49-.38,.12-.75,.17-1.12,.17-.39,0-.75-.07-1.08-.2-.33-.13-.63-.34-.9-.64Z"/>
    <line class="cls-2" x1="127.98" y1="109.69" x2="127.98" y2="136.19"/>
    <path d="M128.27,111.51c-.19-.2-.32-.42-.4-.67-.08-.26-.12-.52-.12-.8,0-.59,.21-1.19,.64-1.8,.41-.58,.91-1.04,1.52-1.38,.37-.21,.74-.37,1.13-.49,.38-.12,.76-.17,1.13-.17s.7,.06,1.02,.19c.32,.12,.62,.32,.89,.58,.44,.42,.66,.9,.66,1.44,0,.6-.22,1.21-.66,1.82-.44,.62-.97,1.1-1.61,1.46-.37,.21-.74,.37-1.12,.49-.38,.12-.75,.17-1.12,.17-.39,0-.75-.07-1.08-.2-.33-.13-.63-.34-.9-.64Z"/>
    <path d="M128.27,117.51c-.19-.2-.32-.42-.4-.67-.08-.26-.12-.52-.12-.8,0-.59,.21-1.19,.64-1.8,.41-.58,.91-1.04,1.52-1.38,.37-.21,.74-.37,1.13-.49,.38-.12,.76-.17,1.13-.17s.7,.06,1.02,.19c.32,.12,.62,.32,.89,.58,.44,.42,.66,.9,.66,1.44,0,.6-.22,1.21-.66,1.82-.44,.62-.97,1.1-1.61,1.46-.37,.21-.74,.37-1.12,.49-.38,.12-.75,.17-1.12,.17-.39,0-.75-.07-1.08-.2-.33-.13-.63-.34-.9-.64Z"/>
    <path class="cls-2" d="M164.23,100.69v35.5m-1.73-33h10"/>
    <path d="M164.52,102.51c-.19-.2-.32-.42-.4-.67-.08-.26-.12-.52-.12-.8,0-.59,.21-1.19,.64-1.8,.41-.58,.91-1.04,1.52-1.38,.37-.21,.74-.37,1.13-.49,.38-.12,.76-.17,1.13-.17s.7,.06,1.02,.19c.32,.12,.62,.32,.89,.58,.44,.42,.66,.9,.66,1.44,0,.6-.22,1.21-.66,1.82-.44,.62-.97,1.1-1.61,1.46-.37,.21-.74,.37-1.12,.49-.38,.12-.75,.17-1.12,.17-.39,0-.75-.07-1.08-.2-.33-.13-.63-.34-.9-.64Z"/>
    <path d="M164.52,117.51c-.19-.2-.32-.42-.4-.67-.08-.26-.12-.52-.12-.8,0-.59,.21-1.19,.64-1.8,.41-.58,.91-1.04,1.52-1.38,.37-.21,.74-.37,1.13-.49,.38-.12,.76-.17,1.13-.17s.7,.06,1.02,.19c.32,.12,.62,.32,.89,.58,.44,.42,.66,.9,.66,1.44,0,.6-.22,1.21-.66,1.82-.44,.62-.97,1.1-1.61,1.46-.37,.21-.74,.37-1.12,.49-.38,.12-.75,.17-1.12,.17-.39,0-.75-.07-1.08-.2-.33-.13-.63-.34-.9-.64Z"/>
    <path d="M164.52,111.51c-.19-.2-.32-.42-.4-.67-.08-.26-.12-.52-.12-.8,0-.59,.21-1.19,.64-1.8,.41-.58,.91-1.04,1.52-1.38,.37-.21,.74-.37,1.13-.49,.38-.12,.76-.17,1.13-.17s.7,.06,1.02,.19c.32,.12,.62,.32,.89,.58,.44,.42,.66,.9,.66,1.44,0,.6-.22,1.21-.66,1.82-.44,.62-.97,1.1-1.61,1.46-.37,.21-.74,.37-1.12,.49-.38,.12-.75,.17-1.12,.17-.39,0-.75-.07-1.08-.2-.33-.13-.63-.34-.9-.64Z"/>
    <line class="cls-2" x1="215.77" y1="55.69" x2="215.77" y2="35.19"/>
    <path d="M209.79,58.51c-.19-.2-.33-.41-.41-.66-.09-.24-.13-.5-.13-.77,0-.6,.21-1.21,.64-1.82,.41-.58,.92-1.05,1.54-1.41,.38-.21,.75-.37,1.13-.49,.38-.12,.75-.17,1.12-.17s.71,.06,1.04,.19c.33,.12,.63,.32,.89,.58,.43,.41,.64,.87,.64,1.4,0,.6-.22,1.22-.65,1.85-.44,.63-.97,1.12-1.59,1.49-.37,.21-.74,.37-1.12,.49-.38,.12-.75,.17-1.12,.17-.39,0-.75-.07-1.08-.2-.33-.13-.63-.34-.9-.64Zm3.73-1.02c.49-.36,.93-.85,1.32-1.46s.6-1.13,.6-1.54c0-.17-.04-.31-.12-.42-.08-.11-.23-.16-.45-.16-.37,0-.85,.13-1.45,.38-.53,.23-1.01,.48-1.43,.77-.52,.35-.99,.81-1.4,1.37-.43,.59-.65,1.07-.65,1.46,0,.16,.05,.3,.15,.39,.15,.15,.39,.23,.72,.23,.41,0,.87-.1,1.39-.3,.51-.2,.96-.44,1.33-.71Z"/>
    <path d="M217.5,57.69c2,4.5,60.5,4.5,62.5,0-2,3-60.5,3-62.5,0"/>
    <path d="M282.02,58.51c-.19-.2-.32-.42-.4-.67-.08-.26-.12-.52-.12-.8,0-.59,.21-1.19,.64-1.8,.41-.58,.91-1.04,1.52-1.38,.37-.21,.74-.37,1.13-.49,.38-.12,.76-.17,1.13-.17s.7,.06,1.02,.19c.32,.12,.62,.32,.89,.58,.44,.42,.66,.9,.66,1.44,0,.6-.22,1.21-.66,1.82-.44,.62-.97,1.1-1.61,1.46-.37,.21-.74,.37-1.12,.49-.38,.12-.75,.17-1.12,.17-.39,0-.75-.07-1.08-.2-.33-.13-.63-.34-.9-.64Z"/>
    <path d="M291.77,51.78c.25,0,.46,.09,.65,.27,.18,.18,.27,.39,.27,.64s-.09,.46-.27,.64c-.18,.18-.4,.27-.65,.27-.27,0-.5-.09-.7-.26-.19-.18-.29-.39-.29-.64s.1-.47,.29-.64c.19-.18,.43-.26,.7-.26Z"/>
    <line class="cls-2" x1="288.02" y1="55.69" x2="288.02" y2="35.44"/>
    <path d="M309.02,61.51c-.19-.2-.32-.42-.4-.67-.08-.26-.12-.52-.12-.8,0-.59,.21-1.19,.64-1.8,.4-.58,.91-1.04,1.52-1.38,.37-.21,.74-.37,1.13-.49,.38-.12,.76-.17,1.13-.17s.7,.06,1.02,.19c.32,.12,.62,.32,.89,.58,.44,.42,.66,.9,.66,1.44,0,.6-.22,1.21-.66,1.82-.44,.62-.97,1.1-1.61,1.46-.37,.21-.74,.37-1.12,.49-.38,.12-.75,.17-1.12,.17-.39,0-.75-.07-1.08-.2-.33-.13-.62-.34-.9-.64Z"/>
    <line class="cls-2" x1="315.02" y1="58.69" x2="315.02" y2="38.44"/>
    <polygon points="288.25 35.44 315.25 38.44 315.25 41.44 288.25 38.44 288.25 35.44"/>
    <polygon points="310.25 42.44 315.25 42.94 315.25 45.94 310.25 45.44 310.25 42.44"/>
    <path class="cls-2" d="M209.48,97.69v59.5m-1.73-54h10m-10-6h10"/>
    <path d="M209.77,99.51c-.19-.2-.32-.42-.4-.67-.08-.26-.12-.52-.12-.8,0-.59,.21-1.19,.64-1.8,.41-.58,.91-1.04,1.52-1.38,.37-.21,.74-.37,1.13-.49,.38-.12,.76-.17,1.13-.17s.7,.06,1.02,.19c.32,.12,.62,.32,.89,.58,.44,.42,.66,.9,.66,1.44,0,.6-.22,1.21-.66,1.82-.44,.62-.97,1.1-1.61,1.46-.37,.21-.74,.37-1.12,.49-.38,.12-.75,.17-1.12,.17-.39,0-.75-.07-1.08-.2-.33-.13-.63-.34-.9-.64Z"/>
    <line class="cls-2" x1="207.75" y1="139.19" x2="217.75" y2="139.19"/>
    <path d="M209.77,144.51c-.19-.2-.32-.42-.4-.67-.08-.26-.12-.52-.12-.8,0-.59,.21-1.19,.64-1.8,.41-.58,.91-1.04,1.52-1.38,.37-.21,.74-.37,1.13-.49,.38-.12,.76-.17,1.13-.17s.7,.06,1.02,.19c.32,.12,.62,.32,.89,.58,.44,.42,.66,.9,.66,1.44,0,.6-.22,1.21-.66,1.82-.44,.62-.97,1.1-1.61,1.46-.37,.21-.74,.37-1.12,.49-.38,.12-.75,.17-1.12,.17-.39,0-.75-.07-1.08-.2-.33-.13-.63-.34-.9-.64Z"/>
    <line class="cls-2" x1="207.75" y1="103.19" x2="217.75" y2="103.19"/>
    <path d="M209.77,105.51c-.19-.2-.32-.42-.4-.67-.08-.26-.12-.52-.12-.8,0-.59,.21-1.19,.64-1.8,.41-.58,.91-1.04,1.52-1.38,.37-.21,.74-.37,1.13-.49,.38-.12,.76-.17,1.13-.17s.7,.06,1.02,.19c.32,.12,.62,.32,.89,.58,.44,.42,.66,.9,.66,1.44,0,.6-.22,1.21-.66,1.82-.44,.62-.97,1.1-1.61,1.46-.37,.21-.74,.37-1.12,.49-.38,.12-.75,.17-1.12,.17-.39,0-.75-.07-1.08-.2-.33-.13-.63-.34-.9-.64Z"/>
    <path d="M209.77,123.51c-.19-.2-.32-.42-.4-.67-.08-.26-.12-.52-.12-.8,0-.59,.21-1.19,.64-1.8,.41-.58,.91-1.04,1.52-1.38,.37-.21,.74-.37,1.13-.49,.38-.12,.76-.17,1.13-.17s.7,.06,1.02,.19c.32,.12,.62,.32,.89,.58,.44,.42,.66,.9,.66,1.44,0,.6-.22,1.21-.66,1.82-.44,.62-.97,1.1-1.61,1.46-.37,.21-.74,.37-1.12,.49-.38,.12-.75,.17-1.12,.17-.39,0-.75-.07-1.08-.2-.33-.13-.63-.34-.9-.64Z"/>
    <path d="M203.02,108.51c-.19-.2-.32-.42-.4-.67-.08-.26-.12-.52-.12-.8,0-.59,.21-1.19,.64-1.8,.41-.58,.91-1.04,1.52-1.38,.37-.21,.74-.37,1.13-.49,.38-.12,.76-.17,1.13-.17s.7,.06,1.02,.19c.32,.12,.62,.32,.89,.58,.44,.42,.66,.9,.66,1.44,0,.6-.22,1.21-.66,1.82-.44,.62-.97,1.1-1.61,1.46-.37,.21-.74,.37-1.12,.49-.38,.12-.75,.17-1.12,.17-.39,0-.75-.07-1.08-.2-.33-.13-.63-.34-.9-.64Z"/>
    <path d="M209.77,114.51c-.19-.2-.32-.42-.4-.67-.08-.26-.12-.52-.12-.8,0-.59,.21-1.19,.64-1.8,.41-.58,.91-1.04,1.52-1.38,.37-.21,.74-.37,1.13-.49,.38-.12,.76-.17,1.13-.17s.7,.06,1.02,.19c.32,.12,.62,.32,.89,.58,.44,.42,.66,.9,.66,1.44,0,.6-.22,1.21-.66,1.82-.44,.62-.97,1.1-1.61,1.46-.37,.21-.74,.37-1.12,.49-.38,.12-.75,.17-1.12,.17-.39,0-.75-.07-1.08-.2-.33-.13-.63-.34-.9-.64Z"/>
    <path d="M196,94.53v9.56c.35-.21,.64-.36,.87-.45,.68-.3,1.29-.45,1.83-.45,.41,0,.76,.09,1.03,.27,.32,.22,.56,.56,.71,1.02,.07,.22,.1,.45,.1,.68,0,.75-.37,1.52-1.11,2.31-.55,.58-1.19,1.08-1.91,1.48-.2,.11-.49,.34-.88,.69-.44,.4-.89,.81-1.32,1.22v-16.34h.69Zm0,10.21v4.76s.3-.2,.78-.7c.54-.56,1-1.13,1.36-1.7,.49-.76,.73-1.4,.73-1.91,0-.25-.05-.48-.15-.66-.1-.19-.28-.35-.52-.5-.07-.04-.14-.07-.21-.09-.07-.02-.16-.03-.26-.03-.22,0-.45,.05-.69,.16-.32,.14-.66,.36-1.04,.68Z"/>
    <path class="cls-2" d="M245.48,97.69v35.5m-1.73-30h10m-10-6h10"/>
    <path d="M245.77,99.51c-.19-.2-.32-.42-.4-.67-.08-.26-.12-.52-.12-.8,0-.59,.21-1.19,.64-1.8,.41-.58,.91-1.04,1.52-1.38,.37-.21,.74-.37,1.13-.49,.38-.12,.76-.17,1.13-.17s.7,.06,1.02,.19c.32,.12,.62,.32,.89,.58,.44,.42,.66,.9,.66,1.44,0,.6-.22,1.21-.66,1.82-.44,.62-.97,1.1-1.61,1.46-.37,.21-.74,.37-1.12,.49-.38,.12-.75,.17-1.12,.17-.39,0-.75-.07-1.08-.2-.33-.13-.63-.34-.9-.64Z"/>
    <path d="M245.77,114.51c-.19-.2-.32-.42-.4-.67-.08-.26-.12-.52-.12-.8,0-.59,.21-1.19,.64-1.8,.41-.58,.91-1.04,1.52-1.38,.37-.21,.74-.37,1.13-.49,.38-.12,.76-.17,1.13-.17s.7,.06,1.02,.19c.32,.12,.62,.32,.89,.58,.44,.42,.66,.9,.66,1.44,0,.6-.22,1.21-.66,1.82-.44,.62-.97,1.1-1.61,1.46-.37,.21-.74,.37-1.12,.49-.38,.12-.75,.17-1.12,.17-.39,0-.75-.07-1.08-.2-.33-.13-.63-.34-.9-.64Z"/>
    <line class="cls-2" x1="243.75" y1="103.19" x2="253.75" y2="103.19"/>
    <path d="M245.77,105.51c-.19-.2-.32-.42-.4-.67-.08-.26-.12-.52-.12-.8,0-.59,.21-1.19,.64-1.8,.41-.58,.91-1.04,1.52-1.38,.37-.21,.74-.37,1.13-.49,.38-.12,.76-.17,1.13-.17s.7,.06,1.02,.19c.32,.12,.62,.32,.89,.58,.44,.42,.66,.9,.66,1.44,0,.6-.22,1.21-.66,1.82-.44,.62-.97,1.1-1.61,1.46-.37,.21-.74,.37-1.12,.49-.38,.12-.75,.17-1.12,.17-.39,0-.75-.07-1.08-.2-.33-.13-.63-.34-.9-.64Z"/>
    <path d="M239.02,108.51c-.19-.2-.32-.42-.4-.67-.08-.26-.12-.52-.12-.8,0-.59,.21-1.19,.64-1.8,.41-.58,.91-1.04,1.52-1.38,.37-.21,.74-.37,1.13-.49,.38-.12,.76-.17,1.13-.17s.7,.06,1.02,.19c.32,.12,.62,.32,.89,.58,.44,.42,.66,.9,.66,1.44,0,.6-.22,1.21-.66,1.82-.44,.62-.97,1.1-1.61,1.46-.37,.21-.74,.37-1.12,.49-.38,.12-.75,.17-1.12,.17-.39,0-.75-.07-1.08-.2-.33-.13-.63-.34-.9-.64Z"/>
    <path class="cls-2" d="M281.73,97.69v35.5m-1.73-30h10m-10-6h10"/>
    <path d="M282.02,99.51c-.19-.2-.32-.42-.4-.67-.08-.26-.12-.52-.12-.8,0-.59,.21-1.19,.64-1.8,.41-.58,.91-1.04,1.52-1.38,.37-.21,.74-.37,1.13-.49,.38-.12,.76-.17,1.13-.17s.7,.06,1.02,.19c.32,.12,.62,.32,.89,.58,.44,.42,.66,.9,.66,1.44,0,.6-.22,1.21-.66,1.82-.44,.62-.97,1.1-1.61,1.46-.37,.21-.74,.37-1.12,.49-.38,.12-.75,.17-1.12,.17-.39,0-.75-.07-1.08-.2-.33-.13-.63-.34-.9-.64Z"/>
    <path d="M282.02,114.51c-.19-.2-.32-.42-.4-.67-.08-.26-.12-.52-.12-.8,0-.59,.21-1.19,.64-1.8,.41-.58,.91-1.04,1.52-1.38,.37-.21,.74-.37,1.13-.49,.38-.12,.76-.17,1.13-.17s.7,.06,1.02,.19c.32,.12,.62,.32,.89,.58,.44,.42,.66,.9,.66,1.44,0,.6-.22,1.21-.66,1.82-.44,.62-.97,1.1-1.61,1.46-.37,.21-.74,.37-1.12,.49-.38,.12-.75,.17-1.12,.17-.39,0-.75-.07-1.08-.2-.33-.13-.63-.34-.9-.64Z"/>
    <line class="cls-2" x1="280" y1="103.19" x2="290" y2="103.19"/>
    <path d="M282.02,105.51c-.19-.2-.32-.42-.4-.67-.08-.26-.12-.52-.12-.8,0-.59,.21-1.19,.64-1.8,.41-.58,.91-1.04,1.52-1.38,.37-.21,.74-.37,1.13-.49,.38-.12,.76-.17,1.13-.17s.7,.06,1.02,.19c.32,.12,.62,.32,.89,.58,.44,.42,.66,.9,.66,1.44,0,.6-.22,1.21-.66,1.82-.44,.62-.97,1.1-1.61,1.46-.37,.21-.74,.37-1.12,.49-.38,.12-.75,.17-1.12,.17-.39,0-.75-.07-1.08-.2-.33-.13-.63-.34-.9-.64Z"/>
    <path d="M275.27,108.51c-.19-.2-.32-.42-.4-.67-.08-.26-.12-.52-.12-.8,0-.59,.21-1.19,.64-1.8,.41-.58,.91-1.04,1.52-1.38,.37-.21,.74-.37,1.13-.49,.38-.12,.76-.17,1.13-.17s.7,.06,1.02,.19c.32,.12,.62,.32,.89,.58,.44,.42,.66,.9,.66,1.44,0,.6-.22,1.21-.66,1.82-.44,.62-.97,1.1-1.61,1.46-.37,.21-.74,.37-1.12,.49-.38,.12-.75,.17-1.12,.17-.39,0-.75-.07-1.08-.2-.33-.13-.63-.34-.9-.64Z"/>
    <line class="cls-2" x1="333.27" y1="58.69" x2="333.27" y2="38.19"/>
    <path d="M327.29,61.51c-.19-.2-.33-.41-.41-.66-.09-.24-.13-.5-.13-.77,0-.6,.21-1.21,.64-1.82,.41-.58,.92-1.05,1.55-1.41,.38-.21,.75-.37,1.13-.49,.37-.12,.75-.17,1.12-.17s.71,.06,1.04,.19c.33,.12,.63,.32,.89,.58,.43,.41,.64,.87,.64,1.4,0,.6-.22,1.22-.65,1.85-.44,.63-.96,1.12-1.59,1.49-.37,.21-.74,.37-1.12,.49-.38,.12-.75,.17-1.12,.17-.39,0-.75-.07-1.08-.2-.33-.13-.63-.34-.9-.64Zm3.73-1.02c.49-.36,.93-.85,1.32-1.46s.6-1.13,.6-1.54c0-.17-.04-.31-.12-.42-.08-.11-.23-.16-.45-.16-.37,0-.85,.13-1.45,.38-.53,.23-1.01,.48-1.42,.77-.52,.35-.99,.81-1.4,1.37-.43,.59-.65,1.07-.65,1.46,0,.16,.05,.3,.15,.39,.15,.15,.39,.23,.72,.23,.41,0,.87-.1,1.39-.3,.51-.2,.96-.44,1.33-.71Z"/>
    <path d="M335,60.69c2,4.5,110,4.5,112,0-2,3-110,3-112,0"/>
    <path d="M337.02,57.78c.25,0,.46,.09,.65,.27,.18,.18,.27,.39,.27,.64s-.09,.46-.27,.64c-.18,.18-.4,.27-.65,.27-.27,0-.5-.09-.7-.26-.19-.18-.29-.39-.29-.64s.1-.47,.29-.64c.19-.18,.43-.26,.7-.26Z"/>
    <path class="cls-2" d="M333.27,141.69v-41.5m-8.02,39h10"/>
    <path d="M327.27,144.51c-.19-.2-.32-.42-.4-.67-.08-.26-.12-.52-.12-.8,0-.59,.21-1.19,.64-1.8,.4-.58,.91-1.04,1.52-1.38,.37-.21,.74-.37,1.13-.49,.38-.12,.76-.17,1.13-.17s.7,.06,1.02,.19c.32,.12,.62,.32,.89,.58,.44,.42,.66,.9,.66,1.44,0,.6-.22,1.21-.66,1.82-.44,.62-.97,1.1-1.61,1.46-.37,.21-.74,.37-1.12,.49-.38,.12-.75,.17-1.12,.17-.39,0-.75-.07-1.08-.2-.33-.13-.62-.34-.9-.64Z"/>
    <path d="M327.27,123.51c-.19-.2-.32-.42-.4-.67-.08-.26-.12-.52-.12-.8,0-.59,.21-1.19,.64-1.8,.4-.58,.91-1.04,1.52-1.38,.37-.21,.74-.37,1.13-.49,.38-.12,.76-.17,1.13-.17s.7,.06,1.02,.19c.32,.12,.62,.32,.89,.58,.44,.42,.66,.9,.66,1.44,0,.6-.22,1.21-.66,1.82-.44,.62-.97,1.1-1.61,1.46-.37,.21-.74,.37-1.12,.49-.38,.12-.75,.17-1.12,.17-.39,0-.75-.07-1.08-.2-.33-.13-.62-.34-.9-.64Z"/>
    <path class="cls-2" d="M364.48,100.69v35.5m-1.73-33h10"/>
    <path d="M364.77,102.51c-.19-.2-.32-.42-.4-.67-.08-.26-.12-.52-.12-.8,0-.59,.21-1.19,.64-1.8,.4-.58,.91-1.04,1.52-1.38,.37-.21,.74-.37,1.13-.49,.38-.12,.76-.17,1.13-.17s.7,.06,1.02,.19c.32,.12,.62,.32,.89,.58,.44,.42,.66,.9,.66,1.44,0,.6-.22,1.21-.66,1.82-.44,.62-.97,1.1-1.61,1.46-.37,.21-.74,.37-1.12,.49-.38,.12-.75,.17-1.12,.17-.39,0-.75-.07-1.08-.2-.33-.13-.62-.34-.9-.64Z"/>
    <path d="M364.77,117.51c-.19-.2-.32-.42-.4-.67-.08-.26-.12-.52-.12-.8,0-.59,.21-1.19,.64-1.8,.4-.58,.91-1.04,1.52-1.38,.37-.21,.74-.37,1.13-.49,.38-.12,.76-.17,1.13-.17s.7,.06,1.02,.19c.32,.12,.62,.32,.89,.58,.44,.42,.66,.9,.66,1.44,0,.6-.22,1.21-.66,1.82-.44,.62-.97,1.1-1.61,1.46-.37,.21-.74,.37-1.12,.49-.38,.12-.75,.17-1.12,.17-.39,0-.75-.07-1.08-.2-.33-.13-.62-.34-.9-.64Z"/>
    <path d="M364.77,111.51c-.19-.2-.32-.42-.4-.67-.08-.26-.12-.52-.12-.8,0-.59,.21-1.19,.64-1.8,.4-.58,.91-1.04,1.52-1.38,.37-.21,.74-.37,1.13-.49,.38-.12,.76-.17,1.13-.17s.7,.06,1.02,.19c.32,.12,.62,.32,.89,.58,.44,.42,.66,.9,.66,1.44,0,.6-.22,1.21-.66,1.82-.44,.62-.97,1.1-1.61,1.46-.37,.21-.74,.37-1.12,.49-.38,.12-.75,.17-1.12,.17-.39,0-.75-.07-1.08-.2-.33-.13-.62-.34-.9-.64Z"/>
    <path class="cls-2" d="M401.98,100.69v35.5m-1.73-33h10"/>
    <path d="M402.27,102.51c-.19-.2-.32-.42-.4-.67-.08-.26-.12-.52-.12-.8,0-.59,.21-1.19,.64-1.8,.4-.58,.91-1.04,1.52-1.38,.37-.21,.74-.37,1.13-.49,.38-.12,.76-.17,1.13-.17s.7,.06,1.02,.19c.32,.12,.62,.32,.89,.58,.44,.42,.66,.9,.66,1.44,0,.6-.22,1.21-.66,1.82-.44,.62-.97,1.1-1.61,1.46-.37,.21-.74,.37-1.12,.49-.38,.12-.75,.17-1.12,.17-.39,0-.75-.07-1.08-.2-.33-.13-.62-.34-.9-.64Z"/>
    <path d="M402.27,117.51c-.19-.2-.32-.42-.4-.67-.08-.26-.12-.52-.12-.8,0-.59,.21-1.19,.64-1.8,.4-.58,.91-1.04,1.52-1.38,.37-.21,.74-.37,1.13-.49,.38-.12,.76-.17,1.13-.17s.7,.06,1.02,.19c.32,.12,.62,.32,.89,.58,.44,.42,.66,.9,.66,1.44,0,.6-.22,1.21-.66,1.82-.44,.62-.97,1.1-1.61,1.46-.37,.21-.74,.37-1.12,.49-.38,.12-.75,.17-1.12,.17-.39,0-.75-.07-1.08-.2-.33-.13-.62-.34-.9-.64Z"/>
    <path d="M402.27,111.51c-.19-.2-.32-.42-.4-.67-.08-.26-.12-.52-.12-.8,0-.59,.21-1.19,.64-1.8,.4-.58,.91-1.04,1.52-1.38,.37-.21,.74-.37,1.13-.49,.38-.12,.76-.17,1.13-.17s.7,.06,1.02,.19c.32,.12,.62,.32,.89,.58,.44,.42,.66,.9,.66,1.44,0,.6-.22,1.21-.66,1.82-.44,.62-.97,1.1-1.61,1.46-.37,.21-.74,.37-1.12,.49-.38,.12-.75,.17-1.12,.17-.39,0-.75-.07-1.08-.2-.33-.13-.62-.34-.9-.64Z"/>
    <line class="cls-2" x1="455.02" y1="58.69" x2="455.02" y2="38.19"/>
    <g>
      <path d="M449.04,61.51c-.19-.2-.33-.41-.41-.66-.09-.24-.13-.5-.13-.77,0-.6,.21-1.21,.64-1.82,.41-.58,.92-1.05,1.55-1.41,.38-.21,.75-.37,1.13-.49,.37-.12,.75-.17,1.12-.17s.71,.06,1.04,.19c.33,.12,.63,.32,.89,.58,.43,.41,.64,.87,.64,1.4,0,.6-.22,1.22-.65,1.85-.44,.63-.96,1.12-1.59,1.49-.37,.21-.74,.37-1.12,.49-.38,.12-.75,.17-1.12,.17-.39,0-.75-.07-1.08-.2-.33-.13-.63-.34-.9-.64Zm3.73-1.02c.49-.36,.93-.85,1.32-1.46s.6-1.13,.6-1.54c0-.17-.04-.31-.12-.42-.08-.11-.23-.16-.45-.16-.37,0-.85,.13-1.45,.38-.53,.23-1.01,.48-1.42,.77-.52,.35-.99,.81-1.4,1.37-.43,.59-.65,1.07-.65,1.46,0,.16,.05,.3,.15,.39,.15,.15,.39,.23,.72,.23,.41,0,.87-.1,1.39-.3,.51-.2,.96-.44,1.33-.71Z"/>
      <path d="M458.77,57.78c.25,0,.46,.09,.65,.27,.18,.18,.27,.39,.27,.64s-.09,.46-.27,.64c-.18,.18-.4,.27-.65,.27-.27,0-.51-.09-.7-.26-.19-.18-.29-.39-.29-.64s.1-.47,.29-.64c.19-.18,.43-.26,.7-.26Z"/>
    </g>
    <path class="cls-2" d="M455.02,141.69v-41.5m-8.02,39h10"/>
    <path d="M449.02,144.51c-.19-.2-.32-.42-.4-.67-.08-.26-.12-.52-.12-.8,0-.59,.21-1.19,.64-1.8,.4-.58,.91-1.04,1.52-1.38,.37-.21,.74-.37,1.13-.49,.38-.12,.76-.17,1.13-.17s.7,.06,1.02,.19c.32,.12,.62,.32,.89,.58,.44,.42,.66,.9,.66,1.44,0,.6-.22,1.21-.66,1.82-.44,.62-.97,1.1-1.61,1.46-.37,.21-.74,.37-1.12,.49-.38,.12-.75,.17-1.12,.17-.39,0-.75-.07-1.08-.2-.33-.13-.62-.34-.9-.64Z"/>
    <path d="M449.02,123.51c-.19-.2-.32-.42-.4-.67-.08-.26-.12-.52-.12-.8,0-.59,.21-1.19,.64-1.8,.4-.58,.91-1.04,1.52-1.38,.37-.21,.74-.37,1.13-.49,.38-.12,.76-.17,1.13-.17s.7,.06,1.02,.19c.32,.12,.62,.32,.89,.58,.44,.42,.66,.9,.66,1.44,0,.6-.22,1.21-.66,1.82-.44,.62-.97,1.1-1.61,1.46-.37,.21-.74,.37-1.12,.49-.38,.12-.75,.17-1.12,.17-.39,0-.75-.07-1.08-.2-.33-.13-.62-.34-.9-.64Z"/>
    <path class="cls-2" d="M482.98,100.69v35.5m-1.73-33h10"/>
    <path d="M483.27,102.51c-.19-.2-.32-.42-.4-.67-.08-.26-.12-.52-.12-.8,0-.59,.21-1.19,.64-1.8,.4-.58,.91-1.04,1.52-1.38,.37-.21,.74-.37,1.13-.49,.38-.12,.76-.17,1.13-.17s.7,.06,1.02,.19c.32,.12,.62,.32,.89,.58,.44,.42,.66,.9,.66,1.44,0,.6-.22,1.21-.66,1.82-.44,.62-.97,1.1-1.61,1.46-.37,.21-.74,.37-1.12,.49-.38,.12-.75,.17-1.12,.17-.39,0-.75-.07-1.08-.2-.33-.13-.62-.34-.9-.64Z"/>
    <path d="M483.27,117.51c-.19-.2-.32-.42-.4-.67-.08-.26-.12-.52-.12-.8,0-.59,.21-1.19,.64-1.8,.4-.58,.91-1.04,1.52-1.38,.37-.21,.74-.37,1.13-.49,.38-.12,.76-.17,1.13-.17s.7,.06,1.02,.19c.32,.12,.62,.32,.89,.58,.44,.42,.66,.9,.66,1.44,0,.6-.22,1.21-.66,1.82-.44,.62-.97,1.1-1.61,1.46-.37,.21-.74,.37-1.12,.49-.38,.12-.75,.17-1.12,.17-.39,0-.75-.07-1.08-.2-.33-.13-.62-.34-.9-.64Z"/>
    <path d="M483.27,111.51c-.19-.2-.32-.42-.4-.67-.08-.26-.12-.52-.12-.8,0-.59,.21-1.19,.64-1.8,.4-.58,.91-1.04,1.52-1.38,.37-.21,.74-.37,1.13-.49,.38-.12,.76-.17,1.13-.17s.7,.06,1.02,.19c.32,.12,.62,.32,.89,.58,.44,.42,.66,.9,.66,1.44,0,.6-.22,1.21-.66,1.82-.44,.62-.97,1.1-1.61,1.46-.37,.21-.74,.37-1.12,.49-.38,.12-.75,.17-1.12,.17-.39,0-.75-.07-1.08-.2-.33-.13-.62-.34-.9-.64Z"/>
    <path class="cls-2" d="M517.23,100.69v35.5m-1.73-33h10"/>
    <path d="M517.52,102.51c-.19-.2-.32-.42-.4-.67-.08-.26-.12-.52-.12-.8,0-.59,.21-1.19,.64-1.8,.4-.58,.91-1.04,1.52-1.38,.37-.21,.74-.37,1.13-.49,.38-.12,.76-.17,1.13-.17s.7,.06,1.02,.19c.32,.12,.62,.32,.89,.58,.44,.42,.66,.9,.66,1.44,0,.6-.22,1.21-.66,1.82-.44,.62-.97,1.1-1.61,1.46-.37,.21-.74,.37-1.12,.49-.38,.12-.75,.17-1.12,.17-.39,0-.75-.07-1.08-.2-.33-.13-.62-.34-.9-.64Z"/>
    <path d="M517.52,117.51c-.19-.2-.32-.42-.4-.67-.08-.26-.12-.52-.12-.8,0-.59,.21-1.19,.64-1.8,.4-.58,.91-1.04,1.52-1.38,.37-.21,.74-.37,1.13-.49,.38-.12,.76-.17,1.13-.17s.7,.06,1.02,.19c.32,.12,.62,.32,.89,.58,.44,.42,.66,.9,.66,1.44,0,.6-.22,1.21-.66,1.82-.44,.62-.97,1.1-1.61,1.46-.37,.21-.74,.37-1.12,.49-.38,.12-.75,.17-1.12,.17-.39,0-.75-.07-1.08-.2-.33-.13-.62-.34-.9-.64Z"/>
    <path d="M517.52,111.51c-.19-.2-.32-.42-.4-.67-.08-.26-.12-.52-.12-.8,0-.59,.21-1.19,.64-1.8,.4-.58,.91-1.04,1.52-1.38,.37-.21,.74-.37,1.13-.49,.38-.12,.76-.17,1.13-.17s.7,.06,1.02,.19c.32,.12,.62,.32,.89,.58,.44,.42,.66,.9,.66,1.44,0,.6-.22,1.21-.66,1.82-.44,.62-.97,1.1-1.61,1.46-.37,.21-.74,.37-1.12,.49-.38,.12-.75,.17-1.12,.17-.39,0-.75-.07-1.08-.2-.33-.13-.62-.34-.9-.64Z"/>
  </g>
  <rect class="cls-3" width="572.04" height="167.19"/>
  <circle class="cls-1" cx="95.25" cy="25.53" r="3.53"/>
  <circle class="cls-1" cx="130.74" cy="25.53" r="3.53"/>
  <circle class="cls-1" cx="167.5" cy="25.53" r="3.53"/>
  <circle class="cls-1" cx="212.75" cy="25.53" r="3.53"/>
  <circle class="cls-1" cx="285" cy="25.53" r="3.53"/>
  <circle class="cls-1" cx="312" cy="25.53" r="3.53"/>
  <circle class="cls-1" cx="330.19" cy="25.53" r="3.53"/>
  <circle class="cls-1" cx="245.22" cy="83.59" r="3.53"/>
  <circle class="cls-1" cx="365.63" cy="83.59" r="3.53"/>
  <circle class="cls-1" cx="405.25" cy="83.59" r="3.53"/>
  <circle class="cls-1" cx="452.71" cy="83.59" r="3.53"/>
  <circle class="cls-1" cx="486.25" cy="83.59" r="3.53"/>
  <circle class="cls-1" cx="519.03" cy="83.59" r="3.53"/>
</svg>