<?xml version="1.0" encoding="UTF-8"?>
<svg id="_レイヤー_1" data-name="レイヤー 1" xmlns="http://www.w3.org/2000/svg" viewBox="0 0 572.04 162.8">
  <defs>
    <style>
      .cls-1 {
        fill: #231815;
        stroke: #231815;
      }

      .cls-1, .cls-2 {
        stroke-miterlimit: 10;
      }

      .cls-3, .cls-2 {
        fill: none;
      }

      .cls-2 {
        stroke: #000;
        stroke-width: .46px;
      }
    </style>
  </defs>
  <g>
    <path class="cls-2" d="M19.64,27.3H552.4M19.64,33.3H552.4M19.64,39.3H552.4M19.64,45.3H552.4M19.64,51.3H552.4M19.64,109.3H552.4M19.64,115.3H552.4M19.64,121.3H552.4M19.64,127.3H552.4M19.64,133.3H552.4M19.64,27.3v106"/>
    <path d="M37.96,25.94c0,1.01-.09,1.99-.28,2.94-.25,1.25-.64,2.39-1.19,3.4-.67,1.24-1.54,2.3-2.63,3.19l.71,3.72c.45-.07,.88-.1,1.29-.1,1.31,0,2.44,.36,3.38,1.07,.83,.63,1.46,1.49,1.91,2.58,.4,.98,.6,2.03,.6,3.14,0,1.39-.45,2.58-1.36,3.58-.87,.96-2.03,1.6-3.46,1.93l.99,5.51c.02,.1,.03,.2,.03,.31,0,.11,0,.23,0,.37,0,1-.38,1.88-1.14,2.65-.71,.72-1.6,1.2-2.67,1.44-.23,.05-.48,.08-.74,.08-1.04,0-1.97-.43-2.8-1.28-.79-.81-1.18-1.65-1.18-2.52,0-.14,.01-.27,.03-.39,.13-.69,.45-1.25,.95-1.68,.5-.43,1.09-.65,1.78-.65s1.28,.23,1.78,.69c.5,.46,.75,1.03,.75,1.71s-.23,1.32-.7,1.84c-.46,.52-1.05,.78-1.77,.78h-.38c.33,.31,.67,.54,1.02,.7,.35,.16,.7,.24,1.03,.24,.1,0,.23,0,.36-.02,.14-.02,.42-.13,.86-.34,.64-.31,1.15-.69,1.53-1.13,.52-.61,.79-1.32,.79-2.12,0-.23-.01-.47-.03-.73l-.97-5.23c-.4,.09-.77,.14-1.13,.17-.35,.03-.78,.04-1.27,.04-2.26,0-4.23-.84-5.9-2.51-1.67-1.68-2.51-3.68-2.51-6.01,0-1.29,.59-2.87,1.77-4.74,.85-1.35,1.96-2.78,3.35-4.29,1.13-1.23,1.76-1.87,1.91-1.92-.12-.29-.29-.98-.5-2.09-.21-1.11-.36-2-.44-2.67-.03-.23-.05-.51-.05-.83,0-1.58,.35-3.15,1.05-4.72,.76-1.7,1.6-2.56,2.52-2.56,.64,0,1.25,.8,1.85,2.4,.56,1.49,.84,2.86,.84,4.09Zm-4.52,9.98c-.26,.19-.77,.68-1.52,1.49-.75,.81-1.33,1.47-1.73,1.99-.46,.59-.85,1.15-1.16,1.67-.38,.64-.68,1.26-.89,1.88-.24,.7-.36,1.39-.36,2.06,0,.56,.08,1.13,.25,1.69,.12,.4,.41,.89,.86,1.49,.61,.8,1.33,1.46,2.15,1.96,1.06,.65,2.19,.98,3.39,.98,.37,0,.69-.03,.98-.1,.13-.03,.42-.12,.84-.27l-1.81-9.07c-1.18,.16-2.1,.73-2.74,1.71-.51,.77-.76,1.59-.76,2.44,0,.67,.27,1.34,.82,1.99,.44,.52,1,.99,1.69,1.39,.6,.35,1.05,.53,1.34,.53v.25c-.38-.04-.88-.21-1.5-.53-.77-.39-1.42-.86-1.95-1.42-.68-.71-1.11-1.49-1.28-2.34-.08-.35-.11-.72-.11-1.11,0-1.25,.38-2.38,1.15-3.37,.77-.99,1.77-1.64,3-1.94l-.64-3.36Zm2.04-13.56c-.53,0-1.08,.58-1.65,1.75-.53,1.07-.92,2.25-1.15,3.52-.02,.11-.03,.27-.03,.47,0,.56,.05,1.27,.16,2.13,.11,.86,.21,1.43,.31,1.72l.88-.78c.13-.06,.42-.35,.87-.87,.58-.68,1.04-1.38,1.4-2.08,.49-.98,.73-1.91,.73-2.79,0-.13,0-.26-.01-.39,0-.13-.02-.26-.04-.39-.13-.8-.24-1.31-.34-1.53-.23-.51-.6-.77-1.11-.77Zm1.28,28.11c1.02-.24,1.85-.75,2.49-1.54,.64-.78,.96-1.69,.96-2.71,0-.17-.01-.35-.03-.53-.14-1.18-.64-2.16-1.5-2.93-.87-.77-1.86-1.16-2.99-1.16-.08,0-.16,0-.23,0s-.22,.03-.44,.07l1.75,8.79Z"/>
    <path d="M28.54,112.65c.08,.32,.32,.55,.73,.68,.22,.07,.63,.14,1.23,.21,.6,.07,.99,.33,1.18,.79,.1,.24,.15,.63,.15,1.18,0,.58-.28,1.04-.85,1.38-.5,.3-1.1,.45-1.79,.45-.77,0-1.4-.19-1.89-.58-.55-.43-.82-1.04-.82-1.83,0-.72,.14-1.44,.42-2.14,.31-.78,.76-1.49,1.34-2.12,.45-.47,1.05-.82,1.79-1.05,.62-.19,1.34-.28,2.14-.28,.58,0,1.14,.05,1.68,.15,1.53,.28,2.77,1.08,3.73,2.4,.87,1.19,1.31,2.49,1.31,3.87,0,.2-.01,.39-.03,.59-.2,1.75-1.36,3.63-3.48,5.63-1.65,1.56-3.63,3.01-5.94,4.34-2.04,1.17-3.24,1.7-3.6,1.59l-.1-.44c.59-.21,1.2-.48,1.82-.8,.69-.36,1.37-.78,2.04-1.26,1.14-.81,2.04-1.56,2.72-2.25,.79-.81,1.41-1.68,1.86-2.59,.48-.98,.83-2.14,1.04-3.47,.06-.41,.11-.77,.14-1.08,.03-.31,.05-.64,.05-.99,0-.98-.15-1.82-.46-2.5-.33-.74-.86-1.32-1.58-1.76-.3-.19-.62-.32-.94-.41-.33-.09-.65-.13-.96-.13-.5,0-.98,.09-1.44,.28-.4,.16-.73,.36-.98,.6-.35,.33-.53,.7-.53,1.11,0,.13,.02,.28,.06,.45Zm13.73-1c.31,.29,.46,.65,.46,1.08,0,.31-.1,.6-.29,.88-.28,.37-.68,.56-1.18,.56-.38,0-.71-.12-.98-.36-.16-.14-.29-.31-.37-.5-.08-.19-.12-.4-.12-.61,0-.37,.11-.68,.33-.95,.13-.17,.29-.29,.5-.38,.21-.09,.41-.14,.61-.14,.41,0,.76,.14,1.04,.42Zm0,5.19c.31,.29,.46,.65,.46,1.08,0,.31-.1,.6-.29,.88-.28,.38-.68,.56-1.18,.56-.38,0-.71-.12-.98-.36-.16-.14-.29-.31-.37-.5-.08-.19-.12-.4-.12-.61,0-.37,.11-.68,.33-.95,.13-.17,.29-.29,.5-.38,.21-.09,.41-.14,.61-.14,.41,0,.76,.14,1.04,.42Z"/>
    <path d="M53.16,33.36c1.36,0,2.48,.31,3.36,.91,.94,.66,1.41,1.54,1.41,2.66,0,.44-.23,.86-.68,1.25-.42,.36-.81,.54-1.17,.54-.46,0-.87-.12-1.25-.36-.52-.33-.77-.81-.77-1.43,0-.44,.21-.81,.63-1.12,.38-.27,.8-.41,1.26-.41,.3,0,.45-.08,.45-.23,0-.1-.07-.23-.21-.38-.29-.3-.63-.52-1-.67-.38-.15-.77-.22-1.18-.22-.23,0-.46,.02-.69,.07-.73,.15-1.3,.51-1.7,1.09-.35,.5-.59,1.15-.72,1.97-.1,.6-.15,1.37-.15,2.32s.06,1.72,.19,2.39c.17,.87,.43,1.54,.8,2.01,.44,.56,1.02,.84,1.75,.84,.96,0,1.83-.34,2.59-1.03,.8-.72,1.2-1.57,1.2-2.56h.5c0,.29-.09,.71-.27,1.24-.18,.53-.37,.92-.58,1.17-.41,.52-.96,.95-1.62,1.31-.67,.36-1.3,.53-1.9,.53-1.55,0-2.85-.6-3.89-1.81-1.02-1.17-1.52-2.57-1.52-4.19s.48-2.94,1.44-4.1c1-1.2,2.24-1.8,3.73-1.8Z"/>
    <path d="M53.16,115.36c1.36,0,2.48,.31,3.36,.91,.94,.66,1.41,1.54,1.41,2.66,0,.44-.23,.86-.68,1.25-.42,.36-.81,.54-1.17,.54-.46,0-.87-.12-1.25-.36-.52-.33-.77-.81-.77-1.43,0-.44,.21-.81,.63-1.12,.38-.27,.8-.41,1.26-.41,.3,0,.45-.08,.45-.23,0-.1-.07-.23-.21-.38-.29-.3-.63-.52-1-.67-.38-.15-.77-.22-1.18-.22-.23,0-.46,.02-.69,.07-.73,.15-1.3,.51-1.7,1.09-.35,.5-.59,1.15-.72,1.97-.1,.6-.15,1.37-.15,2.32s.06,1.72,.19,2.39c.17,.87,.43,1.54,.8,2.01,.44,.56,1.02,.84,1.75,.84,.96,0,1.83-.34,2.59-1.03,.8-.72,1.2-1.57,1.2-2.56h.5c0,.29-.09,.71-.27,1.24-.18,.53-.37,.92-.58,1.17-.41,.52-.96,.95-1.62,1.31-.67,.36-1.3,.53-1.9,.53-1.55,0-2.85-.6-3.89-1.81-1.02-1.17-1.52-2.57-1.52-4.19s.48-2.94,1.44-4.1c1-1.2,2.24-1.8,3.73-1.8Z"/>
    <path class="cls-2" d="M169.14,27.3v24m0,58v24M289.9,27.3v24m0,58v24M423.15,27.3v24m0,58v24M552.4,27.3v24m0,58v24M76.66,56.8v-20.5m-8.02,21h10"/>
    <path d="M70.66,59.62c-.19-.2-.32-.42-.4-.67-.08-.26-.12-.52-.12-.8,0-.59,.21-1.19,.64-1.8,.41-.58,.91-1.04,1.52-1.38,.37-.21,.74-.37,1.13-.49,.38-.12,.76-.17,1.13-.17s.7,.06,1.02,.19c.32,.12,.62,.32,.89,.58,.44,.42,.66,.9,.66,1.44,0,.6-.22,1.21-.66,1.82-.44,.62-.97,1.1-1.61,1.46-.37,.21-.74,.37-1.12,.49-.38,.12-.75,.17-1.12,.17-.39,0-.75-.07-1.08-.2-.33-.13-.63-.34-.9-.64Z"/>
    <path class="cls-2" d="M101.41,56.8v-20.5m-8.02,21h10"/>
    <path d="M95.41,59.62c-.19-.2-.32-.42-.4-.67-.08-.26-.12-.52-.12-.8,0-.59,.21-1.19,.64-1.8,.41-.58,.91-1.04,1.52-1.38,.37-.21,.74-.37,1.13-.49,.38-.12,.76-.17,1.13-.17s.7,.06,1.02,.19c.32,.12,.62,.32,.89,.58,.44,.42,.66,.9,.66,1.44,0,.6-.22,1.21-.66,1.82-.44,.62-.97,1.1-1.61,1.46-.37,.21-.74,.37-1.12,.49-.38,.12-.75,.17-1.12,.17-.39,0-.75-.07-1.08-.2-.33-.13-.63-.34-.9-.64Z"/>
    <line class="cls-2" x1="126.16" y1="44.8" x2="126.16" y2="24.3"/>
    <path d="M120.16,47.62c-.19-.2-.32-.42-.4-.67-.08-.26-.12-.52-.12-.8,0-.59,.21-1.19,.64-1.8,.41-.58,.91-1.04,1.52-1.38,.37-.21,.74-.37,1.13-.49,.38-.12,.76-.17,1.13-.17s.7,.06,1.02,.19c.32,.12,.62,.32,.89,.58,.44,.42,.66,.9,.66,1.44,0,.6-.22,1.21-.66,1.82-.44,.62-.97,1.1-1.61,1.46-.37,.21-.74,.37-1.12,.49-.38,.12-.75,.17-1.12,.17-.39,0-.75-.07-1.08-.2-.33-.13-.63-.34-.9-.64Z"/>
    <line class="cls-2" x1="150.91" y1="44.8" x2="150.91" y2="24.3"/>
    <path d="M144.91,47.62c-.19-.2-.32-.42-.4-.67-.08-.26-.12-.52-.12-.8,0-.59,.21-1.19,.64-1.8,.41-.58,.91-1.04,1.52-1.38,.37-.21,.74-.37,1.13-.49,.38-.12,.76-.17,1.13-.17s.7,.06,1.02,.19c.32,.12,.62,.32,.89,.58,.44,.42,.66,.9,.66,1.44,0,.6-.22,1.21-.66,1.82-.44,.62-.97,1.1-1.61,1.46-.37,.21-.74,.37-1.12,.49-.38,.12-.75,.17-1.12,.17-.39,0-.75-.07-1.08-.2-.33-.13-.63-.34-.9-.64Z"/>
    <path class="cls-2" d="M76.66,144.8v-47.5m-8.02,48h9.75m-9.75-6h9.75"/>
    <path d="M70.69,147.62c-.19-.2-.33-.41-.41-.66-.09-.24-.13-.5-.13-.77,0-.6,.21-1.21,.64-1.82,.41-.58,.92-1.05,1.54-1.41,.38-.21,.75-.37,1.13-.49,.38-.12,.75-.17,1.12-.17s.71,.06,1.04,.19c.33,.12,.63,.32,.89,.58,.43,.41,.64,.87,.64,1.4,0,.6-.22,1.22-.65,1.85-.44,.63-.97,1.12-1.59,1.49-.37,.21-.74,.37-1.12,.49-.38,.12-.75,.17-1.12,.17-.39,0-.75-.07-1.08-.2-.33-.13-.63-.34-.9-.64Zm3.73-1.02c.49-.36,.93-.85,1.32-1.46s.6-1.13,.6-1.54c0-.17-.04-.31-.12-.42-.08-.11-.23-.16-.45-.16-.37,0-.85,.13-1.45,.38-.53,.23-1.01,.48-1.43,.77-.52,.35-.99,.81-1.4,1.37-.43,.59-.65,1.07-.65,1.46,0,.16,.05,.3,.15,.39,.15,.15,.39,.23,.72,.23,.41,0,.87-.1,1.39-.3,.51-.2,.96-.44,1.33-.71Z"/>
    <path d="M70.69,114.62c-.19-.2-.33-.41-.41-.66-.09-.24-.13-.5-.13-.77,0-.6,.21-1.21,.64-1.82,.41-.58,.92-1.05,1.54-1.41,.38-.21,.75-.37,1.13-.49,.38-.12,.75-.17,1.12-.17s.71,.06,1.04,.19c.33,.12,.63,.32,.89,.58,.43,.41,.64,.87,.64,1.4,0,.6-.22,1.22-.65,1.85-.44,.63-.97,1.12-1.59,1.49-.37,.21-.74,.37-1.12,.49-.38,.12-.75,.17-1.12,.17-.39,0-.75-.07-1.08-.2-.33-.13-.63-.34-.9-.64Zm3.73-1.02c.49-.36,.93-.85,1.32-1.46s.6-1.13,.6-1.54c0-.17-.04-.31-.12-.42-.08-.11-.23-.16-.45-.16-.37,0-.85,.13-1.45,.38-.53,.23-1.01,.48-1.43,.77-.52,.35-.99,.81-1.4,1.37-.43,.59-.65,1.07-.65,1.46,0,.16,.05,.3,.15,.39,.15,.15,.39,.23,.72,.23,.41,0,.87-.1,1.39-.3,.51-.2,.96-.44,1.33-.71Z"/>
    <path d="M70.69,126.62c-.19-.2-.33-.41-.41-.66-.09-.24-.13-.5-.13-.77,0-.6,.21-1.21,.64-1.82,.41-.58,.92-1.05,1.54-1.41,.38-.21,.75-.37,1.13-.49,.38-.12,.75-.17,1.12-.17s.71,.06,1.04,.19c.33,.12,.63,.32,.89,.58,.43,.41,.64,.87,.64,1.4,0,.6-.22,1.22-.65,1.85-.44,.63-.97,1.12-1.59,1.49-.37,.21-.74,.37-1.12,.49-.38,.12-.75,.17-1.12,.17-.39,0-.75-.07-1.08-.2-.33-.13-.63-.34-.9-.64Zm3.73-1.02c.49-.36,.93-.85,1.32-1.46s.6-1.13,.6-1.54c0-.17-.04-.31-.12-.42-.08-.11-.23-.16-.45-.16-.37,0-.85,.13-1.45,.38-.53,.23-1.01,.48-1.43,.77-.52,.35-.99,.81-1.4,1.37-.43,.59-.65,1.07-.65,1.46,0,.16,.05,.3,.15,.39,.15,.15,.39,.23,.72,.23,.41,0,.87-.1,1.39-.3,.51-.2,.96-.44,1.33-.71Z"/>
    <path d="M70.69,120.62c-.19-.2-.33-.41-.41-.66-.09-.24-.13-.5-.13-.77,0-.6,.21-1.21,.64-1.82,.41-.58,.92-1.05,1.54-1.41,.38-.21,.75-.37,1.13-.49,.38-.12,.75-.17,1.12-.17s.71,.06,1.04,.19c.33,.12,.63,.32,.89,.58,.43,.41,.64,.87,.64,1.4,0,.6-.22,1.22-.65,1.85-.44,.63-.97,1.12-1.59,1.49-.37,.21-.74,.37-1.12,.49-.38,.12-.75,.17-1.12,.17-.39,0-.75-.07-1.08-.2-.33-.13-.63-.34-.9-.64Zm3.73-1.02c.49-.36,.93-.85,1.32-1.46s.6-1.13,.6-1.54c0-.17-.04-.31-.12-.42-.08-.11-.23-.16-.45-.16-.37,0-.85,.13-1.45,.38-.53,.23-1.01,.48-1.43,.77-.52,.35-.99,.81-1.4,1.37-.43,.59-.65,1.07-.65,1.46,0,.16,.05,.3,.15,.39,.15,.15,.39,.23,.72,.23,.41,0,.87-.1,1.39-.3,.51-.2,.96-.44,1.33-.71Z"/>
    <path class="cls-2" d="M119.87,103.8v50.5m-1.73-51h9.75"/>
    <path d="M120.19,105.62c-.19-.2-.33-.41-.41-.66-.09-.24-.13-.5-.13-.77,0-.6,.21-1.21,.64-1.82,.41-.58,.92-1.05,1.54-1.41,.38-.21,.75-.37,1.13-.49,.38-.12,.75-.17,1.12-.17s.71,.06,1.04,.19c.33,.12,.63,.32,.89,.58,.43,.41,.64,.87,.64,1.4,0,.6-.22,1.22-.65,1.85-.44,.63-.97,1.12-1.59,1.49-.37,.21-.74,.37-1.12,.49-.38,.12-.75,.17-1.12,.17-.39,0-.75-.07-1.08-.2-.33-.13-.63-.34-.9-.64Zm3.73-1.02c.49-.36,.93-.85,1.32-1.46s.6-1.13,.6-1.54c0-.17-.04-.31-.12-.42-.08-.11-.23-.16-.45-.16-.37,0-.85,.13-1.45,.38-.53,.23-1.01,.48-1.43,.77-.52,.35-.99,.81-1.4,1.37-.43,.59-.65,1.07-.65,1.46,0,.16,.05,.3,.15,.39,.15,.15,.39,.23,.72,.23,.41,0,.87-.1,1.39-.3,.51-.2,.96-.44,1.33-.71Z"/>
    <line class="cls-2" x1="118.14" y1="139.3" x2="127.89" y2="139.3"/>
    <path d="M120.19,141.62c-.19-.2-.33-.41-.41-.66-.09-.24-.13-.5-.13-.77,0-.6,.21-1.21,.64-1.82,.41-.58,.92-1.05,1.54-1.41,.38-.21,.75-.37,1.13-.49,.38-.12,.75-.17,1.12-.17s.71,.06,1.04,.19c.33,.12,.63,.32,.89,.58,.43,.41,.64,.87,.64,1.4,0,.6-.22,1.22-.65,1.85-.44,.63-.97,1.12-1.59,1.49-.37,.21-.74,.37-1.12,.49-.38,.12-.75,.17-1.12,.17-.39,0-.75-.07-1.08-.2-.33-.13-.63-.34-.9-.64Zm3.73-1.02c.49-.36,.93-.85,1.32-1.46s.6-1.13,.6-1.54c0-.17-.04-.31-.12-.42-.08-.11-.23-.16-.45-.16-.37,0-.85,.13-1.45,.38-.53,.23-1.01,.48-1.43,.77-.52,.35-.99,.81-1.4,1.37-.43,.59-.65,1.07-.65,1.46,0,.16,.05,.3,.15,.39,.15,.15,.39,.23,.72,.23,.41,0,.87-.1,1.39-.3,.51-.2,.96-.44,1.33-.71Z"/>
    <path d="M120.19,126.62c-.19-.2-.33-.41-.41-.66-.09-.24-.13-.5-.13-.77,0-.6,.21-1.21,.64-1.82,.41-.58,.92-1.05,1.54-1.41,.38-.21,.75-.37,1.13-.49,.38-.12,.75-.17,1.12-.17s.71,.06,1.04,.19c.33,.12,.63,.32,.89,.58,.43,.41,.64,.87,.64,1.4,0,.6-.22,1.22-.65,1.85-.44,.63-.97,1.12-1.59,1.49-.37,.21-.74,.37-1.12,.49-.38,.12-.75,.17-1.12,.17-.39,0-.75-.07-1.08-.2-.33-.13-.63-.34-.9-.64Zm3.73-1.02c.49-.36,.93-.85,1.32-1.46s.6-1.13,.6-1.54c0-.17-.04-.31-.12-.42-.08-.11-.23-.16-.45-.16-.37,0-.85,.13-1.45,.38-.53,.23-1.01,.48-1.43,.77-.52,.35-.99,.81-1.4,1.37-.43,.59-.65,1.07-.65,1.46,0,.16,.05,.3,.15,.39,.15,.15,.39,.23,.72,.23,.41,0,.87-.1,1.39-.3,.51-.2,.96-.44,1.33-.71Z"/>
    <line class="cls-2" x1="184.66" y1="41.8" x2="184.66" y2="21.3"/>
    <path d="M178.66,44.62c-.19-.2-.32-.42-.4-.67-.08-.26-.12-.52-.12-.8,0-.59,.21-1.19,.64-1.8,.41-.58,.91-1.04,1.52-1.38,.37-.21,.74-.37,1.13-.49,.38-.12,.76-.17,1.13-.17s.7,.06,1.02,.19c.32,.12,.62,.32,.89,.58,.44,.42,.66,.9,.66,1.44,0,.6-.22,1.21-.66,1.82-.44,.62-.97,1.1-1.61,1.46-.37,.21-.74,.37-1.12,.49-.38,.12-.75,.17-1.12,.17-.39,0-.75-.07-1.08-.2-.33-.13-.63-.34-.9-.64Z"/>
    <line class="cls-2" x1="212.41" y1="41.8" x2="212.41" y2="21.3"/>
    <path d="M206.41,44.62c-.19-.2-.32-.42-.4-.67-.08-.26-.12-.52-.12-.8,0-.59,.21-1.19,.64-1.8,.41-.58,.91-1.04,1.52-1.38,.37-.21,.74-.37,1.13-.49,.38-.12,.76-.17,1.13-.17s.7,.06,1.02,.19c.32,.12,.62,.32,.89,.58,.44,.42,.66,.9,.66,1.44,0,.6-.22,1.21-.66,1.82-.44,.62-.97,1.1-1.61,1.46-.37,.21-.74,.37-1.12,.49-.38,.12-.75,.17-1.12,.17-.39,0-.75-.07-1.08-.2-.33-.13-.63-.34-.9-.64Z"/>
    <line class="cls-2" x1="240.41" y1="44.8" x2="240.41" y2="24.3"/>
    <path d="M234.44,47.62c-.19-.2-.33-.41-.41-.66-.09-.24-.13-.5-.13-.77,0-.6,.21-1.21,.64-1.82,.41-.58,.92-1.05,1.54-1.41,.38-.21,.75-.37,1.13-.49,.38-.12,.75-.17,1.12-.17s.71,.06,1.04,.19c.33,.12,.63,.32,.89,.58,.43,.41,.64,.87,.64,1.4,0,.6-.22,1.22-.65,1.85-.44,.63-.97,1.12-1.59,1.49-.37,.21-.74,.37-1.12,.49-.38,.12-.75,.17-1.12,.17-.39,0-.75-.07-1.08-.2-.33-.13-.63-.34-.9-.64Zm3.73-1.02c.49-.36,.93-.85,1.32-1.46s.6-1.13,.6-1.54c0-.17-.04-.31-.12-.42-.08-.11-.23-.16-.45-.16-.37,0-.85,.13-1.45,.38-.53,.23-1.01,.48-1.43,.77-.52,.35-.99,.81-1.4,1.37-.43,.59-.65,1.07-.65,1.46,0,.16,.05,.3,.15,.39,.15,.15,.39,.23,.72,.23,.41,0,.87-.1,1.39-.3,.51-.2,.96-.44,1.33-.71Z"/>
    <line class="cls-2" x1="178.37" y1="124.8" x2="178.37" y2="151.3"/>
    <path d="M178.69,126.62c-.19-.2-.33-.41-.41-.66-.09-.24-.13-.5-.13-.77,0-.6,.21-1.21,.64-1.82,.41-.58,.92-1.05,1.54-1.41,.38-.21,.75-.37,1.13-.49,.38-.12,.75-.17,1.12-.17s.71,.06,1.04,.19c.33,.12,.63,.32,.89,.58,.43,.41,.64,.87,.64,1.4,0,.6-.22,1.22-.65,1.85-.44,.63-.97,1.12-1.59,1.49-.37,.21-.74,.37-1.12,.49-.38,.12-.75,.17-1.12,.17-.39,0-.75-.07-1.08-.2-.33-.13-.63-.34-.9-.64Zm3.73-1.02c.49-.36,.93-.85,1.32-1.46s.6-1.13,.6-1.54c0-.17-.04-.31-.12-.42-.08-.11-.23-.16-.45-.16-.37,0-.85,.13-1.45,.38-.53,.23-1.01,.48-1.43,.77-.52,.35-.99,.81-1.4,1.37-.43,.59-.65,1.07-.65,1.46,0,.16,.05,.3,.15,.39,.15,.15,.39,.23,.72,.23,.41,0,.87-.1,1.39-.3,.51-.2,.96-.44,1.33-.71Z"/>
    <path d="M178.69,138.62c-.19-.2-.33-.41-.41-.66-.09-.24-.13-.5-.13-.77,0-.6,.21-1.21,.64-1.82,.41-.58,.92-1.05,1.54-1.41,.38-.21,.75-.37,1.13-.49,.38-.12,.75-.17,1.12-.17s.71,.06,1.04,.19c.33,.12,.63,.32,.89,.58,.43,.41,.64,.87,.64,1.4,0,.6-.22,1.22-.65,1.85-.44,.63-.97,1.12-1.59,1.49-.37,.21-.74,.37-1.12,.49-.38,.12-.75,.17-1.12,.17-.39,0-.75-.07-1.08-.2-.33-.13-.63-.34-.9-.64Zm3.73-1.02c.49-.36,.93-.85,1.32-1.46s.6-1.13,.6-1.54c0-.17-.04-.31-.12-.42-.08-.11-.23-.16-.45-.16-.37,0-.85,.13-1.45,.38-.53,.23-1.01,.48-1.43,.77-.52,.35-.99,.81-1.4,1.37-.43,.59-.65,1.07-.65,1.46,0,.16,.05,.3,.15,.39,.15,.15,.39,.23,.72,.23,.41,0,.87-.1,1.39-.3,.51-.2,.96-.44,1.33-.71Z"/>
    <path class="cls-2" d="M184.66,102.8v-14.5m-8.02,15h10"/>
    <path d="M178.66,105.62c-.19-.2-.32-.42-.4-.67-.08-.26-.12-.52-.12-.8,0-.59,.21-1.19,.64-1.8,.41-.58,.91-1.04,1.52-1.38,.37-.21,.74-.37,1.13-.49,.38-.12,.76-.17,1.13-.17s.7,.06,1.02,.19c.32,.12,.62,.32,.89,.58,.44,.42,.66,.9,.66,1.44,0,.6-.22,1.21-.66,1.82-.44,.62-.97,1.1-1.61,1.46-.37,.21-.74,.37-1.12,.49-.38,.12-.75,.17-1.12,.17-.39,0-.75-.07-1.08-.2-.33-.13-.63-.34-.9-.64Z"/>
    <path class="cls-2" d="M212.41,108.8v-20.5m-8.02,15h10"/>
    <path d="M206.41,105.62c-.19-.2-.32-.42-.4-.67-.08-.26-.12-.52-.12-.8,0-.59,.21-1.19,.64-1.8,.41-.58,.91-1.04,1.52-1.38,.37-.21,.74-.37,1.13-.49,.38-.12,.76-.17,1.13-.17s.7,.06,1.02,.19c.32,.12,.62,.32,.89,.58,.44,.42,.66,.9,.66,1.44,0,.6-.22,1.21-.66,1.82-.44,.62-.97,1.1-1.61,1.46-.37,.21-.74,.37-1.12,.49-.38,.12-.75,.17-1.12,.17-.39,0-.75-.07-1.08-.2-.33-.13-.63-.34-.9-.64Z"/>
    <path d="M206.41,111.62c-.19-.2-.32-.42-.4-.67-.08-.26-.12-.52-.12-.8,0-.59,.21-1.19,.64-1.8,.41-.58,.91-1.04,1.52-1.38,.37-.21,.74-.37,1.13-.49,.38-.12,.76-.17,1.13-.17s.7,.06,1.02,.19c.32,.12,.62,.32,.89,.58,.44,.42,.66,.9,.66,1.44,0,.6-.22,1.21-.66,1.82-.44,.62-.97,1.1-1.61,1.46-.37,.21-.74,.37-1.12,.49-.38,.12-.75,.17-1.12,.17-.39,0-.75-.07-1.08-.2-.33-.13-.63-.34-.9-.64Z"/>
    <path class="cls-2" d="M240.41,144.8v-56.5m-8.02,57h9.75m-9.75-6h9.75"/>
    <path d="M234.44,147.62c-.19-.2-.33-.41-.41-.66-.09-.24-.13-.5-.13-.77,0-.6,.21-1.21,.64-1.82,.41-.58,.92-1.05,1.54-1.41,.38-.21,.75-.37,1.13-.49,.38-.12,.75-.17,1.12-.17s.71,.06,1.04,.19c.33,.12,.63,.32,.89,.58,.43,.41,.64,.87,.64,1.4,0,.6-.22,1.22-.65,1.85-.44,.63-.97,1.12-1.59,1.49-.37,.21-.74,.37-1.12,.49-.38,.12-.75,.17-1.12,.17-.39,0-.75-.07-1.08-.2-.33-.13-.63-.34-.9-.64Zm3.73-1.02c.49-.36,.93-.85,1.32-1.46s.6-1.13,.6-1.54c0-.17-.04-.31-.12-.42-.08-.11-.23-.16-.45-.16-.37,0-.85,.13-1.45,.38-.53,.23-1.01,.48-1.43,.77-.52,.35-.99,.81-1.4,1.37-.43,.59-.65,1.07-.65,1.46,0,.16,.05,.3,.15,.39,.15,.15,.39,.23,.72,.23,.41,0,.87-.1,1.39-.3,.51-.2,.96-.44,1.33-.71Z"/>
    <line class="cls-2" x1="232.39" y1="103.3" x2="242.14" y2="103.3"/>
    <path d="M234.44,105.62c-.19-.2-.33-.41-.41-.66-.09-.24-.13-.5-.13-.77,0-.6,.21-1.21,.64-1.82,.41-.58,.92-1.05,1.54-1.41,.38-.21,.75-.37,1.13-.49,.38-.12,.75-.17,1.12-.17s.71,.06,1.04,.19c.33,.12,.63,.32,.89,.58,.43,.41,.64,.87,.64,1.4,0,.6-.22,1.22-.65,1.85-.44,.63-.97,1.12-1.59,1.49-.37,.21-.74,.37-1.12,.49-.38,.12-.75,.17-1.12,.17-.39,0-.75-.07-1.08-.2-.33-.13-.63-.34-.9-.64Zm3.73-1.02c.49-.36,.93-.85,1.32-1.46s.6-1.13,.6-1.54c0-.17-.04-.31-.12-.42-.08-.11-.23-.16-.45-.16-.37,0-.85,.13-1.45,.38-.53,.23-1.01,.48-1.43,.77-.52,.35-.99,.81-1.4,1.37-.43,.59-.65,1.07-.65,1.46,0,.16,.05,.3,.15,.39,.15,.15,.39,.23,.72,.23,.41,0,.87-.1,1.39-.3,.51-.2,.96-.44,1.33-.71Z"/>
    <path d="M234.44,126.62c-.19-.2-.33-.41-.41-.66-.09-.24-.13-.5-.13-.77,0-.6,.21-1.21,.64-1.82,.41-.58,.92-1.05,1.54-1.41,.38-.21,.75-.37,1.13-.49,.38-.12,.75-.17,1.12-.17s.71,.06,1.04,.19c.33,.12,.63,.32,.89,.58,.43,.41,.64,.87,.64,1.4,0,.6-.22,1.22-.65,1.85-.44,.63-.97,1.12-1.59,1.49-.37,.21-.74,.37-1.12,.49-.38,.12-.75,.17-1.12,.17-.39,0-.75-.07-1.08-.2-.33-.13-.63-.34-.9-.64Zm3.73-1.02c.49-.36,.93-.85,1.32-1.46s.6-1.13,.6-1.54c0-.17-.04-.31-.12-.42-.08-.11-.23-.16-.45-.16-.37,0-.85,.13-1.45,.38-.53,.23-1.01,.48-1.43,.77-.52,.35-.99,.81-1.4,1.37-.43,.59-.65,1.07-.65,1.46,0,.16,.05,.3,.15,.39,.15,.15,.39,.23,.72,.23,.41,0,.87-.1,1.39-.3,.51-.2,.96-.44,1.33-.71Z"/>
    <path d="M234.44,120.62c-.19-.2-.33-.41-.41-.66-.09-.24-.13-.5-.13-.77,0-.6,.21-1.21,.64-1.82,.41-.58,.92-1.05,1.54-1.41,.38-.21,.75-.37,1.13-.49,.38-.12,.75-.17,1.12-.17s.71,.06,1.04,.19c.33,.12,.63,.32,.89,.58,.43,.41,.64,.87,.64,1.4,0,.6-.22,1.22-.65,1.85-.44,.63-.97,1.12-1.59,1.49-.37,.21-.74,.37-1.12,.49-.38,.12-.75,.17-1.12,.17-.39,0-.75-.07-1.08-.2-.33-.13-.63-.34-.9-.64Zm3.73-1.02c.49-.36,.93-.85,1.32-1.46s.6-1.13,.6-1.54c0-.17-.04-.31-.12-.42-.08-.11-.23-.16-.45-.16-.37,0-.85,.13-1.45,.38-.53,.23-1.01,.48-1.43,.77-.52,.35-.99,.81-1.4,1.37-.43,.59-.65,1.07-.65,1.46,0,.16,.05,.3,.15,.39,.15,.15,.39,.23,.72,.23,.41,0,.87-.1,1.39-.3,.51-.2,.96-.44,1.33-.71Z"/>
    <line class="cls-2" x1="305.41" y1="47.8" x2="305.41" y2="27.3"/>
    <path d="M299.41,50.62c-.19-.2-.32-.42-.4-.67-.08-.26-.12-.52-.12-.8,0-.59,.21-1.19,.64-1.8,.4-.58,.91-1.04,1.52-1.38,.37-.21,.74-.37,1.13-.49,.38-.12,.76-.17,1.13-.17s.7,.06,1.02,.19c.32,.12,.62,.32,.89,.58,.44,.42,.66,.9,.66,1.44,0,.6-.22,1.21-.66,1.82-.44,.62-.97,1.1-1.61,1.46-.37,.21-.74,.37-1.12,.49-.38,.12-.75,.17-1.12,.17-.39,0-.75-.07-1.08-.2-.33-.13-.62-.34-.9-.64Z"/>
    <line class="cls-2" x1="336.41" y1="47.8" x2="336.41" y2="27.3"/>
    <path d="M330.41,50.62c-.19-.2-.32-.42-.4-.67-.08-.26-.12-.52-.12-.8,0-.59,.21-1.19,.64-1.8,.4-.58,.91-1.04,1.52-1.38,.37-.21,.74-.37,1.13-.49,.38-.12,.76-.17,1.13-.17s.7,.06,1.02,.19c.32,.12,.62,.32,.89,.58,.44,.42,.66,.9,.66,1.44,0,.6-.22,1.21-.66,1.82-.44,.62-.97,1.1-1.61,1.46-.37,.21-.74,.37-1.12,.49-.38,.12-.75,.17-1.12,.17-.39,0-.75-.07-1.08-.2-.33-.13-.62-.34-.9-.64Z"/>
    <line class="cls-2" x1="367.41" y1="50.8" x2="367.41" y2="30.3"/>
    <path d="M361.41,53.62c-.19-.2-.32-.42-.4-.67-.08-.26-.12-.52-.12-.8,0-.59,.21-1.19,.64-1.8,.4-.58,.91-1.04,1.52-1.38,.37-.21,.74-.37,1.13-.49,.38-.12,.76-.17,1.13-.17s.7,.06,1.02,.19c.32,.12,.62,.32,.89,.58,.44,.42,.66,.9,.66,1.44,0,.6-.22,1.21-.66,1.82-.44,.62-.97,1.1-1.61,1.46-.37,.21-.74,.37-1.12,.49-.38,.12-.75,.17-1.12,.17-.39,0-.75-.07-1.08-.2-.33-.13-.62-.34-.9-.64Z"/>
    <line class="cls-2" x1="398.41" y1="50.8" x2="398.41" y2="30.3"/>
    <path d="M392.41,53.62c-.19-.2-.32-.42-.4-.67-.08-.26-.12-.52-.12-.8,0-.59,.21-1.19,.64-1.8,.4-.58,.91-1.04,1.52-1.38,.37-.21,.74-.37,1.13-.49,.38-.12,.76-.17,1.13-.17s.7,.06,1.02,.19c.32,.12,.62,.32,.89,.58,.44,.42,.66,.9,.66,1.44,0,.6-.22,1.21-.66,1.82-.44,.62-.97,1.1-1.61,1.46-.37,.21-.74,.37-1.12,.49-.38,.12-.75,.17-1.12,.17-.39,0-.75-.07-1.08-.2-.33-.13-.62-.34-.9-.64Z"/>
    <line class="cls-2" x1="305.41" y1="120.8" x2="305.41" y2="100.3"/>
    <path d="M299.44,123.62c-.19-.2-.33-.41-.41-.66-.09-.24-.13-.5-.13-.77,0-.6,.21-1.21,.64-1.82,.41-.58,.92-1.05,1.55-1.41,.38-.21,.75-.37,1.13-.49,.37-.12,.75-.17,1.12-.17s.71,.06,1.04,.19c.33,.12,.63,.32,.89,.58,.43,.41,.64,.87,.64,1.4,0,.6-.22,1.22-.65,1.85-.44,.63-.96,1.12-1.59,1.49-.37,.21-.74,.37-1.12,.49-.38,.12-.75,.17-1.12,.17-.39,0-.75-.07-1.08-.2-.33-.13-.63-.34-.9-.64Zm3.73-1.02c.49-.36,.93-.85,1.32-1.46s.6-1.13,.6-1.54c0-.17-.04-.31-.12-.42-.08-.11-.23-.16-.45-.16-.37,0-.85,.13-1.45,.38-.53,.23-1.01,.48-1.42,.77-.52,.35-.99,.81-1.4,1.37-.43,.59-.65,1.07-.65,1.46,0,.16,.05,.3,.15,.39,.15,.15,.39,.23,.72,.23,.41,0,.87-.1,1.39-.3,.51-.2,.96-.44,1.33-.71Z"/>
    <line class="cls-2" x1="299.13" y1="109.8" x2="299.13" y2="157.3"/>
    <path d="M299.41,111.62c-.19-.2-.32-.42-.4-.67-.08-.26-.12-.52-.12-.8,0-.59,.21-1.19,.64-1.8,.4-.58,.91-1.04,1.52-1.38,.37-.21,.74-.37,1.13-.49,.38-.12,.76-.17,1.13-.17s.7,.06,1.02,.19c.32,.12,.62,.32,.89,.58,.44,.42,.66,.9,.66,1.44,0,.6-.22,1.21-.66,1.82-.44,.62-.97,1.1-1.61,1.46-.37,.21-.74,.37-1.12,.49-.38,.12-.75,.17-1.12,.17-.39,0-.75-.07-1.08-.2-.33-.13-.62-.34-.9-.64Z"/>
    <line class="cls-2" x1="297.4" y1="139.3" x2="307.4" y2="139.3"/>
    <path d="M299.41,144.62c-.19-.2-.32-.42-.4-.67-.08-.26-.12-.52-.12-.8,0-.59,.21-1.19,.64-1.8,.4-.58,.91-1.04,1.52-1.38,.37-.21,.74-.37,1.13-.49,.38-.12,.76-.17,1.13-.17s.7,.06,1.02,.19c.32,.12,.62,.32,.89,.58,.44,.42,.66,.9,.66,1.44,0,.6-.22,1.21-.66,1.82-.44,.62-.97,1.1-1.61,1.46-.37,.21-.74,.37-1.12,.49-.38,.12-.75,.17-1.12,.17-.39,0-.75-.07-1.08-.2-.33-.13-.62-.34-.9-.64Z"/>
    <line class="cls-2" x1="330.13" y1="106.8" x2="330.13" y2="148.3"/>
    <path d="M330.41,108.62c-.19-.2-.32-.42-.4-.67-.08-.26-.12-.52-.12-.8,0-.59,.21-1.19,.64-1.8,.4-.58,.91-1.04,1.52-1.38,.37-.21,.74-.37,1.13-.49,.38-.12,.76-.17,1.13-.17s.7,.06,1.02,.19c.32,.12,.62,.32,.89,.58,.44,.42,.66,.9,.66,1.44,0,.6-.22,1.21-.66,1.82-.44,.62-.97,1.1-1.61,1.46-.37,.21-.74,.37-1.12,.49-.38,.12-.75,.17-1.12,.17-.39,0-.75-.07-1.08-.2-.33-.13-.62-.34-.9-.64Z"/>
    <path d="M330.41,135.62c-.19-.2-.32-.42-.4-.67-.08-.26-.12-.52-.12-.8,0-.59,.21-1.19,.64-1.8,.4-.58,.91-1.04,1.52-1.38,.37-.21,.74-.37,1.13-.49,.38-.12,.76-.17,1.13-.17s.7,.06,1.02,.19c.32,.12,.62,.32,.89,.58,.44,.42,.66,.9,.66,1.44,0,.6-.22,1.21-.66,1.82-.44,.62-.97,1.1-1.61,1.46-.37,.21-.74,.37-1.12,.49-.38,.12-.75,.17-1.12,.17-.39,0-.75-.07-1.08-.2-.33-.13-.62-.34-.9-.64Z"/>
    <line class="cls-2" x1="367.41" y1="144.8" x2="367.41" y2="97.3"/>
    <path d="M361.44,114.62c-.19-.2-.33-.41-.41-.66-.09-.24-.13-.5-.13-.77,0-.6,.21-1.21,.64-1.82,.41-.58,.92-1.05,1.55-1.41,.38-.21,.75-.37,1.13-.49,.37-.12,.75-.17,1.12-.17s.71,.06,1.04,.19c.33,.12,.63,.32,.89,.58,.43,.41,.64,.87,.64,1.4,0,.6-.22,1.22-.65,1.85-.44,.63-.96,1.12-1.59,1.49-.37,.21-.74,.37-1.12,.49-.38,.12-.75,.17-1.12,.17-.39,0-.75-.07-1.08-.2-.33-.13-.63-.34-.9-.64Zm3.73-1.02c.49-.36,.93-.85,1.32-1.46s.6-1.13,.6-1.54c0-.17-.04-.31-.12-.42-.08-.11-.23-.16-.45-.16-.37,0-.85,.13-1.45,.38-.53,.23-1.01,.48-1.42,.77-.52,.35-.99,.81-1.4,1.37-.43,.59-.65,1.07-.65,1.46,0,.16,.05,.3,.15,.39,.15,.15,.39,.23,.72,.23,.41,0,.87-.1,1.39-.3,.51-.2,.96-.44,1.33-.71Z"/>
    <path d="M361.44,126.62c-.19-.2-.33-.41-.41-.66-.09-.24-.13-.5-.13-.77,0-.6,.21-1.21,.64-1.82,.41-.58,.92-1.05,1.55-1.41,.38-.21,.75-.37,1.13-.49,.37-.12,.75-.17,1.12-.17s.71,.06,1.04,.19c.33,.12,.63,.32,.89,.58,.43,.41,.64,.87,.64,1.4,0,.6-.22,1.22-.65,1.85-.44,.63-.96,1.12-1.59,1.49-.37,.21-.74,.37-1.12,.49-.38,.12-.75,.17-1.12,.17-.39,0-.75-.07-1.08-.2-.33-.13-.63-.34-.9-.64Zm3.73-1.02c.49-.36,.93-.85,1.32-1.46s.6-1.13,.6-1.54c0-.17-.04-.31-.12-.42-.08-.11-.23-.16-.45-.16-.37,0-.85,.13-1.45,.38-.53,.23-1.01,.48-1.42,.77-.52,.35-.99,.81-1.4,1.37-.43,.59-.65,1.07-.65,1.46,0,.16,.05,.3,.15,.39,.15,.15,.39,.23,.72,.23,.41,0,.87-.1,1.39-.3,.51-.2,.96-.44,1.33-.71Z"/>
    <path class="cls-2" d="M359.4,145.3h9.75m-9.75-6h9.75"/>
    <path d="M361.44,147.62c-.19-.2-.33-.41-.41-.66-.09-.24-.13-.5-.13-.77,0-.6,.21-1.21,.64-1.82,.41-.58,.92-1.05,1.55-1.41,.38-.21,.75-.37,1.13-.49,.37-.12,.75-.17,1.12-.17s.71,.06,1.04,.19c.33,.12,.63,.32,.89,.58,.43,.41,.64,.87,.64,1.4,0,.6-.22,1.22-.65,1.85-.44,.63-.96,1.12-1.59,1.49-.37,.21-.74,.37-1.12,.49-.38,.12-.75,.17-1.12,.17-.39,0-.75-.07-1.08-.2-.33-.13-.63-.34-.9-.64Zm3.73-1.02c.49-.36,.93-.85,1.32-1.46s.6-1.13,.6-1.54c0-.17-.04-.31-.12-.42-.08-.11-.23-.16-.45-.16-.37,0-.85,.13-1.45,.38-.53,.23-1.01,.48-1.42,.77-.52,.35-.99,.81-1.4,1.37-.43,.59-.65,1.07-.65,1.46,0,.16,.05,.3,.15,.39,.15,.15,.39,.23,.72,.23,.41,0,.87-.1,1.39-.3,.51-.2,.96-.44,1.33-.71Z"/>
    <path class="cls-2" d="M392.13,103.8v41.5m-1.73-42h10"/>
    <path d="M392.41,105.62c-.19-.2-.32-.42-.4-.67-.08-.26-.12-.52-.12-.8,0-.59,.21-1.19,.64-1.8,.4-.58,.91-1.04,1.52-1.38,.37-.21,.74-.37,1.13-.49,.38-.12,.76-.17,1.13-.17s.7,.06,1.02,.19c.32,.12,.62,.32,.89,.58,.44,.42,.66,.9,.66,1.44,0,.6-.22,1.21-.66,1.82-.44,.62-.97,1.1-1.61,1.46-.37,.21-.74,.37-1.12,.49-.38,.12-.75,.17-1.12,.17-.39,0-.75-.07-1.08-.2-.33-.13-.62-.34-.9-.64Z"/>
    <path d="M400.15,104.8c2,4.5,28.5,4.5,30.5,0-2,3-28.5,3-30.5,0"/>
    <path d="M392.41,132.62c-.19-.2-.32-.42-.4-.67-.08-.26-.12-.52-.12-.8,0-.59,.21-1.19,.64-1.8,.4-.58,.91-1.04,1.52-1.38,.37-.21,.74-.37,1.13-.49,.38-.12,.76-.17,1.13-.17s.7,.06,1.02,.19c.32,.12,.62,.32,.89,.58,.44,.42,.66,.9,.66,1.44,0,.6-.22,1.21-.66,1.82-.44,.62-.97,1.1-1.61,1.46-.37,.21-.74,.37-1.12,.49-.38,.12-.75,.17-1.12,.17-.39,0-.75-.07-1.08-.2-.33-.13-.62-.34-.9-.64Z"/>
    <line class="cls-2" x1="438.66" y1="53.8" x2="438.66" y2="33.3"/>
    <path d="M432.66,56.62c-.19-.2-.32-.42-.4-.67-.08-.26-.12-.52-.12-.8,0-.59,.21-1.19,.64-1.8,.4-.58,.91-1.04,1.52-1.38,.37-.21,.74-.37,1.13-.49,.38-.12,.76-.17,1.13-.17s.7,.06,1.02,.19c.32,.12,.62,.32,.89,.58,.44,.42,.66,.9,.66,1.44,0,.6-.22,1.21-.66,1.82-.44,.62-.97,1.1-1.61,1.46-.37,.21-.74,.37-1.12,.49-.38,.12-.75,.17-1.12,.17-.39,0-.75-.07-1.08-.2-.33-.13-.62-.34-.9-.64Z"/>
    <line class="cls-2" x1="468.66" y1="53.8" x2="468.66" y2="33.3"/>
    <path d="M462.66,56.62c-.19-.2-.32-.42-.4-.67-.08-.26-.12-.52-.12-.8,0-.59,.21-1.19,.64-1.8,.4-.58,.91-1.04,1.52-1.38,.37-.21,.74-.37,1.13-.49,.38-.12,.76-.17,1.13-.17s.7,.06,1.02,.19c.32,.12,.62,.32,.89,.58,.44,.42,.66,.9,.66,1.44,0,.6-.22,1.21-.66,1.82-.44,.62-.97,1.1-1.61,1.46-.37,.21-.74,.37-1.12,.49-.38,.12-.75,.17-1.12,.17-.39,0-.75-.07-1.08-.2-.33-.13-.62-.34-.9-.64Z"/>
    <path class="cls-2" d="M498.66,56.8v-20.5m-8.02,21h9.75"/>
    <path d="M492.69,59.62c-.19-.2-.33-.41-.41-.66-.09-.24-.13-.5-.13-.77,0-.6,.21-1.21,.64-1.82,.41-.58,.92-1.05,1.55-1.41,.38-.21,.75-.37,1.13-.49,.37-.12,.75-.17,1.12-.17s.71,.06,1.04,.19c.33,.12,.63,.32,.89,.58,.43,.41,.64,.87,.64,1.4,0,.6-.22,1.22-.65,1.85-.44,.63-.96,1.12-1.59,1.49-.37,.21-.74,.37-1.12,.49-.38,.12-.75,.17-1.12,.17-.39,0-.75-.07-1.08-.2-.33-.13-.63-.34-.9-.64Zm3.73-1.02c.49-.36,.93-.85,1.32-1.46s.6-1.13,.6-1.54c0-.17-.04-.31-.12-.42-.08-.11-.23-.16-.45-.16-.37,0-.85,.13-1.45,.38-.53,.23-1.01,.48-1.42,.77-.52,.35-.99,.81-1.4,1.37-.43,.59-.65,1.07-.65,1.46,0,.16,.05,.3,.15,.39,.15,.15,.39,.23,.72,.23,.41,0,.87-.1,1.39-.3,.51-.2,.96-.44,1.33-.71Z"/>
    <line class="cls-2" x1="438.66" y1="114.8" x2="438.66" y2="100.3"/>
    <path d="M432.69,117.62c-.19-.2-.33-.41-.41-.66-.09-.24-.13-.5-.13-.77,0-.6,.21-1.21,.64-1.82,.41-.58,.92-1.05,1.55-1.41,.38-.21,.75-.37,1.13-.49,.37-.12,.75-.17,1.12-.17s.71,.06,1.04,.19c.33,.12,.63,.32,.89,.58,.43,.41,.64,.87,.64,1.4,0,.6-.22,1.22-.65,1.85-.44,.63-.96,1.12-1.59,1.49-.37,.21-.74,.37-1.12,.49-.38,.12-.75,.17-1.12,.17-.39,0-.75-.07-1.08-.2-.33-.13-.63-.34-.9-.64Zm3.73-1.02c.49-.36,.93-.85,1.32-1.46s.6-1.13,.6-1.54c0-.17-.04-.31-.12-.42-.08-.11-.23-.16-.45-.16-.37,0-.85,.13-1.45,.38-.53,.23-1.01,.48-1.42,.77-.52,.35-.99,.81-1.4,1.37-.43,.59-.65,1.07-.65,1.46,0,.16,.05,.3,.15,.39,.15,.15,.39,.23,.72,.23,.41,0,.87-.1,1.39-.3,.51-.2,.96-.44,1.33-.71Z"/>
    <path class="cls-2" d="M432.38,103.8v47.5m-1.73-48h10"/>
    <path d="M432.66,105.62c-.19-.2-.32-.42-.4-.67-.08-.26-.12-.52-.12-.8,0-.59,.21-1.19,.64-1.8,.4-.58,.91-1.04,1.52-1.38,.37-.21,.74-.37,1.13-.49,.38-.12,.76-.17,1.13-.17s.7,.06,1.02,.19c.32,.12,.62,.32,.89,.58,.44,.42,.66,.9,.66,1.44,0,.6-.22,1.21-.66,1.82-.44,.62-.97,1.1-1.61,1.46-.37,.21-.74,.37-1.12,.49-.38,.12-.75,.17-1.12,.17-.39,0-.75-.07-1.08-.2-.33-.13-.62-.34-.9-.64Z"/>
    <path d="M432.66,111.62c-.19-.2-.32-.42-.4-.67-.08-.26-.12-.52-.12-.8,0-.59,.21-1.19,.64-1.8,.4-.58,.91-1.04,1.52-1.38,.37-.21,.74-.37,1.13-.49,.38-.12,.76-.17,1.13-.17s.7,.06,1.02,.19c.32,.12,.62,.32,.89,.58,.44,.42,.66,.9,.66,1.44,0,.6-.22,1.21-.66,1.82-.44,.62-.97,1.1-1.61,1.46-.37,.21-.74,.37-1.12,.49-.38,.12-.75,.17-1.12,.17-.39,0-.75-.07-1.08-.2-.33-.13-.62-.34-.9-.64Z"/>
    <path d="M432.66,138.62c-.19-.2-.32-.42-.4-.67-.08-.26-.12-.52-.12-.8,0-.59,.21-1.19,.64-1.8,.4-.58,.91-1.04,1.52-1.38,.37-.21,.74-.37,1.13-.49,.38-.12,.76-.17,1.13-.17s.7,.06,1.02,.19c.32,.12,.62,.32,.89,.58,.44,.42,.66,.9,.66,1.44,0,.6-.22,1.21-.66,1.82-.44,.62-.97,1.1-1.61,1.46-.37,.21-.74,.37-1.12,.49-.38,.12-.75,.17-1.12,.17-.39,0-.75-.07-1.08-.2-.33-.13-.62-.34-.9-.64Z"/>
    <line class="cls-2" x1="462.38" y1="106.8" x2="462.38" y2="148.3"/>
    <path d="M462.66,108.62c-.19-.2-.32-.42-.4-.67-.08-.26-.12-.52-.12-.8,0-.59,.21-1.19,.64-1.8,.4-.58,.91-1.04,1.52-1.38,.37-.21,.74-.37,1.13-.49,.38-.12,.76-.17,1.13-.17s.7,.06,1.02,.19c.32,.12,.62,.32,.89,.58,.44,.42,.66,.9,.66,1.44,0,.6-.22,1.21-.66,1.82-.44,.62-.97,1.1-1.61,1.46-.37,.21-.74,.37-1.12,.49-.38,.12-.75,.17-1.12,.17-.39,0-.75-.07-1.08-.2-.33-.13-.62-.34-.9-.64Z"/>
    <path d="M462.66,114.62c-.19-.2-.32-.42-.4-.67-.08-.26-.12-.52-.12-.8,0-.59,.21-1.19,.64-1.8,.4-.58,.91-1.04,1.52-1.38,.37-.21,.74-.37,1.13-.49,.38-.12,.76-.17,1.13-.17s.7,.06,1.02,.19c.32,.12,.62,.32,.89,.58,.44,.42,.66,.9,.66,1.44,0,.6-.22,1.21-.66,1.82-.44,.62-.97,1.1-1.61,1.46-.37,.21-.74,.37-1.12,.49-.38,.12-.75,.17-1.12,.17-.39,0-.75-.07-1.08-.2-.33-.13-.62-.34-.9-.64Z"/>
    <path d="M462.66,135.62c-.19-.2-.32-.42-.4-.67-.08-.26-.12-.52-.12-.8,0-.59,.21-1.19,.64-1.8,.4-.58,.91-1.04,1.52-1.38,.37-.21,.74-.37,1.13-.49,.38-.12,.76-.17,1.13-.17s.7,.06,1.02,.19c.32,.12,.62,.32,.89,.58,.44,.42,.66,.9,.66,1.44,0,.6-.22,1.21-.66,1.82-.44,.62-.97,1.1-1.61,1.46-.37,.21-.74,.37-1.12,.49-.38,.12-.75,.17-1.12,.17-.39,0-.75-.07-1.08-.2-.33-.13-.62-.34-.9-.64Z"/>
    <path class="cls-2" d="M498.66,144.8v-47.5m-8.02,48h9.75m-9.75-6h9.75"/>
    <path d="M492.69,147.62c-.19-.2-.33-.41-.41-.66-.09-.24-.13-.5-.13-.77,0-.6,.21-1.21,.64-1.82,.41-.58,.92-1.05,1.55-1.41,.38-.21,.75-.37,1.13-.49,.37-.12,.75-.17,1.12-.17s.71,.06,1.04,.19c.33,.12,.63,.32,.89,.58,.43,.41,.64,.87,.64,1.4,0,.6-.22,1.22-.65,1.85-.44,.63-.96,1.12-1.59,1.49-.37,.21-.74,.37-1.12,.49-.38,.12-.75,.17-1.12,.17-.39,0-.75-.07-1.08-.2-.33-.13-.63-.34-.9-.64Zm3.73-1.02c.49-.36,.93-.85,1.32-1.46s.6-1.13,.6-1.54c0-.17-.04-.31-.12-.42-.08-.11-.23-.16-.45-.16-.37,0-.85,.13-1.45,.38-.53,.23-1.01,.48-1.42,.77-.52,.35-.99,.81-1.4,1.37-.43,.59-.65,1.07-.65,1.46,0,.16,.05,.3,.15,.39,.15,.15,.39,.23,.72,.23,.41,0,.87-.1,1.39-.3,.51-.2,.96-.44,1.33-.71Z"/>
    <path d="M492.69,114.62c-.19-.2-.33-.41-.41-.66-.09-.24-.13-.5-.13-.77,0-.6,.21-1.21,.64-1.82,.41-.58,.92-1.05,1.55-1.41,.38-.21,.75-.37,1.13-.49,.37-.12,.75-.17,1.12-.17s.71,.06,1.04,.19c.33,.12,.63,.32,.89,.58,.43,.41,.64,.87,.64,1.4,0,.6-.22,1.22-.65,1.85-.44,.63-.96,1.12-1.59,1.49-.37,.21-.74,.37-1.12,.49-.38,.12-.75,.17-1.12,.17-.39,0-.75-.07-1.08-.2-.33-.13-.63-.34-.9-.64Zm3.73-1.02c.49-.36,.93-.85,1.32-1.46s.6-1.13,.6-1.54c0-.17-.04-.31-.12-.42-.08-.11-.23-.16-.45-.16-.37,0-.85,.13-1.45,.38-.53,.23-1.01,.48-1.42,.77-.52,.35-.99,.81-1.4,1.37-.43,.59-.65,1.07-.65,1.46,0,.16,.05,.3,.15,.39,.15,.15,.39,.23,.72,.23,.41,0,.87-.1,1.39-.3,.51-.2,.96-.44,1.33-.71Z"/>
    <path d="M492.69,126.62c-.19-.2-.33-.41-.41-.66-.09-.24-.13-.5-.13-.77,0-.6,.21-1.21,.64-1.82,.41-.58,.92-1.05,1.55-1.41,.38-.21,.75-.37,1.13-.49,.37-.12,.75-.17,1.12-.17s.71,.06,1.04,.19c.33,.12,.63,.32,.89,.58,.43,.41,.64,.87,.64,1.4,0,.6-.22,1.22-.65,1.85-.44,.63-.96,1.12-1.59,1.49-.37,.21-.74,.37-1.12,.49-.38,.12-.75,.17-1.12,.17-.39,0-.75-.07-1.08-.2-.33-.13-.63-.34-.9-.64Zm3.73-1.02c.49-.36,.93-.85,1.32-1.46s.6-1.13,.6-1.54c0-.17-.04-.31-.12-.42-.08-.11-.23-.16-.45-.16-.37,0-.85,.13-1.45,.38-.53,.23-1.01,.48-1.42,.77-.52,.35-.99,.81-1.4,1.37-.43,.59-.65,1.07-.65,1.46,0,.16,.05,.3,.15,.39,.15,.15,.39,.23,.72,.23,.41,0,.87-.1,1.39-.3,.51-.2,.96-.44,1.33-.71Z"/>
    <path d="M492.69,120.62c-.19-.2-.33-.41-.41-.66-.09-.24-.13-.5-.13-.77,0-.6,.21-1.21,.64-1.82,.41-.58,.92-1.05,1.55-1.41,.38-.21,.75-.37,1.13-.49,.37-.12,.75-.17,1.12-.17s.71,.06,1.04,.19c.33,.12,.63,.32,.89,.58,.43,.41,.64,.87,.64,1.4,0,.6-.22,1.22-.65,1.85-.44,.63-.96,1.12-1.59,1.49-.37,.21-.74,.37-1.12,.49-.38,.12-.75,.17-1.12,.17-.39,0-.75-.07-1.08-.2-.33-.13-.63-.34-.9-.64Zm3.73-1.02c.49-.36,.93-.85,1.32-1.46s.6-1.13,.6-1.54c0-.17-.04-.31-.12-.42-.08-.11-.23-.16-.45-.16-.37,0-.85,.13-1.45,.38-.53,.23-1.01,.48-1.42,.77-.52,.35-.99,.81-1.4,1.37-.43,.59-.65,1.07-.65,1.46,0,.16,.05,.3,.15,.39,.15,.15,.39,.23,.72,.23,.41,0,.87-.1,1.39-.3,.51-.2,.96-.44,1.33-.71Z"/>
  </g>
  <rect class="cls-3" width="572.04" height="162.8"/>
  <circle class="cls-1" cx="212.09" cy="12.77" r="3.53"/>
  <circle class="cls-1" cx="184.34" cy="12.77" r="3.53"/>
  <circle class="cls-1" cx="150.59" cy="12.77" r="3.53"/>
  <circle class="cls-1" cx="125.71" cy="12.77" r="3.53"/>
  <circle class="cls-1" cx="101.09" cy="12.77" r="3.53"/>
  <circle class="cls-1" cx="76.34" cy="12.77" r="3.53"/>
  <circle class="cls-1" cx="240.09" cy="12.77" r="3.53"/>
  <circle class="cls-1" cx="305.09" cy="12.77" r="3.53"/>
  <circle class="cls-1" cx="336.09" cy="12.77" r="3.53"/>
  <circle class="cls-1" cx="367.09" cy="12.77" r="3.53"/>
  <circle class="cls-1" cx="398.09" cy="12.77" r="3.53"/>
  <circle class="cls-1" cx="438.28" cy="12.77" r="3.53"/>
  <circle class="cls-1" cx="468.34" cy="12.77" r="3.53"/>
  <circle class="cls-1" cx="498.22" cy="12.77" r="3.53"/>
</svg>