<?xml version="1.0" encoding="UTF-8"?>
<svg xmlns="http://www.w3.org/2000/svg" xmlns:xlink="http://www.w3.org/1999/xlink" viewBox="0 0 283.46 56.69">
  <defs>
    <style>
      .cls-1 {
        fill: #fff;
      }

      .cls-2 {
        stroke-width: .33px;
      }

      .cls-2, .cls-3, .cls-4 {
        fill: none;
      }

      .cls-2, .cls-4 {
        stroke: #231815;
        stroke-linecap: round;
        stroke-linejoin: round;
      }

      .cls-5 {
        clip-path: url(#clippath-1);
      }

      .cls-6 {
        fill: #7d7d7d;
      }

      .cls-7 {
        clip-path: url(#clippath);
      }

      .cls-4 {
        stroke-width: .66px;
      }

      .cls-8 {
        fill: #231815;
      }
    </style>
    <clipPath id="clippath">
      <rect class="cls-3" x="24.51" y="1.42" width="64.36" height="53.86"/>
    </clipPath>
    <clipPath id="clippath-1">
      <rect class="cls-3" x="194.59" y="16.03" width="64.36" height="24.63"/>
    </clipPath>
  </defs>
  <g id="_レイヤー_2" data-name="レイヤー 2">
    <rect class="cls-3" width="283.46" height="56.69"/>
  </g>
  <g id="_レイヤー_1" data-name="レイヤー 1">
    <g>
      <path class="cls-8" d="M134.96,28.3c0,1.44-.95,2.05-1.81,2.05-.99,0-1.76-.74-1.76-1.99,0-1.32,.82-2.05,1.81-2.05,1.05,0,1.76,.81,1.76,1.99Zm-1.78-1.53c-.84,0-1.18,.82-1.18,1.56,0,.86,.47,1.55,1.17,1.55s1.19-.69,1.19-1.56c0-.69-.33-1.55-1.18-1.55Z"/>
      <path class="cls-8" d="M137.62,26.9c-.06,0-.13-.01-.21-.01-.64,0-.96,.63-.96,1.28v2.1h-.59v-2.71c0-.41,0-.79-.03-1.15h.52l.03,.74h.02c.17-.48,.57-.83,1.05-.83,.06,0,.11,.01,.18,.02v.56Z"/>
    </g>
    <g class="cls-7">
      <path class="cls-1" d="M31.24,4.96h5.46c.69,0,1.49-.62,1.66-1.01,.14-.32,.24-.63,.28-.73-1.36-.86-2.96-1.37-4.66-1.37s-3.3,.51-4.66,1.37c.03,.1,.14,.41,.28,.73,.17,.39,.97,1.01,1.66,1.01"/>
      <path class="cls-4" d="M31.19,5.05h5.54c.7,0,1.51-.66,1.68-1.07,.14-.34,.25-.67,.28-.78-1.39-.92-3-1.45-4.74-1.45s-3.35,.54-4.74,1.45c.03,.1,.14,.43,.28,.78,.17,.41,.98,1.07,1.68,1.07Z"/>
      <path class="cls-2" d="M42.21,11.34c0,4.79-3.69,8.67-8.25,8.67s-8.25-3.88-8.25-8.67,3.69-8.67,8.25-8.67,8.25,3.88,8.25,8.67Z"/>
      <path class="cls-4" d="M43.09,11.34c0,5.3-4.08,9.59-9.12,9.59s-9.12-4.29-9.12-9.59S28.93,1.75,33.97,1.75s9.12,4.29,9.12,9.59Z"/>
      <path class="cls-8" d="M33.97,8.86h0c-.65,0-1.26,.25-1.72,.71-.46,.46-.72,1.07-.72,1.72,0,1.34,1.09,2.44,2.43,2.44h0c1.34,0,2.43-1.09,2.44-2.43,0-.65-.25-1.26-.71-1.72-.46-.46-1.07-.72-1.72-.72"/>
      <path class="cls-8" d="M65.25,9.15c-.11,0-.21,.04-.27,.13l-2.56,3.42c-.11,.15-.08,.37,.07,.48,.06,.05,.13,.07,.2,.07,.1,0,.21-.05,.28-.14l2.29-3.05,2.29,3.05c.07,.09,.17,.14,.27,.14,.07,0,.14-.02,.2-.07,.15-.11,.18-.33,.07-.48l-2.56-3.42c-.06-.09-.17-.13-.27-.13"/>
      <path class="cls-1" d="M62.52,4.96h5.46c.69,0,1.49-.62,1.66-1.01,.14-.32,.25-.63,.28-.73-1.36-.86-2.96-1.37-4.66-1.37s-3.3,.51-4.67,1.37c.03,.1,.14,.41,.28,.73,.17,.39,.97,1.01,1.66,1.01"/>
      <path class="cls-2" d="M73.5,11.34c0,4.79-3.69,8.67-8.25,8.67s-8.25-3.88-8.25-8.67,3.69-8.67,8.25-8.67,8.25,3.88,8.25,8.67Z"/>
      <path class="cls-4" d="M74.37,11.34c0,5.3-4.08,9.59-9.12,9.59s-9.12-4.29-9.12-9.59S60.21,1.75,65.25,1.75s9.12,4.29,9.12,9.59Z"/>
      <path class="cls-1" d="M31.24,38.97h5.46c.69,0,1.49-.62,1.66-1.01,.14-.32,.24-.64,.28-.73-1.36-.86-2.96-1.37-4.66-1.37s-3.3,.51-4.66,1.37c.03,.1,.14,.41,.28,.73,.17,.39,.97,1.01,1.66,1.01"/>
      <path class="cls-4" d="M31.19,39.06h5.54c.7,0,1.51-.66,1.68-1.07,.14-.34,.25-.67,.28-.78-1.39-.92-3-1.45-4.74-1.45s-3.35,.54-4.73,1.45c.03,.1,.14,.43,.28,.78,.17,.41,.98,1.07,1.68,1.07Z"/>
      <path class="cls-2" d="M42.22,45.35c0,4.79-3.69,8.67-8.25,8.67s-8.25-3.88-8.25-8.67,3.69-8.67,8.25-8.67,8.25,3.88,8.25,8.67Z"/>
      <ellipse class="cls-4" cx="33.97" cy="45.35" rx="9.12" ry="9.59"/>
      <path class="cls-8" d="M36.4,43.57h3.08v3.25h-3.08v-3.25Zm3.42-.68h-3.76c-.19,0-.34,.15-.34,.34v3.93c0,.19,.15,.34,.34,.34h3.76c.19,0,.34-.15,.34-.34v-3.93c0-.19-.15-.34-.34-.34"/>
      <path class="cls-8" d="M28.45,46.59v-2.8l2.68,1.4-2.68,1.4Zm-.34-3.71c-.06,0-.12,.02-.18,.05-.1,.06-.16,.17-.16,.29v3.93c0,.12,.06,.23,.16,.29,.05,.03,.12,.05,.18,.05l.16-.04,3.76-1.96c.11-.06,.18-.18,.18-.3s-.07-.24-.18-.3l-3.76-1.97s-.1-.04-.16-.04"/>
      <path class="cls-8" d="M34.58,42.89c-.13,0-.26,.08-.32,.21l-1.71,3.93c-.07,.17,0,.38,.18,.45l.14,.03c.13,0,.26-.08,.31-.21l1.71-3.93c.07-.17,0-.37-.18-.45-.04-.02-.09-.03-.13-.03"/>
      <path class="cls-8" d="M67.81,43.14c-.1,0-.21,.05-.27,.14l-2.29,3.05-2.29-3.05c-.07-.09-.17-.14-.27-.14-.07,0-.14,.02-.21,.07-.15,.11-.18,.33-.07,.48l2.56,3.42c.06,.09,.17,.14,.27,.14s.21-.05,.27-.14l2.56-3.42c.11-.15,.08-.37-.07-.48-.06-.05-.13-.07-.2-.07"/>
      <path class="cls-2" d="M73.5,45.35c0,4.79-3.69,8.67-8.25,8.67s-8.25-3.88-8.25-8.67,3.69-8.67,8.25-8.67,8.25,3.88,8.25,8.67Z"/>
      <path class="cls-4" d="M74.37,45.35c0,5.3-4.08,9.59-9.12,9.59s-9.12-4.29-9.12-9.59,4.09-9.59,9.12-9.59,9.12,4.29,9.12,9.59Z"/>
    </g>
    <polygon class="cls-6" points="74.7 45.18 88.87 54.04 88.87 36.32 74.7 45.18"/>
    <polygon class="cls-6" points="74.7 12.22 88.87 21.08 88.87 3.37 74.7 12.22"/>
    <polygon class="cls-6" points="244.78 27.37 258.95 36.23 258.95 18.51 244.78 27.37"/>
    <g class="cls-5">
      <path class="cls-8" d="M221.17,40.66c-.13,0-.26-.02-.38-.06-.46-.15-.67-.49-.59-.93,.11-.6,.7-.98,1.05-1.08,.39-.11,.7-.13,1.08-.05v-2.23c0-.08,.07-.15,.15-.15s.15,.07,.15,.15v2.42s-.02,.09-.06,.12c-.04,.03-.08,.04-.13,.03-.42-.11-.71-.1-1.11,0-.3,.08-.75,.4-.84,.84-.02,.11-.08,.44,.39,.6,.22,.07,.53,.05,.79-.06,.57-.24,.69-.67,.69-.82,0-.08,.07-.15,.15-.15s.15,.07,.15,.15c0,.25-.18,.8-.87,1.09-.2,.09-.42,.13-.63,.13"/>
      <path class="cls-8" d="M219.22,39.74c-.14,0-.27-.02-.38-.06-.45-.15-.67-.49-.59-.94,.11-.6,.7-.98,1.05-1.08,.4-.11,.7-.1,1.08-.02v-2.23c0-.08,.07-.15,.15-.15s.15,.07,.15,.15v2.42s-.02,.09-.06,.12c-.04,.03-.08,.04-.13,.03-.43-.11-.72-.14-1.12-.03-.3,.08-.75,.4-.84,.85-.02,.11-.08,.44,.39,.6,.14,.05,.33,.05,.51,.02,.08-.02,.16,.04,.17,.12,.01,.08-.04,.16-.12,.17-.09,.02-.18,.02-.27,.02"/>
      <path class="cls-8" d="M215.88,38.32h-8.9v-2.32c0-.09,.07-.16,.16-.16s.16,.07,.16,.16v2h8.58c.09,0,.16,.07,.16,.16s-.07,.16-.16,.16"/>
      <path class="cls-8" d="M234.24,38.32h-8.9c-.09,0-.16-.07-.16-.16s.07-.16,.16-.16h8.58v-2c0-.09,.07-.16,.16-.16s.16,.07,.16,.16v2.32Z"/>
      <path class="cls-1" d="M201.22,19.46h5.49c.69,0,1.5-.63,1.67-1.02,.14-.33,.25-.64,.28-.74-1.37-.87-2.97-1.38-4.69-1.38s-3.32,.51-4.69,1.38c.03,.1,.14,.41,.28,.74,.17,.39,.97,1.02,1.66,1.02"/>
      <path class="cls-4" d="M201.25,19.41h5.42c.69,0,1.48-.61,1.64-.99,.14-.32,.24-.62,.28-.72-1.35-.84-2.93-1.34-4.63-1.34s-3.28,.5-4.63,1.34c.03,.09,.14,.4,.28,.72,.17,.38,.96,.99,1.64,.99Z"/>
      <path class="cls-2" d="M212.19,25.87c0,4.78-3.68,8.65-8.23,8.65s-8.23-3.87-8.23-8.65,3.68-8.65,8.23-8.65,8.23,3.87,8.23,8.65Z"/>
      <path class="cls-4" d="M213,25.87c0,5.25-4.05,9.51-9.04,9.51s-9.04-4.26-9.04-9.51,4.05-9.51,9.04-9.51,9.04,4.26,9.04,9.51Z"/>
      <path class="cls-8" d="M201.24,21.9s-.1,.01-.15,.03c-.17,.08-.25,.29-.17,.46l2.69,5.77c.06,.13,.18,.2,.31,.2l.14-.03c.17-.08,.25-.28,.17-.46l-2.69-5.77c-.06-.13-.18-.2-.31-.2"/>
      <path class="cls-8" d="M204.6,21.11h-1.28c-.38,0-.71,.24-.82,.61l-.18,.57c-.06,.18,.05,.37,.23,.43,.03,.01,.07,.02,.1,.02,.15,0,.28-.1,.33-.24l.18-.57c.02-.07,.09-.12,.16-.12h1.28c.07,0,.14,.05,.16,.12l2.45,8h-6.52l1.23-3.99c.05-.18-.05-.37-.23-.43-.03-.01-.07-.01-.1-.01-.15,0-.28,.09-.33,.24l-1.22,3.99c-.07,.21-.03,.43,.1,.61,.13,.18,.33,.28,.55,.28h6.52c.22,0,.42-.1,.55-.28,.13-.18,.17-.4,.11-.61l-2.46-8c-.11-.36-.44-.61-.82-.61"/>
      <path class="cls-1" d="M232.67,19.46h5.49c.69,0,1.5-.63,1.67-1.02,.14-.33,.25-.64,.28-.74-1.37-.87-2.97-1.38-4.69-1.38s-3.32,.51-4.69,1.38c.03,.1,.14,.41,.28,.74,.17,.39,.97,1.02,1.67,1.02"/>
      <path class="cls-4" d="M232.7,19.41h5.42c.68,0,1.48-.61,1.64-.99,.14-.32,.24-.62,.28-.72-1.35-.84-2.93-1.34-4.63-1.34s-3.27,.5-4.63,1.34c.03,.09,.14,.4,.28,.72,.16,.38,.96,.99,1.64,.99Z"/>
      <path class="cls-2" d="M243.64,25.87c0,4.78-3.68,8.65-8.23,8.65s-8.23-3.87-8.23-8.65,3.68-8.65,8.23-8.65,8.23,3.87,8.23,8.65Z"/>
      <path class="cls-4" d="M244.45,25.87c0,5.25-4.05,9.51-9.04,9.51s-9.04-4.26-9.04-9.51,4.05-9.51,9.04-9.51,9.04,4.26,9.04,9.51Z"/>
      <path class="cls-8" d="M237.87,20.61h0c-.19,0-.34,.15-.34,.34v5.19c-.37-.07-.72-.1-1.07-.1-.72,0-1.41,.15-2.02,.44-1.5,.71-2.27,2.23-1.72,3.39,.36,.76,1.2,1.18,2.15,1.18,.5,0,1.04-.12,1.56-.36,1.21-.57,1.97-1.74,1.84-2.83-.02-.17-.17-.3-.34-.3-.01,0-.03,0-.04,0-.19,.02-.32,.19-.3,.38,.1,.8-.5,1.68-1.45,2.13-.43,.2-.87,.3-1.28,.3-.69,0-1.27-.28-1.52-.79-.39-.82,.24-1.93,1.39-2.47,.52-.25,1.11-.37,1.73-.37,.43,0,.87,.06,1.32,.17,.03,0,.06,.01,.09,.01,.08,0,.15-.02,.21-.07,.08-.07,.13-.16,.13-.27v-5.62c0-.19-.15-.34-.34-.35"/>
    </g>
  </g>
</svg>