<svg id="レイヤー_1" data-name="レイヤー 1" xmlns="http://www.w3.org/2000/svg" xmlns:xlink="http://www.w3.org/1999/xlink" width="238.11" height="60.58" viewBox="0 0 238.11 60.58"><defs><style>.cls-1,.cls-5,.cls-6{fill:none;}.cls-2{fill:#231815;}.cls-3{fill:#fff;}.cls-4{clip-path:url(#clip-path);}.cls-5,.cls-6{stroke:#231815;}.cls-5{stroke-width:0.9px;}.cls-6{stroke-width:0.99px;}</style><clipPath id="clip-path" transform="translate(0 0)"><rect class="cls-1" width="238.11" height="60.58"/></clipPath></defs><polygon class="cls-2" points="33.45 9.61 57.88 51.92 9.02 51.93 33.45 9.61"/><polygon class="cls-3" points="40.66 25.51 32.17 30.93 35.58 16.58 31.05 16.67 29.04 35.02 35.3 30.67 33.57 41.29 32.38 40.45 33.32 49.2 37.57 41.59 36.11 41.94 40.66 25.51"/><polygon class="cls-2" points="204.66 9.61 180.23 51.92 229.09 51.93 204.66 9.61"/><g class="cls-4"><path class="cls-3" d="M206.8,40.27a2,2,0,1,1-4,0l-.66-22.62a2.67,2.67,0,1,1,5.33,0Z" transform="translate(0 0)"/><path class="cls-3" d="M204.8,48.79a2,2,0,1,0-2-2,2,2,0,0,0,2,2" transform="translate(0 0)"/></g><rect class="cls-2" x="70" y="30.3" width="97.93" height="20.75"/><g class="cls-4"><path class="cls-2" d="M94,26.23a7.78,7.78,0,0,1-3.17.57c-3.38,0-5.93-2.14-5.93-6.07a6,6,0,0,1,6.27-6.3A6.54,6.54,0,0,1,94,15l-.38,1.27a5.56,5.56,0,0,0-2.42-.5c-2.81,0-4.68,1.8-4.68,4.95,0,2.93,1.69,4.82,4.61,4.82a6.29,6.29,0,0,0,2.53-.5Z" transform="translate(0 0)"/><path class="cls-2" d="M101.87,21.64l-1.18-3.46c-.26-.78-.44-1.49-.62-2.18h0c-.17.71-.37,1.44-.6,2.17l-1.17,3.47Zm-3.93,1.21-1.25,3.77h-1.6l4.07-12H101l4.09,12h-1.65l-1.28-3.77Z" transform="translate(0 0)"/><path class="cls-2" d="M107.93,14.63v7.1c0,2.68,1.2,3.82,2.8,3.82,1.78,0,2.92-1.17,2.92-3.82v-7.1h1.56v7c0,3.68-1.94,5.2-4.54,5.2s-4.3-1.41-4.3-5.13V14.63Z" transform="translate(0 0)"/></g><polygon class="cls-2" points="120.17 15.94 116.53 15.94 116.53 14.63 125.41 14.63 125.41 15.94 121.74 15.94 121.74 26.62 120.17 26.62 120.17 15.94"/><rect class="cls-2" x="126.74" y="14.63" width="1.55" height="11.99"/><g class="cls-4"><path class="cls-2" d="M131.93,20.69c0,2.57,1.39,4.86,3.83,4.86s3.84-2.26,3.84-5c0-2.39-1.24-4.88-3.82-4.88s-3.85,2.37-3.85,5m9.31-.19c0,4.13-2.51,6.32-5.57,6.32s-5.39-2.46-5.39-6.09c0-3.81,2.37-6.3,5.57-6.3s5.39,2.51,5.39,6.07" transform="translate(0 0)"/><path class="cls-2" d="M143.25,26.62v-12h1.69l3.84,6.06a34.32,34.32,0,0,1,2.16,3.9l0,0c-.14-1.6-.18-3.06-.18-4.93v-5h1.46v12h-1.56l-3.81-6.09a36,36,0,0,1-2.24-4l-.06,0c.09,1.51.13,2.95.13,4.95v5.12Z" transform="translate(0 0)"/></g><rect class="cls-5" x="70.07" y="8.86" width="97.72" height="42.12"/><g class="cls-4"><path class="cls-3" d="M81,36.38h.33A1.25,1.25,0,0,0,82.6,35c0-.8-.33-1.29-1.18-1.3a1.68,1.68,0,0,0-.41,0Zm-.78-3.18a4.49,4.49,0,0,1,1.13-.13,2.12,2.12,0,0,1,1.56.49,1.86,1.86,0,0,1,.48,1.35,1.8,1.8,0,0,1-1.11,1.77v0c.51.15.78.64.93,1.54A10.49,10.49,0,0,0,83.61,40h-.8a9,9,0,0,1-.36-1.71c-.16-.94-.46-1.3-1.13-1.3H81v3h-.78Z" transform="translate(0 0)"/></g><rect class="cls-3" x="84.57" y="33.1" width="0.79" height="6.89"/><g class="cls-4"><path class="cls-3" d="M86.61,39.08a2.09,2.09,0,0,0,1,.28,1.08,1.08,0,0,0,1.14-1.17,1.77,1.77,0,0,0-.91-1.43,2.56,2.56,0,0,1-1.3-1.91A1.74,1.74,0,0,1,88.36,33a1.79,1.79,0,0,1,1,.26l-.19.68a1.38,1.38,0,0,0-.82-.24,1,1,0,0,0-1,1c0,.69.36.95,1,1.42a2.37,2.37,0,0,1,1.2,2,1.85,1.85,0,0,1-1.93,1.93,2.26,2.26,0,0,1-1.17-.3Z" transform="translate(0 0)"/><path class="cls-3" d="M90.62,33.1h.79v3.27h0l.43-.83,1.29-2.44H94L92.33,36l1.73,4h-.85L91.8,36.67l-.39.66V40h-.79Z" transform="translate(0 0)"/><path class="cls-3" d="M96.89,36.54c0,1.42.28,2.84,1.15,2.84s1.12-1.51,1.12-2.86-.23-2.81-1.13-2.81-1.14,1.43-1.14,2.83m3.09,0c0,2.59-.89,3.58-2,3.58s-1.92-1.22-1.92-3.54.82-3.52,2-3.52S100,34.29,100,36.49" transform="translate(0 0)"/></g><polygon class="cls-3" points="101.08 33.1 103.71 33.1 103.71 33.78 101.87 33.78 101.87 36.2 103.59 36.2 103.59 36.86 101.87 36.86 101.87 39.99 101.08 39.99 101.08 33.1"/><polygon class="cls-3" points="108.73 36.72 107.01 36.72 107.01 39.3 108.97 39.3 108.97 39.99 106.22 39.99 106.22 33.1 108.85 33.1 108.85 33.78 107.01 33.78 107.01 36.05 108.73 36.05 108.73 36.72"/><polygon class="cls-3" points="110 33.1 110.79 33.1 110.79 39.33 112.73 39.33 112.73 39.99 110 39.99 110 33.1"/><polygon class="cls-3" points="116.2 36.72 114.47 36.72 114.47 39.3 116.43 39.3 116.43 39.99 113.68 39.99 113.68 33.1 116.31 33.1 116.31 33.78 114.47 33.78 114.47 36.05 116.2 36.05 116.2 36.72"/><g class="cls-4"><path class="cls-3" d="M120.47,39.87a2.25,2.25,0,0,1-1,.18c-1.35,0-2.32-1.08-2.32-3.43,0-2.72,1.36-3.59,2.44-3.59a1.71,1.71,0,0,1,.86.18l-.18.66a1.49,1.49,0,0,0-.69-.14c-.74,0-1.6.72-1.6,2.82s.78,2.81,1.62,2.81a1.76,1.76,0,0,0,.73-.16Z" transform="translate(0 0)"/></g><polygon class="cls-3" points="122.34 33.8 121.08 33.8 121.08 33.09 124.38 33.09 124.38 33.8 123.13 33.8 123.13 39.99 122.34 39.99 122.34 33.8"/><g class="cls-4"><path class="cls-3" d="M126.1,36.38h.33A1.25,1.25,0,0,0,127.68,35c0-.8-.32-1.29-1.17-1.3a1.58,1.58,0,0,0-.41,0Zm-.79-3.18a4.63,4.63,0,0,1,1.14-.13,2.11,2.11,0,0,1,1.55.49,2,2,0,0,1-.62,3.12v0c.51.15.77.64.93,1.54A8.68,8.68,0,0,0,128.7,40h-.8a8.74,8.74,0,0,1-.37-1.71c-.15-.94-.45-1.3-1.12-1.3h-.31v3h-.79Z" transform="translate(0 0)"/></g><rect class="cls-3" x="129.66" y="33.1" width="0.79" height="6.89"/><g class="cls-4"><path class="cls-3" d="M134.86,39.87a2.25,2.25,0,0,1-1,.18c-1.35,0-2.31-1.08-2.31-3.43,0-2.72,1.35-3.59,2.43-3.59a1.71,1.71,0,0,1,.86.18l-.17.66a1.57,1.57,0,0,0-.7-.14c-.74,0-1.6.72-1.6,2.82s.78,2.81,1.62,2.81a1.76,1.76,0,0,0,.73-.16Z" transform="translate(0 0)"/><path class="cls-3" d="M137.12,39.08a2.09,2.09,0,0,0,1,.28,1.08,1.08,0,0,0,1.15-1.17,1.77,1.77,0,0,0-.91-1.43,2.56,2.56,0,0,1-1.3-1.91A1.74,1.74,0,0,1,138.87,33a1.79,1.79,0,0,1,1,.26l-.19.68a1.4,1.4,0,0,0-.82-.24.94.94,0,0,0-1,1c0,.69.36.95,1,1.42a2.37,2.37,0,0,1,1.2,2,1.85,1.85,0,0,1-1.94,1.93,2.22,2.22,0,0,1-1.16-.3Z" transform="translate(0 0)"/></g><polygon class="cls-3" points="141.92 33.1 141.92 36.05 143.85 36.05 143.85 33.1 144.64 33.1 144.64 39.99 143.85 39.99 143.85 36.77 141.92 36.77 141.92 39.99 141.13 39.99 141.13 33.1 141.92 33.1"/><g class="cls-4"><path class="cls-3" d="M146.56,36.54c0,1.42.27,2.84,1.14,2.84s1.13-1.51,1.13-2.86-.24-2.81-1.14-2.81-1.13,1.43-1.13,2.83m3.09,0c0,2.59-.89,3.58-2,3.58s-1.91-1.22-1.91-3.54.82-3.52,2-3.52,1.89,1.28,1.89,3.48" transform="translate(0 0)"/><path class="cls-3" d="M153.76,39.87a2.3,2.3,0,0,1-1,.18c-1.35,0-2.31-1.08-2.31-3.43,0-2.72,1.35-3.59,2.44-3.59a1.74,1.74,0,0,1,.86.18l-.18.66a1.52,1.52,0,0,0-.69-.14c-.74,0-1.6.72-1.6,2.82s.78,2.81,1.62,2.81a1.71,1.71,0,0,0,.72-.16Z" transform="translate(0 0)"/><path class="cls-3" d="M154.72,33.1h.79v3.27h0c.16-.29.3-.56.43-.83l1.29-2.44h.87L156.43,36l1.73,4h-.85l-1.41-3.32-.39.66V40h-.79Z" transform="translate(0 0)"/><path class="cls-3" d="M98,49.13a1.73,1.73,0,0,0,.3,0c.87,0,1.71-.62,1.71-3,0-1.73-.54-2.69-1.64-2.69a1.44,1.44,0,0,0-.37,0ZM97.23,43a3.87,3.87,0,0,1,1.07-.13,2.27,2.27,0,0,1,1.61.52,3.54,3.54,0,0,1,.93,2.79,4.12,4.12,0,0,1-.82,2.91,2.44,2.44,0,0,1-1.91.75,3.94,3.94,0,0,1-.88-.08Z" transform="translate(0 0)"/><path class="cls-3" d="M102.48,46.33c0,1.42.28,2.83,1.14,2.83s1.13-1.5,1.13-2.85-.24-2.82-1.14-2.82-1.13,1.44-1.13,2.84m3.09,0c0,2.58-.89,3.58-2,3.58s-1.91-1.22-1.91-3.54.82-3.52,2-3.52,1.88,1.28,1.88,3.48" transform="translate(0 0)"/><path class="cls-3" d="M108.12,49.78v-6.9h.74l1.27,3.23c.29.74.65,1.66.88,2.41h0c-.06-1.09-.09-2-.09-3.17V42.88h.7v6.9h-.74l-1.31-3.32a24.21,24.21,0,0,1-.82-2.34h0c.06.92.08,1.8.08,3.27v2.39Z" transform="translate(0 0)"/><path class="cls-3" d="M113.57,46.33c0,1.42.27,2.83,1.14,2.83s1.13-1.5,1.13-2.85-.24-2.82-1.14-2.82-1.13,1.44-1.13,2.84m3.08,0c0,2.58-.89,3.58-2,3.58s-1.91-1.22-1.91-3.54.82-3.52,2-3.52,1.88,1.28,1.88,3.48" transform="translate(0 0)"/></g><polygon class="cls-3" points="118.32 43.59 117.06 43.59 117.06 42.88 120.36 42.88 120.36 43.59 119.11 43.59 119.11 49.77 118.32 49.77 118.32 43.59"/><g class="cls-4"><path class="cls-3" d="M123.27,46.33c0,1.42.28,2.83,1.15,2.83s1.12-1.5,1.12-2.85-.23-2.82-1.13-2.82-1.14,1.44-1.14,2.84m3.09,0c0,2.58-.89,3.58-2,3.58s-1.92-1.22-1.92-3.54.82-3.52,2-3.52,1.88,1.28,1.88,3.48" transform="translate(0 0)"/><path class="cls-3" d="M128.25,46.29a1.3,1.3,0,0,0,.31,0c.77,0,1.3-.51,1.3-1.49,0-.7-.3-1.34-1.17-1.34a1.55,1.55,0,0,0-.44.06ZM127.46,43a4.73,4.73,0,0,1,1.15-.13,2.08,2.08,0,0,1,1.52.51,1.93,1.93,0,0,1,.51,1.42,2.14,2.14,0,0,1-.42,1.41,2,2,0,0,1-1.62.77h-.35v2.82h-.79Z" transform="translate(0 0)"/></g><polygon class="cls-3" points="134.22 46.5 132.49 46.5 132.49 49.09 134.46 49.09 134.46 49.77 131.7 49.77 131.7 42.88 134.33 42.88 134.33 43.57 132.49 43.57 132.49 45.84 134.22 45.84 134.22 46.5"/><g class="cls-4"><path class="cls-3" d="M135.49,49.78v-6.9h.74l1.27,3.23c.29.74.65,1.66.88,2.41h0c-.06-1.09-.09-2-.09-3.17V42.88h.7v6.9h-.74L137,46.46a24.21,24.21,0,0,1-.82-2.34h0c.06.92.08,1.8.08,3.27v2.39Z" transform="translate(0 0)"/><rect class="cls-6" x="0.5" y="0.5" width="237.12" height="59.58"/></g></svg>