<svg id="レイヤー_1" data-name="レイヤー 1" xmlns="http://www.w3.org/2000/svg" width="31.2mm" height="31.37mm" viewBox="0 0 88.44 88.91"><defs><style>.cls-1,.cls-2{fill:#dbdbdb;stroke:#000;}.cls-1,.cls-10,.cls-11,.cls-14,.cls-15,.cls-16,.cls-17,.cls-5,.cls-7,.cls-8,.cls-9{stroke-width:0.18px;}.cls-2{stroke-width:0.22px;}.cls-3{fill:#666;}.cls-4{fill:#8a8a8a;}.cls-16,.cls-17,.cls-18,.cls-4,.cls-5,.cls-7{stroke:#040000;}.cls-10,.cls-13,.cls-14,.cls-15,.cls-16,.cls-17,.cls-18,.cls-4,.cls-5,.cls-7,.cls-8{stroke-linecap:round;}.cls-10,.cls-11,.cls-12,.cls-13,.cls-14,.cls-15,.cls-16,.cls-17,.cls-18,.cls-4,.cls-5,.cls-7,.cls-8{stroke-linejoin:round;}.cls-12,.cls-13,.cls-18,.cls-4{stroke-width:0.09px;}.cls-14,.cls-24,.cls-5,.cls-8,.cls-9{fill:#fff;}.cls-13,.cls-16,.cls-18,.cls-19,.cls-20,.cls-23,.cls-6{fill:none;}.cls-7{fill:#b5b5b6;}.cls-10,.cls-11,.cls-8,.cls-9{stroke:#231815;}.cls-19,.cls-20,.cls-9{stroke-miterlimit:10;}.cls-10,.cls-11,.cls-12,.cls-21{fill:#231815;}.cls-12,.cls-13{stroke:#fff;}.cls-14,.cls-15,.cls-19,.cls-20,.cls-23{stroke:#4d4d4d;}.cls-15,.cls-17{fill:#999;}.cls-19,.cls-20,.cls-23{stroke-width:0.36px;}.cls-20{stroke-dasharray:0.18 0.36;}.cls-22{fill:#595757;}.cls-23{stroke-dasharray:0.18 0.36;}</style></defs><path class="cls-1" d="M45,88.81H68.35A2.08,2.08,0,0,0,70.07,87H86.34a1.7,1.7,0,0,0,1.45-1.49l-.05-7.24a1.57,1.57,0,0,0-1.55-1.64L71.7,75.27c0-.53-.6-1.58-1.43-1.65l-1,0v-.25L53.1,71l0-1.83-.13-5H34.38l.08,5.19V78.7c0,8.65,8,10.12,10.78,10.12" transform="translate(-0.21)"/><path class="cls-2" d="M34.4,78.94" transform="translate(-0.21)"/><path class="cls-2" d="M52.59,72.16c-1.8,3.43-4.08,3.92-4.08,3.92" transform="translate(-0.21)"/><path class="cls-1" d="M68.52,75.35c-2,2.85-2.21,9.55-.57,11.84" transform="translate(-0.21)"/><path class="cls-1" d="M71.38,75.59c-2.06,2.86-2.45,8.82-1.64,10.46" transform="translate(-0.21)"/><ellipse class="cls-3" cx="87.09" cy="82.14" rx="4.95" ry="1.54" transform="translate(-0.39 164.09) rotate(-86.52)"/><ellipse class="cls-4" cx="43.48" cy="64.19" rx="9.31" ry="4.76"/><path class="cls-5" d="M50.65,53.05c0-1.94-3.1-3.51-6.91-3.51s-6.91,1.57-6.91,3.51l-.07,5.5V64c0,2,3.11,3.6,6.94,3.6S50.65,66,50.65,64v-11Z" transform="translate(-0.21)"/><path class="cls-6" d="M39.93,47.94" transform="translate(-0.21)"/><ellipse class="cls-7" cx="43.5" cy="52.84" rx="5.99" ry="2.72"/><polyline class="cls-8" points="46.06 53.24 45.97 51.5 47.03 51.62 47.17 53.6"/><rect class="cls-9" x="46.18" y="51.34" width="1.07" height="0.36" rx="0.13" transform="translate(10.87 -8.2) rotate(11.37)"/><polyline class="cls-8" points="45.78 55.3 45.69 53.41 46.76 53.53 46.89 54.93"/><rect class="cls-9" x="45.9" y="53.25" width="1.07" height="0.36" rx="0.13" transform="translate(11.24 -8.11) rotate(11.37)"/><polyline class="cls-8" points="38.75 54.34 38.65 51.51 39.72 51.63 39.86 54.98"/><rect class="cls-9" x="38.87" y="51.36" width="1.07" height="0.36" rx="0.13" transform="translate(10.73 -6.76) rotate(11.37)"/><polyline class="cls-8" points="40.98 53.3 40.89 50.76 41.95 50.88 42.09 53.15"/><rect class="cls-9" x="41.1" y="50.61" width="1.07" height="0.36" rx="0.13" transform="translate(10.62 -7.21) rotate(11.37)"/><polyline class="cls-8" points="40.39 55.03 40.3 53.25 41.36 53.37 41.5 55.29"/><rect class="cls-9" x="40.51" y="53.09" width="1.07" height="0.36" rx="0.13" transform="translate(11.1 -7.05) rotate(11.37)"/><polygon class="cls-10" points="43.11 52.55 43.67 52.63 44.33 51.59 43.81 51.54 43.11 52.55"/><polyline class="cls-11" points="43.11 55.46 43.11 52.55 44.33 51.59 44.33 55.53"/><line class="cls-12" x1="43.68" y1="55.17" x2="43.68" y2="52.73"/><polyline class="cls-13" points="43.11 52.55 43.67 52.63 44.33 51.59"/><g id="CIRCLE"><circle class="cls-14" cx="44.47" cy="9.38" r="9.29"/></g><g id="CIRCLE-2" data-name="CIRCLE"><circle class="cls-15" cx="44.47" cy="9.38" r="8.33"/></g><g id="ARC"><path class="cls-16" d="M51.52,7.69A7,7,0,0,0,37.65,9.36" transform="translate(-0.21)"/></g><g id="ARC-2" data-name="ARC"><path class="cls-14" d="M51.52,7.72a7,7,0,1,0,0,3.33" transform="translate(-0.21)"/></g><polyline class="cls-15" points="51.39 11.2 48.61 11.2 48.61 7.61 51.39 7.61"/><path class="cls-17" d="M51.6,11.2" transform="translate(-0.21)"/><path class="cls-17" d="M51.6,7.61" transform="translate(-0.21)"/><g id="LINE"><line class="cls-18" x1="37.3" y1="9.4" x2="37.3" y2="9.43"/></g><path d="M39.64,8.91c-1,.06-1.78.23-1.78.43s.74.37,1.76.42a.91.91,0,0,0,.79.48.87.87,0,0,0,.77-.48c1,0,1.76-.22,1.76-.42s-.75-.37-1.77-.42a.86.86,0,0,0-.76-.47.88.88,0,0,0-.77.46" transform="translate(-0.21)"/><path d="M46,4.89c-1,.06-1.78.23-1.78.43s.74.36,1.76.42a.91.91,0,0,0,.79.48.87.87,0,0,0,.77-.48c1-.06,1.76-.22,1.76-.42s-.75-.37-1.77-.43a.87.87,0,0,0-1.53,0" transform="translate(-0.21)"/><path d="M41.34,5.55c-.68.77-1.1,1.42-1,1.57s.78-.27,1.55-1A.9.9,0,0,0,42.83,6,.89.89,0,0,0,43,5.06c.68-.76,1.08-1.4.94-1.54s-.79.27-1.55.95a.91.91,0,0,0-.87.21.92.92,0,0,0-.22.87" transform="translate(-0.21)"/><path d="M45.07,8.6c0-1-.22-1.78-.42-1.78s-.37.74-.43,1.77a.88.88,0,0,0-.48.78.9.9,0,0,0,.48.78c.06,1,.23,1.75.43,1.75s.36-.74.42-1.77a.88.88,0,0,0,.47-.76.9.9,0,0,0-.47-.77" transform="translate(-0.21)"/><path d="M46,13.81a.88.88,0,0,0,.77.46.86.86,0,0,0,.76-.47c1-.06,1.77-.22,1.77-.42S48.56,13,47.54,13a.87.87,0,0,0-.77-.47A.9.9,0,0,0,46,13c-1,.06-1.76.23-1.76.43s.75.37,1.78.43" transform="translate(-0.21)"/><path d="M41.34,13.14a.91.91,0,0,0,.22.87.86.86,0,0,0,.87.21c.76.69,1.41,1.09,1.55.95s-.26-.78-.94-1.54a.87.87,0,0,0-1.1-1.1c-.77-.68-1.41-1.09-1.55-.95s.27.79,1,1.56" transform="translate(-0.21)"/><line class="cls-19" x1="44.34" y1="51.37" x2="44.34" y2="51.28"/><line class="cls-20" x1="44.34" y1="50.91" x2="44.34" y2="12.79"/><line class="cls-19" x1="44.34" y1="12.6" x2="44.34" y2="12.51"/><path class="cls-21" d="M14.49,73.54h.65l.07.42h0a1.93,1.93,0,0,1,1.19-.52c1,0,1.52.78,1.52,2s-.79,2.08-1.66,2.08a1.62,1.62,0,0,1-1-.44l0,.66V79h-.8Zm2.61,1.88c0-.81-.25-1.3-.9-1.3a1.31,1.31,0,0,0-.91.47v1.88a1.29,1.29,0,0,0,.83.35C16.68,76.82,17.1,76.32,17.1,75.42Z" transform="translate(-0.21)"/><path class="cls-21" d="M18.9,76.49V71.81h.8v4.72c0,.22.09.3.19.3l.13,0,.11.61a1.14,1.14,0,0,1-.44.07C19.11,77.49,18.9,77.11,18.9,76.49Z" transform="translate(-0.21)"/><path class="cls-21" d="M20.93,76V73.54h.81v2.33c0,.66.19.92.64.92s.6-.17.93-.57V73.54h.8v3.85h-.66l-.06-.58h0a1.61,1.61,0,0,1-1.25.68C21.29,77.49,20.93,77,20.93,76Z" transform="translate(-0.21)"/><path class="cls-21" d="M25,78.11a1,1,0,0,1,.56-.84v0a.72.72,0,0,1-.35-.63.94.94,0,0,1,.44-.72v0a1.28,1.28,0,0,1-.52-1,1.4,1.4,0,0,1,1.5-1.38,1.81,1.81,0,0,1,.56.1h1.36v.6h-.73a1.1,1.1,0,0,1,.25.71,1.32,1.32,0,0,1-1.44,1.33,1.42,1.42,0,0,1-.54-.12.48.48,0,0,0-.21.4c0,.23.15.38.64.38h.71c.91,0,1.39.28,1.39.94s-.79,1.34-2,1.34C25.71,79.12,25,78.78,25,78.11Zm2.84-.2c0-.33-.25-.42-.72-.42h-.59a2.74,2.74,0,0,1-.51-.06.69.69,0,0,0-.33.56c0,.38.39.6,1,.6S27.88,78.26,27.88,77.91Zm-.49-3.09a.73.73,0,1,0-1.45,0,.73.73,0,1,0,1.45,0Z" transform="translate(-0.21)"/><path class="cls-21" d="M.21,9.05l.57-.41a.9.9,0,0,0,.83.56c.52,0,.78-.28.78-1V4.65H3.2V8.24A1.46,1.46,0,0,1,1.7,9.9,1.57,1.57,0,0,1,.21,9.05Z" transform="translate(-0.21)"/><path class="cls-21" d="M4.24,8.79c0-.83.7-1.25,2.3-1.43,0-.45-.17-.84-.74-.84a2.13,2.13,0,0,0-1.11.39l-.3-.54a2.89,2.89,0,0,1,1.55-.51c1,0,1.41.61,1.41,1.63V9.81H6.69l-.07-.44h0a1.93,1.93,0,0,1-1.23.53A1.06,1.06,0,0,1,4.24,8.79Zm2.3,0v-1C5.4,8,5,8.3,5,8.73s.26.54.61.54A1.36,1.36,0,0,0,6.54,8.82Z" transform="translate(-0.21)"/><path class="cls-21" d="M8.21,7.89a1.9,1.9,0,0,1,1.91-2,1.66,1.66,0,0,1,1.12.44l-.4.53a1,1,0,0,0-.68-.3C9.51,6.53,9,7.07,9,7.89s.45,1.36,1.09,1.36A1.35,1.35,0,0,0,11,8.9l.34.53a2,2,0,0,1-1.26.47A1.82,1.82,0,0,1,8.21,7.89Z" transform="translate(-0.21)"/><path class="cls-21" d="M12.1,4.23h.8V7.82h0L14.41,6h.9L14,7.53l1.45,2.28h-.88l-1-1.74-.64.74v1h-.8Z" transform="translate(-0.21)"/><path class="cls-22" d="M40.56,29.49c-2.24,2.16-3.31,6.09.68,11.53l-3.54-.36c-2.54-1.81-4-7.26-1.75-11.8l-3.6-.75,9.18-2.25,1.77,3.85Z" transform="translate(-0.21)"/><polyline class="cls-23" points="36.71 9.76 32.18 9.76 18.85 31.08 31.04 51.6 37.78 51.6"/><polyline class="cls-23" points="39.26 5.45 22.97 5.45 7.57 31.48 21.66 54.82 40.63 54.82"/><polyline class="cls-23" points="40.84 49.54 30.07 31.42 41.85 12.58"/><polyline class="cls-23" points="47.34 50.42 58.11 32.29 46.33 13.46"/><polyline class="cls-23" points="48.39 5.44 64.67 5.44 80.08 31.47 65.99 54.81 47.02 54.81"/><circle class="cls-24" cx="56.89" cy="31.67" r="2.94"/><path class="cls-21" d="M57.21,34.35a2.74,2.74,0,1,1,2.73-2.73A2.74,2.74,0,0,1,57.21,34.35Zm-2.55-2.73a2.55,2.55,0,1,0,2.55-2.56A2.55,2.55,0,0,0,54.66,31.62Zm2.42-1.16h0l-.5.27-.08-.31.61-.32h.37v3h-.39Z" transform="translate(-0.21)"/><circle class="cls-24" cx="19.59" cy="31.86" r="2.94"/><path class="cls-21" d="M19.83,34.55a2.74,2.74,0,1,1,2.73-2.74A2.74,2.74,0,0,1,19.83,34.55Zm-2.56-2.74a2.56,2.56,0,1,0,2.56-2.55A2.55,2.55,0,0,0,17.27,31.81Zm2.8,1.52v-.8H18.5v-.26l1.55-2h.4v1.92h.45v.31h-.45v.8Zm0-1.11V31.06c0-.1,0-.26,0-.37h0l-.22.35-1,1.17h1.2Z" transform="translate(-0.21)"/><circle class="cls-24" cx="30.93" cy="31.68" r="2.94"/><path class="cls-21" d="M31.17,34.37a2.74,2.74,0,1,1,2.73-2.74A2.74,2.74,0,0,1,31.17,34.37Zm-2.55-2.74a2.55,2.55,0,1,0,2.55-2.55A2.55,2.55,0,0,0,28.62,31.63Zm3.47-1.15H30.86l-.11.77a1.26,1.26,0,0,1,.3,0c.58,0,1.12.31,1.12.93a1.06,1.06,0,0,1-1.16,1,1.57,1.57,0,0,1-.81-.2l.1-.3a1.49,1.49,0,0,0,.71.18.7.7,0,0,0,.75-.63c0-.39-.24-.68-.9-.68a2.94,2.94,0,0,0-.47,0l.17-1.42h1.53Z" transform="translate(-0.21)"/><circle class="cls-24" cx="44.39" cy="31.98" r="2.94"/><path class="cls-21" d="M44.63,34.67a2.74,2.74,0,1,1,2.73-2.74A2.74,2.74,0,0,1,44.63,34.67Zm-2.55-2.74a2.55,2.55,0,1,0,2.55-2.55A2.55,2.55,0,0,0,42.08,31.93Zm3.32-1.19h-.11l-.27,0a1.17,1.17,0,0,0-1.08,1.06h0a1,1,0,0,1,.8-.35.92.92,0,0,1,1,.93,1.08,1.08,0,0,1-1.12,1.07c-.59,0-1.06-.41-1.06-1.27A1.62,1.62,0,0,1,45,30.43l.45,0Zm-.07,1.66a.67.67,0,0,0-.67-.66c-.36,0-.74.23-.74.54s.12.89.73.89A.72.72,0,0,0,45.33,32.4Z" transform="translate(-0.21)"/><circle class="cls-24" cx="79.01" cy="31.26" r="2.94"/><path class="cls-21" d="M79.25,34A2.73,2.73,0,1,1,82,31.22,2.74,2.74,0,0,1,79.25,34ZM76.7,31.22a2.55,2.55,0,1,0,2.55-2.55A2.55,2.55,0,0,0,76.7,31.22Zm1.52,1.48v-.25l.33-.29c1-.85,1.24-1.14,1.25-1.53a.59.59,0,0,0-.67-.61,1.17,1.17,0,0,0-.71.28L78.29,30a1.46,1.46,0,0,1,.92-.33.88.88,0,0,1,1,.87c0,.57-.4.94-1.21,1.63l-.21.17h1.5v.33Z" transform="translate(-0.21)"/><circle class="cls-24" cx="8.5" cy="31.77" r="2.94"/><path class="cls-21" d="M8.73,34.46a2.74,2.74,0,1,1,2.73-2.73A2.73,2.73,0,0,1,8.73,34.46ZM6.18,31.73a2.55,2.55,0,1,0,2.55-2.55A2.55,2.55,0,0,0,6.18,31.73Zm1.65,1a1.57,1.57,0,0,0,.74.2c.63,0,.75-.39.75-.56,0-.48-.51-.6-.88-.6H8.19v-.31h.26c.35,0,.75-.14.75-.49,0-.2-.14-.44-.59-.44a1.26,1.26,0,0,0-.66.2l-.11-.28a1.52,1.52,0,0,1,.84-.25c.67,0,.92.38.92.71A.74.74,0,0,1,9,31.6H9a.8.8,0,0,1,.71.76c0,.43-.36.89-1.17.89A1.52,1.52,0,0,1,7.73,33Z" transform="translate(-0.21)"/></svg>