<?xml version="1.0" encoding="UTF-8"?>
<svg xmlns="http://www.w3.org/2000/svg" xmlns:xlink="http://www.w3.org/1999/xlink" viewBox="0 0 226.77 93.41">
  <defs>
    <style>
      .cls-1 {
        font-family: KozGoPr6N-Regular-90ms-RKSJ-H, 'Kozuka Gothic Pr6N';
        font-size: 8.5px;
      }

      .cls-1, .cls-2 {
        fill: #fff;
      }

      .cls-3 {
        stroke-width: .33px;
      }

      .cls-3, .cls-4, .cls-5 {
        fill: none;
      }

      .cls-3, .cls-5 {
        stroke: #231815;
        stroke-linecap: round;
        stroke-linejoin: round;
      }

      .cls-6 {
        fill: #7d7d7d;
      }

      .cls-7 {
        clip-path: url(#clippath);
      }

      .cls-5 {
        stroke-width: .66px;
      }

      .cls-8 {
        fill: #231815;
      }
    </style>
    <clipPath id="clippath">
      <rect class="cls-4" x="119.89" y=".17" width="78.53" height="93.03"/>
    </clipPath>
  </defs>
  <g id="_レイヤー_2" data-name="レイヤー 2">
    <rect class="cls-4" width="226.77" height="93.41"/>
  </g>
  <g id="_レイヤー_1" data-name="レイヤー 1">
    <polygon class="cls-6" points="119.89 88.75 134.06 79.89 119.89 71.03 119.89 88.75"/>
    <text class="cls-1" transform="translate(122.05 83.12)"><tspan x="0" y="0">1</tspan></text>
    <polygon class="cls-6" points="184.25 45.52 198.42 54.38 198.42 36.66 184.25 45.52"/>
    <text class="cls-1" transform="translate(191.57 48.75)"><tspan x="0" y="0">2</tspan></text>
    <polygon class="cls-6" points="198.43 .17 184.25 9.03 198.43 17.88 198.43 .17"/>
    <text class="cls-1" transform="translate(191.57 12.26)"><tspan x="0" y="0">2</tspan></text>
    <g class="cls-7">
      <path class="cls-2" d="M140.69,3.59h5.49c.75-.17,1.5-.63,1.66-1.02,.14-.32,.25-.64,.26-.69,0-.03-.29-.24-.67-.48-.69-.43-2.29-.94-4-.94s-3.32,.51-4,.94c-.38,.24-.68,.46-.67,.48,0,.05,.12,.36,.26,.69,.17,.39,.97,1.02,1.67,1.02"/>
      <path class="cls-5" d="M140.72,3.55h5.42c.74-.16,1.48-.61,1.64-.99,.14-.32,.24-.62,.26-.67,.01-.03-.29-.24-.66-.47-.68-.42-2.26-.92-3.95-.92s-3.27,.5-3.95,.92c-.37,.23-.67,.44-.66,.47,0,.05,.12,.35,.26,.67,.22,.55,.96,.99,1.64,.99Z"/>
      <path class="cls-3" d="M151.66,10.01c0,4.78-3.68,8.65-8.23,8.65s-8.23-3.87-8.23-8.65,3.68-8.65,8.23-8.65,8.23,3.87,8.23,8.65Z"/>
      <path class="cls-5" d="M152.47,10.01c0,5.25-4.05,9.51-9.04,9.51s-9.04-4.26-9.04-9.51S138.44,.5,143.43,.5s9.04,4.26,9.04,9.51Z"/>
      <path class="cls-8" d="M143.44,7.51h0c-.49-.07-1.26,.25-1.73,.71-.4,.3-.72,1.08-.72,1.73,0,1.35,1.09,2.45,2.44,2.46h0c1.35,0,2.44-1.09,2.45-2.44,.07-.49-.25-1.27-.71-1.73-.46-.47-1.07-.72-1.73-.72"/>
      <path class="cls-8" d="M174.88,7.8c-.11,0-.21,.04-.28,.13l-2.58,3.44c-.12,.15-.08,.37,.07,.48,.06,.05,.13,.07,.2,.07,.1,0,.21-.05,.28-.14l2.3-3.07,2.3,3.07c.07,.09,.17,.14,.28,.14,.05,0,.15-.02,.2-.07,.15-.11,.18-.33,.07-.48l-2.58-3.44c-.06-.09-.17-.13-.27-.13"/>
      <path class="cls-3" d="M183.11,10.01c0,4.78-3.68,8.65-8.23,8.65s-8.23-3.87-8.23-8.65,3.68-8.65,8.23-8.65,8.23,3.87,8.23,8.65Z"/>
      <path class="cls-5" d="M183.92,10.01c0,5.25-4.05,9.51-9.04,9.51s-9.04-4.26-9.04-9.51S169.89,.5,174.88,.5s9.04,4.26,9.04,9.51Z"/>
      <path class="cls-2" d="M140.69,37.79h5.49c.69,0,1.5-.63,1.66-1.02,.14-.33,.25-.64,.28-.74-1.37-.87-2.97-1.38-4.69-1.38s-3.32,.51-4.69,1.38c.03,.1,.14,.41,.28,.74,.17,.39,.97,1.02,1.67,1.02"/>
      <path class="cls-5" d="M140.72,37.75h5.42c.69,0,1.48-.61,1.64-.99,.14-.32,.24-.62,.28-.72-1.35-.84-2.93-1.34-4.63-1.34s-3.27,.5-4.63,1.34c.03,.1,.14,.4,.27,.72,.17,.38,.96,.99,1.64,.99Z"/>
      <path class="cls-3" d="M151.66,44.21c0,4.78-3.68,8.65-8.23,8.65s-8.23-3.87-8.23-8.65,3.68-8.65,8.23-8.65,8.23,3.87,8.23,8.65Z"/>
      <path class="cls-5" d="M152.47,44.21c0,5.25-4.05,9.51-9.04,9.51s-9.04-4.26-9.04-9.51,4.05-9.51,9.04-9.51,9.04,4.26,9.04,9.51Z"/>
      <path class="cls-8" d="M149.32,41.73h-3.78c-.19,0-.34,.15-.34,.34v3.95c0,.19,.15,.35,.34,.35h3.78c.19,0,.34-.15,.34-.35v-3.95c0-.19-.15-.34-.34-.34m-3.44,.69h3.09v3.26h-3.09v-3.26Z"/>
      <path class="cls-8" d="M137.54,41.73c-.06,0-.12,.02-.18,.05-.1,.06-.17,.17-.17,.29v3.95c0,.12,.06,.23,.17,.29,.05,.03,.12,.05,.18,.05l.16-.04,3.78-1.98c.11-.06,.18-.18,.18-.31s-.07-.25-.18-.3l-3.78-1.98s-.1-.04-.16-.04m.34,3.73v-2.82l2.69,1.41-2.69,1.41Z"/>
      <path class="cls-8" d="M144.05,41.73c-.13,0-.26,.08-.32,.21l-1.72,3.95c-.08,.17,0,.38,.18,.45l.14,.03c.13,0,.26-.08,.32-.21l1.72-3.95c.08-.17,0-.38-.18-.45-.05-.02-.09-.03-.14-.03"/>
      <path class="cls-8" d="M177.46,41.98c-.1,0-.21,.05-.28,.14l-2.3,3.07-2.3-3.07c-.07-.09-.17-.14-.28-.14-.07,0-.14,.02-.21,.07-.15,.11-.18,.33-.07,.48l2.58,3.43c.06,.09,.17,.14,.27,.14s.21-.05,.28-.14l2.58-3.43c.11-.15,.08-.37-.07-.48-.06-.05-.13-.07-.2-.07"/>
      <path class="cls-3" d="M183.11,44.21c0,4.78-3.68,8.65-8.23,8.65s-8.23-3.87-8.23-8.65,3.68-8.65,8.23-8.65,8.23,3.87,8.23,8.65Z"/>
      <path class="cls-5" d="M183.92,44.21c0,5.25-4.05,9.51-9.04,9.51s-9.04-4.26-9.04-9.51,4.05-9.51,9.04-9.51,9.04,4.26,9.04,9.51Z"/>
      <path class="cls-8" d="M160.65,93.19c-.13,0-.26-.02-.38-.06-.46-.15-.67-.49-.59-.93,.11-.6,.7-.98,1.05-1.08,.39-.11,.7-.13,1.08-.05v-2.23c0-.08,.07-.15,.15-.15s.15,.07,.15,.15v2.42s-.02,.09-.06,.12-.08,.04-.13,.03c-.42-.11-.71-.1-1.12,0-.3,.08-.75,.4-.84,.84-.02,.11-.08,.44,.39,.6,.22,.07,.53,.05,.79-.06,.56-.24,.69-.67,.69-.82,0-.08,.07-.15,.15-.15s.15,.07,.15,.15c0,.25-.18,.8-.87,1.09-.2,.09-.42,.13-.63,.13"/>
      <path class="cls-8" d="M158.69,92.28c-.14,0-.27-.02-.38-.06-.45-.15-.67-.49-.59-.94,.11-.6,.7-.98,1.05-1.08,.4-.11,.71-.1,1.08-.02v-2.23c0-.08,.07-.15,.15-.15s.15,.07,.15,.15v2.42s-.02,.09-.06,.12c-.04,.03-.08,.04-.13,.03-.43-.11-.72-.14-1.12-.03-.3,.08-.76,.4-.84,.85-.02,.11-.08,.44,.39,.6,.14,.05,.33,.05,.51,.02,.08-.02,.16,.04,.17,.12,.01,.08-.04,.16-.12,.17-.09,.02-.18,.02-.27,.02"/>
      <path class="cls-8" d="M155.35,90.86h-8.9v-2.32c0-.09,.07-.16,.16-.16s.16,.07,.16,.16v2h8.58c.09,0,.16,.07,.16,.16s-.07,.16-.16,.16"/>
      <path class="cls-8" d="M173.71,90.86h-8.9c-.09,0-.16-.07-.16-.16s.07-.16,.16-.16h8.58v-2c0-.09,.07-.16,.16-.16s.16,.07,.16,.16v2.32Z"/>
      <path class="cls-2" d="M140.69,71.99h5.49c.69,0,1.5-.63,1.66-1.02,.14-.33,.25-.64,.28-.74-1.37-.87-2.97-1.38-4.69-1.38s-3.32,.51-4.69,1.38c.03,.1,.14,.41,.28,.74,.17,.39,.97,1.02,1.67,1.02"/>
      <path class="cls-5" d="M140.72,71.95h5.42c.68,0,1.48-.61,1.64-.99,.14-.32,.24-.62,.28-.72-1.35-.84-2.93-1.34-4.63-1.34s-3.27,.5-4.63,1.34c.03,.09,.14,.4,.27,.72,.17,.38,.96,.99,1.64,.99Z"/>
      <path class="cls-3" d="M151.66,78.41c0,4.78-3.68,8.65-8.23,8.65s-8.23-3.87-8.23-8.65,3.68-8.65,8.23-8.65,8.23,3.87,8.23,8.65Z"/>
      <path class="cls-5" d="M152.47,78.41c0,5.25-4.05,9.51-9.04,9.51s-9.04-4.26-9.04-9.51,4.05-9.51,9.04-9.51,9.04,4.26,9.04,9.51Z"/>
      <path class="cls-8" d="M140.72,74.43s-.1,.01-.15,.03c-.17,.08-.25,.29-.17,.46l2.69,5.77c.06,.13,.18,.2,.31,.2l.14-.03c.17-.08,.25-.28,.17-.46l-2.69-5.77c-.06-.13-.18-.2-.31-.2"/>
      <path class="cls-8" d="M144.07,73.64h-1.28c-.38,0-.71,.24-.82,.61l-.18,.57c-.06,.18,.05,.37,.23,.43,.03,.01,.07,.02,.1,.02,.15,0,.28-.1,.33-.24l.18-.57c.02-.07,.09-.12,.16-.12h1.28c.07,0,.14,.05,.16,.12l2.45,8h-6.52l1.23-3.99c.06-.18-.05-.37-.23-.43-.03-.01-.07-.01-.1-.01-.15,0-.28,.09-.33,.24l-1.22,3.99c-.06,.21-.03,.43,.1,.61,.13,.18,.33,.28,.55,.28h6.52c.22,0,.42-.1,.55-.28,.13-.18,.17-.4,.1-.61l-2.45-8c-.11-.36-.44-.61-.82-.61"/>
      <path class="cls-2" d="M172.14,71.99h5.49c.69,0,1.5-.63,1.67-1.02,.14-.33,.25-.64,.28-.74-1.37-.87-2.97-1.38-4.69-1.38s-3.32,.51-4.69,1.38c.03,.1,.14,.41,.28,.74,.17,.39,.97,1.02,1.67,1.02"/>
      <path class="cls-5" d="M172.18,71.95h5.42c.68,0,1.48-.61,1.64-.99,.14-.32,.24-.62,.28-.72-1.35-.84-2.93-1.34-4.63-1.34s-3.27,.5-4.63,1.34c.03,.09,.14,.4,.28,.72,.16,.38,.96,.99,1.64,.99Z"/>
      <path class="cls-3" d="M183.11,78.41c0,4.78-3.68,8.65-8.23,8.65s-8.23-3.87-8.23-8.65,3.68-8.65,8.23-8.65,8.23,3.87,8.23,8.65Z"/>
      <path class="cls-5" d="M183.92,78.41c0,5.25-4.05,9.51-9.04,9.51s-9.04-4.26-9.04-9.51,4.05-9.51,9.04-9.51,9.04,4.26,9.04,9.51Z"/>
      <path class="cls-8" d="M177.35,73.15h0c-.19,0-.34,.15-.34,.34v5.19c-.37-.07-.72-.1-1.07-.1-.72,0-1.41,.15-2.02,.44-1.5,.71-2.27,2.23-1.72,3.39,.36,.76,1.2,1.18,2.15,1.18,.5,0,1.04-.12,1.56-.36,1.21-.57,1.97-1.74,1.84-2.83-.02-.17-.17-.3-.34-.3-.01,0-.03,0-.04,0-.19,.02-.32,.19-.3,.38,.1,.8-.5,1.68-1.45,2.13-.43,.2-.87,.3-1.28,.3-.69,0-1.27-.28-1.52-.79-.39-.82,.24-1.93,1.39-2.47,.52-.25,1.11-.37,1.73-.37,.43,0,.87,.06,1.32,.17,.03,0,.06,.01,.09,.01,.08,0,.15-.02,.21-.07,.08-.07,.13-.16,.13-.27v-5.62c0-.19-.15-.34-.34-.35"/>
    </g>
  </g>
</svg>