<svg id="レイヤー_1" data-name="レイヤー 1" xmlns="http://www.w3.org/2000/svg" width="68.46mm" height="36.31mm" viewBox="0 0 194.06 102.92"><defs><style>.cls-1,.cls-2{fill:none;stroke:#231815;stroke-linecap:round;stroke-linejoin:round;}.cls-2{stroke-width:0.25px;}.cls-3{fill:#231815;}</style></defs><path class="cls-1" d="M59.27,39.91,25.79,25.46m0-25L196,63.46m0,35.47L156,81.67" transform="translate(-2.41)"/><path class="cls-2" d="M81.8,33.49l-2.36.83-2.32.77-2.64.82-1.2.35-1.52.44-1.86.52-2.54.69-2.59.69c-.89.23-1.77.47-2.66.69-1.59.42-3.18.82-4.77,1.22L55.25,41l-2.11.52-.31.07-.14,0-.43.11-.56.15-.54.17-.49.18-.46.18-.3.13-.29.13-.53.27-.48.29a4.73,4.73,0,0,0-.43.31,3.87,3.87,0,0,0-.37.32,3.7,3.7,0,0,0-.28.28c-.08.11-.17.22-.24.33a2.21,2.21,0,0,0-.18.34A.87.87,0,0,0,47,45c0,.05,0,.11,0,.17a2,2,0,0,0,0,.34,1.51,1.51,0,0,0,0,.3,2,2,0,0,0,.09.33,1.68,1.68,0,0,0,.16.33,3.71,3.71,0,0,0,.23.32q.15.16.3.3l.32.25m0,0,.31.2a4.23,4.23,0,0,0,.47.25l.51.23.57.2.61.17.49.11c.43.09.87.16,1.3.21l.65.06.75,0c.45,0,.89,0,1.34,0q.39,0,.78-.06l.67-.07c.44-.06.87-.13,1.31-.22l.45-.11a3.74,3.74,0,0,0,.45-.12c.31-.09.63-.19.93-.3a3.39,3.39,0,0,0,.41-.15l.24-.09.32-.12.4-.15.56-.22c.56-.22,1.13-.45,1.69-.69l1-.45.44-.2.43-.2.71-.33.71-.34.7-.33.83-.4,1.39-.65c1.1-.52,2.2-1,3.3-1.52" transform="translate(-2.41)"/><path class="cls-1" d="M81.34,45.35l0,2m0,0-2.48,1m-1-15.11a1.57,1.57,0,0,1,.3-1,.86.86,0,0,1,1-.22M120.7,50.38a2.81,2.81,0,0,0-1.56-2.55m-41-.88v-.27M77.87,34.8l0-1.52m11.82,18.6-.15-13.94m-1.42-2.38L79.15,32m10.36,5.92a2.72,2.72,0,0,0-1.42-2.38m53,23A1.3,1.3,0,0,1,143,57.25M107.41,47l0-1.88m12.92,20,.35-14.66m-13.27-5.29a1.55,1.55,0,0,1,.41-1.11,1,1,0,0,1,1.14-.17m10.16,4-10.16-4m32,17.45.12-2.72m13.49,3.31L143,57.25m11.65,4.6a2.94,2.94,0,0,1,1.71,2.76m-1,15.45,1-15.45" transform="translate(-2.41)"/><path class="cls-1" d="M75.19,65.26a2.32,2.32,0,0,0,0,.87,2.07,2.07,0,0,0,.1.43c0,.07,0,.14.07.2l0,.1a.08.08,0,0,0,0,0v0h0a3.24,3.24,0,0,0,.52.75,7.92,7.92,0,0,0,3.14,2,17.53,17.53,0,0,0,2.74.8c.57.11,1.14.21,1.71.28h.07l.17,0,.42,0c.4,0,.81.06,1.22.08a23.56,23.56,0,0,0,6.43-.56,15.66,15.66,0,0,0,2.33-.71A28.14,28.14,0,0,0,97.81,68c1.22-.69,2.36-1.49,3.52-2.25l1.92-1.24c1.81-1.15,3.64-2.28,5.5-3.37,3.7-2.2,7.47-4.27,11.31-6.24" transform="translate(-2.41)"/><path class="cls-2" d="M122.4,81.63l-.57-.19c-.24-.08-.47-.18-.71-.28s-.33-.15-.49-.24a5.76,5.76,0,0,1-.6-.33,5.07,5.07,0,0,1-.54-.36,4.78,4.78,0,0,1-.42-.34,4,4,0,0,1-.36-.35,4.35,4.35,0,0,1-.34-.41,1.64,1.64,0,0,1-.14-.22.86.86,0,0,1-.1-.16,2.59,2.59,0,0,1-.17-.38,2.91,2.91,0,0,1-.12-.39,3.47,3.47,0,0,1-.06-.45,2.75,2.75,0,0,1,0-.4.88.88,0,0,1,0-.16c0-.08,0-.16.05-.23a1.87,1.87,0,0,0,.07-.22l.09-.22a2.82,2.82,0,0,1,.21-.38l.1-.17.12-.16a2.75,2.75,0,0,1,.22-.26A2.91,2.91,0,0,1,119,75l.16-.15.23-.2.17-.15.18-.15.3-.24.18-.14.19-.15.55-.43.38-.28.38-.28.39-.27.52-.36.67-.45c.19-.11.37-.23.55-.35l.7-.42.42-.26.56-.33.7-.42.84-.5,1.67-1,2.75-1.58M111.86,45.41c-.88.38-1.77.74-2.66,1.1l-.72.29-2,.78-2.4.94-1.84.7-5,1.92-1.61.62L94,52.4l-4.31,1.7-2.37.95-.68.27-.77.31-.35.14L85,56l-.68.29-.59.25-1.23.58c-.4.19-.79.39-1.18.6l-.3.17-.38.2-.22.13-.3.17-.28.18a2.68,2.68,0,0,0-.28.18l-.26.18-.24.19a2.11,2.11,0,0,0-.23.19l-.21.2-.2.19a1.63,1.63,0,0,1-.17.2l-.15.21a1.43,1.43,0,0,0-.14.2l-.12.21-.09.2-.08.21a1.6,1.6,0,0,0,0,.21,1.18,1.18,0,0,0,0,.2,1.48,1.48,0,0,0,0,.21,1.34,1.34,0,0,0,0,.2,1.49,1.49,0,0,0,0,.21,3,3,0,0,0,.12.4,3.72,3.72,0,0,0,.21.39,2,2,0,0,0,.28.37,3.15,3.15,0,0,0,.36.37l.43.34.25.16a2.26,2.26,0,0,0,.26.16l.28.15.29.15" transform="translate(-2.41)"/><path class="cls-1" d="M114.88,81.33A3.42,3.42,0,0,0,115.4,84a7.76,7.76,0,0,0,2.78,2.44,18.14,18.14,0,0,0,6.15,2,25.18,25.18,0,0,0,6.49.16A16.79,16.79,0,0,0,137,86.79a6.64,6.64,0,0,0,2.47-2.18l.05-.08h0s0,0,0,0l0,0a.56.56,0,0,1,.05-.08l.1-.17a3.45,3.45,0,0,1,.2-.32c.13-.22.27-.44.41-.65.28-.43.57-.86.86-1.27a40.57,40.57,0,0,1,4.18-5,54.1,54.1,0,0,1,10.2-8M78.17,47.9l0-.86M89.66,52v.88" transform="translate(-2.41)"/><path class="cls-2" d="M146.27,59.08c-4.43,2.31-10.37,5.38-14.73,7.83" transform="translate(-2.41)"/><path class="cls-1" d="M89,42.13l-11.18,4.6L72.18,49,68,50.76l-1.37.55c-1.19.45-2.39.87-3.59,1.27-.71.23-1.43.46-2.15.66l-.06,0h-.06a23.7,23.7,0,0,1-5.87.77,21.29,21.29,0,0,1-6-.73A11.57,11.57,0,0,1,47,52.59a5.84,5.84,0,0,1-1.32-.88,2.34,2.34,0,0,1-.89-2.13" transform="translate(-2.41)"/><path class="cls-2" d="M87.57,35.78c-4.4,1.84-10.37,4.33-14.72,6.3" transform="translate(-2.41)"/><path class="cls-1" d="M78.16,47.9l.72.58m0,0-2.37-1M121,66.6l-.68-.58m0,0,6.78,2.91m-.28.17L121,66.6M90.37,53.42l-.71-.58m0,0,1.34.58m-.33.13-.3-.13m65.55,28.2-.62-.57m.06-1-.06,1m-35-16,0,.93" transform="translate(-2.41)"/><path class="cls-2" d="M118.63,48.1l-1.6.82-1.59.83-1.54.82c-.69.36-1.37.73-2.05,1.11-.85.47-1.69,1-2.54,1.44s-1.68,1-2.52,1.51L105,55.73l-.75.49-1.25.84-1.24.86c-.71.49-1.41,1-2.11,1.51l-.62.46-.73.56-.56.42-.18.14-.19.15-.37.29c-.1.07-.2.16-.31.23l-.26.19a2.48,2.48,0,0,1-.26.19l-.54.37c-.31.2-.61.4-.93.59l-.44.27-.53.31-.23.12-.31.18-.48.25-.41.2-.34.16-.27.11-.38.14-.28.09a2.91,2.91,0,0,1-.39.12l-.7.19a8.33,8.33,0,0,1-.84.17q-.37.08-.75.12l-.33,0-.44,0c-.55,0-1.1.07-1.65.07h-.33l-.44,0c-.29,0-.58,0-.86-.06-.52-.06-1-.13-1.55-.24a11.35,11.35,0,0,1-1.42-.36c-.22-.07-.43-.14-.65-.23l-.28-.11-.31-.14M153.79,62c-1,.61-2,1.23-2.94,1.89s-1.75,1.23-2.59,1.87c-.42.32-.83.65-1.24,1s-.8.66-1.19,1c-.72.62-1.41,1.26-2.08,1.92-.31.31-.6.62-.9.93s-.7.76-1,1.15c-.68.78-1.33,1.59-1.94,2.43s-1,1.42-1.48,2.15c-.28.45-.56.89-.82,1.35s-.38.65-.56,1l-.06.12a.56.56,0,0,0,0,.08,1.62,1.62,0,0,1-.1.18l-.07.11-.06.09-.14.19a2.55,2.55,0,0,1-.26.3l-.33.32-.37.3-.42.28-.22.14-.31.17-.67.32c-.21.08-.42.17-.64.24l-.78.25q-.36.1-.72.18c-.28.07-.56.12-.85.17-.55.09-1.11.16-1.66.2s-1.15.07-1.73.07-1.23,0-1.84-.1l-.9-.11L124,82a13.35,13.35,0,0,1-1.54-.39" transform="translate(-2.41)"/><path class="cls-1" d="M115.78,78a5.54,5.54,0,0,1,.21-.57,5.6,5.6,0,0,1,.27-.55c.11-.18.22-.36.34-.53a5,5,0,0,1,.4-.51l.39-.42.43-.4.15-.12,0,0,.2-.17.23-.18.22-.18.87-.67c.56-.42,1.14-.83,1.72-1.23s1.21-.8,1.83-1.18l.27-.17.28-.17.89-.53,2.2-1.29L130.43,67m0,0,1.18-.66c.4-.23.79-.45,1.19-.66l2.4-1.31.56-.3.21-.11.56-.3,2.6-1.38L141.51,61l4.09-2.16M114.81,81.28c0-.1,0-.19.07-.29s.05-.21.08-.31l.18-.64.18-.6.33-1,.12-.38M45.33,46.78a5.31,5.31,0,0,1,.2-.68,5.75,5.75,0,0,1,.34-.65,4.44,4.44,0,0,1,.45-.62,6.25,6.25,0,0,1,.57-.58,5.85,5.85,0,0,1,.69-.54c.26-.19.54-.35.81-.51s.62-.32.94-.47.69-.29,1-.42l.86-.29c.3-.1.6-.18.91-.26l.2-.06.22-.05.14,0,.21,0,.46-.11.2,0,.39-.1.67-.16.65-.16,2.1-.52,4.78-1.22L67,38l2.35-.64L70.5,37l.58-.16.46-.13,1.38-.4,1.31-.39,1.29-.4,1.28-.4c1.6-.52,3.2-1.07,4.77-1.66M44.77,49.66l0-.24c0-.09,0-.18,0-.26s.07-.37.1-.56.07-.35.11-.52c.08-.43.17-.86.26-1.29M75.11,65.26a2.38,2.38,0,0,1,0-.26l.06-.26c0-.19.09-.38.14-.56s.09-.35.14-.52.17-.6.25-.9c0-.12.07-.24.1-.35m0,0a4.78,4.78,0,0,1,.27-.75,5.73,5.73,0,0,1,.41-.73,6.2,6.2,0,0,1,.54-.7c.21-.23.44-.45.67-.66s.22-.19.34-.27.23-.18.35-.27.34-.24.52-.35l.26-.16,0,0,.1,0,.07-.05.06,0,.14-.08.28-.16.34-.19.36-.2.72-.37.74-.37,1-.46,1-.45.14-.05.08,0,.25-.1.47-.19,1.1-.44,2.59-1c2.25-.89,4.5-1.78,6.75-2.65l3.13-1.21,1.43-.55.69-.26.28-.11.59-.22.44-.17.86-.33,2.28-.88c1.07-.42,2.15-.85,3.22-1.29s2-.83,3.06-1.26" transform="translate(-2.41)"/><path class="cls-3" d="M2.41,61.35,3,60.63a2.53,2.53,0,0,0,1.76.78c.8,0,1.25-.38,1.25-.93s-.45-.8-1.06-1.07L4.05,59A1.91,1.91,0,0,1,2.7,57.28a2,2,0,0,1,2.18-1.83,2.86,2.86,0,0,1,2,.84L6.34,57a2.12,2.12,0,0,0-1.46-.6c-.67,0-1.12.33-1.12.85s.54.79,1.08,1l.91.38A1.86,1.86,0,0,1,7.1,60.39c0,1.07-.89,1.93-2.34,1.93A3.29,3.29,0,0,1,2.41,61.35Z" transform="translate(-2.41)"/><path class="cls-3" d="M7.9,59.73a2.35,2.35,0,1,1,2.34,2.59A2.39,2.39,0,0,1,7.9,59.73Zm3.6,0c0-1-.48-1.75-1.26-1.75S9,58.69,9,59.73s.48,1.75,1.26,1.75S11.5,60.78,11.5,59.73Z" transform="translate(-2.41)"/><path class="cls-3" d="M14,58.08h-.67v-.77l.67-.06v-.62c0-1,.46-1.72,1.57-1.72a2.41,2.41,0,0,1,.87.16l-.21.79a1.34,1.34,0,0,0-.54-.13c-.44,0-.65.29-.65.89v.63h1v.83H15V62.2H14Z" transform="translate(-2.41)"/><path class="cls-3" d="M17.05,60.58v-2.5h-.72v-.77l.77-.06.12-1.36h.86v1.36h1.29v.83H18.08v2.51c0,.6.21.9.72.9a1.52,1.52,0,0,0,.53-.11l.19.76a3.16,3.16,0,0,1-1,.18C17.43,62.32,17.05,61.63,17.05,60.58Z" transform="translate(-2.41)"/><path class="cls-3" d="M22.47,57.25h.85l.08.54h0A2.49,2.49,0,0,1,25,57.13c1.25,0,1.95,1,1.95,2.52,0,1.7-1,2.67-2.13,2.67a2.07,2.07,0,0,1-1.31-.56l0,.85v1.6h-1Zm3.37,2.42c0-1-.33-1.68-1.16-1.68a1.68,1.68,0,0,0-1.17.61V61a1.69,1.69,0,0,0,1.07.45C25.3,61.47,25.84,60.83,25.84,59.67Z" transform="translate(-2.41)"/><path class="cls-3" d="M27.79,59.73a2.41,2.41,0,0,1,2.26-2.6c1.32,0,2,.94,2,2.34A2.42,2.42,0,0,1,32,60H28.81a1.5,1.5,0,0,0,1.53,1.51,2.06,2.06,0,0,0,1.18-.37l.36.66a3,3,0,0,1-1.67.52A2.38,2.38,0,0,1,27.79,59.73Zm3.39-.45c0-.85-.39-1.34-1.11-1.34a1.34,1.34,0,0,0-1.27,1.34Z" transform="translate(-2.41)"/><path class="cls-3" d="M32.9,59.73A2.34,2.34,0,0,1,35,57.13a1.86,1.86,0,0,1,1.33.56l0-.82V55h1V62.2H36.5l-.08-.55h0a2.1,2.1,0,0,1-1.44.67C33.7,62.32,32.9,61.38,32.9,59.73Zm3.41,1.13V58.44A1.57,1.57,0,0,0,35.22,58c-.69,0-1.25.66-1.25,1.73s.44,1.75,1.21,1.75A1.45,1.45,0,0,0,36.31,60.86Z" transform="translate(-2.41)"/><path class="cls-3" d="M38.61,60.89c0-1.06.9-1.61,3-1.84,0-.57-.21-1.08-.94-1.08a2.72,2.72,0,0,0-1.43.51l-.39-.7a3.74,3.74,0,0,1,2-.65c1.23,0,1.8.78,1.8,2.1v3h-.85l-.08-.56h0a2.51,2.51,0,0,1-1.58.68A1.37,1.37,0,0,1,38.61,60.89Zm3,0V59.71c-1.46.17-2,.55-2,1.11s.33.68.77.68A1.71,1.71,0,0,0,41.57,60.93Z" transform="translate(-2.41)"/><path class="cls-3" d="M44.07,61V55h1V61.1c0,.28.12.38.24.38l.17,0,.14.78a1.54,1.54,0,0,1-.56.08C44.35,62.32,44.07,61.85,44.07,61Z" transform="translate(-2.41)"/><path class="cls-3" d="M14.85,81.08l.62-.72a2.54,2.54,0,0,0,1.76.79c.8,0,1.25-.38,1.25-.94s-.45-.79-1.06-1.06l-.92-.4A1.9,1.9,0,0,1,15.15,77a2,2,0,0,1,2.18-1.83,2.87,2.87,0,0,1,2,.83l-.55.67a2.11,2.11,0,0,0-1.46-.59c-.67,0-1.12.32-1.12.84s.54.79,1.08,1l.9.39a1.84,1.84,0,0,1,1.35,1.79,2.06,2.06,0,0,1-2.33,1.93A3.29,3.29,0,0,1,14.85,81.08Z" transform="translate(-2.41)"/><path class="cls-3" d="M20.35,79.46a2.35,2.35,0,1,1,2.33,2.6A2.39,2.39,0,0,1,20.35,79.46Zm3.6,0c0-1-.48-1.74-1.27-1.74s-1.26.7-1.26,1.74.49,1.75,1.26,1.75S24,80.52,24,79.46Z" transform="translate(-2.41)"/><path class="cls-3" d="M25.71,81.37l.48-.66a2.28,2.28,0,0,0,1.41.56c.59,0,.87-.29.87-.66s-.56-.65-1.09-.86S26,79.15,26,78.31s.66-1.45,1.76-1.45a2.53,2.53,0,0,1,1.6.59l-.48.64a1.82,1.82,0,0,0-1.1-.44c-.55,0-.8.27-.8.62s.49.58,1,.78c.69.26,1.45.57,1.45,1.5s-.65,1.51-1.88,1.51A3,3,0,0,1,25.71,81.37Z" transform="translate(-2.41)"/><path class="cls-3" d="M30.71,80.32v-2.5H30V77l.78-.05.11-1.37h.87V77H33v.83H31.75v2.51c0,.59.2.9.72.9a1.58,1.58,0,0,0,.53-.12l.19.77a3.17,3.17,0,0,1-1,.18C31.1,82.06,30.71,81.36,30.71,80.32Z" transform="translate(-2.41)"/><path class="cls-3" d="M33.76,79.46A2.41,2.41,0,0,1,36,76.86c1.32,0,2,1,2,2.34a2.35,2.35,0,0,1-.06.53H34.78a1.5,1.5,0,0,0,1.53,1.52,2.14,2.14,0,0,0,1.18-.37l.36.65a3,3,0,0,1-1.67.53A2.39,2.39,0,0,1,33.76,79.46ZM37.15,79c0-.84-.39-1.34-1.11-1.34A1.34,1.34,0,0,0,34.77,79Z" transform="translate(-2.41)"/><path class="cls-3" d="M39.2,77h.85l.08.68h0a2.38,2.38,0,0,1,1.64-.81c1.06,0,1.52.7,1.52,2v3.12h-1V79c0-.85-.25-1.2-.84-1.2a1.69,1.69,0,0,0-1.21.68v3.51h-1Z" transform="translate(-2.41)"/><path class="cls-3" d="M44.75,80.1V77h1v3c0,.84.24,1.18.83,1.18s.77-.21,1.18-.73V77h1v5H48l-.08-.75h0a2.09,2.09,0,0,1-1.62.87C45.21,82.06,44.75,81.36,44.75,80.1Z" transform="translate(-2.41)"/><path class="cls-3" d="M50.56,80.32v-2.5h-.72V77l.77-.05.12-1.37h.86V77h1.29v.83H51.59v2.51c0,.59.21.9.72.9a1.52,1.52,0,0,0,.53-.12l.19.77a3.16,3.16,0,0,1-1,.18C50.94,82.06,50.56,81.36,50.56,80.32Z" transform="translate(-2.41)"/><path class="cls-3" d="M53.61,79.46a2.34,2.34,0,1,1,2.33,2.6A2.39,2.39,0,0,1,53.61,79.46Zm3.6,0c0-1-.49-1.74-1.27-1.74s-1.26.7-1.26,1.74.49,1.75,1.26,1.75S57.21,80.52,57.21,79.46Z" transform="translate(-2.41)"/><path class="cls-3" d="M61.51,77h.85l.08.54h0A2.56,2.56,0,0,1,64,76.86c1.26,0,2,1,2,2.52,0,1.7-1,2.68-2.14,2.68a2,2,0,0,1-1.3-.56l0,.84V84h-1Zm3.37,2.41c0-1-.34-1.67-1.16-1.67a1.7,1.7,0,0,0-1.18.6v2.42a1.69,1.69,0,0,0,1.08.45C64.34,81.2,64.88,80.56,64.88,79.4Z" transform="translate(-2.41)"/><path class="cls-3" d="M66.83,79.46a2.41,2.41,0,0,1,2.26-2.6c1.31,0,2,1,2,2.34a2.44,2.44,0,0,1,0,.53H67.85a1.5,1.5,0,0,0,1.53,1.52,2.14,2.14,0,0,0,1.18-.37l.36.65a3,3,0,0,1-1.68.53A2.39,2.39,0,0,1,66.83,79.46ZM70.21,79c0-.84-.38-1.34-1.1-1.34A1.34,1.34,0,0,0,67.84,79Z" transform="translate(-2.41)"/><path class="cls-3" d="M71.93,79.46a2.34,2.34,0,0,1,2.13-2.6,1.94,1.94,0,0,1,1.33.56l0-.82V74.76h1v7.18h-.85l-.08-.56h0a2.09,2.09,0,0,1-1.44.68C72.73,82.06,71.93,81.11,71.93,79.46Zm3.41,1.14V78.18a1.52,1.52,0,0,0-1.09-.45c-.69,0-1.25.65-1.25,1.72s.44,1.75,1.22,1.75A1.46,1.46,0,0,0,75.34,80.6Z" transform="translate(-2.41)"/><path class="cls-3" d="M77.65,80.62c0-1.06.9-1.61,3-1.83,0-.58-.22-1.08-1-1.08a2.74,2.74,0,0,0-1.43.5l-.39-.7a3.86,3.86,0,0,1,2-.65c1.24,0,1.8.78,1.8,2.1v3H80.8l-.08-.57h0a2.45,2.45,0,0,1-1.58.69A1.37,1.37,0,0,1,77.65,80.62Zm3,0V79.45c-1.47.17-2,.54-2,1.1s.33.69.77.69A1.76,1.76,0,0,0,80.61,80.66Z" transform="translate(-2.41)"/><path class="cls-3" d="M83.11,80.78v-6h1v6.07c0,.28.12.38.25.38l.17,0,.13.79a1.68,1.68,0,0,1-.55.08C83.39,82.06,83.11,81.58,83.11,80.78Z" transform="translate(-2.41)"/><path class="cls-3" d="M85.66,94.27h1.72c2,0,3.2,1.14,3.2,3.3s-1.16,3.34-3.14,3.34H85.66Zm1.65,5.78c1.42,0,2.19-.83,2.19-2.48s-.77-2.44-2.19-2.44h-.6v4.92Z" transform="translate(-2.41)"/><path class="cls-3" d="M91.58,99.59c0-1.06.9-1.61,3-1.83,0-.58-.22-1.08-1-1.08a2.71,2.71,0,0,0-1.43.5l-.39-.7a3.77,3.77,0,0,1,2-.65c1.24,0,1.8.78,1.8,2.1v3h-.84l-.08-.57h0A2.44,2.44,0,0,1,93,101,1.36,1.36,0,0,1,91.58,99.59Zm3,0V98.41c-1.47.18-2,.55-2,1.11s.33.69.77.69A1.76,1.76,0,0,0,94.54,99.63Z" transform="translate(-2.41)"/><path class="cls-3" d="M97,96h.85l.08.69h0a2.17,2.17,0,0,1,1.53-.82,1.31,1.31,0,0,1,1.37.91,2.3,2.3,0,0,1,1.61-.91c1,0,1.53.7,1.53,2v3.12h-1v-3c0-.86-.27-1.2-.83-1.2a1.69,1.69,0,0,0-1.12.68v3.51h-1v-3c0-.86-.26-1.2-.83-1.2a1.67,1.67,0,0,0-1.11.68v3.51H97Z" transform="translate(-2.41)"/><path class="cls-3" d="M105.52,96h.84l.08.54h0a2.51,2.51,0,0,1,1.53-.67c1.25,0,2,1,2,2.52,0,1.7-1,2.67-2.14,2.67a2,2,0,0,1-1.3-.55l0,.84v1.61h-1Zm3.36,2.41c0-1-.33-1.68-1.16-1.68a1.7,1.7,0,0,0-1.17.61v2.42a1.69,1.69,0,0,0,1.07.45C108.34,100.17,108.88,99.53,108.88,98.37Z" transform="translate(-2.41)"/><path class="cls-3" d="M110.84,98.43a2.4,2.4,0,0,1,2.25-2.6c1.32,0,2,1,2,2.34a3.29,3.29,0,0,1-.05.53h-3.22a1.49,1.49,0,0,0,1.53,1.51,2.13,2.13,0,0,0,1.18-.36l.36.65a3,3,0,0,1-1.67.52A2.38,2.38,0,0,1,110.84,98.43Zm3.38-.45c0-.84-.39-1.34-1.11-1.34A1.34,1.34,0,0,0,111.84,98Z" transform="translate(-2.41)"/><path class="cls-3" d="M116.27,96h.85l.08.89h0a1.71,1.71,0,0,1,1.4-1,1.27,1.27,0,0,1,.56.11l-.19.9a1.35,1.35,0,0,0-.5-.08c-.4,0-.89.28-1.19,1.06v3.09h-1Z" transform="translate(-2.41)"/><path class="cls-3" d="M122,96h.84l.09.54h0a2.51,2.51,0,0,1,1.53-.67c1.25,0,2,1,2,2.52,0,1.7-1,2.67-2.14,2.67a2,2,0,0,1-1.3-.55l0,.84v1.61h-1Zm3.36,2.41c0-1-.33-1.68-1.16-1.68a1.72,1.72,0,0,0-1.17.61v2.42a1.69,1.69,0,0,0,1.07.45C124.8,100.17,125.34,99.53,125.34,98.37Z" transform="translate(-2.41)"/><path class="cls-3" d="M127.3,98.43a2.4,2.4,0,0,1,2.26-2.6c1.31,0,2,1,2,2.34a3.29,3.29,0,0,1-.05.53h-3.22a1.49,1.49,0,0,0,1.53,1.51,2.11,2.11,0,0,0,1.18-.36l.36.65a3,3,0,0,1-1.67.52A2.38,2.38,0,0,1,127.3,98.43Zm3.38-.45c0-.84-.39-1.34-1.11-1.34A1.34,1.34,0,0,0,128.3,98Z" transform="translate(-2.41)"/><path class="cls-3" d="M132.4,98.43a2.34,2.34,0,0,1,2.12-2.6,1.94,1.94,0,0,1,1.34.56l-.05-.82V93.73h1v7.18H136l-.08-.56h0a2.06,2.06,0,0,1-1.44.67C133.2,101,132.4,100.08,132.4,98.43Zm3.41,1.14V97.14a1.57,1.57,0,0,0-1.09-.45c-.69,0-1.25.66-1.25,1.73s.44,1.75,1.22,1.75A1.46,1.46,0,0,0,135.81,99.57Z" transform="translate(-2.41)"/><path class="cls-3" d="M138.11,99.59c0-1.06.9-1.61,3-1.83,0-.58-.22-1.08-1-1.08a2.71,2.71,0,0,0-1.43.5l-.39-.7a3.77,3.77,0,0,1,2-.65c1.23,0,1.8.78,1.8,2.1v3h-.84l-.09-.57h0a2.44,2.44,0,0,1-1.58.68A1.37,1.37,0,0,1,138.11,99.59Zm3,0V98.41c-1.47.18-2,.55-2,1.11s.34.69.78.69A1.76,1.76,0,0,0,141.08,99.63Z" transform="translate(-2.41)"/><path class="cls-3" d="M143.58,99.75v-6h1V99.8c0,.28.12.38.25.38l.17,0,.13.78a1.51,1.51,0,0,1-.56.08C143.86,101,143.58,100.55,143.58,99.75Z" transform="translate(-2.41)"/></svg>