<?xml version="1.0" encoding="UTF-8"?>
<svg xmlns="http://www.w3.org/2000/svg" xmlns:xlink="http://www.w3.org/1999/xlink" viewBox="0 0 226.77 25.42">
  <defs>
    <style>
      .cls-1 {
        fill: #fff;
      }

      .cls-2 {
        stroke-width: .33px;
      }

      .cls-2, .cls-3, .cls-4 {
        fill: none;
      }

      .cls-2, .cls-4 {
        stroke: #231815;
        stroke-linecap: round;
        stroke-linejoin: round;
      }

      .cls-5 {
        fill: #7d7d7d;
      }

      .cls-6 {
        clip-path: url(#clippath);
      }

      .cls-4 {
        stroke-width: .66px;
      }

      .cls-7 {
        fill: #231815;
      }
    </style>
    <clipPath id="clippath">
      <rect class="cls-3" x="81.35" y=".17" width="64.08" height="24.63"/>
    </clipPath>
  </defs>
  <g id="_レイヤー_2" data-name="レイヤー 2">
    <rect class="cls-3" width="226.77" height="25.42"/>
  </g>
  <g id="_レイヤー_1" data-name="レイヤー 1">
    <g class="cls-6">
      <path class="cls-7" d="M107.93,24.79c-.13,0-.26-.02-.38-.06-.46-.15-.67-.49-.59-.93,.11-.6,.7-.98,1.05-1.08,.39-.11,.7-.13,1.08-.05v-2.23c0-.08,.07-.15,.15-.15s.15,.07,.15,.15v2.42s-.02,.09-.06,.12c-.04,.03-.08,.04-.13,.03-.42-.11-.71-.1-1.11,0-.3,.08-.75,.4-.84,.84-.02,.11-.08,.44,.39,.6,.22,.07,.53,.05,.79-.06,.57-.24,.69-.67,.69-.82,0-.08,.07-.15,.15-.15s.15,.07,.15,.15c0,.25-.18,.8-.87,1.09-.2,.09-.42,.13-.63,.13"/>
      <path class="cls-7" d="M105.98,23.88c-.14,0-.27-.02-.38-.06-.45-.15-.67-.49-.59-.94,.11-.6,.7-.98,1.05-1.08,.4-.11,.7-.1,1.08-.02v-2.23c0-.08,.07-.15,.15-.15s.15,.07,.15,.15v2.42s-.02,.09-.06,.12c-.04,.03-.08,.04-.13,.03-.43-.11-.72-.14-1.12-.03-.3,.08-.75,.4-.84,.85-.02,.11-.08,.44,.39,.6,.14,.05,.33,.05,.51,.02,.08-.02,.16,.04,.17,.12,.01,.08-.04,.16-.12,.17-.09,.02-.18,.02-.27,.02"/>
      <path class="cls-7" d="M102.64,22.46h-8.9v-2.32c0-.09,.07-.16,.16-.16s.16,.07,.16,.16v2h8.58c.09,0,.16,.07,.16,.16s-.07,.16-.16,.16"/>
      <path class="cls-7" d="M120.99,22.46h-8.9c-.09,0-.16-.07-.16-.16s.07-.16,.16-.16h8.58v-2c0-.09,.07-.16,.16-.16s.16,.07,.16,.16v2.32Z"/>
      <path class="cls-1" d="M87.97,3.59h5.49c.69,0,1.5-.63,1.67-1.02,.14-.33,.25-.64,.28-.74-1.37-.87-2.97-1.38-4.69-1.38s-3.32,.51-4.69,1.38c.03,.1,.14,.41,.28,.74,.17,.39,.97,1.02,1.66,1.02"/>
      <path class="cls-4" d="M88.01,3.55h5.42c.69,0,1.48-.61,1.64-.99,.14-.32,.24-.62,.28-.72-1.35-.84-2.93-1.34-4.63-1.34s-3.28,.5-4.63,1.34c.03,.09,.14,.4,.28,.72,.17,.38,.96,.99,1.64,.99Z"/>
      <path class="cls-2" d="M98.94,10.01c0,4.78-3.68,8.65-8.23,8.65s-8.23-3.87-8.23-8.65,3.68-8.65,8.23-8.65,8.23,3.87,8.23,8.65Z"/>
      <path class="cls-4" d="M99.75,10.01c0,5.25-4.05,9.51-9.04,9.51s-9.04-4.26-9.04-9.51S85.72,.5,90.72,.5s9.04,4.26,9.04,9.51Z"/>
      <path class="cls-7" d="M88,6.03s-.1,.01-.15,.03c-.17,.08-.25,.29-.17,.46l2.69,5.77c.06,.13,.18,.2,.31,.2l.14-.03c.17-.08,.25-.28,.17-.46l-2.69-5.77c-.06-.13-.18-.2-.31-.2"/>
      <path class="cls-7" d="M91.35,5.24h-1.28c-.38,0-.71,.24-.82,.61l-.18,.57c-.06,.18,.05,.37,.23,.43,.03,.01,.07,.02,.1,.02,.15,0,.28-.1,.33-.24l.18-.57c.02-.07,.09-.12,.16-.12h1.28c.07,0,.14,.05,.16,.12l2.45,8h-6.52l1.23-3.99c.05-.18-.05-.37-.23-.43-.03-.01-.07-.01-.1-.01-.15,0-.28,.09-.33,.24l-1.22,3.99c-.07,.21-.03,.43,.1,.61,.13,.18,.33,.28,.55,.28h6.52c.22,0,.42-.1,.55-.28,.13-.18,.17-.4,.11-.61l-2.46-8c-.11-.36-.44-.61-.82-.61"/>
      <path class="cls-1" d="M119.42,3.59h5.49c.69,0,1.5-.63,1.67-1.02,.14-.33,.25-.64,.28-.74-1.37-.87-2.97-1.38-4.69-1.38s-3.32,.51-4.69,1.38c.03,.1,.14,.41,.28,.74,.17,.39,.97,1.02,1.67,1.02"/>
      <path class="cls-4" d="M119.46,3.55h5.42c.68,0,1.48-.61,1.64-.99,.14-.32,.24-.62,.28-.72-1.35-.84-2.93-1.34-4.63-1.34s-3.27,.5-4.63,1.34c.03,.09,.14,.4,.28,.72,.16,.38,.96,.99,1.64,.99Z"/>
      <path class="cls-2" d="M130.39,10.01c0,4.78-3.68,8.65-8.23,8.65s-8.23-3.87-8.23-8.65,3.68-8.65,8.23-8.65,8.23,3.87,8.23,8.65Z"/>
      <path class="cls-4" d="M131.2,10.01c0,5.25-4.05,9.51-9.04,9.51s-9.04-4.26-9.04-9.51S117.18,.5,122.17,.5s9.04,4.26,9.04,9.51Z"/>
      <path class="cls-7" d="M124.63,4.75h0c-.19,0-.34,.15-.34,.34v5.19c-.37-.07-.72-.1-1.07-.1-.72,0-1.41,.15-2.02,.44-1.5,.71-2.27,2.23-1.72,3.39,.36,.76,1.2,1.18,2.15,1.18,.5,0,1.04-.12,1.56-.36,1.21-.57,1.97-1.74,1.84-2.83-.02-.17-.17-.3-.34-.3-.01,0-.03,0-.04,0-.19,.02-.32,.19-.3,.38,.1,.8-.5,1.68-1.45,2.13-.43,.2-.87,.3-1.28,.3-.69,0-1.27-.28-1.52-.79-.39-.82,.24-1.93,1.39-2.47,.52-.25,1.11-.37,1.73-.37,.43,0,.87,.06,1.32,.17,.03,0,.06,.01,.09,.01,.08,0,.15-.02,.21-.07,.08-.07,.13-.16,.13-.27V5.09c0-.19-.15-.34-.34-.35"/>
    </g>
    <polygon class="cls-5" points="132.95 10.62 145.42 18.42 145.42 2.83 132.95 10.62"/>
  </g>
</svg>