<?xml version="1.0" encoding="UTF-8"?>
<svg xmlns="http://www.w3.org/2000/svg" xmlns:xlink="http://www.w3.org/1999/xlink" viewBox="0 0 226.9 93.54">
  <defs>
    <style>
      .cls-1 {
        stroke: #727171;
      }

      .cls-1, .cls-2, .cls-3, .cls-4, .cls-5, .cls-6, .cls-7 {
        fill: none;
      }

      .cls-1, .cls-2, .cls-4 {
        stroke-miterlimit: 10;
        stroke-width: .25px;
      }

      .cls-8 {
        fill: #fff;
      }

      .cls-9 {
        fill: #dcdddd;
      }

      .cls-2 {
        stroke: #595757;
      }

      .cls-3 {
        stroke-width: .33px;
      }

      .cls-3, .cls-6 {
        stroke-linecap: round;
        stroke-linejoin: round;
      }

      .cls-3, .cls-6, .cls-7 {
        stroke: #231815;
      }

      .cls-4 {
        stroke: #7d7d7d;
      }

      .cls-10 {
        clip-path: url(#clippath);
      }

      .cls-6 {
        stroke-width: .66px;
      }

      .cls-7 {
        stroke-width: .28px;
      }

      .cls-11 {
        fill: #231815;
      }
    </style>
    <clipPath id="clippath">
      <rect class="cls-5" x=".13" y="1.2" width="226.77" height="91.15"/>
    </clipPath>
  </defs>
  <g id="_レイヤー_2" data-name="レイヤー 2">
    <rect class="cls-5" x=".13" width="226.77" height="93.54"/>
  </g>
  <g id="_レイヤー_1" data-name="レイヤー 1">
    <polygon class="cls-11" points="8.23 26.51 2.28 33.4 14.17 33.4 8.23 26.51"/>
    <polygon class="cls-11" points="5.93 31.26 5.93 81.72 10.53 78.66 10.53 31.26 5.93 31.26"/>
    <line class="cls-7" x1="13.39" y1="76.74" x2="3.06" y2="83.63"/>
    <line class="cls-7" x1="13.39" y1="80.34" x2="3.06" y2="87.22"/>
    <polygon class="cls-11" points="129.02 61.98 134.63 55.86 123.41 55.86 129.02 61.98"/>
    <polygon class="cls-11" points="131.19 57.76 131.19 6.21 126.85 8.93 126.85 57.76 131.19 57.76"/>
    <line class="cls-7" x1="124.15" y1="10.56" x2="133.89" y2="4.46"/>
    <g class="cls-10">
      <line class="cls-7" x1="124.15" y1="7.36" x2="133.89" y2="1.27"/>
      <path class="cls-11" d="M8.81,12.44c-.1,0-.19,.04-.25,.12l-2.35,3.14c-.1,.14-.08,.34,.06,.44,.06,.04,.12,.06,.19,.06,.1,0,.19-.04,.25-.13l2.1-2.8,2.1,2.8c.06,.08,.16,.13,.25,.13,.07,0,.13-.02,.19-.06,.14-.1,.17-.3,.06-.44l-2.36-3.14c-.06-.08-.15-.12-.25-.12"/>
      <path class="cls-8" d="M6.3,8.59h5.02c.63,0,1.37-.57,1.52-.93,.13-.3,.22-.58,.25-.67-1.25-.79-2.72-1.26-4.28-1.26s-3.03,.46-4.28,1.26c.03,.09,.13,.38,.26,.67,.15,.36,.89,.93,1.52,.93"/>
      <path class="cls-3" d="M16.44,14.46c0,4.42-3.41,8.01-7.63,8.01S1.18,18.88,1.18,14.46,4.6,6.45,8.81,6.45s7.63,3.59,7.63,8.01Z"/>
      <path class="cls-6" d="M17.29,14.46c0,4.92-3.8,8.91-8.48,8.91S.33,19.38,.33,14.46,4.13,5.55,8.81,5.55s8.48,3.99,8.48,8.91Z"/>
      <path class="cls-11" d="M132.5,71.13c-.1,0-.19,.04-.25,.13l-2.1,2.8-2.1-2.8c-.06-.08-.16-.13-.25-.13-.06,0-.13,.02-.19,.06-.14,.1-.17,.3-.06,.44l2.36,3.14c.06,.08,.15,.13,.25,.13s.19-.05,.25-.13l2.35-3.14c.1-.14,.08-.34-.06-.44-.06-.04-.12-.06-.19-.06"/>
      <path class="cls-8" d="M127.64,67.3h5.02c.63,0,1.37-.57,1.52-.93,.13-.3,.22-.58,.25-.67-1.25-.79-2.72-1.26-4.28-1.26s-3.03,.46-4.28,1.26c.03,.09,.13,.37,.26,.67,.15,.36,.89,.93,1.52,.93"/>
      <path class="cls-3" d="M137.77,73.16c0,4.42-3.41,8.01-7.63,8.01s-7.63-3.59-7.63-8.01,3.41-8.01,7.63-8.01,7.63,3.59,7.63,8.01Z"/>
      <path class="cls-6" d="M138.63,73.16c0,4.92-3.8,8.91-8.48,8.91s-8.48-3.99-8.48-8.91,3.8-8.91,8.48-8.91,8.48,3.99,8.48,8.91Z"/>
    </g>
    <path class="cls-9" d="M22.79,77.88H99.24v8.05H22.79v-8.05Zm121.56-16.1h76.49v8.05h-76.49v-8.05Zm-121.56,0H99.24v8.05H22.79v-8.05Zm121.56-16.1h76.49v8.05h-76.49v-8.05Zm-121.56,0H99.24v8.05H22.79v-8.05Zm121.56-16.1h76.49v8.05h-76.49v-8.05Zm-121.56,0H99.24v8.05H22.79v-8.05ZM144.36,13.47h76.49v8.05h-76.49V13.47Zm-121.56,0H99.24v8.05H22.79V13.47Z"/>
    <line class="cls-4" x1="144.27" y1="21.52" x2="220.94" y2="21.52"/>
    <line class="cls-4" x1="144.27" y1="29.57" x2="220.94" y2="29.57"/>
    <line class="cls-4" x1="144.27" y1="37.62" x2="220.94" y2="37.62"/>
    <line class="cls-4" x1="144.27" y1="45.68" x2="220.94" y2="45.68"/>
    <line class="cls-4" x1="144.27" y1="53.73" x2="220.94" y2="53.73"/>
    <line class="cls-4" x1="144.27" y1="61.78" x2="220.94" y2="61.78"/>
    <line class="cls-1" x1="144.27" y1="69.83" x2="220.94" y2="69.83"/>
    <line class="cls-4" x1="144.27" y1="13.47" x2="220.94" y2="13.47"/>
    <line class="cls-4" x1="22.71" y1="13.47" x2="99.33" y2="13.47"/>
    <line class="cls-4" x1="22.71" y1="21.52" x2="99.33" y2="21.52"/>
    <line class="cls-4" x1="22.71" y1="29.57" x2="99.33" y2="29.57"/>
    <line class="cls-4" x1="22.71" y1="37.62" x2="99.33" y2="37.62"/>
    <line class="cls-4" x1="22.71" y1="45.68" x2="99.33" y2="45.68"/>
    <line class="cls-4" x1="22.71" y1="53.73" x2="99.33" y2="53.73"/>
    <line class="cls-4" x1="22.71" y1="61.78" x2="99.33" y2="61.78"/>
    <line class="cls-4" x1="22.71" y1="69.83" x2="99.33" y2="69.83"/>
    <line class="cls-4" x1="22.71" y1="77.88" x2="99.33" y2="77.88"/>
    <line class="cls-4" x1="99.24" y1="13.38" x2="99.24" y2="5.51"/>
    <line class="cls-4" x1="99.24" y1="21.43" x2="99.24" y2="13.56"/>
    <line class="cls-4" x1="99.24" y1="29.49" x2="99.24" y2="21.61"/>
    <line class="cls-4" x1="99.24" y1="37.54" x2="99.24" y2="29.66"/>
    <line class="cls-4" x1="99.24" y1="45.59" x2="99.24" y2="37.71"/>
    <line class="cls-4" x1="99.24" y1="53.64" x2="99.24" y2="45.76"/>
    <line class="cls-4" x1="99.24" y1="61.69" x2="99.24" y2="53.81"/>
    <line class="cls-4" x1="99.24" y1="69.74" x2="99.24" y2="61.86"/>
    <line class="cls-4" x1="99.24" y1="77.79" x2="99.24" y2="69.92"/>
    <line class="cls-4" x1="99.24" y1="85.84" x2="99.24" y2="77.97"/>
    <line class="cls-4" x1="144.36" y1="13.38" x2="144.36" y2="5.51"/>
    <line class="cls-4" x1="144.36" y1="21.43" x2="144.36" y2="13.56"/>
    <line class="cls-4" x1="144.36" y1="29.49" x2="144.36" y2="21.61"/>
    <line class="cls-4" x1="144.36" y1="37.54" x2="144.36" y2="29.66"/>
    <line class="cls-4" x1="144.36" y1="45.59" x2="144.36" y2="37.71"/>
    <line class="cls-4" x1="144.36" y1="53.64" x2="144.36" y2="45.76"/>
    <line class="cls-4" x1="144.36" y1="61.69" x2="144.36" y2="53.81"/>
    <line class="cls-4" x1="144.36" y1="69.74" x2="144.36" y2="61.86"/>
    <line class="cls-1" x1="144.36" y1="77.79" x2="144.36" y2="69.92"/>
    <line class="cls-4" x1="22.71" y1="5.42" x2="99.33" y2="5.42"/>
    <line class="cls-4" x1="22.79" y1="13.38" x2="22.79" y2="5.51"/>
    <line class="cls-4" x1="144.27" y1="5.42" x2="220.94" y2="5.42"/>
    <line class="cls-4" x1="220.85" y1="13.38" x2="220.85" y2="5.51"/>
    <line class="cls-4" x1="22.79" y1="21.43" x2="22.79" y2="13.56"/>
    <line class="cls-4" x1="220.85" y1="21.43" x2="220.85" y2="13.56"/>
    <line class="cls-4" x1="22.79" y1="29.49" x2="22.79" y2="21.61"/>
    <line class="cls-4" x1="220.85" y1="29.49" x2="220.85" y2="21.61"/>
    <line class="cls-4" x1="22.79" y1="37.54" x2="22.79" y2="29.66"/>
    <line class="cls-4" x1="220.85" y1="37.54" x2="220.85" y2="29.66"/>
    <line class="cls-4" x1="22.79" y1="45.59" x2="22.79" y2="37.71"/>
    <line class="cls-4" x1="220.85" y1="45.59" x2="220.85" y2="37.71"/>
    <line class="cls-4" x1="22.79" y1="53.64" x2="22.79" y2="45.76"/>
    <line class="cls-4" x1="220.85" y1="53.64" x2="220.85" y2="45.76"/>
    <line class="cls-4" x1="22.79" y1="61.69" x2="22.79" y2="53.81"/>
    <line class="cls-4" x1="220.85" y1="61.69" x2="220.85" y2="53.81"/>
    <line class="cls-4" x1="22.79" y1="69.74" x2="22.79" y2="61.86"/>
    <line class="cls-4" x1="220.85" y1="69.74" x2="220.85" y2="61.86"/>
    <line class="cls-4" x1="22.79" y1="77.79" x2="22.79" y2="69.92"/>
    <line class="cls-4" x1="22.79" y1="85.84" x2="22.79" y2="77.97"/>
    <line class="cls-1" x1="220.85" y1="77.79" x2="220.85" y2="69.92"/>
    <line class="cls-2" x1="22.71" y1="85.93" x2="99.33" y2="85.93"/>
    <line class="cls-4" x1="144.27" y1="77.88" x2="220.94" y2="77.88"/>
    <g>
      <path class="cls-11" d="M26.17,11.02c.25,.15,.6,.28,.98,.28,.56,0,.89-.3,.89-.72,0-.4-.23-.62-.8-.84-.69-.25-1.12-.6-1.12-1.2,0-.66,.55-1.15,1.37-1.15,.44,0,.75,.1,.94,.21l-.15,.45c-.14-.08-.42-.2-.81-.2-.58,0-.8,.35-.8,.64,0,.4,.26,.59,.84,.82,.72,.28,1.08,.62,1.08,1.25,0,.66-.49,1.22-1.49,1.22-.41,0-.86-.12-1.08-.27l.14-.46Z"/>
      <path class="cls-11" d="M29.35,7.44h.55v2.05h.02c.11-.16,.23-.32,.33-.45l1.3-1.59h.68l-1.54,1.8,1.66,2.45h-.65l-1.4-2.09-.4,.47v1.62h-.55V7.44Z"/>
      <path class="cls-11" d="M33.93,9.78v.41h-1.56v-.41h1.56Z"/>
      <path class="cls-11" d="M36.8,9.69h-1.65v1.53h1.84v.46h-2.39V7.44h2.29v.46h-1.75v1.34h1.65v.45Z"/>
      <path class="cls-11" d="M40.02,11.68l-.54-.94c-.22-.36-.36-.59-.49-.84h-.01c-.12,.25-.24,.47-.46,.84l-.51,.93h-.63l1.3-2.15-1.25-2.1h.64l.56,1c.16,.28,.28,.49,.39,.72h.02c.12-.25,.23-.45,.38-.72l.58-1h.63l-1.29,2.07,1.32,2.18h-.64Z"/>
      <path class="cls-11" d="M45.6,11.55c-.2,.1-.6,.2-1.12,.2-1.2,0-2.1-.76-2.1-2.15s.9-2.23,2.22-2.23c.53,0,.86,.11,1.01,.19l-.13,.45c-.21-.1-.5-.18-.86-.18-1,0-1.66,.64-1.66,1.75,0,1.04,.6,1.71,1.63,1.71,.33,0,.67-.07,.89-.18l.11,.43Z"/>
      <path class="cls-11" d="M48.96,10.13c0,1.13-.78,1.62-1.52,1.62-.83,0-1.46-.6-1.46-1.57,0-1.02,.67-1.62,1.51-1.62s1.47,.64,1.47,1.57Zm-2.42,.03c0,.67,.38,1.17,.93,1.17s.93-.5,.93-1.18c0-.52-.26-1.17-.91-1.17s-.94,.6-.94,1.19Z"/>
      <path class="cls-11" d="M49.6,9.46c0-.31,0-.57-.02-.83h.48l.03,.49h.02c.17-.29,.45-.56,.96-.56,.42,0,.73,.25,.86,.61h.01c.09-.17,.21-.3,.34-.4,.18-.14,.38-.21,.67-.21,.4,0,1,.26,1,1.32v1.8h-.54v-1.73c0-.59-.21-.94-.66-.94-.31,0-.56,.23-.66,.5-.03,.08-.04,.18-.04,.28v1.88h-.54v-1.83c0-.49-.21-.84-.64-.84-.35,0-.6,.28-.69,.55-.03,.08-.04,.18-.04,.27v1.84h-.54v-2.22Z"/>
      <path class="cls-11" d="M54.79,9.63c0-.39-.01-.71-.02-1h.5l.03,.52h.01c.23-.37,.59-.59,1.08-.59,.74,0,1.29,.62,1.29,1.55,0,1.1-.67,1.64-1.39,1.64-.4,0-.76-.18-.94-.48h-.01v1.66h-.55v-3.3Zm.55,.81c0,.08,.01,.16,.03,.23,.1,.38,.43,.65,.83,.65,.59,0,.93-.48,.93-1.18,0-.61-.32-1.13-.91-1.13-.38,0-.73,.27-.84,.69-.02,.07-.04,.15-.04,.23v.52Z"/>
      <path class="cls-11" d="M58.62,10.26c.01,.75,.49,1.06,1.05,1.06,.4,0,.64-.07,.84-.16l.09,.4c-.2,.09-.53,.19-1.01,.19-.94,0-1.5-.62-1.5-1.54s.54-1.65,1.43-1.65c1,0,1.26,.88,1.26,1.44,0,.11-.01,.2-.02,.26h-2.14Zm1.63-.4c0-.35-.14-.9-.77-.9-.56,0-.81,.52-.85,.9h1.62Z"/>
      <path class="cls-11" d="M62.07,7.76v.88h.79v.42h-.79v1.65c0,.38,.11,.59,.42,.59,.15,0,.25-.02,.32-.04l.03,.42c-.11,.04-.28,.08-.49,.08-.26,0-.47-.08-.6-.23-.16-.16-.21-.44-.21-.79v-1.66h-.47v-.42h.47v-.73l.54-.15Z"/>
      <path class="cls-11" d="M64.04,7.78c0,.19-.13,.34-.35,.34-.2,0-.33-.15-.33-.34s.15-.35,.35-.35,.34,.15,.34,.35Zm-.62,3.91v-3.05h.55v3.05h-.55Z"/>
      <path class="cls-11" d="M65.5,7.76v.88h.79v.42h-.79v1.65c0,.38,.11,.59,.42,.59,.15,0,.25-.02,.32-.04l.03,.42c-.11,.04-.28,.08-.49,.08-.26,0-.47-.08-.6-.23-.16-.16-.21-.44-.21-.79v-1.66h-.47v-.42h.47v-.73l.54-.15Z"/>
      <path class="cls-11" d="M67.47,7.78c0,.19-.13,.34-.35,.34-.2,0-.33-.15-.33-.34s.15-.35,.35-.35,.34,.15,.34,.35Zm-.62,3.91v-3.05h.55v3.05h-.55Z"/>
      <path class="cls-11" d="M71.03,10.13c0,1.13-.78,1.62-1.52,1.62-.83,0-1.46-.6-1.46-1.57,0-1.02,.67-1.62,1.51-1.62s1.47,.64,1.47,1.57Zm-2.42,.03c0,.67,.38,1.17,.93,1.17s.93-.5,.93-1.18c0-.52-.26-1.17-.91-1.17s-.94,.6-.94,1.19Z"/>
      <path class="cls-11" d="M71.66,9.46c0-.31,0-.57-.02-.83h.49l.03,.5h.01c.15-.29,.5-.57,1.01-.57,.42,0,1.08,.25,1.08,1.3v1.82h-.55v-1.76c0-.49-.18-.9-.71-.9-.37,0-.65,.26-.74,.57-.02,.07-.04,.16-.04,.26v1.83h-.55v-2.22Z"/>
    </g>
    <g>
      <path class="cls-11" d="M148.68,7.44h.55v2.84c0,1.13-.55,1.47-1.29,1.47-.2,0-.45-.04-.59-.1l.08-.45c.11,.04,.28,.08,.46,.08,.49,0,.78-.22,.78-1.05v-2.8Z"/>
      <path class="cls-11" d="M151.81,11.68l-.04-.38h-.02c-.17,.24-.5,.45-.93,.45-.62,0-.93-.44-.93-.88,0-.74,.66-1.14,1.83-1.13v-.06c0-.25-.07-.71-.69-.71-.28,0-.58,.09-.79,.23l-.13-.37c.25-.16,.62-.27,1-.27,.93,0,1.16,.64,1.16,1.25v1.14c0,.26,.01,.52,.05,.73h-.5Zm-.08-1.56c-.6-.01-1.29,.09-1.29,.69,0,.36,.24,.53,.52,.53,.4,0,.65-.25,.74-.51,.02-.06,.03-.12,.03-.18v-.53Z"/>
      <path class="cls-11" d="M152.81,11.36l1.38-1.8c.13-.16,.26-.31,.4-.47h0s-1.65-.01-1.65-.01v-.45h2.33v.35s-1.37,1.77-1.37,1.77c-.13,.17-.25,.32-.39,.48h0s1.78,.01,1.78,.01v.44h-2.48v-.32Z"/>
      <path class="cls-11" d="M155.51,11.36l1.38-1.8c.13-.16,.26-.31,.4-.47h0s-1.65-.01-1.65-.01v-.45h2.33v.35s-1.37,1.77-1.37,1.77c-.13,.17-.25,.32-.39,.48h0s1.78,.01,1.78,.01v.44h-2.48v-.32Z"/>
      <path class="cls-11" d="M163.54,9.52c0,1.46-.89,2.24-1.97,2.24s-1.91-.87-1.91-2.16c0-1.35,.84-2.23,1.97-2.23s1.91,.89,1.91,2.15Zm-3.3,.07c0,.91,.49,1.72,1.35,1.72s1.36-.8,1.36-1.76c0-.84-.44-1.73-1.35-1.73s-1.36,.84-1.36,1.77Z"/>
      <path class="cls-11" d="M164.23,9.59c0-.36,0-.67-.02-.95h.48l.02,.6h.03c.14-.41,.47-.67,.84-.67,.06,0,.11,0,.16,.02v.52c-.06-.01-.11-.02-.19-.02-.39,0-.67,.3-.74,.71-.01,.08-.03,.16-.03,.26v1.63h-.55v-2.1Z"/>
      <path class="cls-11" d="M168.87,8.63c-.01,.22-.03,.47-.03,.84v1.77c0,.7-.14,1.13-.43,1.39-.3,.28-.72,.37-1.11,.37s-.77-.09-1.01-.25l.14-.42c.2,.13,.52,.24,.9,.24,.57,0,.98-.3,.98-1.06v-.34h-.01c-.17,.28-.5,.51-.97,.51-.76,0-1.3-.64-1.3-1.49,0-1.03,.67-1.62,1.37-1.62,.53,0,.82,.28,.95,.53h.01l.02-.46h.49Zm-.57,1.2c0-.09,0-.18-.03-.25-.1-.32-.37-.59-.77-.59-.53,0-.91,.45-.91,1.15,0,.6,.3,1.1,.9,1.1,.34,0,.65-.21,.77-.57,.03-.09,.04-.2,.04-.3v-.55Z"/>
      <path class="cls-11" d="M171.45,11.68l-.04-.38h-.02c-.17,.24-.5,.45-.93,.45-.62,0-.93-.44-.93-.88,0-.74,.66-1.14,1.83-1.13v-.06c0-.25-.07-.71-.69-.71-.28,0-.58,.09-.79,.23l-.13-.37c.25-.16,.62-.27,1-.27,.93,0,1.16,.64,1.16,1.25v1.14c0,.26,.01,.52,.05,.73h-.5Zm-.08-1.56c-.6-.01-1.29,.09-1.29,.69,0,.36,.24,.53,.52,.53,.4,0,.65-.25,.74-.51,.02-.06,.03-.12,.03-.18v-.53Z"/>
      <path class="cls-11" d="M172.8,9.46c0-.31,0-.57-.02-.83h.49l.03,.5h.01c.15-.29,.5-.57,1.01-.57,.42,0,1.08,.25,1.08,1.3v1.82h-.55v-1.76c0-.49-.18-.9-.71-.9-.37,0-.65,.26-.74,.57-.02,.07-.04,.16-.04,.26v1.83h-.55v-2.22Z"/>
    </g>
    <g>
      <path class="cls-11" d="M28.45,17.74h-1.65v1.53h1.84v.46h-2.39v-4.25h2.29v.46h-1.75v1.34h1.65v.45Z"/>
      <path class="cls-11" d="M31.67,19.74l-.54-.94c-.22-.36-.36-.59-.49-.84h-.01c-.12,.25-.24,.47-.46,.84l-.51,.93h-.63l1.3-2.15-1.25-2.1h.64l.56,1c.16,.28,.28,.49,.39,.72h.02c.12-.25,.23-.45,.38-.72l.58-1h.63l-1.29,2.07,1.32,2.18h-.64Z"/>
      <path class="cls-11" d="M37.25,19.6c-.2,.1-.6,.2-1.12,.2-1.2,0-2.1-.76-2.1-2.15s.9-2.23,2.22-2.23c.53,0,.86,.11,1.01,.19l-.13,.45c-.21-.1-.5-.18-.86-.18-1,0-1.66,.64-1.66,1.75,0,1.04,.6,1.71,1.63,1.71,.33,0,.67-.07,.89-.18l.11,.43Z"/>
      <path class="cls-11" d="M40.61,18.19c0,1.13-.78,1.62-1.52,1.62-.83,0-1.46-.6-1.46-1.57,0-1.02,.67-1.62,1.51-1.62s1.47,.64,1.47,1.57Zm-2.42,.03c0,.67,.38,1.17,.93,1.17s.93-.5,.93-1.18c0-.52-.26-1.17-.91-1.17s-.94,.6-.94,1.19Z"/>
      <path class="cls-11" d="M41.31,17.51c0-.31,0-.57-.02-.83h.49l.03,.5h.01c.15-.29,.5-.57,1.01-.57,.42,0,1.08,.25,1.08,1.3v1.82h-.55v-1.76c0-.49-.18-.9-.71-.9-.37,0-.65,.26-.74,.57-.02,.07-.04,.16-.04,.26v1.83h-.55v-2.22Z"/>
      <path class="cls-11" d="M46.98,19.62c-.15,.08-.47,.18-.88,.18-.92,0-1.52-.62-1.52-1.56s.64-1.62,1.64-1.62c.33,0,.62,.08,.77,.16l-.13,.43c-.13-.08-.34-.15-.64-.15-.7,0-1.08,.52-1.08,1.15,0,.71,.45,1.14,1.06,1.14,.32,0,.52-.08,.68-.15l.09,.42Z"/>
      <path class="cls-11" d="M47.9,18.31c.01,.75,.49,1.06,1.05,1.06,.4,0,.64-.07,.84-.16l.09,.4c-.2,.09-.53,.19-1.01,.19-.94,0-1.5-.62-1.5-1.54s.54-1.65,1.43-1.65c1,0,1.26,.88,1.26,1.44,0,.11-.01,.2-.02,.26h-2.14Zm1.63-.4c0-.35-.14-.9-.77-.9-.56,0-.81,.52-.85,.9h1.62Z"/>
      <path class="cls-11" d="M50.75,17.64c0-.36,0-.67-.02-.95h.48l.02,.6h.03c.14-.41,.47-.67,.84-.67,.06,0,.11,0,.16,.02v.52c-.06-.01-.11-.02-.19-.02-.39,0-.67,.3-.74,.71-.01,.08-.03,.16-.03,.26v1.63h-.55v-2.1Z"/>
      <path class="cls-11" d="M53.62,15.81v.88h.79v.42h-.79v1.65c0,.38,.11,.59,.42,.59,.15,0,.25-.02,.32-.04l.03,.42c-.11,.04-.28,.08-.49,.08-.26,0-.47-.08-.6-.23-.16-.16-.21-.44-.21-.79v-1.66h-.47v-.42h.47v-.73l.54-.15Z"/>
    </g>
    <g>
      <path class="cls-11" d="M150.78,19.6c-.2,.1-.6,.2-1.12,.2-1.2,0-2.1-.76-2.1-2.15s.9-2.23,2.22-2.23c.53,0,.86,.11,1.01,.19l-.13,.45c-.21-.1-.5-.18-.86-.18-1,0-1.66,.64-1.66,1.75,0,1.04,.6,1.71,1.63,1.71,.33,0,.67-.07,.89-.18l.11,.43Z"/>
      <path class="cls-11" d="M151.45,15.26h.55v1.9h.01c.09-.16,.23-.3,.4-.39,.16-.09,.36-.16,.57-.16,.41,0,1.07,.25,1.07,1.3v1.81h-.55v-1.75c0-.49-.18-.91-.71-.91-.36,0-.64,.25-.74,.55-.03,.08-.04,.16-.04,.26v1.84h-.55v-4.47Z"/>
      <path class="cls-11" d="M157.49,18.9c0,.32,0,.59,.03,.83h-.49l-.03-.5h-.01c-.15,.25-.47,.57-1.01,.57-.48,0-1.05-.26-1.05-1.34v-1.78h.55v1.69c0,.58,.18,.97,.68,.97,.37,0,.63-.26,.73-.5,.03-.08,.05-.18,.05-.28v-1.87h.55v2.22Z"/>
      <path class="cls-11" d="M158.41,17.64c0-.36,0-.67-.02-.95h.48l.02,.6h.03c.14-.41,.47-.67,.84-.67,.06,0,.11,0,.16,.02v.52c-.06-.01-.11-.02-.19-.02-.39,0-.67,.3-.74,.71-.01,.08-.03,.16-.03,.26v1.63h-.55v-2.1Z"/>
      <path class="cls-11" d="M162.59,19.62c-.15,.08-.47,.18-.88,.18-.92,0-1.52-.62-1.52-1.56s.64-1.62,1.64-1.62c.33,0,.62,.08,.77,.16l-.13,.43c-.13-.08-.34-.15-.64-.15-.7,0-1.08,.52-1.08,1.15,0,.71,.45,1.14,1.06,1.14,.32,0,.52-.08,.68-.15l.09,.42Z"/>
      <path class="cls-11" d="M163.24,15.26h.55v1.9h.01c.09-.16,.23-.3,.4-.39,.16-.09,.36-.16,.57-.16,.41,0,1.07,.25,1.07,1.3v1.81h-.55v-1.75c0-.49-.18-.91-.71-.91-.36,0-.64,.25-.74,.55-.03,.08-.04,.16-.04,.26v1.84h-.55v-4.47Z"/>
      <path class="cls-11" d="M171.72,17.57c0,1.46-.89,2.24-1.97,2.24s-1.91-.87-1.91-2.16c0-1.35,.84-2.23,1.97-2.23s1.91,.89,1.91,2.15Zm-3.3,.07c0,.91,.49,1.72,1.35,1.72s1.36-.8,1.36-1.76c0-.84-.44-1.73-1.35-1.73s-1.36,.84-1.36,1.77Z"/>
      <path class="cls-11" d="M172.41,17.64c0-.36,0-.67-.02-.95h.48l.02,.6h.03c.14-.41,.47-.67,.84-.67,.06,0,.11,0,.16,.02v.52c-.06-.01-.11-.02-.19-.02-.39,0-.67,.3-.74,.71-.01,.08-.03,.16-.03,.26v1.63h-.55v-2.1Z"/>
      <path class="cls-11" d="M177.05,16.69c-.01,.22-.03,.47-.03,.84v1.77c0,.7-.14,1.13-.43,1.39-.3,.28-.72,.37-1.11,.37s-.77-.09-1.01-.25l.14-.42c.2,.13,.52,.24,.9,.24,.57,0,.98-.3,.98-1.06v-.34h-.01c-.17,.28-.5,.51-.97,.51-.76,0-1.3-.64-1.3-1.49,0-1.03,.67-1.62,1.37-1.62,.53,0,.82,.28,.95,.53h.01l.02-.46h.49Zm-.57,1.2c0-.09,0-.18-.03-.25-.1-.32-.37-.59-.77-.59-.53,0-.91,.45-.91,1.15,0,.6,.3,1.1,.9,1.1,.34,0,.65-.21,.77-.57,.03-.09,.04-.2,.04-.3v-.55Z"/>
      <path class="cls-11" d="M179.63,19.74l-.04-.38h-.02c-.17,.24-.5,.45-.93,.45-.62,0-.93-.44-.93-.88,0-.74,.66-1.14,1.83-1.13v-.06c0-.25-.07-.71-.69-.71-.28,0-.58,.09-.79,.23l-.13-.37c.25-.16,.62-.27,1-.27,.93,0,1.16,.64,1.16,1.25v1.14c0,.26,.01,.52,.05,.73h-.5Zm-.08-1.56c-.6-.01-1.29,.09-1.29,.69,0,.36,.24,.53,.52,.53,.4,0,.65-.25,.74-.51,.02-.06,.03-.12,.03-.18v-.53Z"/>
      <path class="cls-11" d="M180.98,17.51c0-.31,0-.57-.02-.83h.49l.03,.5h.01c.15-.29,.5-.57,1.01-.57,.42,0,1.08,.25,1.08,1.3v1.82h-.55v-1.76c0-.49-.18-.9-.71-.9-.37,0-.65,.26-.74,.57-.02,.07-.04,.16-.04,.26v1.83h-.55v-2.22Z"/>
    </g>
    <g>
      <path class="cls-11" d="M26.8,23.54v2.51c0,.95,.42,1.35,.99,1.35,.63,0,1.03-.42,1.03-1.35v-2.51h.55v2.48c0,1.3-.69,1.84-1.61,1.84-.87,0-1.52-.5-1.52-1.81v-2.5h.55Z"/>
      <path class="cls-11" d="M30.31,25.73c0-.39-.01-.71-.02-1h.5l.03,.52h.01c.23-.37,.59-.59,1.08-.59,.74,0,1.29,.62,1.29,1.55,0,1.1-.67,1.64-1.39,1.64-.4,0-.76-.18-.94-.48h-.01v1.66h-.55v-3.3Zm.55,.81c0,.08,.01,.16,.03,.23,.1,.38,.43,.65,.83,.65,.59,0,.93-.48,.93-1.18,0-.61-.32-1.13-.91-1.13-.38,0-.73,.27-.84,.69-.02,.07-.04,.15-.04,.23v.52Z"/>
      <path class="cls-11" d="M33.89,25.69c0-.36,0-.67-.02-.95h.48l.02,.6h.03c.14-.41,.47-.67,.84-.67,.06,0,.11,0,.16,.02v.52c-.06-.01-.11-.02-.19-.02-.39,0-.67,.3-.74,.71-.01,.08-.03,.16-.03,.26v1.63h-.55v-2.1Z"/>
      <path class="cls-11" d="M36.59,23.88c0,.19-.13,.34-.35,.34-.2,0-.33-.15-.33-.34s.15-.35,.35-.35,.34,.15,.34,.35Zm-.62,3.91v-3.05h.55v3.05h-.55Z"/>
      <path class="cls-11" d="M40.07,24.74c-.01,.22-.03,.47-.03,.84v1.77c0,.7-.14,1.13-.43,1.39-.3,.28-.72,.37-1.11,.37s-.77-.09-1.01-.25l.14-.42c.2,.13,.52,.24,.9,.24,.57,0,.98-.3,.98-1.06v-.34h-.01c-.17,.28-.5,.51-.97,.51-.76,0-1.3-.64-1.3-1.49,0-1.03,.67-1.62,1.37-1.62,.53,0,.82,.28,.95,.53h.01l.02-.46h.49Zm-.57,1.2c0-.09,0-.18-.03-.25-.1-.32-.37-.59-.77-.59-.53,0-.91,.45-.91,1.15,0,.6,.3,1.1,.9,1.1,.34,0,.65-.21,.77-.57,.03-.09,.04-.2,.04-.3v-.55Z"/>
      <path class="cls-11" d="M40.96,23.31h.55v1.9h.01c.09-.16,.23-.3,.4-.39,.16-.09,.36-.16,.57-.16,.41,0,1.07,.25,1.07,1.3v1.81h-.55v-1.75c0-.49-.18-.91-.71-.91-.36,0-.64,.25-.74,.55-.03,.08-.04,.16-.04,.26v1.84h-.55v-4.47Z"/>
      <path class="cls-11" d="M45.11,23.86v.88h.79v.42h-.79v1.65c0,.38,.11,.59,.42,.59,.15,0,.25-.02,.32-.04l.03,.42c-.11,.04-.28,.08-.49,.08-.26,0-.47-.08-.6-.23-.16-.16-.21-.44-.21-.79v-1.66h-.47v-.42h.47v-.73l.54-.15Z"/>
      <path class="cls-11" d="M47.88,23.59c.26-.04,.61-.08,1.05-.08,.54,0,.94,.13,1.19,.35,.23,.2,.37,.51,.37,.89s-.11,.69-.33,.91c-.29,.31-.76,.47-1.3,.47-.16,0-.31,0-.44-.04v1.7h-.55v-4.2Zm.55,2.05c.12,.03,.27,.04,.45,.04,.66,0,1.06-.32,1.06-.91s-.4-.83-1-.83c-.24,0-.42,.02-.52,.04v1.65Z"/>
      <path class="cls-11" d="M51.73,23.88c0,.19-.13,.34-.35,.34-.2,0-.33-.15-.33-.34s.15-.35,.35-.35,.34,.15,.34,.35Zm-.62,3.91v-3.05h.55v3.05h-.55Z"/>
      <path class="cls-11" d="M54.28,27.79l-.04-.38h-.02c-.17,.24-.5,.45-.93,.45-.62,0-.93-.44-.93-.88,0-.74,.66-1.14,1.83-1.13v-.06c0-.25-.07-.71-.69-.71-.28,0-.58,.09-.79,.23l-.13-.37c.25-.16,.62-.27,1-.27,.93,0,1.16,.64,1.16,1.25v1.14c0,.26,.01,.52,.05,.73h-.5Zm-.08-1.56c-.6-.01-1.29,.09-1.29,.69,0,.36,.24,.53,.52,.53,.4,0,.65-.25,.74-.51,.02-.06,.03-.12,.03-.18v-.53Z"/>
      <path class="cls-11" d="M55.62,25.56c0-.31,0-.57-.02-.83h.49l.03,.5h.01c.15-.29,.5-.57,1.01-.57,.42,0,1.08,.25,1.08,1.3v1.82h-.55v-1.76c0-.49-.18-.9-.71-.9-.37,0-.65,.26-.74,.57-.02,.07-.04,.16-.04,.26v1.83h-.55v-2.22Z"/>
      <path class="cls-11" d="M61.88,26.24c0,1.13-.78,1.62-1.52,1.62-.83,0-1.46-.6-1.46-1.57,0-1.02,.67-1.62,1.51-1.62s1.47,.64,1.47,1.57Zm-2.42,.03c0,.67,.38,1.17,.93,1.17s.93-.5,.93-1.18c0-.52-.26-1.17-.91-1.17s-.94,.6-.94,1.19Z"/>
    </g>
    <g>
      <path class="cls-11" d="M148.36,23.54v1.78h2.05v-1.78h.55v4.25h-.55v-1.99h-2.05v1.99h-.55v-4.25h.55Z"/>
      <path class="cls-11" d="M153.59,27.79l-.04-.38h-.02c-.17,.24-.5,.45-.93,.45-.62,0-.93-.44-.93-.88,0-.74,.66-1.14,1.83-1.13v-.06c0-.25-.07-.71-.69-.71-.28,0-.58,.09-.79,.23l-.13-.37c.25-.16,.62-.27,1-.27,.93,0,1.16,.64,1.16,1.25v1.14c0,.26,.01,.52,.05,.73h-.5Zm-.08-1.56c-.6-.01-1.29,.09-1.29,.69,0,.36,.24,.53,.52,.53,.4,0,.65-.25,.74-.51,.02-.06,.03-.12,.03-.18v-.53Z"/>
      <path class="cls-11" d="M154.94,25.69c0-.36,0-.67-.02-.95h.48l.02,.6h.03c.14-.41,.47-.67,.84-.67,.06,0,.11,0,.16,.02v.52c-.06-.01-.11-.02-.19-.02-.39,0-.67,.3-.74,.71-.01,.08-.03,.16-.03,.26v1.63h-.55v-2.1Z"/>
      <path class="cls-11" d="M157.01,25.73c0-.39-.01-.71-.02-1h.5l.03,.52h.01c.23-.37,.59-.59,1.08-.59,.74,0,1.29,.62,1.29,1.55,0,1.1-.67,1.64-1.39,1.64-.4,0-.76-.18-.94-.48h-.01v1.66h-.55v-3.3Zm.55,.81c0,.08,.01,.16,.03,.23,.1,.38,.43,.65,.83,.65,.59,0,.93-.48,.93-1.18,0-.61-.32-1.13-.91-1.13-.38,0-.73,.27-.84,.69-.02,.07-.04,.15-.04,.23v.52Z"/>
      <path class="cls-11" d="M160.52,27.22c.16,.11,.45,.22,.73,.22,.4,0,.59-.2,.59-.45,0-.26-.16-.41-.57-.56-.55-.2-.81-.5-.81-.86,0-.49,.4-.9,1.05-.9,.31,0,.58,.09,.75,.19l-.14,.4c-.12-.08-.34-.18-.62-.18-.33,0-.51,.19-.51,.42,0,.25,.18,.37,.58,.52,.53,.2,.8,.47,.8,.92,0,.54-.42,.91-1.14,.91-.33,0-.64-.08-.86-.21l.14-.42Z"/>
      <path class="cls-11" d="M163.71,23.88c0,.19-.13,.34-.35,.34-.2,0-.33-.15-.33-.34s.15-.35,.35-.35,.34,.15,.34,.35Zm-.62,3.91v-3.05h.55v3.05h-.55Z"/>
      <path class="cls-11" d="M166.74,27.67c-.15,.08-.47,.18-.88,.18-.92,0-1.52-.62-1.52-1.56s.64-1.62,1.64-1.62c.33,0,.62,.08,.77,.16l-.13,.43c-.13-.08-.34-.15-.64-.15-.7,0-1.08,.52-1.08,1.15,0,.71,.45,1.14,1.06,1.14,.32,0,.52-.08,.68-.15l.09,.42Z"/>
      <path class="cls-11" d="M167.39,23.31h.55v1.9h.01c.09-.16,.23-.3,.4-.39,.16-.09,.36-.16,.57-.16,.41,0,1.07,.25,1.07,1.3v1.81h-.55v-1.75c0-.49-.18-.91-.71-.91-.36,0-.64,.25-.74,.55-.03,.08-.04,.16-.04,.26v1.84h-.55v-4.47Z"/>
      <path class="cls-11" d="M173.65,26.24c0,1.13-.78,1.62-1.52,1.62-.83,0-1.46-.6-1.46-1.57,0-1.02,.67-1.62,1.51-1.62s1.47,.64,1.47,1.57Zm-2.42,.03c0,.67,.38,1.17,.93,1.17s.93-.5,.93-1.18c0-.52-.26-1.17-.91-1.17s-.94,.6-.94,1.19Z"/>
      <path class="cls-11" d="M174.34,25.69c0-.36,0-.67-.02-.95h.48l.02,.6h.03c.14-.41,.47-.67,.84-.67,.06,0,.11,0,.16,.02v.52c-.06-.01-.11-.02-.19-.02-.39,0-.67,.3-.74,.71-.01,.08-.03,.16-.03,.26v1.63h-.55v-2.1Z"/>
      <path class="cls-11" d="M178.98,23.31v3.69c0,.27,0,.58,.03,.79h-.5l-.03-.53h-.01c-.17,.34-.54,.6-1.04,.6-.74,0-1.3-.62-1.3-1.55,0-1.01,.62-1.64,1.37-1.64,.47,0,.78,.22,.92,.47h.01v-1.82h.55Zm-.55,2.67c0-.07,0-.16-.02-.23-.08-.35-.38-.64-.8-.64-.57,0-.91,.5-.91,1.18,0,.62,.3,1.13,.9,1.13,.37,0,.71-.25,.81-.66,.02-.08,.02-.15,.02-.24v-.53Z"/>
    </g>
    <g>
      <path class="cls-11" d="M26.17,35.17c.25,.15,.6,.28,.98,.28,.56,0,.89-.3,.89-.72,0-.4-.23-.62-.8-.84-.69-.25-1.12-.6-1.12-1.2,0-.66,.55-1.15,1.37-1.15,.44,0,.75,.1,.94,.21l-.15,.45c-.14-.08-.42-.2-.81-.2-.58,0-.8,.35-.8,.64,0,.4,.26,.59,.84,.82,.72,.28,1.08,.62,1.08,1.25,0,.66-.49,1.22-1.49,1.22-.41,0-.86-.12-1.08-.27l.14-.46Z"/>
      <path class="cls-11" d="M29.35,31.59h.55v2.05h.02c.11-.16,.23-.32,.33-.45l1.3-1.59h.68l-1.54,1.8,1.66,2.45h-.65l-1.4-2.09-.4,.47v1.62h-.55v-4.25Z"/>
      <path class="cls-11" d="M33.93,33.93v.41h-1.56v-.41h1.56Z"/>
      <path class="cls-11" d="M36.8,33.85h-1.65v1.53h1.84v.46h-2.39v-4.25h2.29v.46h-1.75v1.34h1.65v.45Z"/>
      <path class="cls-11" d="M40.02,35.84l-.54-.94c-.22-.36-.36-.59-.49-.84h-.01c-.12,.25-.24,.47-.46,.84l-.51,.93h-.63l1.3-2.15-1.25-2.1h.64l.56,1c.16,.28,.28,.49,.39,.72h.02c.12-.25,.23-.45,.38-.72l.58-1h.63l-1.29,2.07,1.32,2.18h-.64Z"/>
      <path class="cls-11" d="M43.5,31.59h.55v2.84c0,1.13-.55,1.47-1.29,1.47-.2,0-.45-.04-.59-.1l.08-.45c.11,.04,.28,.08,.46,.08,.49,0,.78-.22,.78-1.05v-2.8Z"/>
      <path class="cls-11" d="M46.63,35.84l-.04-.38h-.02c-.17,.24-.5,.45-.93,.45-.62,0-.93-.44-.93-.88,0-.74,.66-1.14,1.83-1.13v-.06c0-.25-.07-.71-.69-.71-.28,0-.58,.09-.79,.23l-.13-.37c.25-.16,.62-.27,1-.27,.93,0,1.16,.64,1.16,1.25v1.14c0,.26,.01,.52,.05,.73h-.5Zm-.08-1.56c-.6-.01-1.29,.09-1.29,.69,0,.36,.24,.53,.52,.53,.4,0,.65-.25,.74-.51,.02-.06,.03-.12,.03-.18v-.53Z"/>
      <path class="cls-11" d="M47.63,35.52l1.38-1.8c.13-.16,.26-.31,.4-.47h0s-1.65-.01-1.65-.01v-.45h2.33v.35s-1.37,1.77-1.37,1.77c-.13,.17-.25,.32-.39,.48h0s1.78,.01,1.78,.01v.44h-2.48v-.32Z"/>
      <path class="cls-11" d="M50.33,35.52l1.38-1.8c.13-.16,.26-.31,.4-.47h0s-1.65-.01-1.65-.01v-.45h2.33v.35s-1.37,1.77-1.37,1.77c-.13,.17-.25,.32-.39,.48h0s1.78,.01,1.78,.01v.44h-2.48v-.32Z"/>
    </g>
    <g>
      <path class="cls-11" d="M148.74,35.84l-1.39-4.25h.59l.66,2.09c.18,.57,.34,1.09,.45,1.59h.01c.12-.49,.3-1.03,.49-1.58l.72-2.1h.59l-1.52,4.25h-.6Z"/>
      <path class="cls-11" d="M151.83,31.93c0,.19-.13,.34-.35,.34-.2,0-.33-.15-.33-.34s.15-.35,.35-.35,.34,.15,.34,.35Zm-.62,3.91v-3.05h.55v3.05h-.55Z"/>
      <path class="cls-11" d="M152.66,35.84c.01-.21,.02-.52,.02-.79v-3.69h.55v1.92h.01c.2-.34,.55-.56,1.04-.56,.76,0,1.29,.63,1.29,1.56,0,1.09-.69,1.63-1.37,1.63-.44,0-.79-.17-1.02-.57h-.02l-.03,.5h-.48Zm.57-1.22c0,.07,.01,.14,.03,.2,.11,.38,.43,.65,.83,.65,.58,0,.93-.47,.93-1.17,0-.61-.31-1.13-.91-1.13-.38,0-.73,.26-.84,.68-.01,.06-.03,.14-.03,.23v.55Z"/>
      <path class="cls-11" d="M156.27,33.74c0-.36,0-.67-.02-.95h.48l.02,.6h.03c.14-.41,.47-.67,.84-.67,.06,0,.11,0,.16,.02v.52c-.06-.01-.11-.02-.19-.02-.39,0-.67,.3-.74,.71-.01,.08-.03,.16-.03,.26v1.63h-.55v-2.1Z"/>
      <path class="cls-11" d="M159.99,35.84l-.04-.38h-.02c-.17,.24-.5,.45-.93,.45-.62,0-.93-.44-.93-.88,0-.74,.66-1.14,1.83-1.13v-.06c0-.25-.07-.71-.69-.71-.28,0-.58,.09-.79,.23l-.13-.37c.25-.16,.62-.27,1-.27,.93,0,1.16,.64,1.16,1.25v1.14c0,.26,.01,.52,.05,.73h-.5Zm-.08-1.56c-.6-.01-1.29,.09-1.29,.69,0,.36,.24,.53,.52,.53,.4,0,.65-.25,.74-.51,.02-.06,.03-.12,.03-.18v-.53Z"/>
      <path class="cls-11" d="M161.34,33.78c0-.39-.01-.71-.02-1h.5l.03,.52h.01c.23-.37,.59-.59,1.08-.59,.74,0,1.29,.62,1.29,1.55,0,1.1-.67,1.64-1.39,1.64-.4,0-.76-.18-.94-.48h-.01v1.66h-.55v-3.3Zm.55,.81c0,.08,.01,.16,.03,.23,.1,.38,.43,.65,.83,.65,.59,0,.93-.48,.93-1.18,0-.61-.32-1.13-.91-1.13-.38,0-.73,.27-.84,.69-.02,.07-.04,.15-.04,.23v.52Z"/>
      <path class="cls-11" d="M164.93,31.36h.55v1.9h.01c.09-.16,.23-.3,.4-.39,.16-.09,.36-.16,.57-.16,.41,0,1.07,.25,1.07,1.3v1.81h-.55v-1.75c0-.49-.18-.91-.71-.91-.36,0-.64,.25-.74,.55-.03,.08-.04,.16-.04,.26v1.84h-.55v-4.47Z"/>
      <path class="cls-11" d="M171.18,34.29c0,1.13-.78,1.62-1.52,1.62-.83,0-1.46-.6-1.46-1.57,0-1.02,.67-1.62,1.51-1.62s1.47,.64,1.47,1.57Zm-2.42,.03c0,.67,.38,1.17,.93,1.17s.93-.5,.93-1.18c0-.52-.26-1.17-.91-1.17s-.94,.6-.94,1.19Z"/>
      <path class="cls-11" d="M171.88,33.61c0-.31,0-.57-.02-.83h.49l.03,.5h.01c.15-.29,.5-.57,1.01-.57,.42,0,1.08,.25,1.08,1.3v1.82h-.55v-1.76c0-.49-.18-.9-.71-.9-.37,0-.65,.26-.74,.57-.02,.07-.04,.16-.04,.26v1.83h-.55v-2.22Z"/>
      <path class="cls-11" d="M175.69,34.41c.01,.75,.49,1.06,1.05,1.06,.4,0,.64-.07,.84-.16l.09,.4c-.2,.09-.53,.19-1.01,.19-.94,0-1.5-.62-1.5-1.54s.54-1.65,1.43-1.65c1,0,1.26,.88,1.26,1.44,0,.11-.01,.2-.02,.26h-2.14Zm1.63-.4c0-.35-.14-.9-.77-.9-.56,0-.81,.52-.85,.9h1.62Z"/>
    </g>
    <g>
      <path class="cls-11" d="M28.45,41.9h-1.65v1.53h1.84v.46h-2.39v-4.25h2.29v.46h-1.75v1.34h1.65v.45Z"/>
      <path class="cls-11" d="M31.67,43.89l-.54-.94c-.22-.36-.36-.59-.49-.84h-.01c-.12,.25-.24,.47-.46,.84l-.51,.93h-.63l1.3-2.15-1.25-2.1h.64l.56,1c.16,.28,.28,.49,.39,.72h.02c.12-.25,.23-.45,.38-.72l.58-1h.63l-1.29,2.07,1.32,2.18h-.64Z"/>
      <path class="cls-11" d="M34.28,39.69c.26-.04,.61-.08,1.05-.08,.54,0,.94,.13,1.19,.35,.23,.2,.37,.51,.37,.89s-.11,.69-.33,.91c-.29,.31-.76,.47-1.3,.47-.16,0-.31,0-.44-.04v1.7h-.55v-4.2Zm.55,2.05c.12,.03,.27,.04,.45,.04,.66,0,1.06-.32,1.06-.91s-.4-.83-1-.83c-.24,0-.42,.02-.52,.04v1.65Z"/>
      <path class="cls-11" d="M40.22,42.34c0,1.13-.78,1.62-1.52,1.62-.83,0-1.46-.6-1.46-1.57,0-1.02,.67-1.62,1.51-1.62s1.47,.64,1.47,1.57Zm-2.42,.03c0,.67,.38,1.17,.93,1.17s.93-.5,.93-1.18c0-.52-.26-1.17-.91-1.17s-.94,.6-.94,1.19Z"/>
      <path class="cls-11" d="M40.91,41.84c0-.39-.01-.71-.02-1h.5l.03,.52h.01c.23-.37,.59-.59,1.08-.59,.74,0,1.29,.62,1.29,1.55,0,1.1-.67,1.64-1.39,1.64-.4,0-.76-.18-.94-.48h-.01v1.66h-.55v-3.3Zm.55,.81c0,.08,.01,.16,.03,.23,.1,.38,.43,.65,.83,.65,.59,0,.93-.48,.93-1.18,0-.61-.32-1.13-.91-1.13-.38,0-.73,.27-.84,.69-.02,.07-.04,.15-.04,.23v.52Z"/>
    </g>
    <g>
      <path class="cls-11" d="M147.73,43.22c.25,.15,.6,.28,.98,.28,.56,0,.89-.3,.89-.72,0-.4-.23-.62-.8-.84-.69-.25-1.12-.6-1.12-1.2,0-.66,.55-1.15,1.37-1.15,.44,0,.75,.1,.94,.21l-.15,.45c-.14-.08-.42-.2-.81-.2-.58,0-.8,.35-.8,.64,0,.4,.26,.59,.84,.82,.72,.28,1.08,.62,1.08,1.25,0,.66-.49,1.22-1.49,1.22-.41,0-.86-.12-1.08-.27l.14-.46Z"/>
      <path class="cls-11" d="M151.55,39.96v.88h.79v.42h-.79v1.65c0,.38,.11,.59,.42,.59,.15,0,.25-.02,.32-.04l.03,.42c-.11,.04-.28,.08-.49,.08-.26,0-.47-.08-.6-.23-.16-.16-.21-.44-.21-.79v-1.66h-.47v-.42h.47v-.73l.54-.15Z"/>
      <path class="cls-11" d="M152.97,41.79c0-.36,0-.67-.02-.95h.48l.02,.6h.03c.14-.41,.47-.67,.84-.67,.06,0,.11,0,.16,.02v.52c-.06-.01-.11-.02-.19-.02-.39,0-.67,.3-.74,.71-.01,.08-.03,.16-.03,.26v1.63h-.55v-2.1Z"/>
      <path class="cls-11" d="M155.67,39.98c0,.19-.13,.34-.35,.34-.2,0-.33-.15-.33-.34s.15-.35,.35-.35,.34,.15,.34,.35Zm-.62,3.91v-3.05h.55v3.05h-.55Z"/>
      <path class="cls-11" d="M156.53,41.67c0-.31,0-.57-.02-.83h.49l.03,.5h.01c.15-.29,.5-.57,1.01-.57,.42,0,1.08,.25,1.08,1.3v1.82h-.55v-1.76c0-.49-.18-.9-.71-.9-.37,0-.65,.26-.74,.57-.02,.07-.04,.16-.04,.26v1.83h-.55v-2.22Z"/>
      <path class="cls-11" d="M162.65,40.84c-.01,.22-.03,.47-.03,.84v1.77c0,.7-.14,1.13-.43,1.39-.3,.28-.72,.37-1.11,.37s-.77-.09-1.01-.25l.14-.42c.2,.13,.52,.24,.9,.24,.57,0,.98-.3,.98-1.06v-.34h-.01c-.17,.28-.5,.51-.97,.51-.76,0-1.3-.64-1.3-1.49,0-1.03,.67-1.62,1.37-1.62,.53,0,.82,.28,.95,.53h.01l.02-.46h.49Zm-.57,1.2c0-.09,0-.18-.03-.25-.1-.32-.37-.59-.77-.59-.53,0-.91,.45-.91,1.15,0,.6,.3,1.1,.9,1.1,.34,0,.65-.21,.77-.57,.03-.09,.04-.2,.04-.3v-.55Z"/>
      <path class="cls-11" d="M167.1,41.9h-1.65v1.53h1.84v.46h-2.39v-4.25h2.29v.46h-1.75v1.34h1.65v.45Z"/>
      <path class="cls-11" d="M167.98,41.67c0-.31,0-.57-.02-.83h.49l.03,.5h.01c.15-.29,.5-.57,1.01-.57,.42,0,1.08,.25,1.08,1.3v1.82h-.55v-1.76c0-.49-.18-.9-.71-.9-.37,0-.65,.26-.74,.57-.02,.07-.04,.16-.04,.26v1.83h-.55v-2.22Z"/>
      <path class="cls-11" d="M171.4,43.32c.16,.11,.45,.22,.73,.22,.4,0,.59-.2,.59-.45,0-.26-.16-.41-.57-.56-.55-.2-.81-.5-.81-.86,0-.49,.4-.9,1.05-.9,.31,0,.58,.09,.75,.19l-.14,.4c-.12-.08-.34-.18-.62-.18-.33,0-.51,.19-.51,.42,0,.25,.18,.37,.58,.52,.53,.2,.8,.47,.8,.92,0,.54-.42,.91-1.14,.91-.33,0-.64-.08-.86-.21l.14-.42Z"/>
      <path class="cls-11" d="M174.28,42.47c.01,.75,.49,1.06,1.05,1.06,.4,0,.64-.07,.84-.16l.09,.4c-.2,.09-.53,.19-1.01,.19-.94,0-1.5-.62-1.5-1.54s.54-1.65,1.43-1.65c1,0,1.26,.88,1.26,1.44,0,.11-.01,.2-.02,.26h-2.14Zm1.63-.4c0-.35-.14-.9-.77-.9-.56,0-.81,.52-.85,.9h1.62Z"/>
      <path class="cls-11" d="M177.13,41.67c0-.31,0-.57-.02-.83h.48l.03,.49h.02c.17-.29,.45-.56,.96-.56,.42,0,.73,.25,.86,.61h.01c.09-.17,.21-.3,.34-.4,.18-.14,.38-.21,.67-.21,.4,0,1,.26,1,1.32v1.8h-.54v-1.73c0-.59-.21-.94-.66-.94-.31,0-.56,.23-.66,.5-.03,.08-.04,.18-.04,.28v1.88h-.54v-1.83c0-.49-.21-.84-.64-.84-.35,0-.6,.28-.69,.55-.03,.08-.04,.18-.04,.27v1.84h-.54v-2.22Z"/>
      <path class="cls-11" d="M182.36,43.89c.01-.21,.02-.52,.02-.79v-3.69h.55v1.92h.01c.2-.34,.55-.56,1.04-.56,.76,0,1.29,.63,1.29,1.56,0,1.09-.69,1.63-1.37,1.63-.44,0-.79-.17-1.02-.57h-.02l-.03,.5h-.48Zm.57-1.22c0,.07,.01,.14,.03,.2,.11,.38,.43,.65,.83,.65,.58,0,.93-.47,.93-1.17,0-.61-.31-1.13-.91-1.13-.38,0-.73,.26-.84,.68-.01,.06-.03,.14-.03,.23v.55Z"/>
      <path class="cls-11" d="M185.97,39.42h.55v4.47h-.55v-4.47Z"/>
      <path class="cls-11" d="M187.76,42.47c.01,.75,.49,1.06,1.05,1.06,.4,0,.64-.07,.84-.16l.09,.4c-.2,.09-.53,.19-1.01,.19-.94,0-1.5-.62-1.5-1.54s.54-1.65,1.43-1.65c1,0,1.26,.88,1.26,1.44,0,.11-.01,.2-.02,.26h-2.14Zm1.63-.4c0-.35-.14-.9-.77-.9-.56,0-.81,.52-.85,.9h1.62Z"/>
    </g>
    <g>
      <path class="cls-11" d="M26.17,51.27c.25,.15,.6,.28,.98,.28,.56,0,.89-.3,.89-.72,0-.4-.23-.62-.8-.84-.69-.25-1.12-.6-1.12-1.2,0-.66,.55-1.15,1.37-1.15,.44,0,.75,.1,.94,.21l-.15,.45c-.14-.08-.42-.2-.81-.2-.58,0-.8,.35-.8,.64,0,.4,.26,.59,.84,.82,.72,.28,1.08,.62,1.08,1.25,0,.66-.49,1.22-1.49,1.22-.41,0-.86-.12-1.08-.27l.14-.46Z"/>
      <path class="cls-11" d="M29.35,47.69h.55v2.05h.02c.11-.16,.23-.32,.33-.45l1.3-1.59h.68l-1.54,1.8,1.66,2.45h-.65l-1.4-2.09-.4,.47v1.62h-.55v-4.25Z"/>
      <path class="cls-11" d="M33.93,50.03v.41h-1.56v-.41h1.56Z"/>
      <path class="cls-11" d="M36.8,49.95h-1.65v1.53h1.84v.46h-2.39v-4.25h2.29v.46h-1.75v1.34h1.65v.45Z"/>
      <path class="cls-11" d="M40.02,51.94l-.54-.94c-.22-.36-.36-.59-.49-.84h-.01c-.12,.25-.24,.47-.46,.84l-.51,.93h-.63l1.3-2.15-1.25-2.1h.64l.56,1c.16,.28,.28,.49,.39,.72h.02c.12-.25,.23-.45,.38-.72l.58-1h.63l-1.29,2.07,1.32,2.18h-.64Z"/>
      <path class="cls-11" d="M46.21,50.08c-.03-.59-.07-1.3-.06-1.83h-.02c-.15,.5-.32,1.03-.54,1.61l-.75,2.06h-.42l-.69-2.02c-.2-.6-.37-1.15-.49-1.65h-.01c-.01,.53-.04,1.24-.08,1.88l-.11,1.82h-.52l.3-4.25h.7l.72,2.05c.18,.52,.32,.99,.43,1.43h.02c.11-.43,.26-.89,.45-1.43l.76-2.05h.7l.26,4.25h-.54l-.11-1.87Z"/>
      <path class="cls-11" d="M48.01,50.52c.01,.75,.49,1.06,1.05,1.06,.4,0,.64-.07,.84-.16l.09,.4c-.2,.09-.53,.19-1.01,.19-.94,0-1.5-.62-1.5-1.54s.54-1.65,1.43-1.65c1,0,1.26,.88,1.26,1.44,0,.11-.01,.2-.02,.26h-2.14Zm1.63-.4c0-.35-.14-.9-.77-.9-.56,0-.81,.52-.85,.9h1.62Z"/>
      <path class="cls-11" d="M50.86,47.47h.55v4.47h-.55v-4.47Z"/>
      <path class="cls-11" d="M52.35,47.47h.55v4.47h-.55v-4.47Z"/>
      <path class="cls-11" d="M56.6,50.39c0,1.13-.78,1.62-1.52,1.62-.83,0-1.46-.6-1.46-1.57,0-1.02,.67-1.62,1.51-1.62s1.47,.64,1.47,1.57Zm-2.42,.03c0,.67,.38,1.17,.93,1.17s.93-.5,.93-1.18c0-.52-.26-1.17-.91-1.17s-.94,.6-.94,1.19Z"/>
      <path class="cls-11" d="M57.48,48.89l.4,1.55c.09,.34,.17,.66,.23,.97h.02c.07-.31,.17-.64,.27-.96l.5-1.56h.47l.47,1.53c.11,.37,.2,.69,.27,1h.02c.05-.31,.13-.63,.23-.99l.44-1.53h.55l-.98,3.05h-.5l-.47-1.46c-.11-.34-.2-.64-.27-1h-.01c-.08,.37-.17,.68-.28,1.01l-.49,1.45h-.5l-.92-3.05h.57Z"/>
    </g>
    <g>
      <path class="cls-11" d="M147.73,51.27c.25,.15,.6,.28,.98,.28,.56,0,.89-.3,.89-.72,0-.4-.23-.62-.8-.84-.69-.25-1.12-.6-1.12-1.2,0-.66,.55-1.15,1.37-1.15,.44,0,.75,.1,.94,.21l-.15,.45c-.14-.08-.42-.2-.81-.2-.58,0-.8,.35-.8,.64,0,.4,.26,.59,.84,.82,.72,.28,1.08,.62,1.08,1.25,0,.66-.49,1.22-1.49,1.22-.41,0-.86-.12-1.08-.27l.14-.46Z"/>
      <path class="cls-11" d="M150.9,47.47h.55v4.47h-.55v-4.47Z"/>
      <path class="cls-11" d="M155.14,50.39c0,1.13-.78,1.62-1.52,1.62-.83,0-1.46-.6-1.46-1.57,0-1.02,.67-1.62,1.51-1.62s1.47,.64,1.47,1.57Zm-2.42,.03c0,.67,.38,1.17,.93,1.17s.93-.5,.93-1.18c0-.52-.26-1.17-.91-1.17s-.94,.6-.94,1.19Z"/>
      <path class="cls-11" d="M156.02,48.89l.4,1.55c.09,.34,.17,.66,.23,.97h.02c.07-.31,.17-.64,.27-.96l.5-1.56h.47l.47,1.53c.11,.37,.2,.69,.27,1h.02c.05-.31,.13-.63,.23-.99l.44-1.53h.55l-.98,3.05h-.5l-.47-1.46c-.11-.34-.2-.64-.27-1h-.01c-.08,.37-.17,.68-.28,1.01l-.49,1.45h-.5l-.92-3.05h.57Z"/>
      <path class="cls-11" d="M161.71,51.27c.25,.15,.6,.28,.98,.28,.56,0,.89-.3,.89-.72,0-.4-.23-.62-.8-.84-.69-.25-1.12-.6-1.12-1.2,0-.66,.55-1.15,1.37-1.15,.44,0,.75,.1,.94,.21l-.15,.45c-.14-.08-.42-.2-.81-.2-.58,0-.8,.35-.8,.64,0,.4,.26,.59,.84,.82,.72,.28,1.08,.62,1.08,1.25,0,.66-.49,1.22-1.49,1.22-.41,0-.86-.12-1.08-.27l.14-.46Z"/>
      <path class="cls-11" d="M165.53,48.02v.88h.79v.42h-.79v1.65c0,.38,.11,.59,.42,.59,.15,0,.25-.02,.32-.04l.03,.42c-.11,.04-.28,.08-.49,.08-.26,0-.47-.08-.6-.23-.16-.16-.21-.44-.21-.79v-1.66h-.47v-.42h.47v-.73l.54-.15Z"/>
      <path class="cls-11" d="M166.95,49.84c0-.36,0-.67-.02-.95h.48l.02,.6h.03c.14-.41,.47-.67,.84-.67,.06,0,.11,0,.16,.02v.52c-.06-.01-.11-.02-.19-.02-.39,0-.67,.3-.74,.71-.01,.08-.03,.16-.03,.26v1.63h-.55v-2.1Z"/>
      <path class="cls-11" d="M169.65,48.03c0,.19-.13,.34-.35,.34-.2,0-.33-.15-.33-.34s.15-.35,.35-.35,.34,.15,.34,.35Zm-.62,3.91v-3.05h.55v3.05h-.55Z"/>
      <path class="cls-11" d="M170.5,49.72c0-.31,0-.57-.02-.83h.49l.03,.5h.01c.15-.29,.5-.57,1.01-.57,.42,0,1.08,.25,1.08,1.3v1.82h-.55v-1.76c0-.49-.18-.9-.71-.9-.37,0-.65,.26-.74,.57-.02,.07-.04,.16-.04,.26v1.83h-.55v-2.22Z"/>
      <path class="cls-11" d="M176.63,48.89c-.01,.22-.03,.47-.03,.84v1.77c0,.7-.14,1.13-.43,1.39-.3,.28-.72,.37-1.11,.37s-.77-.09-1.01-.25l.14-.42c.2,.13,.52,.24,.9,.24,.57,0,.98-.3,.98-1.06v-.34h-.01c-.17,.28-.5,.51-.97,.51-.76,0-1.3-.64-1.3-1.49,0-1.03,.67-1.62,1.37-1.62,.53,0,.82,.28,.95,.53h.01l.02-.46h.49Zm-.57,1.2c0-.09,0-.18-.03-.25-.1-.32-.37-.59-.77-.59-.53,0-.91,.45-.91,1.15,0,.6,.3,1.1,.9,1.1,.34,0,.65-.21,.77-.57,.03-.09,.04-.2,.04-.3v-.55Z"/>
      <path class="cls-11" d="M177.45,51.37c.16,.11,.45,.22,.73,.22,.4,0,.59-.2,.59-.45,0-.26-.16-.41-.57-.56-.55-.2-.81-.5-.81-.86,0-.49,.4-.9,1.05-.9,.31,0,.58,.09,.75,.19l-.14,.4c-.12-.08-.34-.18-.62-.18-.33,0-.51,.19-.51,.42,0,.25,.18,.37,.58,.52,.53,.2,.8,.47,.8,.92,0,.54-.42,.91-1.14,.91-.33,0-.64-.08-.86-.21l.14-.42Z"/>
    </g>
    <g>
      <path class="cls-11" d="M28.45,58h-1.65v1.53h1.84v.46h-2.39v-4.25h2.29v.46h-1.75v1.34h1.65v.45Z"/>
      <path class="cls-11" d="M31.67,59.99l-.54-.94c-.22-.36-.36-.59-.49-.84h-.01c-.12,.25-.24,.47-.46,.84l-.51,.93h-.63l1.3-2.15-1.25-2.1h.64l.56,1c.16,.28,.28,.49,.39,.72h.02c.12-.25,.23-.45,.38-.72l.58-1h.63l-1.29,2.07,1.32,2.18h-.64Z"/>
      <path class="cls-11" d="M37.86,58.13c-.03-.59-.07-1.3-.06-1.83h-.02c-.15,.5-.32,1.03-.54,1.61l-.75,2.06h-.42l-.69-2.02c-.2-.6-.37-1.15-.49-1.65h-.01c-.01,.53-.04,1.24-.08,1.88l-.11,1.82h-.52l.3-4.25h.7l.72,2.05c.18,.52,.32,.99,.43,1.43h.02c.11-.43,.26-.89,.45-1.43l.76-2.05h.7l.26,4.25h-.54l-.11-1.87Z"/>
      <path class="cls-11" d="M39.67,58.57c.01,.75,.49,1.06,1.05,1.06,.4,0,.64-.07,.84-.16l.09,.4c-.2,.09-.53,.19-1.01,.19-.94,0-1.5-.62-1.5-1.54s.54-1.65,1.43-1.65c1,0,1.26,.88,1.26,1.44,0,.11-.01,.2-.02,.26h-2.14Zm1.63-.4c0-.35-.14-.9-.77-.9-.56,0-.81,.52-.85,.9h1.62Z"/>
      <path class="cls-11" d="M42.52,55.52h.55v4.47h-.55v-4.47Z"/>
      <path class="cls-11" d="M44.01,55.52h.55v4.47h-.55v-4.47Z"/>
      <path class="cls-11" d="M48.25,58.44c0,1.13-.78,1.62-1.52,1.62-.83,0-1.46-.6-1.46-1.57,0-1.02,.67-1.62,1.51-1.62s1.47,.64,1.47,1.57Zm-2.42,.03c0,.67,.38,1.17,.93,1.17s.93-.5,.93-1.18c0-.52-.26-1.17-.91-1.17s-.94,.6-.94,1.19Z"/>
      <path class="cls-11" d="M49.14,56.94l.4,1.55c.09,.34,.17,.66,.23,.97h.02c.07-.31,.17-.64,.27-.96l.5-1.56h.47l.47,1.53c.11,.37,.2,.69,.27,1h.02c.05-.31,.13-.63,.23-.99l.44-1.53h.55l-.98,3.05h-.5l-.47-1.46c-.11-.34-.2-.64-.27-1h-.01c-.08,.37-.17,.68-.28,1.01l-.49,1.45h-.5l-.92-3.05h.57Z"/>
    </g>
    <g>
      <path class="cls-11" d="M150.78,59.85c-.2,.1-.6,.2-1.12,.2-1.2,0-2.1-.76-2.1-2.15s.9-2.23,2.22-2.23c.53,0,.86,.11,1.01,.19l-.13,.45c-.21-.1-.5-.18-.86-.18-1,0-1.66,.64-1.66,1.75,0,1.04,.6,1.71,1.63,1.71,.33,0,.67-.07,.89-.18l.11,.43Z"/>
      <path class="cls-11" d="M151.45,55.52h.55v1.9h.01c.09-.16,.23-.3,.4-.39,.16-.09,.36-.16,.57-.16,.41,0,1.07,.25,1.07,1.3v1.81h-.55v-1.75c0-.49-.18-.91-.71-.91-.36,0-.64,.25-.74,.55-.03,.08-.04,.16-.04,.26v1.84h-.55v-4.47Z"/>
      <path class="cls-11" d="M157.7,58.44c0,1.13-.78,1.62-1.52,1.62-.83,0-1.46-.6-1.46-1.57,0-1.02,.67-1.62,1.51-1.62s1.47,.64,1.47,1.57Zm-2.42,.03c0,.67,.38,1.17,.93,1.17s.93-.5,.93-1.18c0-.52-.26-1.17-.91-1.17s-.94,.6-.94,1.19Z"/>
      <path class="cls-11" d="M159.02,56.09c0,.19-.13,.34-.35,.34-.2,0-.33-.15-.33-.34s.15-.35,.35-.35,.34,.15,.34,.35Zm-.62,3.91v-3.05h.55v3.05h-.55Z"/>
      <path class="cls-11" d="M159.87,57.89c0-.36,0-.67-.02-.95h.48l.02,.6h.03c.14-.41,.47-.67,.84-.67,.06,0,.11,0,.16,.02v.52c-.06-.01-.11-.02-.19-.02-.39,0-.67,.3-.74,.71-.01,.08-.03,.16-.03,.26v1.63h-.55v-2.1Z"/>
    </g>
    <g>
      <path class="cls-11" d="M28.45,66.05h-1.65v1.53h1.84v.46h-2.39v-4.25h2.29v.46h-1.75v1.34h1.65v.45Z"/>
      <path class="cls-11" d="M31.67,68.04l-.54-.94c-.22-.36-.36-.59-.49-.84h-.01c-.12,.25-.24,.47-.46,.84l-.51,.93h-.63l1.3-2.15-1.25-2.1h.64l.56,1c.16,.28,.28,.49,.39,.72h.02c.12-.25,.23-.45,.38-.72l.58-1h.63l-1.29,2.07,1.32,2.18h-.64Z"/>
      <path class="cls-11" d="M37.86,66.18c-.03-.59-.07-1.3-.06-1.83h-.02c-.15,.5-.32,1.03-.54,1.61l-.75,2.06h-.42l-.69-2.02c-.2-.6-.37-1.15-.49-1.65h-.01c-.01,.53-.04,1.24-.08,1.88l-.11,1.82h-.52l.3-4.25h.7l.72,2.05c.18,.52,.32,.99,.43,1.43h.02c.11-.43,.26-.89,.45-1.43l.76-2.05h.7l.26,4.25h-.54l-.11-1.87Z"/>
      <path class="cls-11" d="M42.12,66.49c0,1.13-.78,1.62-1.52,1.62-.83,0-1.46-.6-1.46-1.57,0-1.02,.67-1.62,1.51-1.62s1.47,.64,1.47,1.57Zm-2.42,.03c0,.67,.38,1.17,.93,1.17s.93-.5,.93-1.18c0-.52-.26-1.17-.91-1.17s-.94,.6-.94,1.19Z"/>
      <path class="cls-11" d="M45.46,63.57v3.69c0,.27,0,.58,.03,.79h-.5l-.03-.53h-.01c-.17,.34-.54,.6-1.04,.6-.74,0-1.3-.62-1.3-1.55,0-1.01,.62-1.64,1.37-1.64,.47,0,.78,.22,.92,.47h.01v-1.82h.55Zm-.55,2.67c0-.07,0-.16-.02-.23-.08-.35-.38-.64-.8-.64-.57,0-.91,.5-.91,1.18,0,.62,.3,1.13,.9,1.13,.37,0,.71-.25,.81-.66,.02-.08,.02-.15,.02-.24v-.53Z"/>
      <path class="cls-11" d="M46.68,66.62c.01,.75,.49,1.06,1.05,1.06,.4,0,.64-.07,.84-.16l.09,.4c-.2,.09-.53,.19-1.01,.19-.94,0-1.5-.62-1.5-1.54s.54-1.65,1.43-1.65c1,0,1.26,.88,1.26,1.44,0,.11-.01,.2-.02,.26h-2.14Zm1.63-.4c0-.35-.14-.9-.77-.9-.56,0-.81,.52-.85,.9h1.62Z"/>
      <path class="cls-11" d="M49.53,65.95c0-.36,0-.67-.02-.95h.48l.02,.6h.03c.14-.41,.47-.67,.84-.67,.06,0,.11,0,.16,.02v.52c-.06-.01-.11-.02-.19-.02-.39,0-.67,.3-.74,.71-.01,.08-.03,.16-.03,.26v1.63h-.55v-2.1Z"/>
      <path class="cls-11" d="M51.61,65.82c0-.31,0-.57-.02-.83h.49l.03,.5h.01c.15-.29,.5-.57,1.01-.57,.42,0,1.08,.25,1.08,1.3v1.82h-.55v-1.76c0-.49-.18-.9-.71-.9-.37,0-.65,.26-.74,.57-.02,.07-.04,.16-.04,.26v1.83h-.55v-2.22Z"/>
    </g>
    <g>
      <path class="cls-11" d="M147.81,68.04v-4.25h.6l1.36,2.15c.31,.5,.56,.95,.76,1.38h.01c-.05-.57-.06-1.09-.06-1.75v-1.78h.52v4.25h-.55l-1.35-2.16c-.3-.47-.58-.96-.79-1.42h-.02c.03,.54,.04,1.05,.04,1.76v1.81h-.52Z"/>
      <path class="cls-11" d="M152.25,66.62c.01,.75,.49,1.06,1.05,1.06,.4,0,.64-.07,.84-.16l.09,.4c-.2,.09-.53,.19-1.01,.19-.94,0-1.5-.62-1.5-1.54s.54-1.65,1.43-1.65c1,0,1.26,.88,1.26,1.44,0,.11-.01,.2-.02,.26h-2.14Zm1.63-.4c0-.35-.14-.9-.77-.9-.56,0-.81,.52-.85,.9h1.62Z"/>
      <path class="cls-11" d="M155.31,64.99l.4,1.55c.09,.34,.17,.66,.23,.97h.02c.07-.31,.17-.64,.27-.96l.5-1.56h.47l.47,1.53c.11,.37,.2,.69,.27,1h.02c.05-.31,.13-.63,.23-.99l.44-1.53h.55l-.98,3.05h-.5l-.47-1.46c-.11-.34-.2-.64-.27-1h-.01c-.08,.37-.17,.68-.28,1.01l-.49,1.45h-.5l-.92-3.05h.57Z"/>
      <path class="cls-11" d="M161.77,66.71l-.44,1.34h-.57l1.44-4.25h.66l1.45,4.25h-.59l-.45-1.34h-1.51Zm1.39-.43l-.42-1.22c-.09-.28-.16-.53-.22-.77h-.01c-.06,.25-.13,.51-.21,.77l-.42,1.23h1.28Z"/>
      <path class="cls-11" d="M167.47,64.99c-.01,.22-.03,.47-.03,.84v1.77c0,.7-.14,1.13-.43,1.39-.3,.28-.72,.37-1.11,.37s-.77-.09-1.01-.25l.14-.42c.2,.13,.52,.24,.9,.24,.57,0,.98-.3,.98-1.06v-.34h-.01c-.17,.28-.5,.51-.97,.51-.76,0-1.3-.64-1.3-1.49,0-1.03,.67-1.62,1.37-1.62,.53,0,.82,.28,.95,.53h.01l.02-.46h.49Zm-.57,1.2c0-.09,0-.18-.03-.25-.1-.32-.37-.59-.77-.59-.53,0-.91,.45-.91,1.15,0,.6,.3,1.1,.9,1.1,.34,0,.65-.21,.77-.57,.03-.09,.04-.2,.04-.3v-.55Z"/>
      <path class="cls-11" d="M168.68,66.62c.01,.75,.49,1.06,1.05,1.06,.4,0,.64-.07,.84-.16l.09,.4c-.2,.09-.53,.19-1.01,.19-.94,0-1.5-.62-1.5-1.54s.54-1.65,1.43-1.65c1,0,1.26,.88,1.26,1.44,0,.11-.01,.2-.02,.26h-2.14Zm1.63-.4c0-.35-.14-.9-.77-.9-.56,0-.81,.52-.85,.9h1.62Z"/>
      <path class="cls-11" d="M172.88,63.85c.26-.04,.61-.08,1.05-.08,.54,0,.94,.13,1.19,.35,.23,.2,.37,.51,.37,.89s-.11,.69-.33,.91c-.29,.31-.76,.47-1.3,.47-.16,0-.31,0-.44-.04v1.7h-.55v-4.2Zm.55,2.05c.12,.03,.27,.04,.45,.04,.66,0,1.06-.32,1.06-.91s-.4-.83-1-.83c-.24,0-.42,.02-.52,.04v1.65Z"/>
      <path class="cls-11" d="M177.74,68.04l-.04-.38h-.02c-.17,.24-.5,.45-.93,.45-.62,0-.93-.44-.93-.88,0-.74,.66-1.14,1.83-1.13v-.06c0-.25-.07-.71-.69-.71-.28,0-.58,.09-.79,.23l-.13-.37c.25-.16,.62-.27,1-.27,.93,0,1.16,.64,1.16,1.25v1.14c0,.26,.01,.52,.05,.73h-.5Zm-.08-1.56c-.6-.01-1.29,.09-1.29,.69,0,.36,.24,.53,.52,.53,.4,0,.65-.25,.74-.51,.02-.06,.03-.12,.03-.18v-.53Z"/>
      <path class="cls-11" d="M181.72,63.57v3.69c0,.27,0,.58,.03,.79h-.5l-.03-.53h-.01c-.17,.34-.54,.6-1.04,.6-.74,0-1.3-.62-1.3-1.55,0-1.01,.62-1.64,1.37-1.64,.47,0,.78,.22,.92,.47h.01v-1.82h.55Zm-.55,2.67c0-.07,0-.16-.02-.23-.08-.35-.38-.64-.8-.64-.57,0-.91,.5-.91,1.18,0,.62,.3,1.13,.9,1.13,.37,0,.71-.25,.81-.66,.02-.08,.02-.15,.02-.24v-.53Z"/>
    </g>
    <g>
      <path class="cls-11" d="M27.05,72.31h-1.29v-.47h3.14v.47h-1.3v3.78h-.55v-3.78Z"/>
      <path class="cls-11" d="M29.91,72.19c0,.19-.13,.34-.35,.34-.2,0-.33-.15-.33-.34s.15-.35,.35-.35,.34,.15,.34,.35Zm-.62,3.91v-3.05h.55v3.05h-.55Z"/>
      <path class="cls-11" d="M30.76,73.87c0-.31,0-.57-.02-.83h.49l.03,.5h.01c.15-.29,.5-.57,1.01-.57,.42,0,1.08,.25,1.08,1.3v1.82h-.55v-1.76c0-.49-.18-.9-.71-.9-.37,0-.65,.26-.74,.57-.02,.07-.04,.16-.04,.26v1.83h-.55v-2.22Z"/>
      <path class="cls-11" d="M34.57,74.67c.01,.75,.49,1.06,1.05,1.06,.4,0,.64-.07,.84-.16l.09,.4c-.2,.09-.53,.19-1.01,.19-.94,0-1.5-.62-1.5-1.54s.54-1.65,1.43-1.65c1,0,1.26,.88,1.26,1.44,0,.11-.01,.2-.02,.26h-2.14Zm1.63-.4c0-.35-.14-.9-.77-.9-.56,0-.81,.52-.85,.9h1.62Z"/>
      <path class="cls-11" d="M40.97,74.1h-1.65v1.53h1.84v.46h-2.39v-4.25h2.29v.46h-1.75v1.34h1.65v.45Z"/>
      <path class="cls-11" d="M41.7,75.77c0-.23,.16-.4,.38-.4s.37,.16,.37,.4-.15,.4-.38,.4c-.22,0-.37-.17-.37-.4Z"/>
      <path class="cls-11" d="M44.49,71.9c.26-.04,.61-.08,1.05-.08,.54,0,.94,.13,1.19,.35,.23,.2,.37,.51,.37,.89s-.11,.69-.33,.91c-.29,.31-.76,.47-1.3,.47-.16,0-.31,0-.44-.04v1.7h-.55v-4.2Zm.55,2.05c.12,.03,.27,.04,.45,.04,.66,0,1.06-.32,1.06-.91s-.4-.83-1-.83c-.24,0-.42,.02-.52,.04v1.65Z"/>
      <path class="cls-11" d="M48.34,72.19c0,.19-.13,.34-.35,.34-.2,0-.33-.15-.33-.34s.15-.35,.35-.35,.34,.15,.34,.35Zm-.62,3.91v-3.05h.55v3.05h-.55Z"/>
      <path class="cls-11" d="M50.89,76.1l-.04-.38h-.02c-.17,.24-.5,.45-.93,.45-.62,0-.93-.44-.93-.88,0-.74,.66-1.14,1.83-1.13v-.06c0-.25-.07-.71-.69-.71-.28,0-.58,.09-.79,.23l-.13-.37c.25-.16,.62-.27,1-.27,.93,0,1.16,.64,1.16,1.25v1.14c0,.26,.01,.52,.05,.73h-.5Zm-.08-1.56c-.6-.01-1.29,.09-1.29,.69,0,.36,.24,.53,.52,.53,.4,0,.65-.25,.74-.51,.02-.06,.03-.12,.03-.18v-.53Z"/>
      <path class="cls-11" d="M52.24,73.87c0-.31,0-.57-.02-.83h.49l.03,.5h.01c.15-.29,.5-.57,1.01-.57,.42,0,1.08,.25,1.08,1.3v1.82h-.55v-1.76c0-.49-.18-.9-.71-.9-.37,0-.65,.26-.74,.57-.02,.07-.04,.16-.04,.26v1.83h-.55v-2.22Z"/>
      <path class="cls-11" d="M58.49,74.55c0,1.13-.78,1.62-1.52,1.62-.83,0-1.46-.6-1.46-1.57,0-1.02,.67-1.62,1.51-1.62s1.47,.64,1.47,1.57Zm-2.42,.03c0,.67,.38,1.17,.93,1.17s.93-.5,.93-1.18c0-.52-.26-1.17-.91-1.17s-.94,.6-.94,1.19Z"/>
    </g>
    <g>
      <path class="cls-11" d="M148.5,74.76l-.44,1.34h-.57l1.44-4.25h.66l1.45,4.25h-.59l-.45-1.34h-1.51Zm1.39-.43l-.42-1.22c-.09-.28-.16-.53-.22-.77h-.01c-.06,.25-.13,.51-.21,.77l-.42,1.23h1.28Z"/>
      <path class="cls-11" d="M152.26,72.17v.88h.79v.42h-.79v1.65c0,.38,.11,.59,.42,.59,.15,0,.25-.02,.32-.04l.03,.42c-.11,.04-.28,.08-.49,.08-.26,0-.47-.08-.6-.23-.16-.16-.21-.44-.21-.79v-1.66h-.47v-.42h.47v-.73l.54-.15Z"/>
      <path class="cls-11" d="M153.68,73.87c0-.31,0-.57-.02-.83h.48l.03,.49h.02c.17-.29,.45-.56,.96-.56,.42,0,.73,.25,.86,.61h.01c.09-.17,.21-.3,.34-.4,.18-.14,.38-.21,.67-.21,.4,0,1,.26,1,1.32v1.8h-.54v-1.73c0-.59-.21-.94-.66-.94-.31,0-.56,.23-.66,.5-.03,.08-.04,.18-.04,.28v1.88h-.54v-1.83c0-.49-.21-.84-.64-.84-.35,0-.6,.28-.69,.55-.03,.08-.04,.18-.04,.27v1.84h-.54v-2.22Z"/>
      <path class="cls-11" d="M161.69,74.55c0,1.13-.78,1.62-1.52,1.62-.83,0-1.46-.6-1.46-1.57,0-1.02,.67-1.62,1.51-1.62s1.47,.64,1.47,1.57Zm-2.42,.03c0,.67,.38,1.17,.93,1.17s.93-.5,.93-1.18c0-.52-.26-1.17-.91-1.17s-.94,.6-.94,1.19Z"/>
      <path class="cls-11" d="M162.31,75.53c.16,.11,.45,.22,.73,.22,.4,0,.59-.2,.59-.45,0-.26-.16-.41-.57-.56-.55-.2-.81-.5-.81-.86,0-.49,.4-.9,1.05-.9,.31,0,.58,.09,.75,.19l-.14,.4c-.12-.08-.34-.18-.62-.18-.33,0-.51,.19-.51,.42,0,.25,.18,.37,.58,.52,.53,.2,.8,.47,.8,.92,0,.54-.42,.91-1.14,.91-.33,0-.64-.08-.86-.21l.14-.42Z"/>
      <path class="cls-11" d="M164.88,74.04c0-.39-.01-.71-.02-1h.5l.03,.52h.01c.23-.37,.59-.59,1.08-.59,.74,0,1.29,.62,1.29,1.55,0,1.1-.67,1.64-1.39,1.64-.4,0-.76-.18-.94-.48h-.01v1.66h-.55v-3.3Zm.55,.81c0,.08,.01,.16,.03,.23,.1,.38,.43,.65,.83,.65,.59,0,.93-.48,.93-1.18,0-.61-.32-1.13-.91-1.13-.38,0-.73,.27-.84,.69-.02,.07-.04,.15-.04,.23v.52Z"/>
      <path class="cls-11" d="M168.47,71.62h.55v1.9h.01c.09-.16,.23-.3,.4-.39,.16-.09,.36-.16,.57-.16,.41,0,1.07,.25,1.07,1.3v1.81h-.55v-1.75c0-.49-.18-.91-.71-.91-.36,0-.64,.25-.74,.55-.03,.08-.04,.16-.04,.26v1.84h-.55v-4.47Z"/>
      <path class="cls-11" d="M172.27,74.67c.01,.75,.49,1.06,1.05,1.06,.4,0,.64-.07,.84-.16l.09,.4c-.2,.09-.53,.19-1.01,.19-.94,0-1.5-.62-1.5-1.54s.54-1.65,1.43-1.65c1,0,1.26,.88,1.26,1.44,0,.11-.01,.2-.02,.26h-2.14Zm1.63-.4c0-.35-.14-.9-.77-.9-.56,0-.81,.52-.85,.9h1.62Z"/>
      <path class="cls-11" d="M175.12,74c0-.36,0-.67-.02-.95h.48l.02,.6h.03c.14-.41,.47-.67,.84-.67,.06,0,.11,0,.16,.02v.52c-.06-.01-.11-.02-.19-.02-.39,0-.67,.3-.74,.71-.01,.08-.03,.16-.03,.26v1.63h-.55v-2.1Z"/>
      <path class="cls-11" d="M177.43,74.67c.01,.75,.49,1.06,1.05,1.06,.4,0,.64-.07,.84-.16l.09,.4c-.2,.09-.53,.19-1.01,.19-.94,0-1.5-.62-1.5-1.54s.54-1.65,1.43-1.65c1,0,1.26,.88,1.26,1.44,0,.11-.01,.2-.02,.26h-2.14Zm1.63-.4c0-.35-.14-.9-.77-.9-.56,0-.81,.52-.85,.9h1.62Z"/>
    </g>
    <g>
      <path class="cls-11" d="M29.83,82.28c-.03-.59-.07-1.3-.06-1.83h-.02c-.15,.5-.32,1.03-.54,1.61l-.75,2.06h-.42l-.69-2.02c-.2-.6-.37-1.15-.49-1.65h-.01c-.01,.53-.04,1.24-.08,1.88l-.11,1.82h-.52l.3-4.25h.7l.72,2.05c.18,.52,.32,.99,.43,1.43h.02c.11-.43,.26-.89,.45-1.43l.76-2.05h.7l.26,4.25h-.54l-.11-1.87Z"/>
      <path class="cls-11" d="M34.09,82.6c0,1.13-.78,1.62-1.52,1.62-.83,0-1.46-.6-1.46-1.57,0-1.02,.67-1.62,1.51-1.62s1.47,.64,1.47,1.57Zm-2.42,.03c0,.67,.38,1.17,.93,1.17s.93-.5,.93-1.18c0-.52-.26-1.17-.91-1.17s-.94,.6-.94,1.19Z"/>
      <path class="cls-11" d="M37.42,79.67v3.69c0,.27,0,.58,.03,.79h-.5l-.03-.53h-.01c-.17,.34-.54,.6-1.04,.6-.74,0-1.3-.62-1.3-1.55,0-1.01,.62-1.64,1.37-1.64,.47,0,.78,.22,.92,.47h.01v-1.82h.55Zm-.55,2.67c0-.07,0-.16-.02-.23-.08-.35-.38-.64-.8-.64-.57,0-.91,.5-.91,1.18,0,.62,.3,1.13,.9,1.13,.37,0,.71-.25,.81-.66,.02-.08,.02-.15,.02-.24v-.53Z"/>
      <path class="cls-11" d="M38.65,82.72c.01,.75,.49,1.06,1.05,1.06,.4,0,.64-.07,.84-.16l.09,.4c-.2,.09-.53,.19-1.01,.19-.94,0-1.5-.62-1.5-1.54s.54-1.65,1.43-1.65c1,0,1.26,.88,1.26,1.44,0,.11-.01,.2-.02,.26h-2.14Zm1.63-.4c0-.35-.14-.9-.77-.9-.56,0-.81,.52-.85,.9h1.62Z"/>
      <path class="cls-11" d="M41.5,82.05c0-.36,0-.67-.02-.95h.48l.02,.6h.03c.14-.41,.47-.67,.84-.67,.06,0,.11,0,.16,.02v.52c-.06-.01-.11-.02-.19-.02-.39,0-.67,.3-.74,.71-.01,.08-.03,.16-.03,.26v1.63h-.55v-2.1Z"/>
      <path class="cls-11" d="M43.58,81.92c0-.31,0-.57-.02-.83h.49l.03,.5h.01c.15-.29,.5-.57,1.01-.57,.42,0,1.08,.25,1.08,1.3v1.82h-.55v-1.76c0-.49-.18-.9-.71-.9-.37,0-.65,.26-.74,.57-.02,.07-.04,.16-.04,.26v1.83h-.55v-2.22Z"/>
      <path class="cls-11" d="M50.63,82.16h-1.65v1.53h1.84v.46h-2.39v-4.25h2.29v.46h-1.75v1.34h1.65v.45Z"/>
      <path class="cls-11" d="M51.35,83.82c0-.23,.16-.4,.38-.4s.37,.16,.37,.4-.15,.4-.38,.4c-.22,0-.37-.17-.37-.4Z"/>
      <path class="cls-11" d="M54.14,79.95c.26-.04,.61-.08,1.05-.08,.54,0,.94,.13,1.19,.35,.23,.2,.37,.51,.37,.89s-.11,.69-.33,.91c-.29,.31-.76,.47-1.3,.47-.16,0-.31,0-.44-.04v1.7h-.55v-4.2Zm.55,2.05c.12,.03,.27,.04,.45,.04,.66,0,1.06-.32,1.06-.91s-.4-.83-1-.83c-.24,0-.42,.02-.52,.04v1.65Z"/>
      <path class="cls-11" d="M57.99,80.24c0,.19-.13,.34-.35,.34-.2,0-.33-.15-.33-.34s.15-.35,.35-.35,.34,.15,.34,.35Zm-.62,3.91v-3.05h.55v3.05h-.55Z"/>
      <path class="cls-11" d="M60.54,84.15l-.04-.38h-.02c-.17,.24-.5,.45-.93,.45-.62,0-.93-.44-.93-.88,0-.74,.66-1.14,1.83-1.13v-.06c0-.25-.07-.71-.69-.71-.28,0-.58,.09-.79,.23l-.13-.37c.25-.16,.62-.27,1-.27,.93,0,1.16,.64,1.16,1.25v1.14c0,.26,.01,.52,.05,.73h-.5Zm-.08-1.56c-.6-.01-1.29,.09-1.29,.69,0,.36,.24,.53,.52,.53,.4,0,.65-.25,.74-.51,.02-.06,.03-.12,.03-.18v-.53Z"/>
      <path class="cls-11" d="M61.89,81.92c0-.31,0-.57-.02-.83h.49l.03,.5h.01c.15-.29,.5-.57,1.01-.57,.42,0,1.08,.25,1.08,1.3v1.82h-.55v-1.76c0-.49-.18-.9-.71-.9-.37,0-.65,.26-.74,.57-.02,.07-.04,.16-.04,.26v1.83h-.55v-2.22Z"/>
      <path class="cls-11" d="M68.14,82.6c0,1.13-.78,1.62-1.52,1.62-.83,0-1.46-.6-1.46-1.57,0-1.02,.67-1.62,1.51-1.62s1.47,.64,1.47,1.57Zm-2.42,.03c0,.67,.38,1.17,.93,1.17s.93-.5,.93-1.18c0-.52-.26-1.17-.91-1.17s-.94,.6-.94,1.19Z"/>
    </g>
  </g>
</svg>