<svg id="レイヤー_1" data-name="レイヤー 1" xmlns="http://www.w3.org/2000/svg" xmlns:xlink="http://www.w3.org/1999/xlink" viewBox="0 0 222 107.69"><defs><style>.cls-1,.cls-10,.cls-11,.cls-12,.cls-15,.cls-17,.cls-18,.cls-19,.cls-2,.cls-4,.cls-5,.cls-7,.cls-9{fill:none;}.cls-2{stroke:gray;stroke-width:1.13px;}.cls-10,.cls-17,.cls-18,.cls-19,.cls-2,.cls-5,.cls-7,.cls-9{stroke-miterlimit:10;}.cls-3{fill:#fff;}.cls-4,.cls-5,.cls-7{stroke:#000;}.cls-4,.cls-5{stroke-width:0.44px;}.cls-6{fill:#bfbfbf;}.cls-7{stroke-width:0.22px;}.cls-8{clip-path:url(#clip-path);}.cls-11,.cls-12,.cls-15,.cls-17,.cls-18,.cls-19,.cls-9{stroke:#231815;}.cls-9{stroke-width:2.7px;}.cls-10{stroke:#dcdddd;stroke-width:1.8px;}.cls-11,.cls-12{stroke-linecap:round;stroke-linejoin:round;}.cls-11{stroke-width:0.27px;}.cls-12,.cls-15{stroke-width:0.45px;}.cls-13{fill:#231815;}.cls-14{fill:#dcdddd;}.cls-16{clip-path:url(#clip-path-4);}.cls-17{stroke-width:0.62px;}.cls-18{stroke-width:0.42px;}.cls-19{stroke-width:0.25px;}.cls-20{font-size:8.57px;font-family:KozGoPr6N-Regular-90ms-RKSJ-H, Kozuka Gothic Pr6N;}</style><clipPath id="clip-path" transform="translate(-149.74 -222.53)"><rect class="cls-1" x="190.72" y="222.53" width="147.43" height="48.73"/></clipPath><clipPath id="clip-path-4" transform="translate(-149.74 -222.53)"><rect class="cls-1" x="149.74" y="278.3" width="90.64" height="41.26"/></clipPath></defs><path class="cls-2" d="M277.49,271.05s-.52-2.36,4.27-2.36l86.65.67s2.76-.32,2.76,1.84v57.32s.05,1.14-4,1.14H282.53s-5.55,0-5.55-1.71Z" transform="translate(-149.74 -222.53)"/><rect class="cls-3" x="165.21" y="43.41" width="21.66" height="5.67"/><path class="cls-3" d="M338.87,320.43c-4.78,0-5.36-4.81-5.36-4.81H317.2s-.58,4.81-5.36,4.81v.88h27Z" transform="translate(-149.74 -222.53)"/><path class="cls-4" d="M338.87,320.43c-4.78,0-5.36-4.81-5.36-4.81H317.2s-.58,4.81-5.36,4.81v.88h27Z" transform="translate(-149.74 -222.53)"/><path class="cls-3" d="M292.91,314.41a1.08,1.08,0,0,0,1.1,1.1H356.7a1.08,1.08,0,0,0,1.11-1.1v-35a1.09,1.09,0,0,0-1.11-1.11H294a1.08,1.08,0,0,0-1.1,1.11Z" transform="translate(-149.74 -222.53)"/><path class="cls-5" d="M292.91,314.41a1.08,1.08,0,0,0,1.1,1.1H356.7a1.08,1.08,0,0,0,1.11-1.1v-35a1.09,1.09,0,0,0-1.11-1.11H294a1.08,1.08,0,0,0-1.1,1.11Z" transform="translate(-149.74 -222.53)"/><path class="cls-6" d="M294.46,312.86a1.08,1.08,0,0,0,1.11,1.1h59.58a1.08,1.08,0,0,0,1.11-1.1V281a1.09,1.09,0,0,0-1.11-1.11H295.57a1.09,1.09,0,0,0-1.11,1.11Z" transform="translate(-149.74 -222.53)"/><path class="cls-7" d="M294.46,312.86a1.08,1.08,0,0,0,1.11,1.1h59.58a1.08,1.08,0,0,0,1.11-1.1V281a1.09,1.09,0,0,0-1.11-1.11H295.57a1.09,1.09,0,0,0-1.11,1.11Z" transform="translate(-149.74 -222.53)"/><g class="cls-8"><path class="cls-9" d="M195,235.5v-9.07a2.55,2.55,0,0,1,2.55-2.55H323.09a2.56,2.56,0,0,1,2.55,2.55v18.06" transform="translate(-149.74 -222.53)"/><path class="cls-10" d="M195,235.5v-9.07a2.55,2.55,0,0,1,2.55-2.55H323.09a2.56,2.56,0,0,1,2.55,2.55v18.06" transform="translate(-149.74 -222.53)"/><path class="cls-11" d="M329.26,269.7a.28.28,0,0,1-.29.26h-6.38a.28.28,0,0,1-.29-.26v-2.13a.28.28,0,0,1,.29-.26H329a.28.28,0,0,1,.29.26Z" transform="translate(-149.74 -222.53)"/><path class="cls-12" d="M330.66,270.69a.35.35,0,0,1-.34.35h-9.07a.35.35,0,0,1-.35-.35v-4.11a.35.35,0,0,1,.35-.35h9.07a.35.35,0,0,1,.34.35Z" transform="translate(-149.74 -222.53)"/></g><rect class="cls-13" x="173.17" y="45.29" width="5.74" height="0.95"/><g class="cls-8"><path class="cls-14" d="M322.45,249.12v8.39h6.46v-8.39s.19-1.93-1.07-1.93v-3.35s0-.81-.64-.93v-2a.17.17,0,0,0-.18-.17H324.3a.16.16,0,0,0-.17.17v2h0c-.6.13-.61.92-.61.92v3.35c-1.26,0-1.07,1.93-1.07,1.93" transform="translate(-149.74 -222.53)"/><path class="cls-13" d="M325.65,256.32l-.4-.79h.31v-2.22l-.45.44a.89.89,0,0,0-.26.63v.08H325V255h-.53v-.53h.18v-.08a1.08,1.08,0,0,1,.31-.75l.32-.31a.94.94,0,0,0,.26-.63v-.9a.45.45,0,0,1-.27-.17.49.49,0,0,1-.09-.31.54.54,0,0,1,.15-.29.46.46,0,0,1,.6,0,.47.47,0,0,1,.14.29.48.48,0,0,1-.08.31.52.52,0,0,1-.27.17v.1a.89.89,0,0,0,.26.63l.31.31a1.09,1.09,0,0,1,.32.75V254a.38.38,0,0,1,.16.12.34.34,0,0,1,0,.2.26.26,0,0,1-.09.17.28.28,0,0,1-.19.07.26.26,0,0,1-.19-.07.27.27,0,0,1-.1-.17.34.34,0,0,1,0-.2.33.33,0,0,1,.16-.12v-.45a.9.9,0,0,0-.26-.62l-.45-.45v3h.31Z" transform="translate(-149.74 -222.53)"/><path class="cls-15" d="M327.2,242.92h-3.07m4.14,14.57H323.1m-.65-8.36v8.39h.65v5.16h5.17v-5.16h.65v-8.39s.19-1.93-1.08-1.93v-3.36s0-.81-.64-.92v-2a.17.17,0,0,0-.17-.18H324.3a.18.18,0,0,0-.17.18v2h0c-.61.14-.61.92-.61.92v3.36C322.26,247.2,322.45,249.13,322.45,249.13Z" transform="translate(-149.74 -222.53)"/></g><rect class="cls-14" x="43.78" y="11.93" width="3.07" height="3.73"/><rect class="cls-15" x="43.78" y="11.93" width="3.07" height="3.73"/><polygon class="cls-14" points="43.69 18.88 43.69 15.66 46.92 15.66 46.92 18.88 47.79 22.74 47.79 31.77 47.03 31.76 43.58 31.76 42.83 31.77 42.83 22.74 43.69 18.88"/><polygon class="cls-15" points="46.92 15.65 46.92 18.88 47.78 22.73 47.78 31.77 47.02 31.75 47.02 36.91 43.58 36.91 43.58 31.75 42.82 31.77 42.82 22.73 43.69 18.88 43.69 15.65 46.92 15.65"/><line class="cls-15" x1="43.58" y1="31.73" x2="47.03" y2="31.73"/><g class="cls-8"><path class="cls-13" d="M195,252.17l-.36-.73h.28v-2l-.41.41a.82.82,0,0,0-.24.57v.07h.17V251h-.49v-.48h.16v-.07a1,1,0,0,1,.29-.68l.29-.29a.86.86,0,0,0,.23-.57V248a.41.41,0,0,1-.24-.15.4.4,0,0,1-.08-.28.41.41,0,0,1,.4-.37.39.39,0,0,1,.27.11.42.42,0,0,1,.06.54.46.46,0,0,1-.25.15v.09a.8.8,0,0,0,.24.57l.29.29a1,1,0,0,1,.28.69v.4a.33.33,0,0,1,.15.11.28.28,0,0,1,0,.18.26.26,0,0,1-.09.16.25.25,0,0,1-.17.06.27.27,0,0,1-.17-.06.26.26,0,0,1-.09-.16.28.28,0,0,1,0-.18.26.26,0,0,1,.14-.11v-.4a.84.84,0,0,0-.24-.58l-.41-.4v2.74h.29Z" transform="translate(-149.74 -222.53)"/><path class="cls-15" d="M191.59,269.57a.64.64,0,0,1-.64-.64v-5.81a.64.64,0,0,1,.64-.64h6.84a.64.64,0,0,1,.64.64v5.81a.64.64,0,0,1-.64.64Zm5.93-24.3h-5" transform="translate(-149.74 -222.53)"/></g><polygon class="cls-12" points="48.03 40.92 42.51 40.92 42.51 45.07 43.49 46.06 47.05 46.06 48.03 45.07 48.03 40.92"/><g class="cls-16"><path class="cls-17" d="M235.45,319.25V293.91a1.28,1.28,0,0,0-1.38-1.38h-78a1.28,1.28,0,0,0-1.38,1.38v25.34m85.4,0V284.1a5.17,5.17,0,0,0-5.26-5.49h-79.5a5.17,5.17,0,0,0-5.26,5.49v35.15Z" transform="translate(-149.74 -222.53)"/></g><path class="cls-18" d="M154.67,316.92h80.78m-80.78-20h80.78" transform="translate(-149.74 -222.53)"/><path class="cls-19" d="M229.44,296.9v20m-5.33-20v20m-5.34-20v20m-5.33-20v20m-5.34-20v20m-5.33-20v20m-5.34-20v20m-5.33-20v20m-5.34-20v20m-5.33-20v20m-5.34-20v20m-5.33-20v20m-5.33-20v20m-5.34-20v20" transform="translate(-149.74 -222.53)"/><rect class="cls-13" x="24.95" y="74.37" width="3.32" height="12.29"/><rect class="cls-13" x="35.61" y="74.37" width="3.32" height="12.29"/><rect class="cls-13" x="30.28" y="74.37" width="3.32" height="12.29"/><rect class="cls-13" x="62.2" y="74.37" width="3.32" height="12.29"/><rect class="cls-13" x="72.86" y="74.37" width="3.32" height="12.29"/><rect class="cls-13" x="67.53" y="74.37" width="3.32" height="12.29"/><rect class="cls-13" x="46.27" y="74.37" width="3.32" height="12.29"/><rect class="cls-13" x="51.6" y="74.37" width="3.32" height="12.29"/><rect class="cls-13" x="8.9" y="74.37" width="3.32" height="12.29"/><rect class="cls-13" x="14.23" y="74.37" width="3.32" height="12.29"/><text class="cls-20" transform="translate(59.46 44.44)">B端子</text><text class="cls-20" transform="translate(188.42 43.41)">A端子</text></svg>