<svg id="レイヤー_1" data-name="レイヤー 1" xmlns="http://www.w3.org/2000/svg" xmlns:xlink="http://www.w3.org/1999/xlink" width="84mm" height="14.81mm" viewBox="0 0 238.11 41.98">
  <defs>
    <style>
      .cls-1, .cls-4, .cls-6 {
        fill: none;
      }

      .cls-2, .cls-7 {
        fill: #fff;
      }

      .cls-3 {
        clip-path: url(#clip-path);
      }

      .cls-4, .cls-6 {
        stroke: #231815;
        stroke-width: 0.99px;
      }

      .cls-5, .cls-8 {
        fill: #231815;
      }

      .cls-6 {
        stroke-miterlimit: 10;
      }

      .cls-7, .cls-8 {
        font-size: 7.8px;
        font-family: KozGoPro-Bold-90ms-RKSJ-H, Kozuka Gothic Pro;
      }
    </style>
    <clipPath id="clip-path" transform="translate(0 0)">
      <rect class="cls-1" width="238.11" height="41.98"/>
    </clipPath>
  </defs>
  <rect class="cls-2" x="0.5" y="0.5" width="237.12" height="40.99"/>
  <g class="cls-3">
    <rect class="cls-4" x="0.5" y="0.5" width="237.12" height="40.99"/>
    <path class="cls-5" d="M214.16,10.22,202.24,30.88a.88.88,0,0,0,0,.89.83.83,0,0,0,.76.43h23.85a.84.84,0,0,0,.76-.44.85.85,0,0,0,0-.87s-11.92-20.65-11.92-20.65a.88.88,0,0,0-1.53,0" transform="translate(0 0)"/>
    <path class="cls-2" d="M203.83,30.84H226c-2.27-3.92-8.83-15.29-11.09-19.21-2.27,3.93-8.82,15.29-11.09,19.21" transform="translate(0 0)"/>
    <path class="cls-5" d="M215.82,25.65a.91.91,0,1,1-1.81,0l-.56-8.85a1.48,1.48,0,0,1,2.93,0Z" transform="translate(0 0)"/>
    <path class="cls-5" d="M214.92,30.14a1.34,1.34,0,1,0-1.34-1.34,1.33,1.33,0,0,0,1.34,1.34" transform="translate(0 0)"/>
    <path class="cls-5" d="M22.42,10.22,10.5,30.88a.88.88,0,0,0,0,.89.83.83,0,0,0,.76.43H35.11a.88.88,0,0,0,.76-1.31L23.94,10.24a.87.87,0,0,0-1.52,0" transform="translate(0 0)"/>
    <path class="cls-2" d="M12.09,30.84H34.27L23.18,11.62c-2.27,3.93-8.83,15.29-11.09,19.22" transform="translate(0 0)"/>
  </g>
  <polygon class="cls-5" points="26.47 19.1 22.15 21.37 24.39 14.58 22.2 14.44 20.47 23.21 23.67 21.37 22.39 26.42 21.72 25.86 21.95 30.23 24.48 26.77 23.59 26.84 26.47 19.1"/>
  <rect class="cls-5" x="46.87" y="5.75" width="144.38" height="10.63"/>
  <rect class="cls-2" x="46.87" y="16.38" width="144.38" height="19.84"/>
  <line class="cls-6" x1="46.37" y1="5.75" x2="191.74" y2="5.75"/>
  <line class="cls-6" x1="46.87" y1="16.38" x2="46.87" y2="6.25"/>
  <line class="cls-6" x1="191.24" y1="16.38" x2="191.24" y2="6.25"/>
  <line class="cls-6" x1="46.87" y1="35.73" x2="46.87" y2="16.38"/>
  <line class="cls-6" x1="191.24" y1="35.73" x2="191.24" y2="16.38"/>
  <line class="cls-6" x1="46.37" y1="36.22" x2="191.74" y2="36.22"/>
  <text class="cls-7" transform="translate(107.36 14.03)">警　告</text>
  <text class="cls-8" transform="translate(91.77 24.66)">感電の危険あり</text>
  <text class="cls-8" transform="translate(76.18 33.88)">キャビネットをあけるな</text>
</svg>
