<svg id="レイヤー_1" data-name="レイヤー 1" xmlns="http://www.w3.org/2000/svg" width="39.8mm" height="31.59mm" viewBox="0 0 112.83 89.56"><defs><style>.cls-1,.cls-2{fill:#dbdbdb;stroke:#000;}.cls-1,.cls-10,.cls-11,.cls-14,.cls-15,.cls-16,.cls-17,.cls-5,.cls-7,.cls-8,.cls-9{stroke-width:0.18px;}.cls-2{stroke-width:0.22px;}.cls-3{fill:#666;}.cls-4{fill:#8a8a8a;}.cls-16,.cls-17,.cls-18,.cls-4,.cls-5,.cls-7{stroke:#040000;}.cls-10,.cls-13,.cls-14,.cls-15,.cls-16,.cls-17,.cls-18,.cls-4,.cls-5,.cls-7,.cls-8{stroke-linecap:round;}.cls-10,.cls-11,.cls-12,.cls-13,.cls-14,.cls-15,.cls-16,.cls-17,.cls-18,.cls-4,.cls-5,.cls-7,.cls-8{stroke-linejoin:round;}.cls-12,.cls-13,.cls-18,.cls-4{stroke-width:0.09px;}.cls-14,.cls-24,.cls-5,.cls-8,.cls-9{fill:#fff;}.cls-13,.cls-16,.cls-18,.cls-19,.cls-20,.cls-23,.cls-6{fill:none;}.cls-7{fill:#b5b5b6;}.cls-10,.cls-11,.cls-8,.cls-9{stroke:#231815;}.cls-19,.cls-20,.cls-9{stroke-miterlimit:10;}.cls-10,.cls-11,.cls-12,.cls-21{fill:#231815;}.cls-12,.cls-13{stroke:#fff;}.cls-14,.cls-15,.cls-19,.cls-20,.cls-23{stroke:#4d4d4d;}.cls-15,.cls-17{fill:#999;}.cls-19,.cls-20,.cls-23{stroke-width:0.36px;}.cls-20{stroke-dasharray:0.18 0.36;}.cls-22{fill:#595757;}.cls-23{stroke-dasharray:0.18 0.36;}</style></defs><path class="cls-1" d="M69.73,89.47H93.08a2.08,2.08,0,0,0,1.72-1.78h16.27a1.71,1.71,0,0,0,1.46-1.49l0-7.24a1.57,1.57,0,0,0-1.55-1.64l-14.5-1.39c-.05-.53-.59-1.59-1.43-1.65l-1,0V74L77.84,71.65l0-1.84-.14-5H59.11L59.19,70v9.33c0,8.65,8,10.12,10.78,10.12" transform="translate(-0.56 -0.02)"/><path class="cls-2" d="M59.13,79.6" transform="translate(-0.56 -0.02)"/><path class="cls-2" d="M77.32,72.82c-1.79,3.43-4.08,3.92-4.08,3.92" transform="translate(-0.56 -0.02)"/><path class="cls-1" d="M93.25,76c-2,2.85-2.2,9.55-.57,11.84" transform="translate(-0.56 -0.02)"/><path class="cls-1" d="M96.11,76.25c-2,2.86-2.45,8.82-1.63,10.46" transform="translate(-0.56 -0.02)"/><ellipse class="cls-3" cx="111.82" cy="82.8" rx="4.95" ry="1.54" transform="translate(21.84 189.38) rotate(-86.52)"/><ellipse class="cls-4" cx="67.86" cy="64.84" rx="9.31" ry="4.76"/><path class="cls-5" d="M75.38,53.71c0-1.94-3.09-3.51-6.91-3.51s-6.91,1.57-6.91,3.51l-.06,5.5v5.47c0,2,3.1,3.59,6.94,3.59s6.94-1.6,6.94-3.59v-11Z" transform="translate(-0.56 -0.02)"/><path class="cls-6" d="M64.67,48.6" transform="translate(-0.56 -0.02)"/><ellipse class="cls-7" cx="67.89" cy="53.49" rx="5.99" ry="2.72"/><polyline class="cls-8" points="70.45 53.88 70.36 52.14 71.42 52.26 71.56 54.24"/><rect class="cls-9" x="70.92" y="52" width="1.07" height="0.36" rx="0.13" transform="translate(11.13 -13.08) rotate(11.37)"/><polyline class="cls-8" points="70.17 55.94 70.08 54.05 71.14 54.17 71.28 55.57"/><rect class="cls-9" x="70.64" y="53.91" width="1.07" height="0.36" rx="0.13" transform="translate(11.51 -12.99) rotate(11.37)"/><polyline class="cls-8" points="63.13 54.99 63.04 52.16 64.1 52.28 64.24 55.63"/><rect class="cls-9" x="63.6" y="52.02" width="1.07" height="0.36" rx="0.13" transform="translate(10.99 -11.64) rotate(11.37)"/><polyline class="cls-8" points="65.36 53.95 65.27 51.4 66.34 51.52 66.47 53.79"/><rect class="cls-9" x="65.83" y="51.26" width="1.07" height="0.36" rx="0.13" transform="translate(10.89 -12.09) rotate(11.37)"/><polyline class="cls-8" points="64.77 55.68 64.68 53.89 65.75 54.01 65.88 55.93"/><rect class="cls-9" x="65.24" y="53.75" width="1.07" height="0.36" rx="0.13" transform="translate(11.37 -11.93) rotate(11.37)"/><polygon class="cls-10" points="67.49 53.19 68.05 53.27 68.72 52.23 68.2 52.18 67.49 53.19"/><polyline class="cls-11" points="67.49 56.1 67.49 53.19 68.72 52.23 68.72 56.17"/><line class="cls-12" x1="68.06" y1="55.82" x2="68.06" y2="53.37"/><polyline class="cls-13" points="67.49 53.19 68.05 53.28 68.72 52.23"/><g id="CIRCLE"><circle class="cls-14" cx="68.86" cy="10.03" r="9.29"/></g><g id="CIRCLE-2" data-name="CIRCLE"><circle class="cls-15" cx="68.86" cy="10.03" r="8.33"/></g><g id="ARC"><path class="cls-16" d="M76.25,8.35A7,7,0,0,0,62.38,10" transform="translate(-0.56 -0.02)"/></g><g id="ARC-2" data-name="ARC"><path class="cls-14" d="M76.25,8.37a7,7,0,1,0,0,3.34" transform="translate(-0.56 -0.02)"/></g><polyline class="cls-15" points="75.77 11.84 73 11.84 73 8.25 75.77 8.25"/><path class="cls-17" d="M76.33,11.86" transform="translate(-0.56 -0.02)"/><path class="cls-17" d="M76.33,8.27" transform="translate(-0.56 -0.02)"/><g id="LINE"><line class="cls-18" x1="61.68" y1="10.05" x2="61.68" y2="10.07"/></g><path d="M64.37,9.57c-1,.06-1.78.23-1.78.43s.74.37,1.77.42a.88.88,0,0,0,.78.48.9.9,0,0,0,.78-.48c1-.05,1.75-.22,1.75-.42s-.74-.37-1.77-.42a.86.86,0,0,0-.76-.47.89.89,0,0,0-.77.46" transform="translate(-0.56 -0.02)"/><path d="M70.73,5.55C69.7,5.61,69,5.78,69,6s.74.36,1.77.42a.88.88,0,0,0,.78.48.9.9,0,0,0,.78-.48C73.29,6.34,74,6.18,74,6s-.74-.37-1.77-.43a.87.87,0,0,0-.76-.46.89.89,0,0,0-.77.46" transform="translate(-0.56 -0.02)"/><path d="M66.08,6.21c-.69.77-1.1,1.42-1,1.57s.79-.27,1.55-1a.87.87,0,0,0,.89-.21.89.89,0,0,0,.21-.89c.68-.76,1.08-1.4.94-1.54s-.78.27-1.55,1a.88.88,0,0,0-.86.21.87.87,0,0,0-.22.87" transform="translate(-0.56 -0.02)"/><path d="M69.81,9.26c-.06-1-.23-1.78-.43-1.78S69,8.22,69,9.25a.88.88,0,0,0-.48.78.9.9,0,0,0,.48.78c.05,1,.22,1.75.42,1.75s.37-.74.43-1.77a.87.87,0,0,0,.46-.76.89.89,0,0,0-.46-.77" transform="translate(-0.56 -0.02)"/><path d="M70.73,14.47a.91.91,0,0,0,.77.46.88.88,0,0,0,.76-.47c1-.06,1.77-.22,1.77-.42s-.74-.37-1.75-.43a.9.9,0,0,0-.78-.48.88.88,0,0,0-.78.48c-1,.06-1.77.23-1.77.43s.75.37,1.78.43" transform="translate(-0.56 -0.02)"/><path d="M66.08,13.8a.86.86,0,0,0,.22.87.84.84,0,0,0,.86.21c.77.68,1.41,1.09,1.55.95s-.26-.78-.94-1.54a.87.87,0,0,0-1.1-1.1c-.76-.68-1.41-1.09-1.55-.95s.27.79,1,1.56" transform="translate(-0.56 -0.02)"/><line class="cls-19" x1="68.73" y1="52.01" x2="68.73" y2="51.92"/><line class="cls-20" x1="68.73" y1="51.56" x2="68.73" y2="13.43"/><line class="cls-19" x1="68.73" y1="13.25" x2="68.73" y2="13.16"/><path class="cls-21" d="M15.77,61.42c.39-.41,1.19-1.3,1.48-1.61a.53.53,0,0,1,.4-.2.68.68,0,0,1,.41.2,25.86,25.86,0,0,1,2.48,2.77l-.31.28a21.7,21.7,0,0,0-2.35-2.74c-.09-.08-.15-.13-.22-.13s-.12.06-.21.13c-.24.26-1,1.11-1.32,1.48a.06.06,0,0,1,0,0,.12.12,0,0,1-.05.1Zm3.85-2.58a.58.58,0,0,1,.57.57.57.57,0,0,1-.57.57.56.56,0,0,1-.57-.57A.57.57,0,0,1,19.62,58.84Zm.4.57a.4.4,0,1,0-.8,0,.4.4,0,1,0,.8,0Z" transform="translate(-0.56 -0.02)"/><path class="cls-21" d="M24.89,59.79s0,0-.06.06a6.87,6.87,0,0,1-.74,1.67c.22.13.49.29.68.42l-.22.33c-.18-.14-.46-.31-.67-.44a4.58,4.58,0,0,1-1.83,1.53,1,1,0,0,0-.27-.27,4.6,4.6,0,0,0,1.78-1.44,7.27,7.27,0,0,0-1.14-.53l.2-.28a9.67,9.67,0,0,1,1.16.52A5.88,5.88,0,0,0,24.39,60H22.71a5.55,5.55,0,0,1-1.14,1.39,3.25,3.25,0,0,0-.29-.23,5.12,5.12,0,0,0,1.55-2.27l.47.14c0,.06-.08.07-.14.07a4.67,4.67,0,0,1-.26.56h1.65l0,0Zm-.47-1a4.11,4.11,0,0,1,.68.71l-.2.16a4.35,4.35,0,0,0-.66-.71Zm.65-.19a4.13,4.13,0,0,1,.69.7l-.2.16a3.39,3.39,0,0,0-.67-.7Z" transform="translate(-0.56 -0.02)"/><path class="cls-21" d="M27.33,59.71s0,.07-.12.08a5.38,5.38,0,0,1-.92,3.52c-.08-.06-.21-.13-.31-.19.76-.82.85-2.09.87-3.46Zm1.31,2.92a3.36,3.36,0,0,0,1.7-2,1.65,1.65,0,0,0,.31.2,3.79,3.79,0,0,1-2.07,2.29.24.24,0,0,1-.09.11l-.26-.34.05-.08V59l.48,0a.12.12,0,0,1-.12.1Z" transform="translate(-0.56 -0.02)"/><path class="cls-21" d="M35.49,60.12v.34H34.23a.11.11,0,0,1-.09.06,3.58,3.58,0,0,1-1.7,2.83,2.35,2.35,0,0,0-.32-.23,3.21,3.21,0,0,0,1.65-2.66H32.36a4.52,4.52,0,0,1-.8,1,2.43,2.43,0,0,0-.32-.18,5.22,5.22,0,0,0,1.38-2.41l.49.11a.13.13,0,0,1-.14.08,9.87,9.87,0,0,1-.43,1Z" transform="translate(-0.56 -0.02)"/><path class="cls-21" d="M36.33,60.85h4.24v.36h-4a.2.2,0,0,1-.16.1Z" transform="translate(-0.56 -0.02)"/><path class="cls-21" d="M45.1,59.51a4.33,4.33,0,0,0-.49-.54l.18-.14a3.67,3.67,0,0,1,.65.73l-.1.07,0,0a.11.11,0,0,1-.07.06,4.43,4.43,0,0,1-3,3.64,2.26,2.26,0,0,0-.23-.29,4,4,0,0,0,2.83-3.17H41.63v-.35H45l.07,0Zm.79,0a3.54,3.54,0,0,0-.62-.73l.19-.15a4.22,4.22,0,0,1,.63.73Z" transform="translate(-0.56 -0.02)"/><path class="cls-21" d="M47.66,59.71s0,.07-.12.08a5.33,5.33,0,0,1-.93,3.52l-.3-.19a5.06,5.06,0,0,0,.86-3.46ZM49,62.63a3.31,3.31,0,0,0,1.69-2,2.14,2.14,0,0,0,.32.2,3.79,3.79,0,0,1-2.07,2.29.24.24,0,0,1-.09.11l-.26-.34,0-.08V59l.47,0s0,.09-.11.1Z" transform="translate(-0.56 -0.02)"/><path class="cls-21" d="M54,59.69a.13.13,0,0,1-.13.08c-.18,1.58-.71,3-1.55,3-.43,0-.82-.43-.82-1.23a2.23,2.23,0,0,1,2.29-2.24,1.88,1.88,0,0,1,2.1,1.92c0,1.21-.7,1.79-1.93,2.08a1.7,1.7,0,0,0-.21-.31c1.17-.23,1.77-.8,1.77-1.76a1.56,1.56,0,0,0-1.73-1.6h-.15Zm-.49-.07a1.87,1.87,0,0,0-1.66,1.87c0,.54.23.88.48.88C53,62.37,53.4,61,53.53,59.62Z" transform="translate(-0.56 -0.02)"/><path class="cls-21" d="M16.33,67.88V64.15H18v.27H16.59v3.46Z" transform="translate(-0.56 -0.02)"/><path class="cls-21" d="M18.8,65H22l0,0,.34.27a.09.09,0,0,1-.06,0,4.25,4.25,0,0,1-2.85,3.5,1.7,1.7,0,0,0-.23-.3,3.86,3.86,0,0,0,2.67-3.14H18.8Zm3.87-.91a.56.56,0,1,1-.56.56A.56.56,0,0,1,22.67,64.06Zm.38.56a.39.39,0,1,0-.77,0,.39.39,0,1,0,.77,0Z" transform="translate(-0.56 -0.02)"/><path class="cls-21" d="M27.67,66a.17.17,0,0,1-.06.06,3.51,3.51,0,0,1-2.79,2.7,1.48,1.48,0,0,0-.21-.3,3.13,3.13,0,0,0,2.56-2.23H23.81v-.35h3.51l.05,0Zm-.47-1.08H24.3v-.34h2.9Z" transform="translate(-0.56 -0.02)"/><path class="cls-21" d="M32.6,65.36a.27.27,0,0,1-.07.08,5.28,5.28,0,0,1-2.75,3.4,1.35,1.35,0,0,0-.26-.28,4.72,4.72,0,0,0,2.55-3H30.28a5.23,5.23,0,0,1-1.12,1.24,1.73,1.73,0,0,0-.29-.23,5,5,0,0,0,1.61-2.23l.48.13c0,.06-.07.08-.14.07a7.18,7.18,0,0,1-.34.68h1.77l.06,0ZM32,64.2a3.75,3.75,0,0,1,.67.72l-.19.16a3.71,3.71,0,0,0-.66-.72Zm.74-.15a3.75,3.75,0,0,1,.67.72l-.19.16a3.71,3.71,0,0,0-.66-.72Z" transform="translate(-0.56 -0.02)"/><path class="cls-21" d="M35.27,65.2v3.73h-1.7v-.27H35V65.2Z" transform="translate(-0.56 -0.02)"/><path class="cls-21" d="M4.57,2.32H2.89l.09,0s0,0-.1.06A3,3,0,0,1,1.31,4.76,1.72,1.72,0,0,0,1,4.51,2.58,2.58,0,0,0,2.5,2.32H.56V2h4ZM3.82.94H1V.6H3.82ZM3.89.19a3.74,3.74,0,0,1,.56.8l-.21.14a3.18,3.18,0,0,0-.55-.8ZM4.49,0a4.14,4.14,0,0,1,.57.79L4.85.94A3.59,3.59,0,0,0,4.29.15Z" transform="translate(-0.56 -0.02)"/><path class="cls-21" d="M5.68,1.8A8.32,8.32,0,0,1,7,2.26l-.15.32a8.1,8.1,0,0,0-1.37-.47ZM6,4.29a5.33,5.33,0,0,0,3.46-3,2.26,2.26,0,0,0,.31.23,5.65,5.65,0,0,1-3.42,3,.14.14,0,0,1-.06.13ZM6.24.54A9.71,9.71,0,0,1,7.6,1l-.17.31A8.46,8.46,0,0,0,6.08.84ZM8.61.38a3.86,3.86,0,0,1,.66.73l-.2.15A4.47,4.47,0,0,0,8.43.52ZM9.32.07A3.86,3.86,0,0,1,10,.8L9.78,1A4.47,4.47,0,0,0,9.14.21Z" transform="translate(-0.56 -0.02)"/><path class="cls-21" d="M14.39,1.18a.09.09,0,0,1-.06.06,6.83,6.83,0,0,1-.75,1.68c.22.13.47.29.65.42L14,3.68c-.18-.14-.44-.31-.65-.44a4.79,4.79,0,0,1-1.84,1.54,1,1,0,0,0-.28-.26,4.83,4.83,0,0,0,1.8-1.47,10.13,10.13,0,0,0-1.12-.52l.19-.29a9.33,9.33,0,0,1,1.14.51,4.82,4.82,0,0,0,.62-1.34H12.16A5.52,5.52,0,0,1,11,2.81a1.34,1.34,0,0,0-.29-.23A5.26,5.26,0,0,0,12.29.29l.49.11a.12.12,0,0,1-.14.06c-.07.17-.19.42-.29.61H14l.07,0Z" transform="translate(-0.56 -0.02)"/><path class="cls-21" d="M16.8,1.12s-.05.08-.12.09a5.38,5.38,0,0,1-.92,3.52,1.82,1.82,0,0,0-.31-.19,5.15,5.15,0,0,0,.87-3.46Zm1.32,2.93a3.34,3.34,0,0,0,1.69-2l.31.2A3.79,3.79,0,0,1,18.05,4.5a.18.18,0,0,1-.09.1l-.26-.33.06-.08V.46l.47,0a.12.12,0,0,1-.11.09Z" transform="translate(-0.56 -0.02)"/><path class="cls-21" d="M23.64,4.19a9.16,9.16,0,0,0,1.06-.08c0,.11,0,.26,0,.37-.33,0-.84,0-1,0H22.4c-.77,0-1.14-.33-1.14-1.05v-3l.5,0s0,.08-.14.1V2.29a16.76,16.76,0,0,0,2.52-1l.26.35,0,0-.08,0a18.77,18.77,0,0,1-2.65,1v.85c0,.52.25.71.78.71ZM24.69.14a.56.56,0,0,1,.57.57.57.57,0,0,1-.57.57.58.58,0,0,1-.57-.57A.57.57,0,0,1,24.69.14Zm.4.57a.4.4,0,1,0-.4.4A.4.4,0,0,0,25.09.71Z" transform="translate(-0.56 -0.02)"/><path class="cls-21" d="M30.1.79,30,.83a4.35,4.35,0,0,1-1.21,1.63,1.41,1.41,0,0,0-.31-.21,3.07,3.07,0,0,0,1-1.26H25.89V.65h3.83l.05,0Zm-2,.92s-.05.08-.11.09a3.71,3.71,0,0,1-1.61,3,2.62,2.62,0,0,0-.3-.24,3.33,3.33,0,0,0,1.53-2.85Z" transform="translate(-0.56 -0.02)"/><path class="cls-21" d="M34.82.6a.12.12,0,0,1-.14.06,8,8,0,0,1-3.44,4.05A1.27,1.27,0,0,0,31,4.44a7.37,7.37,0,0,0,3.37-4Z" transform="translate(-0.56 -0.02)"/><path class="cls-21" d="M40.36,1.63H38.51a4.67,4.67,0,0,0,2,2.14,1.93,1.93,0,0,0-.26.3,5.08,5.08,0,0,1-2-2.16V3.57h1v.35h-1v1h-.36v-1h-1V3.57h1V1.92a5.53,5.53,0,0,1-2,2.16,2.26,2.26,0,0,0-.25-.28,4.92,4.92,0,0,0,2-2.17H35.88V1.29h2V.19l.46,0s0,.06-.1.08v1h2.07Z" transform="translate(-0.56 -0.02)"/><path class="cls-21" d="M42.4.36a.1.1,0,0,1-.11,0,8.21,8.21,0,0,1-.47,1l.14,0a.1.1,0,0,1-.1.06V4.92h-.34V2a6.4,6.4,0,0,1-.61.85,3.3,3.3,0,0,0-.18-.32A6.84,6.84,0,0,0,42,.22Zm3.13,1.31H44.2a4.8,4.8,0,0,0,1.42,2.11,1.34,1.34,0,0,0-.26.27A5.58,5.58,0,0,1,44,1.82V3.6h.82v.31H44v1h-.33v-1h-.84V3.6h.84V1.84A5.73,5.73,0,0,1,42.2,4.07,1.2,1.2,0,0,0,42,3.81,5.34,5.34,0,0,0,43.4,1.67H42.15V1.35h1.48V.23l.43,0s0,.06-.1.06v1h1.57Z" transform="translate(-0.56 -0.02)"/><path class="cls-21" d="M50.6,1H46.66V2.2a5.81,5.81,0,0,1-.51,2.72,1.09,1.09,0,0,0-.27-.19,5.38,5.38,0,0,0,.45-2.53V.71h1.92V.18l.45,0s0,.06-.1.08V.71h2Zm0,1.77H49.25c.13,1,.43,1.67.88,1.67.13,0,.19-.22.21-.74a.74.74,0,0,0,.27.16c0,.7-.18.91-.51.91-.66,0-1-.85-1.18-2H47.66v1l1.26-.15v.29c-.71.09-1.45.2-1.92.25a.11.11,0,0,1-.07.08l-.13-.38.52,0V1.5l.3.09a13.33,13.33,0,0,0,2.21-.41l.29.27-.05,0h0c-.22.06-.49.13-.78.18l-.08,0a7.09,7.09,0,0,0,0,.81h1.36Zm-3.73,2V4.5h2.33v.3Zm.81-2.32h1.23a6.36,6.36,0,0,1,0-.77l-1.18.16Z" transform="translate(-0.56 -0.02)"/><path class="cls-21" d="M55.64.86H53.49c-.05.19-.12.45-.19.68h2.11V4.9h-.35V4.63H51.68V4.9h-.33V1.55H53c.06-.21.12-.47.17-.69h-2V.54h4.55Zm-4,1V4.31h.85V1.87Zm2.17.61V1.87h-1v.61Zm0,.9V2.76h-1v.62Zm-1,.28v.65h1V3.66Zm2.22.65V1.87h-.9V4.31Z" transform="translate(-0.56 -0.02)"/><path class="cls-21" d="M58.74,1.11a.14.14,0,0,1-.13.08c-.18,1.58-.71,3-1.55,3-.43,0-.82-.43-.82-1.23A2.23,2.23,0,0,1,58.53.68a1.88,1.88,0,0,1,2.1,1.92c0,1.21-.7,1.79-1.93,2.08a1.41,1.41,0,0,0-.21-.31c1.17-.23,1.77-.8,1.77-1.76A1.56,1.56,0,0,0,58.53,1h-.15ZM58.25,1a1.87,1.87,0,0,0-1.66,1.87c0,.54.23.88.48.88C57.68,3.79,58.12,2.43,58.25,1Z" transform="translate(-0.56 -0.02)"/><path class="cls-21" d="M18.51,9.3V5.57H20.2v.27H18.77V9.3Z" transform="translate(-0.56 -0.02)"/><path class="cls-21" d="M20.92,7.25a6.66,6.66,0,0,1,1.37.46L22.14,8a6.87,6.87,0,0,0-1.37-.47Zm.31,2.48a5.3,5.3,0,0,0,3.45-2.95L25,7a5.61,5.61,0,0,1-3.42,3,.11.11,0,0,1-.05.13ZM21.48,6a7.16,7.16,0,0,1,1.36.5l-.16.31a7.91,7.91,0,0,0-1.35-.52Zm2.38-.17a3.92,3.92,0,0,1,.66.74l-.2.15A5.06,5.06,0,0,0,23.67,6Zm.71-.31a5.8,5.8,0,0,1,.66.73l-.2.15a4.47,4.47,0,0,0-.65-.73Z" transform="translate(-0.56 -0.02)"/><path class="cls-21" d="M29.62,7.48a.1.1,0,0,1-.05,0,4.53,4.53,0,0,1-.92,1.41,1.6,1.6,0,0,0-.25-.18,3.6,3.6,0,0,0,.76-1.08L27.74,8l.46,2.17-.3.06-.46-2.17-1.16.27L26.21,8l1.17-.26-.23-1,.42,0s0,.07-.09.1l.2.92,1.67-.36,0,0Z" transform="translate(-0.56 -0.02)"/><path class="cls-21" d="M31.64,7.13A5.53,5.53,0,0,1,32,8.23l-.28.07a5.77,5.77,0,0,0-.37-1.08Zm3,0s-.06,0-.1,0a3.93,3.93,0,0,1-2.38,2.89A1.37,1.37,0,0,0,32,9.88a3.6,3.6,0,0,0,2.28-2.83Zm-1.79-.28A7.09,7.09,0,0,1,33.11,8l-.3.06A6.07,6.07,0,0,0,32.58,7Z" transform="translate(-0.56 -0.02)"/><path class="cls-21" d="M39.89,6.74l-.08.07A5.3,5.3,0,0,1,37,10.22a1.33,1.33,0,0,0-.26-.28,4.77,4.77,0,0,0,2.58-3H37.55a5.59,5.59,0,0,1-1.14,1.25A1.73,1.73,0,0,0,36.12,8a5.23,5.23,0,0,0,1.62-2.21l.48.14c0,.05-.08.06-.15.06a5.46,5.46,0,0,1-.32.64h1.79l.06,0Z" transform="translate(-0.56 -0.02)"/><path class="cls-21" d="M42.53,6.62v3.73h-1.7v-.27h1.43V6.62Z" transform="translate(-0.56 -0.02)"/><path class="cls-22" d="M65.29,30.15C63.06,32.31,62,36.23,66,41.68l-3.53-.36c-2.54-1.81-4-7.26-1.76-11.8l-3.59-.75,9.18-2.25L68,30.37Z" transform="translate(-0.56 -0.02)"/><polyline class="cls-23" points="61.09 10.4 56.56 10.4 43.23 31.73 55.42 52.24 62.16 52.24"/><polyline class="cls-23" points="63.64 6.09 47.36 6.09 31.95 32.13 46.04 55.46 65.01 55.46"/><polyline class="cls-23" points="65.23 50.19 54.46 32.06 66.23 13.23"/><polyline class="cls-23" points="71.72 51.06 82.49 32.94 70.72 14.1"/><polyline class="cls-23" points="72.78 6.08 89.06 6.08 104.46 32.11 90.37 55.45 71.4 55.45"/><circle class="cls-24" cx="81.27" cy="32.31" r="2.94"/><path class="cls-21" d="M81.94,35a2.74,2.74,0,1,1,2.73-2.74A2.73,2.73,0,0,1,81.94,35Zm-2.55-2.74a2.55,2.55,0,1,0,2.55-2.55A2.55,2.55,0,0,0,79.39,32.27Zm2.42-1.15h0l-.5.27-.08-.31.61-.32h.37v3h-.39Z" transform="translate(-0.56 -0.02)"/><circle class="cls-24" cx="43.97" cy="32.5" r="2.94"/><path class="cls-21" d="M44.56,35.21a2.74,2.74,0,1,1,2.73-2.74A2.74,2.74,0,0,1,44.56,35.21ZM42,32.47a2.55,2.55,0,1,0,2.55-2.55A2.55,2.55,0,0,0,42,32.47ZM44.8,34v-.79H43.24v-.26l1.55-2h.39v1.92h.45v.31h-.45V34Zm0-1.1V31.72c0-.1,0-.26,0-.37h0l-.22.35-1,1.17H44.8Z" transform="translate(-0.56 -0.02)"/><circle class="cls-24" cx="55.32" cy="32.32" r="2.94"/><path class="cls-21" d="M55.9,35a2.74,2.74,0,1,1,2.74-2.74A2.74,2.74,0,0,1,55.9,35Zm-2.55-2.74a2.55,2.55,0,1,0,2.55-2.55A2.55,2.55,0,0,0,53.35,32.29Zm3.48-1.15H55.6l-.11.77a1.17,1.17,0,0,1,.29,0c.59,0,1.12.31,1.12.93a1.06,1.06,0,0,1-1.16,1,1.6,1.6,0,0,1-.81-.2l.1-.3a1.49,1.49,0,0,0,.71.18.7.7,0,0,0,.76-.63c0-.39-.25-.68-.9-.68a3,3,0,0,0-.48,0l.18-1.42h1.53Z" transform="translate(-0.56 -0.02)"/><circle class="cls-24" cx="68.78" cy="32.62" r="2.94"/><path class="cls-21" d="M69.36,35.33a2.74,2.74,0,1,1,2.73-2.74A2.74,2.74,0,0,1,69.36,35.33Zm-2.55-2.74A2.55,2.55,0,1,0,69.36,30,2.55,2.55,0,0,0,66.81,32.59Zm3.32-1.19H70l-.28,0a1.17,1.17,0,0,0-1.08,1.06h0a1,1,0,0,1,.81-.35.91.91,0,0,1,1,.93,1.08,1.08,0,0,1-1.12,1.07c-.59,0-1.06-.41-1.06-1.27a1.63,1.63,0,0,1,1.41-1.76l.45,0Zm-.07,1.66a.65.65,0,0,0-.66-.66c-.36,0-.75.23-.75.54s.12.89.73.89A.72.72,0,0,0,70.06,33.06Z" transform="translate(-0.56 -0.02)"/><circle class="cls-24" cx="103.39" cy="31.91" r="2.94"/><path class="cls-21" d="M104,34.61a2.73,2.73,0,1,1,2.73-2.73A2.73,2.73,0,0,1,104,34.61Zm-2.55-2.73A2.55,2.55,0,1,0,104,29.33,2.55,2.55,0,0,0,101.43,31.88ZM103,33.36v-.25l.33-.29c1-.85,1.25-1.14,1.25-1.53a.59.59,0,0,0-.67-.61,1.17,1.17,0,0,0-.71.28l-.12-.28a1.41,1.41,0,0,1,.91-.33.89.89,0,0,1,1,.86c0,.58-.41.95-1.22,1.64l-.21.17H105v.33Z" transform="translate(-0.56 -0.02)"/><circle class="cls-24" cx="32.88" cy="32.41" r="2.94"/><path class="cls-21" d="M33.46,35.12a2.74,2.74,0,1,1,2.74-2.73A2.73,2.73,0,0,1,33.46,35.12Zm-2.55-2.73a2.56,2.56,0,1,0,2.55-2.55A2.55,2.55,0,0,0,30.91,32.39Zm1.66,1a1.49,1.49,0,0,0,.73.2c.63,0,.75-.39.75-.56,0-.48-.5-.6-.88-.6h-.25v-.31h.26c.36,0,.75-.14.75-.49,0-.2-.14-.44-.58-.44a1.3,1.3,0,0,0-.67.2l-.1-.28a1.5,1.5,0,0,1,.84-.25c.67,0,.91.37.91.71a.74.74,0,0,1-.58.69h0a.8.8,0,0,1,.71.76c0,.43-.36.88-1.17.88a1.54,1.54,0,0,1-.83-.22Z" transform="translate(-0.56 -0.02)"/></svg>