<svg id="レイヤー_1" data-name="レイヤー 1" xmlns="http://www.w3.org/2000/svg" xmlns:xlink="http://www.w3.org/1999/xlink" width="148.41mm" height="78.16mm" viewBox="0 0 420.7 221.55">
  <defs>
    <style>
      .cls-1, .cls-3, .cls-4, .cls-5 {
        fill: none;
      }

      .cls-2 {
        clip-path: url(#clip-path);
      }

      .cls-3 {
        stroke: #000;
        stroke-width: 0.99px;
      }

      .cls-3, .cls-4 {
        stroke-linecap: round;
        stroke-linejoin: round;
      }

      .cls-4 {
        stroke: gray;
        stroke-width: 0.51px;
      }

      .cls-5 {
        stroke: #fff;
        stroke-width: 1.32px;
      }

      .cls-6 {
        fill: #231815;
      }
    </style>
    <clipPath id="clip-path">
      <rect class="cls-1" width="420.7" height="221.55"/>
    </clipPath>
  </defs>
  <g class="cls-2">
    <path class="cls-3" d="M239.6,316.53l-1,1.1-1.4,1.9-1.1,2-.8,2.1-.5,2m0,0-.2.7-.5.6-.7.5-.9.4-1.1.4-1.2.2-1.2.1-1.3-.1-1.2-.2-1.1-.3-.9-.5-.8-.5-.5-.6-.2-.6v-.6m-45.9-12.5v.8l.4.6.6.6.8.5,1,.4,1.1.3,1.2.2h1.3l1.2-.1,1.2-.3,1-.4.9-.4m0,0,1.3-1,1.1-1m0,0,7.8-7.6m1.4,14.3v.7l.3.6.4.5.7.5.8.4.9.3,1.1.2,1.1.1,1.1.1,1.1-.2,1-.2,1-.3.8-.4.7-.4m0,0,.9-.9.7-.9m0,0,2-2.9,2.3-2.9,2.5-2.8v-.1m-20.8-4.6-.9-.3m21.7,5.9-.7-.2m21.5,5.9-.8-.2m-40.8-11-1-.3m21.8,5.9-.8-.2m21.6,5.9-.9-.3M224.8,321h-.1l-.5-.1-.5-.2-.5-.2-.3-.3-.3-.3-.2-.3v-.3m-218-14.7h0v.1h.1m10.9,3h.4v-.1m0-11.6v11.6m-11.3-2.9,1.2.6,1.3.4,1.3.5,1.3.3,1.4.4,1.5.3,1.4.3,1.5.2m0-11.6h.3V296h.1m0,0h0m-.3,0h.3m-11.3-2.9,1.2.5L7,294l1.3.5,1.4.4,1.4.3,1.4.3,1.5.3,1.5.2m-11-3.1H4.4v.1h.1v.1M7.4,290l-2.9,2.9M38.1,260l-18.3,17.9m-12.4,12-3,3M38.1,260l-18.3,17.8M4.4,292.93h0v.1l.1.1m0,0,1.2.5,1.3.5,1.3.4,1.3.4,1.4.3,1.5.4,1.4.2,1.5.3m.1,11.7-1.4-.2-1.5-.3-1.4-.3-1.4-.4-1.3-.4-1.3-.4-1.3-.4-1.2-.5m15.1-27L38.1,260M4.5,292.93,7.4,290m-2.9,3.1V293H4.4v-.1h.1m11.3,14.7,36.4-35.5m-3.2-8.6L15.8,296m0,0h-.3m-8.1-6-2.7,2.7m33.5-32.6L19.8,278m-4.3,17.7,33.3-32.5M15.5,296l-1.5-.2-1.5-.3-1.4-.3-1.4-.3-1.4-.4L7,294l-1.3-.4-1.2-.5m.2-.4,1.2.5,1.3.5,1.3.4,1.3.4,1.4.3,1.4.4,1.5.2,1.4.3M39,92.83h0m0,.1h0V93h.1m-.1-.2h0v.1m-.8-.1H39m0-.1h0v.1m-.2-.1H39m0-.1h0v.1m.1.3h0m-.6.5.6-.5m0,0h0m0-.4H39m.1-.1-.2-.3m.4.7h0m0,.1h0m.1.3-.1-.4m-.7-1.1h.6m0,0,.3.2.2.3.1.3.1.3v.3l-.2.3-.2.3-.3.1m-.3-.7h0v-.1h.2m-.3.5.1-.4m-.4.3.3.1m-.1-.5-.2.4m.1-.6h0V93h.1v.1m-.5-.3.4.1m-.3-.4-.1.3m.4-.1-.3-.2m.5.1h0l-.1.1h-.1m.3-.5-.1.4m.4-.3-.3-.1m.1.5.2-.4m-.1.5h0l-.1-.1m.5.3-.4-.2m.3.5.1-.3m-.4.1.3.2m-.3-1.4.3.1.2.3.2.3v.7l-.1.2-.3.3-.2.1-.3.1-.3-.1-.3-.2-.2-.2-.2-.3v-.7l.1-.3.2-.2.3-.2h.3l.3.1m2.6-15.5h0l.1.1m0,.1h.1m-.1-.1h0v.1m-.8-.2h.7m.1-.1h0v.1h-.1m-.1-.1h.2m0,0h0m.1.3h0m-.6.5.6-.5m0,.1v-.1m-.1-.4h0v.1m.1-.2-.2-.3m.4.8h0m.1.3-.1-.3m-.7-1.2h.3l.3.1m0,0,.2.1.3.3.1.3.1.3-.1.4-.1.3-.2.2-.3.1m-.3-.7h0v-.1h.1m-.2.5.1-.4m-.4.3.3.1m-.2-.5-.1.4m0-.5h.1v.1m-.4-.3.3.2m-.2-.5-.1.3m.4-.1-.3-.2m.5.1h0v.1h-.2m.3-.5-.1.4m.3-.3-.2-.1m.1.5.1-.4m0,.6h0l-.1-.1v-.1m.5.3-.4-.1m.3.4.1-.3m-.5.1.4.2m-.3-1.4.3.2.2.2.2.3v.7l-.2.3-.2.2-.2.2h-.3l-.3-.1-.3-.1-.2-.3-.2-.3-.1-.3.1-.4.1-.2.2-.3.3-.1.3-.1.3.1m-1.5,9.1h0m0,.2h.1m-.1-.2v.2m-.8-.2h.8m0-.1h0v.1m-.2-.1h.2m0,0h0m.1.3h0m-.6.5.6-.5m0,.1v-.1m-.1-.4h0v.1m.1-.2-.2-.3m.4.7h0m.1.4-.1-.4m-.7-1.1h.3l.3.1m0,0,.3.1.2.3.1.3.1.3-.1.4-.1.2-.2.3-.3.1m-.3-.7h0v-.1h.1m-.2.5.1-.4m-.4.3.3.1m-.2-.5-.1.4m.1-.6h0v.2m-.4-.3.4.1m-.3-.4-.1.3m.4-.1-.3-.2m.5.1h0l-.1.1H40m.3-.5-.1.4m.3-.3-.2-.1m.1.5.1-.4m0,.6h0v-.1h-.1v-.1m.5.3-.4-.1m.3.4.1-.3m-.5.1.4.2m-.3-1.4.3.1.2.3.2.3v.7l-.2.3-.2.2-.2.1-.3.1-.3-.1-.3-.1-.2-.3-.2-.3v-.7l.1-.3.2-.2.3-.1.3-.1.3.1m-34.3,82L7.5,292m7.6,2.1L7.5,292m12.3-2.5V157.83m-6,9.9,1.3,126.4m0,0,4.7-4.6M5.6,154.73l.1,1,.2,1.6L6,159l.1,1.6v1.7l.1,1.7v1.7m6.9-9.7.1.3.1,1.5.2,1.6.1,1.6.1,1.7.1,1.6v3.4m336.4,91.5,1.2,126.3m7.6,2.1-7.6-2.1m12.4-2.6V243.33m-6,17.9,1.2,126.4m0,0,4.8-4.7m-14.2-134.7.1,1,.1,1.6.2,1.6.1,1.7v1.7l.1,1.6v1.8m7-9.4.1,1.5.2,1.6.1,1.6.1,1.7v1.6l.1,1.7v1.7M37.6,76.63v-.1m0,.1-1,2-1,2-1,1.9-1.1,1.9-1,1.8-1.1,1.7-1.1,1.7-1.1,1.5-1.1,1.5L26.9,94l-1.1,1.3-1.1,1.3m12.9-20.1v.1M1.4,153.53h0m.4.2-.4-.2m8.3,2.3-7.9-2.1m7.9,2.1h.1M.5,140.93l.1,1.6.1,1.6.1,1.6.1,1.6.1,1.6.1,1.5.2,1.5.1,1.6m0,0,8.4,2.2m14.9-59.1L2.5,119.53M0,127.23l.5,13.7m2-21.4-.3.4-.4.5-.3.5-.3.6-.3.7-.2.7-.3.7-.1.8-.2.7-.1.7v1.4m32.8-28.1-21.9,22.6m0,0-.4.4-.3.5-.3.6-.3.6-.3.7-.3.7-.2.7-.2.7-.1.8-.1.7-.1.7v.6m0,0,.6,13.8m0,0,.1,1.6.1,1.6.1,1.6.1,1.6.1,1.5.1,1.6.1,1.5.2,1.5m0,0v.1m0,0,.6-.6m374.3,15.7h-.1m0,0-1,2-1,2-1,2-1,1.8-1.1,1.8-1.1,1.7-1,1.7-1.2,1.6-1.1,1.4-1.1,1.4-1.1,1.4-1.2,1.2m12.9-20h.1m-36.2,76.9h0m.4.2-.4-.2m.4.2,7.8,2.1m0,0h.2m-9.3-14.9.1,1.6.1,1.6V240l.2,1.6.1,1.6.1,1.5.1,1.6.2,1.5m8.3,2.3-8.3-2.3m23.2-56.9-22.1,22.9m-2.6,7.7.6,13.7m2-21.4-.4.4-.3.5-.3.5-.3.7-.3.6-.3.7-.2.8-.2.7-.1.7-.1.7-.1.7v.7m44.9-46.1-.9,1.8-1,1.9-1.1,1.9-1,1.8-1.1,1.7-1.1,1.7-1.1,1.5-1.1,1.5-1.1,1.4-1.2,1.3-1.1,1.3m0,0L358,216.13m0,0-.4.4-.3.5-.4.5-.3.6-.3.7-.2.7-.2.7-.2.8-.2.7-.1.7v1.4m0,0,.6,13.7m0,0v1.6l.1,1.6.1,1.6.1,1.6.1,1.5.1,1.6.2,1.5.1,1.6m.1,0h-.1m35.1-34.2-35,34.2M10,155h0v.1h.1v.1m1.9-18.9h0m0,0-1.6,1.6m0,0h-.1v.1m-1,3v1.8l.1,1.8v1.8l.1,1.7.1,1.7.2,1.8.1,1.7L10,155m-.7-14.1h0v.1m1-3-1,2.9m0,.1v1.8l.1,1.8.1,1.7.1,1.8.1,1.7.1,1.7.1,1.7.1,1.7m334.9,72.6v.1l-.1.2-.2.2-.3.1-.3.1-.4.1-.4-.1h-.3m0,0-.4-.1-.2-.2-.2-.2v-.2M18.8,138.93h0l-.1.2-.1.2-.3.1-.3.1-.4.1h-.7l-.4-.1-.3-.2-.2-.1-.1-.2v-.1m44.2-19.5-11.4,9.5m14.2-8.7-2.8-.8m-12.5,13.3-.1.2m1.2-4-1.1,3.8m2.8.8-2.8-.8m3.9-3-2.8-.8m14.5-6.8-.3.3m0,0v-2.2m0,0-11.4,9.5m0,0-1.1,3.8m0,0v.1m20-11.4-11.3,9.6M73.3,123l-2.9-.8m-12.5,13.4v.1m1.2-3.9-1.2,3.8m2.8.7-2.8-.7m4-3.1-2.8-.7M73.6,125l-.3.2m0,0V123m0,0-11.4,9.5m0,0-1.2,3.8m0,0v.2m16.8-12.3-11.3,9.5m14.1-8.8-2.8-.7M65,137.53v.1m1.2-3.9-1.2,3.8m2.8.8-2.8-.8m4-3.1-2.8-.7m14.5-6.8-.3.3m0,0-.1-2.3m0,0L69,134.43m0,0-1.2,3.9m0,0v.1M87.9,127l-11.3,9.5m14.1-8.7-2.8-.8m-12.5,13.3v.1m1.2-3.9-1.2,3.8m2.8.8-2.8-.8m4-3-2.8-.8m14.5-6.8-.3.3m0,0-.1-2.2m0,0-11.3,9.5m0,0-1.2,3.8m0,0v.1m16.5-12.4-11.4,9.5m14.2-8.7-2.8-.8m-12.5,13.3v.2m1.1-4-1.1,3.8m2.8.8-2.8-.8m3.9-3-2.8-.8m14.5-6.8-.3.3m0,0v-2.2m0,0-11.4,9.5m0,0-1.1,3.8m0,0v.1m16.4-12.3-11.3,9.5m14.1-8.8-2.8-.7M88.9,144v.1m1.2-3.9L88.9,144m2.8.7-2.8-.7m4-3.1-2.8-.7m14.5-6.8-.3.2m0,0-.1-2.2m0,0-11.3,9.5m0,0-1.2,3.8m0,0v.2m20.1-11.4L100.4,143m14.2-8.8-2.8-.7m-12.5,13.3v.1m1.1-3.9-1.1,3.8m2.8.8-2.8-.8m4-3-2.9-.8m14.5-6.8-.3.3m0,0v-2.3m0,0-11.3,9.6m0,0-1.2,3.8m0,0v.1m16.8-12.3-11.4,9.5m14.2-8.7-2.8-.8m-12.5,13.3v.2m1.1-4-1.1,3.8m2.8.8-2.8-.8m3.9-3-2.8-.8m14.5-6.8-.3.3m0,0v-2.2m0,0-11.4,9.5m0,0-1.1,3.8m0,0v.1m20.1-11.4-11.4,9.6m14.2-8.8-2.8-.8m-12.5,13.4v.1m1.1-3.9-1.1,3.8m2.8.7-2.8-.7m3.9-3.1-2.8-.7m14.5-6.9-.3.3m0,0V139m0,0-11.4,9.5m0,0-1.1,3.8m0,0v.1m16.4-12.3-11.3,9.5m14.2-8.8-2.9-.7m-12.5,13.3v.1m1.2-3.9-1.2,3.8m2.8.8-2.8-.8m4-3-2.8-.8m14.5-6.8-.3.3m0,0v-2.3m0,0-11.4,9.6m0,0-1.2,3.8m0,0v.1m16.5-12.4-11.4,9.5m14.2-8.7-2.8-.8m-12.5,13.3v.2m1.1-4-1.1,3.8m2.8.8-2.8-.8m3.9-3-2.8-.8m14.5-6.8-.3.3m0,0v-2.2m0,0-11.4,9.5m0,0-1.1,3.8m0,0v.1m20.1-11.4-11.4,9.5m14.2-8.7-2.8-.8M140.7,158v.2m1.1-4-1.1,3.8m2.8.8-2.8-.8m3.9-3-2.8-.8m14.5-6.8-.3.3m0,0v-2.2m0,0L144.6,155m0,0-1.1,3.8m0,0v.1m16.8-12.2-11.4,9.5m14.2-8.8-2.8-.7M147.8,160v.1m1.1-3.9-1.1,3.8m2.8.7-2.8-.7m3.9-3.1-2.8-.7m14.5-6.8-.3.2m0,0v-2.2m0,0-11.4,9.5m0,0-1.1,3.8m0,0v.2m20.1-11.4L159.3,159m14.2-8.8-2.8-.7m-12.6,13.3v.1m1.2-3.9-1.2,3.8m2.9.8-2.9-.8m4-3-2.8-.8m14.5-6.8-.3.3m0,0v-2.3m0,0-11.4,9.6m0,0-1.1,3.8m0,0-.1.1m16.5-12.4-11.4,9.5m14.2-8.7-2.8-.8m-12.5,13.3v.2m1.1-4-1.1,3.8m2.8.8-2.8-.8m4-3-2.9-.8m14.5-6.8-.3.3m0,0v-2.2m0,0-11.3,9.5m0,0-1.2,3.8m0,0v.1m16.5-12.4-11.4,9.6m14.2-8.8-2.8-.8m-12.5,13.4-.1.1m1.2-3.9-1.1,3.8m2.8.7-2.8-.7m3.9-3.1-2.8-.7m14.5-6.8-.3.2m0,0v-2.2m0,0-11.4,9.5m0,0-1.1,3.8m0,0v.2m20-11.4-11.3,9.5m14.2-8.8-2.9-.7M182,169.33v.1m1.2-3.9-1.2,3.8m2.8.8-2.8-.8m4-3.1-2.8-.7m14.5-6.8-.3.3m0,0v-2.3m0,0-11.4,9.5m0,0-1.2,3.9m0,0v.1m16.8-12.3-11.3,9.5m14.1-8.7-2.8-.8m-12.5,13.3v.1m1.2-3.9-1.2,3.8m2.8.8-2.8-.8m4-3-2.8-.8m14.5-6.8-.3.3m0,0-.1-2.2m0,0-11.3,9.5m0,0-1.2,3.8m0,0v.1m20.1-11.4-11.3,9.5m14.1-8.7-2.8-.8M199.5,174v.2m1.2-4-1.2,3.8m2.8.8-2.8-.8m4-3-2.8-.8m14.5-6.8-.4.3m0,0v-2.2m0,0L203.5,171m0,0-1.2,3.8m0,0v.1m16.5-12.3-11.4,9.5m14.2-8.8-2.8-.7m-12.5,13.3v.1m1.1-3.9-1.1,3.8m2.8.7-2.8-.7m3.9-3.1-2.8-.7m14.5-6.8-.3.2m0,0v-2.2m0,0-11.4,9.5m0,0-1.1,3.8m0,0v.2m16.4-12.4-11.3,9.5m14.1-8.7-2.8-.8M213,177.73v.1m1.2-3.9-1.2,3.8m2.8.8-2.8-.8m4-3-2.8-.8m14.5-6.8-.3.3m0,0-.1-2.2m0,0-11.3,9.5m0,0-1.2,3.8m0,0v.1m20.1-11.4-11.4,9.5m14.2-8.7-2.8-.8m-12.5,13.3v.2m1.1-4-1.1,3.8m2.8.8-2.8-.8m3.9-3-2.8-.8m14.5-6.8-.3.3m0,0V168m0,0-11.4,9.5m0,0-1.1,3.8m0,0v.1m16.8-12.3-11.4,9.5m14.2-8.7-2.8-.8m-12.5,13.4v.1m1.1-4-1.1,3.9m2.8.7-2.8-.7m3.9-3.1-2.8-.8m14.5-6.8-.3.3m0,0v-2.2m0,0-11.4,9.5m0,0-1.1,3.8m0,0v.1M253.4,172l-11.4,9.5m14.2-8.8-2.8-.7m-12.5,13.3-.1.1m1.2-3.9-1.1,3.8m2.8.7-2.8-.7m3.9-3.1-2.8-.7m14.5-6.8-.3.2m0,0v-2.2m0,0-11.4,9.5m0,0-1.1,3.8m0,0v.2m16.4-12.4-11.3,9.5m14.1-8.7-2.8-.8m-12.5,13.3v.1m1.2-3.9-1.2,3.8m2.8.8-2.8-.8m4-3-2.8-.8m14.5-6.8-.4.3m0,0v-2.2m0,0-11.3,9.5m0,0-1.2,3.8m0,0v.1m16.5-12.4-11.4,9.5m14.2-8.7-2.8-.8m-12.5,13.3v.2m1.1-4-1.1,3.8m2.8.8-2.8-.8m3.9-3-2.8-.8m14.5-6.8-.3.3m0,0v-2.2m0,0-11.4,9.5m0,0-1.1,3.8m0,0v.1m20.1-11.4L265.9,188m14.2-8.8-2.8-.8m-12.6,13.4v.1m1.2-3.9-1.2,3.8m2.9.7-2.9-.7m4-3.1-2.8-.7m14.5-6.8-.3.2m0,0v-2.2m0,0-11.4,9.5m0,0-1.1,3.8m0,0-.1.2m16.8-12.3-11.3,9.5m14.1-8.8-2.8-.7m-12.5,13.3v.1m1.2-3.9-1.2,3.8m2.8.8-2.8-.8m4-3-2.8-.8m14.5-6.8-.3.3m0,0-.1-2.3m0,0-11.3,9.6m0,0-1.2,3.8m0,0v.1m20.1-11.4-11.3,9.5m14.1-8.7-2.8-.8m-12.5,13.3v.1m1.2-3.9-1.2,3.8m2.8.8-2.8-.8m4-3-2.8-.8m14.5-6.8-.3.3m0,0-.1-2.2m0,0-11.3,9.5m0,0-1.2,3.8m0,0v.1M301.5,185l-11.4,9.5m14.2-8.7-2.8-.8M289,198.43v.1m1.1-4-1.1,3.9m2.8.7-2.8-.7m3.9-3.1-2.8-.8m14.5-6.8-.3.3m0,0v-2.2m0,0-11.4,9.5m0,0-1.1,3.8m0,0v.1m16.4-12.3-11.3,9.5m14.1-8.8-2.8-.7m-12.5,13.3v.1m1.2-3.9-1.2,3.8m2.8.8-2.8-.8m4-3.1-2.8-.7m14.5-6.8-.3.3m0,0-.1-2.3m0,0-11.3,9.5m0,0-1.2,3.9m0,0v.1m20.1-11.4-11.3,9.5m14.1-8.7-2.8-.8M306.1,203v.1m1.2-3.9-1.2,3.8m2.8.8-2.8-.8m4-3-2.8-.8m14.5-6.8-.4.3m0,0v-2.2m0,0L310.1,200m0,0-1.2,3.8m0,0v.1m16.8-12.3-11.4,9.5m14.2-8.7-2.8-.8m-12.5,13.3v.2m1.1-4-1.1,3.8m2.8.8-2.8-.8m3.9-3-2.8-.8m14.5-6.8-.3.3m0,0v-2.2m0,0-11.4,9.5m0,0-1.1,3.8m0,0v.1m20.1-11.4L324.7,204m14.2-8.8-2.8-.8m-12.5,13.4v.1m1.1-3.9-1.1,3.8m2.8.7-2.8-.7m3.9-3.1-2.8-.7m14.5-6.8-.3.2m0,0v-2.2m0,0-11.4,9.5m0,0-1.1,3.8m0,0v.2m16.4-12.4-11.3,9.5m14.2-8.8-2.9-.7m-12.5,13.3v.1m1.2-3.9-1.2,3.8m2.8.8-2.8-.8m4-3-2.8-.8M346,199l-.3.3m0,0V197m0,0-11.4,9.6m0,0-1.2,3.8m0,0v.1m16.5-12.4-11.4,9.5m14.2-8.7-2.8-.8m-12.5,13.3v.2m1.1-4-1.1,3.8m2.8.8-2.8-.8m3.9-3-2.8-.8m14.5-6.8-.3.3m0,0v-2.2m0,0-11.4,9.5m0,0-1.1,3.8m0,0v.1M35.7,137.93l-.1,4.8M55.3,120l-19.6,17.3m27.7-15.1-13,11.4m0,0-2.9-.7M73.8,125l-13.1,11.5m0,0-2.8-.8m22.9-8.8-13,11.5m0,0-2.8-.8m26.2-7.8-13,11.4m0,0-2.8-.8m22.6-8.8L85,143m0,0-2.8-.7m22.5-8.9-13,11.5m0,0-2.8-.8m26.2-7.9-13,11.5m0,0-2.8-.8m22.9-8.7-13,11.4m0,0-2.8-.7m26.2-7.9-13,11.4m0,0-2.8-.7m29.3-7-13,11.4m0,0-2.8-.7m9-12.6-13,11.5m0,0-2.8-.8m33-6-13,11.4m0,0-2.8-.7m22.9-8.8-13,11.5m0,0-2.8-.8m26.2-7.9-13.1,11.5m0,0-2.8-.8m22.6-8.8-13,11.4m0,0-2.8-.7m22.6-8.9-13,11.5m0,0-2.9-.8m26.2-7.9-13,11.5m0,0-2.8-.8m22.9-8.7-13,11.4m0,0-2.8-.8m26.2-7.8-13,11.4m0,0-2.8-.7m22.6-8.9-13,11.5m0,0-2.8-.8m22.5-8.8-13,11.4m0,0-2.8-.8m26.2-7.8-13,11.4m0,0-2.8-.7m22.9-8.8-13,11.4m0,0-2.8-.7m26.2-7.9-13,11.5m0,0-2.9-.8m22.6-8.8-13,11.4m0,0-2.8-.8m22.6-8.8-13,11.4m0,0-2.8-.7m26.2-7.9-13.1,11.5m0,0-2.8-.8m22.9-8.8-13,11.5m0,0-2.8-.8M298,186l-13,11.4m0,0-2.8-.8m22.6-8.8-13,11.4m0,0-2.8-.7m22.5-8.9-13,11.5m0,0-2.8-.8m26.2-7.8-13,11.4m0,0-2.8-.8m22.9-8.7-13,11.4m0,0-2.8-.7m26.2-7.9-13,11.5m0,0-2.8-.8m22.6-8.9-13.1,11.5m0,0-2.8-.8m22.6-8.8-13,11.4m0,0-2.8-.7M35.5,137.93l307.1,83.4M35.5,137.83v.1m0-.1,307.1,83.4M35.5,137.63v.2m.2-.5,307,83.4m-307-83.4h0l-.1.1v.2h-.1m312.8,78.2-5.6,4.9m0,0v.1h-.1v.3m0,0v.1m0,0h0m0,0v.1m0,0,.2-.1m0,0-.2,4.9M53.3,119.33l-20.6-5.6m0,0v-.1h-.3v.1h-.1m0,0-18.7,16.4m0,0v.2h.2m0,0,20.6,5.6m0,0h.4m0,0,18.6-16.5m0,0h.1v-.1h-.2m.2.1h0m0,0h0M32.4,113l-19.7,17.3m19.7-16.7-18.8,16.5m19.1-16.6h-.2v.1h-.1m21.1,5.6-20.8-5.7m20.9,5.8h0v-.1h-.1m-18.7,16.7,18.8-16.6m-19.2,16.6v.1h.2v-.1h.2m-21.1-5.6,20.7,5.6m-20.8-5.8v.2h.1m-1.4,1.1-.2,4.9m23.5,5.6-.6.6m-22.3-12.2v.1l-.1.1-.1.1-.1.2v.3l-.1.1v.2m29.8-31.1H42m-.4.5.4-.5m-.4.5h-.1M32.4,113h0v.1m0-3.6V113m.1-3.7h0v.1h-.1v.1m9.1-8.7-.3.5-.4.5-.3.5-.3.5-.4.5-.3.6-.3.6-.3.6m0,0-.6.7-.7.6-.8.3-.7.1-.3-.1m0,0-2-.5m0,0-.2.3-.2.4-.1.4-.2.4-.2.4-.1.4-.2.4-.1.4m9-8.5-.3.5-.3.5-.4.5-.3.5-.4.6-.3.6-.3.5-.3.6m0,0-.3.5-.4.4-.8.5-.7.3h-.9m19,12.3-.4.4m298,81.2,7.8,2.1m-14.5-3.9,2.2.6m-9-2.4,2.3.6m-12.7-3.5,5.9,1.6m-13-3.5,2.6.7m-12.9-3.5,5.8,1.6m-12.6-3.4,2.3.6m-9-2.5,2.2.6M287.2,183l5.8,1.6m-12.9-3.5,2.6.7m-13-3.5,5.9,1.6m-12.7-3.5,2.3.6m-9-2.4,2.2.6m-12.6-3.4,5.9,1.6m-13-3.6,2.6.7M228.4,167l5.8,1.6m-12.6-3.4,2.3.6m-9.1-2.4,2.3.6m-12.6-3.5,5.8,1.6m-12.9-3.5,2.6.7m-13-3.5,5.9,1.6m-12.7-3.5,2.3.7m-9-2.5,2.2.6m-12.6-3.4,5.9,1.6m-13-3.5,2.6.7m-13-3.6,5.9,1.6m-12.6-3.4,2.2.6m-9-2.4,2.3.6M121.7,138l5.9,1.6m-13-3.5,2.6.7m-12.9-3.5,5.8,1.6m-12.6-3.4,2.3.6m-9.1-2.5,2.3.6m-12.6-3.4,5.8,1.6m-12.9-3.5,2.6.7m-13-3.5,5.9,1.5m-14.4-3.9,4,1.1m294,79.7,8,2.2m-14.7-4,2.4.6m-9.2-2.5,2.5.7M328.5,194l6.1,1.7m-13.2-3.6,2.8.7m-13.1-3.5,6.1,1.6m-12.9-3.5,2.5.7m-9.3-2.5,2.5.7m-12.8-3.5,6.1,1.6m-13.2-3.6,2.8.8M269.7,178l6.1,1.7m-12.9-3.5,2.5.6m-9.2-2.5,2.5.7m-12.9-3.5,6.1,1.7m-13.2-3.6,2.8.8m-13.1-3.6,6,1.6m-12.8-3.5,2.5.7m-9.3-2.5,2.5.7m-12.8-3.5,6.1,1.6m-13.2-3.5,2.8.7m-13.2-3.6,6.1,1.7m-12.9-3.5,2.5.7m-9.2-2.5,2.5.6M163.1,149l6.1,1.7m-13.2-3.6,2.8.8m-13.2-3.6,6.1,1.6m-12.8-3.4,2.4.6m-9.2-2.5,2.5.7m-12.9-3.5,6.1,1.7m-13.2-3.6,2.8.7M104.3,133l6.1,1.7m-12.9-3.5,2.5.7m-9.3-2.5,2.5.6m-12.8-3.4,6.1,1.6m-13.2-3.6,2.8.8m-13.2-3.6,6.1,1.7m-14.6-4,4.2,1.1m-4.2-1.1v.2m313.3,68.9v.2m-.1-.2v.2m-277-95.3.1-.2m0,0v-.2h.1V93m-.2.6v-.1m-3.5,3.2v-.3l.1-.2m.3-1.5.1-.1m-.4,1.6.2-1.3m0,0h0v-.1l.1-.1m0,0,.1-.1m5-2.2h0m227.2,65.2v.1h-.1m.8-3.4h.1v.1m-228-62-1.7.5m227.6,61.9,2-.5m-229.8-61v.3m227.5,61.8.1-.3M90.9,92.93V93l-.1.1v.1l-.1.1m227.9,61.6h-.1v-.1m-.2.3v-.2l.1-.1h.1M90.7,93.63h0m227.5,61.9v-.1m-.1.4v-.1m-1.7.3.2.1m-.2-.1.2.2m-.2-.2h0m-1.1.2h.1m-.1,0v.1m-1.8.2.1.1M87.9,94.43h0m225.4,61.3h.1v.1m6.3,1.9-.8.1h-.8l-.9.1-.9.1h-.9l-.9.1h-1.9M87.2,96.23v.7h.1m225.2,61.2h-.1l-.1-.2-.1-.2v-.4M87.9,94.43l-.3.2m225.7,61.1.1.1m-.8,0,.7-.1M87.4,95l-.2,1.2m225,61.1.2-1.2M87.6,94.63v.1h-.1v.2l-.1.1m225.2,60.8.1.1m-.3.2V156l.1-.1.1-.1m5.8-.4-.1.2v.1l-.1.1h-.1m0,0-1.5.3m0,0v.1m0,0-1.3.2m0,0v-.1m0,0-1.7.3m0,0h-.1v-.1l-.1-.1v-.1m0,0,.1-.3m0,0h0v-.1l-.1-.1m0,0-.7.1m0,0h-.1v.2h-.1m0,0-.2,1.3m0,0v.2l.1.3.1.1h.2m0,0h1.9l1-.1h.9l.8-.1h.9l.8-.1.8-.1m0,0h.1v-.1l.1-.1.1-.1.1-.1v-.1l.1-.2v-.2m0,0,.4-2.1m0,0v-.1l-.1-.1m0,0-2,.5m0,0-.1.1-.1.1v.1m0,0v.2M119.7,96.73h0m0,0-.4.1m.4-.3v.1h-.1l.1.1m0-.2-.4-.1m.4.1h0m-.2.4h0m.2-.2-.2.1m.3,0-.1.2m0-.5-.1-.1m.2.1h-.1m.1-.1v.1m0,.8h0l.2-.1m0,0,.2-.2.1-.3-.1-.2-.1-.3-.2-.2h-.5m-.1.4h0l.1-.1m0,0,.1.1.1.1.1-.1h.1m0,0h0v.1h.1m0,0-.1.1-.1.1v.1h.1v.1m0,0V97h-.1m0,0v-.1h-.3l-.1.1m0,0v-.2m0,0h0l.1-.1v-.2l-.1-.1m.7.8.1-.2.1-.2v-.3l-.2-.3-.2-.1-.2-.1h-.2l-.3.1-.1.2-.1.3.1.2.1.3.2.2.2.1.3-.1.2-.1m87.3,23.3h0m0,0-.4.2m.4-.3h0v.1m0-.1-.4-.2m.4.1h0v.1m-.2.3h0m.2-.2-.2.2m.3-.1v.2m-.1-.5-.1-.1m.2.1h-.1m.1-.1v.1m-.5-.1h.1v-.1m0,0,.1.1v.1h.2l.1-.1m0,0h0l.1.1m0,0-.1.1v.2l.1.1m0,0-.1.1m0,0-.1-.1h-.2l-.1.1m0,0-.1-.1m0,0,.1-.1v-.3l-.1-.1m.7.8.2-.2v-.5l-.1-.2-.2-.2-.3-.1H207l-.2.1-.2.2-.1.3.1.3.1.2.2.2.2.1h.3l.2-.2m-.2.1h0l.3-.1m0,0,.1-.2.1-.2-.1-.3-.1-.3-.2-.1-.2-.1H207M128.2,99h0m0,0-.4.2m.4-.3h0V99m0-.1-.4-.2m.4.1h0v.1m-.2.3h0m.2-.2-.2.2m.3-.1v.2m-.1-.5-.1-.1m.2.1h-.1m.1-.1v.1m-.5-.1h.1v-.1m0,0,.1.1v.1h.2l.1-.1m0,0h0l.1.1m0,0-.1.1v.2l.1.1m0,0-.1.1m0,0-.1-.1H128l-.1.1m0,0-.1-.1m0,0,.1-.1v-.3l-.1-.1m.7.8.2-.2v-.5l-.1-.2-.2-.2-.3-.1h-.2l-.2.1-.2.2v.6l.1.2.2.2.2.1h.3l.2-.2m-.2.1h0l.3-.1m0,0,.1-.2.1-.2-.1-.3-.1-.3-.2-.1-.2-.1h-.3m162.7,44.8h.1v.1m-.1-.1-.4.2m.4-.3h0v.1m0-.1-.3-.1m.4.1h-.1m-.1.3h-.1m.3-.1-.2.1m.3,0-.1.2m0-.5-.1-.1m.2.1h-.1m.1-.2v.2m0,.8h0l.2-.1m0,0,.2-.2v-.6l-.1-.2-.2-.2-.3-.1h-.2m-.1.5v-.1h.1m0,0v.1h.3l.1-.1m0,0v.2m0,0h0l-.1.1v.2l.1.1m0,0h0v.1h-.1m0,0-.1-.1-.1-.1-.1.1h-.1m0,0h0v-.1h-.1m0,0,.1-.1.1-.1V143h-.1v-.1m.7.8.1-.2.1-.3-.1-.2-.1-.3-.2-.2-.2-.1-.3.1-.2.1-.1.2-.1.2v.3l.2.3.2.1.2.1h.2l.3-.1M123.9,97.83h0v.1m0-.1-.4.2m.4-.3h0v.1m0-.1-.4-.1m.5.1h-.1m-.2.3h0m.2-.1-.1.1m.2,0v.2m0-.5-.2-.1m.3.1H124m0-.2.1.2m-.6-.1.1-.1h.1m0,0v.1h.2l.1-.1m0,0,.1.1v.1m0,0H124V98l.1.1m0,0H124v.1m0,0-.1-.1V98h-.2l-.1.1m0,0h0l-.1-.1m0,0,.1-.1v-.2l-.1-.1m.7.8.2-.2.1-.3-.1-.3-.1-.2-.2-.2-.2-.1h-.3l-.2.2-.1.2-.1.2V98l.1.3.2.1.3.1h.2l.2-.1m-.1.1h0l.2-.1m0,0,.2-.2v-.6l-.1-.2-.2-.2-.3-.1h-.2M286.4,142h0m0,0-.4.1m.4-.3v.2m0-.2-.4-.1m.4.1h0m-.2.4h0m.2-.2-.2.2m.3-.1v.2m-.1-.5-.1-.1m.2.1h-.1m.1-.1v.1m0,.8h0l.3-.1m0,0,.1-.2.1-.2-.1-.3-.1-.3-.2-.1-.2-.1h-.3m-.1.4h.1v-.1m0,0,.1.1v.1h.2l.1-.1m0,0h0l.1.1m0,0-.1.1v.2l.1.1m0,0-.1.1m0,0-.1-.1h-.2l-.1.1m0,0-.1-.1v-.1m0,0h.1v-.3l-.1-.1m.7.8.2-.2v-.5l-.1-.3-.2-.1-.3-.1h-.2l-.2.1-.2.2-.1.3.1.3.1.2.2.2.2.1h.3l.2-.2m-75.2-20.9h.1v.1m-.1-.1-.4.2m.5-.3h-.1v.1m.1-.1-.4-.1m.4.1h0m-.2.3h-.1m.3-.1-.2.1m.3,0-.1.2m0-.5-.1-.1m.2.1h-.1m.1-.2v.2m-.5-.1v-.1h.1m0,0,.1.1h.2l.1-.1m0,0v.1l.1.1m0,0-.1.1h-.1v.1l.1.1v.1m0,0h0v.1h-.1m0,0-.1-.1-.1-.1-.1.1h-.1m0,0h0v-.1h-.1m0,0,.1-.1h.1v-.2h-.1v-.1m.7.8.1-.2.1-.3v-.2l-.2-.3-.2-.2-.2-.1-.3.1-.2.1-.1.2-.1.2v.3l.2.3.2.1.2.1h.2l.3-.1m-.2.1h0l.2-.1m0,0,.2-.2v-.6l-.1-.2-.2-.2-.3-.1h-.2m83.6,23.4h0m0,0-.4.2m.4-.3h0v.1m0-.1-.4-.2m.4.1h0v.1m-.2.3h0m.2-.2-.2.2m.3,0v.1m-.1-.5h-.1m.3.1-.1-.1h-.1m.1-.1.1.2m-.6-.2h.1v-.1m0,0,.1.1.1.1h.1l.1-.1m0,0h.1v.1m0,0-.1.1v.2l.1.1m0,0-.1.1m0,0-.1-.1h-.2l-.1.1m0,0v-.1h-.1m0,0,.1-.1v-.3l-.1-.1m.7.9.2-.3v-.5l-.1-.2-.2-.2-.3-.1h-.2l-.2.1-.2.2v.6l.1.2.2.2.3.1h.2l.2-.1m-.1.1h0l.2-.2m0,0,.1-.2.1-.2v-.3l-.2-.3-.2-.1-.2-.1h-.2M203,119.33h0v.1m0-.1-.4.2m.4-.3h0v.1m0-.1-.4-.1m.5.1H203m-.2.3h0m.2-.1-.1.1m.2,0v.2m0-.5-.2-.1m.3.1h-.1m0-.2.1.2m0,.8h0l.2-.1m0,0,.1-.2.1-.3v-.3l-.1-.2-.2-.2-.3-.1h-.2m-.2.5.1-.1m0,0,.1.1h.2l.1-.1m0,0,.1.1m0,0-.1.1v.3l.1.1m0,0h-.1v.1m0,0-.1-.1v-.1h-.2l-.1.1m0,0h0l-.1-.1m0,0,.1-.1v-.2l-.1-.1m.7.8.2-.2.1-.3-.1-.3-.1-.2-.2-.2-.2-.1h-.3l-.2.2-.1.2-.1.2v.3l.1.2.2.2.3.1h.2l.2-.1M293.2,147v.2m-.3-.1V147m0,.1h0V147m0,0,.1.1h.2V147m0,0,.1.1h.1m0,0h0v.1h.2m0,0h0m0,0h-.4m0,0h-.1m0,0h0v-.1h-.2m1,.2v-.1l-.1-.1h-.2l-.2-.1h-.3l-.2-.1-.2.1h-.1v.1h.1l.1.1.3.1h.8m-92.5-25.2-.1.1m-.3-.1h0m0,0h0m0,0h.4m0,0h.1m0,0h0v.1h.2m0,0h0v.1m0,0-.1-.1h-.2m0,0h-.2m0,0h0l-.1-.1H201m1,.2v-.1h-.1l-.2-.1-.2-.1h-.8v.1l.1.1h.2l.2.1h.3l.2.1.2-.1h.1m87,23.6v.2m-.4-.2h0m0,0h0m0,0h.4m0,0h.1m0,0h0v.1h.3m0,0h0l-.1.1m0,0-.1-.1H289v.1m0,0-.1-.1h-.1m0,0h0l-.1-.1h-.1m1.1.2h0l-.1-.1-.2-.1-.3-.1h-.8v.1l.1.1h.2l.2.1h.3l.3.1h.2l.1-.1m-5-1.4v.2m-.3-.1v-.1m-.1.1v-.1h.1m0,0,.1.1h.2v-.1m0,0h.1v.1h.1m0,0h0l.1.1h.1m0,0h0m0,0h-.4m0,0h-.1m0,0v-.1h-.3m1.1.2v-.1l-.1-.1h-.2l-.2-.1-.3-.1h-.5l-.1.1.1.1.2.1h.3l.2.1h.6m-75.5-20.6v.2m-.4-.2h0m0,0h0m0,0h.4m0,0h.1m0,0h0v.1h.3m0,0v.1h-.1m0,0-.1-.1h-.2v.1m0,0h-.1v-.1h-.1m0,0h0l-.1-.1h-.1m1.1.2h0l-.1-.1-.2-.1-.3-.1h-.8v.1l.1.1h.2l.2.1.3.1h.5l.1-.1m-5-1.4v.2m-.3-.1v-.1m-.1.1v-.1h.1m0,0,.1.1h.2v-.1m0,0h.1v.1h.1m0,0h0l.1.1h.1m0,0h0m0,0h-.4m0,0h-.1m0,0v-.1h-.3m1.1.2v-.1l-.1-.1H206l-.2-.1-.3-.1H205l-.1.1.1.1.2.1h.3l.3.1h.5m-79.8-21.8v.2m-.3-.1v-.1m-.1.1v-.1h.1m0,0,.1.1h.2v-.1m0,0h.1v.1h.1m0,0h0l.1.1h.1m0,0h0m0,0h-.4m0,0h-.1m0,0h0v-.1h-.3m1.1.2v-.1l-.1-.1h-.2l-.2-.1-.3-.1h-.5l-.1.1.1.1.2.1.3.1h.8m-4.9-1.4-.1.1m-.3-.1h0m0,0h0m0,0h.4m0,0h.1m0,0h0v.1h.2m0,0h0v.1m0,0-.1-.1h-.2v.1m0,0-.1-.1h-.1m0,0h0v-.1h-.2m1,.2v-.1h-.1l-.1-.1-.3-.1h-.8v.1l.1.1h.2l.2.1h.3l.2.1.2-.1h.1m-4.9-1.4v.2m-.3-.1-.1-.1m0,0h0m0,0h.2l.1.1.1-.1m0,0h.1v.1m0,0h.2l.1.1m0,0h0m0,0H118m0,0h-.2m0,0,.1-.1h-.2l-.1-.1m1.1.2h0l-.1-.1-.2-.1h-.3l-.2-.1h-.5l-.1.1.1.1.2.1h.3l.2.1h.5l.1-.1m173.6,44.5-.2-.1H292v-.2l-.1-.1v-.1l.1-.2h.1l.1-.1.2.1.1.1.1.1v.3l-.1.1h-.1l-.1.1m-90.1-26.6h.2m4.5,4.5-2.8-.7m0,0H204m0,0-.2.1-.1.2-.1.2v.2l-.1.3.1.1m3.4-.3.1-.1m-.2,0v.1m-.1,0,.1-.1m-.5.8v-.3l.1-.2.2-.1.1-.1m-.4,1.1v-.1m6.1.5-2.8-.8m0,0h-.1m3.1-2.5-10.3-2.8m.4,2.6h.3l.2-.1.2-.2.1-.2V119l-.2-.2-.2-.2-.3-.1-.2.1-.2.1-.2.2-.1.3.1.3.1.2.2.2.2.2m4.3,1.1h.5l.2-.2.1-.3v-.3l-.1-.2-.1-.3-.2-.1-.3-.1H207l-.3.2-.1.2-.1.3v.2l.2.3.1.2.3.1m4.2,1.2h.3l.2-.1.2-.2.1-.2.1-.3-.1-.3-.2-.2-.2-.2h-.5l-.2.1-.2.2v.6l.1.3.2.2.2.1m1.3-2-10.3-2.8m0,0h-.4v.1l-.1.1v.1l-.1.1m0,0-.4,2.4m0,0,2.8.8m0,0v.1m2.8.8.1-.1m0,0,2.8.7m0,0v.1m2.9-2.5.1.1h.1l.1.1v.1l.1.1v.3m-.1.1v-.4l-.1-.1v-.1h-.1l-.1-.1h-.1m-3,2.4-.1.1-.1.2-.1.2-.1.3v.4m3.4.2.5-3.2m-.1.1-.5,3.1m0,0-.1.2v.1l-.1.1h-.1l-.1-.1v-.2l.1-.1V124l.1-.1h.1m0,0,.1-.1m0,0v-.2m0,0h-.1m0,0-.1.1-.1.2-.1.2-.1.2v.4l.1.1.1.1.1-.1.1-.2.1-.2.1-.2m50.7-19.5h0l.1-.2.1-.1h.1m-2.8-.8h-.1l-.1.1-.1.2-.1.1m6,1.2h-.1l-.1.1-.1.1v.1m2.9.8.1-.1h.1l.1.1m.1-.1h0l-.1-.2v-.1h-.1l-.1.1-.2.2v.1M56.5,48.13h-.1l-.1.1-.1.2h-.1m2.8.8.1-.1.1-.1.1-.1h.1m2.8.7H62l-.1.1-.1.2V50m2.9.8v-.1h.2v.1m.2-.1h0l-.1-.2v-.1h-.2l-.1.1-.1.2m136.1,70.8v-.2m0,.2,2.8.8m-2.8-1,.1-.3.1-.2.1-.2.1-.1h.1m2.4,1.5v-.2l.1-.2.1-.2.2-.1m-.5,1,.1-.3m-.1.3h0m-3.8.1h-.1l-.1-.1h-.1m7,.5-.1.3m0,0,2.9.7m-2.4-1.7h0l-.1.1-.2.1-.1.2v.3m2.8.8.1-.3.1-.2.1-.2.1-.1m-.4,1v-.2m0,.2h0m2.7,1.2-1.1.3m1.1-.3v-.3m-12.2-2.3,10.3,2.8m.8.1h-.6l-.1-.1H210m-.8-.9-.1.1.1.1.2.1.3.1h.9v-.1m-5.7-1.4h0v.1l.1.1h.1l.3.1.3.1h.6l.1-.1-.1-.1m-5.6-1.4-.1.1.1.1.2.1h.2l.3.1h.7v-.1m-2.6-.3,1.4-.4m-1.4.4h0v.1h.2l.1.1m0,0,10.3,2.8m0,0h.7m0,0,1.1-.3m0,0-2.8-.8m0,0h.1m-2.7-.8-.2.1m0,0-2.8-.8m0,0h.1m-86.3-23.5.1-.3m-.1.3,2.9.8m-2.8-1.1v-.2l.1-.3.2-.1.1-.1m2.4,1.5.1-.3.1-.2.1-.2h.1m-.4,1v-.3m0,.2v.1m-3.8.1-.1-.1h-.1l-.1-.1m6.9.5v.3m0,0,2.8.8m-2.3-1.8h-.1l-.1.1-.1.2-.1.2-.1.2m2.8.8.1-.2.1-.3.1-.1.1-.1m-.4,1v-.3m0,.3h0m2.7,1.1-1.1.3m1.1-.3.1-.2m-12.2-2.3,10.3,2.8m-.9-.9h0v.1l.1.1h.2l.2.1.3.1h.6l.1-.1-.1-.1m-5.6-1.4-.1.1.1.1.2.1.2.1h1v-.1m-5.7-1.4h-.1v.1h.1l.2.1.3.1h.3l.2.1h.3l.1-.1h.1l-.1-.1m-2.5-.3,1.3-.4m-1.3.4h-.1v.1h.1l.1.1h.1m0,0,10.3,2.8m.8.1,1.1-.3m0,0-2.8-.8m0,0h0m-2.7-.8h-.2m0,0-2.8-.7m0,0,.1-.1m7.2,2.9h-.7m0-.3h.1l.1.1h.6M260.4,104l.1-.1.1-.2.1-.1h.1m-3.2-.4.1-.1.1-.2h.2m5.6,1.5h-.1l-.1.1-.1.1v.1m2.8.8v-.1l.1-.2h.2m95.6,26.3h0l.1-.2.2-.1m-3.1-.4v-.1l.1-.2h.2m5.6,1.5h0l-.1.1-.2.1v.1m2.8.8.1-.1.1-.2h.2m-5.7-1.6h-.1l-.1.1-.1.2m2.8.8h0l.1-.2.2-.1m5.5,1.9v-.1h.2v.1m-2.8-1.1h-.1l-.1.1-.1.1-.1.1m3.3.7h0v-.2l-.1-.1h-.1l-.1.1-.1.2h-.1M53.3,47.73v-.1l.2-.2.1-.1m2.5,1.1.1-.1.1-.1.1-.1h.1m2.8.8h-.2l-.1.2-.1.1m2.9.8v-.1l.1-.2.1-.1h.1m92.7,25.7.1-.1.1-.2.1-.1h.1m2.5,1.1v-.1l.1-.1.1-.1h.1m2.8.8h-.2l-.1.2v.1m2.8.8v-.1l.2-.2.1-.1m-3.1-.4v-.1l.1-.1.1-.1h.1m-2.8-.8h-.1l-.1.1-.1.2m5.9,1.2h0l-.2.1-.1.2v.1m2.9.7h.1v-.1h.1l.1.1v.1m.1-.1h0v-.2l-.1-.1h-.1l-.1.1-.1.2h-.1m-47.3,16.6h.3m4.4,4.5-2.8-.8m0,0-.1.1m0,0h-.1l-.1.2-.1.2-.1.3v.4m3.5-.3v-.2m-.2.1h0m-.1,0h.1m-.5.7.1-.2.1-.2.1-.2.1-.1m-.4,1.1v-.1m6.2.5-2.8-.7m0,0h-.2m3.2-2.5-10.3-2.8m.4,2.5h.2l.3-.1.1-.1.2-.3v-.3l-.1-.2-.1-.3-.3-.1-.2-.1h-.3l-.2.2-.1.2-.1.2v.3l.1.3.2.2.3.1m4.2,1.2h.3l.2-.1.2-.2.1-.2v-.6l-.2-.2-.2-.2-.3-.1-.2.1-.2.1-.2.2V98l.1.2.2.2.2.2m4.3,1.1h.5l.2-.2.1-.3V99l-.1-.3-.1-.3-.2-.1-.3-.1h-.2l-.3.2-.1.2-.1.3v.2l.2.3.1.2.3.1m1.2-2L119,94.93m0,0h-.3l-.1.1h-.1l-.1.1v.2m0,0-.4,2.5m0,0,2.8.8m0,0h0m2.8.8v-.1m0,0,2.8.8m0,0v.1m3-2.5h.1v.1h.1l.1.1V98l.1.1v.3m-.1,0v-.2l-.1-.1V98l-.1-.1-.1-.1h-.1l-.1-.1m-3,2.5-.1.1-.1.1-.1.3-.1.2v.4m3.4.2.6-3.1m-.1,0-.6,3.1m0,0v.2l-.1.1-.1.1v.1l-.1-.1v-.4l.1-.1v-.1l.1-.1m0,0h.1m0,0,.1-.3m0,0-.1.1m0,0h-.2l-.1.2-.1.2v.3l-.1.2.1.2v.1h.1l.2-.1.1-.1.1-.3v-.2M284,144.23l.1-.3m-.1.3,2.9.8m-2.8-1.1.1-.2.1-.3.1-.1.1-.1h.1m2.3,1.5.1-.3.1-.2.1-.2h.1m-.4,1v-.3m0,.2v.1m-3.8.1-.1-.1h-.2v-.1m6.9.5v.3m0,0,2.8.8m-2.3-1.8h-.1l-.1.1-.1.2-.1.2-.1.2m2.9.8V146l.1-.3.1-.1.2-.1m-.5,1,.1-.3m-.1.3h0m2.7,1.1-1.1.3m1.1-.3.1-.2m-12.2-2.3,10.3,2.8m-.9-.9h0v.1l.1.1h.2l.2.1.3.1h.6l.1-.1-.1-.1m-5.6-1.4-.1.1.1.1.2.1.3.1h.9v-.1m-5.7-1.4h-.1v.1l.2.1h.1l.3.1.3.1h.5l.1-.1h.1l-.1-.1m-2.5-.3,1.3-.4m-1.3.4h0l-.1.1h.1l.1.1h.1m0,0,10.3,2.8m.8.1,1.1-.3m0,0-2.8-.8m0,0h.1m-2.7-.8h-.3m0,0-2.8-.7m0,0,.1-.1m7.2,2.9h-.7m0-.3h.1l.1.1h.6m-8.7-7.5h.3m4.5,4.5-2.9-.8m0,0-.1.1m0,0h-.1l-.1.2-.1.2-.1.3v.4m3.5-.3v-.1m-.1,0h-.1m-.1,0h.2m-.6.7.1-.2.1-.2.1-.2.1-.1m-.4,1.1v-.1m6.2.5-2.8-.7m0,0H293m3.1-2.5-10.3-2.8m.4,2.5h.2l.3-.1.2-.1.1-.3v-.3l-.1-.2-.1-.3-.2-.1-.3-.1h-.2l-.3.2-.1.2-.1.3v.2l.1.3.2.2.3.1m4.2,1.2h.3l.2-.1.2-.2.1-.2.1-.3-.1-.3-.2-.2-.2-.2h-.5l-.2.1-.2.2v.6l.1.3.2.2.2.1m4.3,1.1.3.1.2-.1.2-.2.1-.3V144l-.2-.3-.2-.1-.3-.1h-.2l-.2.2-.2.2-.1.3.1.3.1.2.2.2.2.1m1.3-2-10.3-2.8m0,0h-.3l-.1.1-.1.1-.1.1v.1m0,0-.4,2.5m0,0,2.8.8m0,0h0m2.8.9v-.2m0,0,2.8.8m0,0v.1m3-2.5h.1l.1.1v.1h.1v.1l.1.2v.2m-.1,0v-.2l-.1-.1v-.1l-.1-.1-.1-.1-.1-.1m-3,2.5-.2.1-.1.1-.1.3v.2l-.1.2.1.2m3.3.2.6-3.1m-.1,0-.6,3.1m0,0v.2l-.1.1v.1l-.1.1-.1-.1v-.4l.1-.1.1-.1v-.1m0,0h.1m0,0,.1-.3m0,0-.1.1m0,0h-.1l-.2.2-.1.2v.7l.1.1h.1l.1-.1.1-.1.1-.2v-.3M166.5,78.43v-.1h-.1v-.1m0,0-.1.1h-.1M129,101.23h-.1v.1l-.1.2v.5h.1l.1-.1v-.1l.1-.1v-.5H129m83.4,22.7h-.1l-.1.1v.1l-.1.2v.2l.1.1h.1l.1-.1v-.2l.1-.1v-.3h-.1m56.9-17.6h-.1v-.1h-.1m0,0h0l-.1.1M64.9,50.83v-.1l-.1-.1m0,0-.1.1v.1m306.1,83.1h0l-.1-.1m0,0h-.1v.1m-75.1,12.9v.5h.1l.1-.1v-.1l.1-.1v-.5h-.1v.1l-.1.1-.1.1M39.6,57.33h0v-.1m3.7-12.3,337,91.6M41.7,45.43l1.6-.5m-3.7,12.3,1.7-11.1M378.7,137l1.6-.4m0-.1v.1m-1.6.4,1.6-.5m-3.7,12.3,1.7-11.1m-1.6,11.2h-.1v-.1m1.8-.5-1.7.6m1.8-.7-.1.1m.1-.1-1.8.7m0,0h-.1v-.1m0,0,1.7-11.1m0,0,.1-.2v-.2l.1-.1.1-.1V137h.1m-.4.7v-.2l.1-.1v-.1l.1-.1v-.1h.1V137h.1M41.3,46.13l.1-.1v-.3l.1-.1v-.1h.1v-.1h.1m-2.1,11.8v-.1m0,0L41.3,46m0,0v-.2h.1v-.2h.1v-.1m337,102.7h.1m-.1,0-1.8.7m0,0h-.1v-.1m3.7-12.1v-.1m-1.6.4,1.6-.4m-3.7,12.2,1.7-11.1m.2,0-1.7,11.1m0,0h0m0,0,1.8-.6m0,0v-.1m0,0,1.7-11.4m0,0h0m0,0-1.5.5m-.5.5.1-.2v-.2l.1-.1.1-.1V137h.1m.1.2h-.1l-.1.1v.1l-.1.1v.2M197,133.83h-.1m1.2.3H198V134m.2.2-.1-.1m.1.2v-.1m-.2-.2-.1-.1-.1-.2.1-.1v-.1m0,0,.3-.4m.3-.4h0m-.1-.1h0l.1.1m.9,1.8h0m.2,0h-.2m-.9-1.8.9.2m-.3-1.4-.7,1.1m.7-1.2h0v.1m1.8,3.3-.1-.1-.1-.2m.3.6V135m0-.1h-.1v-.1m-.1,0h.1m-1-4.3-.7-.1m1.5,4.1-.8-3.9M201,135h0v-.1m0,0h-.1l-.1-.1m0,0v-.1l-.1-.2m0,0-.8-3.9m0,0h0m0,0-.7-.2m0,0h-.1m0,0-1.7,3m0,0-.2.2-.1.2m0,0h-.2m0,0h-.1v.1m0,0h0m0,0v.1m0,0,1.3.4m0,0h0l.1-.1m0,0v-.1m0,0h0m0,0h-.1m0,0-.1-.1-.1-.1m0,0v-.1l-.1-.2v-.1l.1-.1m0,0,.2-.4m0,0,.1-.1m0,0,1.3.4m0,0h.1v.1m0,0,.1.8m0,0h0v.2m0,0h-.3m0,0h0m0,0h-.1m0,0v.1m0,0h0v.1m0,0,1.7.4m0,0h0m0,0V135m-1.6-2.1h0m-.9-.2.9.2m-1-.2h.1m-.1-.1h0v.1m.7-1.2-.7,1.1m.7-1.2h0v.1m.1,0h0l-.1-.1m.3,1.4-.2-1.3m.2,1.4h0v-.1m11.1,4.7h-.1m1.2.3h-.1l-.1-.1m.2.1h0m.1.2v-.1m-.3-.2v-.1l-.1-.2v-.1l.1-.1m0,0,.2-.5m.3-.4h.1m-.1-.1v.1m1,1.9h0m.2,0h-.2m-.9-1.9.9.3m-.3-1.5-.7,1.1m.7-1.1h0m1.7,3.4v-.2l-.1-.1m.3.5h0m0-.1-.1-.1h-.1m0,0h0m-.9-4.3-.7-.2m1.5,4.2-.8-3.9m1.1,4.4h0v-.1m0,0h-.1l-.1-.1m0,0-.1-.2v-.1m0,0-.8-3.9m0,0h0v-.1m0,0-.7-.2m0,0h-.1v.1m0,0-1.7,3m0,0-.2.2-.1.1m0,0-.2.1h-.1m0,0h0m0,0v.1m0,0h0v.1m0,0,1.3.3m0,0h.1m0,0v-.1m0,0h0v-.1h-.1m0,0h0m0,0h-.1l-.1-.1m0,0-.1-.1v-.3l.1-.1m0,0,.2-.5m0,0h.1m0,0,1.3.3m0,0v.1h.1m0,0,.1.8m0,0v.2h-.1m0,0-.1.1h-.1m0,0h-.1m0,0h0m0,0v.1m0,0h0m0,0,1.6.5m0,0h.1v-.1m0,0h0m-1.6-2.1h0v-.1m-1-.2,1,.3m-1-.3h0m0-.1v.1m.6-1.2-.6,1.1m.7-1.1h-.1m.2,0h-.1m.3,1.4-.2-1.4m.2,1.4h0m4.4,2.9h0m.1,0h-.1m1.3.2v-.2m.2.4h0m0,.1v-.1m0,0-.1-.1-.1-.1m0,0h0m0-.2.5-3.1m0,0v-.1l.1-.1m.2-.2-1.5-.4m1.6.5v-.1m-.1.2h0V136h.1m0,0v-.1m0,0h-.1m0,0-1.5-.4m0,0h0m0,0-.1.1m0,0h.1v.1m0,0h0m0,0h.1l.1.1m0,0v.2m0,0-.5,3.1m0,0-.1.1v.1m0,0-.1.1h-.1m0,0h0m0,0h-.1m0,0v.1m0,0h0v.1m0,0,1.5.4m0,0h.1v-.1m0,0v-.1m0,0h0m0,0h-.1m0,0v-.1h-.1v-.1m0,0v-.2m0,0,.5-3.1m0,0v-.1l.1-.1m0,0,.1-.1.1.1m0,0h0m-14.1-1.5h0m-.2-2.6-1.5-.4m1.5.5V132m0,4.2.8-1.7m0,0h0m-.7.1-.3-2.2m2.2.1-1.4-.4m1.4.6v-.1m-.1,2.5-.1-2.2m-.1,3.8,1.8-3.2m.1-.1.1-.1h.1m.2-.3-1.1-.3m1.1.5v-.1m-4.2-.8v-.1h.1m0,0h0m0,0h0m0,0h0l.1-.1m0,0V132m0,0h0m0,0-1.5-.4m0,0h0m0,0-.1.1m0,0h.1v.1m0,0h0m0,0h.1m0,0,.1.1v.1m0,0v.2m0,0,.6,3.8m0,0h.1v.1m0,0,.5.1m0,0h.1m0,0,.8-1.7m0,0h0m0,0h.1m0,0,.2,2m0,0h0v.1m0,0,.5.1m0,0h.1m0,0,1.8-3.2m0,0,.1-.1m0,0,.1-.1.2-.1m0,0h0m0,0h0m0,0h.1m0,0v-.1m0,0h0m0,0-1.2-.4m0,0h0v.1m0,0v.1m0,0h0m0,0,.1.1m0,0,.1.1v.2m0,0h0m0,0v.1l-.1.1m0,0-.9,1.6m0,0h0v.1m0,0h0l-.1-.1m0,0-.2-2.2m0,0h0v-.1m0,0h.1v-.1h.1m0,0h.1m0,0h0m0,0v-.1m0,0h0v-.1m0,0-1.4-.4m0,0h0v.1m0,0-.1.1m0,0h.1m0,0h0m0,0,.1.1m0,0v.1m0,0,.1.1v.1m0,0v.5m0,0v.1m0,0-.6,1.3m0,0h0m0,0h-.1m0,0-.3-2.2m0,0-.1-.1h.1m-14.3-.2h0m.1,0h-.1m1.4.4h-.1m0,0v-.1h-.1v-.1m0,0h0m.2.3h0m-.2-.4.2-1.4m0,0h.1m-.1,0h.1m.7,1.9h-.1m.1,0h0m-.6-2.5h0m-.1-.1.2-1.1m.6,1.4h0m0,0h0m-.5-1.6h.1m.1-.2-1.4-.4m1.5.5h0m1.8,4.5-.1-.1m.1.2v-.1m-.2-.2-1.4-2.6m0,0h0m1.3,2.6h.1m-1.3-2.7,1.3-.8m0,0,.3-.1h.1m.2-.2-1.4-.4m1.5.5h0m-1.6-.4h0v.1m0,0h.1m0,0,.1.1m0,0,.1.1v.1l-.1.1m0,0-1.4.8m0,0h0m0,0h0l-.1-.1m0,0,.2-1.1m0,0v-.1l.1-.1m0,0h.1m0,0h.1m0,0h0l.1-.1m0,0h0m0,0v-.1h-.1m0,0-1.4-.4m0,0h0v.1m0,0h0m0,0h0v.1m0,0h0m0,0h.1v.1h.1v.1m0,0v.1m0,0-.6,3.2m0,0v.1m0,0v.1h-.2m0,0h0m0,0h-.1v.1m0,0h0m0,0h0v.1m0,0,1.4.4m0,0h.1v-.1m0,0h0m0,0v-.1m0,0h-.1m0,0v-.1h-.1v-.1m0,0v-.1m0,0,.2-1.4m0,0h0m0,0h.1m0,0,.8,1.6m0,0v.2m0,0v.1h-.1m0,0h-.1m0,0h0m0,0-.1.1m0,0h0l.1.1m0,0,1.7.5m0,0h0l.1-.1m0,0v-.1m0,0h0m0,0-.1-.1m0,0h-.1m0,0V133h-.1m0,0-1.3-2.6m0,0h0m0,0h0v-.1m0,0,1.4-.8m0,0,.2-.1h.2m0,0h.2m0,0h0m0,0h.1m0,0v-.1m0,0h0v-.1h-.1m0,0-1.5-.4m0,0h0v.1m0,0h0M44.9,40.23h-.2m-.1.2-.8,4.7m336.9,92.4-.5-.1M44.7,40.23h0v.1h-.1v.1m337,91.6-.9,5.5m0,0h0m.9-5.5-.9,5.5m1-5.7h0v.1h-.1v.1m1,.5-.1-.1-.2-.3-.3-.2-.3-.1m1.1,1.4V133l-.2-.5-.1-.3-.2-.2-.3-.2h-.3m0,0h0v.1h-.1v.1M43.2,99h0l-.1-.1v-.2m4.3,1.2.1.2v.1h.1m4.4,1.2h-.1v-.1l-.1-.2m4.4,1.2v.2l.1.1h.1m4.3,1.2h0l-.1-.2v-.1m4.4,1.2v.1l.1.2m4.4,1.2v-.1l-.1-.1v-.1m4.4,1.2v.1l.1.1v.1m4.4,1.2v-.1l-.1-.1v-.1m4.3,1.2.1.1v.1h.1m4.4,1.2H87v-.1l-.1-.1m4.4,1.1v.2l.1.1h.1m4.3,1.2h0l-.1-.1V113m4.4,1.2v.2l.1.1m4.4,1.2h0l-.1-.1v-.2m4.4,1.2v.2l.1.1m4.4,1.2h0l-.1-.1v-.2m4.3,1.2.1.1v.2h.1m4.4,1.2h-.1v-.2l-.1-.1m4.4,1.2v.1l.1.1.1.1m4.3,1.2v-.1l-.1-.1v-.1m4.4,1.2v.1l.1.1v.1m4.4,1.1h0l-.1-.1V125m4.4,1.2v.1l.1.1m4.4,1.2h0l-.1-.1v-.2m-111-30.1v-.1m114.1,31.1-114.1-31m114.1,30.9v.1m1.4.6h-.1v-.1l-.1-.2M37.4,97.13h0m0,0,114.1,31m0,0h0M38.7,97.53v.1l.1.2m4.3.9V99h.1m8.6,2.1v.1l.1.2H52m-4.4-1.2h-.1V100l-.1-.1m13.2,3.6v.1l.1.1v.1m-4.3-1.2-.1-.1-.1-.1v-.1m8.9,2.7v-.1l-.1-.1v-.1m4.4,1.2v.1l.1.1v.1m8.7,2.1v.2l.1.1m-4.4-1.2-.1-.1v-.2m13.1,3.6v.1l.1.1h.1m-4.4-1.2h-.1v-.1l-.1-.1M95.7,113v.1l.1.2m-4.3-1.2h-.1l-.1-.2v-.1m13.2,3.6v.1l.1.2m-4.4-1.2h0l-.1-.2v-.1m8.9,2.7h-.1v-.3m4.4,1.2v.3h.1m4.4,1.2-.1-.1v-.1l-.1-.1m4.4,1.2v.1l.1.1.1.1m8.6,2.1v.1l.1.1v.1m-4.3-1.2-.1-.1-.1-.1v-.1m13.2,3.6v.1l.1.1m-4.4-1.1V124l-.1-.1v-.1m8.9,2.6H144v-.2m4.4,1.1v.3h.1M39.5,98l.3,1.3m0,0,114,31m-.3-1.3.3,1.3m-109.7-30h.3l.2-.1.1-.1v-.2m0,0-.1-.2-.2-.2-.2-.1-.3-.1-.2-.1h-.2l-.2.1v.4l.1.1m9.5,2.9h.3l.1-.1.1-.1v-.2m0,0-.1-.2-.1-.2-.3-.1-.2-.2h-.5l-.1.1-.1.2.1.1.1.2m9.5,2.9h.2l.2-.1.1-.1v-.2m0,0-.1-.2-.2-.2-.2-.2-.2-.1H61l-.1.1-.1.1.1.2.1.2m18.2,5.2h.5l.1-.1v-.2m0,0-.1-.2-.2-.2-.2-.2-.3-.1-.2-.1-.2.1-.2.1v.3l.1.2m18.3,5.2H97l.2-.1.1-.1v-.2m0,0-.1-.1-.2-.2-.2-.2-.2-.1-.3-.1h-.2l-.1.1-.1.2.1.2.1.1m18.2,5.3h.3l.2-.1.1-.1V119m0,0-.1-.2-.2-.2-.2-.1-.3-.2h-.4l-.2.1v.3l.1.2m18.3,5.2h.4l.1-.1v-.2m0,0-.1-.2-.2-.2-.2-.2-.2-.1h-.5l-.1.1-.1.1.1.2.1.2m18.2,5.2h.5l.1-.2v-.1m0,0-.1-.2-.2-.2-.2-.2-.3-.1-.2-.1h-.2l-.2.1v.4l.1.2m8.6,1.5h-.1v-.1l-.1-.2m4.4,1.2v.2l.1.1h.1m4.3,1.2h0l-.1-.1v-.2m4.4,1.2v.2l.1.1m4.4,1.2h0l-.1-.2v-.1m4.4,1.2v.1l.1.2m4.4,1.2v-.1l-.1-.1v-.1m4.3,1.2.1.1v.1l.1.1m4.4,1.2-.1-.1v-.1l-.1-.1m4.4,1.2v.1l.1.1h.1m4.3,1.2h0l-.1-.1v-.1m4.4,1.2v.1l.1.1m4.4,1.2h0l-.1-.1V144m4.4,1.2v.2l.1.1m4.4,1.2h0l-.1-.1-.1-.2m4.4,1.2.1.2v.1h.1m4.4,1.2h-.1V149l-.1-.2m4.4,1.2v.1l.1.2h.1m4.3,1.2h0l-.1-.2v-.1m4.4,1.2v.1l.1.1v.1m4.4,1.2v-.1l-.1-.1v-.1m4.4,1.2v.1l.1.1v.1m4.4,1.1h0l-.1-.1-.1-.1m4.4,1.2.1.1v.1h.1m4.4,1.2h-.1l-.1-.1v-.1m4.4,1.1v.2l.1.1h.1m4.3,1.2h0l-.1-.1v-.2m4.4,1.2v.2l.1.1m4.4,1.2h0l-.1-.1v-.2m4.4,1.2v.2l.1.1m4.4,1.2h-.1v-.2l-.1-.1m4.4,1.2.1.1v.2h.1m4.4,1.2h-.1l-.1-.2v-.1m4.4,1.2v.1l.1.1v.1m4.4,1.2v-.1l-.1-.1v-.1m4.4,1.2v.1l.1.1m4.4,1.2h0l-.1-.1v-.1m4.4,1.2v.1l.1.1m4.4,1.2h-.1v-.1l-.1-.2m4.4,1.2.1.2v.1h.1m4.4,1.2h-.1l-.1-.1v-.2m4.4,1.2v.2l.1.1m4.4,1.2h0l-.1-.1v-.2m4.4,1.2v.1l.1.2m4.4,1.2h0l-.1-.2v-.1m4.4,1.2v.1l.1.2m4.4,1.2-.1-.1v-.1l-.1-.1m4.4,1.2.1.1v.1l.1.1m4.4,1.1h-.1l-.1-.1V187m-216.2-58.8v-.1m219.4,59.7-219.4-59.6m0-.1h0m0,0,219.3,59.7m0,0,.1-.1m-.1.1h.1m.2-.1-.2.1m1.3.2.1.1v.1h.1l.1-.1.1-.2m.1,0h0l-.1.3-.2.2h-.2l-.1-.1V188m-219.4-59.5.1.1v.2h.1m4.2.9v.1l.1.2h.1m4.4,1.2h-.1l-.1-.2v-.1m4.4,1.2v.1l.1.2m8.7,2.1v.1l.1.1v.1m-4.4-1.2h0l-.1-.2v-.1m8.9,2.7-.1-.1v-.2m4.4,1.2v.2l.1.1m4.4,1.2-.1-.1v-.1l-.1-.1m4.4,1.2v.1l.1.1.1.1m4.4,1.1h-.1l-.1-.1v-.1m4.4,1.2v.1l.1.1m8.7,2.1v.1l.1.2m-4.4-1.2h0l-.1-.2m13.1,3.5.1.1v.2h.1m-4.4-1.2h-.1v-.3m13.1,3.6v.1l.1.2h.1m-4.4-1.2H223v-.2l-.1-.1m9,2.7-.1-.1-.1-.1V150m4.4,1.2v.1l.1.1v.1m8.7,2.1v.1l.1.1v.1m-4.4-1.2v-.1l-.1-.1v-.1m13.1,3.6.1.1v.1h.1m-4.4-1.1-.1-.1v-.2m8.9,2.6h-.1v-.1l-.1-.1m4.4,1.2h0l.1.2h.1m8.6,2.1v.1l.1.2m-4.3-1.2h-.1l-.1-.2v-.1m13.2,3.6v.1l.1.2m-4.4-1.2h0l-.1-.2v-.1m8.9,2.7h-.1v-.3m4.3,1.2.1.1v.1l.1.1m8.6,2.1v.1l.1.1.1.1m-4.4-1.2-.1-.1-.1-.1v-.1m13.2,3.6v.1l.1.1v.1m-4.4-1.2v-.1l-.1-.1v-.1m13.2,3.6v.2h.1m-4.4-1.2h0l-.1-.1v-.1m13.1,3.5.1.1v.2h.1m-4.4-1.2h-.1v-.2m13.1,3.5v.1l.1.2h.1m-4.4-1.2h-.1l-.1-.2v-.1m13.2,3.6v.1l.1.2m-4.4-1.2h0l-.1-.2v-.1m8.9,2.7v-.1l-.1-.1V181m4.4,1.2v.2l.1.1m8.6,2.1.1.1v.1l.1.1m-4.4-1.2-.1-.1v-.2m8.9,2.7-.1-.1-.1-.1v-.1m4.4,1.2v.1l.1.1h.1m5.3,2.1-.3-1.5m-.1.1-.1.1m-214.5-56.7h.3l.1-.1.1-.1v-.2m0,0-.1-.2-.1-.2-.3-.1-.2-.1-.3-.1h-.2l-.1.1-.1.2.1.2.1.1m18.3,5.3h.2l.2-.1.1-.1v-.2m0,0-.1-.2-.2-.2-.2-.2-.3-.1h-.4l-.2.1v.3l.1.2m18.3,5.2h.4l.1-.1v-.2m0,0-.1-.2-.1-.2-.3-.2-.2-.1-.3-.1-.2.1-.1.1-.1.1.1.2.1.2m18.3,5.2h.2l.2-.1.1-.1v-.1m0,0-.1-.2-.2-.2-.2-.2-.3-.1-.2-.1h-.2l-.2.1v.4l.1.1m18.3,5.3h.2l.2-.1.1-.1V150m0,0-.1-.2-.1-.2-.3-.1-.2-.2h-.5l-.1.1-.1.2.1.1.1.2m35.8,10h.4l.1-.2v-.1m0,0-.1-.2-.1-.2-.3-.2-.2-.1-.3-.1h-.2l-.1.1-.1.2.1.2.1.2m35.8,9.9h0l.2.1.2-.1.1-.1v-.2m0,0-.1-.2-.1-.2-.3-.2-.2-.1h-.5l-.1.1-.1.1.1.2.1.2m18.3,5.2h.4l.1-.2v-.1m0,0-.1-.2-.2-.2-.2-.2-.3-.1-.2-.1-.2.1h-.2v.4l.1.2m18.3,5.2h.2l.2-.1.1-.1v-.2m0,0-.1-.2-.1-.2-.3-.1-.2-.1-.3-.1H333l-.1.1-.1.2.1.2.1.1m18.2,5.2.1.1h.2l.2-.1.1-.1v-.2m0,0-.1-.2-.2-.2-.2-.2-.3-.1h-.4l-.2.1v.3l.1.2m18.3,5.2h.4l.1-.2v-.1m0,0-.1-.2-.1-.2-.3-.2-.2-.1-.3-.1-.2.1-.1.1-.1.1.1.2.1.2M153.5,129l.3,1.3m0,0,218.9,59.5m0-1.8.4,1.4m-.4-1.5v.1m-91.6-23.3h.2l.2-.1.1-.1v-.2m0,0-.1-.2-.2-.2-.2-.1-.3-.2h-.4l-.2.1v.4l.1.1m-34.3-9.1h.4l.1-.1v-.2m0,0-.1-.2-.2-.2-.2-.2-.3-.1h-.4l-.2.1v.3l.1.2m105.9,28.4-.2.3m.3-.2-.2.3m-.2-.4h-.1m.7.3v.1m-.7-.4h0V183m0,0,.2.1h.2V183m0,0v.1h.1m0,0v.2h.1l.1.1m0,0h0v.1m0,0-.2-.1h-.1l-.1.1m0,0h0l-.1-.1m0,0v-.2h-.1l-.1-.1m1,.5v-.1l-.1-.2-.1-.2-.3-.2-.2-.1h-.4l-.2.1v.2l.1.1.1.2.3.2.2.1.3.1.1-.1.2-.1m0-.1h0m-.9-.8h-.2l-.1.1m1.2.7v-.2m-88.4-24-.2.3m.3-.3-.1.3m-.2-.4-.1.1m.6.2v.1m-.6-.3v-.1m0,0h.1l.1.1h.1v-.1m0,0h.1l.1.1m0,0h-.1v.1h.1v.1l.2.1m0,0h-.1m0,0h-.3m0,0h-.2m0,0,.1-.1v-.1h-.1v-.1H263m.9.5v-.4l-.2-.2-.2-.1-.3-.1-.2-.1h-.2l-.1.1v.4l.2.2.2.2.3.1h.4l.1-.1m.1-.1h0m-1-.9-.1.1h-.1m1.2.8v-.3m34.4,9.4-.2.3m.3-.2-.1.3m-.2-.5-.1.1m.6.3v.1m.4,0h0m-1-.8H298l-.1.1m1.2.7V169m-1-.2h0v-.1m0,0,.1.1h.2v-.1m0,0,.1.1h.1m0,0-.1.1.1.1.2.1m0,0h-.1v.1m0,0-.1-.1h-.2v.1m0,0-.1-.1h-.1m0,0,.1-.1-.1-.1-.1-.1m.9.5V169l-.2-.2-.2-.2-.3-.1h-.4l-.1.1v.3l.2.2.2.2.3.1.2.1.2-.1.1-.1m-70.8-19.5-.2.2m.3-.2-.1.3m-.2-.4h-.1m.6.3v.1m.4.1v-.1m-1-.8h-.1l-.1.1m1.2.7v-.2m-1-.2h0v-.1m0,0,.1.1h.2v-.1m0,0,.1.1h.1m0,0-.1.1.1.1v.1h.2m0,0-.1.1m0,0-.1-.1h-.2v.1m0,0h-.1V150H228m0,0h.1v-.1l-.1-.1-.1-.1m.9.5v-.3l-.2-.2-.2-.2-.2-.1h-.5l-.1.1v.4l.2.1.2.2.3.1.2.1.2-.1.1-.1M210.7,145l-.2.2m.3-.2-.2.3m-.2-.4h-.1m.7.3v.1m-.7-.4h.1m0,0h.1v.1h.1l.1-.1m0,0h.1v.1m0,0h0v.1l.1.1.1.1m0,0h0m0,0h-.2l-.1-.1v.1h-.1m0,0h-.1v-.1m0,0h0v-.1l-.1-.1-.1-.1m1,.6v-.2l-.1-.2-.1-.2-.3-.1-.2-.2h-.4l-.1.1-.1.2.1.2.2.2.2.1.2.2h.5l.1-.1m0-.1h0m-.9-.9h-.2l-.1.1m1.2.8.1-.2-.1-.1m-18.2-4.9-.2.3m.3-.2-.1.3m-.2-.5-.1.1m.6.3v.1m.4,0h0m-1-.9-.1.1-.1.1m1.2.7v-.3m-1-.1v-.1m0,0,.1.1h.2v-.1m0,0h.1v.1h.1m0,0-.1.1h.1v.1h.1l.1.1m0,0h-.1v.1m0,0-.1-.1h-.2v.1m0,0-.1-.1h-.1m0,0,.1-.1v-.1h-.1v-.1h-.1m.9.5v-.3l-.2-.2-.2-.2-.2-.1-.3-.1-.2.1-.1.1v.1l.1.2.1.2.2.2.3.1h.4l.1-.1M44,99.73l-.2.2m.2-.2-.1.3m-.2-.4h-.1m.6.3.1.1m-.7-.4h0m0,0h.2l.1.1v-.1H44m0,0h.1m0,0v.2l.1.1.1.1m0,0h0m0,0h-.2v-.1H44l-.1.1m0,0h-.1v-.1m0,0h0v-.2h-.1l-.1-.1m1,.6V100l-.1-.2-.1-.2-.3-.1-.2-.2h-.4l-.2.1v.2l.1.2.1.2.3.1.2.1.2.1h.2l.2-.1m0-.1h0m-.9-.9h-.2l-.1.1m1.2.8v-.3m87.1,23.7-.2.3m.3-.2-.1.3m-.3-.5-.1.1m.7.3v.1m-.7-.4h.1v-.1m0,0,.1.1h.2v-.1m0,0h.1v.1h.1m0,0-.1.1.1.1.1.1m0,0h0v.1m0,0-.1-.1h-.2v.1m0,0-.1-.1h-.1m0,0,.1-.1-.1-.1-.2-.1m1,.5v-.3l-.2-.2-.2-.2-.3-.1-.2-.1-.2.1-.1.1v.3l.2.2.2.2.3.1h.4l.1-.1m0-.1h.1m-1-.8h-.1l-.2.1m1.3.7v-.1l-.1-.2m148.6,40.5-.2.2m.3-.2-.2.3m-.2-.4h-.1m.7.3v.1m-.7-.4h0v-.1m0,0,.2.1h.2m0,0h.1m0,0v.2h.1v.1h.1m0,0v.1m0,0h-.1l-.1-.1h-.1l-.1.1m0,0h-.1v-.1m0,0h0v-.2h-.1l-.1-.1m1,.5v-.1l-.1-.2-.1-.2-.3-.2-.2-.1h-.4l-.1.1-.1.2.1.2.2.2.2.1.2.1.3.1.1-.1.2-.1m0,0h0m-.9-.9h-.2l-.1.1m1.2.8v-.3m34.5,9.4-.2.3m.3-.2-.2.2m-.2-.4-.1.1m.7.3v.1m-.7-.4v-.1m0,0,.2.1h.2v-.1m0,0h.1v.1m0,0h0v.2h.1l.1.1m0,0h0v.1m0,0-.1-.1h-.3m0,0h-.1m0,0v-.2l-.1-.1h-.1m1,.5v-.2l-.1-.2-.1-.2-.3-.1-.2-.1-.2-.1-.2.1-.2.1v.1l.1.2.2.2.2.2.2.1h.4l.2-.1m0-.1h0m-.9-.9-.2.1-.1.1m1.2.7v-.3m52,14.2-.2.3m.3-.2-.1.3m-.2-.5-.1.1m.6.3v.1m-.6-.4v-.1m0,0,.1.1h.2v-.1m0,0h.1v.1h.1m0,0h-.1v.1h.1v.1l.2.1m0,0h-.1v.1m0,0-.1-.1h-.2v.1m0,0-.1-.1h-.1m0,0,.1-.1-.1-.1v-.1h-.1m.9.5V188l-.2-.1-.2-.2-.3-.1-.2-.1-.2.1-.1.1v.3l.2.2.2.2.3.1h.4l.1-.1m.1-.1h0m-1-.9-.1.1-.1.1m1.2.7V188m-35.8-9.6-.2.2m.3-.2-.1.3m-.2-.4h-.1m.6.3v.1m-.6-.4h0m0,0h.2v.1l.1-.1m0,0h.2m0,0-.1.1.1.1v.1l.2.1m0,0h-.1m0,0h-.1v-.1h-.2v.1m0,0h-.1l-.1-.1m0,0h.1v-.1l-.1-.1-.1-.1m.9.6v-.4l-.2-.2-.2-.2-.3-.1H333l-.1.1v.4l.2.2.2.1.3.1.2.1h.2l.1-.1m.1-.1h0m-1-.9h-.1l-.1.1m1.2.8v-.3m-158.6-43-.2.2m.3-.2-.2.3m-.2-.4h-.1m.7.3v.1m.3,0h0m-.9-.8h-.2l-.1.1m1.2.7.1-.1-.1-.1m-1-.2h0l.1-.1m0,0,.1.1h.2v-.1m0,0v.1h.1m0,0v.2h.1v.1h.1m0,0v.1m0,0-.1-.1h-.2l-.1.1m0,0h0l-.1-.1m0,0v-.2h-.1l-.1-.1m1,.5v-.1l-.1-.2-.1-.2-.2-.2-.3-.1h-.4l-.1.1-.1.2.1.1.2.2.2.2.2.1.3.1.2-.1.1-.1m-18.2-5.2-.2.2m.3-.2-.1.3m-.2-.4h-.1m.6.3v.1m.4.1h0m-1-.9h-.1l-.1.1m1.2.8v-.3m-1-.2h0m0,0h.2v.1h.1v-.1h.1m0,0h.1m0,0v.1h-.1l.1.1.1.1.1.1m0,0h-.1m0,0h-.1v-.1H158v.1m0,0h-.1l-.1-.1m0,0h.1v-.1l-.1-.1-.1-.1m.9.6v-.4l-.2-.2-.2-.1-.2-.2h-.5l-.1.1v.2l.1.2.1.2.2.1.3.2h.4l.1-.1M52.7,102.13l-.1.2m.2-.2-.1.3m-.2-.4h-.1m.6.3v.1m.4.1h0m-1-.9h-.1l-.1.1m1.2.8v-.3m-1-.2h0v-.1m0,0,.1.1h.3m0,0h.1m0,0v.2l.1.1h.1m0,0v.1H53m0,0-.1-.1h-.2v.1m0,0h-.1v-.1m0,0h0v-.1l-.1-.1-.1-.1m.9.5.1-.1-.1-.2-.2-.2-.2-.2-.2-.1h-.5l-.1.1v.2l.1.2.1.2.2.1.3.1.2.1.2-.1.1-.1m25.8,6.7-.2.3m.2-.2-.1.3m-.2-.5-.1.1m.6.3.1.1m.3,0h0m-1-.9-.1.1-.1.1m1.2.7v-.3m-1-.1v-.1m0,0,.1.1H79l.1-.1m0,0h0l.1.1m0,0v.2h.1l.1.1m0,0h0v.1m0,0-.2-.1H79v.1m0,0v-.1h-.1m0,0v-.2l-.1-.1h-.1m1,.5v-.2l-.1-.2-.2-.1-.2-.2-.2-.1-.3-.1-.1.1-.2.1v.1l.1.2.1.2.3.2.2.1h.4l.2-.1M96.6,114l-.2.2m.3-.2-.1.3m-.3-.4h-.1m.7.3v.1m-.7-.4h.1m0,0h.1v.1h.2v-.1m0,0h.1l.1.1m0,0h-.1v.1l.1.1.1.1m0,0h0m0,0h-.2v-.1h-.1v.1m0,0h-.1l-.1-.1m0,0h.1l-.1-.1V114l-.2-.1m1,.6v-.4l-.2-.2-.2-.1-.3-.2h-.4l-.1.1v.4l.2.2.2.1.3.2h.4l.1-.1m.1-.1h0m-1-.9h-.1l-.2.1m1.3.8v-.3m16.9,4.7-.2.2m.2-.2-.1.3m-.2-.4h-.1m.6.3.1.1m.3.1v-.1m-1-.8h-.1l-.1.1m1.2.7v-.2m-1-.2h0v-.1m0,0,.1.1h.2l.1-.1m0,0v.1h.1m0,0v.2l.1.1h.1m0,0v.1m0,0-.2-.1h-.2v.1m0,0h0l-.1-.1m0,0h0v-.1l-.1-.1-.1-.1m.9.5.1-.1-.1-.2-.2-.2-.2-.2-.2-.1h-.4l-.2.1v.2l.1.2.1.1.3.2.2.1.2.1.2-.1.1-.1m-53.2-14.7-.2.2m.3-.2-.1.3m-.3-.4h-.1m.7.3v.1m.4,0h0m-1-.8h-.1l-.2.1m1.3.7v-.2m-1.1-.2h.1v-.1m0,0,.1.1h.2v-.1m0,0,.1.1h.1m0,0-.1.1v.1h.1v.1h.1m0,0v.1m0,0-.1-.1h-.2v.1m0,0h-.1v-.1h-.1m0,0,.1-.1h-.1v-.1l-.2-.1m1,.5v-.3l-.2-.2-.2-.2-.3-.1H61l-.1.1v.3l.2.2.2.2.3.1.2.1.2-.1.1-.1m87.2,23.4-.2.3m.2-.3-.1.3m-.2-.4-.1.1m.6.2v.1m.4.1h0m-1-.9-.1.1h-.1m1.2.8v-.3m-1-.1v-.1m0,0h.1l.1.1h.1v-.1h.1m0,0h.1v.1m0,0h0v.2h.1l.1.1m0,0h-.1m0,0h-.3m0,0h-.1m0,0v-.2H149v-.1h-.1m.9.5.1-.2-.1-.2-.2-.2-.2-.1-.2-.1-.3-.1h-.1l-.2.1v.2l.1.2.1.2.3.2.2.1h.4l.1-.1m96,25.7-.2.3m.3-.2-.2.3m-.2-.5-.1.1m.7.3v.1m-.7-.4h0v-.1h.1m0,0,.1.1h.2v-.1m0,0h0l.1.1m0,0v.1l.1.1.1.1m0,0h0v.1m0,0-.1-.1h-.2l-.1.1m0,0v-.1h-.1m0,0v-.2h-.1l-.1-.1m1,.5v-.2l-.1-.1-.1-.2-.3-.2-.2-.1-.2-.1-.2.1-.1.1-.1.1.1.2.2.2.2.2.2.1h.4l.2-.1m0-.1h0m-.9-.8h-.2l-.1.1m1.2.7v-.3M53.7,103.53l.1-.2M43,100.63v-.1h-.1v-.2m.7.2h-.1m.5.4-.4-.4m-3.7-.2.2-.2.3-.5m-5.7-2.9h.1l.1-.1H35m-1.1,4-.2-.3m0,0-.1-.1v-.3l-.1-.1v-.3l.1-.1m0,0V99l.1-.4.1-.4.2-.4.1-.3.2-.3.2-.3.2-.2m8.1,3.6-.1.2m-2.6.3.2-.1.4-.5.2-.4M35.6,95v.2h-.1v.1m0,0h-.1m5.3-.8-.1.3-.1.3-.2.2-.2.2-.3.2h-.1m-4.3-.4-1.9,1.8m1.9-1.8.6.2m-2.5,1.6-.2.2-.1.3L33,98l-.1.4-.1.4v.7l.1.2.1.2.1.1m6.5-28-.3.1m-3.4,23-.2-.1h-.1l-.1-.1h-.1v-.1M40,72.33h0m-.7-.2h0l-.1.1.1.1h.2l.1.1h.1m3.1.7-2.8-.8m.7,22.2L44,75.13m-2.6,2.6.3.1.3-.1.3-.2.2-.2.2-.3v-.7l-.1-.3-.2-.3-.3-.3-.3-.1h-.6l-.3.2-.2.2-.1.3-.1.4v.3l.2.4.2.3.2.2.3.1M40,85.93h.7l.2-.2.3-.2.1-.3.1-.4-.1-.3-.1-.4-.2-.2-.3-.3-.3-.1h-.6l-.3.2-.2.2-.1.3-.1.4v.3l.2.4.2.2.2.3.3.1m-1.4,8.2h.7l.2-.2.3-.2.1-.3L40,93l-.1-.3-.1-.4-.2-.3-.3-.2-.3-.1-.3-.1-.3.1-.3.2-.2.2-.1.3-.1.4.1.3.1.3.2.3.2.3.3.1m-2.7,1,2.7.7m0,0,.3.1h.3l.3-.1.3-.2.2-.2.2-.2.1-.3.1-.3m0,0,3.3-19.4m-1.2-2-2.8-.8m4,2.8v-.6l-.1-.4-.2-.3-.2-.2-.2-.2-.3-.2-.2-.1m.3-.1.3.1.2.2.3.2.2.3.1.2.1.4v.6m-3.7-2.9-.3.1m-3.7,22.9-.1.1v.1l-.1.1m0,0H36m-1.7,1.6-.1.2m1.8-1.8-1.2,1.1m-.6.7-.2.2-.2.3-.1.4-.2.4v1.3h.1m-.2-2.8-.1.1-.1.1-.2.2m0,0-.1.3-.1.4-.1.3V99l.1.2m1.1-2.4h-.2l-.2.2-.2.2-.2.3-.1.4-.1.4-.1.4V99m1.5-1.9v.1l-.2.2-.2.3-.1.4-.1.4-.1.4v.3m1.7,7.4-.3-1.7m0,0-.1-.2-.1-.3v-.2l-.1-.2-.1-.2-.1-.2-.1-.2-.1-.2m-1.3-2.7h0v-.1h.1m2.6-3.9.1-.1h.1m-1.9,4.2-.9-.2m1.1.8h0m0,0-1.3-.3m0,0h-.1v.1h0m1.5,2.2L32.8,101m1.4.2v-.1h-.1v-.2l-.1-.1v-.3m0,0V100l.1-.5.1-.5.1-.5.2-.5.2-.5.3-.4.2-.3.3-.2.2-.1m368.6,23.1h0v.1M41.2,21h.2m-9.3,12.6-.1-.1v-.1M41.2,21h-.1m-9,8.8,9-8.8m363.3,98.7h-.1M32,33.43V33l-.1-.4V31l.1-.4v-.4m0,0v-.3h.1v-.1m372.3,89.9v.1m-9,8.7,9-8.8m-9.2,9.2.1-.1v-.2l.1-.1m-.2,3.6v-3.2m.2,3.3v.1h-.1v-.1l-.1-.1m2.7-2.3-2.5,2.4m2.5-2.4h0m0,0-2.5,2.4m0,0h-.1v-.1m0,0v-.4l-.1-.4v-1.6l.1-.4v-.4m0,0v-.3h.1v-.1m0,0,9-8.7m0,0v3.7m0-3.7-9,8.7m0,0h0v.1h-.1v.3m0,0v.4l-.1.4v1.6l.1.4v.4m0,0v.1h.1m0,0,9-8.7M56.5,5.63l.4-.3M41.1,20.73,56.5,5.63M41.1,21v-.3m.1-.1-.1.1m0,.1v-.1m379.2,87.4.3-.3.1-.4v-.2m-.7-4.9.2.2.3.3.2.3v.7l-.1.3-.3.4m-15.6,18.8-.3-.1m.3.1.1-.1m-.1.1-.1-.1m.2,0,15.5-15.1m-1.7-6.4-357-97m0,0-.6-.1-.6-.1H59.1l-.6.1-.5.2-.6.2-.4.2-.3.3m0,0L41.2,20.63m379,83.7.2-.3.2-.3v-.4l-.1-.3-.2-.3-.3-.3-.4-.3-.4-.2-.6-.2m-14.2,21.5h.2M41.1,20.83V21m363.6,98.4,15.5-15.1m.1.2-15.5,15.1m-.2,3.6v-3.6m.2,3.6h-.2m.2-3.6v3.6M41.2,20.63l363.5,98.8M41.1,20.83l.1-.2m363.4,99L41.1,20.83m363.7,98.8h-.2m.2,0-.1-.2m-.1.2.1-.2M383.6,171l-.1.1m0,0h0m-.1,0v0h.1m.1-.1-.2.1M37.4,36.63v39.9m1.1.3-1.1-.3m347.3,94.4-.2-.1H384l-.2.1h-.1l-.1.1-.1.1m8.4,1.7-7.2-1.9M38.5,35.33l-1,1.1m0,0h-.1v.2m346,134.5h.1m0,0h-.1m.2-.1-.1.1M232.9,312.83v-1.3m-1.3,2.5v-2.1m-.3,2.4v-2.5m.3.1v-.3l.1-.1.1-.1h.5m-1,.4v-.1l.1-.2.1-.2.1-.1.2-.1h.5m7.3,3v9.2m.3.1-.3-.1m.3-9.1v9.2m.2-.3-.2.3m-7.6-12,6.5,1.8m-6.5-2.1,6.5,1.8m0,.3h.2l.1.1.2.1.1.1.1.1v.2l.1.1v.2m-.8-1.2.2.1.2.1.2.1.2.2.1.2.1.2v.2l.1.2M212.1,307v-1.1m-1.3,2.2v-1.9m-.3,2.1v-2.1m.3,0V306l.1-.1.1-.1.1-.1h.4m-1,.5V306l.1-.2.1-.1.1-.1.2-.1h.1l.2-.1.2.1m7.3,2.9v9.3m.2,0h-.2m.2-9.2v9.2m.3-.2-.3.2m-7.5-12.2,6.5,1.8m-6.5-1.6,6.5,1.8m0-.2h.2l.2.1.2.2.1.1.2.2.1.2v.4m-1-1h.2l.1.1.2.1.1.2.1.1v.1l.1.2v.1m-29.1-5.7v-2.2m.3,2v-1.9m1.3.8v-1.2m-1.3.4v-.3l.1-.1.1-.1h.1l.1-.1h.2l.1.1m-1,.4v-.2l.1-.1.1-.2.1-.1.2-.1h.5m7.8,12-.3.3m0-9.3v9.3m-.2-9.3V312m.2.1-.2-.1m-7.3-11.9,6.5,1.7m-6.5-2,6.5,1.8m0,0,.2.1.2.1.2.1.1.2.2.2.1.1v.4m-1-1,.2.1.1.1.1.1.2.1.1.1v.2l.1.1v.2m-160.5-43v-97.2m0,97.3v-.1m12,11.5-.3-.2M182,307.33l-132.5-36m141.8,28.9v1.2m7.2,10.4-.3-.2m6,1.8-5.7-1.6m13.6-5.9v1m7.2,10.6-.3-.3m7.3,2.2-7-1.9m13.6-6v1.2m7.2,10.4-.2-.2m111.2,30.4-111-30.2m135.4,36.8-11.7-3.2m18.2-3.2v.1m-344.5-191v97.3m10.7,2.9-10.7-2.9M49.2,264v-.2l-.1-.2-.1-.1-.1-.2-.2-.2-.1-.1-.2-.1-.2-.1m1,8.3V264m0,7.1,133,36.1m7.5-6.7v2.2m1-2.9h-.5l-.2.1-.1.1-.1.2-.1.1v.2m7.5,1.1-6.5-1.8m7.5,3v-.4l-.1-.1-.2-.2-.1-.2-.2-.1-.2-.1-.2-.1m1,10v-8.8m0,8.8,6.1,1.6m6.2-7v2.1m1-2.8-.2-.1-.2.1H211l-.2.1-.1.1-.1.1-.1.2v.2m7.5,1.1-6.5-1.8m7.5,3v-.4l-.1-.2-.2-.2-.1-.1-.2-.2-.2-.1H218m1,9.9v-8.7m0,8.7,7.4,2m4.9-7.4v2.5m1-3.2h-.5l-.2.1-.1.1-.1.2-.1.2v.1m7.5,1.1-6.5-1.8m7.6,3.1-.1-.2v-.2l-.1-.2-.1-.2-.2-.2-.2-.1-.2-.1-.2-.1m1.1,10v-8.7m123.9,42.4,11.9,3.2m-135.8-36.9,111.2,30.2m29.3.9v1.2m1-1.9H381l-.2.1h-.1l-.2.1-.1.2v.3m11.5,2.2-10.5-2.9m10.4-95.8-28-7.6m28,7.6v-.1m0-40.8.1-.1m-.3,40.8.2.1m0,0h.1m0-40.4h-.1m0,0-.2.2m.2-.2v-.4m-.5-.1.5.1m-28,33.1,27.8,7.6m0,0v-40.1m0,0-.8-.2m28.7,129.4-.1.1-.1.3-.2.3m-27,22.9H392v-.1h-.1v-.1m27.2-22.7-23.9,23.4m0,0H395v.1h-.1l-.1-.1m0,0h-.3l-.4-.1h-.3l-.4-.1-.3-.1h-.3l-.4-.1-.3-.1m.2.1.3.1h.3l.3.1.4.1.3.1h.3l.4.1h.3m-46.4,27.6h-.1v-.1m43.5-28.3-32.1,31.3m0,0v.1h-.4m0,0-1.5-.2-1.4-.3-1.5-.3-1.4-.4-1.3-.4-1.3-.4-1.3-.5-1.2-.5m0-11.6h-.1v-.2m11,3.1-1.5-.2-1.4-.3-1.5-.3-1.4-.3-1.3-.4-1.3-.5-1.3-.4-1.2-.5m11.3,2.9h-.2l-.1.1-.1-.1m32.5-31.4-32.1,31.4m32.1-31.4-32.1,31.4m0,0h-.4m0,0-1.4-.2-1.5-.3-1.4-.3-1.4-.4-1.4-.3-1.3-.5-1.3-.4-1.2-.5m0,0v-.1h-.1v-.1m0,0h0m.3,11.9,1.2.5,1.2.5,1.3.4,1.4.4,1.4.4,1.4.3,1.4.3,1.5.2m-8.1-17.8-3,2.9m33.7-32.9-18.3,17.9m-15.4,15h0v.1h.1v.1m11.3,2.9,32.1-31.4m-32.5,31.4h.4m4-18.1,18.3-17.8m-33.4,32.6,2.7-2.7m40.5-26-32.4,31.6m0,0-1.5-.2-1.4-.3-1.4-.3-1.4-.3-1.4-.4-1.3-.4-1.2-.5-1.2-.5m-.2.4,1.2.5,1.3.4,1.3.5,1.4.3,1.4.4,1.4.3,1.5.3,1.4.2m8.2-200.7v-.2m-.1.2v-.3M55.1,103.63v.3m258.4,52.6h0m4.7-1L90.5,93.63m-2.1,1,.2-.1.9-.5,1-.4m222.9,62.7h.1m4.7-.6v-.2m0,0-1.5.3-1.5.2-1.7.3m0,.2v-.2m4.7-.6-1.5.3-1.6.3-1.6.2m-275.3-59,.3.1m-.3-.1h0m.3.1h.2m-.2-.1h-.3m.5.1-.2-.1m.3.3L39,99m340,82.4-.8,1.3m6.3-11.7-.6,1.4-.7,1.4-.7,1.3-.7,1.3-.7,1.3-.7,1.3-.7,1.2-.7,1.2m5.6-10.5h0l-.1.1m.1-.2v.1h-.1v.1m0,0-.6,1.4-.7,1.3-.7,1.4-.7,1.3-.7,1.3-.7,1.3-.7,1.2-.8,1.2m0,0-1.2,1.9M38.5,97.53h-.3m0-.1v.1m.5.1-.2-.1m346.1,73.4h0l-.1.1m0,0-.6,1.4-.7,1.4-.7,1.3-.7,1.3-.7,1.3-.7,1.3-.7,1.2-.7,1.2m0,0-.8,1.3M36.3,95.23h0m4-23v.2m-1.4,23.5h.3m0,0,.3.1h.3l.1-.1m3.9-50.8.8-4.8m-5.3,31.6,2.3-14m-2.3,14h0m5.4-31.7-.1.1m329.3,147.2-.6.2m.8-.3-.2.1m-.6.2.1-.1m-.7.2-.1.1m0,0-.4.1m0,0h0v-.1m1.4-5.4-.9,5.3m1.6-5.6-.7.3m-.2,5.1.9-5.4m-.9,5.4.7-.2m0,0,8.7-51.5m-10.5,52h0m0,0,.4-.1M39.8,96h-.7m0,0-2.8-.8m8.4-55h0v.1m337,91.5h0m1.1,4.1.1-.7v-1.8l-.2-.5-.1-.4-.2-.3-.3-.2-.3-.1m-.1-.1.3.1.3.2.2.3.1.1m-.9-.6v-.1m-9.5,56.1,9.5-56m.1,0-9.5,56m9.4-56.1.1.1M36.3,95.23l2.8.8m-2.8-.8h0m2.8.8h.7m3.1-23.1-3.6-1m3.6,1,.3.1.3.2.2.2.2.3.2.3.1.3V75m0,0-3.4,19.7M39,96h.6l.3-.1.3-.1.2-.2.2-.3.1-.3.1-.3m-4.5.5L39,96m-2.7-.8-.2,1.3m3.2-24.6,2.4-14m330.4,130,9.5-55.9m-9.4,56h-.1v-.1m1.8-.4-1.7.5m1.7-.5h0m0,0-1.7.5m0,0h0v-.1m0,0,9.5-56m-.1.1v-.1h.1m-8.1,54.4h0m.4-2.2h0m-.7,3.6-.7.2m.8-.3-.1.1m-.7.2.1-.1m.3-1.3h-.1m.4-2.2h0m-.4,2.2-.2,1.3m0,0,.7-.2m0,0,.2-1.3m0,0h0m0,0,.1-.5m0,0h0m0,0,.3-1.7m0,0h0m0,0v-.5m0,0h.1m0,0,.2-1.4m0,0-.7.3m-.2,1.3h0m0,0-.1.5m0,0h0m0,0L373,186m0,0h.1m0,0-.1.5m0,0h-.1m.7-4-.2,1.3m-139.5,128-4,3.9m-6.6,7.8-.1.5-.2,1.1m6.9-9.4-.7.6-1.8,1.9-1.2,1.2-.9,1-.6.7-.6.7-.3.5-.3.5-.1.4-.1.3m-30.9-23-1,.8-1.1.9-1.2.9-1.2.9h-.1m0,0-.1.1-1.3.8-1.4.8-1.4.8-1.5.8-1.5.7-.9.5m-2.3,2.6-.1.5-.2,1m2.6-4.1-.2.1-.5.3-.5.3-.4.4-.3.4-.2.5-.2.4v.1m35.6-4.9-1.6,1.4-1.8,1.6-.9.7m0,0-.3.3-1.7,1.3-1.7,1.3-1.8,1.4-.9.7m-2.6,3.2-.1.4-.2,1.1m2.9-4.7-.6.4-.6.6-.6.7-.4.4-.2.5-.2.4v.2m37.4,1.7,2.5.7M216.1,314l2.7.8m-24-6.5,3.2.8m22.4,11.1h0v.2l.1.1m-.1-1.8v1.5m.5-2.3h0l-.4.4m0,0v.1h-.1v.3m0,3.6v.2l.1.1v.1m-.1-1.9v1.5m.7-2.5h0l-.1.2-.1.1-.2.2-.1.1m0,0h0l-.1.1v.1h-.1v.2m.1,1.9.2.2.4.3.5.3.5.3h.1m0,0v.1h.3m0,0,.3-.1h.4m-.8-5.5v1M33.5,161.53v102.9M33.5,34v50.4M4.4,293v11.6m.2.2.1.1m10.8,2.9.2-.1m23-215,.2-.1m.4.4h-.2l-.1.1m.3-.2V93m-.1.9h0m-.6-2.1h-.1m3-15.5h.2m.3.3-.1.1h-.2m.4-.1H42m-.1,1,.1-.1m-.6-2.1-.1.1m-1.2,9h.2m.3.3h-.1l-.1.1m.3-.2-.1.1m-.1.9h.1m-.6-2.1-.1.1m313,316.2h0l.1.2.1.1v.1h.2l.1.1h.1m3.7.6.1-.1m-3.8-.5,2.9.8m0,0h.1l.1.1h.1l.1-.1h.1l.1-.1h.1l.1-.1M8.9,306.43v.1l.1.1.1.1.1.1.1.1h.1l.1.1m3.7.5.1-.1M9.5,307l2.9.7m0,0,.1.1h.2l.1-.1H13l.1-.1.1-.1m-3.1-152.3,338.3,91.9m-1.1-19.7L12,136.33m330.1,91v.2m2.8,0v-.2m0,0v-.1l-.1-.2-.1-.2-.2-.1-.3-.1-.4-.1h-.7l-.3.1-.3.1-.2.2-.1.2-.1.2M15.9,138.73v.2m2.9,0v-.2m-.8-.8h-.2l-.4-.1h-.3l-.4.1-.3.1-.2.2-.2.2-.1.2v.1m2.9,0-.1-.2-.1-.2-.1-.2-.3-.1-.2-.1m35.5-18.5h0m-39.9,10.8v.1m334.3,86.4-4.2,3.7m-.4.9-.2,5m.6-5.9-.1.1-.1.2-.1.1m0,0v.4l-.1.1m29.2-31.2L42.1,100.33M352.4,200l8.3,2.3m-15-4.1,2.9.8m-9.7-2.7,2.9.8m-13.3-3.6,6.6,1.8m-13.7-3.7,3.3.9m-13.6-3.7,6.5,1.8m-13.3-3.7,2.9.8m-9.7-2.6,3,.8m-13.3-3.6,6.5,1.8m-13.6-3.7,3.2.8m-13.6-3.7,6.5,1.8m-13.3-3.6,2.9.8m-9.6-2.6,2.9.8M245.8,171l6.5,1.8m-13.6-3.7,3.2.9m-13.6-3.7,6.6,1.8m-13.3-3.6,2.9.8m-9.7-2.7,2.9.8m-13.2-3.6,6.5,1.8m-13.6-3.7,3.2.9m-13.6-3.7,6.5,1.7m-13.3-3.6,2.9.8m-9.6-2.6,2.9.8m-13.3-3.6,6.5,1.7m-13.6-3.7,3.2.9m-13.6-3.7,6.6,1.8M138.9,142l2.9.8m-9.7-2.7,2.9.8m-13.3-3.6,6.6,1.8m-13.7-3.7,3.3.9m-13.6-3.7,6.5,1.7m-13.3-3.6,2.9.8m-9.7-2.6,3,.8m-13.3-3.6,6.5,1.8m-13.6-3.8,3.2.9m-13.6-3.7,6.5,1.8m-37-10,26.6,7.2M90.9,93h-.1m-3.7,3.7.1.1v.1m.5-2.3h-.1m0,0-.1.1M117.2,99l-24.6-6.6m107.9,29.3-71.6-19.5m155,42.1-71.7-19.4m108.4,29.4-25-6.8m24.2,10.1h.1m.8-3.1-.1-.1m-7.2,1.3L87.9,94.43m225.6,61.5v-.1h-.1M87.2,96.93l225.3,61.2m-193-61.3v.1m-.1-.9h0m.4,1.3h0m87.3,23.4h0m-.1-.9h0m.4,1.4v-.1M128,99.23h0m-.1-.9h0m.4,1.4v-.1m162.2,43.7h-.1m0-.9-.1.1m.4,1.3h.1M123.8,98h-.1m0-.9h-.1m.4,1.4h.1m162.1,43.7h0m-.1-.9h0m.4,1.4v-.1m-75.1-20.8h0m-.1-.9-.1.1m.4,1.3h.1m83,22.2h0m0-.9h-.1m.4,1.4h.1m-92.2-25.5h-.1m0-.9h-.1m.4,1.4h.1m90.2,27.1-.1.1m-.2,0h0m.8.2v-.1m-1.4-.3v.1m-91-25v.1m-.3,0h0m.8.2.1-.1m-1.4-.3-.1.2M289.1,146h0m-.3,0h0m.9.2v-.1m-1.4-.2v.1m-3.5-1.2v.1m-.2,0v-.1m.8.3v-.2m-1.4-.2v.1m-74-20.3h0m-.3,0h0m.9.2v-.1m-1.4-.2v.1m-3.5-1.2v.1m-.2,0v-.1m.8.3v-.2m-1.4-.2v.1m-78.2-21.5-.1.1m-.2,0v-.1m.8.3v-.2m-1.4-.2v.1m-3.4-1.2v.1m-.3,0h0m.8.2.1-.1m-1.4-.3-.1.2m-3.4-1.2v.1m-.2,0v-.1m.8.2v-.1m-1.4-.2v.1m175.1,44.6.4-.2m-.2-.7-.4.2m-90-25.9-.1.1m9.8,7.2.2.1m51.5-20.5-2.8-.8m8.4,2.3-2.8-.7M59.3,48.93l-2.8-.8m8.4,2.3-2.8-.8M204,121.33l-2.8-.8m-1.7,1.5-.1.3m10.2.5-2.8-.7m-86.2-23.5-2.8-.7m-1.7,1.5v.2m10.2.6-2.8-.8m137.3,4.2-2.8-.7m8.4,2.3-2.8-.8m98.7,26.8-2.8-.7m8.5,2.3-2.9-.8m0,0-2.8-.8m8.5,2.3-2.8-.7M56.5,48.13l-2.9-.8m8.5,2.3-2.8-.7M158,75.73l-2.8-.8m8.4,2.3-2.8-.7m0,0-2.8-.8m8.5,2.3-2.9-.8m-44.8,17.7h-.1m9.9,7.3h.2M287.3,144l-2.7-.8m-1.8,1.5v.2m10.2.6-2.8-.8m-4.7-4.5h-.1m9.9,7.3h.2m-166.4-46.3H129m83.4,22.7h0m83.4,22.6h-.1M39.6,57.33l337,91.6m-337-91.7h0m157.3,76.6h-.1m1.4.6h0m1.1.1h0m-.1-4.1h-.1m1.9,4.7h0m9.3,2.4h0m1.3.5h0m1.2.2h0m-.2-4.2h0m1.9,4.8h0m2.7.6h0m1.6.6h0m-.9-4.5h0m1.5.6h0m-15.8-4.5h0m1.5,4.6h0m-.1-4,.1-.1m1.7,4.6h0m-1.1-4.6h0m1.4.6h0m.8,0h0m1.2.5h0m-18.5-1.1h-.1m1.5.6h0m-.8-4.5h0m1.5,4.5h0m-.1-3.9h0m1.8,4.6.1-.1m-1.1-4.5h0m1.5.6h0m187,2.4-337-91.6M43.2,99l4.4,1.2m4.4,1.2,4.4,1.2m4.3,1.2,4.4,1.2m4.4,1.2,4.4,1.2m4.4,1.2,4.4,1.1m4.4,1.2,4.4,1.2m4.3,1.2,4.4,1.2m4.4,1.2,4.4,1.2m4.4,1.2,4.4,1.2m4.4,1.2,4.4,1.2m4.3,1.2,4.4,1.2m4.4,1.1,4.4,1.2m4.4,1.2,4.4,1.2m-114.1-31L43.2,99m4.4,1.2,4.4,1.2m4.4,1.2,4.3,1.2m4.4,1.2,4.4,1.2m4.4,1.2,4.4,1.2m4.4,1.1,4.4,1.2m4.4,1.2,4.3,1.2m4.4,1.2,4.4,1.2m4.4,1.2,4.4,1.2m4.4,1.2,4.4,1.2m4.4,1.2,4.3,1.2m4.4,1.2,4.4,1.1m4.4,1.2,4.4,1.2m8.8,2.4,4.4,1.2m4.3,1.2,4.4,1.2m4.4,1.2,4.4,1.2m4.4,1.2,4.4,1.2m4.4,1.2,4.4,1.1m4.3,1.2,4.4,1.2m4.4,1.2,4.4,1.2m4.4,1.2,4.4,1.2m4.4,1.2,4.4,1.2m4.3,1.2,4.4,1.2m4.4,1.2,4.4,1.2m4.4,1.1,4.4,1.2m4.4,1.2,4.4,1.2m4.3,1.2,4.4,1.2m4.4,1.2,4.4,1.2m4.4,1.2,4.4,1.2m4.4,1.2,4.3,1.2m4.4,1.2,4.4,1.1m4.4,1.2,4.4,1.2m4.4,1.2,4.4,1.2m4.4,1.2,4.3,1.2m4.4,1.2,4.4,1.2m4.4,1.2,4.4,1.2m4.4,1.2,4.4,1.2m4.4,1.1,4.3,1.2m-219.3-59.6,4.4,1.2m4.4,1.2,4.3,1.2m4.4,1.2,4.4,1.2m4.4,1.2,4.4,1.2m4.4,1.2,4.4,1.2m4.4,1.1,4.3,1.2m4.4,1.2,4.4,1.2m4.4,1.2,4.4,1.2m4.4,1.2,4.4,1.2m4.4,1.2,4.3,1.2m4.4,1.2,4.4,1.2m4.4,1.2,4.4,1.1m4.4,1.2,4.4,1.2m4.4,1.2,4.3,1.2m4.4,1.2,4.4,1.2m4.4,1.2,4.4,1.2m4.4,1.2,4.4,1.2m4.3,1.2,4.4,1.2m4.4,1.1,4.4,1.2m4.4,1.2,4.4,1.2m4.4,1.2,4.4,1.2m4.3,1.2,4.4,1.2m4.4,1.2,4.4,1.2m4.4,1.2,4.4,1.2m4.4,1.2,4.4,1.1m-16.8-4.1V183m-.1.1h0m.2.1h0m-.7-.4v.1m1.2.7v-.1m-88.4-24.3h0m0,.1h0m.1,0v.1m-.6-.5-.1.1m1.2.8.1-.1m34.4,9.1v-.1m0,.1h0m.1.1h0m-.6-.4-.1.1m1.2.7.1-.1m-70.9-19.5h.1m-.1,0h0m.1.1h0m-.6-.4-.1.1m1.2.7h.1m-18.2-5.3h0m-.1.1v-.1m.2.1h0m-.7-.4v.1m1.2.8v-.1m-18.2-5.3h.1m-.1.1h0m.1.1h0m-.6-.4-.1.1m1.2.7.1-.1M44,99.63h0m-.1,0h0m.2.1h0m-.7-.4-.1.1m1.2.8.1-.1m87.1,23.3h0m0,.1h0m.1.1h0m-.7-.4v.1m1.2.7v-.1M280.9,164h0m-.1,0h0m.2.1h0m-.7-.4v.1m1.2.8v-.1m34.5,9h0m-.1.1h0m.2.1h0m-.7-.4h0m1.2.8V174m52,13.8h0m0,.1h0m.1.1h0m-.6-.4-.1.1m1.2.7.1-.1m-35.8-10h0m0,0h0m.1.1h0m-.6-.4-.1.1m1.2.8.1-.1m-158.6-43.4v-.1m-.1.1h0m.2.1h0m-.7-.4v.1m1.2.7v-.1m-18.2-5.2h.1m-.1,0h0m.2.1h-.1m-.6-.4-.1.1m1.2.8.1-.1M52.7,102h.1m-.1,0h0m.2.1h0m-.7-.4-.1.1m1.2.8.1-.1m25.7,6.6h0m-.1.1h0m.2.1h0m-.7-.4-.1.1m1.2.7.1-.1m16.9,4.3h0m0,.1v-.1m.1.1h0m-.7-.4v.1m1.2.8.1-.1m16.9,4.3v-.1m-.1.1h0m.2.1h0m-.7-.4-.1.1m1.2.7h.1m-53.3-14.8v-.1m0,.1h0m.1.1h0m-.7-.4v.1m1.2.7.1-.1m87.1,23.4h0m-.1.1h0m.2,0v.1m-.7-.5-.1.1m1.2.8.1-.1m95.9,25.8v-.1m-.1.1h0m.2.1h0m-.7-.4v.1m1.2.7v-.1M44.8,100.83v.3m-9.5-4.4-.3-.1m4.4-.8.3-.1M33.1,100l.5.1m5.6-27.9-3.8,22.6m4.9,7.9v-1.1l-.1-.6-.2-.4-.1-.4h-.1m-1.4-1.8-.5-.2m1.9,2-1-1.5m0,0h0l-.1-.1-.1-.1-.1-.1h-.1m-5.4,2.1-.3.5m5.6-2.3-1.2-1.6m-.5-.4-.7-.3m1.2.7-.2-.3-.2-.1h-.1m367.7,22.9L41.4,21m-9.3,12.6,363.2,98.7M57,5.23l-.1.1m363.8,101.9v-3.7m-.7-1.2h-.1m-42.8,67.2,6.3,1.7m36.1,175.2V108.93m-27.6,22.5v238.4m.2.2.2.1m2.6.5.1-.1m-46.6,15.9v11.7m.2.2h.1m10.8,3,.1-.1M39.3,99.33l333.3,90.6m10.1-57.3-.1-.1M37,96.93,372.2,188"/>
    <path class="cls-3" d="M42,76.63h0m-1.4,8.2h0"/>
    <path class="cls-4" d="M198,305.93l-.6-.1m21.4,5.8-.5-.1m21.3,5.7-.6-.1m-4.6-5.2-2.8,2.7-.9.9m4.8,1.3,1.1-1.7,1.4-1.7.4-.4m1.2.9-.6.6-1.3,1.6-1.2,1.7m0,0v-.2l-.1-.2-.1-.1-.1-.2-.2-.1-.2-.1-.1-.1h-.2m1,1-.9,1.7-.6,1.9-.3,1.2-.2,1.2m-3.8-8.3,4.8,1.3m-2.2,6.2.2-1.3.4-1.2.6-1.9,1-1.8m-1,7,.3,1.8m-.3-1.8-.1-.1-.1-.2-.1-.1-.1-.2-.2-.1h-.2l-.2-.1h-.2m-2.6-7.5-3.6,3.6-1,1.1-.9,1-.7,1.1-.1.5-.1.4.1.5.2.4.4.4.4.3.5.3.6.2.7.2.8.1h.7l.8-.1.7-.1.7-.2.7-.3.5-.3.5-.4.4-.4.2-.4.1-.4m-3.4-7.3v-.1h.2l.1-.1h.5m3.8,8.3h0l-.2.5-.3.6-.4.4-.6.5-.7.4-.8.3-.9.2-.9.2h-1.9l-.9-.1-.9-.2-.7-.3-.7-.4-.5-.4-.5-.4-.2-.6-.2-.5.1-.5m-30.5-22.9-.4.4-1.9,1.5-2.1,1.5m4.8,1.3,1-1,2.6-2.6m-8.4,2.3h-.2l-.1-.1-.2.1h-.1m.6,0-1.5.9-1.5.9-2.5,1.4-2.7,1.3m8.2-4.5,4.8,1.3m4.8-2.6-3,2.8-.9.9m-6.6,6.6h0l-.6.4-.6.4-.8.3-.9.2-.9.1-1,.1-.9-.1-.9-.1-.9-.2-.7-.3-.7-.4-.5-.4-.4-.5-.2-.5-.1-.5V311m16.7-4.6-1.9,1.9-1.9,2-.8.9-.9.8-1.1,1m5.7-7.7.1.1.2.1.2.1.1.1.1.2.1.1.1.2v.2m-13.9,2.1-.3.2-.5.3-.4.4-.3.4-.2.4-.1.5.1.4.2.4.3.4.4.4.6.3.6.2.6.2.8.1h1.5l.7-.1.7-.2.7-.3.6-.3.5-.4,1-.8.8-.9.8-.8,1.9-2,2-2m-13,3.2H180l-.1-.1h-.1l-.1.1m33.8-2.2-.5.4-3.6,3m5,1.4,1.7-2,1.6-1.7m-9,2.4.1-.1h.6m0,0,5,1.4m-5-1.4-2.3,1.9-2.1,1.6-2.1,1.6m15.9-6.4-1.7,1.8-1.6,1.9m0,0-.1-.2-.1-.1-.1-.2-.1-.1-.1-.2-.2-.1-.2-.1h-.2m-11.5,3.7-.9.8-.8.8-.3.4-.2.5v.4l.1.5.2.4.3.4.4.3.6.3.6.3.7.1.7.1.7.1.8-.1.8-.1.7-.2.6-.3.6-.3.5-.4.5-.6.5-.6.8-1.2.6-1.1,1.5-2.2,1.5-2m-12.1,3.7.1-.1h.4l.1.1m7.2,4.9h0l-.1.2-.6.4-.8.4-.8.3-.9.3-.9.1-.9.1h-1l-.9-.2-.8-.2-.8-.3-.7-.3-.5-.5-.4-.4-.3-.6-.1-.5.1-.5m15.8-5.9-1.6,2-1.4,2.1-.7,1.2-.3.6-.4.6-1,1.1M198,308.83l-2.9-.8m23.7,6.5-2.5-.7m23.3,6.3-2.4-.6m-16.8.7h0v.1h.1m.4-2.1h-.3v.1h-.1m0,.6-.1-.1v-.1m.1,1.8v-.2m0-1.4v1.4m0,0,.1.1m-.2,1.9h0v.1m.1-3.5v-.2l.1-.1v-.1l.1-.1.1-.1.1-.1m.2,1.6-.1-.3-.1-.2-.2-.2-.2-.2m-.1,2.1v-.2m.2-.4.1-.1h.2l.1.1m-.5,2.3v-.1l-.1-.1v-.1m1.8,1.4h-.1v-.2l-.1-.1m-1.6-2.5v1.4m0,0,.2.2.1.1.2.2.2.1.2.2.2.1.3.1.2.1m0,0v-1.4m0,1.4.1.1h.5m-2.2-2.6v-.1l.1-.1v-.1l.1-.1.1-.1.1-.1h.2m1,1.7-.2-.1-.3-.2-.2-.1-.2-.1-.2-.2-.2-.1-.1-.2-.2-.1m2.2,1.1-.1.1h-.2l-.1-.1H222m0,0,.1-.1v-.2l.1-.1v-.1l.1-.1v-.1h.1m.1,2.5h0l.1-.1v-.2m.7-5,.2.1.4.2.4.2.5.1.5.1h.9m-.6.8H225l-.6-.1-.5-.2-.5-.2-.3-.2m0,0-.4-.3-.2-.3-.1-.3v-.2m.2,3.8v1.5m0,0,.5-.1h.2m-.7-1.4v-.3l-.1-.1v-.2l-.1-.1m1.5.7h-1.3m-1.5-4.1v.1l-.2.1m0,0,.3.3.3.2.1.3.1.3-.1.3-.1.2-.2.3-.3.3m0,0,.1.1.1.1.2.2.2.1.2.1.2.2.2.1.2.1m0,0,.6-.1h1.5M33.7,161.63v102.7M33.7,34v50.2m2.8,78.1v99.2m0-226.7v43.9m-.4,83.5V262m0-227.3v44.9M15.4,296.13v11.6M4.5,293.13v11.6m11,3v.1m-10.9-3,.1.1m-.2-12,.2-.2M15.8,296l-.3-.3m-11-2.6.2-.4M15.5,296v-.3M38.7,93.13l.3-.2m-.4,0,.4-.1m-.1-.2H39m-.2,0h.3m0,.5.2-.1m2.1-16.3.4-.1m-.5,0,.5-.1m-.1-.2h.1m-.2-.1h.2m0,.5.2-.1m-2,8.3.4-.1m-.4-.1.4-.1m-.1-.1h.1m-.2-.1h.3m-.1.5.2-.1m312.7,315.3-.1-.1h-.1l-.1-.1m.3.2v.1l.1.1v.1h.1m2.7.4v.3h.1v.1h.1m.9-.3-.1.1m-3.9-1v.1m0,0,2.9.7m0,0v-.1m.7.2h-.6l-.1-.1M9.3,306.63l-.1-.1H9.1l-.1-.1m.3.2v.1l.1.1v.1l.1.1m2.7.3v.3l.1.1h.1m.9-.3-.1.1m-3.9-1v.1m0,0,2.9.7m0,0v-.1m.7.2h-.5l-.2-.1m1.6-139.6-7.6-2m351.6,95.5-7.6-2M24.7,96.63l8,2.1M.5,140.93l8.4,2.3m-6.4-23.7,8.4,2.2M0,127.23l8.3,2.2m371.8,63.8-8.4-2.3M356,237.53l-8.4-2.3m7.8-11.4-8.4-2.3m11-5.4-8.4-2.3m-331.9-76-5.7-1.5m331.8,90.2L18.2,138m329.1,89.4-2.9-.8m3,2.9-337-91.6m338,109L10,155m337.5,77.9L9.3,141m338.2,91.8L9.3,140.93m338.1,88.7L10.3,138M343,227.63l-.3-.1-.2-.1-.1-.2V227l.1-.1.1-.2.3-.1.3-.1h.7l.3.1.2.1.2.2.1.2-.1.1-.1.2-.2.1-.3.1-.4.1h-.3l-.3-.1m1.9-.3v.1l-.1.2-.2.2-.3.1-.3.1-.4.1-.4-.1h-.3m0,0-.4-.1-.2-.2-.2-.2v-.2M17.9,137.93l.3.1.2.2.1.1v.2l-.1.2-.2.1-.2.1-.3.1H17l-.3-.1-.3-.1-.1-.2-.1-.1v-.2l.2-.2.2-.1.3-.1h1m.9.8h0l-.1.2-.1.2-.3.1-.3.1-.4.1h-.7l-.4-.1-.3-.2L16,139l-.1-.2v-.1m19.6-1.1,307.1,83.5M53.4,119.53v-.1m-39.6,10.9h0m20.6,5.6h0m.4,0h-.1m-.2-2.6-16.2-4.4m0,0,14.2-12.6m0,0,16.3,4.4m0,0-14.3,12.6m-1.8-19.8v.2m20.8,5.5v.2m-21.1-5.8v.1m-18.8,16.5v-.1m21.3,6.2,19.7-17.2m-20.2,23.3.1-5m19.9-17.6-19.2,16.9m-.3.7-.1,5.1m.1-6.2-22.2-6m21.8,7.1-22.2-6m22.2,6h.4m.3-.7h-.1v.1l-.1.1v.2l-.1.1v.2m0-1.1.1.1h.1v.1l.1.1v.1m-.7.7v-.1l.1-.2V137l.1-.2v-.1l.1-.2.1-.1v-.1m309,84h-.1l-.1.1m-.2,1h-.1v-.1h-.1m4.5-4.4-3.9,3.4m-.4,1.1-.2,4.9m3.7-5.1-3.1-.9m0,0-.1.1v.1l-.1.1-.1.2v.1l-.1.2v.3m3.6,1-3.6-1m28.9-31.3L42,100.33m330,90.3L41.6,100.83m17.5,19.4L32.4,113m37.1,10-6.6-1.8M76.6,125l-3.3-.9m13.7,3.7L80.4,126m13.3,3.6-3-.8m9.8,2.7-3-.9m13.4,3.7-6.7-1.8m13.8,3.7-3.4-.9m13.7,3.7-6.6-1.8m13.4,3.7-3-.8m9.8,2.6-3-.8m13.3,3.6-6.6-1.8m13.7,3.7-3.3-.9m13.7,3.8-6.6-1.8m13.4,3.6-3-.8m9.7,2.6-3-.8m13.4,3.7L187,155m13.7,3.7-3.3-.9m13.7,3.7-6.6-1.8m13.3,3.6-3-.8m9.8,2.7-3-.8m13.3,3.6-6.6-1.8m13.7,3.7-3.3-.9m13.7,3.7-6.6-1.8m13.4,3.7-3-.8m9.7,2.6-3-.8m13.4,3.6-6.6-1.8m13.7,3.8-3.3-.9m13.7,3.7-6.6-1.8m13.3,3.6-3-.8m9.8,2.7-3-.9m13.4,3.7-6.6-1.8m13.7,3.7-3.4-.9m13.7,3.7-6.6-1.8m13.4,3.7-3-.8m9.8,2.6-3-.8m15.1,4.1-8.4-2.3m11.1-.5L32.4,109.53M372,190.63,41.5,100.83m322.1,98.5-331.1-90M372,190.63,41.5,100.83m49.2-7.5h0m0,.3h0l-.1-.1m-3.4,2.7h0m.2-1.3V95m29.7,4-24.5-6.6m107.9,29.3-71.7-19.5m155.1,42.1-71.7-19.4m108.3,29.4-24.9-6.8m25,6.9-.1-.1m-2,.5L90.9,92.93m227.4,62.2L90.7,93.33m227.7,61.9-.1-.1m-.1.3L90.7,93.63m227.7,61.8h-.2m1.6,2.2-.1.1m-7,.3-.1.1m.7-2.4L87.9,94.43m224.3,62.9-225-61.1m225.1,61.2v-.1h-.1m.4-1.5-225-61.2m224.8,61.5L87.4,95m225,61.1h.1m-105.7-34-2.8-.8m-1.6-3.8-.1.1m10.3,2.8.1-.1m-.3,3.3-2.8-.8m3.5-1.8-.1.1m-12.3.2,2.9.7m2.8.8,2.8.8m-9.4-1.4-.1.2m11.1,2.6v.3m-.8-.1.1-.2m-92.7-26.4,2.8.8m2.8.7,2.8.8m-9.4-1.4v.3m11.1,2.6-.1.2m-.7,0v-.3m-3.3-2.9-2.8-.7m-1.5-3.8H119m10.2,2.8h.2m-.3,3.3-2.9-.8m3.6-1.8h-.1m154.4,45.5,2.8.8m2.8.7,2.9.8m-9.5-1.4v.3m11.1,2.6-.1.2m-.7,0v-.3m-3.3-2.9-2.8-.7m-1.5-3.8h-.1M296,143h.1m-.3,3.3-2.8-.8m3.5-1.8h-.1M39.6,57.23l337,91.6M41.3,46.13l337,91.6M41.7,45.43l337,91.6M39.6,57.13v.1M41.3,46v.1m335.4,102.8.1-.1m0,0h-.2m2.2-11.6-.1-.2m-.2.7h-.2m-181.4-3.9h0m1.2.4v-.1m.1.2h0m-.3-.3h.1m.2.2h0m0,0h0m-.3-.7h0m.2-.4h.1m.2-.4h.1m.9,1.8h0m0,0h0m-.9-1.8h0m.9.2h0m-1-.3h0m.7-1.1h0m1.9,3.6h0m0-.2h0m0,.1h0m-1.8-4.6h0m.7.2v-.1m0,.1h0m.8,3.9h0m9.6,3h.1m1.2.3h0m.1.2h0m-.3-.3h0m.2.1h0m.1.1h0m-.3-.7h0m.2-.5h0m.3-.4h0m.9,1.9h.1m0,0h0m-1-1.9h.1m.9.3h0m-1-.4h0m.6-1.1h.1m1.9,3.6h0m0-.1h0m0,.1h0m-1.8-4.7h0m.7.2h0m0,.1h0m.8,3.9h0m3.1,1.2h0m0,0h0m1.5.5h0m-.1-.1h.1m0,0h0m0,0h0m-.2-.4h0m.5-3.1h0m.1-.2h0m-1.3-.6h0m1.6.5h0m-.1-.1h0m.1,0h0m-14.6-3.6h0m-1.3-.7h0m1.5.5h0m0-.1h0m0,0h0m0,4.2h0m.8-1.7h0m-1-2.1h0m.3,2.2h0m1.9.6h0m-.3-2.4h.1m-1.2-.7h0m1.4.6h0m0-.2h0m0,.1h0m-.3.3h.1m.1,2.2h0m-.2,1.6h0m1.8-3.2h0m.1-.1h0m-.8-.7h.1m1.1.5h0m0-.1V133m0,.1h0m-18.5-1h0m0,0h0m1.3.4h0m.1.1h0m0-.1h0m0,.1h0m-.2-.4h0m.2-1.4h0m.7,1.9h0m.1,0h0m-.6-2.5h0m-.1-.1h0m.2-1.1h0m.1-.2h0m-1.2-.6h0m1.5.5h0m-.1-.1h0m.1.1h0m1.6,4.4h0m.1,0h0m.1.2h0m0-.1h0m0,0h0m-1.6-2.9h.1m1.3-.8h0m-.9-.7h.1m1.5.6v-.1m-.1-.1h0m.1.1h0m186.7,2.5-337-91.6M381.6,132l-337-91.6m.3,60.5v.2m6.7,1.8.1-.2m.1.1v.2m-8.2-2.5-.2.2m.2-.2h0m-9.6-.2h-.3m-.1-.9.5.1m1.1-2.6-.5-.2m.8-1.4.6.2m-2.6,1.6.7.2m5.1-25.2.7.2m0,0-.3.1m.7,22.2.3-.1m-4.8.6,3.8-22.7m4.3,2.7-.3.1m-1.2-2,.3-.1m-2.8-.8h0m-2.6,34.2-.2-1.1m1-7H38m1.9,2.5v-.6l-.1-.1m-.9-.8v-.6l-.1-.1m-.4-.3h-.2m-1,7-2.2-.5m3.9-5.5v-.1l-.1-.2V99l-.1-.2-.1-.1-.1-.1-.1-.1-.2-.1m0,.1v-.1m-.1,0,.1.1m-1,6.9-.1-.2v-.3l-.1-.2-.1-.2-.1-.2-.1-.2-.1-.2-.1-.2m1.8,1.4-.1.1-.1.1H38l-.2.1h-.1l-.2.1h-.2l-.1-.1m1-6.9h.1l.1.1.2.1.1.1V99l.1.1v.3m-.6-.9h-.1m.2.2v.1l.1.1v.3l-.1.2m-5.2,1-.2.5m3.6,2.8-2.2-.5m2.8-6.1.1.1v.6m-.8-1.1h.2m-.1,7-1.6-2.4m1.6,2.4H37l.1-.1.2-.1.1-.1.1-.1.1-.1m-2.7-1.9-.7-.1m.7.1.1.1.2-.1h.1l.2-.1h.1l.1-.2.1-.1.1-.1m-1,.5h-.1v-.2l-.1-.1v-.4m5.2.3-1-1.5m0,0h-.1m-.5,0,.1.1h.3l.1-.1m-.5,0-1.1-1.6m0,0v-.1H37m-1.2,2.7v.3h.1v.1m0,0,1.7,2.4m0,0,.1.2.1.2.1.2.1.2.1.2v.3l.1.3.1.3m0,0,.1.6m1.8-2.9v-.9l-.1-.4-.1-.4-.1-.2m-3.5-4.2-.7-.2m-1,4.1-.7-.1m2.4-3.8h.1l.1.1.1.1.1.2.1.1.1.2v.3m-2.3,2.9v-.4l.1-.5.1-.5.1-.5.2-.5.2-.5.2-.4.3-.3.2-.2.3-.1m-1.7,3.9.2.1h.4l.2-.1h.1l.1-.1.1-.1m1.2-2.7-.3.1-.2.2-.2.3-.2.4-.1.4-.1.5-.1.4v.4m368.5,19.3L41.2,21m354,111.1L32,33.43m363.2,95.5L32,30.23m363.4,98.3L32.1,29.83M56.7,5.53l-.2.1m363.8,98.9v3.6m0-3.6-.1-.2m-36.7,66.8-6.4-1.7M391.9,133,37.4,36.63m354.5,96.1L37.5,36.43m194.6,275-.5.5m0,0-.3-.1m1-.7v.3m7.6,2.8-.3-.1m-.8-.9v-.3m-27.5-7.2-.5.5m0,0h-.3m1-.7v.2m7.5,2.8-.2-.1m-.8-.9v-.2M190.5,300l-.5.6m0,0-.3-.1m1-.7v.3m7.5,2.7H198m-.8-1v-.2m183.9,51.7-.7.7m38.7-244.8v237.9m-23.9-214.9v238.3m-3.1-239.1V370m2.7-237.9v238.4m-2.5-.4-.1-.1m2.7.6h-.1m-35,18.9v11.6m-.4-11.6v11.7m-10.9-14.6v11.6m.1.1h.1m10.8,2.9v.1m-11.1-14.9.3-.2m11.1,3.3-.3-.4m-.1.4.1-.4m-11-2.5.2-.4M38.5,97.53v.1m346,73.4-.5-.2m-11.3,19.1L39.2,99.33m339.7,82.1-3.6-1m-1,7.6-.9-.3m1.2-.1-.5-.2M38.5,97.53h0m.7-1.6-.1.1m333.2,91.9-.1.1m.1-.1h-.1M39.1,96H39m333.1,91.9L36.7,96.73"/>
    <g>
      <path class="cls-5" d="M169.66,113.9c-3.3,4.36-5.12,10.81-4.53,15l-3.78-1.17,8.1,11,7.46-6.2L171.66,131c-.26-4.22,1.53-10.11,4.61-14.19,3.44-4.56,9.29-6.54,9.29-6.54L179,107.35S173.1,109.33,169.66,113.9Zm17.76-10-14.3,1.39,17.33,5.57Z"/>
      <path class="cls-6" d="M169.66,113.9c-3.3,4.36-5.12,10.81-4.53,15l-3.78-1.17,8.1,11,7.46-6.2L171.66,131c-.26-4.22,1.53-10.11,4.61-14.19,3.44-4.56,9.29-6.54,9.29-6.54L179,107.35S173.1,109.33,169.66,113.9Zm17.76-10-14.3,1.39,17.33,5.57Z"/>
    </g>
  </g>
</svg>
