<svg id="レイヤー_1" data-name="レイヤー 1" xmlns="http://www.w3.org/2000/svg" viewBox="0 0 421.69 397.79"><defs><style>.cls-1,.cls-2,.cls-4,.cls-5{fill:none;}.cls-1,.cls-3,.cls-4{stroke:#000;}.cls-1,.cls-2,.cls-3,.cls-4{stroke-linecap:round;stroke-linejoin:round;}.cls-1{stroke-width:0.99px;}.cls-2{stroke:gray;stroke-width:0.51px;}.cls-3{fill:#fff;}.cls-3,.cls-4,.cls-5{stroke-width:1.94px;}.cls-5{stroke:#fff;}.cls-6{fill:#231815;}</style></defs><path class="cls-1" d="M636.9,522.59l-1,1.1-1.4,1.9-1.1,2-.8,2.1-.5,2m0,0-.2.7-.5.6-.7.5-.9.4-1.1.4-1.2.2-1.2.1-1.3-.1-1.2-.2-1.1-.3-.9-.5-.8-.5-.5-.6-.2-.6v-.6m-45.9-12.5v.8l.4.6.6.6.8.5,1,.4,1.1.3,1.2.2h1.3l1.2-.1,1.2-.3,1-.4.9-.4m0,0,1.3-1,1.1-1m0,0,7.8-7.6m1.4,14.3v.7l.3.6.4.5.7.5.8.4.9.3,1.1.2,1.1.1,1.1.1,1.1-.2,1-.2,1-.3.8-.4.7-.4m0,0,.9-.9.7-.9m0,0,2-2.9,2.3-2.9,2.5-2.8V517m-20.8-4.6-.9-.3m21.7,5.9-.7-.2m21.5,5.9-.8-.2m-40.8-11-1-.3m21.8,5.9-.8-.2m21.6,5.9-.9-.3m-13.9,3.6H622l-.5-.1-.5-.2-.5-.2-.3-.3-.3-.3-.2-.3v-.3m-218-14.7h0v.1h.1m10.9,3h.4v-.1m0-11.6v11.6m-11.3-2.9,1.2.6,1.3.4,1.3.5,1.3.3,1.4.4,1.5.3,1.4.3,1.5.2m0-11.6h.3v-.1h.1m0,0h0m-.3,0h.3m-11.3-2.9,1.2.5,1.3.4,1.3.5,1.4.4,1.4.3,1.4.3,1.5.3,1.5.2m-11-3.1h-.1v.1h.1v.1m2.9-3.1-2.9,2.9m33.6-32.9L417.1,484m-12.4,12-3,3m33.7-32.9-18.3,17.8M401.7,499h0v.1l.1.1m0,0,1.2.5,1.3.5,1.3.4,1.3.4,1.4.3,1.5.4,1.4.2,1.5.3m.1,11.7-1.4-.2-1.5-.3-1.4-.3-1.4-.4-1.3-.4-1.3-.4-1.3-.4L402,511m15.1-27,18.3-17.9M401.8,499l2.9-2.9m-2.9,3.1v-.1h-.1V499h.1m11.3,14.7,36.4-35.5m-3.2-8.6-33.2,32.5m0,0h-.3m-8.1-6-2.7,2.7m33.5-32.6-18.4,17.9m-4.3,17.7,33.3-32.5m-33.3,32.8-1.5-.2-1.5-.3-1.4-.3L407,501l-1.4-.4-1.3-.5-1.3-.4-1.2-.5m.2-.4,1.2.5,1.3.5,1.3.4,1.3.4,1.4.3,1.4.4,1.5.2,1.4.3m18.4-207.9.2-.4m-.8-.1.2-.1m1.1.5v-.1m-1.5-.8.1-.1.1-.1m1.7,1v.3m-.9-.3h.1m-.1.3v-.3m-.2.2.2.1m-.3-.3.1.2m-.2-.4h0l.1.1v.1m-.5-.3.4.1m-.4-.3v.2m.4,0-.4-.2m.5.1h0v.1H431m.1-.3v.2m.2-.1-.2-.1m.2.3v-.2m.2.3h-.1v-.1h-.1m.6.3-.4-.2m.4.3v-.1m-.4,0,.4.1m-.8-.9.4.1.2.2.3.2.1.2.1.3v.1l-.1.2h-.8l-.3-.2-.3-.1-.2-.3-.2-.2V293l.1-.1.2-.1h.2l.3.1m1.6,6.2.2-.4m-.7-.1.1-.1m1.1.5v-.1m-1.5-.8.1-.1.2-.1m1.6,1v.3m-.9-.2v-.1h.2m-.1.3-.1-.2m-.2.1.3.1m-.3-.3v.2m-.2-.4.1.1h.1v.1m-.5-.3.3.1m-.4-.3.1.2m.3,0-.4-.2m.5.1v.1h-.1m.1-.3v.2m.3-.1-.3-.1m.3.3v-.2m.1.3h-.1v-.1m.5.3-.4-.2m.4.3v-.1m-.3,0,.3.1m-.7-.9.3.1.3.2.2.2.2.3.1.2-.1.2-.1.1-.2.1h-.2l-.3-.1-.3-.2-.3-.1-.2-.2-.2-.3-.1-.2v-.2l.1-.1.2-.1h.3l.3.1m1.6,6.2.2-.4m-.8-.1.2-.1m1.1.6-.1-.2m-1.5-.8.1-.1.2-.1m1.6,1,.1.1v.2h-.1m-.8-.2h0v-.1h.1m-.1.3v-.2m-.2.1.2.1m-.3-.3.1.2m-.2-.3h.1v.1m-.5-.3.4.2m-.4-.3v.1m.4,0-.4-.1m.5,0v.1h-.1m0-.3.1.2m.2-.1-.3-.1m.3.3v-.2m.2.4-.1-.1h-.1v-.1m.6.3-.4-.1m.4.3v-.2m-.4,0,.4.2m-.8-1,.3.2.3.1.3.2.1.3.1.2v.2l-.1.1-.2.1h-.3l-.3-.1-.3-.1-.3-.2-.2-.2-.2-.3-.1-.2.1-.2.1-.1.2-.1h.2l.3.1m-30.7,68.5,1.3,126.3m7.6,2.1-7.6-2.1m12.3-2.5V363.89m-6,9.9,1.3,126.4m0,0,4.7-4.6m-14.2-134.8.1,1,.2,1.6.1,1.7.1,1.6v1.7l.1,1.7v1.7m6.9-9.7.1.3.1,1.5.2,1.6.1,1.6.1,1.7.1,1.6v3.4m336.4,91.5,1.2,126.3m7.6,2.1-7.6-2.1m12.4-2.6V449.39m-6,17.9,1.2,126.4m0,0,4.8-4.7m-14.2-134.7.1,1,.1,1.6.2,1.6.1,1.7v1.7l.1,1.6v1.8m7-9.4.1,1.5.2,1.6.1,1.6.1,1.7v1.6l.1,1.7v1.7M428.7,294h0l-1.1,1.7-1.1,1.5-1.1,1.5-1.2,1.4-1.1,1.3-1.1,1.3m-23.3,56.9h0m.4.2-.4-.2m8.3,2.3-7.9-2.1m7.9,2.1h.1M397.8,347l.1,1.6.1,1.6.1,1.6.1,1.6.1,1.6.1,1.5.2,1.5.1,1.6m0,0,8.4,2.2m14.9-59.1-22.2,22.9m-2.5,7.7.5,13.7m2-21.4-.3.4-.4.5-.3.5-.3.6-.3.7-.2.7-.3.7-.1.8-.2.7-.1.7v1.4m34.3-29.7-.1.1-1.2,1.2m0,0-22.1,22.9m0,0-.4.4-.3.5-.3.6-.3.6-.3.7-.3.7-.2.7-.2.7-.1.8-.1.7-.1.7v.6m0,0,.6,13.8m0,0,.1,1.6.1,1.6.1,1.6.1,1.6.1,1.5.1,1.6.1,1.5.2,1.5m0,0v.1m0,0,.6-.6M782,377h-.1m0,0-1,2-1,2-1,2-1,1.8-1.1,1.8-1.1,1.7-1,1.7-1.2,1.6-1.1,1.4-1.1,1.4-1.1,1.4L769,397m12.9-20h.1m-36.2,76.9h0m.4.2-.4-.2m.4.2,7.8,2.1m0,0h.2m-9.3-14.9.1,1.6.1,1.6v1.6l.2,1.6.1,1.6.1,1.5.1,1.6.2,1.5m8.3,2.3-8.3-2.3M769,397l-22.1,22.9m-2.6,7.7.6,13.7m2-21.4-.4.4-.3.5-.3.5-.3.7-.3.6-.3.7-.2.8-.2.7-.1.7-.1.7-.1.7v.7m44.9-46.1-.9,1.8-1,1.9-1.1,1.9-1,1.8-1.1,1.7-1.1,1.7-1.1,1.5-1.1,1.5-1.1,1.4-1.2,1.3-1.1,1.3m0,0-22.1,22.9m0,0-.4.4-.3.5-.4.5-.3.6-.3.7-.2.7-.2.7-.2.8-.2.7-.1.7v1.4m0,0,.6,13.7m0,0v1.6l.1,1.6.1,1.6.1,1.6.1,1.5.1,1.6.2,1.5.1,1.6m.1,0h-.1M789.2,422l-35,34.2m-346.9-95.1h0v.1h.1v.1m1.9-18.9h0m0,0-1.6,1.6m0,0h-.1v.1m-1,3v1.8l.1,1.8v1.8l.1,1.7.1,1.7.2,1.8.1,1.7.1,1.7m-.7-14.1h0v.1m1-3-1,2.9m0,.1v1.8l.1,1.8.1,1.7.1,1.8.1,1.7.1,1.7.1,1.7.1,1.7m334.9,72.6v.1l-.1.2-.2.2-.3.1-.3.1-.4.1-.4-.1h-.3m0,0-.4-.1-.2-.2-.2-.2v-.2M416.1,345h0l-.1.2-.1.2-.3.1-.3.1-.4.1h-.7l-.4-.1-.3-.2-.2-.1-.1-.2V345m347.7-10.5.2-.1.3-.1h.3l.4.1.3.2.3.2.2.4.1.3.1.3v.4l-.2.2-.1.1m0,.1-.2.1m-1.9-2.1h.1m-299.5-81.5h0l.3-.2h.6l.4.1.3.2.3.3m0,0,.2.3.1.4v.6l-.2.3m-2.2-1.8.1-.1m-3.8,72.3L446,335m14.2-8.7-2.8-.8m-12.5,13.3-.1.2m1.2-4-1.1,3.8m2.8.8-2.8-.8m3.9-3L446,335m14.5-6.8-.3.3m0,0v-2.2m0,0-11.4,9.5m0,0-1.1,3.8m0,0v.1m20-11.4-11.3,9.6m14.2-8.8-2.9-.8m-12.5,13.4v.1m1.2-3.9-1.2,3.8m2.8.7-2.8-.7m4-3.1-2.8-.7m14.5-6.8-.3.2m0,0v-2.2m0,0-11.4,9.5m0,0-1.2,3.8m0,0v.2m16.8-12.3-11.3,9.5m14.1-8.8-2.8-.7m-12.5,13.3v.1m1.2-3.9-1.2,3.8m2.8.8-2.8-.8m4-3.1-2.8-.7M478,333l-.3.3m0,0-.1-2.3m0,0-11.3,9.5m0,0-1.2,3.9m0,0v.1m20.1-11.4-11.3,9.5m14.1-8.7-2.8-.8m-12.5,13.3v.1m1.2-3.9-1.2,3.8m2.8.8-2.8-.8m4-3-2.8-.8m14.5-6.8-.3.3m0,0-.1-2.2m0,0-11.3,9.5m0,0-1.2,3.8m0,0v.1m16.5-12.4-11.4,9.5m14.2-8.7-2.8-.8m-12.5,13.3v.2m1.1-4-1.1,3.8m2.8.8-2.8-.8m3.9-3-2.8-.8m14.5-6.8-.3.3m0,0v-2.2m0,0-11.4,9.5m0,0-1.1,3.8m0,0v.1m16.4-12.3-11.3,9.5m14.1-8.8-2.8-.7m-12.5,13.3v.1m1.2-3.9-1.2,3.8m2.8.7-2.8-.7m4-3.1-2.8-.7m14.5-6.8-.3.2m0,0-.1-2.2m0,0L490.2,347m0,0-1.2,3.8m0,0v.2m20.1-11.4-11.4,9.5m14.2-8.8-2.8-.7m-12.5,13.3v.1m1.1-3.9-1.1,3.8m2.8.8-2.8-.8m4-3-2.9-.8m14.5-6.8-.3.3m0,0v-2.3m0,0-11.3,9.6m0,0-1.2,3.8m0,0v.1m16.8-12.3L504.8,351m14.2-8.7-2.8-.8m-12.5,13.3v.2m1.1-4-1.1,3.8m2.8.8-2.8-.8m3.9-3-2.8-.8m14.5-6.8-.3.3m0,0v-2.2m0,0-11.4,9.5m0,0-1.1,3.8m0,0v.1m20.1-11.4-11.4,9.6m14.2-8.8-2.8-.8m-12.5,13.4v.1m1.1-3.9-1.1,3.8m2.8.7-2.8-.7m3.9-3.1-2.8-.7m14.5-6.9-.3.3m0,0v-2.2m0,0-11.4,9.5m0,0-1.1,3.8m0,0v.1m16.4-12.3-11.3,9.5m14.2-8.8-2.9-.7m-12.5,13.3v.1m1.2-3.9-1.2,3.8m2.8.8-2.8-.8m4-3-2.8-.8m14.5-6.8-.3.3m0,0v-2.3m0,0-11.4,9.6m0,0-1.2,3.8m0,0v.1M540.1,348l-11.4,9.5m14.2-8.7-2.8-.8m-12.5,13.3v.2m1.1-4-1.1,3.8m2.8.8-2.8-.8m3.9-3-2.8-.8m14.5-6.8-.3.3m0,0v-2.2m0,0-11.4,9.5m0,0-1.1,3.8m0,0v.1m20.1-11.4-11.4,9.5m14.2-8.7-2.8-.8M538,364.09v.2m1.1-4-1.1,3.8m2.8.8-2.8-.8m3.9-3-2.8-.8m14.5-6.8-.3.3m0,0v-2.2m0,0-11.4,9.5m0,0-1.1,3.8m0,0v.1m16.8-12.2-11.4,9.5m14.2-8.8-2.8-.7m-12.5,13.3v.1m1.1-3.9-1.1,3.8m2.8.7-2.8-.7M549,363l-2.8-.7m14.5-6.8-.3.2m0,0v-2.2m0,0L549,363m0,0-1.1,3.8m0,0v.2m20.1-11.4-11.4,9.5m14.2-8.8-2.8-.7m-12.6,13.3v.1m1.2-3.9-1.2,3.8m2.9.8-2.9-.8m4-3-2.8-.8m14.5-6.8-.3.3m0,0v-2.3m0,0-11.4,9.6m0,0-1.1,3.8m0,0-.1.1m16.5-12.4-11.4,9.5m14.2-8.7-2.8-.8m-12.5,13.3v.2m1.1-4-1.1,3.8m2.8.8-2.8-.8m4-3-2.9-.8m14.5-6.8-.3.3m0,0v-2.2m0,0-11.3,9.5m0,0-1.2,3.8m0,0v.1m16.5-12.4-11.4,9.6m14.2-8.8-2.8-.8M569,372.59l-.1.1m1.2-3.9-1.1,3.8m2.8.7-2.8-.7m3.9-3.1-2.8-.7m14.5-6.8-.3.2m0,0V360m0,0-11.4,9.5m0,0-1.1,3.8m0,0v.2m20-11.4-11.3,9.5m14.2-8.8-2.9-.7m-12.5,13.3v.1m1.2-3.9-1.2,3.8m2.8.8-2.8-.8m4-3.1-2.8-.7m14.5-6.8-.3.3m0,0v-2.3m0,0-11.4,9.5m0,0-1.2,3.9m0,0v.1M598.9,364l-11.3,9.5m14.1-8.7-2.8-.8m-12.5,13.3v.1m1.2-3.9-1.2,3.8m2.8.8-2.8-.8m4-3-2.8-.8m14.5-6.8-.3.3m0,0-.1-2.2m0,0-11.3,9.5m0,0-1.2,3.8m0,0v.1m20.1-11.4-11.3,9.5m14.1-8.7-2.8-.8m-12.5,13.3v.2m1.2-4-1.2,3.8m2.8.8-2.8-.8m4-3-2.8-.8m14.5-6.8-.4.3m0,0v-2.2m0,0-11.3,9.5m0,0-1.2,3.8m0,0v.1m16.5-12.3-11.4,9.5m14.2-8.8-2.8-.7M603.6,382v.1m1.1-3.9-1.1,3.8m2.8.7-2.8-.7m3.9-3.1-2.8-.7m14.5-6.8-.3.2m0,0v-2.2m0,0-11.4,9.5m0,0-1.1,3.8m0,0v.2m16.4-12.4L611.5,380m14.1-8.7-2.8-.8m-12.5,13.3v.1m1.2-3.9-1.2,3.8m2.8.8-2.8-.8m4-3-2.8-.8m14.5-6.8-.3.3m0,0-.1-2.2m0,0-11.3,9.5m0,0-1.2,3.8m0,0v.1m20.1-11.4-11.4,9.5m14.2-8.7-2.8-.8m-12.5,13.3v.2m1.1-4-1.1,3.8m2.8.8-2.8-.8m3.9-3-2.8-.8m14.5-6.8-.3.3m0,0v-2.2m0,0-11.4,9.5m0,0-1.1,3.8m0,0v.1m16.8-12.3-11.4,9.5m14.2-8.7-2.8-.8m-12.5,13.4v.1m1.1-4-1.1,3.9m2.8.7-2.8-.7m3.9-3.1-2.8-.8m14.5-6.8-.3.3m0,0V376m0,0-11.4,9.5m0,0-1.1,3.8m0,0v.1m20.1-11.3-11.4,9.5m14.2-8.8-2.8-.7m-12.5,13.3-.1.1m1.2-3.9-1.1,3.8m2.8.7-2.8-.7m3.9-3.1-2.8-.7m14.5-6.8-.3.2m0,0v-2.2m0,0-11.4,9.5m0,0-1.1,3.8m0,0v.2m16.4-12.4-11.3,9.5m14.1-8.7-2.8-.8m-12.5,13.3v.1m1.2-3.9-1.2,3.8m2.8.8-2.8-.8m4-3-2.8-.8m14.5-6.8-.4.3m0,0v-2.2m0,0-11.3,9.5m0,0-1.2,3.8m0,0v.1m16.5-12.4-11.4,9.5m14.2-8.7-2.8-.8M651.7,395v.2m1.1-4-1.1,3.8m2.8.8-2.8-.8m3.9-3-2.8-.8m14.5-6.8-.3.3m0,0v-2.2m0,0L655.6,392m0,0-1.1,3.8m0,0v.1m20.1-11.4-11.4,9.6m14.2-8.8-2.8-.8M662,397.89v.1m1.2-3.9-1.2,3.8m2.9.7-2.9-.7m4-3.1-2.8-.7m14.5-6.8-.3.2m0,0v-2.2m0,0-11.4,9.5m0,0-1.1,3.8m0,0-.1.2m16.8-12.3L670.3,396m14.1-8.8-2.8-.7m-12.5,13.3v.1m1.2-3.9-1.2,3.8m2.8.8-2.8-.8m4-3-2.8-.8m14.5-6.8-.3.3m0,0-.1-2.3m0,0-11.3,9.6m0,0-1.2,3.8m0,0v.1m20.1-11.4-11.3,9.5m14.1-8.7-2.8-.8m-12.5,13.3v.1m1.2-3.9-1.2,3.8m2.8.8-2.8-.8m4-3-2.8-.8m14.5-6.8-.3.3m0,0-.1-2.2m0,0-11.3,9.5m0,0-1.2,3.8m0,0v.1m16.5-12.4-11.4,9.5m14.2-8.7-2.8-.8m-12.5,13.4v.1m1.1-4-1.1,3.9m2.8.7-2.8-.7m3.9-3.1-2.8-.8m14.5-6.8-.3.3m0,0v-2.2m0,0-11.4,9.5m0,0-1.1,3.8m0,0v.1M705.5,393l-11.3,9.5m14.1-8.8-2.8-.7M693,406.29v.1m1.2-3.9-1.2,3.8m2.8.8-2.8-.8m4-3.1-2.8-.7m14.5-6.8-.3.3m0,0-.1-2.3m0,0-11.3,9.5m0,0-1.2,3.9m0,0v.1m20.1-11.4-11.3,9.5m14.1-8.7-2.8-.8m-12.5,13.3v.1m1.2-3.9-1.2,3.8m2.8.8-2.8-.8m4-3-2.8-.8m14.5-6.8-.4.3m0,0v-2.2m0,0-11.3,9.5m0,0-1.2,3.8m0,0v.1m16.8-12.3-11.4,9.5m14.2-8.7-2.8-.8M710.5,411v.2m1.1-4-1.1,3.8m2.8.8-2.8-.8m3.9-3-2.8-.8m14.5-6.8-.3.3m0,0v-2.2m0,0L714.4,408m0,0-1.1,3.8m0,0v.1m20.1-11.4-11.4,9.6m14.2-8.8-2.8-.8m-12.5,13.4v.1m1.1-3.9-1.1,3.8m2.8.7-2.8-.7m3.9-3.1-2.8-.7m14.5-6.8-.3.2m0,0v-2.2m0,0-11.4,9.5m0,0-1.1,3.8m0,0v.2m16.4-12.4-11.3,9.5m14.2-8.8-2.9-.7m-12.5,13.3v.1m1.2-3.9-1.2,3.8m2.8.8-2.8-.8m4-3-2.8-.8m14.5-6.8-.3.3m0,0v-2.3m0,0-11.4,9.6m0,0-1.2,3.8m0,0v.1m16.5-12.4-11.4,9.5m14.2-8.7-2.8-.8m-12.5,13.3v.2m1.1-4-1.1,3.8m2.8.8-2.8-.8m3.9-3-2.8-.8m14.5-6.8-.3.3m0,0V405m0,0-11.4,9.5m0,0-1.1,3.8m0,0v.1M433,344l-.1,4.8m19.7-22.7L433,343.39m27.7-15.1-13,11.4m0,0-2.9-.7m26.3-7.9L458,342.59m0,0-2.8-.8m22.9-8.8-13,11.5m0,0-2.8-.8m26.2-7.8-13,11.4m0,0-2.8-.8m22.6-8.8-13,11.4m0,0-2.8-.7m22.5-8.9L489,351m0,0-2.8-.8m26.2-7.9-13,11.5m0,0-2.8-.8m22.9-8.7-13,11.4m0,0-2.8-.7m26.2-7.9-13,11.4m0,0-2.8-.7m29.3-7-13,11.4m0,0-2.8-.7m9-12.6-13,11.5m0,0-2.8-.8m33-6-13,11.4m0,0-2.8-.7m22.9-8.8-13,11.5m0,0-2.8-.8m26.2-7.9-13.1,11.5m0,0-2.8-.8m22.6-8.8-13,11.4m0,0-2.8-.7m22.6-8.9-13,11.5m0,0-2.9-.8m26.2-7.9-13,11.5m0,0-2.8-.8m22.9-8.7-13,11.4m0,0-2.8-.8m26.2-7.8-13,11.4m0,0-2.8-.7m22.6-8.9-13,11.5m0,0-2.8-.8m22.5-8.8-13,11.4m0,0-2.8-.8m26.2-7.8-13,11.4m0,0-2.8-.7m22.9-8.8-13,11.4m0,0-2.8-.7m26.2-7.9-13,11.5m0,0-2.9-.8m22.6-8.8-13,11.4m0,0-2.8-.8m22.6-8.8-13,11.4m0,0-2.8-.7m26.2-7.9-13.1,11.5m0,0L662,398m22.9-8.8-13,11.5m0,0-2.8-.8m26.2-7.8-13,11.4m0,0-2.8-.8m22.6-8.8-13,11.4m0,0-2.8-.7m22.5-8.9-13,11.5m0,0-2.8-.8m26.2-7.8-13,11.4m0,0-2.8-.8m22.9-8.7-13,11.4m0,0-2.8-.7m26.2-7.9-13,11.5m0,0-2.8-.8m22.6-8.9-13.1,11.5m0,0-2.8-.8m22.6-8.8-13,11.4m0,0-2.8-.7M432.8,344l307.1,83.4m-307.1-83.5v.1m0-.1,307.1,83.4m-307.1-83.6v.2m.2-.5,307,83.4m-307-83.4h0l-.1.1v.2h-.1m312.8,78.2-5.6,4.9m0,0v.1h-.1v.3m0,0v.1m0,0h0m0,0v.1m0,0,.2-.1m0,0-.2,4.9M450.6,325.39l-20.6-5.6m0,0v-.1h-.3v.1h-.1m0,0-18.7,16.4m0,0v.2h.2m0,0,20.6,5.6m.4,0,18.6-16.5m0,0h.1v-.1h-.2M431.7,342h.4m18.7-16.5h0m0,0h0m-21.1-6.4L410,336.39m19.7-16.7-18.8,16.5m19.1-16.6h-.2v.1h-.1m21.1,5.6-20.8-5.7m20.9,5.8h0v-.1h-.1M432.1,342l18.8-16.6M431.7,342v.1h.2V342h.2m-21.1-5.6,20.7,5.6m-20.8-5.8v.2h.1m-1.4,1.1-.2,4.9m23.5,5.6-.6.6M410,336.39v.1l-.1.1-.1.1-.1.2v.3l-.1.1v.2m20.1-18.4h0v.1m0-3.6v3.5m.1-3.7h0v.1h-.1v.1m8.9-8.3-.1.1-.4.5-.3.5-.3.5-.4.5-.3.6-.3.6-.3.6m0,0-.6.7-.7.6-.8.3-.7.1-.3-.1m0,0-2-.5m0,0-.2.3-.2.4-.1.4-.2.4-.2.4-.1.4-.2.4-.1.4m8.8-8.1-.1.1-.3.5-.4.5-.3.5-.4.6-.3.6-.3.5-.3.6m0,0-.3.5-.4.4-.8.5-.7.3h-.9m19,12.3-.4.4m298,81.2,7.8,2.1M743,405l2.2.6m-9-2.4,2.3.6m-12.7-3.5,5.9,1.6m-13-3.5,2.6.7m-12.9-3.5,5.8,1.6m-12.6-3.4,2.3.6m-9-2.5,2.2.6m-12.6-3.4,5.8,1.6m-12.9-3.5,2.6.7m-13-3.5,5.9,1.6m-12.7-3.5,2.3.6m-9-2.4,2.2.6m-12.6-3.4,5.9,1.6m-13-3.6,2.6.7m-12.9-3.5,5.8,1.6m-12.6-3.4,2.3.6m-9.1-2.4,2.3.6m-12.6-3.5,5.8,1.6m-12.9-3.5,2.6.7m-13-3.5,5.9,1.6M577.5,360l2.3.7m-9-2.5,2.2.6m-12.6-3.4,5.9,1.6m-13-3.5,2.6.7m-13-3.6,5.9,1.6m-12.6-3.4,2.2.6m-9-2.4,2.3.6m-12.7-3.5,5.9,1.6m-13-3.5,2.6.7m-12.9-3.5,5.8,1.6m-12.6-3.4,2.3.6m-9.1-2.5,2.3.6m-12.6-3.4,5.8,1.6M470.6,331l2.6.7m-13-3.5,5.9,1.5m-14.4-3.9,4,1.1m294,79.7,8,2.2m-14.7-4,2.4.6m-9.2-2.5,2.5.7m-12.9-3.5,6.1,1.7m-13.2-3.6,2.8.7m-13.1-3.5,6.1,1.6m-12.9-3.5,2.5.7m-9.3-2.5,2.5.7m-12.8-3.5,6.1,1.6m-13.2-3.6,2.8.8m-13.2-3.6,6.1,1.7m-12.9-3.5,2.5.6m-9.2-2.5,2.5.7m-12.9-3.5,6.1,1.7m-13.2-3.6,2.8.8m-13.1-3.6,6,1.6M618.9,371l2.5.7m-9.3-2.5,2.5.7m-12.8-3.5,6.1,1.6m-13.2-3.5,2.8.7m-13.2-3.6,6.1,1.7m-12.9-3.5,2.5.7m-9.2-2.5,2.5.6m-12.9-3.5,6.1,1.7m-13.2-3.6,2.8.8m-13.2-3.6L549,352m-12.8-3.4,2.4.6m-9.2-2.5,2.5.7m-12.9-3.5,6.1,1.7M511.9,342l2.8.7m-13.1-3.6,6.1,1.7m-12.9-3.5,2.5.7m-9.3-2.5,2.5.6m-12.8-3.4,6.1,1.6m-13.2-3.6,2.8.8m-13.2-3.6,6.1,1.7m-14.6-4,4.2,1.1m-4.2-1.1v.2m29.2-14.9h-.1v-.1m0,0-.1-1.3-.1-1.2-.1-1.2v-4.7l.1-1.2m.4-1,.4-.6m-.8,1.6.1-.2v-.3l.2-.2.1-.3m-.1,10.7v.2h.1M709.1,373v.1h-.2l-.1-.1v-.2m.6-4.9.1-.1h.1v.1m-.3.1.1-.1m-.3.3h.1m-.8-2.3.1.2m-.1-.2h0m-226.9-66.3-.4.6m225,61.1.3-.5m-225.7-59.4-.1,1.1-.1,1.2V306l.1,1.2v1.2l.1,1.2.2,1.3m.2-10.7-.2.3-.1.3-.1.3v.3m225.2,61.2v-1l.2-.3m2.7,11.5-.3-1.3-.3-1.2-.3-1.3-.3-1.3-.4-1.3-.4-1.2-.4-1.3-.5-1.3m3.5,5.6-.1.1h-.1v-.1m0,0-.7-2.1m0,0h0m0,0-.6-1.5m0,0v-.1m0,0-.9-2.1m0,0V362l.1-.1m0,0,.1-.2m0,0h0v-.1l.1-.1-.1-.1m0,0-.2-.5m-.4-.1-.4.6m0,0-.1.3-.1.3v.3l.1.2m0,0,.4,1.3.5,1.3.4,1.3.3,1.3.4,1.3.3,1.2.3,1.3.2,1.2m0,0v.2h.1v.1h.2l.1-.1.1-.1m0,0,1-1.6m0,0h0v-.3m0,0-.7-2.9m0,0h-.1v0h-.1m0,0-.1.2m-288.1-97.7v-.1h.1l.1-.1h.1m-4.5,11.8,337,91.6m-337-91.6-.8-2.3m.1-.3,4.9-9m338,93.7h0m-.6-2.2.6,2.2m-1-2.1V362h.1v-.1h.2v.1h.1m-5.3,9.1,4.9-9m-4.2,11.6-.8-2.3m.8,2.3h0m0,0-.8-2.4m0,0h0v-.1h.1v-.1m0,0,4.9-9m0,0h0l.1-.1.1-.1.1.1m-5.3,9.4v-.3h.1m-337.1-91.3v-.2l.1-.1m4.8-8.9.1-.1m-5,9.2v-.1m0,0,4.9-9m-4.9,9h0m342,82.5h0l.1-.1.1-.1.1.1m-4.4,11.7.1-.1m-.1.1h-.1m.2-.1h0m0,0,5-9.2m0,0v-.1m0,0-.6-2.1m0,0v-.1h-.2l-.1.1m-4.3,11.5.2-.1m-.8-2.3.8,2.3m-.2.1-.8-2.4m.1-.2,4.9-9m.1.1-4.9,9m-.2.1h0v-.1h.1v-.1m.1.1h0v.1m-161.8-26h0m.2,0h-.2m1.4.4h0m0,0h0m-.1-.1h-.1m0,0h-.1v-.1m.3.2H593v-.1m-1-.4h0l-.1.1m0,0h0m.9.2-.2-.1v-.1l-.1-.1m1.7.8v0m0,0h0m-1.7-.8.1-.3m1.9,1.1h-.3m.3-.1v.1m-.1,0h.1m1.4.5h0m-3.2-1.8h.1m3.1,1.8h0m-3.2-1.9h0v.1m3.2,1.8v-.1h-.1m0,0h-.1l-.1-.1m0,0-.1-.1v-.1m.1.2h0m-2.8-1.6.9.2m0,0h0m-.8-.9-.2.6m-.1-1.4h0v.1m.7.1-.7-.2m.8.3h0v-.1h-.1m2.2,2.7-2.1-2.6m2.5,3h0l-.1-.1m0,0h-.1l-.1-.1m0,0-.1-.1-.1-.1m0,0-2-2.6m0,0h-.1v-.1m0,0-.7-.1m0,0h-.1m0,0-.5,1.8m0,0v.1l-.1.1m0,0h-.2m0,0h-.1m0,0,.1.1m0,0h0m0,0,1.3.4m0,0h.1v-.1m0,0H593m0,0h0v-.1m0,0h-.1m0,0h-.1l-.1-.1m0,0-.1-.1-.1-.1v-.1m0,0,.1-.3m0,0h.1m0,0,1.2.4m0,0h.1m0,0,.4.6m0,0h.1v.1h-.1m0,0h-.2m0,0h0m0,0h-.1m0,0h0m0,0,.1.1m0,0,1.6.4m0,0h.1m0,0h0m-2.2-1.6h0m-1-.2,1,.2m-1-.2h0m0-.1h0v.1m.2-.7-.2.6m.2-.7v.1m.1,0h-.1v-.1m.8,1-.7-.9m.7.9h0m11.5,4h-.1m.3,0-.1.1-.1-.1m1.4.5h0m0,0-.1-.1m0,0h-.1m0,0-.1-.1h-.1m.3.1h0m-1.1-.5v.1m-.1.1.1-.1m.8.3-.1-.1-.1-.1v-.2m1.7.8h-.1m.1,0h0m-1.7-.8.1-.2m1.8,1h-.2m.2,0h0m0,0h0m1.5.6h0m-3.2-1.9h0m3.2,1.9v-.1m-3.2-1.8h0m3.2,1.8h-.1m0,0-.1-.1h-.1m0,0-.1-.1-.1-.1m.2.2h0m-2.9-1.7,1,.3m0,0h0m-.8-1-.2.7m-.1-1.4H606m.8.2-.7-.2m.8.2h-.1m2.1,2.7-2-2.7m2.5,3h-.1m0,0-.1-.1h-.1m0,0-.1-.1-.1-.1m0,0-2-2.6m0,0-.1-.1m0,0-.7-.2m0,0H606m0,0-.5,1.8m0,0-.1.2-.1.1m0,0h-.1m0,0h-.1m0,0h0m0,0h0l.1.1m0,0,1.3.3m0,0h0m0,0h0m0,0v-.1m0,0h-.1m0,0h-.1l-.1-.1m0,0-.1-.1-.1-.1v-.1m0,0,.1-.3m0,0h0m0,0,1.3.3m0,0h.1v.1m0,0,.4.5m0,0v.1m0,0-.1.1-.1-.1m0,0h0m0,0h-.1v.1m0,0h0m0,0h.1v.1m0,0,1.6.4m0,0h.1m0,0v-.1m-2.3-1.5h.1m-1-.2.9.2m-.9-.2h0m0-.1h0v.1m.2-.8-.2.7m.2-.7h0m.1.1-.1-.1m.8,1-.7-.9m.7.9h0m4.9,2.2H612m.1,0h0m.2,0h-.2m.1,0h.1m1.4.5h0m0,0h0m-.1-.1h0m.1.1h0l-.1-.1m0,0h-.1l-.1-.1m0,0-.1-.1m.1.1h0m-2-2.8h-.1m2,2.7-.6-2m0,0v-.1m.2,0h0v-.1m0,0h0m0-.1-1.5-.4m1.5.6h0m0,0v-.1m0,0-1.6-.4m0,0h0m0,0h0m0,0h0v.1h.1m0,0h0m0,0h.1l.1.1m0,0,.1.1m0,0,.6,2m0,0v.1h-.1m0,0v.1l-.1-.1m0,0h0m0,0H612v.1m0,0h0m0,0h.1v.1m0,0,1.5.4m0,0h.1v-.1m0,0h0m0,0h-.1v-.1m0,0h0m0,0h-.1l-.1-.1m0,0-.1-.1m0,0-.6-2m0,0v-.1m0,0h.2m0,0h0m0-.1h0v-.1m0,.1h0m-12.9-1.2h0m1.7.5h0m-2.1-1.5h-.1m.1,0h0m.4,1,.1-1m1.3.5h-.1m.2,0h-.1m-4.3-2.7H597v.1m1.5.6h-.1V345m1.1,1.6-1-1.5m.1-.2h0m0,0h0m-.1-.1-1.4-.4m1.5.5h-.1v-.1m.7.2h-.1m1.3.6h0m.9,1.5-.9-1.5m.2-.1h0m0,0v-.1m-.1,0-1.3-.4m1.4.4h-.1m1.2,2.7.6-1.9m-.9-.6h-.1m1,.6v-.1m.3-.1h0m0,0h0m-.1-.1-1.1-.3m1.2.4h0l-.1-.1m-4.1-.9h.1m0,0h0m0,0h0m0,0h.1m0,0-.1-.1m0,0h0m0,0-1.4-.4m0,0H597m0,0h0m0,0v.1h.1m0,0h0m0,0h.1m0,0,.1.1m0,0,.1.1v.1m0,0,1.9,2.5m0,0v.1h.1m0,0,.5.1m0,0,.1.1v-.1m0,0,.1-1m0,0h0m0,0h.1m0,0,.8,1.3m0,0h.1v.1m0,0,.5.1m0,0h.1m0,0,.5-1.9m0,0h.1v-.1m0,0h.2m0,0h0m0,0h0m0,0h.1V346m0,0h0m0,0h-.1v-.1m0,0-1.1-.3m0,0h-.1v.1m0,0h0m0,0h.1v.1m0,0h.1m0,0,.1.1h.1v.1m0,0h0m0,0v.2m0,0-.2.9m0,0h-.1m0,0h-.1m0,0-.9-1.4m0,0v-.1m0,0h0v-.1h.1m0,0h.1m0,0h0m0,0h0m0,0v-.1h-.1m0,0-1.4-.4m0,0h0v.1m0,0h0m0,0h0l.1.1m0,0h0m0,0h.1m0,0,.1.1m0,0v.1h.1m0,0,.2.3m0,0v.1m0,0-.1.8m0,0h0m0,0h-.1m0,0-1-1.5m0,0h-.1V345m-13-1.4h0m.1,0h-.1m.2,0h-.1m1.4.5h0V344m0,0h0m-.1-.1h-.1m.2.1h-.1v-.1m-.1,0h-.1v-.1m0,0h-.1v-.1m.1.1h0m1,.4-.1-.1v.1m.1,0h0m.1-.1v.1h-.1m1.8.5h0m0,0h0m-.1-.1h-.1m-.1-.1H589m.4.2h-.1v-.1m-.1,0h0l-.1-.1m-2.6-.8-.2-.8m-.1-.4h0m0,0v-.1h-.1m.9.3h0m0,0h-.1v-.1m0,.1h.1m-2.3-1.6h-.1m1.5,1.3-.2-.7m0,0v-.1m3.1,2.9-2-1.8m-.1,0h.1m2,1.8h0m-2.9-2.9h0m0,0v-.1m0,0-1.4-.4m1.4.4h0m1.1.6-1,.4m1-.4h0m-.3-.4h-.1m1.6.5h0m0,0v-.1m0,0-1.5-.4m1.5.4h0m-1.6-.3h.1m0,0,.1.1m0,0h.2m0,0v.2m0,0-1,.4m0,0h0m0,0h0l-.1-.1m0,0-.2-.7m0,0h0v-.1m0,0h.1m0,0h.1m0,0h0m0,0v-.1m0,0H586m0,0-1.3-.4m0,0h-.1m0,0v.1m0,0h.1m0,0h0m0,0,.1.1h.1m0,0v.1h.1m0,0,.6,2.1m0,0h0v.1m0,0h-.2m0,0h0m0,0h-.1m0,0,.1.1m0,0h0m0,0,1.4.4m0,0h.1m0,0-.1-.1m0,0h0m0,0-.1-.1m0,0h-.1v-.1m0,0h-.1v-.1m0,0-.2-.8m0,0h0m0,0h.1m0,0,1.2,1.1m0,0,.1.1m0,0v.1h-.1m0,0h0m0,0h-.1m0,0h0m0,0v.1h.1m0,0,1.7.5m0,0h.1v-.1m0,0h-.1m0,0h0v-.1m0,0h-.1m0,0h-.1m0,0-.1-.1m0,0-2.1-1.8m0,0h0m0,0h0v-.1m0,0,1-.3m0,0,.2-.1h.1m0,0h.2m0,0h0m0,0h0m0,0h0m0,0v-.1m0,0-1.5-.4m0,0h-.1m0,0v.1m-165.2-71.9.1.4m338,94.8-.6-.2m-335.6-96.5h-.2l-.3.1-.4.1-.3.3-.3.3-.3.5m336.9,91.8,1.1,3.6m0-.1v.1m-1.1-3.6,1.1,3.5m-1-3.7h0l-.1.1v.1m2.6-.7v-.1l-.3-.3-.2-.3-.3-.1-.3.1-.4.1-.3.3-.4.3-.3.5m12.3,32.6h0m0,0-9.7-32.8m0,0-.1-.4-.2-.3-.2-.3-.3-.1h-.2l-.3.1-.4.1-.3.3-.3.3-.3.4m-337-91.5h-.1v.2m337.1,91.3v.1h-.1v.2m11.9,33.9-.1-.3m-.4.8h0m.3-.6.1.2m-332.6-88.3.1-.1m-6.1,3.6-.3-.1m.6-3.5V307l.1-.1h.1l.1-.1h.2m0,0h.3m-1.4,3.8h0l-.1-.1v-.1l-.1-.1V310m0,0v-.7l.1-.4v-.4l.2-.4.1-.4.2-.3.2-.3m6.2.4.2-.2m-7.8,1-.1.3-.1.4v.7l.1.3.1.2h.1m1.2-5.3-1.3,3.4m5.9-3.6.1.2-.1.1v.1m-4.2,0h-.2l-.1-.1-.1-.1-.1-.1v-.1M427.6,290v.2l.1.2v.1l.1.1h.2l.1.1m8.5,14-3.6-12.4m.5,14.1.2-.4m-1.1-.8-1.2,3.2m0,0-.1.4-.1.4-.1.4.1.3v.3l.1.1m1.5-18.3.1.1.1.2m-1.5,2,.3.1.2-.1h.2l.1-.2.1-.2-.1-.2-.2-.2-.2-.2-.3-.2-.3-.2-.3-.1-.3-.1h-.2l-.2.1-.2.2v.1l.1.3.1.2.3.2.2.2.3.2.4.1m1.5,5.2.3.1h.3l.2-.1.1-.2v-.1l-.1-.3-.1-.2-.2-.2-.3-.2-.3-.2-.3-.1-.3-.1H432l-.2.1-.1.2v.4l.2.2.2.2.3.2.3.2.3.1m1.5,5.2.3.1h.3l.2-.1.1-.1v-.4l-.2-.3-.2-.2-.3-.2-.3-.2-.3-.1-.3-.1-.3.1h-.2l-.1.2v.2l.1.2.1.2.2.2.3.2.3.2.3.1m-2.1.4,2.7.8m0,0h.8l.2-.1.1-.1.1-.1v-.4m0,0-3.6-12.3m0,0-.1-.2-.2-.2-.2-.3-.2-.2-.3-.2-.3-.1-.3-.2-.3-.1m0,0-2.7-.7m2.9,16.6h0l-.2.2-.1.2m0,0-.2.3-.1.3v.9l.1.2m1.4-1.9-.1.1-.2.3-.2.4-.1.4v.3l-.1.4.1.2m-.2-2.4-.1.2-.2.3-.1.4-.1.3-.1.4v.7m3.5,3.3-.1-.1m0,0-.1-.2-.1-.1-.1-.2-.2-.1-.1-.1-.1-.1H433l-.1-.1m4.9-4.7-1.1-.3m-1.8-.3.1-.1.1-.1m-.2.2h0m0,0-.1.1-.1.1h-.1m-3.7,3.9h.2m.7.2-.7-.2m2.5-4.2h0m-.4-.1,1.4.4m-1.4-.4h.1m0,0,.3.1m-1.4,5h0m0,0-1.3-.2m0,0h0l-.1-.1m2.1.7-2.1-.7m2.3-4.5.1-.1.1-.1h.3m-1.4,5h-.1l-.1-.1v-.1h-.1V311m0,0-.1-.4v-.9l.1-.5.1-.6.2-.5.2-.4.2-.5.2-.3.3-.3m368.5,19.1h0v.1m-363.1-98.7h.2m-9.3,12.6-.1-.1v-.1m9.2-12.4h-.1m-9,8.8,9-8.8m363.3,98.7h-.1m-372.3-86.3v-.4l-.1-.4v-1.6l.1-.4v-.4m0,0V236h.1v-.1m372.3,89.9v.1m-9,8.7,9-8.8m-9.2,9.2.1-.1v-.2l.1-.1m-.2,3.6V335m.2,3.3v.1h-.1v-.1l-.1-.1m2.7-2.3-2.5,2.4m2.5-2.4h0m0,0-2.5,2.4m0,0h-.1v-.1m0,0v-.4l-.1-.4v-1.6l.1-.4V335m0,0v-.3h.1v-.1m0,0,9-8.7m0,0v3.7m0-3.7-9,8.7m0,0h0v.1h-.1v.3m0,0v.4l-.1.4v1.6l.1.4v.4m0,0v.1h.1m0,0,9-8.7M453.8,211.69l.4-.3m-15.8,15.4,15.4-15.1m-15.4,15.4v-.3m.1-.1-.1.1m0,.1v-.1m379.2,87.4.3-.3.1-.4v-.2m-.7-4.9.2.2.3.3.2.3v.7l-.1.3-.3.4M802,329.39l-.3-.1m.3.1.1-.1m-.1.1-.1-.1m.2,0,15.5-15.1m-1.7-6.4-357-97m0,0-.6-.1-.6-.1h-1.3l-.6.1-.5.2-.6.2-.4.2-.3.3m0,0-15.5,15.1m379,83.7.2-.3.2-.3v-.4l-.1-.3-.2-.3-.3-.3-.4-.3-.4-.2-.6-.2m-14.2,21.5h.2M438.4,226.89v.2M802,325.49l15.5-15.1m.1.2-15.5,15.1m-.2,3.6v-3.6m.2,3.6h-.2m.2-3.6v3.6M438.5,226.69,802,325.49m-363.6-98.6.1-.2m363.4,99-363.5-98.8m363.7,98.8h-.2m.2,0-.1-.2m-.1.2.1-.2m-21.1,51.6-.1.1m0,0h0m-.1,0v0h.1m.1-.1-.2.1m-346-134.5v28.8M782,377l-.2-.1h-.5l-.2.1H781l-.1.1-.1.1m8.4,1.7L782,377M435.8,241.39l-1,1.1m0,0h-.1v.2m346,134.5h.1m0,0h-.1m.2-.1-.1.1M628.6,520.39v-2.5m.3,2.2V518m1.3.9v-1.3m-1.6.3v-.1l.1-.2.1-.2.1-.1.2-.1h.5m-.7.8v-.3l.1-.1.1-.1h.5m7.8,11.7-.2.3m0-9.2v9.2m-.3-9.3v9.2m.3.1-.3-.1m-7.3-11.9,6.5,1.8m-6.5-2.1,6.5,1.8m0,.3h.2l.1.1.2.1.1.1.1.1v.2l.1.1v.2m-.8-1.2.2.1.2.1.2.1.2.2.1.2.1.2v.2l.1.2m-27.8-7.2V512m-1.3,2.2v-1.9m-.3,2.1v-2.1m.3,0v-.2l.1-.1.1-.1.1-.1h.4m-1,.5v-.2l.1-.2.1-.1.1-.1.2-.1h.1l.2-.1.2.1m7.3,2.9v9.3m.2,0h-.2m.2-9.2v9.2m.3-.2-.3.2m-7.5-12.2,6.5,1.8m-6.5-1.6,6.5,1.8m0,0h.2l.1.1.2.1.1.2.1.1v.1l.1.2v.1m-.8-1.1h.2l.2.1.2.2.1.1.2.2.1.2v.4m-27.7-7.1v-1.2m-1.3,2.3v-1.9m-.3,2.1v-2.2m.3.1v-.3l.1-.1.1-.1h.1l.1-.1h.2l.1.1m-1,.4v-.2l.1-.1.1-.2.1-.1.2-.1h.5m7.3,3v9.2m.2.1-.2-.1m.2-9.2v9.3m.3-.3-.3.3m-7.5-12,6.5,1.7m-6.5-2,6.5,1.8m0,.2.2.1.1.1.1.1.2.1.1.1v.2l.1.1v.2m-.8-1.2.2.1.2.1.2.1.1.2.2.2.1.1v.4m-160.7-43v-97.2m0,97.3v-.1m12,11.5-.3-.2m132.8,36.2-132.5-36m141.8,28.9v1.2m7.2,10.4-.3-.2m6,1.8-5.7-1.6m13.6-5.9v1m7.2,10.6-.3-.3m7.3,2.2-7-1.9m13.6-6v1.2m7.2,10.4-.2-.2m111.2,30.4-111-30.2M772.8,566l-11.7-3.2m18.2-3.2v.1m-344.5-191V466m10.7,2.9L434.8,466m11.7,4.1v-.2l-.1-.2-.1-.1-.1-.2-.2-.2-.1-.1-.2-.1-.2-.1m1,8.3v-7.1m0,7.1,133,36.1m7.5-6.7v2.2m1-2.9h-.5l-.2.1-.1.1-.1.2-.1.1v.2m7.5,1.1-6.5-1.8m7.5,3v-.4l-.1-.1-.2-.2-.1-.2-.2-.1-.2-.1-.2-.1m1,10v-8.8m0,8.8,6.1,1.6m6.2-7v2.1m1-2.8-.2-.1-.2.1h-.1l-.2.1-.1.1-.1.1-.1.2v.2m7.5,1.1-6.5-1.8m7.5,3v-.4l-.1-.2-.2-.2-.1-.1-.2-.2-.2-.1h-.2m1,9.9v-8.7m0,8.7,7.4,2m4.9-7.4v2.5m1-3.2h-.5l-.2.1-.1.1-.1.2-.1.2v.1m7.5,1.1-6.5-1.8m7.6,3.1-.1-.2v-.2l-.1-.2-.1-.2-.2-.2-.2-.1-.2-.1-.2-.1m1.1,10v-8.7m123.9,42.4,11.9,3.2M637.2,529l111.2,30.2m29.3.9v1.2m1-1.9h-.4l-.2.1H778l-.2.1-.1.2v.3m11.5,2.2-10.5-2.9m10.4-95.8-28-7.6m28,7.6v-.1m0-40.8.1-.1m-.3,40.8.2.1m0,0h.1m0-40.4h-.1m0,0-.2.2m.2-.2v-.4m-.5-.1.5.1m-28,33.1,27.8,7.6m0,0v-40.1m0,0-.8-.2m28.7,129.4-.1.1-.1.3-.2.3m-27,22.9h-.1V576h-.1v-.1m27.2-22.7-23.9,23.4m0,0h-.2v.1h-.1l-.1-.1m0,0h-.3l-.4-.1h-.3l-.4-.1-.3-.1h-.3l-.4-.1-.3-.1m.2.1.3.1h.3l.3.1.4.1.3.1h.3l.4.1h.3m-46.4,27.6h-.1v-.1m43.5-28.3-32.1,31.3m0,0v.1h-.4m0,0-1.5-.2-1.4-.3-1.5-.3-1.4-.4-1.3-.4-1.3-.4-1.3-.5-1.2-.5m0-11.6h-.1v-.2m11,3.1-1.5-.2-1.4-.3-1.5-.3-1.4-.3-1.3-.4-1.3-.5-1.3-.4-1.2-.5m11.3,2.9h-.2l-.1.1-.1-.1m32.5-31.4-32.1,31.4m32.1-31.4-32.1,31.4m0,0h-.4m0,0-1.4-.2-1.5-.3-1.4-.3-1.4-.4-1.4-.3-1.3-.5-1.3-.4-1.2-.5m0,0v-.1h-.1v-.1m0,0h0m.3,11.9,1.2.5,1.2.5,1.3.4,1.4.4,1.4.4,1.4.3,1.4.3,1.5.2m-8.1-17.8-3,2.9m33.7-32.9-18.3,17.9m-15.4,15h0v.1h.1v.1m11.3,2.9,32.1-31.4m-32.5,31.4h.4m4-18.1,18.3-17.8M746,592.29l2.7-2.7m40.5-26-32.4,31.6m0,0-1.5-.2-1.4-.3-1.4-.3-1.4-.3-1.4-.4-1.3-.4-1.2-.5-1.2-.5m-.2.4,1.2.5,1.3.4,1.3.5,1.4.3,1.4.4,1.4.3,1.5.3,1.4.2M707.1,362h0m2.1,6.2-.1-.1m-2.1-5.9h0m2.2,6,.1-.2m0,0-.6-2-.7-2-.9-2m-.1.2.1-.2m2.1,6.2-.6-2-.7-2-.9-2m69.3,25.3-.8,1.3m6.3-11.7-.6,1.4-.7,1.4-.7,1.3-.7,1.3-.7,1.3-.7,1.3-.7,1.2-.7,1.2m5.6-10.5h0l-.1.1m.1-.2v.1h-.1v.1m0,0-.6,1.4-.7,1.3-.7,1.4-.7,1.3-.7,1.3-.7,1.3-.7,1.2-.8,1.2m0,0-1.2,1.9m6.9-12.4h0l-.1.1m0,0-.6,1.4-.7,1.4-.7,1.3-.7,1.3-.7,1.3-.7,1.3-.7,1.2-.7,1.2m0,0-.8,1.3m-339.1-83.3h.1l.2-.1h.1m-15.2-35.7.4-.4v-.1m-.4.6v-.1m0,.1v-.1M768.7,393l1,3.3m-.3-4.6-.7,1.3m1.7,2.1-1-3.4m1,3.4.7-1.1m0,0-9.7-32.8m-324.6-55.7h-.1l-.1.1-.2.1h-.2m-14.6-35.9h0m0,0h0m337.1,91.6h0v-.1m2.7-.1-.2-.4-.2-.3-.2-.2-.3-.1h-.3l-.4.1-.3.3-.4.3-.3.5m-.1-.1.3-.5.4-.3.3-.3.4-.1.3-.1.3.1.2.3.3.3v.1m-2.6.6h.1m10.4,35.5-10.5-35.5m.2,0,10.5,35.4m-10.6-35.4h.1m-322.6-55.7h.2l.2-.1.1-.1h.1m-3.7.3h0M431.2,291l-3.6-1m3.6,1,.3.1.3.1.3.2.3.2.2.2.2.2.2.2.1.2m0,0,3.7,12.6m-.6.7h.4l.1-.1.1-.2V305m-3.9.3.2.5M427.6,290l-1.6-5.5m343.1,112.4-10.5-35.4m10.5,35.4-10.5-35.5m0,.1h0v-.1m11.6,32.9h-.1m-.6,1.2-.1-.1m.4-2.5h-.1m-.6,1.2-.1-.1m.5,1.6.2.7m.2-.2.5-1m0,0-.2-.8m0,0v.1m0,0-.1-.3m0,0V394m0,0-.3-1.1m0,0-.1.1m0,0-.1-.3m0,0,.1-.1m0,0-.3-.9m0,0-.7,1.3m0,0,.3.8m0,0v-.1m0,0,.1.4m0,0v.1m0,0,.3,1m0,0v-.1m0,0,.1.4m0,0v.1M631.2,517.89l-4,3.9m-6.6,7.8-.1.5-.2,1.1m6.9-9.4-.7.6-1.8,1.9-1.2,1.2-.9,1-.6.7-.6.7-.3.5-.3.5-.1.4-.1.3m-30.9-23-1,.8-1.1.9-1.2.9-1.2.9h-.1m0,0-.1.1-1.3.8-1.4.8-1.4.8-1.5.8-1.5.7-.9.5m-2.3,2.6-.1.5-.2,1m2.6-4.1-.2.1-.5.3-.5.3-.4.4-.3.4-.2.5-.2.4v.1m35.6-4.9-1.6,1.4-1.8,1.6-.9.7m0,0-.3.3-1.7,1.3-1.7,1.3-1.8,1.4-.9.7m-2.6,3.2-.1.4-.2,1.1m2.9-4.7-.6.4-.6.6-.6.7-.4.4-.2.5-.2.4v.2m37.4,1.7,2.5.7m-23.5-6.4,2.7.8m-24-6.5,3.2.8m22.4,11.1h0v.2l.1.1m-.1-1.8v1.5m.5-2.3h0l-.4.4m0,0v.1h-.1v.3m0,3.6v.2l.1.1v.1m-.1-1.9v1.5m.7-2.5h0l-.1.2-.1.1-.2.2-.1.1m0,0h0l-.1.1v.1h-.1v.2m.1,1.9.2.2.4.3.5.3.5.3h.1m0,0v.1h.3m0,0,.3-.1h.4m-.8-5.5v1M430.8,367.59v102.9m0-230.4v30.3m-29.1,228.7v11.6m.2.2.1.1m10.8,2.9.2-.1m18.5-220.3-.1.2m-.3-.3.1-.3m1,1,.1-.1m-1.9-1.1-.1.1m2.7,5.7-.1.2m-.3-.3.2-.3m.9,1,.1-.1m-1.9-1.1-.1.1m2.8,5.8-.1.1m-.3-.3.1-.2m1,.9v-.1m-1.9-1.1v.1m-27.2,209.1v.1l.1.1.1.1.1.1.1.1h.1l.1.1m3.7.5.1-.1m-3.8-.4,2.9.7m0,0,.1.1h.2l.1-.1h.2l.1-.1.1-.1M750.2,606h0l.1.2.1.1v.1h.2l.1.1h.1m3.7.6.1-.1m-3.8-.5,2.9.8m0,0h.1l.1.1h.1l.1-.1h.1l.1-.1h.1l.1-.1M407.4,361.29l338.3,91.9m-1.1-19.7-335.3-91.1m330.1,91v.2m2.8,0v-.2m0,0v-.1l-.1-.2-.1-.2-.2-.1-.3-.1-.4-.1h-.7l-.3.1-.3.1-.2.2-.1.2-.1.2m-326.2-88.6v.2m2.9,0v-.2m-.8-.8h-.2l-.4-.1h-.3l-.4.1-.3.1-.2.2-.2.2-.1.2v.1m2.9,0-.1-.2-.1-.2-.1-.2-.3-.1-.2-.1m347.4-7.3.1-.2m-1.9-2-.1.1m-.1.1-.1.1-.1.3v.6l.1.3.2.3.2.2.3.3.4.1h.6l.3-.1m-299.5-81.6.2-.1m-2-2-.1.1m-.1.1-.1.1-.1.3v.6l.2.4.2.2.2.3.3.2.4.1h.3l.3-.1.3-.1v-.1m-12.3,70.3h0m-39.9,10.8v.1m334.3,86.4-4.2,3.7m-.4.9-.2,5m.6-5.9-.1.1-.1.2-.1.1m0,0v.4l-.1.1m9.1-21.3,8.3,2.3m-15-4.1,2.9.8m-9.7-2.7,2.9.8m-13.3-3.6,6.6,1.8m-13.7-3.7,3.3.9m-13.6-3.7,6.5,1.8M701.6,393l2.9.8m-9.7-2.6,3,.8m-13.3-3.6,6.5,1.8m-13.6-3.7,3.2.8m-13.6-3.7,6.5,1.8m-13.3-3.6,2.9.8m-9.6-2.6,2.9.8m-13.3-3.7,6.5,1.8m-13.6-3.7,3.2.9m-13.6-3.7,6.6,1.8m-13.3-3.6,2.9.8m-9.7-2.7,2.9.8m-13.2-3.6,6.5,1.8M594.7,364l3.2.9m-13.6-3.7,6.5,1.7m-13.3-3.6,2.9.8m-9.6-2.6,2.9.8m-13.3-3.6,6.5,1.7m-13.6-3.7,3.2.9m-13.6-3.7,6.6,1.8m-13.3-3.6,2.9.8m-9.7-2.7,2.9.8m-13.3-3.6,6.6,1.8m-13.7-3.7,3.3.9m-13.6-3.7,6.5,1.7m-13.3-3.6,2.9.8M488,335l3,.8m-13.3-3.6,6.5,1.8m-13.6-3.8,3.2.9m-13.6-3.7,6.5,1.8m-37-10,26.6,7.2m24.6-15.5v.1m.1.1,228,62m.1-.1h.1m.3-5.2-.3-.1m.4.3v-.1m49-6-337-91.6m337.1,91.8-.1-.1m-166.9-16.7h-.1m1.5.5v-.1m1,.3h0m1.8.5h0m-3.3-3.3-.1.1m12.6,5.6v.1m1.4.4h.1m1,.2h0m1.8.6h0m-3.4-3.3h0m6,3.9h0m1.7.6v-.1m-2.4-3v.1m1.6.5h0m-12.9-1.3h0m1.7.5h0m-4.7-3.6h0m1.6.5v-.1m.5.1h0m1.5.5h0m.7.1v.1m1.3.4V346m-17.2-2.4h-.1m1.6.5h0m.6.1h0m1.9.6v-.1m-4.8-3.6h0m1.5.5h0m.7.1h0m1.6.5h0M760.5,360l-337-91.6m7.3,41.8.5.2m5-4.7.3-.6m-8.9-14.8,4.2,14.4m6.5,2.9v-.1l-.3-.2-.3-.1-.1-.1m-6.8,3.5-.1.5m2.4-4.8-.1.3m368.5,19.1-362.9-98.6m-9.3,12.6,363.2,98.7M454.3,211.29l-.1.1M818,313.29v-3.7m-.7-1.2h-.1M764.9,373l15.8,4.3m36.1,175.2V315m-27.6,22.5v238.4m.2.2.2.1m2.6.5.1-.1m-46.6,15.9v11.7m.2.2h.1m10.8,3,.1-.1m13-211.3h0m-8.6-35.1-.1-.1m-328.1-55,335.8,91.3" transform="translate(-396.8 -210.09)"/><path class="cls-2" d="M595.3,512l-.6-.1m21.4,5.8-.5-.1m21.3,5.7-.6-.1m-4.6-5.2-2.8,2.7-.9.9m4.8,1.3,1.1-1.7,1.4-1.7.4-.4m1.2.9-.6.6-1.3,1.6-1.2,1.7m0,0v-.2l-.1-.2-.1-.1-.1-.2-.2-.1-.2-.1-.1-.1h-.2m1,1-.9,1.7-.6,1.9-.3,1.2-.2,1.2m-3.8-8.3,4.8,1.3m-2.2,6.2.2-1.3.4-1.2.6-1.9,1-1.8m-1,7,.3,1.8m-.3-1.8-.1-.1-.1-.2-.1-.1-.1-.2-.2-.1H631l-.2-.1h-.2m-2.6-7.5-3.6,3.6-1,1.1-.9,1-.7,1.1-.1.5-.1.4.1.5.2.4.4.4.4.3.5.3.6.2.7.2.8.1h.7l.8-.1.7-.1.7-.2.7-.3.5-.3.5-.4.4-.4.2-.4.1-.4m-3.4-7.3v-.1h.2l.1-.1h.5m3.8,8.3h0l-.2.5-.3.6-.4.4-.6.5-.7.4-.8.3-.9.2-.9.2h-1.9l-.9-.1-.9-.2-.7-.3-.7-.4-.5-.4-.5-.4-.2-.6-.2-.5.1-.5m-30.5-22.9-.4.4-1.9,1.5-2.1,1.5m4.8,1.3,1-1,2.6-2.6m-8.4,2.3h-.2l-.1-.1-.2.1h-.1m.6,0-1.5.9-1.5.9-2.5,1.4-2.7,1.3m8.2-4.5,4.8,1.3m4.8-2.6-3,2.8-.9.9m-6.6,6.6h0l-.6.4-.6.4-.8.3-.9.2-.9.1-1,.1-.9-.1-.9-.1-.9-.2-.7-.3-.7-.4-.5-.4-.4-.5-.2-.5-.1-.5v-.5m16.7-4.6-1.9,1.9-1.9,2-.8.9-.9.8-1.1,1m5.7-7.7.1.1.2.1.2.1.1.1.1.2.1.1.1.2v.2m-13.9,2.1-.3.2-.5.3-.4.4-.3.4-.2.4-.1.5.1.4.2.4.3.4.4.4.6.3.6.2.6.2.8.1h1.5l.7-.1.7-.2.7-.3.6-.3.5-.4,1-.8.8-.9.8-.8,1.9-2,2-2m-13,3.2h-.2l-.1-.1h-.1l-.1.1m33.8-2.2-.5.4-3.6,3m5,1.4,1.7-2,1.6-1.7m-9,2.4.1-.1h.6m0,0,5,1.4m-5-1.4-2.3,1.9-2.1,1.6-2.1,1.6m15.9-6.4-1.7,1.8-1.6,1.9m0,0-.1-.2-.1-.1-.1-.2-.1-.1-.1-.2-.2-.1-.2-.1h-.2m-11.5,3.7-.9.8-.8.8-.3.4-.2.5v.4l.1.5.2.4.3.4.4.3.6.3.6.3.7.1.7.1.7.1.8-.1.8-.1.7-.2.6-.3.6-.3.5-.4.5-.6.5-.6.8-1.2.6-1.1,1.5-2.2,1.5-2m-12.1,3.7.1-.1h.4l.1.1m7.2,4.9h0l-.1.2-.6.4-.8.4-.8.3-.9.3-.9.1-.9.1h-1l-.9-.2-.8-.2-.8-.3-.7-.3-.5-.5-.4-.4-.3-.6-.1-.5.1-.5m15.8-5.9-1.6,2-1.4,2.1-.7,1.2-.3.6-.4.6-1,1.1m-12.1-10.9-2.9-.8m23.7,6.5-2.5-.7m23.3,6.3-2.4-.6m-16.8.7h0v.1h.1m.4-2.1h-.3v.1h-.1m0,.6-.1-.1v-.1m.1,1.8v-.2m0-1.4v1.4m0,0,.1.1m-.2,1.9h0v.1m.1-3.5v-.2l.1-.1v-.1l.1-.1.1-.1.1-.1m.2,1.6-.1-.3-.1-.2-.2-.2-.2-.2m-.1,2.1v-.2m.2-.4.1-.1h.2l.1.1m-.5,2.3v-.1l-.1-.1v-.1m1.8,1.4h-.1v-.2l-.1-.1m-1.6-2.5v1.4m0,0,.2.2.1.1.2.2.2.1.2.2.2.1.3.1.2.1m0,0v-1.4m0,1.4.1.1h.5m-2.2-2.6V527l.1-.1v-.1l.1-.1.1-.1.1-.1h.2m1,1.7-.2-.1-.3-.2-.2-.1-.2-.1-.2-.2-.2-.1-.1-.2-.2-.1m2.2,1.1-.1.1h-.2l-.1-.1h-.2m0,0,.1-.1v-.2l.1-.1v-.1l.1-.1v-.1h.1m.1,2.5h0l.1-.1v-.2m.7-5,.2.1.4.2.4.2.5.1.5.1h.9m-.6.8h-.6l-.6-.1-.5-.2-.5-.2-.3-.2m0,0-.4-.3-.2-.3-.1-.3v-.2m.2,3.8v1.5m0,0,.5-.1h.2m-.7-1.4v-.3l-.1-.1v-.2l-.1-.1m1.5.7h-1.3m-1.5-4.1v.1l-.2.1m0,0,.3.3.3.2.1.3.1.3-.1.3-.1.2-.2.3-.3.3m0,0,.1.1.1.1.2.2.2.1.2.1.2.2.2.1.2.1m0,0,.6-.1h1.5M431,367.69v102.7m0-230.3v30.4m2.8,97.9v99.2m0-226.7v30.3m-.4,97.1v99.8m0-227.3v30.3m-20.7,231.1v11.6m-10.9-14.6v11.6m11,3v.1m-10.9-3,.1.1m-.2-12,.2-.2m11.1,3.3-.3-.3m-11-2.6.2-.4m10.8,3.3v-.3m18.3-208.1.2-.4m-.3.2.3-.4m.2.6.1-.1m-.5-.3.1-.2m1.5,5.8.2-.4m-.4.2.3-.3m.3.5v-.1m-.5-.3.2-.2m1.4,5.8.2-.3m-.3.2.3-.4m.2.5V304m-.4-.3.1-.1m-27.7,209.1-.1-.1h-.1l-.1-.1m.3.2v.1l.1.1v.1l.1.1m2.7.3v.3l.1.1h.1m.9-.3-.1.1m-3.9-1v.1m0,0,2.9.7m0,0v-.1m.7.2h-.5l-.2-.1m341.1,92.8-.1-.1h-.1l-.1-.1m.3.2v.1l.1.1v.1h.1m2.7.4v.3h.1v.1h.1m.9-.3-.1.1m-3.9-1v.1m0,0,2.9.7m0,0v-.1m.7.2h-.6l-.1-.1M411.1,373.79l-7.6-2m351.6,95.5-7.6-2M422,302.69l8.3,2.2M397.8,347l8.4,2.3m-6.4-23.7,8.4,2.2m-10.9,5.5,8.3,2.2m371.8,63.8L769,397m-15.7,46.6-8.4-2.3m7.8-11.4-8.4-2.3m11-5.4-8.4-2.3m-331.9-76-5.7-1.5m331.8,90.2-325.6-88.5m329.1,89.4-2.9-.8m3,2.9L407.7,344m338,109-338.4-91.9M744.8,439l-338.2-91.9m338.2,91.8L406.6,347m338.1,88.7-337.1-91.6m332.7,89.6-.3-.1-.2-.1-.1-.2v-.2l.1-.1.1-.2.3-.1.3-.1h.7l.3.1.2.1.2.2.1.2-.1.1-.1.2-.2.1-.3.1-.4.1h-.3l-.3-.1m1.9-.3v.1l-.1.2-.2.2-.3.1-.3.1-.4.1-.4-.1h-.3m0,0-.4-.1-.2-.2-.2-.2v-.2M415.2,344l.3.1.2.2.1.1v.2l-.1.2-.2.1-.2.1-.3.1h-.7l-.3-.1-.3-.1-.1-.2-.1-.1v-.2l.2-.2.2-.1.3-.1h1m.9.8h0l-.1.2-.1.2-.3.1-.3.1-.4.1h-.7l-.4-.1-.3-.2-.2-.1-.1-.2v-.1m349.1-8.1-.2.1h-.3l-.3-.1-.3-.1-.3-.3-.2-.2-.1-.3v-.6l.2-.2.2-.2.3-.1.3.1.3.1.3.2.2.2.1.3.1.3v.3l-.1.3-.2.2m-1.5-2.1.2-.1.3-.1h.3l.4.1.3.2.3.2.2.4.1.3.1.3v.4l-.2.2v.1m-300.1-82.8.2.3.1.3v.6l-.2.2-.2.1-.3.1-.3-.1-.3-.1-.3-.2-.2-.3-.1-.3-.1-.3v-.3l.2-.2.2-.2.2-.1h.3l.3.1.3.2.2.2m-1.5-.6h0l.3-.2h.6l.4.1.3.2.2.3m0,0,.2.3.2.4v.3l-.1.3-.1.3h-.1m-30.3,88.5,307.1,83.5M450.7,325.59v-.1m-39.6,10.9h0m20.7,3L415.6,335m0,0,14.2-12.6m0,0,16.3,4.4m0,0-14.3,12.6m-.1,2.6h0m.4,0H432m-2-22.4v.2m20.8,5.5v.2m-21.1-5.8v.1m-18.8,16.5v-.1m21.3,6.2,19.7-17.2m-20.2,23.3.1-5m19.9-17.6-19.2,16.9m-.3.7-.1,5.1m.1-6.2-22.2-6m21.8,7.1-22.2-6m22.2,6h.4m.3-.7h-.1v.1l-.1.1v.2l-.1.1v.2m0-1.1.1.1h.1v.1l.1.1v.1m-.7.7v-.1l.1-.2v-.1l.1-.2v-.1l.1-.2.1-.1v-.1m309,84h-.1l-.1.1m-.2,1h-.1v-.1h-.1m4.5-4.4-3.9,3.4m-.4,1.1-.2,4.9m3.7-5.1-3.1-.9m0,0-.1.1v.1l-.1.1-.1.2v.1l-.1.2v.3m3.6,1-3.6-1M456.4,326.29l-26.7-7.2m37.1,10-6.6-1.8m13.7,3.8-3.3-.9m13.7,3.7-6.6-1.8m13.3,3.6-3-.8m9.8,2.7-3-.9m13.4,3.7-6.7-1.8m13.8,3.7-3.4-.9m13.7,3.7-6.6-1.8m13.4,3.7-3-.8m9.8,2.6-3-.8m13.3,3.6-6.6-1.8m13.7,3.7-3.3-.9m13.7,3.8-6.6-1.8m13.4,3.6-3-.8m9.7,2.6-3-.8m13.4,3.7-6.6-1.8m13.7,3.7-3.3-.9m13.7,3.7-6.6-1.8m13.3,3.6-3-.8m9.8,2.7-3-.8m13.3,3.6-6.6-1.8m13.7,3.7-3.3-.9m13.7,3.7-6.6-1.8m13.4,3.7-3-.8m9.7,2.6-3-.8m13.4,3.6-6.6-1.8m13.7,3.8-3.3-.9m13.7,3.7-6.6-1.8m13.3,3.6-3-.8m9.8,2.7-3-.9m13.4,3.7-6.6-1.8m13.7,3.7-3.4-.9m13.7,3.7-6.6-1.8m13.4,3.7-3-.8M746,405l-3-.8m15.1,4.1-8.4-2.3m11.1-.5-331.1-89.9m331.2,89.8-331.1-90m51-4.6.1.1m-.3-9.7.1.2m.3-1.2h.1m228.3,67.7h-.1m.2.1-.1-.1m0,.3h-.1v-.1m-.5,4.7-227.9-61.9m225.2,50.4-225-61.1m224.8,62.4-225.2-61.2m225.5,60h-.1v-.1m0,1.2-.2.1m3,10.1-.1.1M421.3,270.49l337,91.6m-342-82.3,337,91.6m-336.9-91.9,337,91.6M421.2,270.59h.1m-5,9.1v-.1m0,0v-.1m342.1,82.7-.1-.1m-4.8,9.1-.1-.1m-.1.2h.2m-161.8-26h0m1.4.4h0m-.2-.1h0m.1,0h0m0,.1h.1m-.4-.2h.1m1.4.5h0m-1.7-.8h0m1.7.8h0m-1.6-1.1h0m3.3,1.6h0m-3.2-1.8h0m3.2,1.8h0m-.1-.1h0m-3.1-1.7h.1m.9.2h0m-1-.3h0m.2-.6h0m-.3-.7v-.1m.7.2h0m.1.1h0m2,2.6h.1m9.7,2.9v-.1m1.3.5h.1m-.2-.1h0m.1,0h0m0,.1v-.1m-.3-.1h0m1.5.4h0m-1.7-.7v-.1m1.7.8h0m-1.6-1h0m3.3,1.6h0m-3.2-1.8v-.1m3.2,1.8h0m-.1,0h0m-3.1-1.7v-.1m.9.3h.1m-1-.3h0m.2-.7h0m-.3-.7h0m.7.2h0m.1.1v-.1m2,2.7h0m3.2,1h0m0,0h0m1.6.5h0m-.1-.1h0m.1.1h0m-.1-.1h0m-.3-.2h0m-.6-2h0m.2-.1v-.1m-1.6-.4.1-.1m1.5.5v-.1m0,.1h0m-13.3-2.2h0m.4,1h0m.1-1h0m1.3.5h0m-3-2.1h0m.1.1h0m1,1.5h0m-.9-1.6v-.1m-1.5-.4v-.1m1.4.5v-.1m0,.1h.1m1.8.7h0m0,.1v-.1m.9,1.5h0m-.7-1.6h0m-1.5-.5h.1m1.3.4h0m.1.1v-.1m1.1,2.7h0m.5-1.9h.1m0-.1h0m.3-.1h0m-1.2-.4h0m1.1.3h0m.1.1h0m-17.2-2.4h0m0,0h.1m1.4.5V344m-.1,0v-.1m0,.1h.1m-.2-.1h0m.9.3h0m0,0h0m1.8.5h0m-.1-.1h0m0,.1h.1m-.3-.1v-.1m.1.1h0m-2.7-.9h0m-.2-.8h0m-.1-.4h0m-.1-.1h0m-.2-.7h0m0-.1h0m.2,0h0m-1.4-.5h0m1.3.4h.1m0,0h0m.1,1h0m1-.4h0m1.2.1h0m-1.5-.5h0m1.5.4h0m0,.1v-.1m170.3,19.1-337-91.5m336.9,91.8-337-91.6m10.2,40.8-.3-.1m-.2-.6.5.2m.8-3-.5-.1m-1.4,1.2.7.1m4.9-3.2.3-.5m-8.2-14.5-.3.5m4.9,1.6-.3.6m-1.9-1.5.3-.4m1.3,14.1-4.3-14.4m6.1,22.1-.3-.1m4.4-5h-.1v-.2l-.1-.1-.1-.1-.1-.1-.1-.1m-1.4-.4,1.4.4m-1.5-.4h.1m-.3.2-1.2-.4m2,1.2v-.5l-.1-.1-.1-.1-.1-.1-.1-.1-.1-.1m0,0h-.1l-.1.1h-.1v.1m.8.8v-.1l-.1-.1-.1-.2-.1-.1-.1-.1-.1-.1-.2-.1h-.1m0,0h0m-1.2-.4,1.2.4m0,0,.1.1.1.1.2.1.1.1.1.1.1.1v.3m-.7-.9-.1.1-.1.1h-.1m-2.5-.8v.1m-2.2,4.2-.2.6m4.9-4.1-1.2-.4m.5,5.6-2.2-.5m2.9-4.7.1.1.1.1.1.1.1.1v.1l.1.2v.2l-.1.1m-2-1.5,1.6.5m-.7,5.2-2.2-.7m1.3-5-.6-.2m-.7,5.2-.7-.2m.7.2h.2l.2-.1.1-.1h.2l.1-.2v-.1l.1-.2m-.9.7-.1-.1h-.1v-.1h-.1v-.2l-.1-.1m1.7-4.5.2.1.1.1.1.1.1.1v.6m-.9-.8v-.1h.1l.1-.1h.2m3.8,1.5-1.1-.4m0,0-.1.1m-.6.3h.3l.2-.2.1-.1m-.6.3-1.5-.5m0,0h-.1v.1h-.1m-.9,3v.1h.1v.1h.1m0,0,2.1.7m-2.1-4.8-.7-.2m-.6,4.5-.6-.1m1.9-4.2.1.1h.1l.1.1.2.2v.1l.1.1v.2l.1.1m-2,3.4v-1.2l.1-.6.1-.5.1-.5.2-.4.3-.5.2-.3.3-.3m-1.3,4.3.2.1h.2l.1-.1h.2l.1-.1.1-.1.1-.1.1-.1m.9-3-.3.3-.2.3-.1.4-.2.4-.1.5v1.1m368,15.1-363.1-98.7m354,111.1-363.2-98.7M792.5,335l-363.2-98.7m363.4,98.3-363.3-98.7m24.6-24.3-.2.1m363.8,98.9v3.6m0-3.6-.1-.2m-36.7,66.8-16-4.3m24.4-33.8-354.5-96.4m354.5,96.1-354.4-96.3m194.6,275-.5.5m0,0-.3-.1m1-.7v.3m7.6,2.8-.3-.1m-.8-.9V519m-27.5-7.2-.5.5m0,0h-.3m1-.7v.2m7.5,2.8-.2-.1m-.8-.9v-.2m-27.5-7.3-.5.6m0,0-.3-.1m1-.7v.3m7.5,2.7h-.2m-.8-1v-.2m183.9,51.7-.7.7m38.7-244.8v237.9m-23.9-214.9v238.3m-3.1-239.1v238.6m2.7-237.9v238.4m-2.5-.4-.1-.1m2.7.6h-.1m-35,18.9v11.6m-.4-11.6v11.7m-10.9-14.6v11.6m.1.1h.1m10.8,2.9v.1m-11.1-14.9.3-.2m11.1,3.3-.3-.4m-.1.4.1-.4m-11-2.5.2-.4m35.8-215.2-.5-.2M770,396h-.1m6.3-8.5-7.7-2.1m3.1,8.7-.6-.2m.9-.2-1-.3m-1.9,3.7-335.9-91.3" transform="translate(-396.8 -210.09)"/><path class="cls-3" d="M559.2,382.67" transform="translate(-396.8 -210.09)"/><path class="cls-3" d="M582.49,394.79a122.08,122.08,0,0,0,17.8-13.93c2.3-2.22,4.79-5.18,7.52-6.8,1.4-.84,2.9-1.43,4.31-2.24s2.19-2.52,4.12-2.86a22.13,22.13,0,0,1,3.73.13,27.26,27.26,0,0,0,6.63-.93c2.5-.61,6.94-1.65,8.74-3.6,1-1.1.27-2,1.56-2.47s2.17-1,2.13-2.58c0-2.21.62-2.67,1.61-4.52.81-1.51,1.38-1.47,2.76-2.33s1.58-2.51,1.18-4.07c-.45-1.78-2.38-1.65-3.74-2.26-.85-1.17,2.54-4.7-.18-5.92-2.19-1-4.32,2.67-6.33,3.87-1.76,1.06-3,1-4.87.61s-3.47.61-5.09,1.3c-2.11.89-4.38,1.08-6.39,2.31s-3.69,2.79-5.48,4.13c-3.5,2.6-6.81,5.38-10.25,8.13-9.24,7.38-20,12.4-30.85,17-2.27,1-10.42,4.76-17.47,8.09" transform="translate(-396.8 -210.09)"/><path class="cls-4" d="M642.58,347.18" transform="translate(-396.8 -210.09)"/><path class="cls-4" d="M641,347.52" transform="translate(-396.8 -210.09)"/><path class="cls-4" d="M628.64,347.32a19.36,19.36,0,0,0,8.43.7c1.18-.19,2.59-.3,3.89-.5" transform="translate(-396.8 -210.09)"/><path class="cls-4" d="M640.92,344.73a12.17,12.17,0,0,1-2,3" transform="translate(-396.8 -210.09)"/><path class="cls-4" d="M634.39,344.27a20.59,20.59,0,0,0-3.29-.72c-.61.5.14.89.71,1.35" transform="translate(-396.8 -210.09)"/><path class="cls-3" d="M469.81,359.26" transform="translate(-396.8 -210.09)"/><path class="cls-3" d="M467.35,356.69" transform="translate(-396.8 -210.09)"/><path class="cls-3" d="M474.11,364.22c7.49-5.7,17.62-15.69,22.46-19.67,5.05-4.16,9.16-7.69,15.57-8a19.5,19.5,0,0,0,4.5-.84c1.53-.46,2-1.48,3.1-2.38,2.24-1.78,4.43-3.46,6.8-5.07,1.38-.94,2.69-1.92,4-3a10,10,0,0,0,2.08-2c.28-.42,0-.84.24-1.2.62-.95,1.92-1.42,2-2.79.14-1.82-2-1.82-3.17-2.64-1-.76-2.25-.09-2.87-.26-.4-.11-.52-.59-.06-2.11.15-.53.68-2.79-1.12-2.57-1.42.29-2.9,2.77-3.87,3a41.29,41.29,0,0,1-5.06,1.3c-1.59.17-3.12-.07-4.69.53a30.15,30.15,0,0,0-10.62,6.24c-1.51,1.37-3.21,1.88-5,2.79a46.09,46.09,0,0,0-5.2,3.52c-3.21,2.25-6.27,4.55-9.69,6.5-5.62,3.21-11.62,5.72-17.34,8.93-.67.38-15.35,8.06-21.38,11.24" transform="translate(-396.8 -210.09)"/><path class="cls-4" d="M528.44,315.59a9.88,9.88,0,0,1-3.89,4.25c-1.87.94-3.15.53-4.95.92-.82.18-2.37,3.16-3.09,3.8a10.92,10.92,0,0,1-5.31,2.87" transform="translate(-396.8 -210.09)"/><path class="cls-4" d="M533.44,317.41" transform="translate(-396.8 -210.09)"/><path class="cls-4" d="M521.56,326.58c1.3-.86,11-7.79,11.21-4.13" transform="translate(-396.8 -210.09)"/><path class="cls-4" d="M522.34,322.63a55.57,55.57,0,0,0,6.86-3.33c.89-.59,3.19-2.29,4.09-2" transform="translate(-396.8 -210.09)"/><path class="cls-4" d="M515.29,316.18s4-1.36,4.76-1.78a6.42,6.42,0,0,1,2.1-.49l1.45.39" transform="translate(-396.8 -210.09)"/><path class="cls-3" d="M526.61,318.23a25.23,25.23,0,0,1,3.19-1.92" transform="translate(-396.8 -210.09)"/><path class="cls-5" d="M550.86,324.26c-4.82,6.38-7.47,15.81-6.61,22l-5.54-1.71,11.84,16.1,10.92-9.07-7.68-2.37c-.37-6.18,2.24-14.79,6.74-20.75,5-6.67,13.58-9.57,13.58-9.57l-9.67-4.22S555.89,317.59,550.86,324.26Zm26-14.67-20.91,2,25.35,8.14Z" transform="translate(-396.8 -210.09)"/><path class="cls-6" d="M550.86,324.26c-4.82,6.38-7.47,15.81-6.61,22l-5.54-1.71,11.84,16.1,10.92-9.07-7.68-2.37c-.37-6.18,2.24-14.79,6.74-20.75,5-6.67,13.58-9.57,13.58-9.57l-9.67-4.22S555.89,317.59,550.86,324.26Zm26-14.67-20.91,2,25.35,8.14Z" transform="translate(-396.8 -210.09)"/></svg>