<svg id="レイヤー_1" data-name="レイヤー 1" xmlns="http://www.w3.org/2000/svg" viewBox="0 0 699.69 392.49"><defs><style>.cls-1,.cls-2,.cls-4,.cls-5{fill:none;}.cls-1,.cls-2,.cls-3,.cls-4{stroke:#000;stroke-linecap:round;stroke-linejoin:round;}.cls-1{stroke-width:0.51px;}.cls-2{stroke-width:0.99px;}.cls-3{fill:#fff;}.cls-3,.cls-4,.cls-5{stroke-width:2.16px;}.cls-5{stroke:#fff;}.cls-6{fill:#231815;}</style></defs><path class="cls-1" d="M391.3,592.69v-96.2m-69.2,96.2V445.79m11.1,146.9V447.59m-.4,145.1V447.49m49.2,67.3v-19.7m-1.1,20.1V495m472.2,53.6-12.4-1.9m-547.5-81.8L280.8,463m684.9,129.7V476.59m-67.5,116.1v-89.2m10.7,89.2v-90.8m.4,90.8v-90.9m56.1-25.4.2.2m-127.4,9.7-546.8-81.7M838.3,488l-549.8-82.1m551.4,114.2-552-82.5M838.3,493l-551.8-82.4m551.8,82.2-551.7-82.5m551.7,77.9L288.4,406m2.1-11.8h.2m1.1-3.6h.2m34.4-44.1-11-1.6m-29.8,44.4-13.6-2.1m17.5-8.2-13.7-2m43.7-96v59.8m4.4-59.1v53.1m-.8-53.3V336m-34.8,58.1,1.9.3m-.8-4.8,2.3.4m612.1,110.9.1.1m64-25.9h-.1m-58.3,26.2h-.1m-5.3-.3h0m4.8.3v.1m59-158.3v132m-58.4-106v132.2m-.6-132.2v132.2m-4.8-132.9V501m-.2,0,.3.3m63.6-26.2-.3.4m-58.1,25.8-.3.3m-.2-.2.1.3m-4.9-.7.1.3m-574.1-100,501.1,74.9m-536.6-82.1v.1m34.3,3-26.5-4m0,0,25.5-8.8m0,0,26.5,3.9m0,0-25.5,8.9m-.6,2h0m.6-.1v.1M294.4,394h0m34.8,5.5,31.4-10.9m-7.9,3.4-23.1,8m32.3-11.2-3.9,1.4m-28.8,9.3-36.3-5.4m35.5,7-36.2-5.4m36.9,5.4-.3,9m-.6-.1.2-8.9m0,0h.7m.5-1.1-.1.1-.1.1-.1.1-.1.1v.2l-.1.1v.4m.1-1.6h.1v.1h.1l.1.1v.1l.1.1v.1m-1.2,1.1.1-.3v-.2l.1-.3.1-.2.1-.2.1-.2.1-.1.2-.1m504,75.3h-.1m-.6,1.6h-.2v-.1h-.1m6.1-3.3-5.1,1.8m-.7,1.6-.4,8.9m6.2-9.7-5.1-.8m0,0-.1.1-.1.1-.2.2-.1.2-.1.2v.3l-.1.2v.3m5.8.9-5.8-.9m-511.7-31.7h-.1l-.1-.1m1.9,1.3h0v.1h.1m35,5.1.1.1h.1m1.3-1.1v.7m0-.7.7-1.3m-2.2,2.3h.7l.1-.1.1-.1v-.5m-38.5-7.6.8,1.9m0,0,.1.2.2.2.2.2.2.2.2.1.3.1.2.1.3.1m0,0,35.1,5.2m.9-.7-.9-1.9m1.5,1.6H359v.1l-.1.1h-.2l-.1.1h-.1m-.1-1.8.7,1.5m503-13-551.5-82.4m547.8,92.6-551.5-82.4m552.7,76.7L308,359.19m551.6,82.4-551.5-82.4m.3,20.3,536.3,80.1m3.8-3.1-539.9-80.6m0-.2,540,80.7m7.4-5.9-547-81.8m-.5-2.2,548.6,82m-548.9-80.4,548.3,82m.6-1.5-548.7-81.9m548.6,83-.1-.1m-552.7-73.2.1.3.2.2.1.1m604.7-15-592.5-88.5m592.3,95.3-592.6-88.6m592.6,82.4-592.6-88.5m0,0V274m0,6.1h0m593,88.8-.2.1m.2-6.7-.2-.2m.1.5h-.3m.3,6.1h-.3m-5.4,2-576.1-86.1m561.7,134-550-82.2m564.4,36.5-578.8-86.5m578.8,86.1L325,286m578.7,86.9-578.8-86.5m578.8,86.2L325,286.09m263.2,68.5h0m.1,0h0m2.4.4h0m.2.3h0m-.1-.3h0m.1.2v-.1m-.5-.6v-.1m0-2.5h0m1.8,3.3h0m.1,0h0m-1.8-4.5h0m-.1-.2h0m0-2.1h0m0-.2v-.1m-2.2-.9h0m2.7.7h0m-.1-.3h0m.1.2v-.1m4.2,7.8h0m.2.2h0m.2.3h0m-.1-.3h0m.1.1h0m-3.6-5h0m2.2-1.8h0m-1.8-1.2h0m2.9.7h0m-.2-.2.1-.1m.1.2h0m19.7,7.6h.1m-1.5-4.3h0m-2.4-1h.1m2.7.6h0m-.1-.2V351m.1.2h0m1.3,7.7h0m.8-3.3h.1m-2.5-3.6h0m1.2,3.9h0m3.5.6h.1m-1.2-4.2h0m-2.2-1.1h0m2.6.7h.1m-.2-.3h.1m0,.2.1-.1m-.5.7h.1m.9,4h0m.1,3h0m2.2-6.3h.1m.1-.2v-.1m-1.6-.9v-.1m2.2.6h0m-.1-.2h0m.1.1h0m16.3,9.7h0m0,0h0m2.9.7h0m-.2-.3h.1m0,0h0m.1.2v-.1m-.6-.7v-.1m0-5.8h0m.1-.4h0m-2.4-.9h0m2.9.7h0m-.1-.3h0m.1.2h0m-15.7,4.9h0m2.3.3h0m.2.3h0m-.5-.4h0m.4.2v-.1m.1.2h0m-.8-1.3h0m.3-.9h0m.4-.8h.1m2.1,3.2h0m.1,0h0m-2.2-3.2h0m1.7.3v-.1m-1.8-.4h0m.8-2.2h0m4.5,6.3h0m-.1-.3h0m.1.2h0m-4.6-8.2v-.1m1.2.3.1-.1m.1.2h0m2.5,7.1h.1m-32-4.2h0m2.2.3h.1m.2.3h0m-.6-.4.1-.1m.3.2h.1m.1.2h0m-.8-1.3h0m.3-.9h0m.4-.8h0m2.2,3.2h0m0,0h.1m-2.3-3.2h.1m1.6.2h.1m-1.9-.4h.1m.7-2.2h.1m4.5,6.3h0m-.1-.3h0m.1.1h0m-4.7-8.2h0m1.3.2h0m.1.1h.1m2.5,7.2v-.1m-42.2-56.5h0m-2.5.3v-.1m6,.1.1-.1m25.9,4v-.1m53.5,8.4v-.1m-2.4.3v-.1m6,.1v-.1m26,4v-.1m-15.6-3.4,125.5,18.8M584.9,302l71.7,10.7m-190.3-28.5,113.4,17m-123.6-15.8L777,333.29m-321.8-41.2,320.8,48m-320.2-54.3,320.8,48m-321.5-41.7h.1m.6-6.3h0m108.8,14.8.1-.3m-2.5.4v-.1m6,.2v-.2m26,4.1v-.2m53.5,8.5v-.2m-2.4.4V313m6,.2V313m26,4.1v-.2m109.9,18.7.1-.2m-11,5,.2-.1m10.8-7.8-.1-.2m-10.1,1.3-.2-.2m0,.4h-.2m-.4,6.2-.2.1M567.6,301h-.3l-.3-.1h-1.5m2.2-.1h-.1v.2m5.3.8-5.3-.8m0,0-.1.6m5.6,0H573v.1h-.1v.1m1.1.2h-.1l-.2-.1h-.5l-.1-.1h-.2m0,0v.6m-7.6-1.8h.1v.1h.1v.2m0,0v.4m0-.4h-1.1l-.3.1h-.5m-.7-.1h.2v.1m11.1.8H574v.2m7.4,1.4-.1-.1-1.3-.2-1.3-.2-1.2-.2-1.2-.3-1.2-.2L574,302m0,0-.1.6m13.8,1.7-.6-.1m.2.2,1.5-.2m-6.2-.5,4.7.7m-14.2-2.8-5.4-.8m21.1,3.4-2-.3m-24.2-3.1h0m32.6,4.1h-.1l-.2-.1h-.2l-.3-.1h-.3m-13.2-2-13-1.9m26.2,3.9-7.7-1.2m-12.6-11.3h0v-.1m.2.3-.2-.2m0,0,.1.1.1.1m-.1-.2v.1l.1.1m.4-.6h.2l.1.1m-.9.2h0v.1h.1m1.3-.3h-.5m0,0,3.9,4.2,4.1,4.4,3.6,3.7m-12-12.1V292h.1l.1-.1h.2m78.3,22.3h.5m0,0h.5m16.2,2.2h.5l.2.1h.6m-1.2-.4h0v.2l-.1.1m0,0v.6m-10.9-2h.2l1.5.2,1.5.2,1.5.2,1.6.2,1.5.2,1.6.2,1.5.2m1.4-.1h0l-.1.1v.1m0,0-.1.6m.1-.6,5.3.8m0,0v.2m.2-.4h-.1v.1h-.1v.1m0,0,.3.1h.2l.1.1m-25.5-3.4,1.5-.2m0,0,.9.1m17.3,2.3,5.4.8m0,0,.5.1.3.1.1.1h-.1m-21.2-2.6-4.7-.7m25.2,3h.4l.2.1h.3l.1.1h.1m-18.1-2.8,17,2.6m-26.2-3.9,3.9.5m-9.2-.4.1-.1m25.2-6.9-.4.1m0,0h.4m-1,.1-.1.1-.1.1m0,0,.2-.1m.6-.2h0m0,0h0m-.6.2h-.1l-.1.1m.8-.3-.1-.2-.2-.1H670m.5.3h-.3l-.1.1h-.2m.4.7.2-.2.1-.2v-.2l-.1-.2m-.6.2.1-.1h.2l.3-.1m-1.1-.1h0v-.1h.1m.8,1,.5-.1m-12.2,8,1.9-1.3,4.8-3.2,5-3.4m-.4-.1h0v.1h.4m299.3,35-.2.2m.2-.2v-6.9m0,0-.2-.2M480.3,206.89h0m6-5.5.2-.2m37.9,2.9.1-.1m237.2,35.4,2.5.6m-2.7-.4.2-.2m37,8.5-.1.2m6.6,7.7-2.5-.7m0,0h-.3m79.4,174.4,13.7,2.1m-53.3,30,13.7,2m-17.5,8.3,13.6,2m-480-19-5.3,2.3m0,0v.1h-.1v.1l-.1.2-.1.2.1.3v.2l.1.2.2.1h.1m15.5-6.5-1.3.6-.5.2-.2.1m.3,0,1.9-.8m-1.4,1.5v-.1l-.1-.1v-.1l-.1-.1v-.1l-.1-.1h-.1l-.1-.1m-.3,0h0l.1.1h.2V453m-.5,0h.2m.8.7h-.4l-.2.1-.3-.1H380l-.1-.1m4.1-1.2-1.7.7-1.1.6m-1.3,2h0l.1.1h.2l.3.1h.3l.2-.1.3-.1.3-.1.6-.3,1-.4.7-.3.6-.3.7-.3.1-.1" transform="translate(-271.3 -200.69)"/><path class="cls-1" d="M321.9,592.69H966.2m-684.3,0h22" transform="translate(-271.3 -200.69)"/><path class="cls-2" d="M389.1,592.69v-96.5m-.1,96.5v-96.5m-53.6,96.5V447.89m46.6,66.8v.1m0,0h-.1l-.1.1h-.1l-.1.1-.2.1h-.1l-.2.1h-.2m0,0h-.3m460.1,31.5.5,46m-1.3-71.9-.1.1m24,71.8v-73.8m-10.7,29.7.5,44.1m-14.3-71.4-.1.1m0,0,.3,3,.3,3.1.3,3.2.2,3.1.2,3.2.1,3.2.1,3.3v3.2m10.9-23.5.3,3.1.3,3.1.3,3.1.2,3.2.2,3.2.1,3.2.1,3.2v3.3m-13.3-27.7h.2m-.2,0-.5.4m1.1.2-1.1-.2M280.8,463l1.1,129.7m22,0V440.39m-10.7,24.5,1.1,127.8m-15.1-155,.3,3.1.3,3.1.3,3.1.2,3.2.2,3.1.1,3.2.1,3.3.1,3.2m10.8-23.4.4,3,.3,3.1.2,3.2.2,3.1.2,3.2.1,3.2.1,3.2.1,3.3m-5-26.4,3.2.5m.1.5-4.2-.7m4.1.2.7-.3m-.6.8-.1-.5m.2.6-.1-.1m1.8-.7-1.7.8m674,37,.3-.2.2-.2v-.1m-56.8,25.7,56.3-25.2m-56.7,25.3h.3v-.1h.1m-2.5-.3,2.1.4m-5.2-.8h.1m2.7.4,2.4.4m-5.2-.8h.2m5,.8h.4v-.1m0,0,56.4-25.2m0,0,.3-.2.2-.2V476m-.6.6.3-.2.2-.2v-.1m-56.8,25.7,56.3-25.2m-56.3,25.2h-.2m0,0v-.2m-2.3-.1,2.1.4m-5.2-.8h.1m5.3.7H909v.1h-.1m-621-64.3v.2l.1.1v.1h.1v.1h.1m3.2-33.6h0v.1m0,0-2.9,1.3m0,0h-.1v.1m-1.9,4.6.1,3.4.1,3.4.2,3.4.1,3.4.2,3.4.2,3.3.2,3.4.3,3.3m-1.3-27.3v.1h-.1v.2m1.9-4.6-1.8,4.3m0,.3.1,3.4.1,3.4.1,3.4.2,3.4.1,3.3.3,3.4.2,3.3.2,3.3m35.9-102.8-1,1.6-1.1,1.8-1.2,1.6-1.2,1.5-1.3,1.3-1.3,1.3-1.3,1.1m22.6-10.4-12.9-1.9M274.3,437l-.7-.4m13.6,2.3L274.3,437m12.9,1.9v-.2m1.6-.5-1.6.7m1.6-.7h0m26.6-93.3L275.8,377m-3.8,10.2-.1,6.4-.1,6.3.1,6.2.2,6.2.2,6.2.3,6.1.5,6.1.5,5.9m0,0h0m0,0,13.6,2.1m0,0h0M275.8,377l-.6.6-.6.7-.5.8-.5,1-.5,1.1-.4,1.1-.3,1.2-.2,1.2L272,386v1.2m20,3.4,16.2-12.9m-17.5,16.5v-.5l.1-.6.1-.5.1-.5.2-.5.3-.4.2-.3.3-.3m-1.3,14.3v-10.7m-2.5,12.2v-11m0,0,.1-1.3.1-1.2.2-1.3.4-1.1.4-1.1.4-1.1.6-.8.5-.8.7-.6m0,0L310.5,371m-24.9,18.3-.1,6.3v12.6l.2,6.2.3,6.1.3,6.2.4,6,.5,6m0,0,1.3-.6m54.4-100.9-.2.7-.1.3m-4.1-3.3-.9,1.6-1.1,1.9-1.2,1.7-1.2,1.6-1.2,1.5m-26,21.7L289.5,379m0,0-.6.6-.6.7-.6.9-.5.9-.4,1.1-.4,1.1-.3,1.2-.3,1.3-.1,1.2-.1,1.3m3,16.5-.3-.1m3.4-15.7,15.6-12.4m-17.1,16.8v-.7l.1-.7.1-.6.2-.6.2-.6.3-.4.3-.5.3-.3m-1.5,4.4v10.7m-1.9-9.9v11m0-11V394l.2-1.1.2-1.1.3-1.1.4-1.1.4-.9.5-.8.5-.7.6-.6m0,0,18.9-15.1m33.4-33.9v-.1l.1-.2m.2,0-.1.2m623.9,137.6.4-.2.1-.1m-.4.3.4-.3.2-.2v-.2m-64.6,26.8-.1-.2m.1.2h.1m5.4.1,58.4-26.2m-58.9,26.3h.4v-.1h.1m-5.3-.3.6.1.6.1h1.2l.6.1h.6l.6.1h.6m-4.9-.2-.1-.1m0-.1h.2m-.2.1-.1-.1h.1m-.1,0h-.1v-.1h.1m0,0h0l.1.1h.2m5.4.3,58.4-26.2m-59,26.2h.6m-5.4-.3h.6l.6.1h.6l.6.1h.6l.6.1h1.2m58.6-25.8.3-.2.1-.1m.4-.4-.1.1-.4.2m-63.9,26,.1.1m0,0,.2.1m0,0h0m4.9.3,58.4-26.1M909,501.69h.1v-.1m-4.9-.3.6.1h.6l.6.1h.6l.6.1h1.2l.6.1m-4.9-.7h-.2m0,0h-.1l.1.1m63.9-26-58.4,26.2m0,0h-.1v.1h-.4m0,0h-.6l-.6-.1h-.6l-.6-.1h-1.2l-.6-.1-.6-.1M362.3,388.89l-9.5,2.8m-2.1,6v.2m2.1-6.2-2.1,6m4.6.7-4.6-.7m6.7-5.3-4.6-.7m14.1-2.2-9.5,2.9m0,0-2.1,6m0,0v.2m24-7.2-9.6,2.9m-2,5.9v.3m2-6.2-2,5.9m4.6.7-4.6-.7m6.6-5.2-4.6-.7m14.2-2.2-9.6,2.9m0,0-2,5.9m0,0v.3m18.6-8.1-9.6,2.9m-2,6-.1.2m2.1-6.2-2,6m4.5.7-4.5-.7m6.6-5.3-4.6-.7m14.1-2.2-9.5,2.9m0,0-2.1,6m0,0v.2m24-7.2-9.6,2.8m-2,6v.2m2-6.2-2,6m4.6.7-4.6-.7m6.6-5.3-4.6-.7m14.2-2.2-9.6,2.9m0,0-2,6m0,0v.2m18-8.1-9.5,2.9m-2.1,6v.2m2.1-6.2-2.1,6m4.6.6-4.6-.6m6.7-5.3-4.6-.7m14.1-2.2-9.5,2.9m0,0-2.1,5.9m0,0v.3m18.1-8.2-9.6,2.9m-2,6-.1.2m2.1-6.2-2,6m4.5.7-4.5-.7m6.6-5.3-4.6-.7m14.1-2.2-9.5,2.9m0,0-2.1,6m0,0v.2m24-7.2-9.6,2.9m-2,5.9v.3m2-6.2-2,5.9m4.6.7-4.6-.7m6.6-5.2-4.6-.7m14.2-2.2-9.6,2.9m0,0-2,5.9m0,0v.3m18.6-8.1-9.6,2.9m-2,6v.2m2-6.2-2,6m4.6.6-4.6-.6m6.6-5.3-4.6-.7m14.2-2.2-9.6,2.9m0,0-2,5.9m0,0-.1.3m24-7.3-9.5,2.9m-2.1,6v.2m2.1-6.2-2.1,6m4.6.7-4.6-.7m6.6-5.3-4.5-.7m14.1-2.2-9.6,2.9m0,0-2,6m0,0v.2m18-8.1-9.5,2.9m-2.1,5.9v.3m2.1-6.2-2.1,5.9m4.6.7-4.6-.7m6.7-5.2-4.6-.7m14.1-2.2-9.5,2.9m0,0-2.1,5.9m0,0v.3m18.1-8.2-9.6,2.9m-2,6v.2m2-6.2-2,6m4.5.7-4.5-.7m6.6-5.3-4.6-.7m14.1-2.2-9.5,2.9m0,0-2.1,6m0,0v.2m24-7.2-9.6,2.9m-2,5.9v.3m2-6.2-2,5.9m4.6.7-4.6-.7m6.6-5.3-4.6-.6m14.2-2.2-9.6,2.8m0,0-2,6m0,0v.2m18.6-8-9.6,2.9m-2,5.9v.3m2-6.2-2,5.9m4.6.7-4.6-.7m6.6-5.2-4.6-.7m14.2-2.2-9.6,2.9m0,0-2,5.9m0,0-.1.3m24-7.3-9.5,2.9m-2.1,6v.2m2.1-6.2-2.1,6m4.6.7-4.6-.7m6.6-5.3-4.5-.7m14.1-2.2-9.6,2.9m0,0-2,6m0,0v.2m18.1-8.1-9.6,2.9m-2,5.9-.1.3m2.1-6.2-2,5.9m4.5.7-4.5-.7m6.6-5.2-4.6-.7m14.1-2.2-9.5,2.9m0,0-2.1,5.9m0,0v.2m18.1-8.1-9.6,2.9m-2,6v.2m2-6.2-2,6m4.6.7-4.6-.7m6.6-5.3-4.6-.7m14.2-2.2-9.6,2.9m0,0-2,6m0,0-.1.2m24-7.2-9.5,2.8m-2.1,6v.2m2.1-6.2-2.1,6m4.6.7-4.6-.7m6.6-5.3-4.5-.7m14.1-2.2-9.6,2.9m0,0-2,6m0,0v.2m18.6-8-9.6,2.9m-2,5.9v.3m2-6.2-2,5.9m4.6.7-4.6-.7m6.6-5.2-4.6-.7m14.2-2.2-9.6,2.9m0,0-2,5.9m0,0v.3m23.9-7.3-9.5,2.9m-2.1,6v.2m2.1-6.2-2.1,6m4.6.7-4.6-.7m6.7-5.3-4.6-.7m14.1-2.2-9.5,2.9m0,0-2.1,6m0,0v.2m18.1-8.1-9.6,2.9m-2,5.9-.1.3m2.1-6.2-2,5.9m4.5.7-4.5-.7m6.6-5.3-4.6-.6m14.1-2.3-9.5,2.9m0,0-2.1,6m0,0v.2m18.1-8.1-9.6,2.9m-2,6v.2m2-6.2-2,6m4.6.6-4.6-.6m6.6-5.3-4.6-.7m14.2-2.2-9.6,2.9m0,0-2,5.9m0,0v.3m23.9-7.3-9.6,2.9m-2,6v.2m2-6.2-2,6m4.6.7-4.6-.7m6.6-5.3-4.6-.7m14.2-2.2-9.6,2.9m0,0-2,6m0,0v.2m18.6-8-9.6,2.9m-2,5.9-.1.3m2.1-6.2-2,5.9m4.5.7-4.5-.7m6.6-5.3-4.6-.6m14.1-2.3-9.5,2.9m0,0-2.1,6m0,0v.2m24-7.2-9.6,2.9m-2,6v.2m2-6.2-2,6m4.6.6-4.6-.6m6.6-5.3-4.6-.7m14.2-2.2-9.6,2.9m0,0-2,5.9m0,0v.3m18-8.2-9.5,2.9m-2.1,6v.2m2.1-6.2-2.1,6m4.6.7-4.6-.7m6.7-5.3-4.6-.7m14.1-2.2-9.5,2.9m0,0-2.1,6m0,0v.2m18.1-8.1-9.6,2.9m-2,5.9-.1.3m2.1-6.2-2,5.9m4.5.7-4.5-.7m6.6-5.2-4.6-.7m14.1-2.2-9.5,2.9m0,0-2.1,5.9m0,0v.3m24-7.3-9.6,2.9m-2,6v.2m2-6.2-2,6m4.6.7-4.6-.7m6.6-5.3-4.6-.7m14.2-2.2-9.6,2.9m0,0-2,6m0,0v.2m18.6-8-9.6,2.8m-2,6v.2m2-6.2-2,6m4.5.7-4.5-.7m6.6-5.3-4.6-.7m14.1-2.2-9.5,2.9m0,0-2.1,6m0,0v.2m24-7.2-9.5,2.9m-2.1,5.9v.3m2.1-6.2-2.1,5.9m4.6.7-4.6-.7m6.6-5.2-4.5-.7m14.1-2.2-9.6,2.9m0,0-2,5.9m0,0v.3m18-8.2-9.5,2.9m-2.1,6v.2m2.1-6.2-2.1,6m4.6.7-4.6-.7m6.7-5.3-4.6-.7m14.1-2.2-9.5,2.9m0,0-2.1,6m0,0v.2m18.1-8.1-9.6,2.9m-2,5.9-.1.3m2.1-6.2-2,5.9m4.5.7-4.5-.7m6.6-5.2-4.6-.7m14.1-2.2-9.5,2.9m0,0-2.1,5.9m0,0v.3m24-7.3-9.6,2.9m-2,6v.2m2-6.2-2,6m4.6.7-4.6-.7m6.6-5.3-4.6-.7m14.2-2.2-9.6,2.9m0,0-2,6m0,0v.2m18.6-8.1-9.6,2.9m-2,6v.2m2-6.2-2,6m4.6.7-4.6-.7m6.6-5.3-4.6-.7m14.2-2.2-9.6,2.9m0,0-2,6m0,0-.1.2m24-7.2-9.5,2.9m-2.1,5.9v.3m2.1-6.2-2.1,5.9m4.6.7-4.6-.7m6.6-5.3-4.5-.6m14.1-2.2-9.6,2.8m0,0-2,6m0,0v.2m18-8.1-9.5,2.9m-2.1,6v.2m2.1-6.2-2.1,6m4.6.7-4.6-.7m6.7-5.3-4.6-.7m14.1-2.2-9.5,2.9m0,0-2.1,6m0,0v.2m18.1-8.1-9.6,2.9m-2,5.9v.3m2-6.2-2,5.9m4.6.7-4.6-.7m6.6-5.3-4.6-.6m14.2-2.2-9.6,2.8m0,0-2,6m0,0-.1.2m-475.5-76-22,7.6m46.8-9.7-21.8,7.5m0,0-4.6-.7m29.8.4-8.2,2.9m0,0-4.6-.7m37.9-5.2-21.8,7.6m0,0-4.6-.7m29.2.6-7.6,2.6m0,0-4.6-.7m23.2-.3-7.6,2.7m0,0-4.6-.7m37.4-5.2-21.8,7.5m0,0-4.6-.7m29.8.4-8.2,2.9m0,0-4.6-.7m37.9-5.2L451.3,413m0,0-4.5-.7m29.1.6-7.6,2.6m0,0-4.6-.7m48.4-3.6-21.8,7.6m0,0-4.5-.7m1.1-3.6-7.6,2.7m0,0-4.6-.7m40.8,2-8.2,2.8m0,0-4.6-.6m37.9-5.2-21.8,7.6m0,0-4.5-.7m29.1.6-7.6,2.6m0,0-4.6-.7m23.2-.3-7.6,2.6m0,0-4.6-.6m37.4-5.3-21.8,7.6m0,0-4.5-.7m29.7.4-8.2,2.8m0,0-4.6-.7m37.9-5.1-21.7,7.6m0,0-4.6-.7m29.1.5-7.6,2.7m0,0-4.6-.7m23.2-.3-7.6,2.6m0,0-4.6-.6m37.4-5.3L625.4,439m0,0-4.6-.7m29.7.3-8.2,2.9m0,0-4.6-.7m37.9-5.1-21.8,7.5m0,0-4.6-.6m29.2.5-7.6,2.7m0,0-4.6-.7m23.2-.3-7.6,2.6m0,0-4.6-.7m37.4-5.2-21.8,7.6m0,0-4.6-.7m29.8.3-8.2,2.9m0,0-4.6-.7m37.9-5.1-21.8,7.5m0,0-4.5-.7m29.1.6-7.6,2.7m0,0-4.6-.7m23.2-.3-7.6,2.6m0,0-4.6-.7m37.4-5.2-21.8,7.6m0,0-4.6-.7m29.8.3-8.2,2.9m0,0-4.6-.7m37.9-5.2-21.8,7.6m0,0-4.5-.7m29.1.6-7.6,2.6m0,0-4.6-.6m23.2-.3-7.6,2.6m0,0-4.6-.7m27.6-1.8-12,4.1m0,0-4.5-.6m-492.9-66.8-.2,8.5m-.1-8.5,501.1,74.9m-501.1-75.1v.2m0-.2,501.1,74.8m-501.1-75.1v.3m.2-.8,501.1,74.9m-501.1-74.9h0v.1h-.1v.2h-.1v.2m502.5,74-1.2.4m0,0h-.1v.1l-.1.1v.3m0,0v.2m0,0h0m0,0v.3m0,0,.3-.2m0,0-.2,8.7M325.2,383.29,294.5,394m0,0h-.1v.1h.2m0,0,33.7,5.1m.6-.1,30.8-10.6m-31.4,10.7h.5l.1-.1m-4.6-15.9-31.4,10.9m32.3-10.8L294.4,394m34.6,5.2,30.7-10.7m-31.5,10.7h.8m-34.4-5,33.6,5M294.4,394h0v.1h.1l.1.1m-2.4,1.5-.4,8.9m38.4,5.7h-.1m-37.2-16.2-.1.1-.1.1-.2.2-.1.2-.1.2v.2l-.1.3v.3M341,446h.1m-3.9-.6.2.3.3.4.5.3.5.1.4.1h.4l.3-.2v-.6m0,0,.1.2.1.3-.1.3-.2.2-.4.1h-.4l-.5-.1-.5-.2-.5-.3-.3-.4-.3-.4v-.2m-.6-.1v.2l.3.5.4.4.5.4.5.3.6.2.6.2h.5l.4-.1.4-.2.2-.3v-.3l-.1-.4m0,0-.1-.2m1.6.5h-1.2m1.2-.3v.3m0,0,.1-.2M341,446h.2m-.4.4h.4l.3-.1.2-.1.2-.1m499,117.6-503.1-75.2m560.1,83.7-34.1-5.1m-526.7-79,.7.4m560.1,83.7.1-.3m0,.2-.1.1M336.7,448.09v39.5m0,0,.4.5m526.7,78.7,34.2,5.1m-560.9-83.8,503.8,75.3m-496.7-226-33.6,17.3m-3.7,10.2-.1.3v.5l.1.2.1.1.1.1h.1m3.4-11.4-.4.3-.4.3-.4.5-.3.5-.4.7-.2.6-.3.8-.2.8m0,0-1.1,5.7m551.7,83.5h-.1v-.2l-.1-.2v-.6m0,0,1.2-5.8m0,0,.2-.8.2-.7.3-.7.3-.6.4-.5.3-.5.4-.4.4-.2m0,0,24.6-12.7m-24.6,12.6,24.7-12.7m-27.2,17.2.2-.8.2-.7.3-.7.3-.7.3-.5.4-.5.4-.3.4-.3m-3.7,10.2,1.2-5.7m-1.1,6.8-.1-.1v-.2l-.1-.2.1-.3v-.3m-547.8-92.5-.4.2-.4.4-.4.4-.3.6-.3.6-.3.7-.2.7-.2.8m0,0-1.2,5.7m560.6,76.2V440m0,0,4-2.1m15.2-13.4-24.6,12.7m0,0-.4.2-.4.4-.3.5-.4.5-.3.6-.3.7-.2.7-.2.8m0,0-1.2,5.8m0,0v.6l.1.2v.2h.1m-549.5-68.6h0l-.4-.1-.2-.1-.1-.1m.2-3.6-.4,2.8m.2.8v-.1l-.1-.1V379l-.1-.1v-.2m.4-2.8h0v-.2m2.5-6.6-.1.5-.4,1.3-.5,1.3-.5,1.2-.5,1.2-.5,1.1m.4-7h-.1m-.5-2v-.1l.1-.1m-.3,1.6.1.2.2.2.4.2h.1m-.2-2.3-.3.1m548.4,83.1-.1.1v.1m-548.4-83.1-.2.9m0,.5h0v-.5m549.3,80.8-.4.1m0,0h0v.1m0,0-.2,1m.4-.2.1-.2m0,0v-.1m0,0,.8-.5m-549.9-69.5-.2,1.6m535.2,80-535.2-80m-3.6-4.5v.2l.1.3.2.3m.3.2H305l-.2-.1-.1-.3-.1-.5v-.2m11.9-95.9.1.1v.2l.1.1m149.5-2.9L347.3,260m592.1,88.4-144.8-21.6M346.9,260h.4m-.4,0-30.1,13.5m622.6,74.9.1.1m-622.7-75h0l-.1.1-.1.1v.3l-.1.1m0,0v6.1m623,68.3v.1m0-.1L909.3,362m0,0v.1h-.1v.2h-.1v.3m0,0-.1.8V368l.1.8m0,0v.2l.1.1h.1m0,0,5.7-2.5m0-.1v.1m-5.7,2.4,5.7-2.5m-5.9,2.2v.2l.1.1.1.1V369m-.2-6.4v.8l-.1.8v3l.1.8v.7m.2-6.6h0v.1h-.1v.2l-.1.1v.1m30.4-14-30.2,13.5m-592.8-81.9h0v-.1m0-6.1h0v-.1h.1v-.1m-.1,6.3v-.7l-.1-.8v-3l.1-.8V274m623,81.5L909.3,369m30.2-13.6v.1M909.3,369v.1l-.1-.1-.1-.1v-.2m30.4-20.1v.3m-30.2,13.2,30.2-13.5m-30.1,20.1v.2h.1m0,0,30-13.5m0,0v-6.5m0,0-30,13.4m-.4.3v-.1l.1-.1v-.2h.1v-.1m.2.2h0v.1h-.1v.2m-.3,6.1V368l-.1-.8v-3l.1-.8v-.8m.3,0-.1.8V368l.1.7m-569.9-32h0l-.1-.1-.1-.1v-.1m551.3,80.7-.3.2-.3.2-.3.3-.2.4-.1.4m1.5-.4-1.5.6m0,0,1.6-.7m-1.6.5v.2m-.1-.2v.2h.1M327.7,284.59h-.1m0,0L325,286m12,48.1-12.1-1.8m14.4,4.1-.1-.4-.2-.4-.3-.4-.3-.3-.3-.3-.4-.3-.3-.1-.4-.1M891.7,417h-.8l-.3.1-.4.2-.3.3-.2.3-.2.3-.2.4m14.4.2-12-1.8M324.9,286.39v45.9M325,286h0v.1h-.1v.3M891,418.09l-1.6.7m0,0h0v-.2M327.6,284.69l-2.6,1.4m-.1.3v45.9m0,0,12.1,1.8m0,0,.4.1.4.1.3.3.4.2.3.4.2.4.2.4.2.4m550,82.2.1-.4.2-.4.3-.3.3-.2.3-.2M325,286.09h0l-.1.1v.2m263.4,68.2h-.1m.3,0h-.2m2.5.4h-.1m0,0h-.1l-.1-.1v-.1l-.1-.1m0,0h0m.5.6v-.2m-.5-.7v-2.5m0,0h0v-.1m0,0h0m1.9,3.4h-.1m.2,0h-.1m-1.8-4.5h0m-.1-.2v-2.1m1.5,2.5h0m0,0h0m-1.5-2.8.1-.1h.1m.2-.4-2.6-.4m2.7.7v-.2m4.5,8h-.1m.2.3v-.2m-.5-.4-3.1-4.5m0,.1v-.1m3.1,4.5h0m-3.1-4.6,2.2-1.8m.5-.3.2-.1m-.7.4.4-.2m.6-.6-2.8-.4m2.9.7v-.1m-3-.3h0v.1h.1m0,0h.2m0,0,.1.1.1.1m0,0,.1.2v.2l-.1.1m0,0-2.1,1.8m0,0h-.1m0,0h-.1v-.2m0,0v-2.1m0,0v-.2m0,0,.1-.1V348h.2m0,0h.1m0,0h.1v-.1m0,0v-.1m0,0v-.1l-.1-.1m0,0-2.6-.4m0,0h0l-.1.1m0,0v.2m0,0h0v.1h.1m0,0h.1m0,0,.1.1h.1v.1l.1.1m0,0v.3m0,0v6m0,0v.3m0,0-.1.1h-.2m0,0h-.1m0,0h0l-.1.1m0,0v.2m0,0h0v.1h.1m0,0,2.6.4m0,0h0l.1-.1m0,0v-.1m0,0v-.1l-.1-.1m0,0h-.1m0,0h-.1l-.1-.1v-.1l-.1-.1m0,0v-.2m0,0v-2.6m0,0h0v-.1m0,0h.1l.1.1m0,0,1.8,2.7m0,0,.1.2v.2m0,0v.1l-.1.1h-.1m0,0h-.1m0,0h0l-.1.1m0,0v.2m0,0h0v.1h.1m0,0,3.2.5m0,0h0l.1-.1m0,0v-.2m0,0h0v-.1h-.1m0,0h-.1m0,0-.1-.1-.1-.1m0,0H595v-.1m0,0-3.1-4.4m0,0h0v-.1m0,0h-.1v-.1h.1m0,0,2.2-1.8m0,0,.3-.2.3-.2m0,0h.3m0,0h0m0,0h.2v-.1m0,0v-.1m0,0-.1-.1H595m0,0-2.7-.5m0,0v.1h-.1v.1m0,0v.1m21.3,3.6.1-.1v-.1m.3-.1h0v-.1m-.1-.3-2.6-.3m2.7.6v-.1m1.3,7.7.9-3.3m0,0v-.1m-1.3.4-1.2-3.9m3.6.3v-.1l.1-.1V352m.3,0v-.1h.1m-.1-.3-2.6-.4m2.7.7v-.2m.5,4.7-.9-4m1,7,2.3-6.3m.1-.3.2-.2m.4-.1h0v-.1m-.1-.2-2.1-.4m2.2.6v-.1m-7.8-.6v-.1l.1-.1.1-.1m0,0h.1m0,0h0m0,0h.1v-.1m0,0v-.1m0,0v-.1h-.1m0,0-2.7-.4m0,0H611v.1m0,0v.1m0,0h0l.1.1m0,0h.1m0,0,.1.1h.1m0,0,.1.2v.1m0,0,.1.2.1.2m0,0,2.2,6.9m0,0v.1h.1l.1.1m0,0,.9.1m0,0h.1l.1-.1m0,0,.8-3.3m0,0h0l.1-.1m0,0h.1v.1m0,0,.9,3.6m0,0v.1h.1m0,0,1,.2m0,0h0l.1-.1m0,0,2.2-6.3m0,0,.1-.1.1-.1m0,0,.2-.3.2-.1m0,0h.1m0,0h0m0,0h.1v-.1m0,0v-.1m0,0h0v-.1h-.1m0,0-2.1-.3m0,0H619v.1m0,0v.1m0,0h0v.1h.1m0,0,.2.1h.1m0,0,.1.1.1.2v.2m0,0h0m0,0v.3l-.1.2m0,0-1.1,3.2m0,0h-.1m0,0h-.1v-.1m0,0-1-4m0,0v-.1m0,0v-.1l.1-.1V352h.1m0,0h.1m0,0h.1v-.1m0,0v-.1m0,0v-.2h-.1m0,0-2.5-.4m0,0h0l-.1.1m0,0v.2m0,0h0v.1h.1m0,0h.1m0,0,.1.1m0,0,.1.1.1.2m0,0v.3m0,0,.3.9m0,0v.2m0,0-.7,2.5m0,0v.1h-.1m0,0h-.1v-.1m0,0-1.2-3.9m0,0-.1-.2v-.1M637.6,362h0m0,0h0m.2,0h-.2m2.4.2-.1-.3v-.2m.5,1.1.1-.1m-.1-.3h0m.1.3v-.2m-.1-.1h-.1l-.1-.1-.2-.1m0,0h0m-.1-.5v-5.8m0,0,.1-.3v-.1m0,0,.2-.1m.2-.4-2.8-.4m2.9.7v-.1m-.1.2h0l.1-.1m0,0v-.1m0,0v-.1h-.1V355m0,0-2.8-.4m0,0h-.1v.1m0,0v.1m0,0v.2h.1m0,0h0m0,0,.2.1.1.1m0,0,.1.2.1.2m0,0v5.9m0,0-.1.2-.1.2m0,0-.1.1h-.2m0,0h0m0,0h-.1v.1m0,0v.1m0,0v.2h.1m0,0,2.8.4m0,0h0l.1-.1m0,0v-.1m0,0v-.1h-.1v-.1m0,0h-.1m0,0h-.1l-.1-.1-.1-.1m0,0-.1-.2v-.2m0,0v-5.9m0,0v-.3l.1-.1m0,0,.2-.1h.1m0,0h.1m-15.6,4.7h0m.2-.1v.1h-.2m2.3.3h-.2l-.1-.1m.5.5h0v-.1m-.1-.3h-.1m.2.3v-.1m-.5-.3-.2-.3-.1-.3v-.4m0,0,.3-.9m.5-.8h0m2.2,3.2h-.1m.3,0h-.2m-2.2-3.2,1.7.2m-1-2.6-.8,2.2m.8-2.2h0m4.1,5.9-.1-.3-.1-.2m.6.9v-.1m-.1-.2h-.1l-.2-.1m0,0h0m-2.9-7.8-1.3-.2m4,7.5-2.6-7.1m3.2,7.9v-.2h-.1m0,0h-.2l-.1-.1m0,0-.2-.3-.1-.2m0,0-2.5-7.1m0,0-.1-.1h-.1m0,0-1.2-.2m0,0h-.2m0,0-2.1,6m0,0-.2.4-.2.4m0,0-.2.1h-.2m0,0h-.1v.1m0,0v.1m0,0v.1h.1v.1m0,0,2.4.3m0,0h.1v-.1m0,0v-.1m0,0v-.1h-.1m0,0-.1-.1m0,0h-.2l-.1-.1m0,0-.2-.3-.1-.2v-.5m0,0,.3-.9m0,0h0l.1-.1h.1m0,0,2.3.4m0,0h.1l.1.1m0,0,.5,1.5m0,0v.3l-.1.1m0,0-.2.1h-.2m0,0h-.1m0,0h-.1v.1m0,0v.1m0,0v.1h.1v.1m0,0,3,.4m0,0h.1v-.1m0,0v-.1m-3.5-3.5h0v-.1h.1m-1.8-.2,1.7.3m-1.8-.3h.1m-.1-.2v.2m.8-2.4-.8,2.2m.8-2.3v.1m.2,0h-.1v-.1H628m1.1,2.6-.9-2.5m.9,2.6v-.1m-29-1.4h0l-.2.1m2.3.3-.2-.1-.1-.1m.4.6h.1V357m-.1-.3h-.1m.2.3v-.1m-.5-.4-.2-.2-.1-.3v-.4m0,0,.3-.9m.4-.8h.1m2.1,3.2h-.1m.2,0h-.1m.3-.1h0l-.2.1m-2.2-3.2,1.7.2m-1-2.6-.8,2.2m.8-2.3v.1m4.1,5.8-.2-.2-.1-.3m.7,1.1v-.1m0,0v-.2m-.1-.1-.2-.1-.1-.1m0,0h0m-3-7.7-1.3-.2m4,7.4-2.5-7.1m3.2,7.9h0v-.1h-.1m0,0-.2-.1-.1-.1m0,0-.2-.2-.1-.2m0,0-2.6-7.2m0,0h0l-.1-.1m0,0-1.3-.2m0,0h0l-.1.1m0,0-2.1,6m0,0-.2.4-.3.3m0,0-.2.2h-.1m0,0h-.1v.1m0,0v.1m0,0v.1h.1m0,0,2.3.4m0,0h.1V357h.1m0,0v-.1m0,0-.1-.1v-.1h-.1m0,0h-.1m0,0-.1-.1h-.2m0,0-.2-.3-.1-.3v-.2l.1-.2m0,0,.3-.9m0,0h0l.1-.1m0,0,2.4.4m0,0h.1v.1m0,0,.6,1.4m0,0v.3l-.1.1m0,0-.2.2h-.3m0,0h0m0,0h-.1v.1m0,0v.1m0,0h0v.1h.1m0,0,3,.5m0,0h0l.1-.1m0,0v-.2m-3.6-3.5h.1V354m-1.8-.1,1.7.2m-1.7-.2h0m-.1-.2v.1h.1v.1m.7-2.4-.8,2.2m.9-2.3h0l-.1.1m.2,0h0v-.1h-.1m1,2.6-.9-2.5m.9,2.5h0m-39.4-53.7h.7l.5.1h.9l.5.1h.5l.4.1m-6,0h.2l.3-.1h.6l.3-.1h.7l.4-.1m-2.6.4h0l.1-.1m23.9,2.7,8.1,1.2m-26-3.9,12.5,1.8m13.5,2.1h.4l.4.1.3.1h.2l.1.1m52.1,8h2.2l.5.1h.5l.4.1m-6,0h.2l.3-.1h.5l.3-.1h1.1m-2.6.3h.1l.1-.1m15,1.3,17,2.6m-26-3.9,3.8.6m22.2,3.3h.4l.3.1.3.1.2.1h.2m-212.4-33h.1M786.1,336l.1.1m-330.8-43.5h-.1v-.1h-.1v-.4m137.9,13h1l.3-.1h.6l.3-.1h.2m-6,0,.4.1h.5l.5.1h2.2M563.5,301l26,3.9m-27.3-4.4-.1.1v.1h.1l.2.1.3.1.4.1h.4m1.2-.7h-1.1l-.3.1h-.6l-.2.1h-.3m6.1,0-.5-.1h-.5l-.5-.1h-2.1m15.9,2-12.3-1.8m25.9,3.9-8.1-1.2m9.4,1.7.1-.1h.1l-.1-.1h-.1l-.2-.1-.3-.1h-.4l-.4-.1m61,9.1-3.9-.6m26,3.9-16.9-2.5m18.1,3,.2-.1v-.1h-.2l-.2-.1-.2-.1h-.4l-.4-.1m-1.2.7h1.1l.3-.1h.6l.2-.1h.2m-6,0,.5.1h.5l.4.1h1l.5.1h.4l.3-.1m-29.6-4.1,26,3.9m-27.2-4.4-.1.1h-.1l.1.1.1.1h.2l.3.1.3.1h.4m1.2-.7H647l-.4.1H646l-.2.1h-.5m6,0h-.4l-.5-.1h-.5l-.5-.1h-1.7m-191.6-27.3,10.2-1.2m-10.5,1.6v-.2h.1v-.1l.1-.1h.1m-.9,6.7v-1.5l.1-.8V289l.1-.8.1-.8.2-.8.1-.8m331.4,49.8-1,.4m0,.1V336m1-.4-1,.5m1.2-.7h-.1v.1l-.1.1m0-3.4h.1v.1h.1v.2m-10.4.8,10.2-1.1m-10.6,1.6.1-.1v-.2l.1-.1.1-.1h.1m-1,6.8v-.8l.1-.8v-.8l.1-.8.1-.8.1-.8.1-.7.1-.8m-.3,6.7h-.2v-.1l-.1-.1v-.2m1.2,0-.9.4m.9-.5v.1m0-.1-.9.4m0,0h-.2v-.3m0,0v-1.6l.1-.8v-.8l.1-.8.1-.8.1-.7.2-.8m0,0v-.2h.1v-.2h.1m0,0,10.3-1.1m0,0h.1v.1m-.1,3.1h0v.1m-332-43.4h-.1v-.1m.7-6.3h0v-.2h.1m-.8,6.5.1-.8v-1.6l.1-.7.1-.8.1-.8.1-.8.2-.8m331.4,49.7h0v.1m0-3.3h.1v.1m-.1,3.2-10.9,4.8m0,0h-.2v-.3m-214-39.4h0l.1-.1m0,0h.2l.3-.1h.6l.3-.1h.7l.4-.1m0,0h.7l.5.1h.9l.5.1h.5l.4.1m17.9,2.7,8.1,1.2m-26-3.9,12.5,1.8m13.5,2.1h.4l.4.1.3.1h.2l.1.1m64.7,9.5,17,2.6m-26-3.9,3.8.6m22.2,3.3h.4l.3.1.3.1.2.1h.2m-33.6-4.1h.1l.1-.1m0,0h.2l.3-.1h.5l.3-.1h1.1m0,0h2.2l.5.1h.5l.4.1m125.6,20.4,10.3-1.1m-10.5,1.5v-.2h.1v-.2h.1m-.6,6.6v.2h.1v.1h.1m0,0,10.8-4.9m0,0h0l.1-.1v-.1l.1-.1m0,0v-2.4m0,0h0l-.1-.1v-.1h-.1m0,0-10.2,1.1m0,0H777v.1l-.1.1m-321.1-48-.1.8-.1.8-.1.8-.1.8-.1.8v.8l-.1.7v.8m320.9,48v-1.6l.1-.8v-.8l.1-.8.1-.8.1-.7.2-.8m.2,0-.1.8-.1.8-.1.8-.1.7-.1.8v.8l-.1.8v.7m-208.4-39.2h0m26.2,3.9h0m-5.3-.5h-.1m-6.1-.5h0m-9-1.2,1.5.2,1.5.2,1.5.2,1.5.2,1.5.2,1.5.2m-17.3-3.1H565l-.4.1h-.9l-.3.1h-.2l-.3.1m4.8-.1-.6-.1-.6-.1h-1.2m8.9,1.2-1.1-.2m8,1.4-.9-.1-1.3-.2-1.2-.3-1.2-.2-1.2-.2-1.1-.2m-6.3-1-.4-.1h-.3l-.4-.1h-1.7m0,0H564l-.3.1h-.6l-.3.1h-.2m12.2-9.1h.1l.2.1.1.1m-1.4.1v.2m0,0h0m.1,0h-.1m0,0v.1l-.1.2v.2m.2-.7-.1.1m.1.1.1-.1.1-.1h.1l.1.1m-.6.6v.1m2.3-.3,2.8,3,2.9,3,2.9,3.2,2.6,2.7M576,292.49l-.4-.3-.4-.3m-.9.2,3,3,3,3.2,3.2,3.3,2.5,2.6m-11.7-12.1-.3.3m0,0h0m0,0h0m0,0-.3.3m0,0,.5.7.3.5.6,1,1.2,1.6,2.1,3,2.6,3.3.7.8m71.7,10.3h.1v.3m0,0v.1m-2.5-1.1h-.1m26.2,3.9h0m-20.5-2.3h.1m2.9,0,1.5.2,1.5.2,1.5.2,1.5.2,1.6.2,1.6.1,1.5.2m0,0,1.3.2m-7.4-.2-1.1-.2-1.3-.3-1.2-.2-1.3-.2L658,315l-1.4-.2m-8.5-1.8h1.7l.4.1h.4l.3.1m-5.2,0h.4l.3-.1h.3l.3-.1h1.1m22.8-6.7h0m0,0v.1m0-.1-.4.1m.4-.1h0l-.1-.1-.1-.1-.2-.1h-.1m.4,1.1.1-.1.1-.2v-.2l-.1-.2m-1,.1v.1m.6-.2h-.3l-.1.1H670l-.1.1m0,0h0m.1-.5h-.1m0,.4-.1-.1-.1-.1h-.3m.5.3v.1l.1.2-.1.1v.1m-8.8,3.1-2.9,1.6-4.4,2.5m15.7-8.1.1-.1m-10.5,9.1.5-.4,1.3-.8,1.3-.9,1.3-.8,1.3-.9,1.3-.9,1.3-.9,1.3-.9,1.3-.9m0,0,.4-.3.4-.4m-1.1-.4.2.4m-.2-.4h0m0,0h0m-.3-.4.3.4m-.3-.4-4.2,2-4.2,2-4,2.3-3,1.8m15.9-7.3-3.6,2.5-3.6,2.5-3.5,2.3-.9.6M346.8,260v-.1m.2-.2-.2.2m.1.1-.1-.1m.1.1h0m0,0,.1-.3m0,.3h-.1M970,342.09l-.1.1-.5.2m.2-.2.5-.2.3-.3.1-.3m-.3-7.3.2.1.1.3-.1.3-.3.3-.5.2m-.2,7.1-29.5,13.3m0,0-.6-.1m.5-.1.1.2m.2-.2-.2.2m-468.7-96.9L385,245.89m582.2,87-170.9-25.5M385,245.89l-1-.1-1-.1h-2.2l-1,.1-1,.1-.9.1-.7.2-.6.3m0,0L347,259.69m0,0,119.3,17.8m503.1,57.6.5-.3.2-.3.1-.2-.1-.3-.2-.3-.5-.2-.6-.3-.8-.2-.8-.1m-27.1,22.6,29.5-13.3m-29.7,6.1,29.5-13.2m.2.2-29.5,13.3m-.6,6.9h.3m0-6.9-.3-.1m-144.9-21.9,145.3,21.7m-.1,7.2v-6.9m.3,6.9h-.3m.3-6.9v6.9m0-6.9-.2-.3m0,0-.1.3m.3,0h-.3m-475.3-64.5-.1-.2m15.9-77,.2-1,.3-1,.6-1,.6-.8.8-.7.8-.6.9-.4,1-.1,1-.1m-22.1,82.7,2.4-8.4,2.3-8.4,2.1-8.5,2-8.6,1.7-8.5,1.6-8.6,1.4-8.7,1.3-8.6,1.1-8.7m-15.8,77h-.1m22.1-82.7,4.7.5,4.7.4,4.8.4,4.8.3,4.7.4,4.8.3,4.7.2,4.8.3m239.7,36-3-.7M524.5,204l14.2.7,14.1.9,14.1,1,14.1,1.3,14.1,1.4,14.1,1.6,14,1.7,14,1.9,13.9,2.1,14,2.3,13.9,2.4,13.9,2.6,13.8,2.7,13.8,3,13.8,3.1L748,236l13.7,3.4m3.2.8-.7-.2m-2.5-.6,4.6,1.2,4.6,1.1,4.6,1.1,4.6,1.1,4.7,1,4.6,1.1,4.7,1,4.6.9m6.5,7.9.2-1.1v-1.1l-.2-1-.3-1-.5-.9-.6-.8-.8-.6-.8-.5-.7-.2m-2.8-.7.9.3.9.5.7.6.6.7.5.9.4,1,.1,1.1v1l-.1,1.1m-338.2,29,.9.2m322.1,48.3,6.6,1m.1-.1.6-8.7.7-8.7.8-8.7,1.1-8.6,1.2-8.7,1.4-8.6,1.6-8.6,1.7-8.6,1.9-8.5m-11,77.7-.1.1m-2.4-.8,2.5.7m-.1.1-2.6-.6M486.3,201.39h-.9l-.9.2-.9.4-.8.5-.8.7-.6.8-.5.9-.4,1-.2,1m0,0-1,8.7-1.3,8.6-1.4,8.7-1.6,8.6-1.8,8.5-1.9,8.6-2.1,8.5-2.3,8.4-2.4,8.4m337.9-28.8.2-1.1v-1l-.2-1-.3-1-.5-.9-.6-.7-.7-.6-.8-.5-.9-.2m0,0-4.7-1-4.6-1-4.7-1-4.6-1-4.6-1.1-4.6-1.1-4.7-1.2-4.6-1.1m0,0-13.6-3.5-13.8-3.3-13.7-3.1-13.8-2.9L692.7,224l-13.8-2.5L665,219l-14-2.2-13.9-2.1-14-1.9L609,211l-14-1.6L580.9,208l-14.1-1.2-14.1-1.1-14.1-.9-14.2-.7m0,0-4.8-.2-4.7-.3-4.8-.3-4.8-.3-4.7-.3-4.8-.4-4.7-.4-4.8-.5m175.5,112,129.6,19.4m-206.5-30.9,71.8,10.7m-192.2-28.7,115.1,17.2m-115.1-17v-.2m1.3.4-1.3-.2m327,48.9-4.1-.6m4,.4.5-8.7.7-8.7.9-8.7,1.1-8.7,1.2-8.6,1.4-8.6,1.6-8.6,1.7-8.6,1.9-8.5m.3,0-1.9,8.6-1.8,8.5-1.6,8.6-1.4,8.7-1.2,8.6-1,8.7-.9,8.7-.7,8.6-.5,8.7m-.2.2.2-.2m0,0h-.3m.1.2-.1-.2m-463.2-50.5v2.4M891.9,417l-.5.2m0,0-1,1.9-1.2,1.9-1.1,1.7-1.2,1.6-1.3,1.5-1.2,1.4-1.3,1.2-1.3,1.1m9.6-12.3,12.3,1.8m-63,102.6-.7-.3m.7.3,12.8,2m0,0,.1-.3m-.1.3L903.8,501m-22-71.5-39.6,32.1m-3.8,10.3-.1,6.3-.1,6.3.1,6.3.2,6.2.2,6.1.3,6.1.5,6.1.5,6m0,0h0m13.6,2-13.6-2m13.6,2h0m-11.4-61.7-.6.6-.6.7-.5.9-.5.9-.5,1.1-.4,1.1-.3,1.2-.2,1.3-.2,1.2v1.3m65.3-50.2-.8,1.3-1.2,1.7-1.2,1.7-1.2,1.4-1.3,1.4-1.2,1.3-1.3,1.1m0,0-39.6,32m0,0-.7.6-.5.7-.6.9-.5,1-.4,1-.4,1.2-.3,1.2-.3,1.2-.1,1.3-.1,1.2m0,0-.1,6.3v12.6l.2,6.2.2,6.2.4,6.1.4,6,.5,6m50.1-22.4-50.1,22.4M369,451h0v.1h-.2l-2.8,1.3-2.2,1-.5.2-.1.1H363l-.1.1h-.8l-.2-.1h-.1v-.1m17.4,2.8h0l-.1.1-.1.2v.8l.2.2.1.1h.1m11.9,134.9v-96.2m-69.4-50.7v146.9m60.1-78v-19.6m-1.4-.2v20.3m585.6,77.5V476.09M898,503.59v89.1M288.2,438.09l551.7,82.4m-1.7-34.2-546.8-81.8m28-123.5v60m648.9,133.8h.1m.1-.4V342.79m-64.8,158.1h0m0-132.6v53.4m64.2,53.5.4-.4M294.4,394v.1M838.3,473l-5.2,1.8m-.9,1.5-.3,9m1.2-10.5-.3.1-.2.3-.2.3-.1.4-.1.4m-511.6-31.7.1.2.3.4.4.3.5.3.4.1.3.1m-2.8-3.2.8,1.8m2,1.4,35.2,5.2m0,0,.2.1.4-.1.4-.1.2-.3.1-.1m0,.1,1-2M340.5,447l.6-1m-33.9-79.9,551.2,82.4m-549.6-79.8h.1m.2,11.1,535.3,80M309,368.69l547,81.8m-551.9-74,.1.2.2.2.2.1m0,0,.2.1m.3.1,3.3.5m.7-3-2.3-.3m9.9-93.8,592.6,88.5m-569.8-32.4,549.9,82.1m14.3-48.1-576-86.1m561.7,134.2h0m-301.2-64.2h0m2.6.8h.1m-2.7-8.2h0m4,8h0m-1.4-7.2h.1m4.5,8.1h.1m-3.2-8.3-.1.1m2.9.7h0m16,2.1h0m4,8.3h0m-1.3-7.6h.1m4.3,8.1h.1m-3.3-8.3h0m2.6.8h0m1.5-.1h0m2.2.6h0m16.3,9.5h-.1m2.9.8h0m-2.8-8.2h-.1m2.9.8h0m-15.6,4.7h-.1m2.5.7h.1m2.1,0h0m-1.6-7.6h0m4.7,8.4h0m-32.7-5.2h0m2.5.7h0m2.1,0h0m-1.5-7.7h0m4.6,8.5h.1m-28-56.7-113.2-17m190.2,28.5L584.9,302m202.3,30.2-125.5-18.8m-206.3-20.8,320.8,47.9m11-5,.2-.1m0-2.9-.1-.1m-206.4-29.7-13-1.9m26.2,3.9-7.7-1.2m8.8,1.4h0l-.3-.1-.3-.1h-.5m-5.4-.5-1.4.2m0,0-4.7-.7m-7.8-12-.4.1m-.6.3-.1.1v.6m.7-1-.3.1H574l-.1.1m-.2.8.6.9.4.7.3.4.3.5.4.5.3.4m2.7,3.8.3.4.8,1,.9,1,.6.8.3.4m75.1,11.2-4.7-.7m2.8-.4-3.8-.5m26.1,3.9-17-2.6m17.7,2.9h-.1m.6-.1h-.1l-.2-.1h-.4l-.5-.1M670.4,306l-.5.1m.1,0h-.4m-.1,0-.9.4-.5.3-.6.2-.6.3-.6.3-.6.3-.6.3-.6.3-1.1.5-1.1.6-1.2.6H661m309,31.9.2-.2m.3-.5v-6.9m-.3-.4-.2-.3m-208.8-94.5-2.6-.7m42.9,10L799,248M371.9,454.89l-.5-.1-.6-.2-.5-.3-.5-.5-.4-.5-.2-.7-.2-.8V451m-7.2,2.6.3,1.6.4.8.5.8.8.7.9.6,1,.4,1.2.1M369,451v-.8m-7.3-1.1.1,4.5m20.4-1.5-.9.5-.6.2-.3.2h-.2m-.3,1.6-2.2.1-2.8.1-3,.1m-5,3.7,3-.1,3.1-.2,6.4-.5m.5-2.1-.1.2v.1m-.4,1.8h.1l.7-.3.7-.3.8-.3.7-.4.7-.3.7-.3.2-.1.2-.2.5-.4.2-.2.2-.3.1-.4.1-.4m-5.4-.3v-.3l.1-.1.2-.1V453m0,0h0m-.3.6v2.1m5.4-1.8v-1.3" transform="translate(-271.3 -200.69)"/><path class="cls-3" d="M546,465.56" transform="translate(-271.3 -200.69)"/><path class="cls-3" d="M572,479.06a137,137,0,0,0,19.84-15.51c2.56-2.48,5.33-5.78,8.37-7.59,1.56-.94,3.23-1.59,4.8-2.5,1.74-1,2.44-2.79,4.6-3.18a25,25,0,0,1,4.15.15,31.14,31.14,0,0,0,7.39-1c2.77-.68,7.73-1.84,9.73-4,1.13-1.22.31-2.18,1.74-2.76s2.42-1.1,2.38-2.86c-.06-2.47.68-3,1.79-5.05.9-1.67,1.53-1.63,3.07-2.59,1.71-1.07,1.76-2.79,1.32-4.54-.51-2-2.66-1.83-4.17-2.51-1-1.3,2.83-5.23-.2-6.59-2.44-1.1-4.81,3-7,4.31-2,1.18-3.35,1.06-5.43.67-1.91-.35-3.86.68-5.67,1.45-2.35,1-4.88,1.21-7.12,2.58s-4.1,3.11-6.11,4.6c-3.89,2.89-7.58,6-11.41,9.06-10.3,8.22-22.33,13.81-34.37,19-2.53,1.08-11.61,5.3-19.47,9" transform="translate(-271.3 -200.69)"/><path class="cls-4" d="M638.92,426" transform="translate(-271.3 -200.69)"/><path class="cls-4" d="M637.11,426.4" transform="translate(-271.3 -200.69)"/><path class="cls-4" d="M623.39,426.17a21.58,21.58,0,0,0,9.39.79c1.31-.21,2.89-.34,4.33-.56" transform="translate(-271.3 -200.69)"/><path class="cls-4" d="M637.07,423.29a13.72,13.72,0,0,1-2.2,3.34" transform="translate(-271.3 -200.69)"/><path class="cls-4" d="M629.8,422.77a24.84,24.84,0,0,0-3.67-.8c-.69.57.15,1,.79,1.51" transform="translate(-271.3 -200.69)"/><path class="cls-3" d="M445.87,454.65" transform="translate(-271.3 -200.69)"/><path class="cls-3" d="M443.13,451.79" transform="translate(-271.3 -200.69)"/><path class="cls-3" d="M450.67,460.17c8.34-6.34,19.62-17.48,25-21.91,5.64-4.64,10.21-8.56,17.35-8.95a21.72,21.72,0,0,0,5-.95c1.71-.5,2.2-1.64,3.45-2.64,2.5-2,4.94-3.86,7.58-5.65,1.54-1.05,3-2.14,4.44-3.33a11.57,11.57,0,0,0,2.32-2.21c.31-.47,0-.93.26-1.34.7-1.05,2.14-1.57,2.26-3.11.15-2-2.24-2-3.54-2.94-1.1-.84-2.51-.1-3.19-.28-.46-.13-.59-.66-.08-2.36.18-.59.77-3.1-1.24-2.86-1.59.33-3.23,3.08-4.31,3.34a45.79,45.79,0,0,1-5.64,1.45c-1.77.19-3.48-.08-5.22.59a33.6,33.6,0,0,0-11.83,7c-1.69,1.53-3.58,2.1-5.55,3.11A52.08,52.08,0,0,0,472,421c-3.58,2.51-7,5.07-10.8,7.25-6.26,3.57-13,6.37-19.32,9.95-.75.42-17.11,9-23.82,12.51" transform="translate(-271.3 -200.69)"/><path class="cls-4" d="M511.19,406a11,11,0,0,1-4.33,4.73c-2.08,1-3.51.59-5.52,1-.91.2-2.64,3.52-3.44,4.23a12.24,12.24,0,0,1-5.91,3.2" transform="translate(-271.3 -200.69)"/><path class="cls-4" d="M516.76,408" transform="translate(-271.3 -200.69)"/><path class="cls-4" d="M503.53,418.24c1.44-1,12.24-8.68,12.48-4.6" transform="translate(-271.3 -200.69)"/><path class="cls-4" d="M504.4,413.84a62.57,62.57,0,0,0,7.64-3.71c1-.66,3.56-2.55,4.56-2.24" transform="translate(-271.3 -200.69)"/><path class="cls-4" d="M496.54,406.66s4.44-1.52,5.31-2a6.88,6.88,0,0,1,2.33-.56l1.62.44" transform="translate(-271.3 -200.69)"/><path class="cls-3" d="M509.15,408.93a28.78,28.78,0,0,1,3.56-2.13" transform="translate(-271.3 -200.69)"/><path class="cls-5" d="M586.34,405.16l5.1.71L591,399l-26.82,3,7.49,1L526,421.59l.14,17-6-.84,11,11.73,14.67-8.12-6.92-1v-17Z" transform="translate(-271.3 -200.69)"/><path class="cls-6" d="M586.34,405.16l5.1.71L591,399l-26.82,3,7.49,1L526,421.59l.14,17-6-.84,11,11.73,14.67-8.12-6.92-1v-17Z" transform="translate(-271.3 -200.69)"/></svg>